<svg width="211" height="149" viewBox="0 0 211 149" fill="none" xmlns="http://www.w3.org/2000/svg">
<g clip-path="url(#clip0_26_18)">
<rect width="210" height="148.5" transform="translate(0.5)" fill="white"/>
<path d="M149.293 39.7619C149.032 39.7619 148.902 39.6864 148.902 39.5354C148.902 39.3843 149.015 39.302 149.241 39.2882L150.415 39.1441C150.763 39.1029 150.998 39.0342 151.12 38.9381C151.242 38.8283 151.303 38.6292 151.303 38.3409V25.9841C151.303 25.7918 151.25 25.6546 151.146 25.5722C151.042 25.4898 150.824 25.4486 150.494 25.4486C149.85 25.4486 149.215 25.6683 148.589 26.1076C147.962 26.547 147.554 27.2541 147.362 28.2289L147.232 28.9085C147.197 29.087 147.075 29.1762 146.866 29.1762C146.606 29.1762 146.492 29.0595 146.527 28.8261L146.762 25.0985C146.797 24.7827 146.953 24.6248 147.232 24.6248C147.354 24.6248 147.467 24.6523 147.571 24.7072C147.675 24.7484 147.849 24.7964 148.093 24.8514C148.354 24.9063 148.763 24.9337 149.319 24.9337H155.138C155.695 24.9337 156.095 24.9063 156.339 24.8514C156.6 24.7964 156.782 24.7484 156.887 24.7072C157.009 24.6523 157.122 24.6248 157.226 24.6248C157.504 24.6248 157.661 24.7827 157.696 25.0985L157.931 28.8261C157.965 29.0595 157.852 29.1762 157.591 29.1762C157.383 29.1762 157.261 29.087 157.226 28.9085L157.096 28.2289C156.922 27.2541 156.521 26.547 155.895 26.1076C155.269 25.6683 154.625 25.4486 153.964 25.4486C153.634 25.4486 153.416 25.4898 153.312 25.5722C153.207 25.6546 153.155 25.7918 153.155 25.9841V38.3409C153.155 38.6292 153.216 38.8283 153.338 38.9381C153.477 39.0342 153.712 39.1029 154.043 39.1441L155.217 39.2882C155.443 39.302 155.556 39.3843 155.556 39.5354C155.556 39.6864 155.426 39.7619 155.165 39.7619H149.293Z" fill="black"/>
<path d="M140.593 39.9473C140.245 39.9473 139.854 39.9198 139.419 39.8649C139.001 39.81 138.601 39.7413 138.218 39.6589C137.853 39.5765 137.566 39.4873 137.357 39.3912C137.235 39.3363 137.14 39.2814 137.07 39.2264C137.018 39.1578 136.992 39.0479 136.992 38.8969L136.861 35.6636C136.861 35.389 136.975 35.2517 137.201 35.2517C137.392 35.2517 137.523 35.3752 137.592 35.6224L137.827 36.405C138.418 38.3683 139.523 39.35 141.141 39.35C142.011 39.35 142.698 39.1235 143.202 38.6704C143.724 38.2036 143.985 37.5514 143.985 36.7139C143.985 35.9038 143.716 35.1487 143.176 34.4485C142.654 33.7483 141.811 33.0549 140.645 32.3684C139.358 31.6407 138.418 30.9405 137.827 30.2678C137.235 29.5813 136.94 28.8536 136.94 28.0847C136.94 27.0687 137.383 26.2587 138.271 25.6545C139.175 25.0367 140.323 24.7278 141.715 24.7278C142.237 24.7278 142.741 24.7758 143.229 24.8719C143.716 24.9681 144.116 25.1054 144.429 25.2838C144.533 25.3388 144.612 25.4005 144.664 25.4692C144.733 25.5378 144.768 25.6271 144.768 25.7369L144.846 28.8467C144.846 29.0801 144.733 29.1968 144.507 29.1968C144.351 29.1968 144.238 29.1007 144.168 28.9085L143.985 28.3936C143.603 27.3364 143.202 26.5676 142.785 26.087C142.385 25.5928 141.802 25.3456 141.037 25.3456C140.289 25.3456 139.688 25.5378 139.236 25.9223C138.801 26.3067 138.584 26.849 138.584 27.5493C138.584 28.1396 138.827 28.7026 139.314 29.238C139.801 29.7735 140.654 30.4256 141.872 31.1945C143.176 32.032 144.124 32.8421 144.716 33.6247C145.325 34.3936 145.629 35.2173 145.629 36.096C145.629 36.8649 145.412 37.5377 144.977 38.1143C144.542 38.691 143.942 39.1441 143.176 39.4736C142.428 39.7894 141.567 39.9473 140.593 39.9473Z" fill="black"/>
<path d="M124.855 39.7619C124.594 39.7619 124.463 39.6864 124.463 39.5353C124.463 39.4118 124.576 39.3294 124.802 39.2882L125.403 39.2058C125.768 39.1509 126.003 39.0754 126.107 38.9793C126.229 38.8832 126.29 38.691 126.29 38.4026V26.293C126.29 26.0046 126.229 25.8124 126.107 25.7163C126.003 25.6202 125.768 25.5447 125.403 25.4898L124.802 25.4074C124.576 25.3662 124.463 25.2838 124.463 25.1603C124.463 25.0092 124.594 24.9337 124.855 24.9337H133.622C134.023 24.9337 134.24 25.0916 134.275 25.4074L134.484 28.8261C134.518 29.0595 134.405 29.1762 134.144 29.1762C133.936 29.1762 133.814 29.087 133.779 28.9085L133.622 28.1465C133.431 27.2129 133.04 26.5332 132.448 26.1076C131.857 25.6683 131.039 25.4486 129.995 25.4486C129.299 25.4486 128.812 25.531 128.534 25.6957C128.273 25.8467 128.143 26.1213 128.143 26.5195V31.4828C128.143 31.675 128.264 31.7711 128.508 31.7711H129.813C130.578 31.7711 131.048 31.4485 131.222 30.8032L131.483 29.7735C131.552 29.5675 131.7 29.4783 131.926 29.5057C132.118 29.5332 132.213 29.6499 132.213 29.8558V34.4896C132.213 34.6956 132.118 34.8123 131.926 34.8398C131.7 34.8672 131.552 34.778 131.483 34.572L131.222 33.5629C131.1 33.0823 130.926 32.7666 130.7 32.6155C130.491 32.4645 130.187 32.389 129.787 32.389H128.508C128.264 32.389 128.143 32.4851 128.143 32.6773V37.8466C128.143 38.3409 128.299 38.6978 128.612 38.9175C128.943 39.1372 129.534 39.247 130.387 39.247C131.257 39.247 131.996 39.0754 132.605 38.7322C133.231 38.3752 133.666 37.7161 133.909 36.7551L134.223 35.54C134.275 35.3615 134.405 35.2722 134.614 35.2722C134.858 35.2722 134.962 35.3889 134.927 35.6224L134.666 39.2882C134.631 39.604 134.414 39.7619 134.014 39.7619H124.855Z" fill="black"/>
<path d="M117.153 39.9472C116.214 39.9472 115.379 39.7756 114.648 39.4324C113.935 39.0754 113.378 38.588 112.978 37.9701C112.578 37.3386 112.378 36.6178 112.378 35.8077V26.293C112.378 26.0046 112.317 25.8124 112.195 25.7163C112.091 25.6202 111.856 25.5447 111.491 25.4898L110.891 25.4074C110.664 25.3662 110.551 25.2838 110.551 25.1603C110.551 25.0092 110.682 24.9337 110.943 24.9337H115.718C115.979 24.9337 116.109 25.0161 116.109 25.1809C116.109 25.3044 116.014 25.3799 115.822 25.4074L115.118 25.4898C114.77 25.531 114.535 25.6065 114.413 25.7163C114.292 25.8262 114.231 26.0252 114.231 26.3136V35.8283C114.231 36.8718 114.526 37.6818 115.118 38.2585C115.709 38.8351 116.536 39.1234 117.597 39.1234C118.675 39.1234 119.51 38.8351 120.102 38.2585C120.693 37.6818 120.989 36.8718 120.989 35.8283V26.7255C120.989 25.984 120.693 25.5722 120.102 25.4898L119.397 25.4074C119.206 25.3799 119.11 25.3044 119.11 25.1809C119.11 25.0161 119.241 24.9337 119.502 24.9337H123.259C123.52 24.9337 123.651 25.0092 123.651 25.1603C123.651 25.2838 123.538 25.3662 123.312 25.4074L122.711 25.4898C122.12 25.5722 121.824 25.9772 121.824 26.7049V35.8077C121.824 37.0571 121.398 38.0594 120.546 38.8145C119.693 39.5697 118.562 39.9472 117.153 39.9472Z" fill="black"/>
<path d="M93.1332 9.776C94.0275 8.76484 95.0997 8.46496 96.0487 8.67461C96.888 8.86008 97.6001 9.43996 97.9631 10.2061C98.7823 9.47524 99.5764 9.27087 100.308 9.45571C100.981 9.62568 101.532 10.1105 101.953 10.6506C103.146 9.42406 104.383 9.1506 105.453 9.4263C106.473 9.6892 107.287 10.4385 107.723 11.1934C108.966 10.9708 109.767 11.201 110.189 11.7661C110.562 12.2665 110.554 12.9269 110.434 13.457C110.962 13.8569 111.307 14.2494 111.492 14.6366C111.702 15.0774 111.696 15.498 111.533 15.8672C111.376 16.2234 111.084 16.5055 110.767 16.7174C110.539 16.869 110.287 16.9914 110.037 17.0847C110.211 17.7112 110.219 18.2488 110.081 18.6992C109.919 19.2268 109.567 19.5972 109.129 19.8325C108.362 20.2452 107.323 20.2517 106.453 20.0301C106.227 20.5703 105.946 20.99 105.604 21.2901C105.203 21.6432 104.737 21.8165 104.23 21.8402C103.298 21.8838 102.248 21.4191 101.177 20.7169C98.7282 22.5996 95.8567 23.0841 93.8183 23.0841C91.952 23.0841 90.3854 23.0936 88.6703 23.0984C86.9344 23.1033 85.0488 23.1035 82.553 23.0841L82.5581 22.4611C85.0511 22.4805 86.9342 22.4804 88.6686 22.4755C89.6686 22.4726 90.6201 22.4683 91.6105 22.4652C91.9896 22.8475 92.5152 23.0844 93.0962 23.0844C93.6918 23.0843 94.2286 22.8351 94.6097 22.4357C96.5198 22.3156 98.922 21.7349 100.967 20.0902L101.146 19.9456L101.337 20.0751C102.456 20.8353 103.43 21.254 104.201 21.218C104.575 21.2005 104.904 21.0765 105.193 20.8223C105.487 20.5638 105.755 20.1561 105.972 19.5477L106.074 19.2621L106.362 19.3563C107.185 19.6253 108.183 19.634 108.834 19.2837C109.149 19.1145 109.378 18.8653 109.486 18.5162C109.595 18.1603 109.589 17.6636 109.355 16.9864L109.247 16.6744L109.565 16.5849C109.857 16.5027 110.163 16.3709 110.421 16.1993C110.681 16.0259 110.87 15.8259 110.963 15.6155C111.05 15.4181 111.064 15.1872 110.929 14.9046C110.789 14.6094 110.481 14.2488 109.9 13.8371L109.718 13.7079L109.781 13.4939C109.93 12.9952 109.935 12.4674 109.69 12.1389C109.466 11.839 108.921 11.5695 107.623 11.848L107.384 11.8993L107.277 11.6793C106.945 10.9928 106.209 10.2643 105.297 10.0294C104.418 9.80281 103.308 10.0197 102.16 11.3457L101.894 11.654L101.666 11.3156C101.255 10.7022 100.735 10.2061 100.156 10.0596C99.6095 9.92167 98.9107 10.0722 98.0644 10.9792L97.6762 11.3953L97.535 10.8439C97.3375 10.0733 96.6953 9.45558 95.9144 9.283C95.1535 9.11486 94.2155 9.36275 93.4085 10.4213L93.1805 10.7208L92.9291 10.4407C92.5753 10.0466 92.0074 9.76668 91.4765 9.83005C90.9807 9.88926 90.4072 10.2645 90.0508 11.4164L89.9902 11.6127L89.7861 11.6341C88.99 11.7181 88.5831 12.0492 88.4496 12.3996C88.3154 12.7521 88.4053 13.2603 88.9011 13.8117L89.0771 14.0073L88.9137 14.2135C88.6217 14.5822 88.3181 15.1322 88.2819 15.6072C88.2646 15.8347 88.3097 16.0249 88.4257 16.1771C88.5431 16.3311 88.7632 16.4859 89.1714 16.5816L89.0291 17.188C88.5268 17.0702 88.1607 16.8568 87.9305 16.555C87.6991 16.2515 87.635 15.8979 87.6607 15.56C87.703 15.004 87.9905 14.4391 88.2739 14.0312C87.81 13.4278 87.6451 12.7622 87.8676 12.1779C88.0972 11.5752 88.6945 11.1752 89.5191 11.0415C89.9325 9.86803 90.6273 9.30416 91.4028 9.2116C92.0497 9.13441 92.6789 9.39723 93.1332 9.776Z" fill="black"/>
<path d="M69.3748 39.5353C69.3748 39.6864 69.5053 39.7619 69.7663 39.7619H75.6376C75.8985 39.7619 76.029 39.6864 76.029 39.5353C76.029 39.3843 75.9159 39.3019 75.6897 39.2882L74.5155 39.144C74.185 39.1029 73.9501 39.0342 73.8109 38.9381C73.6892 38.8283 73.6283 38.6292 73.6283 38.3409V33.3158C73.6283 33.0961 73.6544 32.9039 73.7066 32.7391C73.7587 32.5606 73.8457 32.3753 73.9675 32.183L77.3859 26.7666C77.6816 26.3136 77.9165 25.9909 78.0904 25.7987C79.2598 24.5067 80.9527 23.1589 82.553 23.0841L82.5581 22.4611C78.9664 22.1181 77.4155 25.2753 76.5248 26.746L73.4456 31.7094C73.376 31.8055 73.289 31.8535 73.1847 31.8535C73.0803 31.8535 72.9933 31.8055 72.9237 31.7094L69.7141 26.3136C69.5401 26.0252 69.514 25.8124 69.6358 25.6751C69.7576 25.5378 69.9663 25.4623 70.2621 25.4486L70.7579 25.4074C71.0536 25.3937 71.2015 25.3113 71.2015 25.1603C71.2015 25.0092 71.0797 24.9337 70.8361 24.9337H66.374C66.113 24.9337 65.9825 25.0024 65.9825 25.1397C65.9825 25.277 66.1043 25.3662 66.3479 25.4074L66.5827 25.4486C66.8785 25.5035 67.1046 25.5927 67.2612 25.7163C67.4177 25.8399 67.5569 26.0184 67.6787 26.2518L71.5146 32.5949C71.6886 32.8833 71.7755 33.1785 71.7755 33.4805V38.3409C71.7755 38.6292 71.7147 38.8283 71.5929 38.9381C71.4711 39.0342 71.2363 39.1029 70.8883 39.144L69.7141 39.2882C69.4879 39.3019 69.3748 39.3843 69.3748 39.5353Z" fill="black"/>
<path d="M64.1408 39.9472C63.8625 39.9472 63.6277 39.7825 63.4363 39.453L56.3647 27.3433C56.3125 27.2472 56.2429 27.206 56.1559 27.2197C56.0863 27.2335 56.0515 27.2952 56.0515 27.4051V37.9907C56.0515 38.3752 56.1298 38.6704 56.2864 38.8763C56.4603 39.0685 56.7648 39.1921 57.1997 39.247L57.5389 39.2882C57.7651 39.3019 57.8781 39.3843 57.8781 39.5353C57.8781 39.6864 57.7477 39.7619 57.4867 39.7619H53.7552C53.4942 39.7619 53.3638 39.6864 53.3638 39.5353C53.3638 39.3843 53.4768 39.3019 53.703 39.2882L54.0422 39.247C54.4945 39.1921 54.8077 39.0685 54.9816 38.8763C55.1556 38.6704 55.2426 38.3752 55.2426 37.9907V26.293C55.2426 26.0046 55.1817 25.8124 55.0599 25.7163C54.9555 25.6202 54.7033 25.5447 54.3032 25.4898L53.703 25.4074C53.4768 25.3662 53.3638 25.2838 53.3638 25.1603C53.3638 25.0092 53.4942 24.9337 53.7552 24.9337H56.5473C56.9822 24.9337 57.2867 25.0847 57.4606 25.3868L63.619 36.0754C63.6711 36.1578 63.732 36.1921 63.8016 36.1784C63.8886 36.1647 63.9321 36.1166 63.9321 36.0342V26.7049C63.9321 26.2655 63.8364 25.9635 63.645 25.7987C63.4537 25.6202 63.2101 25.5104 62.9144 25.4692L62.4447 25.4074C62.2185 25.3662 62.1055 25.2838 62.1055 25.1603C62.1055 25.0092 62.2359 24.9337 62.4969 24.9337H66.2284C66.4894 24.9337 66.6198 25.0092 66.6198 25.1603C66.6198 25.3113 66.5068 25.3937 66.2806 25.4074L65.9414 25.4486C65.4891 25.5035 65.1759 25.6202 65.002 25.7987C64.828 25.9635 64.741 26.2655 64.741 26.7049V39.2882C64.741 39.5353 64.6801 39.707 64.5584 39.8031C64.454 39.8992 64.3148 39.9472 64.1408 39.9472Z" fill="black"/>
<path fill-rule="evenodd" clip-rule="evenodd" d="M82.0656 38.9999C83.0398 39.6315 84.2314 39.9473 85.6406 39.9473C86.3538 39.9473 86.9801 39.8923 87.5194 39.7825C88.0587 39.6864 88.5371 39.556 88.9546 39.3912C89.2155 39.2814 89.3982 39.1852 89.5026 39.1029C89.6069 39.0068 89.6591 38.8832 89.6591 38.7322V33.151C89.6591 32.8627 89.6939 32.6567 89.7635 32.5332C89.435 32.5332 88.8909 32.4222 88.3732 32.3166C88.0898 32.2588 87.8144 32.2026 87.5864 32.1671C86.8397 32.0507 86.5276 32.1101 86.9192 32.3272C87.2845 32.3547 87.5194 32.4233 87.6237 32.5332C87.7455 32.643 87.8064 32.8421 87.8064 33.1304V37.6406C87.8064 38.3134 87.6237 38.7734 87.2584 39.0205C86.8931 39.2676 86.3538 39.3912 85.6406 39.3912C84.3184 39.3912 83.2312 38.7871 82.3787 37.5789C81.5437 36.3569 81.1262 34.5858 81.1262 32.2654C81.1262 30.0138 81.535 28.2975 82.3526 27.1168C83.1877 25.9223 84.2401 25.325 85.5101 25.325C86.3625 25.325 87.0323 25.5378 87.5194 25.9635C88.0065 26.3891 88.4414 27.1717 88.8241 28.3113L89.0329 28.9291C89.085 29.1076 89.2068 29.1968 89.3982 29.1968C89.6069 29.1968 89.7113 29.0801 89.7113 28.8467L89.633 25.7163C89.633 25.5241 89.52 25.3799 89.2938 25.2838C88.8763 25.1191 88.3892 24.9886 87.8325 24.8925C87.2758 24.7827 86.6582 24.7278 85.9798 24.7278C84.6403 24.7278 83.4486 25.0436 82.4048 25.6751C81.3784 26.293 80.5695 27.1717 79.978 28.3113C79.3865 29.4371 79.0908 30.7552 79.0908 32.2654C79.0908 33.8306 79.3431 35.1899 79.8476 36.3432C80.352 37.4828 81.0914 38.3683 82.0656 38.9999Z" fill="black"/>
<path fill-rule="evenodd" clip-rule="evenodd" d="M100.342 37.8037C100.938 38.7021 101.699 39.2192 102.625 39.355C102.716 39.5667 103.08 40.0051 103.078 40.0735C102.879 40.0069 102.467 39.9458 102.254 39.8876C102.118 39.8502 101.989 39.815 101.882 39.7825C100.977 39.5491 100.16 39.0823 99.4291 38.3821C99.1388 38.0915 98.873 37.7736 98.6317 37.4285C99.1194 37.5759 100.144 37.8573 100.342 37.8037ZM99.1943 32.3272C99.1943 34.2494 99.4221 35.776 99.8779 36.907C99.7347 36.8986 98.5322 36.4609 97.9489 36.243C97.873 36.0817 97.801 35.916 97.733 35.7459C97.3328 34.7025 97.1328 33.5629 97.1328 32.3272C97.1328 31.2563 97.2807 30.2609 97.5764 29.341C97.8895 28.4211 98.3157 27.6179 98.855 26.9314C99.4117 26.2312 100.055 25.6889 100.786 25.3044C101.517 24.92 102.3 24.7278 103.135 24.7278C103.97 24.7278 104.744 24.92 105.457 25.3044C106.188 25.6889 106.831 26.2312 107.388 26.9314C107.945 27.6179 108.371 28.4211 108.667 29.341C108.98 30.2609 109.136 31.2563 109.136 32.3272C109.136 33.5904 108.919 34.7574 108.484 35.8283C108.066 36.8855 107.484 37.7642 106.736 38.4644C106.145 39.0305 105.486 39.435 104.759 39.678C104.618 39.5445 104.331 39.2589 104.31 39.1854C105 38.9225 105.574 38.4076 106.031 37.6406C106.727 36.4736 107.075 34.7025 107.075 32.3272C107.075 29.952 106.727 28.1877 106.031 27.0344C105.335 25.8674 104.37 25.2838 103.135 25.2838C101.917 25.2838 100.951 25.8674 100.238 27.0344C99.5422 28.1877 99.1943 29.952 99.1943 32.3272Z" fill="black"/>
<path d="M84.5914 33.151C85.0244 32.6842 86.3889 31.7283 88.1044 31.926C90.2488 32.1732 95.7633 35.7305 97.4747 36.685C97.7139 36.8183 98.031 36.9529 98.4005 37.0772C98.9097 37.2486 99.5185 37.4007 100.159 37.5036C100.656 37.5834 101.172 37.6337 101.676 37.6406C101.738 37.6415 101.8 37.6419 101.861 37.6418C101.774 37.5386 101.684 37.4349 101.592 37.3302C101.026 37.3322 100.485 37.2617 99.9828 37.1516C99.2535 36.9917 98.6069 36.7484 98.0868 36.523C97.8568 36.4233 97.6515 36.327 97.4747 36.243C96.1454 35.6115 90.9658 32.1556 88.6344 31.7712C86.7692 31.4636 84.9621 32.5103 84.5914 33.151Z" fill="black"/>
<path d="M102.536 37.6183C102.455 37.5153 102.369 37.4053 102.279 37.2913C102.047 37.3171 101.818 37.3294 101.592 37.3302C101.684 37.4349 101.774 37.5386 101.861 37.6418C102.095 37.6413 102.32 37.6336 102.536 37.6183Z" fill="black"/>
<path d="M103.949 39.2975C103.692 39.36 103.42 39.3912 103.135 39.3912C103.097 39.3912 103.059 39.3906 103.022 39.3895C103.084 39.5536 103.134 39.5766 103.27 39.8109C103.406 40.0452 103.838 40.6076 104.014 40.9903C104.358 41.7372 104.799 42.2892 105.338 42.6464C105.877 43.0035 106.448 43.2239 107.049 43.3075C107.671 43.4022 108.239 43.4138 108.753 43.3423C109.352 43.2588 109.836 43.1288 110.202 42.9523C110.589 42.7869 110.902 42.604 111.14 42.4036C111.256 42.2899 111.303 42.1857 111.282 42.0911C111.258 41.9829 111.183 41.9236 111.057 41.9133C110.931 41.9029 110.807 41.9411 110.685 42.0278C110.211 42.3586 109.76 42.5096 109.203 42.6313C108.606 42.7618 108.173 42.8764 107.323 42.6313C106.473 42.3861 106.106 42.0647 105.623 41.3234C105.217 40.7018 104.569 39.9669 103.949 39.2975Z" fill="black"/>
<path fill-rule="evenodd" clip-rule="evenodd" d="M106.752 32.111C107.147 33.2009 107.109 34.1679 106.151 35.6746C106.05 35.8334 105.925 35.9852 105.795 36.1212C105.565 36.3624 105.32 36.5539 105.17 36.6464C104.644 36.9708 104.475 37.0522 104.143 37.194C103.519 37.461 102.951 37.5888 102.536 37.6183C102.455 37.5153 102.369 37.4053 102.279 37.2913C102.561 37.26 102.846 37.2088 103.135 37.1341C103.645 37.0018 104.257 36.6634 104.644 36.3955C104.918 36.2058 105.197 35.8578 105.218 35.8283C105.914 34.8773 106.333 33.8635 106.124 32.9295C106.055 32.623 105.781 32.2164 105.346 32.1645C104.858 32.1064 104.085 32.3558 103.437 33.1304C102.848 32.1671 101.882 31.7044 100.904 31.9977C100.675 32.0666 100.348 32.5148 100.238 32.9952C100.11 33.5578 100.222 34.6031 100.904 35.62C101.054 35.8422 101.33 36.1633 101.622 36.5039C101.811 36.7238 102.007 36.9519 102.18 37.1666C102.141 37.1786 101.693 37.1918 101.475 37.1969C101.426 37.1421 101.375 37.085 101.322 37.0264C101.061 36.7338 100.765 36.4027 100.543 36.1212C100.502 36.0695 100.462 36.0187 100.422 35.9687C99.7305 35.0994 99.2071 34.4413 99.4291 32.5999C99.5284 31.7763 100.177 31.2642 100.967 31.1505C101.927 31.0121 103.062 31.4531 103.54 32.5332C103.819 31.912 104.645 31.3295 105.482 31.3384C105.946 31.3433 106.576 31.6239 106.752 32.111Z" fill="black"/>
<path fill-rule="evenodd" clip-rule="evenodd" d="M103.949 39.2975C103.692 39.36 103.42 39.3912 103.135 39.3912C103.097 39.3912 103.059 39.3906 103.022 39.3895C102.901 39.0718 102.779 38.8972 102.55 38.5716C102.483 38.4748 102.405 38.3646 102.316 38.2334C102.219 38.0898 102.11 37.947 101.994 37.8037C102.193 37.7957 102.602 37.7754 102.646 37.7584C102.719 37.8505 102.786 37.9347 102.844 38.0083C102.919 38.1028 102.98 38.1798 103.022 38.2334C103.368 38.6745 103.693 39.023 103.882 39.2261C103.907 39.2524 103.929 39.2762 103.949 39.2975Z" fill="black"/>
<circle cx="90.6826" cy="24.4888" r="1" stroke="black" stroke-width="0.505019"/>
<circle cx="90.6826" cy="24.4888" r="1" stroke="black" stroke-width="0.505019"/>
<path d="M94.4526 20.992C94.4526 20.2429 93.8454 19.6355 93.0963 19.6355C92.3471 19.6355 91.7398 20.2429 91.7398 20.992C91.7398 21.7412 92.3472 22.3483 93.0963 22.3483V22.8632L93 22.8609C92.0431 22.8125 91.2759 22.0452 91.2274 21.0883L91.2249 20.992C91.2249 19.9585 92.0628 19.1206 93.0963 19.1206L93.1926 19.1231C94.1813 19.1733 94.9675 19.9908 94.9675 20.992L94.9652 21.0883C94.9151 22.077 94.0975 22.8632 93.0963 22.8632V22.3483C93.8454 22.3483 94.4526 21.7411 94.4526 20.992Z" fill="black"/>
<path d="M94.4526 20.992C94.4526 20.2429 93.8454 19.6355 93.0963 19.6355C92.3471 19.6355 91.7398 20.2429 91.7398 20.992C91.7398 21.7412 92.3472 22.3483 93.0963 22.3483V22.8632L93 22.8609C92.0431 22.8125 91.2759 22.0452 91.2274 21.0883L91.2249 20.992C91.2249 19.9585 92.0628 19.1206 93.0963 19.1206L93.1926 19.1231C94.1813 19.1733 94.9675 19.9908 94.9675 20.992L94.9652 21.0883C94.9151 22.077 94.0975 22.8632 93.0963 22.8632V22.3483C93.8454 22.3483 94.4526 21.7411 94.4526 20.992Z" fill="black"/>
<path d="M93.0337 70.2694V71.6756H87.3064V70.2694H93.0337ZM105.266 69.724C105.446 69.736 105.668 69.754 105.932 69.778C106.196 69.79 106.484 69.802 106.796 69.814C107.12 69.814 107.444 69.814 107.768 69.814C107.96 69.814 108.254 69.814 108.65 69.814C109.058 69.814 109.532 69.814 110.072 69.814C110.612 69.814 111.182 69.814 111.782 69.814C112.394 69.814 113 69.814 113.6 69.814C114.212 69.814 114.788 69.814 115.328 69.814C115.88 69.814 116.354 69.814 116.75 69.814C117.146 69.814 117.44 69.814 117.632 69.814C118.088 69.814 118.478 69.802 118.802 69.778C119.126 69.754 119.384 69.736 119.576 69.724V71.488C119.396 71.476 119.126 71.458 118.766 71.434C118.418 71.41 118.046 71.398 117.65 71.398C117.458 71.398 117.158 71.398 116.75 71.398C116.342 71.398 115.868 71.398 115.328 71.398C114.8 71.398 114.23 71.398 113.618 71.398C113.006 71.398 112.394 71.398 111.782 71.398C111.182 71.398 110.612 71.398 110.072 71.398C109.544 71.398 109.076 71.398 108.668 71.398C108.26 71.398 107.96 71.398 107.768 71.398C107.276 71.398 106.808 71.41 106.364 71.434C105.92 71.446 105.554 71.464 105.266 71.488V69.724ZM128.487 69.7708V68.3901H136.362V69.7708H128.487ZM128.487 73.5549V72.1742H136.362V73.5549H128.487ZM10.446 85.694C10.71 85.838 11.022 86.024 11.382 86.252C11.742 86.48 12.114 86.72 12.498 86.972C12.882 87.224 13.236 87.464 13.56 87.692C13.896 87.908 14.16 88.088 14.352 88.232L13.506 89.456C13.29 89.3 13.02 89.108 12.696 88.88C12.372 88.652 12.024 88.418 11.652 88.178C11.28 87.926 10.914 87.692 10.554 87.476C10.206 87.248 9.89999 87.056 9.63598 86.9L10.446 85.694ZM7.74598 98.564C8.40598 98.444 9.08398 98.288 9.77998 98.096C10.476 97.892 11.166 97.658 11.85 97.394C12.534 97.118 13.176 96.806 13.776 96.458C14.772 95.882 15.696 95.246 16.548 94.55C17.4 93.854 18.168 93.11 18.852 92.318C19.536 91.526 20.118 90.71 20.598 89.87L21.462 91.346C20.682 92.558 19.692 93.722 18.492 94.838C17.304 95.954 15.99 96.938 14.55 97.79C13.938 98.138 13.272 98.462 12.552 98.762C11.844 99.05 11.142 99.302 10.446 99.518C9.76199 99.734 9.13798 99.902 8.57398 100.022L7.74598 98.564ZM7.72798 89.744C7.99198 89.876 8.30998 90.056 8.68198 90.284C9.05398 90.5 9.43198 90.728 9.81598 90.968C10.2 91.196 10.56 91.418 10.896 91.634C11.232 91.85 11.496 92.03 11.688 92.174L10.86 93.434C10.632 93.266 10.35 93.074 10.014 92.858C9.68998 92.63 9.34198 92.402 8.96998 92.174C8.59798 91.934 8.23198 91.706 7.87198 91.49C7.51198 91.274 7.19998 91.1 6.93598 90.968L7.72798 89.744ZM29.958 88.502C29.994 88.658 30.03 88.832 30.066 89.024C30.114 89.216 30.162 89.426 30.21 89.654C30.282 89.906 30.384 90.296 30.516 90.824C30.66 91.34 30.828 91.934 31.02 92.606C31.212 93.278 31.404 93.974 31.596 94.694C31.8 95.402 31.992 96.086 32.172 96.746C32.364 97.406 32.526 97.982 32.658 98.474C32.802 98.954 32.904 99.302 32.964 99.518C33.012 99.626 33.054 99.752 33.09 99.896C33.138 100.052 33.186 100.202 33.234 100.346C33.282 100.502 33.324 100.634 33.36 100.742L31.83 101.138C31.806 100.934 31.77 100.718 31.722 100.49C31.686 100.274 31.632 100.052 31.56 99.824C31.5 99.62 31.398 99.266 31.254 98.762C31.122 98.258 30.96 97.67 30.768 96.998C30.588 96.326 30.402 95.63 30.21 94.91C30.018 94.19 29.826 93.494 29.634 92.822C29.454 92.15 29.292 91.562 29.148 91.058C29.016 90.542 28.914 90.176 28.842 89.96C28.782 89.732 28.716 89.528 28.644 89.348C28.572 89.168 28.494 89.012 28.41 88.88L29.958 88.502ZM38.598 90.968C38.418 91.352 38.172 91.784 37.86 92.264C37.56 92.744 37.224 93.23 36.852 93.722C36.492 94.214 36.126 94.682 35.754 95.126C35.394 95.558 35.064 95.924 34.764 96.224L33.486 95.594C33.87 95.27 34.26 94.892 34.656 94.46C35.052 94.016 35.424 93.566 35.772 93.11C36.12 92.654 36.39 92.246 36.582 91.886C36.474 91.898 36.222 91.946 35.826 92.03C35.442 92.114 34.962 92.216 34.386 92.336C33.822 92.444 33.204 92.564 32.532 92.696C31.86 92.828 31.182 92.966 30.498 93.11C29.826 93.242 29.19 93.368 28.59 93.488C27.99 93.608 27.468 93.716 27.024 93.812C26.592 93.896 26.286 93.956 26.106 93.992L25.746 92.624C25.998 92.6 26.238 92.576 26.466 92.552C26.706 92.516 26.964 92.474 27.24 92.426C27.36 92.402 27.606 92.354 27.978 92.282C28.362 92.21 28.824 92.126 29.364 92.03C29.916 91.922 30.504 91.814 31.128 91.706C31.752 91.586 32.376 91.466 33 91.346C33.636 91.226 34.23 91.112 34.782 91.004C35.334 90.896 35.808 90.806 36.204 90.734C36.6 90.65 36.87 90.59 37.014 90.554C37.122 90.53 37.236 90.5 37.356 90.464C37.488 90.416 37.602 90.374 37.698 90.338L38.598 90.968ZM42.864 91.724C43.044 91.736 43.266 91.754 43.53 91.778C43.794 91.79 44.082 91.802 44.394 91.814C44.718 91.814 45.042 91.814 45.366 91.814C45.558 91.814 45.852 91.814 46.248 91.814C46.656 91.814 47.13 91.814 47.67 91.814C48.21 91.814 48.78 91.814 49.38 91.814C49.992 91.814 50.598 91.814 51.198 91.814C51.81 91.814 52.386 91.814 52.926 91.814C53.478 91.814 53.952 91.814 54.348 91.814C54.744 91.814 55.038 91.814 55.23 91.814C55.686 91.814 56.076 91.802 56.4 91.778C56.724 91.754 56.982 91.736 57.174 91.724V93.488C56.994 93.476 56.724 93.458 56.364 93.434C56.016 93.41 55.644 93.398 55.248 93.398C55.056 93.398 54.756 93.398 54.348 93.398C53.94 93.398 53.466 93.398 52.926 93.398C52.398 93.398 51.828 93.398 51.216 93.398C50.604 93.398 49.992 93.398 49.38 93.398C48.78 93.398 48.21 93.398 47.67 93.398C47.142 93.398 46.674 93.398 46.266 93.398C45.858 93.398 45.558 93.398 45.366 93.398C44.874 93.398 44.406 93.41 43.962 93.434C43.518 93.446 43.152 93.464 42.864 93.488V91.724ZM60.18 86.738H75.876V88.052H60.18V86.738ZM64.302 84.38H65.616V90.032H64.302V84.38ZM70.404 84.38H71.754V90.032H70.404V84.38ZM64.446 92.372H65.796V98.51C65.796 98.834 65.862 99.044 65.994 99.14C66.138 99.224 66.456 99.266 66.948 99.266C67.056 99.266 67.254 99.266 67.542 99.266C67.842 99.266 68.166 99.266 68.514 99.266C68.874 99.266 69.204 99.266 69.504 99.266C69.816 99.266 70.05 99.266 70.206 99.266C70.506 99.266 70.728 99.2 70.872 99.068C71.028 98.936 71.136 98.672 71.196 98.276C71.268 97.88 71.322 97.292 71.358 96.512C71.454 96.584 71.574 96.656 71.718 96.728C71.874 96.8 72.03 96.866 72.186 96.926C72.354 96.986 72.498 97.028 72.618 97.052C72.558 97.988 72.456 98.708 72.312 99.212C72.168 99.716 71.94 100.07 71.628 100.274C71.316 100.478 70.872 100.58 70.296 100.58C70.2 100.58 70.038 100.58 69.81 100.58C69.582 100.58 69.312 100.58 69 100.58C68.7 100.58 68.4 100.58 68.1 100.58C67.8 100.58 67.536 100.58 67.308 100.58C67.08 100.58 66.924 100.58 66.84 100.58C66.216 100.58 65.73 100.52 65.382 100.4C65.034 100.28 64.788 100.07 64.644 99.77C64.512 99.47 64.446 99.05 64.446 98.51V92.372ZM65.688 90.608L66.642 89.816C67.146 90.08 67.662 90.392 68.19 90.752C68.718 91.1 69.21 91.46 69.666 91.832C70.122 92.204 70.482 92.558 70.746 92.894L69.738 93.794C69.474 93.458 69.12 93.098 68.676 92.714C68.232 92.33 67.752 91.952 67.236 91.58C66.72 91.208 66.204 90.884 65.688 90.608ZM72.096 93.254L73.266 92.696C73.722 93.248 74.166 93.854 74.598 94.514C75.03 95.162 75.414 95.804 75.75 96.44C76.098 97.076 76.356 97.646 76.524 98.15L75.21 98.78C75.066 98.276 74.832 97.706 74.508 97.07C74.184 96.422 73.812 95.768 73.392 95.108C72.972 94.436 72.54 93.818 72.096 93.254ZM61.836 93.092L63.096 93.434C62.976 94.118 62.82 94.82 62.628 95.54C62.436 96.248 62.19 96.92 61.89 97.556C61.602 98.192 61.242 98.75 60.81 99.23L59.604 98.492C60.012 98.06 60.36 97.55 60.648 96.962C60.948 96.374 61.194 95.744 61.386 95.072C61.578 94.4 61.728 93.74 61.836 93.092ZM93.0337 92.2694V93.6756H87.3064V92.2694H93.0337ZM105.266 91.724C105.446 91.736 105.668 91.754 105.932 91.778C106.196 91.79 106.484 91.802 106.796 91.814C107.12 91.814 107.444 91.814 107.768 91.814C107.96 91.814 108.254 91.814 108.65 91.814C109.058 91.814 109.532 91.814 110.072 91.814C110.612 91.814 111.182 91.814 111.782 91.814C112.394 91.814 113 91.814 113.6 91.814C114.212 91.814 114.788 91.814 115.328 91.814C115.88 91.814 116.354 91.814 116.75 91.814C117.146 91.814 117.44 91.814 117.632 91.814C118.088 91.814 118.478 91.802 118.802 91.778C119.126 91.754 119.384 91.736 119.576 91.724V93.488C119.396 93.476 119.126 93.458 118.766 93.434C118.418 93.41 118.046 93.398 117.65 93.398C117.458 93.398 117.158 93.398 116.75 93.398C116.342 93.398 115.868 93.398 115.328 93.398C114.8 93.398 114.23 93.398 113.618 93.398C113.006 93.398 112.394 93.398 111.782 93.398C111.182 93.398 110.612 93.398 110.072 93.398C109.544 93.398 109.076 93.398 108.668 93.398C108.26 93.398 107.96 93.398 107.768 93.398C107.276 93.398 106.808 93.41 106.364 93.434C105.92 93.446 105.554 93.464 105.266 93.488V91.724ZM128.487 91.7708V90.3901H136.362V91.7708H128.487ZM128.487 95.5549V94.1742H136.362V95.5549H128.487ZM166.018 95.8362V95.7595C166.027 94.9455 166.112 94.2978 166.274 93.8163C166.436 93.3347 166.666 92.9448 166.964 92.6465C167.262 92.3482 167.62 92.0734 168.038 91.822C168.289 91.6685 168.515 91.4874 168.715 91.2786C168.916 91.0656 169.073 90.8205 169.188 90.5435C169.308 90.2666 169.367 89.9597 169.367 89.6231C169.367 89.2055 169.269 88.8433 169.073 88.5364C168.877 88.2296 168.615 87.9931 168.287 87.8269C167.959 87.6607 167.595 87.5776 167.194 87.5776C166.845 87.5776 166.508 87.6501 166.184 87.795C165.86 87.9398 165.59 88.1678 165.372 88.4789C165.155 88.79 165.029 89.197 164.995 89.6998H163.385C163.419 88.9754 163.606 88.3553 163.947 87.8397C164.292 87.3241 164.746 86.9299 165.309 86.6572C165.875 86.3845 166.504 86.2481 167.194 86.2481C167.944 86.2481 168.596 86.3972 169.15 86.6955C169.708 86.9938 170.139 87.4029 170.441 87.9228C170.748 88.4427 170.902 89.035 170.902 89.6998C170.902 90.1685 170.829 90.5925 170.684 90.9718C170.544 91.3511 170.339 91.6898 170.071 91.9881C169.806 92.2864 169.487 92.5506 169.112 92.7808C168.737 93.0151 168.436 93.2623 168.211 93.5222C167.985 93.7779 167.821 94.0826 167.718 94.4363C167.616 94.79 167.561 95.231 167.552 95.7595V95.8362H166.018ZM166.836 99.6202C166.521 99.6202 166.25 99.5073 166.024 99.2815C165.799 99.0556 165.686 98.785 165.686 98.4697C165.686 98.1543 165.799 97.8837 166.024 97.6579C166.25 97.432 166.521 97.3191 166.836 97.3191C167.152 97.3191 167.422 97.432 167.648 97.6579C167.874 97.8837 167.987 98.1543 167.987 98.4697C167.987 98.6785 167.934 98.8702 167.827 99.045C167.725 99.2197 167.586 99.3603 167.412 99.4668C167.241 99.5691 167.049 99.6202 166.836 99.6202ZM116.377 117.836V117.759C116.386 116.946 116.471 116.298 116.633 115.816C116.795 115.335 117.025 114.945 117.323 114.647C117.622 114.348 117.98 114.073 118.397 113.822C118.649 113.669 118.875 113.487 119.075 113.279C119.275 113.066 119.433 112.821 119.548 112.544C119.667 112.267 119.727 111.96 119.727 111.623C119.727 111.205 119.629 110.843 119.433 110.536C119.237 110.23 118.975 109.993 118.647 109.827C118.318 109.661 117.954 109.578 117.554 109.578C117.204 109.578 116.867 109.65 116.544 109.795C116.22 109.94 115.949 110.168 115.732 110.479C115.514 110.79 115.389 111.197 115.355 111.7H113.744C113.778 110.975 113.965 110.355 114.306 109.84C114.652 109.324 115.105 108.93 115.668 108.657C116.235 108.384 116.863 108.248 117.554 108.248C118.304 108.248 118.956 108.397 119.51 108.696C120.068 108.994 120.498 109.403 120.801 109.923C121.108 110.443 121.261 111.035 121.261 111.7C121.261 112.169 121.188 112.593 121.044 112.972C120.903 113.351 120.698 113.69 120.43 113.988C120.166 114.286 119.846 114.551 119.471 114.781C119.096 115.015 118.796 115.262 118.57 115.522C118.344 115.778 118.18 116.083 118.078 116.436C117.975 116.79 117.92 117.231 117.912 117.759V117.836H116.377ZM117.196 121.62C116.88 121.62 116.61 121.507 116.384 121.281C116.158 121.056 116.045 120.785 116.045 120.47C116.045 120.154 116.158 119.884 116.384 119.658C116.61 119.432 116.88 119.319 117.196 119.319C117.511 119.319 117.782 119.432 118.007 119.658C118.233 119.884 118.346 120.154 118.346 120.47C118.346 120.678 118.293 120.87 118.186 121.045C118.084 121.22 117.946 121.36 117.771 121.467C117.6 121.569 117.409 121.62 117.196 121.62ZM130.359 109.368C130.851 109.44 131.421 109.5 132.069 109.548C132.729 109.584 133.407 109.602 134.103 109.602C134.811 109.59 135.483 109.566 136.119 109.53C136.767 109.482 137.313 109.422 137.757 109.35V110.808C137.277 110.856 136.713 110.898 136.065 110.934C135.429 110.958 134.763 110.97 134.067 110.97C133.383 110.97 132.717 110.958 132.069 110.934C131.421 110.898 130.851 110.856 130.359 110.808V109.368ZM131.061 116.694C130.977 117.018 130.911 117.312 130.863 117.576C130.815 117.84 130.791 118.098 130.791 118.35C130.791 118.554 130.833 118.758 130.917 118.962C131.013 119.154 131.169 119.328 131.385 119.484C131.613 119.628 131.925 119.748 132.321 119.844C132.717 119.928 133.221 119.97 133.833 119.97C134.649 119.97 135.417 119.934 136.137 119.862C136.857 119.778 137.577 119.658 138.297 119.502L138.333 121.014C137.769 121.134 137.109 121.23 136.353 121.302C135.609 121.362 134.769 121.392 133.833 121.392C132.321 121.392 131.211 121.152 130.503 120.672C129.807 120.192 129.459 119.532 129.459 118.692C129.459 118.392 129.483 118.074 129.531 117.738C129.591 117.39 129.669 117 129.765 116.568L131.061 116.694ZM126.921 107.982C126.897 108.078 126.861 108.204 126.813 108.36C126.777 108.504 126.735 108.654 126.687 108.81C126.651 108.954 126.621 109.08 126.597 109.188C126.537 109.524 126.465 109.914 126.381 110.358C126.297 110.79 126.213 111.258 126.129 111.762C126.057 112.254 125.985 112.758 125.913 113.274C125.853 113.778 125.799 114.27 125.751 114.75C125.715 115.23 125.697 115.674 125.697 116.082C125.697 116.526 125.709 116.946 125.733 117.342C125.769 117.738 125.811 118.158 125.859 118.602C125.967 118.326 126.081 118.032 126.201 117.72C126.321 117.408 126.441 117.102 126.561 116.802C126.693 116.49 126.807 116.214 126.903 115.974L127.659 116.55C127.503 116.982 127.335 117.456 127.155 117.972C126.975 118.488 126.813 118.986 126.669 119.466C126.537 119.934 126.441 120.306 126.381 120.582C126.357 120.714 126.333 120.858 126.309 121.014C126.285 121.17 126.279 121.296 126.291 121.392C126.303 121.488 126.309 121.59 126.309 121.698C126.321 121.818 126.333 121.926 126.345 122.022L125.049 122.112C124.869 121.476 124.713 120.66 124.581 119.664C124.449 118.656 124.383 117.546 124.383 116.334C124.383 115.674 124.413 115.002 124.473 114.318C124.533 113.622 124.611 112.95 124.707 112.302C124.803 111.642 124.893 111.042 124.977 110.502C125.073 109.95 125.145 109.488 125.193 109.116C125.229 108.9 125.259 108.684 125.283 108.468C125.307 108.24 125.319 108.03 125.319 107.838L126.921 107.982ZM147.981 107.478H156.837V108.774H147.981V107.478ZM153.255 112.842H154.623V121.23C154.623 121.65 154.563 121.968 154.443 122.184C154.323 122.412 154.113 122.586 153.813 122.706C153.501 122.802 153.075 122.856 152.535 122.868C152.007 122.892 151.299 122.904 150.411 122.904C150.387 122.724 150.333 122.508 150.249 122.256C150.165 122.004 150.069 121.776 149.961 121.572C150.393 121.584 150.801 121.596 151.185 121.608C151.569 121.62 151.905 121.62 152.193 121.608C152.481 121.608 152.679 121.608 152.787 121.608C152.955 121.596 153.075 121.566 153.147 121.518C153.219 121.458 153.255 121.356 153.255 121.212V112.842ZM147.189 112.446H157.341V113.742H147.189V112.446ZM143.607 113.85L144.795 112.662L144.939 112.734V123.012H143.607V113.85ZM145.677 110.25L146.955 110.718C146.499 111.474 145.971 112.23 145.371 112.986C144.771 113.742 144.141 114.45 143.481 115.11C142.833 115.758 142.191 116.34 141.555 116.856C141.483 116.76 141.387 116.64 141.267 116.496C141.159 116.352 141.045 116.208 140.925 116.064C140.805 115.92 140.697 115.806 140.601 115.722C141.225 115.278 141.843 114.762 142.455 114.174C143.079 113.586 143.667 112.956 144.219 112.284C144.783 111.612 145.269 110.934 145.677 110.25ZM144.957 106.38L146.253 106.92C145.857 107.436 145.395 107.97 144.867 108.522C144.351 109.062 143.805 109.584 143.229 110.088C142.665 110.58 142.113 111.018 141.573 111.402C141.513 111.306 141.435 111.192 141.339 111.06C141.255 110.916 141.159 110.778 141.051 110.646C140.955 110.502 140.865 110.394 140.781 110.322C141.285 109.974 141.795 109.578 142.311 109.134C142.839 108.69 143.331 108.228 143.787 107.748C144.255 107.268 144.645 106.812 144.957 106.38ZM171.849 107.478C171.825 107.634 171.807 107.802 171.795 107.982C171.795 108.15 171.795 108.336 171.795 108.54C171.783 108.672 171.777 108.888 171.777 109.188C171.789 109.488 171.795 109.83 171.795 110.214C171.807 110.586 171.813 110.97 171.813 111.366C171.825 111.762 171.831 112.128 171.831 112.464C171.831 112.788 171.831 113.052 171.831 113.256C171.831 114.288 171.807 115.248 171.759 116.136C171.723 117.024 171.591 117.852 171.363 118.62C171.135 119.388 170.757 120.102 170.229 120.762C169.713 121.41 168.975 122.016 168.015 122.58L166.701 121.554C166.989 121.434 167.295 121.272 167.619 121.068C167.955 120.864 168.231 120.654 168.447 120.438C168.927 120.018 169.305 119.568 169.581 119.088C169.857 118.608 170.055 118.08 170.175 117.504C170.307 116.928 170.391 116.292 170.427 115.596C170.463 114.9 170.481 114.12 170.481 113.256C170.481 112.968 170.475 112.602 170.463 112.158C170.451 111.702 170.439 111.234 170.427 110.754C170.415 110.262 170.403 109.818 170.391 109.422C170.379 109.026 170.361 108.738 170.337 108.558C170.325 108.354 170.301 108.162 170.265 107.982C170.229 107.79 170.199 107.622 170.175 107.478H171.849ZM165.279 111.204C165.543 111.24 165.837 111.276 166.161 111.312C166.485 111.348 166.821 111.372 167.169 111.384C167.529 111.396 167.865 111.402 168.177 111.402C168.921 111.402 169.683 111.384 170.463 111.348C171.255 111.312 172.017 111.252 172.749 111.168C173.493 111.084 174.159 110.976 174.747 110.844V112.32C174.171 112.404 173.517 112.482 172.785 112.554C172.065 112.626 171.309 112.68 170.517 112.716C169.737 112.74 168.963 112.752 168.195 112.752C167.907 112.752 167.583 112.746 167.223 112.734C166.875 112.722 166.527 112.71 166.179 112.698C165.843 112.686 165.543 112.668 165.279 112.644V111.204ZM162.741 107.748C162.693 107.916 162.639 108.114 162.579 108.342C162.531 108.558 162.483 108.75 162.435 108.918C162.291 109.566 162.153 110.286 162.021 111.078C161.889 111.87 161.787 112.692 161.715 113.544C161.643 114.396 161.619 115.236 161.643 116.064C161.667 116.892 161.763 117.678 161.931 118.422C162.063 118.038 162.213 117.594 162.381 117.09C162.561 116.586 162.735 116.112 162.903 115.668L163.677 116.136C163.533 116.544 163.383 117.006 163.227 117.522C163.071 118.026 162.927 118.512 162.795 118.98C162.663 119.436 162.567 119.814 162.507 120.114C162.471 120.246 162.441 120.39 162.417 120.546C162.405 120.702 162.405 120.828 162.417 120.924C162.429 121.02 162.435 121.122 162.435 121.23C162.447 121.338 162.459 121.44 162.471 121.536L161.247 121.68C161.127 121.32 160.989 120.834 160.833 120.222C160.689 119.61 160.563 118.938 160.455 118.206C160.347 117.462 160.293 116.718 160.293 115.974C160.293 114.99 160.335 114.048 160.419 113.148C160.515 112.248 160.617 111.42 160.725 110.664C160.833 109.908 160.917 109.284 160.977 108.792C161.013 108.576 161.037 108.36 161.049 108.144C161.061 107.928 161.067 107.742 161.067 107.586L162.741 107.748Z" fill="black"/>
<path d="M71.271 70.4177C71.3455 71.0635 72.2814 71.029 72.7401 70.931C73.3154 72.1583 74.2204 72.0942 75.1685 70.931C75.9269 70.0004 75.4845 68.0906 75.1685 67.252C74.6041 67.2413 73.3282 67.3006 72.7401 67.6235C72.005 68.0271 71.1778 69.6105 71.271 70.4177Z" fill="#AAAAAA"/>
<path d="M58.8017 74.2994C58.3215 74.5585 57.4887 75.6166 57.4887 76.1607C57.4887 76.8409 57.603 77.6703 59.2726 77.2492C60.9423 76.8282 62.0434 75.3384 62.0434 74.9174C62.0434 74.4964 61.8507 73.8908 60.8791 73.7011C60.2489 73.578 59.2176 74.0749 58.8017 74.2994Z" fill="#AAAAAA"/>
<path d="M64.7822 74.1433C64.0796 74.5093 63.5155 75.4527 63.6646 75.8508C64.0992 77.0118 65.4712 76.8405 65.9786 76.69C66.9244 76.4097 67.98 75.3527 67.9179 74.9174C67.9123 74.8779 67.9089 74.8252 67.9048 74.7632C67.8643 74.1418 67.7632 72.5906 64.7822 74.1433Z" fill="#AAAAAA"/>
<path d="M66.645 69.3C66.153 69.4406 65.6329 70.1558 65.5584 70.7828C65.4653 71.5664 67.1418 71.5354 67.5764 71.3491C68.0111 71.1628 69.0046 70.2935 68.8493 69.7968C68.6941 69.3 67.7317 68.9896 66.645 69.3Z" fill="#AAAAAA"/>
<path d="M64.4183 63.9301C65.1167 64.4954 65.1951 65.0971 64.4183 65.7249C64.5564 65.3146 64.4758 64.3574 64.4183 63.9301Z" fill="#AAAAAA"/>
<path d="M73.6429 75.1063C73.3734 75.2177 73.1039 75.5638 72.8127 75.9377C72.6097 76.1984 72.3962 76.4726 72.1648 76.69C71.7869 77.0453 71.6308 78.3179 71.5836 79.1971C72.5342 79.07 74.4741 78.8157 74.6284 78.8157C74.5228 78.5295 74.375 77.5977 74.6284 76.1607C74.9154 74.5331 74.2488 74.8343 73.7808 75.0457C73.7323 75.0676 73.6859 75.0886 73.6429 75.1063Z" fill="#AAAAAA"/>
<path d="M76.9892 70.4177C76.4724 70.5881 75.7678 71.7792 75.9613 73.4238C76.2032 75.4795 77.2612 75.0657 77.5484 74.9174C77.8356 74.769 78.803 73.5598 78.6518 72.3203C78.6373 72.2012 78.6246 72.0826 78.6121 71.966C78.4946 70.8702 78.3963 69.9538 76.9892 70.4177Z" fill="#AAAAAA"/>
<path fill-rule="evenodd" clip-rule="evenodd" d="M65.9786 81.1747L53.3638 78.6518L57.3318 73.3674C58.2391 73.2918 58.7923 72.997 59.1018 72.6093C59.1113 72.5998 59.1203 72.588 59.1289 72.5742C59.5327 72.0361 59.4861 71.331 59.2726 70.7828L62.2597 66.8048C63.2765 66.4379 63.9822 66.0773 64.4183 65.7249C65.1951 65.0971 65.1167 64.4954 64.4183 63.9301L66.4832 61.1803L78.5934 62.0633L75.1685 67.252C74.6041 67.2413 73.3282 67.3006 72.7401 67.6235C72.005 68.0271 71.1778 69.6105 71.271 70.4177C71.3455 71.0635 72.2814 71.029 72.7401 70.931L65.9786 81.1747ZM58.8017 74.2994C58.3215 74.5585 57.4887 75.6166 57.4887 76.1607C57.4887 76.8409 57.603 77.6703 59.2726 77.2492C60.9423 76.8282 62.0434 75.3384 62.0434 74.9174C62.0434 74.4964 61.8507 73.8908 60.8791 73.7011C60.2489 73.578 59.2176 74.0749 58.8017 74.2994ZM66.645 69.3C66.153 69.4406 65.6329 70.1558 65.5584 70.7828C65.4653 71.5664 67.1418 71.5354 67.5764 71.3491C68.0111 71.1628 69.0046 70.2935 68.8493 69.7968C68.6941 69.3 67.7317 68.9896 66.645 69.3ZM64.7822 74.1433C64.0796 74.5093 63.5155 75.4527 63.6646 75.8508C64.0992 77.0118 65.4712 76.8405 65.9786 76.69C66.9244 76.4097 67.98 75.3527 67.9179 74.9174C67.9123 74.8779 67.9089 74.8252 67.9048 74.7632C67.8643 74.1418 67.7632 72.5906 64.7822 74.1433ZM69.2581 66.863C69.0656 66.462 69.3081 66.1148 69.4789 65.9471C69.5658 65.8617 69.9406 65.7906 70.3256 65.7906C70.8068 65.7906 70.5839 66.5429 70.4636 66.6833C70.3433 66.8236 69.4987 67.3643 69.2581 66.863Z" fill="#CCCCCC"/>
<path d="M69.4789 65.9471C69.3081 66.1148 69.0656 66.462 69.2581 66.863C69.4987 67.3643 70.3433 66.8236 70.4636 66.6833C70.5839 66.5429 70.8068 65.7906 70.3256 65.7906C69.9406 65.7906 69.5658 65.8617 69.4789 65.9471Z" fill="#AAAAAA"/>
<path fill-rule="evenodd" clip-rule="evenodd" d="M78.5934 62.0633C79.6656 63.1566 81.6966 67.6769 81.2425 77.0118L74.6284 78.8157C74.5228 78.5295 74.375 77.5977 74.6284 76.1607C74.9154 74.5331 74.2488 74.8343 73.7808 75.0457C73.7323 75.0676 73.6859 75.0886 73.6429 75.1063C73.3734 75.2177 73.1039 75.5638 72.8127 75.9377C72.6097 76.1984 72.3962 76.4726 72.1648 76.69C71.7869 77.0453 71.6308 78.3179 71.5836 79.1971C71.5746 79.3658 71.5695 79.52 71.5677 79.6504L65.9786 81.1747L72.7401 70.931C73.3154 72.1583 74.2204 72.0942 75.1685 70.931C75.9269 70.0004 75.4845 68.0906 75.1685 67.252L78.5934 62.0633ZM76.9892 70.4177C76.4724 70.5881 75.7678 71.7792 75.9613 73.4238C76.2032 75.4795 77.2612 75.0657 77.5484 74.9174C77.8356 74.769 78.803 73.5598 78.6518 72.3203C78.6373 72.2012 78.6246 72.0826 78.6121 71.966C78.4946 70.8702 78.3963 69.9538 76.9892 70.4177ZM78.5934 66.5845C79.259 66.4858 79.8131 67.87 78.7579 67.9995C77.6825 68.1316 77.9277 66.6833 78.5934 66.5845Z" fill="#EEEEEE"/>
<path d="M78.5934 66.5845C79.259 66.4858 79.8131 67.87 78.7579 67.9995C77.6825 68.1316 77.9277 66.6833 78.5934 66.5845Z" fill="#AAAAAA"/>
<path d="M65.9786 81.1747L53.3638 78.6518L57.3318 73.3674C58.2391 73.2918 58.7923 72.997 59.1018 72.6093C59.1113 72.5998 59.1203 72.588 59.1289 72.5742M65.9786 81.1747L71.5677 79.6504C71.5695 79.52 71.5746 79.3658 71.5836 79.1971M65.9786 81.1747L72.7401 70.931M78.5934 62.0633C79.6656 63.1566 81.6966 67.6769 81.2425 77.0118L74.6284 78.8157M78.5934 62.0633L66.4832 61.1803L64.4183 63.9301M78.5934 62.0633L75.1685 67.252M64.4183 63.9301C65.1167 64.4954 65.1951 65.0971 64.4183 65.7249M64.4183 63.9301C64.4758 64.3574 64.5564 65.3146 64.4183 65.7249M64.4183 65.7249C63.9822 66.0773 63.2765 66.4379 62.2597 66.8048L59.2726 70.7828M59.2726 70.7828C59.4861 71.331 59.5327 72.0361 59.1289 72.5742M59.2726 70.7828C59.2947 71.2852 59.2942 72.3089 59.1289 72.5742M74.6284 78.8157C74.5228 78.5295 74.375 77.5977 74.6284 76.1607C74.9154 74.5331 74.2488 74.8343 73.7808 75.0457C73.7323 75.0676 73.6859 75.0886 73.6429 75.1063C73.3734 75.2177 73.1039 75.5638 72.8127 75.9377C72.6097 76.1984 72.3962 76.4726 72.1648 76.69C71.7869 77.0453 71.6308 78.3179 71.5836 79.1971M74.6284 78.8157C74.4741 78.8157 72.5342 79.07 71.5836 79.1971M72.7401 70.931C72.2814 71.029 71.3455 71.0635 71.271 70.4177C71.1778 69.6105 72.005 68.0271 72.7401 67.6235C73.3282 67.3006 74.6041 67.2413 75.1685 67.252M72.7401 70.931C73.3154 72.1583 74.2204 72.0942 75.1685 70.931C75.9269 70.0004 75.4845 68.0906 75.1685 67.252M58.8017 74.2994C58.3215 74.5585 57.4887 75.6166 57.4887 76.1607C57.4887 76.8409 57.603 77.6703 59.2726 77.2492C60.9423 76.8282 62.0434 75.3384 62.0434 74.9174C62.0434 74.4964 61.8507 73.8908 60.8791 73.7011C60.2489 73.578 59.2176 74.0749 58.8017 74.2994ZM66.645 69.3C66.153 69.4406 65.6329 70.1558 65.5584 70.7828C65.4653 71.5664 67.1418 71.5354 67.5764 71.3491C68.0111 71.1628 69.0046 70.2935 68.8493 69.7968C68.6941 69.3 67.7317 68.9896 66.645 69.3ZM64.7822 74.1433C64.0796 74.5093 63.5155 75.4527 63.6646 75.8508C64.0992 77.0118 65.4712 76.8405 65.9786 76.69C66.9244 76.4097 67.98 75.3527 67.9179 74.9174C67.9123 74.8779 67.9089 74.8252 67.9048 74.7632C67.8643 74.1418 67.7632 72.5906 64.7822 74.1433ZM76.9892 70.4177C76.4724 70.5881 75.7678 71.7792 75.9613 73.4238C76.2032 75.4795 77.2612 75.0657 77.5484 74.9174C77.8356 74.769 78.803 73.5598 78.6519 72.3203C78.6373 72.2012 78.6246 72.0826 78.6121 71.966C78.4946 70.8702 78.3963 69.9538 76.9892 70.4177ZM69.4789 65.9471C69.3081 66.1148 69.0656 66.462 69.2581 66.863C69.4987 67.3643 70.3433 66.8236 70.4636 66.6833C70.5839 66.5429 70.8068 65.7906 70.3256 65.7906C69.9406 65.7906 69.5658 65.8617 69.4789 65.9471ZM78.5934 66.5845C79.259 66.4858 79.8131 67.87 78.7579 67.9995C77.6825 68.1316 77.9277 66.6833 78.5934 66.5845Z" stroke="black" stroke-width="0.1"/>
<path fill-rule="evenodd" clip-rule="evenodd" d="M156.488 54.0125H178.401V83.518H156.488V54.0125ZM177.324 55.4613H157.564V82.069H166.125H177.324V72.1302V55.4613Z" fill="#D9D9D9"/>
<path d="M161.843 76.5382C161.984 76.4414 162.833 75.0644 163.027 74.8815C163.22 74.6986 164.694 74.2898 164.856 74.1284C165.017 73.967 165.996 73.8164 166.071 73.2893C166.147 72.7621 166.566 74.8922 166.91 73.4399C167.255 71.9876 167.653 71.7186 167.621 71.5357C167.588 71.3528 167.136 71.0193 167.438 70.2555C167.739 69.4917 168.212 70.589 168.395 70.5567C168.578 70.5245 169.428 69.7929 169.643 68.9646C169.858 68.1362 170.267 66.942 169.89 66.1352C169.514 65.3283 169.449 63.9621 169.718 63.8222C169.987 63.6824 170.245 64.4677 170.536 64.3063C170.826 64.1449 170.471 64.0481 170.332 63.8222C170.192 63.5963 170.192 63.1552 170.708 63.1552C171.224 63.1552 172.774 64.8657 172.752 65.3283C172.731 65.7909 172.268 66.189 172.268 66.5332C172.268 66.8775 172.924 66.9958 172.634 67.3724C172.343 67.7489 171.967 67.566 172.053 67.9856C172.139 68.4051 172.526 68.8893 172.58 69.212C172.634 69.5347 172.268 69.7392 172.268 69.9973C172.268 70.2555 173.269 71.17 172.924 71.7724C172.58 72.3749 172.505 72.7084 172.203 72.6331C171.902 72.5578 172.021 71.8154 171.752 71.837C171.483 71.8585 171.397 73.1602 171.203 73.2248C171.009 73.2893 170.848 72.9343 170.719 72.9343C170.59 72.9343 170.482 73.6658 169.998 73.7842C169.514 73.9025 168.955 73.9348 168.6 73.8595C168.244 73.7842 168.191 74.1715 168.341 74.3328C168.492 74.4942 169.041 74.5803 168.944 74.8815C168.847 75.1827 168.718 75.0429 168.395 75.3226C168.072 75.6023 168.083 76.6028 167.814 76.6566C167.545 76.7104 166.814 76.2478 166.728 75.8928C166.642 75.5377 167.04 74.946 166.373 74.9891C165.706 75.0321 165.695 74.946 165.404 75.215C165.114 75.4839 164.63 75.9465 164.468 75.9896C164.307 76.0326 163.543 76.3876 163.414 76.3876C163.285 76.3876 163.231 77.2698 162.93 77.3774C162.629 77.4849 162.145 77.4634 161.897 77.3774C161.65 77.2913 161.137 77.2398 161.2 76.8468C161.235 76.6349 161.708 76.6315 161.843 76.5382Z" fill="#D9D9D9"/>
<path d="M169.223 57.0016C169.014 57.0839 169.979 59.2788 169.643 59.4979C169.223 59.7718 169.643 60.0092 169.643 60.2649C169.643 60.5205 168.784 59.9909 168.583 60.2649C168.383 60.5388 168.711 61.0501 168.583 61.2692C168.456 61.4884 168.109 61.9084 168.583 62.438C169.058 62.9676 169.159 63.3919 169.363 63.1552C169.568 62.9185 169.439 62.7894 169.578 62.6496C169.718 62.5097 169.987 63.0153 170.106 62.6496C170.224 62.2838 169.794 61.9933 169.578 62.0363C169.363 62.0794 168.976 62.0719 169.051 61.6706C169.127 61.2692 169.514 61.7889 169.578 61.7674C169.643 61.7459 170.235 61.0574 170.471 61.0143C170.708 60.9713 171.623 61.6491 171.988 61.563C172.354 61.4769 172.645 61.251 172.623 61.0143C172.602 60.7776 172.257 60.5728 172.623 60.0353C172.989 59.4979 173.527 59.4974 173.742 59.2608C173.957 59.0241 174.624 58.7982 174.463 58.54C174.301 58.2818 173.774 58.3463 173.677 58.0343C173.58 57.7224 173.462 57.249 173.236 57.4104C173.01 57.5717 173.118 58.0881 172.913 58.1096C172.709 58.1312 171.978 58.185 171.343 58.0343C170.708 57.8837 170.037 56.6821 169.223 57.0016Z" fill="#D9D9D9"/>
<path d="M163.35 77.883C163.35 77.5601 163.696 76.9083 163.92 76.7534C164.199 76.5597 164.802 76.5705 164.942 76.3876C165.082 76.2047 165.114 75.7744 165.48 75.7851C165.845 75.7959 166.2 76.2477 166.071 76.592C165.942 76.9363 165.63 77.0976 165.404 77.1084C165.178 77.1192 164.953 77.1192 164.856 77.571C164.759 78.0228 164.522 78.3886 164.253 78.3671C163.984 78.3456 163.35 78.2059 163.35 77.883Z" fill="#D9D9D9"/>
<path d="M160.467 79.6044C160.208 79.4751 159.804 79.0341 159.907 78.8836C160.24 78.3993 161.108 77.6658 161.392 77.6572C161.747 77.6465 161.79 78.1306 161.984 78.1306C162.177 78.1306 162.22 77.7323 162.382 77.7539C162.543 77.7754 163.102 78.8082 163.092 79.0341C163.081 79.26 162.651 79.4752 162.651 79.8732C162.651 80.2713 163.059 80.5617 162.812 80.9383C162.565 81.3148 161.811 81.4869 161.553 81.304C161.295 81.1211 161.005 80.5187 161.198 80.1959C161.392 79.8732 161.467 79.4859 161.274 79.2923C161.08 79.0986 161.005 79.1522 160.843 79.3783C160.682 79.6044 160.66 79.7014 160.467 79.6044Z" fill="#D9D9D9"/>
<path d="M166.125 75.215C166.05 75.2903 165.904 75.4667 165.921 75.57C165.942 75.6991 166.413 75.6668 166.222 75.4947C166.069 75.357 166.094 75.2509 166.125 75.215Z" fill="#D9D9D9"/>
<path d="M168.513 68.6526C168.395 68.6526 168.606 69.212 168.675 69.212C168.761 69.212 168.911 69.6101 169.019 69.4702C169.127 69.3304 168.632 68.6526 168.513 68.6526Z" fill="#D9D9D9"/>
<path d="M171.451 79.2923C171.877 78.7831 172.817 77.7259 173.174 77.571C173.619 77.3774 171.698 79.7009 171.451 79.2923Z" fill="#D9D9D9"/>
<path d="M174.811 76.0584C174.827 76.0842 174.869 76.134 174.908 76.1263C174.957 76.1166 175.47 75.5542 175.422 75.5057C175.373 75.4572 174.811 75.8645 174.811 76.0584Z" fill="#D9D9D9"/>
<path d="M166.125 82.069H177.324V72.1302M166.125 82.069H157.564V55.4613H177.324V72.1302M166.125 82.069L166.91 78.7441L173.742 72.7916L177.324 72.1302M173.516 77.1084C173.609 77.0212 173.805 76.8468 173.847 76.8468M174.195 76.5382L174.457 76.2967M160.467 79.6044C160.208 79.4751 159.804 79.0341 159.907 78.8836C160.24 78.3993 161.108 77.6658 161.392 77.6572C161.747 77.6465 161.79 78.1306 161.984 78.1306C162.177 78.1306 162.22 77.7323 162.382 77.7539C162.543 77.7754 163.102 78.8082 163.092 79.0341C163.081 79.26 162.651 79.4752 162.651 79.8732C162.651 80.2713 163.059 80.5617 162.812 80.9383C162.565 81.3148 161.811 81.4869 161.553 81.304C161.295 81.1211 161.005 80.5187 161.198 80.1959C161.392 79.8732 161.467 79.4859 161.274 79.2923C161.08 79.0986 161.005 79.1522 160.843 79.3783C160.682 79.6044 160.66 79.7014 160.467 79.6044ZM163.35 77.883C163.35 77.5601 163.696 76.9083 163.92 76.7534C164.199 76.5597 164.802 76.5705 164.942 76.3876C165.082 76.2047 165.114 75.7744 165.48 75.7851C165.845 75.7959 166.2 76.2477 166.071 76.592C165.942 76.9363 165.63 77.0976 165.404 77.1084C165.178 77.1192 164.953 77.1192 164.856 77.571C164.759 78.0228 164.522 78.3886 164.253 78.3671C163.984 78.3456 163.35 78.2059 163.35 77.883ZM161.2 76.8468C161.235 76.6349 161.708 76.6315 161.843 76.5382C161.984 76.4414 162.833 75.0644 163.027 74.8815C163.22 74.6986 164.694 74.2898 164.856 74.1284C165.017 73.967 165.996 73.8164 166.071 73.2893C166.147 72.7621 166.566 74.8922 166.91 73.4399C167.255 71.9876 167.653 71.7186 167.621 71.5357C167.588 71.3528 167.136 71.0193 167.438 70.2555C167.739 69.4917 168.212 70.589 168.395 70.5567C168.578 70.5245 169.428 69.7929 169.643 68.9646C169.858 68.1362 170.267 66.942 169.89 66.1352C169.514 65.3283 169.449 63.9621 169.718 63.8222C169.987 63.6824 170.245 64.4677 170.536 64.3063C170.826 64.1449 170.471 64.0481 170.332 63.8222C170.192 63.5963 170.192 63.1552 170.708 63.1552C171.224 63.1552 172.774 64.8657 172.752 65.3283C172.731 65.7909 172.268 66.189 172.268 66.5332C172.268 66.8775 172.924 66.9958 172.634 67.3724C172.343 67.7489 171.967 67.566 172.053 67.9856C172.139 68.4051 172.526 68.8893 172.58 69.212C172.634 69.5347 172.268 69.7392 172.268 69.9973C172.268 70.2555 173.269 71.17 172.924 71.7724C172.58 72.3749 172.505 72.7084 172.203 72.6331C171.902 72.5578 172.021 71.8154 171.752 71.837C171.483 71.8585 171.397 73.1602 171.203 73.2248C171.009 73.2893 170.848 72.9343 170.719 72.9343C170.59 72.9343 170.482 73.6658 169.998 73.7842C169.514 73.9025 168.955 73.9348 168.6 73.8595C168.244 73.7842 168.191 74.1715 168.341 74.3328C168.492 74.4942 169.041 74.5803 168.944 74.8815C168.847 75.1827 168.718 75.0429 168.395 75.3226C168.072 75.6023 168.083 76.6028 167.814 76.6566C167.545 76.7104 166.814 76.2478 166.728 75.8928C166.642 75.5377 167.04 74.946 166.373 74.9891C165.706 75.0321 165.695 74.946 165.404 75.215C165.114 75.4839 164.63 75.9465 164.468 75.9896C164.307 76.0326 163.543 76.3876 163.414 76.3876C163.285 76.3876 163.231 77.2698 162.93 77.3774C162.629 77.4849 162.145 77.4634 161.897 77.3774C161.65 77.2913 161.137 77.2398 161.2 76.8468ZM166.125 75.215C166.05 75.2903 165.904 75.4667 165.921 75.57C165.942 75.6991 166.413 75.6668 166.222 75.4947C166.069 75.357 166.094 75.2509 166.125 75.215ZM169.223 57.0016C169.014 57.0839 169.979 59.2788 169.643 59.4979C169.223 59.7718 169.643 60.0092 169.643 60.2649C169.643 60.5205 168.784 59.9909 168.583 60.2649C168.383 60.5388 168.711 61.0501 168.583 61.2692C168.456 61.4884 168.109 61.9084 168.583 62.438C169.058 62.9676 169.159 63.3919 169.363 63.1552C169.568 62.9185 169.439 62.7894 169.578 62.6496C169.718 62.5097 169.987 63.0153 170.106 62.6496C170.224 62.2838 169.794 61.9933 169.578 62.0363C169.363 62.0794 168.976 62.0719 169.051 61.6706C169.127 61.2692 169.514 61.7889 169.578 61.7674C169.643 61.7459 170.235 61.0574 170.471 61.0143C170.708 60.9713 171.623 61.6491 171.988 61.563C172.354 61.4769 172.645 61.251 172.623 61.0143C172.602 60.7776 172.257 60.5728 172.623 60.0353C172.989 59.4979 173.527 59.4974 173.742 59.2608C173.957 59.0241 174.624 58.7982 174.463 58.54C174.301 58.2818 173.774 58.3463 173.677 58.0343C173.58 57.7224 173.462 57.249 173.236 57.4104C173.01 57.5717 173.118 58.0881 172.913 58.1096C172.709 58.1312 171.978 58.185 171.343 58.0343C170.708 57.8837 170.037 56.6821 169.223 57.0016ZM168.513 68.6526C168.395 68.6526 168.606 69.212 168.675 69.212C168.761 69.212 168.911 69.6101 169.019 69.4702C169.127 69.3304 168.632 68.6526 168.513 68.6526ZM156.488 54.0125H178.401V83.518H156.488V54.0125ZM171.451 79.2923C171.877 78.7831 172.817 77.7259 173.174 77.571C173.619 77.3774 171.698 79.7009 171.451 79.2923ZM174.811 76.0584C174.827 76.0842 174.869 76.134 174.908 76.1263C174.957 76.1166 175.47 75.5542 175.422 75.5057C175.373 75.4572 174.811 75.8645 174.811 76.0584Z" stroke="black" stroke-width="0.1"/>
</g>
<defs>
<clipPath id="clip0_26_18">
<rect width="210" height="148.5" fill="white" transform="translate(0.5)"/>
</clipPath>
</defs>
</svg>
