<svg width="211" height="149" viewBox="0 0 211 149" fill="none" xmlns="http://www.w3.org/2000/svg">
<rect width="210" height="148.5" transform="matrix(-1 0 0 -1 210.65 148.5)" fill="white"/>
<rect x="38.0023" y="74.25" width="57.1865" height="24.9135" fill="#FF0000"/>
<mask id="path-2-outside-1_392_20" maskUnits="userSpaceOnUse" x="42.5632" y="77.25" width="121" height="18" fill="black">
<rect fill="white" x="42.5632" y="77.25" width="121" height="18"/>
<path d="M99.2635 84.642V83.1079H108.014V84.642H99.2635ZM99.2635 88.8466V87.3125H108.014V88.8466H99.2635ZM125.572 82.3409C125.487 81.6212 125.141 81.0625 124.535 80.6647C123.929 80.267 123.186 80.0682 122.305 80.0682C121.661 80.0682 121.098 80.1723 120.615 80.3807C120.136 80.589 119.762 80.8754 119.493 81.24C119.227 81.6046 119.095 82.0189 119.095 82.4829C119.095 82.8712 119.187 83.205 119.372 83.4843C119.561 83.759 119.803 83.9886 120.096 84.1733C120.39 84.3532 120.698 84.5023 121.02 84.6207C121.342 84.7343 121.637 84.8267 121.907 84.8977L123.385 85.2954C123.763 85.3949 124.185 85.5322 124.649 85.7074C125.118 85.8825 125.565 86.1217 125.991 86.4247C126.422 86.723 126.777 87.1065 127.056 87.5753C127.336 88.044 127.476 88.6193 127.476 89.3011C127.476 90.0871 127.27 90.7973 126.858 91.4318C126.45 92.0663 125.854 92.5705 125.068 92.9446C124.287 93.3186 123.337 93.5057 122.22 93.5057C121.178 93.5057 120.276 93.3376 119.514 93.0014C118.756 92.6652 118.16 92.1965 117.724 91.5951C117.293 90.9938 117.049 90.2954 116.993 89.5H118.811C118.858 90.0492 119.043 90.5038 119.365 90.8636C119.691 91.2187 120.103 91.4839 120.601 91.6591C121.102 91.8295 121.642 91.9147 122.22 91.9147C122.892 91.9147 123.496 91.8058 124.031 91.588C124.566 91.3655 124.99 91.0577 125.302 90.6647C125.615 90.267 125.771 89.803 125.771 89.2727C125.771 88.7897 125.636 88.3967 125.366 88.0937C125.096 87.7907 124.741 87.5445 124.301 87.3551C123.86 87.1657 123.385 87 122.873 86.8579L121.083 86.3466C119.947 86.0199 119.047 85.5535 118.385 84.9474C117.722 84.3414 117.39 83.5483 117.39 82.5682C117.39 81.7538 117.61 81.0435 118.051 80.4375C118.496 79.8267 119.092 79.3532 119.841 79.017C120.593 78.6761 121.434 78.5057 122.362 78.5057C123.299 78.5057 124.133 78.6737 124.862 79.0099C125.591 79.3414 126.169 79.7959 126.595 80.3735C127.026 80.9512 127.253 81.607 127.277 82.3409H125.572ZM137.445 86.6875V93.25H135.769V78.7045H137.445V84.0454H137.587C137.843 83.482 138.227 83.0345 138.738 82.7031C139.254 82.3669 139.941 82.1988 140.798 82.1988C141.541 82.1988 142.192 82.348 142.751 82.6463C143.309 82.9398 143.743 83.392 144.05 84.0028C144.363 84.6089 144.519 85.3807 144.519 86.3182V93.25H142.843V86.4318C142.843 85.5653 142.618 84.8953 142.168 84.4218C141.723 83.9436 141.105 83.7045 140.315 83.7045C139.765 83.7045 139.273 83.8205 138.837 84.0525C138.406 84.2845 138.066 84.6231 137.815 85.0682C137.568 85.5132 137.445 86.053 137.445 86.6875ZM153.438 93.25V78.7045H162.216V80.267H155.199V85.1818H161.762V86.7443H155.199V91.6875H162.33V93.25H153.438Z"/>
<path d="M48.8587 93.4488C47.9212 93.4488 47.0855 93.2878 46.3516 92.9659C45.6224 92.6439 45.0424 92.1965 44.6115 91.6235C44.1854 91.0459 43.9534 90.3759 43.9155 89.6136H45.7053C45.7431 90.0824 45.9041 90.4872 46.1882 90.8281C46.4723 91.1643 46.844 91.4247 47.3033 91.6093C47.7626 91.794 48.2716 91.8863 48.8303 91.8863C49.4553 91.8863 50.0092 91.7774 50.4922 91.5596C50.9751 91.3418 51.3539 91.0388 51.6286 90.6505C51.9032 90.2623 52.0405 89.8125 52.0405 89.3011C52.0405 88.7661 51.9079 88.295 51.6428 87.8878C51.3776 87.4758 50.9894 87.1539 50.478 86.9218C49.9666 86.6898 49.3416 86.5738 48.603 86.5738H47.4382V85.0113H48.603C49.1806 85.0113 49.6873 84.9072 50.1229 84.6988C50.5632 84.4905 50.9065 84.1969 51.1527 83.8182C51.4037 83.4394 51.5291 82.9943 51.5291 82.4829C51.5291 81.9905 51.4202 81.562 51.2024 81.1974C50.9846 80.8328 50.6769 80.5487 50.2791 80.3451C49.8861 80.1415 49.4221 80.0397 48.8871 80.0397C48.3852 80.0397 47.9117 80.1321 47.4666 80.3167C47.0263 80.4967 46.6664 80.7594 46.3871 81.1051C46.1077 81.446 45.9562 81.8579 45.9325 82.3409H44.228C44.2564 81.5786 44.486 80.911 44.9169 80.338C45.3478 79.7604 45.9112 79.3106 46.6073 78.9886C47.308 78.6666 48.0774 78.5057 48.9155 78.5057C49.8151 78.5057 50.5869 78.6879 51.2308 79.0525C51.8748 79.4124 52.3696 79.8882 52.7152 80.4801C53.0609 81.0719 53.2337 81.7111 53.2337 82.3977C53.2337 83.2168 53.0182 83.9152 52.5874 84.4929C52.1612 85.0705 51.5812 85.4706 50.8473 85.6932V85.8068C51.7659 85.9583 52.4832 86.3489 52.9993 86.9787C53.5154 87.6037 53.7734 88.3778 53.7734 89.3011C53.7734 90.0918 53.558 90.8021 53.1271 91.4318C52.701 92.0568 52.1186 92.5492 51.38 92.9091C50.6413 93.2689 49.8009 93.4488 48.8587 93.4488ZM61.9624 90.267V88.8182L68.3544 78.7045H69.4055V80.9488H68.6953L63.8658 88.5909V88.7045H72.4737V90.267H61.9624ZM68.809 93.25V89.8267V89.152V78.7045H70.4851V93.25H68.809ZM85.3058 93.4488C84.4724 93.4488 83.722 93.2831 83.0543 92.9517C82.3867 92.6202 81.8517 92.1657 81.4492 91.588C81.0468 91.0104 80.8266 90.3522 80.7887 89.6136H82.4933C82.5595 90.2717 82.8578 90.8163 83.3881 91.2471C83.9232 91.6733 84.5624 91.8863 85.3058 91.8863C85.9024 91.8863 86.4327 91.7467 86.8967 91.4673C87.3654 91.1879 87.7324 90.8044 87.9975 90.3167C88.2674 89.8243 88.4024 89.268 88.4024 88.6477C88.4024 88.0132 88.2627 87.4474 87.9833 86.9503C87.7087 86.4484 87.3299 86.053 86.847 85.7642C86.364 85.4753 85.8124 85.3286 85.1921 85.3238C84.747 85.3191 84.2901 85.3878 83.8214 85.5298C83.3526 85.6671 82.9667 85.8447 82.6637 86.0625L81.016 85.8636L81.8967 78.7045H89.4535V80.267H83.3739L82.8626 84.5568H82.9478C83.2461 84.32 83.6202 84.1235 84.07 83.9673C84.5198 83.811 84.9885 83.7329 85.4762 83.7329C86.3664 83.7329 87.1595 83.946 87.8555 84.3721C88.5562 84.7935 89.1055 85.3712 89.5032 86.1051C89.9057 86.839 90.1069 87.6771 90.1069 88.6193C90.1069 89.5473 89.8986 90.3759 89.4819 91.1051C89.07 91.8295 88.5018 92.4024 87.7774 92.8238C87.0529 93.2405 86.2291 93.4488 85.3058 93.4488Z"/>
</mask>
<path d="M99.2635 84.642V83.1079H108.014V84.642H99.2635ZM99.2635 88.8466V87.3125H108.014V88.8466H99.2635ZM125.572 82.3409C125.487 81.6212 125.141 81.0625 124.535 80.6647C123.929 80.267 123.186 80.0682 122.305 80.0682C121.661 80.0682 121.098 80.1723 120.615 80.3807C120.136 80.589 119.762 80.8754 119.493 81.24C119.227 81.6046 119.095 82.0189 119.095 82.4829C119.095 82.8712 119.187 83.205 119.372 83.4843C119.561 83.759 119.803 83.9886 120.096 84.1733C120.39 84.3532 120.698 84.5023 121.02 84.6207C121.342 84.7343 121.637 84.8267 121.907 84.8977L123.385 85.2954C123.763 85.3949 124.185 85.5322 124.649 85.7074C125.118 85.8825 125.565 86.1217 125.991 86.4247C126.422 86.723 126.777 87.1065 127.056 87.5753C127.336 88.044 127.476 88.6193 127.476 89.3011C127.476 90.0871 127.27 90.7973 126.858 91.4318C126.45 92.0663 125.854 92.5705 125.068 92.9446C124.287 93.3186 123.337 93.5057 122.22 93.5057C121.178 93.5057 120.276 93.3376 119.514 93.0014C118.756 92.6652 118.16 92.1965 117.724 91.5951C117.293 90.9938 117.049 90.2954 116.993 89.5H118.811C118.858 90.0492 119.043 90.5038 119.365 90.8636C119.691 91.2187 120.103 91.4839 120.601 91.6591C121.102 91.8295 121.642 91.9147 122.22 91.9147C122.892 91.9147 123.496 91.8058 124.031 91.588C124.566 91.3655 124.99 91.0577 125.302 90.6647C125.615 90.267 125.771 89.803 125.771 89.2727C125.771 88.7897 125.636 88.3967 125.366 88.0937C125.096 87.7907 124.741 87.5445 124.301 87.3551C123.86 87.1657 123.385 87 122.873 86.8579L121.083 86.3466C119.947 86.0199 119.047 85.5535 118.385 84.9474C117.722 84.3414 117.39 83.5483 117.39 82.5682C117.39 81.7538 117.61 81.0435 118.051 80.4375C118.496 79.8267 119.092 79.3532 119.841 79.017C120.593 78.6761 121.434 78.5057 122.362 78.5057C123.299 78.5057 124.133 78.6737 124.862 79.0099C125.591 79.3414 126.169 79.7959 126.595 80.3735C127.026 80.9512 127.253 81.607 127.277 82.3409H125.572ZM137.445 86.6875V93.25H135.769V78.7045H137.445V84.0454H137.587C137.843 83.482 138.227 83.0345 138.738 82.7031C139.254 82.3669 139.941 82.1988 140.798 82.1988C141.541 82.1988 142.192 82.348 142.751 82.6463C143.309 82.9398 143.743 83.392 144.05 84.0028C144.363 84.6089 144.519 85.3807 144.519 86.3182V93.25H142.843V86.4318C142.843 85.5653 142.618 84.8953 142.168 84.4218C141.723 83.9436 141.105 83.7045 140.315 83.7045C139.765 83.7045 139.273 83.8205 138.837 84.0525C138.406 84.2845 138.066 84.6231 137.815 85.0682C137.568 85.5132 137.445 86.053 137.445 86.6875ZM153.438 93.25V78.7045H162.216V80.267H155.199V85.1818H161.762V86.7443H155.199V91.6875H162.33V93.25H153.438Z" fill="black"/>
<path d="M48.8587 93.4488C47.9212 93.4488 47.0855 93.2878 46.3516 92.9659C45.6224 92.6439 45.0424 92.1965 44.6115 91.6235C44.1854 91.0459 43.9534 90.3759 43.9155 89.6136H45.7053C45.7431 90.0824 45.9041 90.4872 46.1882 90.8281C46.4723 91.1643 46.844 91.4247 47.3033 91.6093C47.7626 91.794 48.2716 91.8863 48.8303 91.8863C49.4553 91.8863 50.0092 91.7774 50.4922 91.5596C50.9751 91.3418 51.3539 91.0388 51.6286 90.6505C51.9032 90.2623 52.0405 89.8125 52.0405 89.3011C52.0405 88.7661 51.9079 88.295 51.6428 87.8878C51.3776 87.4758 50.9894 87.1539 50.478 86.9218C49.9666 86.6898 49.3416 86.5738 48.603 86.5738H47.4382V85.0113H48.603C49.1806 85.0113 49.6873 84.9072 50.1229 84.6988C50.5632 84.4905 50.9065 84.1969 51.1527 83.8182C51.4037 83.4394 51.5291 82.9943 51.5291 82.4829C51.5291 81.9905 51.4202 81.562 51.2024 81.1974C50.9846 80.8328 50.6769 80.5487 50.2791 80.3451C49.8861 80.1415 49.4221 80.0397 48.8871 80.0397C48.3852 80.0397 47.9117 80.1321 47.4666 80.3167C47.0263 80.4967 46.6664 80.7594 46.3871 81.1051C46.1077 81.446 45.9562 81.8579 45.9325 82.3409H44.228C44.2564 81.5786 44.486 80.911 44.9169 80.338C45.3478 79.7604 45.9112 79.3106 46.6073 78.9886C47.308 78.6666 48.0774 78.5057 48.9155 78.5057C49.8151 78.5057 50.5869 78.6879 51.2308 79.0525C51.8748 79.4124 52.3696 79.8882 52.7152 80.4801C53.0609 81.0719 53.2337 81.7111 53.2337 82.3977C53.2337 83.2168 53.0182 83.9152 52.5874 84.4929C52.1612 85.0705 51.5812 85.4706 50.8473 85.6932V85.8068C51.7659 85.9583 52.4832 86.3489 52.9993 86.9787C53.5154 87.6037 53.7734 88.3778 53.7734 89.3011C53.7734 90.0918 53.558 90.8021 53.1271 91.4318C52.701 92.0568 52.1186 92.5492 51.38 92.9091C50.6413 93.2689 49.8009 93.4488 48.8587 93.4488ZM61.9624 90.267V88.8182L68.3544 78.7045H69.4055V80.9488H68.6953L63.8658 88.5909V88.7045H72.4737V90.267H61.9624ZM68.809 93.25V89.8267V89.152V78.7045H70.4851V93.25H68.809ZM85.3058 93.4488C84.4724 93.4488 83.722 93.2831 83.0543 92.9517C82.3867 92.6202 81.8517 92.1657 81.4492 91.588C81.0468 91.0104 80.8266 90.3522 80.7887 89.6136H82.4933C82.5595 90.2717 82.8578 90.8163 83.3881 91.2471C83.9232 91.6733 84.5624 91.8863 85.3058 91.8863C85.9024 91.8863 86.4327 91.7467 86.8967 91.4673C87.3654 91.1879 87.7324 90.8044 87.9975 90.3167C88.2674 89.8243 88.4024 89.268 88.4024 88.6477C88.4024 88.0132 88.2627 87.4474 87.9833 86.9503C87.7087 86.4484 87.3299 86.053 86.847 85.7642C86.364 85.4753 85.8124 85.3286 85.1921 85.3238C84.747 85.3191 84.2901 85.3878 83.8214 85.5298C83.3526 85.6671 82.9667 85.8447 82.6637 86.0625L81.016 85.8636L81.8967 78.7045H89.4535V80.267H83.3739L82.8626 84.5568H82.9478C83.2461 84.32 83.6202 84.1235 84.07 83.9673C84.5198 83.811 84.9885 83.7329 85.4762 83.7329C86.3664 83.7329 87.1595 83.946 87.8555 84.3721C88.5562 84.7935 89.1055 85.3712 89.5032 86.1051C89.9057 86.839 90.1069 87.6771 90.1069 88.6193C90.1069 89.5473 89.8986 90.3759 89.4819 91.1051C89.07 91.8295 88.5018 92.4024 87.7774 92.8238C87.0529 93.2405 86.2291 93.4488 85.3058 93.4488Z" fill="#FF0000"/>
<path d="M46.3516 92.9659L45.9476 93.8807L45.9498 93.8816L46.3516 92.9659ZM44.6115 91.6235L43.8068 92.2172L43.8123 92.2246L44.6115 91.6235ZM43.9155 89.6136V88.6136H42.8646L42.9167 89.6632L43.9155 89.6136ZM45.7053 89.6136L46.702 89.5331L46.6277 88.6136H45.7053V89.6136ZM46.1882 90.8281L45.42 91.4683L45.4244 91.4736L46.1882 90.8281ZM47.3033 91.6093L46.9302 92.5372L46.9302 92.5372L47.3033 91.6093ZM51.6286 90.6505L50.8121 90.0731L50.8121 90.0731L51.6286 90.6505ZM51.6428 87.8878L50.8019 88.429L50.8048 88.4334L51.6428 87.8878ZM50.478 86.9218L50.0648 87.8325L50.0648 87.8325L50.478 86.9218ZM47.4382 86.5738H46.4382V87.5738H47.4382V86.5738ZM47.4382 85.0113V84.0113H46.4382V85.0113H47.4382ZM50.1229 84.6988L49.6952 83.7949L49.6914 83.7967L50.1229 84.6988ZM51.1527 83.8182L50.319 83.2658L50.3143 83.2732L51.1527 83.8182ZM51.2024 81.1974L52.0609 80.6846L52.0609 80.6846L51.2024 81.1974ZM50.2791 80.3451L49.8191 81.2331L49.8235 81.2353L50.2791 80.3451ZM47.4666 80.3167L47.8449 81.2424L47.8498 81.2404L47.4666 80.3167ZM46.3871 81.1051L47.1606 81.7389L47.1648 81.7337L46.3871 81.1051ZM45.9325 82.3409V83.3409H46.8847L46.9313 82.3898L45.9325 82.3409ZM44.228 82.3409L43.2287 82.3036L43.19 83.3409H44.228V82.3409ZM44.9169 80.338L45.7161 80.9391L45.7185 80.9359L44.9169 80.338ZM46.6073 78.9886L46.1897 78.0799L46.1874 78.081L46.6073 78.9886ZM51.2308 79.0525L50.7381 79.9227L50.743 79.9255L51.2308 79.0525ZM52.7152 80.4801L51.8517 80.9844L51.8517 80.9844L52.7152 80.4801ZM52.5874 84.4929L51.7858 83.895L51.7826 83.8992L52.5874 84.4929ZM50.8473 85.6932L50.5571 84.7362L49.8473 84.9514V85.6932H50.8473ZM50.8473 85.8068H49.8473V86.6554L50.6846 86.7935L50.8473 85.8068ZM52.9993 86.9787L52.2259 87.6125L52.2282 87.6154L52.9993 86.9787ZM53.1271 91.4318L52.3018 90.8671L52.3009 90.8685L53.1271 91.4318ZM51.38 92.9091L51.8179 93.8081L51.8179 93.8081L51.38 92.9091ZM48.8587 93.4488V92.4488C48.0362 92.4488 47.3409 92.3079 46.7533 92.0501L46.3516 92.9659L45.9498 93.8816C46.83 94.2678 47.8061 94.4488 48.8587 94.4488V93.4488ZM46.3516 92.9659L46.7555 92.0511C46.1649 91.7903 45.7277 91.4439 45.4107 91.0225L44.6115 91.6235L43.8123 92.2246C44.3571 92.949 45.0799 93.4975 45.9476 93.8807L46.3516 92.9659ZM44.6115 91.6235L45.4162 91.0299C45.1144 90.6208 44.943 90.1429 44.9143 89.564L43.9155 89.6136L42.9167 89.6632C42.9637 90.609 43.2563 91.471 43.8068 92.2172L44.6115 91.6235ZM43.9155 89.6136V90.6136H45.7053V89.6136V88.6136H43.9155V89.6136ZM45.7053 89.6136L44.7085 89.6942C44.762 90.3555 44.9957 90.9591 45.42 91.4683L46.1882 90.8281L46.9564 90.1879C46.8126 90.0152 46.7243 89.8092 46.702 89.5331L45.7053 89.6136ZM46.1882 90.8281L45.4244 91.4736C45.8263 91.9491 46.3387 92.2993 46.9302 92.5372L47.3033 91.6093L47.6763 90.6815C47.3492 90.55 47.1183 90.3794 46.952 90.1826L46.1882 90.8281ZM47.3033 91.6093L46.9302 92.5372C47.5224 92.7752 48.1601 92.8863 48.8303 92.8863V91.8863V90.8863C48.383 90.8863 48.0027 90.8128 47.6763 90.6815L47.3033 91.6093ZM48.8303 91.8863V92.8863C49.5718 92.8863 50.27 92.7568 50.9033 92.4712L50.4922 91.5596L50.0811 90.648C49.7485 90.798 49.3387 90.8863 48.8303 90.8863V91.8863ZM50.4922 91.5596L50.9033 92.4712C51.5297 92.1887 52.056 91.7779 52.445 91.228L51.6286 90.6505L50.8121 90.0731C50.6518 90.2997 50.4206 90.4949 50.0811 90.648L50.4922 91.5596ZM51.6286 90.6505L52.445 91.228C52.8482 90.6579 53.0405 90.0029 53.0405 89.3011H52.0405H51.0405C51.0405 89.6221 50.9582 89.8666 50.8121 90.0731L51.6286 90.6505ZM52.0405 89.3011H53.0405C53.0405 88.5927 52.8622 87.9279 52.4808 87.3421L51.6428 87.8878L50.8048 88.4334C50.9536 88.662 51.0405 88.9395 51.0405 89.3011H52.0405ZM51.6428 87.8878L52.4836 87.3465C52.0998 86.7502 51.5514 86.3107 50.8912 86.0112L50.478 86.9218L50.0648 87.8325C50.4273 87.997 50.6554 88.2014 50.8019 88.429L51.6428 87.8878ZM50.478 86.9218L50.8912 86.0112C50.2159 85.7048 49.4412 85.5738 48.603 85.5738V86.5738V87.5738C49.242 87.5738 49.7173 87.6748 50.0648 87.8325L50.478 86.9218ZM48.603 86.5738V85.5738H47.4382V86.5738V87.5738H48.603V86.5738ZM47.4382 86.5738H48.4382V85.0113H47.4382H46.4382V86.5738H47.4382ZM47.4382 85.0113V86.0113H48.603V85.0113V84.0113H47.4382V85.0113ZM48.603 85.0113V86.0113C49.301 86.0113 49.9601 85.8851 50.5543 85.601L50.1229 84.6988L49.6914 83.7967C49.4144 83.9292 49.0603 84.0113 48.603 84.0113V85.0113ZM50.1229 84.6988L50.5505 85.6028C51.1448 85.3216 51.636 84.9095 51.9911 84.3631L51.1527 83.8182L50.3143 83.2732C50.177 83.4844 49.9816 83.6594 49.6952 83.7949L50.1229 84.6988ZM51.1527 83.8182L51.9864 84.3704C52.3591 83.8079 52.5291 83.1653 52.5291 82.4829H51.5291H50.5291C50.5291 82.8233 50.4482 83.0709 50.3191 83.2659L51.1527 83.8182ZM51.5291 82.4829H52.5291C52.5291 81.8391 52.3852 81.2275 52.0609 80.6846L51.2024 81.1974L50.3439 81.7103C50.4552 81.8965 50.5291 82.1419 50.5291 82.4829H51.5291ZM51.2024 81.1974L52.0609 80.6846C51.7418 80.1503 51.2904 79.7394 50.7348 79.455L50.2791 80.3451L49.8235 81.2353C50.0633 81.3581 50.2275 81.5153 50.3439 81.7103L51.2024 81.1974ZM50.2791 80.3451L50.7391 79.4572C50.1772 79.1661 49.5491 79.0397 48.8871 79.0397V80.0397V81.0397C49.2951 81.0397 49.595 81.117 49.8191 81.2331L50.2791 80.3451ZM48.8871 80.0397V79.0397C48.2592 79.0397 47.655 79.1559 47.0834 79.3931L47.4666 80.3167L47.8498 81.2404C48.1684 81.1082 48.5111 81.0397 48.8871 81.0397V80.0397ZM47.4666 80.3167L47.0884 79.391C46.5033 79.6301 46.0021 79.9905 45.6093 80.4765L46.3871 81.1051L47.1648 81.7337C47.3308 81.5284 47.5493 81.3632 47.8449 81.2424L47.4666 80.3167ZM46.3871 81.1051L45.6136 80.4713C45.1851 80.9941 44.9668 81.6168 44.9337 82.2919L45.9325 82.3409L46.9313 82.3898C46.9456 82.099 47.0303 81.8978 47.1606 81.7389L46.3871 81.1051ZM45.9325 82.3409V81.3409H44.228V82.3409V83.3409H45.9325V82.3409ZM44.228 82.3409L45.2273 82.3781C45.2486 81.8059 45.416 81.3382 45.7161 80.9391L44.9169 80.338L44.1177 79.737C43.5561 80.4837 43.2642 81.3512 43.2287 82.3036L44.228 82.3409ZM44.9169 80.338L45.7185 80.9359C46.0435 80.5002 46.4721 80.1529 47.0271 79.8962L46.6073 78.9886L46.1874 78.081C45.3503 78.4682 44.6521 79.0205 44.1153 79.7401L44.9169 80.338ZM46.6073 78.9886L47.0248 79.8973C47.5835 79.6406 48.2089 79.5057 48.9155 79.5057V78.5057V77.5057C47.946 77.5057 47.0325 77.6927 46.1898 78.0799L46.6073 78.9886ZM48.9155 78.5057V79.5057C49.6795 79.5057 50.2737 79.6598 50.7381 79.9227L51.2308 79.0525L51.7235 78.1823C50.9 77.7161 49.9507 77.5057 48.9155 77.5057V78.5057ZM51.2308 79.0525L50.743 79.9255C51.2434 80.2051 51.603 80.5585 51.8517 80.9844L52.7152 80.4801L53.5787 79.9758C53.1362 79.218 52.5062 78.6197 51.7187 78.1796L51.2308 79.0525ZM52.7152 80.4801L51.8517 80.9844C52.1078 81.4229 52.2337 81.8881 52.2337 82.3977H53.2337H54.2337C54.2337 81.5342 54.0139 80.7209 53.5787 79.9758L52.7152 80.4801ZM53.2337 82.3977H52.2337C52.2337 83.0321 52.0706 83.5132 51.7858 83.895L52.5874 84.4929L53.3889 85.0908C53.9659 84.3173 54.2337 83.4015 54.2337 82.3977H53.2337ZM52.5874 84.4929L51.7826 83.8992C51.4934 84.2913 51.0998 84.5716 50.5571 84.7362L50.8473 85.6932L51.1375 86.6501C52.0626 86.3696 52.8291 85.8497 53.3921 85.0865L52.5874 84.4929ZM50.8473 85.6932H49.8473V85.8068H50.8473H51.8473V85.6932H50.8473ZM50.8473 85.8068L50.6846 86.7935C51.4001 86.9115 51.8857 87.1975 52.2259 87.6125L52.9993 86.9787L53.7727 86.3448C53.0807 85.5003 52.1316 85.0051 51.0101 84.8201L50.8473 85.8068ZM52.9993 86.9787L52.2282 87.6154C52.5759 88.0365 52.7734 88.576 52.7734 89.3011H53.7734H54.7734C54.7734 88.1796 54.4549 87.1708 53.7704 86.3419L52.9993 86.9787ZM53.7734 89.3011H52.7734C52.7734 89.8981 52.6146 90.41 52.3018 90.8671L53.1271 91.4318L53.9524 91.9965C54.5014 91.1941 54.7734 90.2856 54.7734 89.3011H53.7734ZM53.1271 91.4318L52.3009 90.8685C51.9811 91.3375 51.5381 91.7197 50.942 92.0101L51.38 92.9091L51.8179 93.8081C52.6991 93.3788 53.4209 92.7761 53.9534 91.9951L53.1271 91.4318ZM51.38 92.9091L50.942 92.0101C50.3585 92.2943 49.6715 92.4488 48.8587 92.4488V93.4488V94.4488C49.9304 94.4488 50.9241 94.2435 51.8179 93.8081L51.38 92.9091ZM61.9624 90.267H60.9624V91.267H61.9624V90.267ZM61.9624 88.8182L61.117 88.2839L60.9624 88.5286V88.8182H61.9624ZM68.3544 78.7045V77.7045H67.8034L67.5091 78.1703L68.3544 78.7045ZM69.4055 78.7045H70.4055V77.7045H69.4055V78.7045ZM69.4055 80.9488V81.9488H70.4055V80.9488H69.4055ZM68.6953 80.9488V79.9488H68.1443L67.85 80.4146L68.6953 80.9488ZM63.8658 88.5909L63.0204 88.0566L62.8658 88.3014V88.5909H63.8658ZM63.8658 88.7045H62.8658V89.7045H63.8658V88.7045ZM72.4737 88.7045H73.4737V87.7045H72.4737V88.7045ZM72.4737 90.267V91.267H73.4737V90.267H72.4737ZM68.809 93.25H67.809V94.25H68.809V93.25ZM68.809 78.7045V77.7045H67.809V78.7045H68.809ZM70.4851 78.7045H71.4851V77.7045H70.4851V78.7045ZM70.4851 93.25V94.25H71.4851V93.25H70.4851ZM61.9624 90.267H62.9624V88.8182H61.9624H60.9624V90.267H61.9624ZM61.9624 88.8182L62.8077 89.3524L69.1997 79.2388L68.3544 78.7045L67.5091 78.1703L61.117 88.2839L61.9624 88.8182ZM68.3544 78.7045V79.7045H69.4055V78.7045V77.7045H68.3544V78.7045ZM69.4055 78.7045H68.4055V80.9488H69.4055H70.4055V78.7045H69.4055ZM69.4055 80.9488V79.9488H68.6953V80.9488V81.9488H69.4055V80.9488ZM68.6953 80.9488L67.85 80.4146L63.0204 88.0566L63.8658 88.5909L64.7111 89.1251L69.5407 81.4831L68.6953 80.9488ZM63.8658 88.5909H62.8658V88.7045H63.8658H64.8658V88.5909H63.8658ZM63.8658 88.7045V89.7045H72.4737V88.7045V87.7045H63.8658V88.7045ZM72.4737 88.7045H71.4737V90.267H72.4737H73.4737V88.7045H72.4737ZM72.4737 90.267V89.267H61.9624V90.267V91.267H72.4737V90.267ZM68.809 93.25H69.809V89.8267H68.809H67.809V93.25H68.809ZM68.809 89.8267H69.809V89.152H68.809H67.809V89.8267H68.809ZM68.809 89.152H69.809V78.7045H68.809H67.809V89.152H68.809ZM68.809 78.7045V79.7045H70.4851V78.7045V77.7045H68.809V78.7045ZM70.4851 78.7045H69.4851V93.25H70.4851H71.4851V78.7045H70.4851ZM70.4851 93.25V92.25H68.809V93.25V94.25H70.4851V93.25ZM83.0543 92.9517L82.6097 93.8474L82.6097 93.8474L83.0543 92.9517ZM81.4492 91.588L82.2697 91.0164L82.2697 91.0164L81.4492 91.588ZM80.7887 89.6136V88.6136H79.7361L79.79 89.6648L80.7887 89.6136ZM82.4933 89.6136L83.4882 89.5134L83.3976 88.6136H82.4933V89.6136ZM83.3881 91.2471L82.7575 92.0233L82.7651 92.0293L83.3881 91.2471ZM86.8967 91.4673L86.3847 90.6083L86.3809 90.6106L86.8967 91.4673ZM87.9975 90.3167L87.1206 89.8361L87.119 89.8391L87.9975 90.3167ZM87.9833 86.9503L87.106 87.4303L87.1115 87.4401L87.9833 86.9503ZM85.1921 85.3238L85.1815 86.3238L85.1845 86.3238L85.1921 85.3238ZM83.8214 85.5298L84.1025 86.4895L84.1114 86.4868L83.8214 85.5298ZM82.6637 86.0625L82.5439 87.0553L82.9309 87.102L83.2474 86.8745L82.6637 86.0625ZM81.016 85.8636L80.0235 85.7415L79.9011 86.7363L80.8962 86.8564L81.016 85.8636ZM81.8967 78.7045V77.7045H81.0121L80.9042 78.5824L81.8967 78.7045ZM89.4535 78.7045H90.4535V77.7045H89.4535V78.7045ZM89.4535 80.267V81.267H90.4535V80.267H89.4535ZM83.3739 80.267V79.267H82.4861L82.381 80.1486L83.3739 80.267ZM82.8626 84.5568L81.8696 84.4384L81.7363 85.5568H82.8626V84.5568ZM82.9478 84.5568V85.5568H83.2964L83.5695 85.3401L82.9478 84.5568ZM87.8555 84.3721L87.3333 85.225L87.3401 85.2291L87.8555 84.3721ZM89.5032 86.1051L88.624 86.5816L88.6264 86.5859L89.5032 86.1051ZM89.4819 91.1051L88.6137 90.6089L88.6126 90.6108L89.4819 91.1051ZM87.7774 92.8238L88.2759 93.6907L88.2802 93.6882L87.7774 92.8238ZM85.3058 93.4488V92.4488C84.6083 92.4488 84.0128 92.3111 83.499 92.056L83.0543 92.9517L82.6097 93.8474C83.4311 94.2552 84.3365 94.4488 85.3058 94.4488V93.4488ZM83.0543 92.9517L83.499 92.056C82.9728 91.7947 82.5705 91.448 82.2697 91.0164L81.4492 91.588L80.6287 92.1597C81.1329 92.8833 81.8007 93.4457 82.6097 93.8474L83.0543 92.9517ZM81.4492 91.588L82.2697 91.0164C81.9797 90.6001 81.8162 90.1242 81.7874 89.5624L80.7887 89.6136L79.79 89.6648C79.837 90.5803 80.1139 91.4207 80.6287 92.1597L81.4492 91.588ZM80.7887 89.6136V90.6136H82.4933V89.6136V88.6136H80.7887V89.6136ZM82.4933 89.6136L81.4983 89.7138C81.5922 90.6464 82.0283 91.4307 82.7576 92.0232L83.3881 91.2471L84.0187 90.471C83.6874 90.2018 83.5269 89.8971 83.4882 89.5134L82.4933 89.6136ZM83.3881 91.2471L82.7651 92.0293C83.4929 92.609 84.357 92.8863 85.3058 92.8863V91.8863V90.8863C84.7678 90.8863 84.3534 90.7375 84.0112 90.4649L83.3881 91.2471ZM85.3058 91.8863V92.8863C86.0651 92.8863 86.7772 92.7065 87.4124 92.324L86.8967 91.4673L86.3809 90.6106C86.0881 90.7868 85.7396 90.8863 85.3058 90.8863V91.8863ZM86.8967 91.4673L87.4086 92.3263C88.0344 91.9534 88.5267 91.4369 88.8761 90.7944L87.9975 90.3167L87.119 89.8391C86.938 90.1719 86.6965 90.4225 86.3847 90.6083L86.8967 91.4673ZM87.9975 90.3167L88.8744 90.7974C89.2333 90.1426 89.4024 89.418 89.4024 88.6477H88.4024H87.4024C87.4024 89.1179 87.3015 89.506 87.1206 89.8361L87.9975 90.3167ZM88.4024 88.6477H89.4024C89.4024 87.8614 89.2277 87.1234 88.8551 86.4604L87.9833 86.9503L87.1115 87.4401C87.2977 87.7714 87.4024 88.1651 87.4024 88.6477H88.4024ZM87.9833 86.9503L88.8606 86.4702C88.502 85.8148 87.9987 85.2878 87.3602 84.9059L86.847 85.7642L86.3337 86.6224C86.6611 86.8182 86.9154 87.0819 87.1061 87.4303L87.9833 86.9503ZM86.847 85.7642L87.3602 84.9059C86.709 84.5165 85.9794 84.3298 85.1998 84.3239L85.1921 85.3238L85.1845 86.3238C85.6453 86.3273 86.019 86.4342 86.3337 86.6224L86.847 85.7642ZM85.1921 85.3238L85.2028 84.3239C84.6462 84.318 84.0879 84.4041 83.5314 84.5728L83.8214 85.5298L84.1114 86.4868C84.4924 86.3714 84.8479 86.3202 85.1815 86.3238L85.1921 85.3238ZM83.8214 85.5298L83.5403 84.5701C82.9947 84.7299 82.4983 84.9499 82.0801 85.2505L82.6637 86.0625L83.2474 86.8745C83.4352 86.7395 83.7106 86.6043 84.1025 86.4895L83.8214 85.5298ZM82.6637 86.0625L82.7835 85.0697L81.1358 84.8708L81.016 85.8636L80.8962 86.8564L82.5439 87.0553L82.6637 86.0625ZM81.016 85.8636L82.0085 85.9857L82.8892 78.8266L81.8967 78.7045L80.9042 78.5824L80.0235 85.7415L81.016 85.8636ZM81.8967 78.7045V79.7045H89.4535V78.7045V77.7045H81.8967V78.7045ZM89.4535 78.7045H88.4535V80.267H89.4535H90.4535V78.7045H89.4535ZM89.4535 80.267V79.267H83.3739V80.267V81.267H89.4535V80.267ZM83.3739 80.267L82.381 80.1486L81.8696 84.4384L82.8626 84.5568L83.8555 84.6752L84.3669 80.3854L83.3739 80.267ZM82.8626 84.5568V85.5568H82.9478V84.5568V83.5568H82.8626V84.5568ZM82.9478 84.5568L83.5695 85.3401C83.7608 85.1882 84.029 85.0401 84.3981 84.9119L84.07 83.9673L83.7418 83.0227C83.2113 83.207 82.7314 83.4519 82.3261 83.7735L82.9478 84.5568ZM84.07 83.9673L84.3981 84.9119C84.7398 84.7932 85.0975 84.7329 85.4762 84.7329V83.7329V82.7329C84.8796 82.7329 84.2997 82.8289 83.7418 83.0227L84.07 83.9673ZM85.4762 83.7329V84.7329C86.1994 84.7329 86.8086 84.9037 87.3333 85.225L87.8555 84.3721L88.3776 83.5193C87.5103 82.9883 86.5333 82.7329 85.4762 82.7329V83.7329ZM87.8555 84.3721L87.3401 85.2291C87.8845 85.5565 88.3095 86.0013 88.624 86.5815L89.5032 86.1051L90.3824 85.6286C89.9014 84.7411 89.228 84.0306 88.3708 83.5151L87.8555 84.3721ZM89.5032 86.1051L88.6264 86.5859C88.9383 87.1547 89.1069 87.8237 89.1069 88.6193H90.1069H91.1069C91.1069 87.5304 90.873 86.5233 90.38 85.6243L89.5032 86.1051ZM90.1069 88.6193H89.1069C89.1069 89.392 88.9351 90.0463 88.6137 90.6089L89.4819 91.1051L90.3501 91.6012C90.862 90.7055 91.1069 89.7026 91.1069 88.6193H90.1069ZM89.4819 91.1051L88.6126 90.6108C88.2885 91.1807 87.8472 91.6263 87.2745 91.9594L87.7774 92.8238L88.2802 93.6882C89.1564 93.1785 89.8514 92.4783 90.3512 91.5994L89.4819 91.1051ZM87.7774 92.8238L87.2788 91.957C86.7215 92.2775 86.0729 92.4488 85.3058 92.4488V93.4488V94.4488C86.3852 94.4488 87.3843 94.2035 88.2759 93.6907L87.7774 92.8238ZM99.2635 84.642H98.2635V85.642H99.2635V84.642ZM99.2635 83.1079V82.1079H98.2635V83.1079H99.2635ZM108.014 83.1079H109.014V82.1079H108.014V83.1079ZM108.014 84.642V85.642H109.014V84.642H108.014ZM99.2635 88.8466H98.2635V89.8466H99.2635V88.8466ZM99.2635 87.3125V86.3125H98.2635V87.3125H99.2635ZM108.014 87.3125H109.014V86.3125H108.014V87.3125ZM108.014 88.8466V89.8466H109.014V88.8466H108.014ZM99.2635 84.642H100.264V83.1079H99.2635H98.2635V84.642H99.2635ZM99.2635 83.1079V84.1079H108.014V83.1079V82.1079H99.2635V83.1079ZM108.014 83.1079H107.014V84.642H108.014H109.014V83.1079H108.014ZM108.014 84.642V83.642H99.2635V84.642V85.642H108.014V84.642ZM99.2635 88.8466H100.264V87.3125H99.2635H98.2635V88.8466H99.2635ZM99.2635 87.3125V88.3125H108.014V87.3125V86.3125H99.2635V87.3125ZM108.014 87.3125H107.014V88.8466H108.014H109.014V87.3125H108.014ZM108.014 88.8466V87.8466H99.2635V88.8466V89.8466H108.014V88.8466ZM125.572 82.3409L124.579 82.4585L124.684 83.3409H125.572V82.3409ZM124.535 80.6647L123.987 81.5008L123.987 81.5008L124.535 80.6647ZM120.615 80.3807L120.219 79.4624L120.215 79.4639L120.615 80.3807ZM119.493 81.24L118.689 80.645L118.684 80.6519L119.493 81.24ZM119.372 83.4843L118.538 84.0358L118.543 84.044L118.549 84.0521L119.372 83.4843ZM120.096 84.1733L119.564 85.0198L119.574 85.0259L120.096 84.1733ZM121.02 84.6207L120.674 85.5594L120.687 85.5637L121.02 84.6207ZM121.907 84.8977L122.167 83.9321L122.162 83.9306L121.907 84.8977ZM123.385 85.2954L123.125 86.2611L123.131 86.2627L123.385 85.2954ZM124.649 85.7074L124.296 86.6429L124.299 86.6441L124.649 85.7074ZM125.991 86.4247L125.412 87.2397L125.422 87.2469L125.991 86.4247ZM127.056 87.5753L127.915 87.0633L127.915 87.0633L127.056 87.5753ZM126.858 91.4318L126.019 90.8872L126.016 90.8917L126.858 91.4318ZM125.068 92.9446L124.638 92.0416L124.636 92.0426L125.068 92.9446ZM119.514 93.0014L119.108 93.9154L119.11 93.9164L119.514 93.0014ZM117.724 91.5951L116.911 92.1776L116.914 92.1818L117.724 91.5951ZM116.993 89.5V88.5H115.919L115.995 89.5712L116.993 89.5ZM118.811 89.5L119.807 89.4141L119.728 88.5H118.811V89.5ZM119.365 90.8636L118.619 91.5305L118.629 91.5407L119.365 90.8636ZM120.601 91.6591L120.268 92.6023L120.279 92.6059L120.601 91.6591ZM124.031 91.588L124.408 92.5143L124.415 92.5114L124.031 91.588ZM125.302 90.6647L126.085 91.2871L126.089 91.2826L125.302 90.6647ZM125.366 88.0937L126.113 87.4286L126.113 87.4286L125.366 88.0937ZM124.301 87.3551L123.906 88.2737L123.906 88.2737L124.301 87.3551ZM122.873 86.8579L122.599 87.8195L122.606 87.8214L122.873 86.8579ZM121.083 86.3466L120.807 87.3076L120.809 87.3081L121.083 86.3466ZM118.385 84.9474L117.71 85.6854L117.71 85.6854L118.385 84.9474ZM118.051 80.4375L117.243 79.8486L117.242 79.8497L118.051 80.4375ZM119.841 79.017L120.25 79.9292L120.253 79.928L119.841 79.017ZM124.862 79.0099L124.443 79.9181L124.448 79.9203L124.862 79.0099ZM126.595 80.3735L125.79 80.9672L125.793 80.9714L126.595 80.3735ZM127.277 82.3409V83.3409H128.309L128.276 82.3086L127.277 82.3409ZM125.572 82.3409L126.565 82.2233C126.445 81.2101 125.937 80.3885 125.084 79.8287L124.535 80.6647L123.987 81.5008C124.346 81.7365 124.529 82.0322 124.579 82.4585L125.572 82.3409ZM124.535 80.6647L125.084 79.8287C124.283 79.3029 123.338 79.0682 122.305 79.0682V80.0682V81.0682C123.033 81.0682 123.576 81.2311 123.987 81.5008L124.535 80.6647ZM122.305 80.0682V79.0682C121.555 79.0682 120.851 79.1895 120.219 79.4624L120.615 80.3807L121.011 81.2989C121.344 81.1551 121.768 81.0682 122.305 81.0682V80.0682ZM120.615 80.3807L120.215 79.4639C119.601 79.7315 119.078 80.1197 118.689 80.645L119.493 81.24L120.296 81.835C120.447 81.6312 120.672 81.4464 121.014 81.2974L120.615 80.3807ZM119.493 81.24L118.684 80.6519C118.291 81.1926 118.095 81.8142 118.095 82.4829H119.095H120.095C120.095 82.2236 120.164 82.0166 120.301 81.8282L119.493 81.24ZM119.095 82.4829H118.095C118.095 83.0352 118.228 83.568 118.538 84.0358L119.372 83.4843L120.206 82.9329C120.146 82.842 120.095 82.7071 120.095 82.4829H119.095ZM119.372 83.4843L118.549 84.0521C118.818 84.4428 119.16 84.7658 119.564 85.0197L120.096 84.1733L120.629 83.3268C120.445 83.2114 120.304 83.0751 120.195 82.9166L119.372 83.4843ZM120.096 84.1733L119.574 85.0259C119.923 85.2401 120.29 85.4181 120.674 85.5593L121.02 84.6207L121.365 83.6821C121.105 83.5866 120.856 83.4663 120.619 83.3207L120.096 84.1733ZM121.02 84.6207L120.687 85.5637C121.029 85.6845 121.351 85.7855 121.653 85.8648L121.907 84.8977L122.162 83.9306C121.923 83.8679 121.654 83.7842 121.352 83.6777L121.02 84.6207ZM121.907 84.8977L121.647 85.8633L123.125 86.261L123.385 85.2954L123.645 84.3298L122.167 83.9321L121.907 84.8977ZM123.385 85.2954L123.131 86.2627C123.468 86.3513 123.856 86.4769 124.296 86.6429L124.649 85.7074L125.002 84.7718C124.514 84.5874 124.058 84.4384 123.638 84.3282L123.385 85.2954ZM124.649 85.7074L124.299 86.6441C124.682 86.7875 125.053 86.9847 125.412 87.2396L125.991 86.4247L126.571 85.6097C126.077 85.2586 125.553 84.9776 124.999 84.7706L124.649 85.7074ZM125.991 86.4247L125.422 87.2469C125.73 87.4603 125.988 87.7362 126.197 88.0872L127.056 87.5753L127.915 87.0633C127.566 86.4768 127.114 85.9856 126.56 85.6025L125.991 86.4247ZM127.056 87.5753L126.197 88.0872C126.364 88.3669 126.476 88.755 126.476 89.3011H127.476H128.476C128.476 88.4836 128.308 87.7211 127.915 87.0633L127.056 87.5753ZM127.476 89.3011H126.476C126.476 89.9018 126.321 90.4214 126.019 90.8872L126.858 91.4318L127.696 91.9763C128.218 91.1732 128.476 90.2724 128.476 89.3011H127.476ZM126.858 91.4318L126.016 90.8917C125.724 91.3461 125.282 91.7351 124.638 92.0416L125.068 92.9446L125.498 93.8475C126.425 93.406 127.176 92.7864 127.699 91.9719L126.858 91.4318ZM125.068 92.9446L124.636 92.0426C124.023 92.3362 123.23 92.5057 122.22 92.5057V93.5057V94.5057C123.445 94.5057 124.55 94.301 125.5 93.8465L125.068 92.9446ZM122.22 93.5057V92.5057C121.283 92.5057 120.525 92.3544 119.917 92.0864L119.514 93.0014L119.11 93.9164C120.027 94.3208 121.073 94.5057 122.22 94.5057V93.5057ZM119.514 93.0014L119.919 92.0873C119.304 91.8142 118.854 91.4508 118.534 91.0085L117.724 91.5951L116.914 92.1818C117.465 92.9421 118.209 93.5162 119.108 93.9154L119.514 93.0014ZM117.724 91.5951L118.537 91.0127C118.222 90.5732 118.035 90.0549 117.99 89.4287L116.993 89.5L115.995 89.5712C116.064 90.5359 116.364 91.4145 116.911 92.1776L117.724 91.5951ZM116.993 89.5V90.5H118.811V89.5V88.5H116.993V89.5ZM118.811 89.5L117.814 89.5859C117.878 90.3189 118.133 90.9869 118.619 91.5304L119.365 90.8636L120.11 90.1968C119.952 90.0207 119.839 89.7795 119.807 89.4141L118.811 89.5ZM119.365 90.8636L118.629 91.5407C119.076 92.027 119.631 92.3778 120.268 92.6022L120.601 91.6591L120.933 90.7159C120.575 90.5899 120.307 90.4104 120.101 90.1865L119.365 90.8636ZM120.601 91.6591L120.279 92.6059C120.893 92.8146 121.543 92.9147 122.22 92.9147V91.9147V90.9147C121.742 90.9147 121.312 90.8444 120.922 90.7122L120.601 91.6591ZM122.22 91.9147V92.9147C123.001 92.9147 123.735 92.7881 124.408 92.5142L124.031 91.588L123.654 90.6618C123.257 90.8236 122.784 90.9147 122.22 90.9147V91.9147ZM124.031 91.588L124.415 92.5114C125.082 92.234 125.652 91.8317 126.085 91.2871L125.302 90.6647L124.52 90.0423C124.328 90.2838 124.05 90.497 123.647 90.6647L124.031 91.588ZM125.302 90.6647L126.089 91.2826C126.547 90.6997 126.771 90.0154 126.771 89.2727H125.771H124.771C124.771 89.5906 124.683 89.8343 124.516 90.0469L125.302 90.6647ZM125.771 89.2727H126.771C126.771 88.5937 126.576 87.9485 126.113 87.4286L125.366 88.0937L124.619 88.7588C124.696 88.845 124.771 88.9858 124.771 89.2727H125.771ZM125.366 88.0937L126.113 87.4286C125.73 86.9984 125.246 86.6733 124.696 86.4364L124.301 87.3551L123.906 88.2737C124.236 88.4157 124.463 88.583 124.619 88.7588L125.366 88.0937ZM124.301 87.3551L124.696 86.4365C124.21 86.2275 123.691 86.0473 123.141 85.8944L122.873 86.8579L122.606 87.8214C123.078 87.9527 123.511 88.1039 123.906 88.2737L124.301 87.3551ZM122.873 86.8579L123.148 85.8964L121.358 85.385L121.083 86.3466L120.809 87.3081L122.599 87.8194L122.873 86.8579ZM121.083 86.3466L121.36 85.3855C120.327 85.0885 119.578 84.6838 119.059 84.2094L118.385 84.9474L117.71 85.6854C118.517 86.4232 119.568 86.9512 120.807 87.3076L121.083 86.3466ZM118.385 84.9474L119.059 84.2094C118.624 83.8113 118.39 83.2961 118.39 82.5682H117.39H116.39C116.39 83.8004 116.82 84.8714 117.71 85.6854L118.385 84.9474ZM117.39 82.5682H118.39C118.39 81.9455 118.555 81.4454 118.86 81.0253L118.051 80.4375L117.242 79.8497C116.666 80.6416 116.39 81.562 116.39 82.5682H117.39ZM118.051 80.4375L118.859 81.0264C119.193 80.568 119.647 80.2003 120.25 79.9292L119.841 79.017L119.431 78.1049C118.538 78.5061 117.799 79.0854 117.243 79.8486L118.051 80.4375ZM119.841 79.017L120.253 79.928C120.861 79.6526 121.559 79.5057 122.362 79.5057V78.5057V77.5057C121.309 77.5057 120.326 77.6996 119.428 78.1061L119.841 79.017ZM122.362 78.5057V79.5057C123.179 79.5057 123.866 79.6517 124.443 79.918L124.862 79.0099L125.281 78.1018C124.4 77.6958 123.42 77.5057 122.362 77.5057V78.5057ZM124.862 79.0099L124.448 79.9203C125.04 80.1895 125.476 80.542 125.79 80.9672L126.595 80.3735L127.4 79.7799C126.861 79.0497 126.142 78.4932 125.276 78.0995L124.862 79.0099ZM126.595 80.3735L125.793 80.9714C126.099 81.3819 126.26 81.8394 126.277 82.3731L127.277 82.3409L128.276 82.3086C128.246 81.3745 127.952 80.5205 127.396 79.7757L126.595 80.3735ZM127.277 82.3409V81.3409H125.572V82.3409V83.3409H127.277V82.3409ZM137.445 93.25V94.25H138.445V93.25H137.445ZM135.769 93.25H134.769V94.25H135.769V93.25ZM135.769 78.7045V77.7045H134.769V78.7045H135.769ZM137.445 78.7045H138.445V77.7045H137.445V78.7045ZM137.445 84.0454H136.445V85.0454H137.445V84.0454ZM137.587 84.0454V85.0454H138.232L138.498 84.4587L137.587 84.0454ZM138.738 82.7031L139.282 83.5422L139.284 83.541L138.738 82.7031ZM142.751 82.6463L142.28 83.5284L142.286 83.5315L142.751 82.6463ZM144.05 84.0028L143.157 84.4528L143.162 84.4611L144.05 84.0028ZM144.519 93.25V94.25H145.519V93.25H144.519ZM142.843 93.25H141.843V94.25H142.843V93.25ZM142.168 84.4218L141.436 85.1032L141.443 85.1106L142.168 84.4218ZM138.837 84.0525L138.367 83.1699L138.363 83.1721L138.837 84.0525ZM137.815 85.0682L136.944 84.577L136.94 84.5841L137.815 85.0682ZM137.445 86.6875H136.445V93.25H137.445H138.445V86.6875H137.445ZM137.445 93.25V92.25H135.769V93.25V94.25H137.445V93.25ZM135.769 93.25H136.769V78.7045H135.769H134.769V93.25H135.769ZM135.769 78.7045V79.7045H137.445V78.7045V77.7045H135.769V78.7045ZM137.445 78.7045H136.445V84.0454H137.445H138.445V78.7045H137.445ZM137.445 84.0454V85.0454H137.587V84.0454V83.0454H137.445V84.0454ZM137.587 84.0454L138.498 84.4587C138.676 84.0665 138.934 83.768 139.282 83.5422L138.738 82.7031L138.194 81.8639C137.52 82.3011 137.01 82.8975 136.677 83.6322L137.587 84.0454ZM138.738 82.7031L139.284 83.541C139.585 83.3444 140.061 83.1988 140.798 83.1988V82.1988V81.1988C139.82 81.1988 138.923 81.3894 138.192 81.8652L138.738 82.7031ZM140.798 82.1988V83.1988C141.405 83.1988 141.889 83.3199 142.28 83.5284L142.751 82.6463L143.222 81.7641C142.495 81.376 141.677 81.1988 140.798 81.1988V82.1988ZM142.751 82.6463L142.286 83.5315C142.644 83.7199 142.935 84.0117 143.157 84.4528L144.05 84.0028L144.943 83.5528C144.55 82.7723 143.975 82.1598 143.216 81.761L142.751 82.6463ZM144.05 84.0028L143.162 84.4611C143.379 84.8825 143.519 85.4834 143.519 86.3182H144.519H145.519C145.519 85.2779 145.347 84.3353 144.939 83.5445L144.05 84.0028ZM144.519 86.3182H143.519V93.25H144.519H145.519V86.3182H144.519ZM144.519 93.25V92.25H142.843V93.25V94.25H144.519V93.25ZM142.843 93.25H143.843V86.4318H142.843H141.843V93.25H142.843ZM142.843 86.4318H143.843C143.843 85.395 143.571 84.4466 142.893 83.7331L142.168 84.4218L141.443 85.1106C141.665 85.344 141.843 85.7356 141.843 86.4318H142.843ZM142.168 84.4218L142.9 83.7406C142.227 83.0171 141.32 82.7045 140.315 82.7045V83.7045V84.7045C140.891 84.7045 141.219 84.8701 141.436 85.1031L142.168 84.4218ZM140.315 83.7045V82.7045C139.62 82.7045 138.963 82.8524 138.367 83.1699L138.837 84.0525L139.307 84.9351C139.583 84.7886 139.911 84.7045 140.315 84.7045V83.7045ZM138.837 84.0525L138.363 83.1721C137.758 83.4978 137.283 83.9749 136.944 84.577L137.815 85.0682L138.686 85.5593C138.848 85.2713 139.055 85.0713 139.311 84.933L138.837 84.0525ZM137.815 85.0682L136.94 84.5841C136.594 85.2097 136.445 85.9249 136.445 86.6875H137.445H138.445C138.445 86.1811 138.543 85.8168 138.69 85.5522L137.815 85.0682ZM153.438 93.25H152.438V94.25H153.438V93.25ZM153.438 78.7045V77.7045H152.438V78.7045H153.438ZM162.216 78.7045H163.216V77.7045H162.216V78.7045ZM162.216 80.267V81.267H163.216V80.267H162.216ZM155.199 80.267V79.267H154.199V80.267H155.199ZM155.199 85.1818H154.199V86.1818H155.199V85.1818ZM161.762 85.1818H162.762V84.1818H161.762V85.1818ZM161.762 86.7443V87.7443H162.762V86.7443H161.762ZM155.199 86.7443V85.7443H154.199V86.7443H155.199ZM155.199 91.6875H154.199V92.6875H155.199V91.6875ZM162.33 91.6875H163.33V90.6875H162.33V91.6875ZM162.33 93.25V94.25H163.33V93.25H162.33ZM153.438 93.25H154.438V78.7045H153.438H152.438V93.25H153.438ZM153.438 78.7045V79.7045H162.216V78.7045V77.7045H153.438V78.7045ZM162.216 78.7045H161.216V80.267H162.216H163.216V78.7045H162.216ZM162.216 80.267V79.267H155.199V80.267V81.267H162.216V80.267ZM155.199 80.267H154.199V85.1818H155.199H156.199V80.267H155.199ZM155.199 85.1818V86.1818H161.762V85.1818V84.1818H155.199V85.1818ZM161.762 85.1818H160.762V86.7443H161.762H162.762V85.1818H161.762ZM161.762 86.7443V85.7443H155.199V86.7443V87.7443H161.762V86.7443ZM155.199 86.7443H154.199V91.6875H155.199H156.199V86.7443H155.199ZM155.199 91.6875V92.6875H162.33V91.6875V90.6875H155.199V91.6875ZM162.33 91.6875H161.33V93.25H162.33H163.33V91.6875H162.33ZM162.33 93.25V92.25H153.438V93.25V94.25H162.33V93.25Z" fill="white" mask="url(#path-2-outside-1_392_20)"/>
<path d="M149.293 39.5312C149.032 39.5312 148.902 39.4557 148.902 39.3047C148.902 39.1537 149.015 39.0713 149.241 39.0576L150.415 38.9134C150.763 38.8722 150.998 38.8036 151.12 38.7075C151.242 38.5976 151.303 38.3985 151.303 38.1102V25.7534C151.303 25.5612 151.25 25.4239 151.146 25.3415C151.042 25.2591 150.824 25.2179 150.494 25.2179C149.85 25.2179 149.215 25.4376 148.589 25.877C147.962 26.3163 147.554 27.0234 147.362 27.9982L147.232 28.6778C147.197 28.8563 147.075 28.9456 146.867 28.9456C146.606 28.9456 146.492 28.8289 146.527 28.5955L146.762 24.8678C146.797 24.552 146.954 24.3941 147.232 24.3941C147.354 24.3941 147.467 24.4216 147.571 24.4765C147.675 24.5177 147.849 24.5658 148.093 24.6207C148.354 24.6756 148.763 24.7031 149.319 24.7031H155.139C155.695 24.7031 156.095 24.6756 156.339 24.6207C156.6 24.5658 156.782 24.5177 156.887 24.4765C157.009 24.4216 157.122 24.3941 157.226 24.3941C157.504 24.3941 157.661 24.552 157.696 24.8678L157.931 28.5955C157.965 28.8289 157.852 28.9456 157.591 28.9456C157.383 28.9456 157.261 28.8563 157.226 28.6778L157.096 27.9982C156.922 27.0234 156.522 26.3163 155.895 25.877C155.269 25.4376 154.625 25.2179 153.964 25.2179C153.634 25.2179 153.416 25.2591 153.312 25.3415C153.208 25.4239 153.155 25.5612 153.155 25.7534V38.1102C153.155 38.3985 153.216 38.5976 153.338 38.7075C153.477 38.8036 153.712 38.8722 154.043 38.9134L155.217 39.0576C155.443 39.0713 155.556 39.1537 155.556 39.3047C155.556 39.4557 155.426 39.5312 155.165 39.5312H149.293Z" fill="black"/>
<path d="M140.593 39.7166C140.245 39.7166 139.854 39.6891 139.419 39.6342C139.001 39.5793 138.601 39.5107 138.218 39.4283C137.853 39.3459 137.566 39.2566 137.357 39.1605C137.235 39.1056 137.14 39.0507 137.07 38.9958C137.018 38.9271 136.992 38.8173 136.992 38.6663L136.861 35.4329C136.861 35.1583 136.975 35.021 137.201 35.021C137.392 35.021 137.523 35.1446 137.592 35.3917L137.827 36.1743C138.418 38.1377 139.523 39.1194 141.141 39.1194C142.011 39.1194 142.698 38.8928 143.202 38.4397C143.724 37.9729 143.985 37.3208 143.985 36.4832C143.985 35.6732 143.716 34.918 143.176 34.2178C142.654 33.5176 141.811 32.8242 140.645 32.1378C139.358 31.4101 138.418 30.7099 137.827 30.0371C137.236 29.3506 136.94 28.6229 136.94 27.8541C136.94 26.8381 137.383 26.028 138.271 25.4239C139.175 24.8061 140.323 24.4971 141.715 24.4971C142.237 24.4971 142.741 24.5452 143.229 24.6413C143.716 24.7374 144.116 24.8747 144.429 25.0532C144.533 25.1081 144.612 25.1699 144.664 25.2385C144.733 25.3072 144.768 25.3964 144.768 25.5063L144.846 28.6161C144.846 28.8495 144.733 28.9662 144.507 28.9662C144.351 28.9662 144.238 28.8701 144.168 28.6779L143.985 28.163C143.603 27.1058 143.202 26.3369 142.785 25.8564C142.385 25.3621 141.802 25.115 141.037 25.115C140.289 25.115 139.688 25.3072 139.236 25.6916C138.801 26.0761 138.584 26.6184 138.584 27.3186C138.584 27.909 138.827 28.4719 139.314 29.0074C139.801 29.5428 140.654 30.195 141.872 30.9639C143.176 31.8014 144.124 32.6114 144.716 33.394C145.325 34.1629 145.629 34.9867 145.629 35.8654C145.629 36.6343 145.412 37.307 144.977 37.8837C144.542 38.4603 143.942 38.9134 143.176 39.2429C142.428 39.5587 141.567 39.7166 140.593 39.7166Z" fill="black"/>
<path d="M124.855 39.5312C124.594 39.5312 124.463 39.4557 124.463 39.3047C124.463 39.1811 124.576 39.0987 124.803 39.0576L125.403 38.9752C125.768 38.9203 126.003 38.8447 126.107 38.7486C126.229 38.6525 126.29 38.4603 126.29 38.172V26.0623C126.29 25.774 126.229 25.5818 126.107 25.4857C126.003 25.3896 125.768 25.314 125.403 25.2591L124.803 25.1767C124.576 25.1356 124.463 25.0532 124.463 24.9296C124.463 24.7786 124.594 24.7031 124.855 24.7031H133.622C134.023 24.7031 134.24 24.861 134.275 25.1767L134.484 28.5955C134.518 28.8289 134.405 28.9456 134.144 28.9456C133.936 28.9456 133.814 28.8563 133.779 28.6778L133.622 27.9158C133.431 26.9822 133.04 26.3026 132.448 25.877C131.857 25.4376 131.039 25.2179 129.995 25.2179C129.299 25.2179 128.812 25.3003 128.534 25.4651C128.273 25.6161 128.143 25.8907 128.143 26.2889V31.2522C128.143 31.4444 128.264 31.5405 128.508 31.5405H129.813C130.578 31.5405 131.048 31.2178 131.222 30.5725L131.483 29.5428C131.552 29.3369 131.7 29.2476 131.926 29.2751C132.118 29.3025 132.213 29.4192 132.213 29.6252V34.259C132.213 34.4649 132.118 34.5816 131.926 34.6091C131.7 34.6366 131.552 34.5473 131.483 34.3414L131.222 33.3322C131.1 32.8517 130.926 32.5359 130.7 32.3849C130.491 32.2339 130.187 32.1583 129.787 32.1583H128.508C128.264 32.1583 128.143 32.2544 128.143 32.4467V37.6159C128.143 38.1102 128.299 38.4672 128.612 38.6869C128.943 38.9065 129.534 39.0164 130.387 39.0164C131.257 39.0164 131.996 38.8447 132.605 38.5015C133.231 38.1445 133.666 37.4855 133.91 36.5244L134.223 35.3093C134.275 35.1308 134.405 35.0416 134.614 35.0416C134.858 35.0416 134.962 35.1583 134.927 35.3917L134.666 39.0576C134.631 39.3733 134.414 39.5312 134.014 39.5312H124.855Z" fill="black"/>
<path d="M117.153 39.7166C116.214 39.7166 115.379 39.545 114.648 39.2017C113.935 38.8447 113.378 38.3573 112.978 37.7395C112.578 37.1079 112.378 36.3871 112.378 35.5771V26.0623C112.378 25.774 112.317 25.5818 112.195 25.4857C112.091 25.3896 111.856 25.314 111.491 25.2591L110.891 25.1767C110.664 25.1356 110.551 25.0532 110.551 24.9296C110.551 24.7786 110.682 24.7031 110.943 24.7031H115.718C115.979 24.7031 116.11 24.7854 116.11 24.9502C116.11 25.0738 116.014 25.1493 115.822 25.1767L115.118 25.2591C114.77 25.3003 114.535 25.3758 114.413 25.4857C114.292 25.5955 114.231 25.7946 114.231 26.0829V35.5976C114.231 36.6411 114.526 37.4512 115.118 38.0278C115.709 38.6045 116.536 38.8928 117.597 38.8928C118.676 38.8928 119.511 38.6045 120.102 38.0278C120.693 37.4512 120.989 36.6411 120.989 35.5976V26.4948C120.989 25.7534 120.693 25.3415 120.102 25.2591L119.397 25.1767C119.206 25.1493 119.11 25.0738 119.11 24.9502C119.11 24.7854 119.241 24.7031 119.502 24.7031H123.259C123.52 24.7031 123.651 24.7786 123.651 24.9296C123.651 25.0532 123.538 25.1356 123.312 25.1767L122.711 25.2591C122.12 25.3415 121.824 25.7465 121.824 26.4742V35.5771C121.824 36.8265 121.398 37.8287 120.546 38.5839C119.693 39.339 118.562 39.7166 117.153 39.7166Z" fill="black"/>
<path d="M93.1332 9.54534C94.0275 8.53419 95.0997 8.23431 96.0487 8.44396C96.888 8.62942 97.6001 9.20931 97.9631 9.97549C98.7823 9.24459 99.5764 9.04022 100.308 9.22506C100.981 9.39502 101.532 9.87982 101.953 10.42C103.146 9.19341 104.383 8.91995 105.453 9.19565C106.473 9.45855 107.287 10.2079 107.723 10.9627C108.966 10.7401 109.767 10.9704 110.189 11.5354C110.562 12.0359 110.554 12.6963 110.434 13.2263C110.962 13.6262 111.307 14.0188 111.492 14.4059C111.702 14.8467 111.696 15.2673 111.533 15.6365C111.376 15.9927 111.084 16.2749 110.767 16.4867C110.539 16.6384 110.288 16.7608 110.037 16.854C110.211 17.4805 110.22 18.0182 110.081 18.4685C109.919 18.9962 109.567 19.3666 109.129 19.6018C108.362 20.0145 107.323 20.021 106.453 19.7994C106.227 20.3396 105.946 20.7593 105.604 21.0595C105.203 21.4126 104.737 21.5859 104.231 21.6095C103.298 21.6531 102.248 21.1885 101.177 20.4863C98.7282 22.3689 95.8567 22.8534 93.8183 22.8534C91.9521 22.8534 90.3854 22.8629 88.6704 22.8678C86.9344 22.8727 85.0489 22.8729 82.5531 22.8534L82.5581 22.2305C85.0511 22.2499 86.9343 22.2497 88.6686 22.2448C89.6687 22.242 90.6201 22.2377 91.6105 22.2345C91.9897 22.6169 92.5153 22.8537 93.0963 22.8537C93.6918 22.8537 94.2286 22.6044 94.6097 22.2051C96.5198 22.0849 98.922 21.5043 100.967 19.8595L101.146 19.715L101.337 19.8444C102.456 20.6046 103.43 21.0234 104.201 20.9873C104.575 20.9699 104.904 20.8458 105.193 20.5916C105.487 20.3331 105.755 19.9255 105.972 19.317L106.074 19.0314L106.362 19.1257C107.185 19.3947 108.183 19.4033 108.834 19.053C109.149 18.8838 109.378 18.6346 109.486 18.2855C109.595 17.9296 109.589 17.433 109.355 16.7557L109.247 16.4438L109.565 16.3543C109.857 16.272 110.163 16.1403 110.421 15.9686C110.681 15.7953 110.87 15.5952 110.963 15.3849C111.05 15.1874 111.064 14.9566 110.929 14.6739C110.789 14.3787 110.481 14.0182 109.9 13.6065L109.718 13.4772L109.781 13.2633C109.93 12.7645 109.935 12.2368 109.69 11.9083C109.466 11.6084 108.921 11.3389 107.623 11.6174L107.384 11.6687L107.277 11.4487C106.945 10.7622 106.209 10.0336 105.297 9.79876C104.418 9.57215 103.308 9.78909 102.161 11.1151L101.894 11.4233L101.667 11.0849C101.255 10.4715 100.735 9.97541 100.156 9.82892C99.6095 9.69102 98.9107 9.84155 98.0644 10.7485L97.6763 11.1646L97.535 10.6133C97.3375 9.8426 96.6954 9.22493 95.9145 9.05235C95.1536 8.88421 94.2156 9.1321 93.4085 10.1907L93.1805 10.4901L92.9291 10.21C92.5754 9.81597 92.0074 9.53603 91.4765 9.59939C90.9808 9.6586 90.4073 10.0339 90.0508 11.1857L89.9902 11.3821L89.7861 11.4034C88.99 11.4874 88.5832 11.8186 88.4497 12.169C88.3154 12.5215 88.4054 13.0297 88.9012 13.5811L89.0772 13.7767L88.9137 13.9828C88.6218 14.3515 88.3181 14.9016 88.282 15.3766C88.2647 15.6041 88.3097 15.7942 88.4258 15.9465C88.5432 16.1004 88.7632 16.2552 89.1714 16.351L89.0291 16.9574C88.5268 16.8395 88.1607 16.6262 87.9305 16.3243C87.6991 16.0209 87.6351 15.6673 87.6608 15.3293C87.7031 14.7734 87.9906 14.2084 88.2739 13.8005C87.81 13.1971 87.6451 12.5316 87.8677 11.9472C88.0973 11.3445 88.6945 10.9445 89.5191 10.8109C89.9326 9.63738 90.6273 9.07351 91.4029 8.98095C92.0498 8.90376 92.6789 9.16658 93.1332 9.54534Z" fill="black"/>
<path d="M69.3749 39.3047C69.3749 39.4557 69.5054 39.5312 69.7663 39.5312H75.6376C75.8985 39.5312 76.029 39.4557 76.029 39.3047C76.029 39.1537 75.9159 39.0713 75.6898 39.0576L74.5155 38.9134C74.185 38.8722 73.9501 38.8036 73.811 38.7074C73.6892 38.5976 73.6283 38.3985 73.6283 38.1102V33.0851C73.6283 32.8654 73.6544 32.6732 73.7066 32.5084C73.7588 32.33 73.8458 32.1446 73.9675 31.9524L77.3859 26.536C77.6817 26.0829 77.9165 25.7603 78.0905 25.568C79.2598 24.276 80.9527 22.9282 82.5531 22.8534L82.5581 22.2305C78.9664 21.8874 77.4156 25.0447 76.5248 26.5154L73.4457 31.4787C73.3761 31.5748 73.2891 31.6229 73.1847 31.6229C73.0803 31.6229 72.9933 31.5748 72.9238 31.4787L69.7141 26.0829C69.5402 25.7946 69.5141 25.5818 69.6358 25.4445C69.7576 25.3072 69.9664 25.2317 70.2621 25.2179L70.7579 25.1767C71.0536 25.163 71.2015 25.0806 71.2015 24.9296C71.2015 24.7786 71.0797 24.7031 70.8362 24.7031H66.374C66.1131 24.7031 65.9826 24.7717 65.9826 24.909C65.9826 25.0463 66.1044 25.1355 66.3479 25.1767L66.5828 25.2179C66.8785 25.2729 67.1047 25.3621 67.2612 25.4857C67.4178 25.6092 67.557 25.7877 67.6787 26.0211L71.5146 32.3643C71.6886 32.6526 71.7756 32.9478 71.7756 33.2499V38.1102C71.7756 38.3985 71.7147 38.5976 71.5929 38.7074C71.4712 38.8036 71.2363 38.8722 70.8884 38.9134L69.7141 39.0576C69.488 39.0713 69.3749 39.1537 69.3749 39.3047Z" fill="black"/>
<path d="M64.1409 39.7166C63.8625 39.7166 63.6277 39.5518 63.4363 39.2223L56.3647 27.1126C56.3125 27.0165 56.2429 26.9753 56.1559 26.9891C56.0864 27.0028 56.0516 27.0646 56.0516 27.1744V37.7601C56.0516 38.1445 56.1298 38.4397 56.2864 38.6457C56.4604 38.8379 56.7648 38.9614 57.1997 39.0164L57.539 39.0576C57.7651 39.0713 57.8782 39.1537 57.8782 39.3047C57.8782 39.4557 57.7477 39.5312 57.4868 39.5312H53.7552C53.4943 39.5312 53.3638 39.4557 53.3638 39.3047C53.3638 39.1537 53.4769 39.0713 53.703 39.0576L54.0423 39.0164C54.4946 38.9614 54.8077 38.8379 54.9817 38.6457C55.1556 38.4397 55.2426 38.1445 55.2426 37.7601V26.0623C55.2426 25.774 55.1817 25.5818 55.06 25.4857C54.9556 25.3896 54.7033 25.314 54.3032 25.2591L53.703 25.1767C53.4769 25.1356 53.3638 25.0532 53.3638 24.9296C53.3638 24.7786 53.4943 24.7031 53.7552 24.7031H56.5474C56.9823 24.7031 57.2867 24.8541 57.4607 25.1561L63.619 35.8448C63.6712 35.9272 63.7321 35.9615 63.8017 35.9478C63.8886 35.934 63.9321 35.886 63.9321 35.8036V26.4742C63.9321 26.0349 63.8365 25.7328 63.6451 25.568C63.4537 25.3896 63.2102 25.2797 62.9144 25.2385L62.4447 25.1767C62.2186 25.1356 62.1055 25.0532 62.1055 24.9296C62.1055 24.7786 62.236 24.7031 62.4969 24.7031H66.2285C66.4894 24.7031 66.6199 24.7786 66.6199 24.9296C66.6199 25.0806 66.5068 25.163 66.2807 25.1767L65.9414 25.2179C65.4891 25.2728 65.176 25.3896 65.002 25.568C64.828 25.7328 64.7411 26.0349 64.7411 26.4742V39.0576C64.7411 39.3047 64.6802 39.4763 64.5584 39.5724C64.454 39.6685 64.3149 39.7166 64.1409 39.7166Z" fill="black"/>
<path fill-rule="evenodd" clip-rule="evenodd" d="M82.0656 38.7692C83.0398 39.4008 84.2315 39.7166 85.6406 39.7166C86.3539 39.7166 86.9801 39.6617 87.5194 39.5518C88.0587 39.4557 88.5371 39.3253 88.9546 39.1605C89.2156 39.0507 89.3982 38.9546 89.5026 38.8722C89.607 38.7761 89.6592 38.6525 89.6592 38.5015V32.9204C89.6592 32.632 89.694 32.4261 89.7636 32.3025C89.4351 32.3025 88.891 32.1915 88.3732 32.0859C88.0899 32.0281 87.8144 31.9719 87.5865 31.9364C86.8398 31.8201 86.5277 31.8795 86.9192 32.0966C87.2846 32.124 87.5194 32.1927 87.6238 32.3025C87.7456 32.4124 87.8065 32.6114 87.8065 32.8998V37.41C87.8065 38.0828 87.6238 38.5427 87.2585 38.7898C86.8931 39.037 86.3539 39.1605 85.6406 39.1605C84.3185 39.1605 83.2312 38.5564 82.3788 37.3482C81.5437 36.1263 81.1262 34.3551 81.1262 32.0348C81.1262 29.7831 81.535 28.0669 82.3527 26.8861C83.1877 25.6916 84.2402 25.0944 85.5101 25.0944C86.3626 25.0944 87.0323 25.3072 87.5194 25.7328C88.0065 26.1584 88.4414 26.941 88.8241 28.0806L89.0329 28.6984C89.0851 28.8769 89.2069 28.9662 89.3982 28.9662C89.607 28.9662 89.7114 28.8495 89.7114 28.6161L89.6331 25.4857C89.6331 25.2935 89.52 25.1493 89.2938 25.0532C88.8763 24.8884 88.3892 24.758 87.8325 24.6619C87.2759 24.552 86.6583 24.4971 85.9798 24.4971C84.6403 24.4971 83.4487 24.8129 82.4049 25.4445C81.3785 26.0623 80.5695 26.941 79.9781 28.0806C79.3866 29.2064 79.0909 30.5245 79.0909 32.0348C79.0909 33.6 79.3431 34.9592 79.8476 36.1125C80.3521 37.2521 81.0914 38.1377 82.0656 38.7692Z" fill="black"/>
<path fill-rule="evenodd" clip-rule="evenodd" d="M100.342 37.573C100.938 38.4715 101.699 38.9886 102.625 39.1243C102.716 39.3361 103.08 39.7744 103.079 39.8428C102.879 39.7763 102.467 39.7152 102.254 39.657C102.118 39.6196 101.989 39.5844 101.882 39.5518C100.977 39.3184 100.16 38.8516 99.4292 38.1514C99.1389 37.8608 98.8731 37.543 98.6318 37.1978C99.1195 37.3452 100.144 37.6266 100.342 37.573ZM99.1943 32.0966C99.1943 34.0188 99.4222 35.5454 99.8779 36.6763C99.7347 36.668 98.5323 36.2302 97.9489 36.0124C97.873 35.8511 97.8011 35.6854 97.733 35.5153C97.3329 34.4718 97.1328 33.3322 97.1328 32.0966C97.1328 31.0256 97.2807 30.0302 97.5764 29.1103C97.8896 28.1904 98.3158 27.3873 98.8551 26.7008C99.4118 26.0005 100.055 25.4582 100.786 25.0738C101.517 24.6893 102.3 24.4971 103.135 24.4971C103.97 24.4971 104.744 24.6893 105.457 25.0738C106.188 25.4582 106.831 26.0005 107.388 26.7008C107.945 27.3873 108.371 28.1904 108.667 29.1103C108.98 30.0302 109.136 31.0256 109.136 32.0966C109.136 33.3597 108.919 34.5267 108.484 35.5977C108.066 36.6549 107.484 37.5336 106.736 38.2338C106.145 38.7998 105.486 39.2043 104.759 39.4474C104.618 39.3138 104.331 39.0283 104.31 38.9548C105 38.6918 105.574 38.1769 106.031 37.41C106.727 36.243 107.075 34.4718 107.075 32.0966C107.075 29.7213 106.727 27.957 106.031 26.8037C105.335 25.6367 104.37 25.0532 103.135 25.0532C101.917 25.0532 100.951 25.6367 100.238 26.8037C99.5422 27.957 99.1943 29.7213 99.1943 32.0966Z" fill="black"/>
<path d="M84.5915 32.9204C85.0245 32.4535 86.3889 31.4977 88.1044 31.6954C90.2488 31.9425 95.7634 35.4998 97.4748 36.4543C97.7139 36.5877 98.031 36.7222 98.4005 36.8466C98.9098 37.018 99.5185 37.17 100.16 37.273C100.656 37.3527 101.172 37.403 101.676 37.41C101.738 37.4109 101.8 37.4112 101.861 37.4111C101.774 37.308 101.684 37.2043 101.592 37.0996C101.026 37.1015 100.485 37.031 99.9829 36.9209C99.2535 36.7611 98.607 36.5178 98.0869 36.2923C97.8568 36.1926 97.6515 36.0964 97.4748 36.0124C96.1455 35.3808 90.9659 31.9249 88.6344 31.5405C86.7693 31.233 84.9621 32.2796 84.5915 32.9204Z" fill="black"/>
<path d="M102.536 37.3876C102.455 37.2847 102.369 37.1747 102.279 37.0606C102.047 37.0865 101.818 37.0988 101.592 37.0996C101.684 37.2043 101.774 37.308 101.861 37.4111C102.095 37.4107 102.32 37.403 102.536 37.3876Z" fill="black"/>
<path d="M103.949 39.0668C103.692 39.1293 103.42 39.1605 103.135 39.1605C103.097 39.1605 103.059 39.16 103.022 39.1588C103.084 39.3229 103.134 39.346 103.27 39.5803C103.406 39.8146 103.838 40.3769 104.014 40.7597C104.358 41.5065 104.799 42.0586 105.338 42.4157C105.877 42.7729 106.448 42.9933 107.049 43.0768C107.671 43.1716 108.239 43.1831 108.753 43.1116C109.352 43.0282 109.836 42.8982 110.202 42.7217C110.589 42.5563 110.902 42.3734 111.14 42.173C111.256 42.0593 111.303 41.9551 111.282 41.8604C111.258 41.7523 111.183 41.693 111.057 41.6826C110.931 41.6723 110.807 41.7105 110.685 41.7971C110.211 42.1279 109.76 42.2789 109.203 42.4006C108.606 42.5312 108.173 42.6458 107.323 42.4006C106.473 42.1555 106.106 41.834 105.623 41.0927C105.217 40.4712 104.569 39.7362 103.949 39.0668Z" fill="black"/>
<path fill-rule="evenodd" clip-rule="evenodd" d="M106.752 31.8804C107.147 32.9702 107.109 33.9372 106.151 35.444C106.05 35.6028 105.925 35.7546 105.795 35.8906C105.565 36.1318 105.32 36.3232 105.17 36.4158C104.644 36.7401 104.475 36.8216 104.143 36.9634C103.519 37.2304 102.951 37.3582 102.536 37.3876C102.455 37.2847 102.369 37.1747 102.279 37.0606C102.561 37.0293 102.846 36.9782 103.135 36.9035C103.645 36.7712 104.257 36.4328 104.644 36.1649C104.918 35.9751 105.197 35.6271 105.218 35.5977C105.914 34.6467 106.333 33.6328 106.124 32.6989C106.055 32.3924 105.781 31.9858 105.346 31.9338C104.858 31.8757 104.085 32.1251 103.437 32.8998C102.848 31.9364 101.882 31.4737 100.905 31.7671C100.675 31.8359 100.348 32.2842 100.238 32.7646C100.11 33.3272 100.222 34.3724 100.905 35.3893C101.054 35.6115 101.33 35.9327 101.622 36.2732C101.811 36.4932 102.007 36.7212 102.18 36.9359C102.141 36.9479 101.693 36.9612 101.475 36.9663C101.426 36.9114 101.375 36.8544 101.322 36.7957C101.061 36.5031 100.765 36.1721 100.543 35.8906C100.502 35.8388 100.462 35.7881 100.422 35.738C99.7306 34.8687 99.2071 34.2106 99.4292 32.3693C99.5285 31.5457 100.177 31.0336 100.967 30.9198C101.927 30.7814 103.062 31.2224 103.54 32.3025C103.819 31.6814 104.646 31.0989 105.482 31.1078C105.946 31.1127 106.576 31.3933 106.752 31.8804Z" fill="black"/>
<path fill-rule="evenodd" clip-rule="evenodd" d="M103.949 39.0668C103.692 39.1293 103.42 39.1605 103.135 39.1605C103.097 39.1605 103.059 39.16 103.022 39.1588C102.901 38.8411 102.779 38.6665 102.551 38.341C102.483 38.2442 102.406 38.134 102.316 38.0028C102.219 37.8592 102.11 37.7164 101.994 37.573C102.193 37.565 102.602 37.5447 102.647 37.5277C102.719 37.6199 102.786 37.7041 102.844 37.7776C102.919 37.8722 102.98 37.9491 103.022 38.0028C103.368 38.4439 103.693 38.7924 103.882 38.9955C103.907 39.0217 103.929 39.0455 103.949 39.0668Z" fill="black"/>
<circle cx="90.6827" cy="24.2582" r="1" stroke="black" stroke-width="0.505019"/>
<circle cx="90.6827" cy="24.2582" r="1" stroke="black" stroke-width="0.505019"/>
<path d="M94.4527 20.7614C94.4527 20.0122 93.8455 19.4048 93.0964 19.4048C92.3472 19.4048 91.7398 20.0122 91.7398 20.7614C91.7398 21.5105 92.3472 22.1177 93.0964 22.1177V22.6325L93.0001 22.6303C92.0432 22.5818 91.276 21.8145 91.2274 20.8576L91.2249 20.7614C91.2249 19.7278 92.0628 18.8899 93.0964 18.8899L93.1926 18.8925C94.1814 18.9426 94.9675 19.7602 94.9675 20.7614L94.9653 20.8576C94.9151 21.8464 94.0975 22.6325 93.0964 22.6325V22.1177C93.8454 22.1176 94.4526 21.5105 94.4527 20.7614Z" fill="black"/>
<path d="M94.4527 20.7614C94.4527 20.0122 93.8455 19.4048 93.0964 19.4048C92.3472 19.4048 91.7398 20.0122 91.7398 20.7614C91.7398 21.5105 92.3472 22.1177 93.0964 22.1177V22.6325L93.0001 22.6303C92.0432 22.5818 91.276 21.8145 91.2274 20.8576L91.2249 20.7614C91.2249 19.7278 92.0628 18.8899 93.0964 18.8899L93.1926 18.8925C94.1814 18.9426 94.9675 19.7602 94.9675 20.7614L94.9653 20.8576C94.9151 21.8464 94.0975 22.6325 93.0964 22.6325V22.1177C93.8454 22.1176 94.4526 21.5105 94.4527 20.7614Z" fill="black"/>
<path d="M39.4695 66.1463C38.532 66.1463 37.6963 65.9853 36.9624 65.6634C36.2332 65.3414 35.6532 64.8939 35.2223 64.321C34.7962 63.7434 34.5642 63.0734 34.5263 62.3111H36.3161C36.3539 62.7798 36.5149 63.1847 36.799 63.5256C37.0831 63.8617 37.4548 64.1222 37.9141 64.3068C38.3734 64.4915 38.8823 64.5838 39.4411 64.5838C40.0661 64.5838 40.62 64.4749 41.103 64.2571C41.5859 64.0393 41.9647 63.7363 42.2394 63.348C42.514 62.9598 42.6513 62.5099 42.6513 61.9986C42.6513 61.4635 42.5187 60.9924 42.2536 60.5852C41.9884 60.1733 41.6001 59.8513 41.0888 59.6193C40.5774 59.3873 39.9524 59.2713 39.2138 59.2713H38.049V57.7088H39.2138C39.7914 57.7088 40.2981 57.6046 40.7337 57.3963C41.174 57.188 41.5173 56.8944 41.7635 56.5156C42.0144 56.1368 42.1399 55.6918 42.1399 55.1804C42.1399 54.688 42.031 54.2595 41.8132 53.8949C41.5954 53.5303 41.2876 53.2462 40.8899 53.0426C40.4969 52.839 40.0329 52.7372 39.4979 52.7372C38.996 52.7372 38.5225 52.8296 38.0774 53.0142C37.6371 53.1941 37.2772 53.4569 36.9979 53.8026C36.7185 54.1435 36.567 54.5554 36.5433 55.0384H34.8388C34.8672 54.276 35.0968 53.6084 35.5277 53.0355C35.9586 52.4579 36.522 52.0081 37.218 51.6861C37.9188 51.3641 38.6882 51.2031 39.5263 51.2031C40.4259 51.2031 41.1977 51.3854 41.8416 51.75C42.4856 52.1099 42.9804 52.5857 43.326 53.1776C43.6716 53.7694 43.8445 54.4086 43.8445 55.0952C43.8445 55.9143 43.629 56.6127 43.1982 57.1903C42.772 57.768 42.192 58.1681 41.4581 58.3906V58.5043C42.3767 58.6558 43.094 59.0464 43.6101 59.6761C44.1262 60.3011 44.3842 61.0753 44.3842 61.9986C44.3842 62.7893 44.1688 63.4995 43.7379 64.1293C43.3118 64.7543 42.7294 65.2467 41.9908 65.6065C41.2521 65.9664 40.4117 66.1463 39.4695 66.1463ZM39.4553 72.3395C37.9448 72.3395 36.5055 72.1099 35.1371 71.6506C33.7734 71.1913 32.5211 70.5426 31.38 69.7046C30.2436 68.8712 29.2564 67.884 28.4183 66.7429C27.585 65.6065 26.9387 64.3565 26.4794 62.9929C26.0201 61.6245 25.7905 60.1851 25.7905 58.6747C25.7905 57.1643 26.0201 55.7273 26.4794 54.3636C26.9387 52.9953 27.585 51.7429 28.4183 50.6065C29.2564 49.4654 30.2436 48.4782 31.38 47.6449C32.5211 46.8068 33.7734 46.1581 35.1371 45.6989C36.5055 45.2396 37.9448 45.0099 39.4553 45.0099C40.9657 45.0099 42.4027 45.2396 43.7663 45.6989C45.1347 46.1581 46.3871 46.8068 47.5234 47.6449C48.6645 48.4782 49.6518 49.4654 50.4851 50.6065C51.3232 51.7429 51.9718 52.9953 52.4311 54.3636C52.8904 55.7273 53.12 57.1643 53.12 58.6747C53.12 60.1851 52.8904 61.6245 52.4311 62.9929C51.9718 64.3565 51.3232 65.6065 50.4851 66.7429C49.6518 67.884 48.6645 68.8712 47.5234 69.7046C46.3871 70.5426 45.1347 71.1913 43.7663 71.6506C42.4027 72.1099 40.9657 72.3395 39.4553 72.3395ZM39.4553 70.6918C40.7858 70.6918 42.05 70.4882 43.2479 70.081C44.4505 69.6785 45.5514 69.108 46.5504 68.3693C47.5542 67.6354 48.4231 66.7689 49.157 65.7699C49.8956 64.7661 50.4662 63.6653 50.8686 62.4673C51.2711 61.2647 51.4723 60.0005 51.4723 58.6747C51.4723 57.3442 51.2711 56.08 50.8686 54.8821C50.4662 53.6795 49.8956 52.5786 49.157 51.5796C48.4231 50.5758 47.5542 49.7069 46.5504 48.973C45.5514 48.2344 44.4505 47.6638 43.2479 47.2614C42.05 46.8589 40.7858 46.6577 39.4553 46.6577C38.1248 46.6577 36.8582 46.8589 35.6555 47.2614C34.4576 47.6638 33.3568 48.2344 32.353 48.973C31.3539 49.7069 30.4851 50.5758 29.7465 51.5796C29.0126 52.5786 28.4444 53.6795 28.0419 54.8821C27.6394 56.08 27.4382 57.3442 27.4382 58.6747C27.4382 60.0005 27.6394 61.2647 28.0419 62.4673C28.4444 63.6653 29.0126 64.7661 29.7465 65.7699C30.4851 66.7689 31.3539 67.6354 32.353 68.3693C33.3568 69.108 34.4576 69.6785 35.6555 70.081C36.8582 70.4882 38.1248 70.6918 39.4553 70.6918ZM59.7362 50.5674C59.7095 50.7941 59.6829 51.0541 59.6562 51.3474C59.6295 51.6274 59.6162 51.9074 59.6162 52.1874C59.6162 52.3608 59.6162 52.7074 59.6162 53.2274C59.6162 53.7341 59.6162 54.3474 59.6162 55.0674C59.6162 55.7741 59.6162 56.5274 59.6162 57.3274C59.6162 58.1141 59.6162 58.8741 59.6162 59.6074C59.6162 60.3408 59.6162 60.9874 59.6162 61.5474C59.6162 62.0941 59.6162 62.4941 59.6162 62.7474C59.6162 63.2541 59.7295 63.6074 59.9562 63.8074C60.1829 63.9941 60.5362 64.1341 61.0162 64.2274C61.3362 64.2808 61.7362 64.3208 62.2162 64.3474C62.6962 64.3741 63.1829 64.3874 63.6762 64.3874C64.1962 64.3874 64.7629 64.3741 65.3762 64.3474C66.0029 64.3208 66.6295 64.2808 67.2562 64.2274C67.8829 64.1741 68.4762 64.1074 69.0362 64.0274C69.6095 63.9474 70.1029 63.8541 70.5162 63.7474V65.5674C69.9429 65.6608 69.2495 65.7408 68.4362 65.8074C67.6362 65.8608 66.8095 65.9074 65.9562 65.9474C65.1029 65.9741 64.3162 65.9874 63.5962 65.9874C62.9962 65.9874 62.4162 65.9741 61.8562 65.9474C61.2962 65.9074 60.8029 65.8541 60.3762 65.7874C59.6162 65.6541 59.0295 65.3941 58.6162 65.0074C58.2029 64.6074 57.9962 64.0008 57.9962 63.1874C57.9962 62.8674 57.9962 62.4074 57.9962 61.8074C57.9962 61.1941 57.9962 60.5008 57.9962 59.7274C57.9962 58.9541 57.9962 58.1674 57.9962 57.3674C57.9962 56.5541 57.9962 55.7874 57.9962 55.0674C57.9962 54.3474 57.9962 53.7341 57.9962 53.2274C57.9962 52.7074 57.9962 52.3608 57.9962 52.1874C57.9962 52.0008 57.9895 51.8141 57.9762 51.6274C57.9629 51.4274 57.9495 51.2341 57.9362 51.0474C57.9229 50.8608 57.9029 50.7008 57.8762 50.5674H59.7362ZM58.8962 56.8674C59.4962 56.7341 60.1629 56.5674 60.8962 56.3674C61.6429 56.1674 62.4095 55.9474 63.1962 55.7074C63.9829 55.4674 64.7429 55.2208 65.4762 54.9674C66.2229 54.7008 66.8829 54.4408 67.4562 54.1874C67.7629 54.0541 68.0562 53.9141 68.3362 53.7674C68.6295 53.6208 68.9229 53.4541 69.2162 53.2674L69.9162 54.8874C69.6362 54.9941 69.3229 55.1208 68.9762 55.2674C68.6429 55.4141 68.3229 55.5474 68.0162 55.6674C67.4029 55.9208 66.6962 56.1874 65.8962 56.4674C65.1095 56.7341 64.2962 57.0008 63.4562 57.2674C62.6162 57.5208 61.8029 57.7608 61.0162 57.9874C60.2295 58.2008 59.5229 58.3808 58.8962 58.5274V56.8674ZM77.8962 51.2874C78.2562 51.5274 78.6695 51.8274 79.1362 52.1874C79.6029 52.5341 80.0762 52.9074 80.5562 53.3074C81.0495 53.6941 81.5095 54.0741 81.9362 54.4474C82.3629 54.8208 82.7162 55.1474 82.9962 55.4274L81.7362 56.6874C81.4829 56.4341 81.1562 56.1208 80.7562 55.7474C80.3562 55.3741 79.9162 54.9874 79.4362 54.5874C78.9562 54.1741 78.4829 53.7874 78.0162 53.4274C77.5495 53.0541 77.1295 52.7474 76.7562 52.5074L77.8962 51.2874ZM76.1762 64.6874C77.3495 64.5141 78.4162 64.2741 79.3762 63.9674C80.3495 63.6608 81.2362 63.3141 82.0362 62.9274C82.8362 62.5408 83.5495 62.1541 84.1762 61.7674C85.2029 61.1274 86.1495 60.3941 87.0162 59.5674C87.8829 58.7274 88.6429 57.8608 89.2962 56.9674C89.9495 56.0741 90.4695 55.2208 90.8562 54.4074L91.8162 56.1074C91.3629 56.9341 90.8029 57.7741 90.1362 58.6274C89.4695 59.4808 88.7162 60.3008 87.8762 61.0874C87.0362 61.8741 86.1095 62.5874 85.0962 63.2274C84.4295 63.6408 83.6962 64.0474 82.8962 64.4474C82.1095 64.8474 81.2429 65.2141 80.2962 65.5474C79.3629 65.8674 78.3429 66.1274 77.2362 66.3274L76.1762 64.6874ZM100.096 64.1874C100.096 64.0008 100.096 63.6274 100.096 63.0674C100.096 62.4941 100.096 61.8208 100.096 61.0474C100.096 60.2608 100.096 59.4408 100.096 58.5874C100.096 57.7208 100.096 56.8808 100.096 56.0674C100.096 55.2541 100.096 54.5341 100.096 53.9074C100.096 53.2808 100.096 52.8274 100.096 52.5474C100.096 52.2674 100.083 51.9274 100.056 51.5274C100.03 51.1274 99.9895 50.7741 99.9362 50.4674H101.896C101.87 50.7608 101.836 51.1074 101.796 51.5074C101.77 51.9074 101.756 52.2541 101.756 52.5474C101.756 53.0674 101.756 53.6941 101.756 54.4274C101.756 55.1474 101.756 55.9208 101.756 56.7474C101.756 57.5608 101.756 58.3741 101.756 59.1874C101.77 59.9874 101.776 60.7408 101.776 61.4474C101.776 62.1408 101.776 62.7341 101.776 63.2274C101.776 63.7074 101.776 64.0274 101.776 64.1874C101.776 64.4008 101.776 64.6474 101.776 64.9274C101.79 65.2074 101.81 65.4941 101.836 65.7874C101.863 66.0674 101.883 66.3208 101.896 66.5474H99.9562C100.01 66.2274 100.043 65.8474 100.056 65.4074C100.083 64.9674 100.096 64.5608 100.096 64.1874ZM101.416 55.7074C102.07 55.9074 102.79 56.1474 103.576 56.4274C104.376 56.6941 105.19 56.9808 106.016 57.2874C106.843 57.5941 107.623 57.9074 108.356 58.2274C109.103 58.5341 109.75 58.8274 110.296 59.1074L109.616 60.8074C109.043 60.4874 108.396 60.1741 107.676 59.8674C106.956 59.5474 106.216 59.2341 105.456 58.9274C104.71 58.6208 103.983 58.3474 103.276 58.1074C102.583 57.8541 101.963 57.6474 101.416 57.4874V55.7074ZM119.976 51.402V65.9474H118.214V53.2486H118.129L114.578 55.6065V53.8168L118.214 51.402H119.976Z" fill="black"/>
</svg>
