<svg width="211" height="150" viewBox="0 0 211 150" fill="none" xmlns="http://www.w3.org/2000/svg">
<rect width="210" height="148.5" transform="matrix(-1 0 0 -1 210.65 149.269)" fill="white"/>
<path d="M149.293 40.3002C149.032 40.3002 148.902 40.2247 148.902 40.0737C148.902 39.9227 149.015 39.8403 149.241 39.8266L150.415 39.6824C150.763 39.6412 150.998 39.5726 151.12 39.4764C151.242 39.3666 151.303 39.1675 151.303 38.8792V26.5224C151.303 26.3302 151.25 26.1929 151.146 26.1105C151.042 26.0281 150.824 25.9869 150.494 25.9869C149.85 25.9869 149.215 26.2066 148.589 26.646C147.962 27.0853 147.554 27.7924 147.362 28.7672L147.232 29.4468C147.197 29.6253 147.075 29.7146 146.866 29.7146C146.606 29.7146 146.492 29.5979 146.527 29.3645L146.762 25.6368C146.797 25.321 146.953 25.1631 147.232 25.1631C147.354 25.1631 147.467 25.1906 147.571 25.2455C147.675 25.2867 147.849 25.3348 148.093 25.3897C148.354 25.4446 148.763 25.4721 149.319 25.4721H155.138C155.695 25.4721 156.095 25.4446 156.339 25.3897C156.6 25.3348 156.782 25.2867 156.887 25.2455C157.009 25.1906 157.122 25.1631 157.226 25.1631C157.504 25.1631 157.661 25.321 157.696 25.6368L157.931 29.3645C157.965 29.5979 157.852 29.7146 157.591 29.7146C157.383 29.7146 157.261 29.6253 157.226 29.4468L157.096 28.7672C156.922 27.7924 156.521 27.0853 155.895 26.646C155.269 26.2066 154.625 25.9869 153.964 25.9869C153.634 25.9869 153.416 26.0281 153.312 26.1105C153.207 26.1929 153.155 26.3302 153.155 26.5224V38.8792C153.155 39.1675 153.216 39.3666 153.338 39.4764C153.477 39.5726 153.712 39.6412 154.043 39.6824L155.217 39.8266C155.443 39.8403 155.556 39.9227 155.556 40.0737C155.556 40.2247 155.426 40.3002 155.165 40.3002H149.293Z" fill="black"/>
<path d="M140.593 40.4856C140.245 40.4856 139.854 40.4581 139.419 40.4032C139.001 40.3483 138.601 40.2796 138.218 40.1973C137.853 40.1149 137.566 40.0256 137.357 39.9295C137.235 39.8746 137.14 39.8197 137.07 39.7648C137.018 39.6961 136.992 39.5863 136.992 39.4353L136.861 36.2019C136.861 35.9273 136.975 35.79 137.201 35.79C137.392 35.79 137.523 35.9136 137.592 36.1607L137.827 36.9433C138.418 38.9067 139.523 39.8883 141.141 39.8883C142.011 39.8883 142.698 39.6618 143.202 39.2087C143.724 38.7419 143.985 38.0897 143.985 37.2522C143.985 36.4422 143.716 35.687 143.176 34.9868C142.654 34.2866 141.811 33.5932 140.645 32.9067C139.358 32.1791 138.418 31.4788 137.827 30.8061C137.235 30.1196 136.94 29.3919 136.94 28.6231C136.94 27.607 137.383 26.797 138.271 26.1929C139.175 25.575 140.323 25.2661 141.715 25.2661C142.237 25.2661 142.741 25.3142 143.229 25.4103C143.716 25.5064 144.116 25.6437 144.429 25.8222C144.533 25.8771 144.612 25.9389 144.664 26.0075C144.733 26.0762 144.768 26.1654 144.768 26.2753L144.846 29.3851C144.846 29.6185 144.733 29.7352 144.507 29.7352C144.351 29.7352 144.238 29.6391 144.168 29.4468L143.985 28.932C143.603 27.8748 143.202 27.1059 142.785 26.6254C142.385 26.1311 141.802 25.884 141.037 25.884C140.289 25.884 139.688 26.0762 139.236 26.4606C138.801 26.845 138.584 27.3874 138.584 28.0876C138.584 28.678 138.827 29.2409 139.314 29.7764C139.801 30.3118 140.654 30.964 141.872 31.7329C143.176 32.5704 144.124 33.3804 144.716 34.163C145.325 34.9319 145.629 35.7557 145.629 36.6344C145.629 37.4033 145.412 38.076 144.977 38.6527C144.542 39.2293 143.942 39.6824 143.176 40.0119C142.428 40.3277 141.567 40.4856 140.593 40.4856Z" fill="black"/>
<path d="M124.855 40.3002C124.594 40.3002 124.463 40.2247 124.463 40.0737C124.463 39.9501 124.576 39.8678 124.802 39.8266L125.403 39.7442C125.768 39.6893 126.003 39.6137 126.107 39.5176C126.229 39.4215 126.29 39.2293 126.29 38.941V26.8313C126.29 26.543 126.229 26.3508 126.107 26.2547C126.003 26.1586 125.768 26.083 125.403 26.0281L124.802 25.9457C124.576 25.9046 124.463 25.8222 124.463 25.6986C124.463 25.5476 124.594 25.4721 124.855 25.4721H133.622C134.023 25.4721 134.24 25.63 134.275 25.9457L134.484 29.3645C134.518 29.5979 134.405 29.7146 134.144 29.7146C133.936 29.7146 133.814 29.6253 133.779 29.4468L133.622 28.6848C133.431 27.7512 133.04 27.0716 132.448 26.646C131.857 26.2066 131.039 25.9869 129.995 25.9869C129.299 25.9869 128.812 26.0693 128.534 26.2341C128.273 26.3851 128.143 26.6597 128.143 27.0579V32.0212C128.143 32.2134 128.264 32.3095 128.508 32.3095H129.813C130.578 32.3095 131.048 31.9869 131.222 31.3416L131.483 30.3118C131.552 30.1059 131.7 30.0166 131.926 30.0441C132.118 30.0715 132.213 30.1883 132.213 30.3942V35.028C132.213 35.2339 132.118 35.3506 131.926 35.3781C131.7 35.4056 131.552 35.3163 131.483 35.1104L131.222 34.1012C131.1 33.6207 130.926 33.3049 130.7 33.1539C130.491 33.0029 130.187 32.9273 129.787 32.9273H128.508C128.264 32.9273 128.143 33.0235 128.143 33.2157V38.3849C128.143 38.8792 128.299 39.2362 128.612 39.4559C128.943 39.6755 129.534 39.7854 130.387 39.7854C131.257 39.7854 131.996 39.6137 132.605 39.2705C133.231 38.9135 133.666 38.2545 133.909 37.2934L134.223 36.0783C134.275 35.8998 134.405 35.8106 134.614 35.8106C134.858 35.8106 134.962 35.9273 134.927 36.1607L134.666 39.8266C134.631 40.1423 134.414 40.3002 134.014 40.3002H124.855Z" fill="black"/>
<path d="M117.153 40.4856C116.214 40.4856 115.379 40.314 114.648 39.9707C113.935 39.6137 113.378 39.1263 112.978 38.5085C112.578 37.8769 112.378 37.1561 112.378 36.3461V26.8313C112.378 26.543 112.317 26.3508 112.195 26.2547C112.091 26.1586 111.856 26.083 111.491 26.0281L110.891 25.9457C110.664 25.9046 110.551 25.8222 110.551 25.6986C110.551 25.5476 110.682 25.4721 110.943 25.4721H115.718C115.979 25.4721 116.109 25.5544 116.109 25.7192C116.109 25.8428 116.014 25.9183 115.822 25.9457L115.118 26.0281C114.77 26.0693 114.535 26.1448 114.413 26.2547C114.292 26.3645 114.231 26.5636 114.231 26.8519V36.3667C114.231 37.4101 114.526 38.2202 115.118 38.7968C115.709 39.3735 116.536 39.6618 117.597 39.6618C118.675 39.6618 119.51 39.3735 120.102 38.7968C120.693 38.2202 120.989 37.4101 120.989 36.3667V27.2638C120.989 26.5224 120.693 26.1105 120.102 26.0281L119.397 25.9457C119.206 25.9183 119.11 25.8428 119.11 25.7192C119.11 25.5544 119.241 25.4721 119.502 25.4721H123.259C123.52 25.4721 123.651 25.5476 123.651 25.6986C123.651 25.8222 123.538 25.9046 123.312 25.9457L122.711 26.0281C122.12 26.1105 121.824 26.5155 121.824 27.2432V36.3461C121.824 37.5955 121.398 38.5977 120.546 39.3529C119.693 40.108 118.562 40.4856 117.153 40.4856Z" fill="black"/>
<path d="M93.1332 10.3143C94.0275 9.30319 95.0997 9.00331 96.0487 9.21296C96.888 9.39843 97.6001 9.97831 97.9631 10.7445C98.7823 10.0136 99.5764 9.80922 100.308 9.99406C100.981 10.164 101.532 10.6488 101.953 11.189C103.146 9.96241 104.383 9.68895 105.453 9.96465C106.473 10.2276 107.287 10.9769 107.723 11.7317C108.966 11.5091 109.767 11.7394 110.189 12.3044C110.562 12.8049 110.554 13.4653 110.434 13.9953C110.962 14.3952 111.307 14.7878 111.492 15.1749C111.702 15.6157 111.696 16.0363 111.533 16.4055C111.376 16.7617 111.084 17.0439 110.767 17.2557C110.539 17.4074 110.287 17.5298 110.037 17.623C110.211 18.2495 110.219 18.7872 110.081 19.2375C109.919 19.7652 109.567 20.1356 109.129 20.3708C108.362 20.7835 107.323 20.79 106.453 20.5684C106.227 21.1086 105.946 21.5283 105.604 21.8285C105.203 22.1816 104.737 22.3549 104.23 22.3785C103.298 22.4221 102.248 21.9575 101.177 21.2553C98.7282 23.1379 95.8567 23.6224 93.8183 23.6224C91.952 23.6224 90.3854 23.6319 88.6703 23.6368C86.9344 23.6417 85.0488 23.6419 82.553 23.6224L82.5581 22.9995C85.0511 23.0189 86.9342 23.0187 88.6686 23.0138C89.6686 23.011 90.6201 23.0067 91.6105 23.0035C91.9896 23.3859 92.5152 23.6227 93.0962 23.6227C93.6918 23.6227 94.2286 23.3734 94.6097 22.9741C96.5198 22.8539 98.922 22.2733 100.967 20.6285L101.146 20.484L101.337 20.6134C102.456 21.3736 103.43 21.7924 104.201 21.7563C104.575 21.7389 104.904 21.6148 105.193 21.3606C105.487 21.1021 105.755 20.6945 105.972 20.086L106.074 19.8004L106.362 19.8947C107.185 20.1637 108.183 20.1723 108.834 19.822C109.149 19.6528 109.378 19.4036 109.486 19.0545C109.595 18.6986 109.589 18.202 109.355 17.5247L109.247 17.2128L109.565 17.1233C109.857 17.041 110.163 16.9093 110.421 16.7376C110.681 16.5643 110.87 16.3642 110.963 16.1539C111.05 15.9564 111.064 15.7256 110.929 15.4429C110.789 15.1477 110.481 14.7872 109.9 14.3755L109.718 14.2462L109.781 14.0323C109.93 13.5335 109.935 13.0058 109.69 12.6773C109.466 12.3774 108.921 12.1079 107.623 12.3864L107.384 12.4377L107.277 12.2177C106.945 11.5312 106.209 10.8026 105.297 10.5678C104.418 10.3412 103.308 10.5581 102.16 11.8841L101.894 12.1923L101.666 11.8539C101.255 11.2405 100.735 10.7444 100.156 10.5979C99.6095 10.46 98.9107 10.6106 98.0644 11.5175L97.6762 11.9336L97.535 11.3823C97.3375 10.6116 96.6953 9.99393 95.9144 9.82135C95.1535 9.65321 94.2155 9.9011 93.4085 10.9597L93.1805 11.2591L92.9291 10.979C92.5753 10.585 92.0074 10.305 91.4765 10.3684C90.9807 10.4276 90.4072 10.8029 90.0508 11.9547L89.9902 12.1511L89.7861 12.1724C88.99 12.2564 88.5831 12.5876 88.4496 12.938C88.3154 13.2905 88.4053 13.7987 88.9011 14.3501L89.0771 14.5457L88.9137 14.7518C88.6217 15.1205 88.3181 15.6706 88.2819 16.1456C88.2646 16.3731 88.3097 16.5632 88.4257 16.7155C88.5431 16.8694 88.7632 17.0242 89.1714 17.12L89.0291 17.7264C88.5268 17.6085 88.1607 17.3952 87.9305 17.0933C87.6991 16.7899 87.635 16.4363 87.6607 16.0983C87.703 15.5424 87.9905 14.9774 88.2739 14.5695C87.81 13.9661 87.6451 13.3006 87.8676 12.7162C88.0972 12.1135 88.6945 11.7135 89.5191 11.5799C89.9325 10.4064 90.6273 9.84251 91.4028 9.74995C92.0497 9.67276 92.6789 9.93558 93.1332 10.3143Z" fill="black"/>
<path d="M69.3748 40.0737C69.3748 40.2247 69.5053 40.3002 69.7663 40.3002H75.6376C75.8985 40.3002 76.029 40.2247 76.029 40.0737C76.029 39.9227 75.9159 39.8403 75.6897 39.8266L74.5155 39.6824C74.185 39.6412 73.9501 39.5726 73.8109 39.4764C73.6892 39.3666 73.6283 39.1675 73.6283 38.8792V33.8541C73.6283 33.6344 73.6544 33.4422 73.7066 33.2774C73.7587 33.099 73.8457 32.9136 73.9675 32.7214L77.3859 27.305C77.6816 26.8519 77.9165 26.5293 78.0904 26.337C79.2598 25.045 80.9527 23.6972 82.553 23.6224L82.5581 22.9995C78.9664 22.6564 77.4155 25.8137 76.5248 27.2844L73.4456 32.2477C73.376 32.3438 73.289 32.3919 73.1847 32.3919C73.0803 32.3919 72.9933 32.3438 72.9237 32.2477L69.7141 26.8519C69.5401 26.5636 69.514 26.3508 69.6358 26.2135C69.7576 26.0762 69.9663 26.0007 70.2621 25.9869L70.7579 25.9457C71.0536 25.932 71.2015 25.8496 71.2015 25.6986C71.2015 25.5476 71.0797 25.4721 70.8361 25.4721H66.374C66.113 25.4721 65.9825 25.5407 65.9825 25.678C65.9825 25.8153 66.1043 25.9046 66.3479 25.9457L66.5827 25.9869C66.8785 26.0419 67.1046 26.1311 67.2612 26.2547C67.4177 26.3782 67.5569 26.5567 67.6787 26.7901L71.5146 33.1333C71.6886 33.4216 71.7755 33.7168 71.7755 34.0189V38.8792C71.7755 39.1675 71.7147 39.3666 71.5929 39.4764C71.4711 39.5726 71.2363 39.6412 70.8883 39.6824L69.7141 39.8266C69.4879 39.8403 69.3748 39.9227 69.3748 40.0737Z" fill="black"/>
<path d="M64.1408 40.4856C63.8625 40.4856 63.6277 40.3208 63.4363 39.9913L56.3647 27.8816C56.3125 27.7855 56.2429 27.7443 56.1559 27.7581C56.0863 27.7718 56.0515 27.8336 56.0515 27.9434V38.5291C56.0515 38.9135 56.1298 39.2087 56.2864 39.4147C56.4603 39.6069 56.7648 39.7305 57.1997 39.7854L57.5389 39.8266C57.7651 39.8403 57.8781 39.9227 57.8781 40.0737C57.8781 40.2247 57.7477 40.3002 57.4867 40.3002H53.7552C53.4942 40.3002 53.3638 40.2247 53.3638 40.0737C53.3638 39.9227 53.4768 39.8403 53.703 39.8266L54.0422 39.7854C54.4945 39.7305 54.8077 39.6069 54.9816 39.4147C55.1556 39.2087 55.2426 38.9135 55.2426 38.5291V26.8313C55.2426 26.543 55.1817 26.3508 55.0599 26.2547C54.9555 26.1586 54.7033 26.083 54.3032 26.0281L53.703 25.9457C53.4768 25.9046 53.3638 25.8222 53.3638 25.6986C53.3638 25.5476 53.4942 25.4721 53.7552 25.4721H56.5473C56.9822 25.4721 57.2867 25.6231 57.4606 25.9252L63.619 36.6138C63.6711 36.6962 63.732 36.7305 63.8016 36.7168C63.8886 36.703 63.9321 36.655 63.9321 36.5726V27.2432C63.9321 26.8039 63.8364 26.5018 63.645 26.337C63.4537 26.1586 63.2101 26.0487 62.9144 26.0075L62.4447 25.9457C62.2185 25.9046 62.1055 25.8222 62.1055 25.6986C62.1055 25.5476 62.2359 25.4721 62.4969 25.4721H66.2284C66.4894 25.4721 66.6198 25.5476 66.6198 25.6986C66.6198 25.8496 66.5068 25.932 66.2806 25.9457L65.9414 25.9869C65.4891 26.0419 65.1759 26.1586 65.002 26.337C64.828 26.5018 64.741 26.8039 64.741 27.2432V39.8266C64.741 40.0737 64.6801 40.2453 64.5584 40.3414C64.454 40.4375 64.3148 40.4856 64.1408 40.4856Z" fill="black"/>
<path fill-rule="evenodd" clip-rule="evenodd" d="M82.0656 39.5382C83.0398 40.1698 84.2315 40.4856 85.6406 40.4856C86.3538 40.4856 86.9801 40.4307 87.5194 40.3208C88.0587 40.2247 88.5371 40.0943 88.9546 39.9295C89.2155 39.8197 89.3982 39.7236 89.5026 39.6412C89.607 39.5451 89.6591 39.4215 89.6591 39.2705V33.6893C89.6591 33.401 89.6939 33.1951 89.7635 33.0715C89.435 33.0715 88.891 32.9605 88.3732 32.8549C88.0898 32.7971 87.8144 32.7409 87.5864 32.7054C86.8397 32.589 86.5276 32.6484 86.9192 32.8656C87.2845 32.893 87.5194 32.9617 87.6238 33.0715C87.7455 33.1813 87.8064 33.3804 87.8064 33.6687V38.179C87.8064 38.8517 87.6238 39.3117 87.2584 39.5588C86.8931 39.806 86.3538 39.9295 85.6406 39.9295C84.3184 39.9295 83.2312 39.3254 82.3787 38.1172C81.5437 36.8952 81.1262 35.1241 81.1262 32.8038C81.1262 30.5521 81.535 28.8359 82.3526 27.6551C83.1877 26.4606 84.2402 25.8634 85.5101 25.8634C86.3625 25.8634 87.0323 26.0762 87.5194 26.5018C88.0065 26.9274 88.4414 27.71 88.8241 28.8496L89.0329 29.4674C89.0851 29.6459 89.2068 29.7352 89.3982 29.7352C89.607 29.7352 89.7113 29.6185 89.7113 29.3851L89.633 26.2547C89.633 26.0624 89.52 25.9183 89.2938 25.8222C88.8763 25.6574 88.3892 25.527 87.8325 25.4309C87.2758 25.321 86.6583 25.2661 85.9798 25.2661C84.6403 25.2661 83.4486 25.5819 82.4048 26.2135C81.3784 26.8313 80.5695 27.71 79.978 28.8496C79.3866 29.9754 79.0908 31.2935 79.0908 32.8038C79.0908 34.369 79.3431 35.7282 79.8476 36.8815C80.3521 38.0211 81.0914 38.9067 82.0656 39.5382Z" fill="black"/>
<path fill-rule="evenodd" clip-rule="evenodd" d="M100.342 38.342C100.938 39.2405 101.699 39.7575 102.625 39.8933C102.716 40.1051 103.08 40.5434 103.078 40.6118C102.879 40.5452 102.467 40.4842 102.254 40.426C102.118 40.3886 101.989 40.3534 101.882 40.3208C100.977 40.0874 100.16 39.6206 99.4291 38.9204C99.1388 38.6298 98.8731 38.312 98.6318 37.9668C99.1194 38.1142 100.144 38.3956 100.342 38.342ZM99.1943 32.8656C99.1943 34.7878 99.4221 36.3144 99.8779 37.4453C99.7347 37.437 98.5322 36.9992 97.9489 36.7814C97.873 36.62 97.801 36.4543 97.733 36.2843C97.3329 35.2408 97.1328 34.1012 97.1328 32.8656C97.1328 31.7946 97.2807 30.7992 97.5764 29.8793C97.8895 28.9594 98.3158 28.1562 98.855 27.4698C99.4117 26.7695 100.055 26.2272 100.786 25.8428C101.517 25.4583 102.3 25.2661 103.135 25.2661C103.97 25.2661 104.744 25.4583 105.457 25.8428C106.188 26.2272 106.831 26.7695 107.388 27.4698C107.945 28.1562 108.371 28.9594 108.667 29.8793C108.98 30.7992 109.136 31.7946 109.136 32.8656C109.136 34.1287 108.919 35.2957 108.484 36.3667C108.066 37.4238 107.484 38.3026 106.736 39.0028C106.145 39.5688 105.486 39.9733 104.759 40.2164C104.618 40.0828 104.331 39.7972 104.31 39.7238C105 39.4608 105.574 38.9459 106.031 38.179C106.727 37.012 107.075 35.2408 107.075 32.8656C107.075 30.4903 106.727 28.726 106.031 27.5727C105.335 26.4057 104.37 25.8222 103.135 25.8222C101.917 25.8222 100.951 26.4057 100.238 27.5727C99.5422 28.726 99.1943 30.4903 99.1943 32.8656Z" fill="black"/>
<path d="M84.5915 33.6893C85.0245 33.2225 86.3889 32.2666 88.1044 32.4644C90.2488 32.7115 95.7633 36.2688 97.4747 37.2233C97.7139 37.3567 98.031 37.4912 98.4005 37.6156C98.9098 37.787 99.5185 37.939 100.159 38.042C100.656 38.1217 101.172 38.172 101.676 38.179C101.738 38.1798 101.8 38.1802 101.861 38.1801C101.774 38.0769 101.684 37.9733 101.592 37.8685C101.026 37.8705 100.485 37.8 99.9828 37.6899C99.2535 37.53 98.6069 37.2868 98.0868 37.0613C97.8568 36.9616 97.6515 36.8654 97.4747 36.7814C96.1455 36.1498 90.9659 32.6939 88.6344 32.3095C86.7692 32.002 84.9621 33.0486 84.5915 33.6893Z" fill="black"/>
<path d="M102.536 38.1566C102.455 38.0537 102.369 37.9437 102.279 37.8296C102.047 37.8555 101.818 37.8677 101.592 37.8685C101.684 37.9733 101.774 38.0769 101.861 38.1801C102.095 38.1797 102.32 38.172 102.536 38.1566Z" fill="black"/>
<path d="M103.949 39.8358C103.692 39.8983 103.42 39.9295 103.135 39.9295C103.097 39.9295 103.059 39.929 103.022 39.9278C103.084 40.0919 103.134 40.1149 103.27 40.3493C103.406 40.5836 103.838 41.1459 104.014 41.5287C104.358 42.2755 104.799 42.8275 105.338 43.1847C105.877 43.5419 106.448 43.7623 107.049 43.8458C107.671 43.9405 108.239 43.9521 108.753 43.8806C109.352 43.7972 109.836 43.6672 110.202 43.4907C110.589 43.3253 110.902 43.1424 111.14 42.942C111.256 42.8283 111.303 42.7241 111.282 42.6294C111.258 42.5212 111.183 42.462 111.057 42.4516C110.931 42.4413 110.807 42.4794 110.685 42.5661C110.211 42.8969 109.76 43.0479 109.203 43.1696C108.606 43.3001 108.173 43.4148 107.323 43.1696C106.473 42.9245 106.106 42.603 105.623 41.8617C105.217 41.2402 104.569 40.5052 103.949 39.8358Z" fill="black"/>
<path fill-rule="evenodd" clip-rule="evenodd" d="M106.752 32.6494C107.147 33.7392 107.109 34.7062 106.151 36.213C106.05 36.3718 105.925 36.5236 105.795 36.6596C105.565 36.9008 105.32 37.0922 105.17 37.1847C104.644 37.5091 104.475 37.5906 104.143 37.7323C103.519 37.9993 102.951 38.1272 102.536 38.1566C102.455 38.0537 102.369 37.9437 102.279 37.8296C102.561 37.7983 102.846 37.7472 103.135 37.6724C103.645 37.5402 104.257 37.2018 104.644 36.9339C104.918 36.7441 105.197 36.3961 105.218 36.3667C105.914 35.4157 106.333 34.4018 106.124 33.4679C106.055 33.1614 105.781 32.7548 105.346 32.7028C104.858 32.6447 104.085 32.8941 103.437 33.6687C102.848 32.7054 101.882 32.2427 100.905 32.536C100.675 32.6049 100.348 33.0532 100.238 33.5336C100.11 34.0961 100.222 35.1414 100.905 36.1583C101.054 36.3805 101.33 36.7017 101.622 37.0422C101.811 37.2621 102.007 37.4902 102.18 37.7049C102.141 37.7169 101.693 37.7301 101.475 37.7353C101.426 37.6804 101.375 37.6233 101.322 37.5647C101.061 37.2721 100.765 36.9411 100.543 36.6596C100.502 36.6078 100.462 36.5571 100.422 36.507C99.7305 35.6377 99.2071 34.9796 99.4291 33.1383C99.5285 32.3147 100.177 31.8026 100.967 31.6888C101.927 31.5504 103.062 31.9914 103.54 33.0715C103.819 32.4504 104.645 31.8679 105.482 31.8767C105.946 31.8817 106.576 32.1623 106.752 32.6494Z" fill="black"/>
<path fill-rule="evenodd" clip-rule="evenodd" d="M103.949 39.8358C103.692 39.8983 103.42 39.9295 103.135 39.9295C103.097 39.9295 103.059 39.929 103.022 39.9278C102.901 39.6101 102.779 39.4355 102.55 39.1099C102.483 39.0131 102.406 38.903 102.316 38.7718C102.219 38.6281 102.11 38.4853 101.994 38.342C102.193 38.334 102.602 38.3137 102.647 38.2967C102.719 38.3888 102.786 38.473 102.844 38.5466C102.919 38.6411 102.98 38.7181 103.022 38.7718C103.368 39.2128 103.693 39.5614 103.882 39.7645C103.907 39.7907 103.929 39.8145 103.949 39.8358Z" fill="black"/>
<circle cx="90.6826" cy="25.0272" r="1" stroke="black" stroke-width="0.505019"/>
<circle cx="90.6826" cy="25.0272" r="1" stroke="black" stroke-width="0.505019"/>
<path d="M94.4526 21.5304C94.4526 20.7812 93.8454 20.1738 93.0963 20.1738C92.3471 20.1738 91.7397 20.7812 91.7397 21.5304C91.7398 22.2795 92.3471 22.8867 93.0963 22.8867V23.4015L93 23.3993C92.0431 23.3508 91.2759 22.5835 91.2274 21.6266L91.2249 21.5304C91.2249 20.4968 92.0628 19.6589 93.0963 19.6589L93.1926 19.6614C94.1813 19.7116 94.9674 20.5292 94.9674 21.5304L94.9652 21.6266C94.915 22.6153 94.0974 23.4015 93.0963 23.4015V22.8867C93.8454 22.8866 94.4525 22.2795 94.4526 21.5304Z" fill="black"/>
<path d="M94.4526 21.5304C94.4526 20.7812 93.8454 20.1738 93.0963 20.1738C92.3471 20.1738 91.7397 20.7812 91.7397 21.5304C91.7398 22.2795 92.3471 22.8867 93.0963 22.8867V23.4015L93 23.3993C92.0431 23.3508 91.2759 22.5835 91.2274 21.6266L91.2249 21.5304C91.2249 20.4968 92.0628 19.6589 93.0963 19.6589L93.1926 19.6614C94.1813 19.7116 94.9674 20.5292 94.9674 21.5304L94.9652 21.6266C94.915 22.6153 94.0974 23.4015 93.0963 23.4015V22.8867C93.8454 22.8866 94.4525 22.2795 94.4526 21.5304Z" fill="black"/>
<path d="M35.5503 80.522C35.1503 81.1353 34.6503 81.782 34.0503 82.462C33.4636 83.142 32.8103 83.822 32.0903 84.502C31.3703 85.182 30.6036 85.8353 29.7903 86.462C28.9769 87.0886 28.1436 87.6553 27.2903 88.162C27.2236 88.042 27.1369 87.9153 27.0303 87.782C26.9236 87.6353 26.8103 87.4886 26.6903 87.342C26.5703 87.1953 26.4569 87.0753 26.3503 86.982C27.2169 86.4886 28.0636 85.922 28.8903 85.282C29.7169 84.642 30.4969 83.9686 31.2303 83.262C31.9769 82.542 32.6503 81.822 33.2503 81.102C33.8503 80.382 34.3436 79.6886 34.7303 79.022H36.2303C36.7503 79.7686 37.3503 80.5153 38.0303 81.262C38.7103 81.9953 39.4369 82.702 40.2103 83.382C40.9969 84.062 41.7969 84.6953 42.6103 85.282C43.4369 85.8553 44.2369 86.3486 45.0103 86.762C44.8236 86.9353 44.6436 87.142 44.4703 87.382C44.2969 87.6086 44.1436 87.8353 44.0103 88.062C43.2369 87.5953 42.4436 87.062 41.6303 86.462C40.8303 85.862 40.0503 85.2286 39.2903 84.562C38.5303 83.882 37.8303 83.202 37.1903 82.522C36.5503 81.8286 36.0036 81.162 35.5503 80.522ZM31.2703 85.402H40.0303V86.802H31.2703V85.402ZM28.6903 89.322H40.8303V90.762H28.6903V89.322ZM40.5303 89.322H40.7503L41.0303 89.242L42.2103 89.602C41.8903 90.3353 41.5169 91.1686 41.0903 92.102C40.6769 93.022 40.2369 93.9553 39.7703 94.902C39.3169 95.8353 38.8769 96.722 38.4503 97.562L36.8903 97.122C37.2103 96.5086 37.5436 95.8553 37.8903 95.162C38.2369 94.4553 38.5769 93.7553 38.9103 93.062C39.2436 92.3686 39.5503 91.7153 39.8303 91.102C40.1103 90.4886 40.3436 89.962 40.5303 89.522V89.322ZM57.1103 80.002C57.0836 80.1753 57.0569 80.3686 57.0303 80.582C57.0169 80.7953 57.0036 81.0486 56.9903 81.342C56.9903 81.542 56.9836 81.842 56.9703 82.242C56.9703 82.642 56.9703 83.0953 56.9703 83.602C56.9703 84.0953 56.9703 84.5953 56.9703 85.102C56.9703 85.6086 56.9703 86.0753 56.9703 86.502C56.9703 87.1686 56.9836 87.8686 57.0103 88.602C57.0369 89.3353 57.0703 90.0486 57.1103 90.742C57.1503 91.4353 57.1836 92.0686 57.2103 92.642C57.2369 93.2153 57.2503 93.6686 57.2503 94.002C57.2503 94.4686 57.1369 94.9153 56.9103 95.342C56.6969 95.7686 56.3303 96.1153 55.8103 96.382C55.3036 96.662 54.6103 96.802 53.7303 96.802C52.2903 96.802 51.1903 96.5486 50.4303 96.042C49.6703 95.5486 49.2903 94.822 49.2903 93.862C49.2903 93.2486 49.4703 92.7153 49.8303 92.262C50.2036 91.8086 50.7369 91.4553 51.4303 91.202C52.1236 90.9353 52.9503 90.802 53.9103 90.802C54.9636 90.802 55.9503 90.9286 56.8703 91.182C57.8036 91.422 58.6569 91.7286 59.4303 92.102C60.2036 92.4753 60.8903 92.8686 61.4903 93.282C62.0903 93.682 62.5836 94.042 62.9703 94.362L62.0503 95.782C61.5969 95.3553 61.0703 94.9286 60.4703 94.502C59.8836 94.0753 59.2369 93.682 58.5303 93.322C57.8369 92.962 57.0836 92.6753 56.2703 92.462C55.4703 92.2353 54.6169 92.122 53.7103 92.122C52.7503 92.122 52.0169 92.282 51.5103 92.602C51.0169 92.922 50.7703 93.3153 50.7703 93.782C50.7703 94.0753 50.8636 94.3486 51.0503 94.602C51.2369 94.842 51.5369 95.0353 51.9503 95.182C52.3636 95.3286 52.8969 95.402 53.5503 95.402C53.9369 95.402 54.2903 95.3553 54.6103 95.262C54.9303 95.1553 55.1836 94.9753 55.3703 94.722C55.5703 94.4686 55.6703 94.1153 55.6703 93.662C55.6703 93.2753 55.6569 92.7753 55.6303 92.162C55.6169 91.5353 55.5969 90.8753 55.5703 90.182C55.5436 89.4753 55.5169 88.7953 55.4903 88.142C55.4769 87.4886 55.4703 86.942 55.4703 86.502C55.4703 86.0486 55.4703 85.5886 55.4703 85.122C55.4703 84.642 55.4703 84.1686 55.4703 83.702C55.4703 83.2353 55.4703 82.7886 55.4703 82.362C55.4836 81.9353 55.4903 81.5486 55.4903 81.202C55.4903 81.042 55.4836 80.8353 55.4703 80.582C55.4569 80.3286 55.4369 80.1353 55.4103 80.002H57.1103ZM49.4503 82.182C49.7836 82.2353 50.1703 82.2886 50.6103 82.342C51.0503 82.3953 51.5103 82.4486 51.9903 82.502C52.4836 82.542 52.9503 82.5753 53.3903 82.602C53.8436 82.6153 54.2369 82.622 54.5703 82.622C55.8369 82.622 57.1303 82.5753 58.4503 82.482C59.7836 82.3886 61.0969 82.2353 62.3903 82.022L62.3703 83.482C61.6369 83.562 60.8369 83.642 59.9703 83.722C59.1036 83.802 58.2103 83.8686 57.2903 83.922C56.3836 83.9753 55.4836 84.002 54.5903 84.002C54.1236 84.002 53.5703 83.982 52.9303 83.942C52.2903 83.902 51.6569 83.8553 51.0303 83.802C50.4169 83.7486 49.8969 83.702 49.4703 83.662L49.4503 82.182ZM49.3503 86.422C49.7103 86.4753 50.1103 86.5286 50.5503 86.582C50.9903 86.6353 51.4436 86.6753 51.9103 86.702C52.3769 86.7286 52.8236 86.7553 53.2503 86.782C53.6769 86.7953 54.0569 86.802 54.3903 86.802C55.3636 86.802 56.3036 86.782 57.2103 86.742C58.1303 86.6886 59.0303 86.622 59.9103 86.542C60.8036 86.4486 61.6836 86.3353 62.5503 86.202L62.5303 87.702C61.8636 87.7953 61.1969 87.8753 60.5303 87.942C59.8769 87.9953 59.2169 88.042 58.5503 88.082C57.8969 88.122 57.2236 88.1553 56.5303 88.182C55.8503 88.1953 55.1303 88.202 54.3703 88.202C53.9169 88.202 53.3903 88.1886 52.7903 88.162C52.2036 88.1353 51.6036 88.102 50.9903 88.062C50.3903 88.022 49.8503 87.9753 49.3703 87.922L49.3503 86.422ZM67.2303 82.722C67.6036 82.7086 67.9436 82.6953 68.2503 82.682C68.5703 82.6553 68.8236 82.6353 69.0103 82.622C69.3303 82.582 69.7903 82.5353 70.3903 82.482C71.0036 82.4153 71.7036 82.3486 72.4903 82.282C73.2769 82.202 74.1236 82.122 75.0303 82.042C75.9369 81.962 76.8503 81.882 77.7703 81.802C78.5036 81.7353 79.1969 81.682 79.8503 81.642C80.5036 81.5886 81.1103 81.5486 81.6703 81.522C82.2303 81.482 82.7303 81.4553 83.1703 81.442V83.042C82.7969 83.042 82.3703 83.0486 81.8903 83.062C81.4103 83.0753 80.9369 83.102 80.4703 83.142C80.0036 83.182 79.5969 83.2553 79.2503 83.362C78.5436 83.5886 77.9036 83.9353 77.3303 84.402C76.7703 84.8553 76.2903 85.382 75.8903 85.982C75.4903 86.582 75.1836 87.202 74.9703 87.842C74.7703 88.482 74.6703 89.102 74.6703 89.702C74.6703 90.4753 74.8036 91.1553 75.0703 91.742C75.3369 92.3153 75.6969 92.802 76.1503 93.202C76.6169 93.602 77.1436 93.9286 77.7303 94.182C78.3169 94.4353 78.9369 94.6286 79.5903 94.762C80.2569 94.882 80.9169 94.9486 81.5703 94.962L80.9903 96.622C80.2436 96.5953 79.4969 96.4886 78.7503 96.302C78.0036 96.1286 77.2903 95.8753 76.6103 95.542C75.9303 95.1953 75.3236 94.762 74.7903 94.242C74.2569 93.722 73.8369 93.1153 73.5303 92.422C73.2236 91.7286 73.0703 90.9353 73.0703 90.042C73.0703 89.002 73.2503 88.042 73.6103 87.162C73.9836 86.2686 74.4569 85.4886 75.0303 84.822C75.6036 84.1553 76.1969 83.642 76.8103 83.282C76.3836 83.3353 75.8503 83.3953 75.2103 83.462C74.5836 83.5286 73.9103 83.602 73.1903 83.682C72.4703 83.7486 71.7436 83.8286 71.0103 83.922C70.2903 84.0153 69.6169 84.1086 68.9903 84.202C68.3636 84.282 67.8369 84.3686 67.4103 84.462L67.2303 82.722ZM80.2903 85.502C80.4369 85.7153 80.6103 85.9886 80.8103 86.322C81.0236 86.642 81.2303 86.9753 81.4303 87.322C81.6303 87.6553 81.7969 87.9753 81.9303 88.282L80.9103 88.762C80.6836 88.2686 80.4303 87.782 80.1503 87.302C79.8703 86.8086 79.5769 86.3553 79.2703 85.942L80.2903 85.502ZM82.4703 84.662C82.6303 84.8753 82.8169 85.142 83.0303 85.462C83.2436 85.782 83.4503 86.1153 83.6503 86.462C83.8636 86.7953 84.0503 87.1153 84.2103 87.422L83.1703 87.922C82.9303 87.4286 82.6636 86.942 82.3703 86.462C82.0903 85.982 81.7969 85.5353 81.4903 85.122L82.4703 84.662ZM98.5703 79.082H100.09V86.922H98.5703V79.082ZM95.9703 95.102H103.11V96.462H95.9703V95.102ZM93.9303 81.922H104.87V83.282H93.9303V81.922ZM94.5703 86.282H104.41V87.682H94.5703V86.282ZM95.2103 89.842H103.85V97.402H102.41V91.202H96.6103V97.462H95.2103V89.842ZM89.5503 79.082L90.8903 79.602C90.6503 80.082 90.3836 80.5886 90.0903 81.122C89.7969 81.6553 89.5103 82.1686 89.2303 82.662C88.9503 83.142 88.6769 83.5686 88.4103 83.942L87.3703 83.482C87.6236 83.0953 87.8836 82.6486 88.1503 82.142C88.4169 81.622 88.6769 81.0953 88.9303 80.562C89.1836 80.0153 89.3903 79.522 89.5503 79.082ZM91.9703 81.362L93.2903 81.922C92.8236 82.682 92.3036 83.482 91.7303 84.322C91.1703 85.1486 90.6036 85.9553 90.0303 86.742C89.4569 87.5286 88.9169 88.2086 88.4103 88.782L87.4503 88.282C87.8369 87.8286 88.2369 87.3153 88.6503 86.742C89.0636 86.1686 89.4703 85.5686 89.8703 84.942C90.2836 84.3153 90.6703 83.6953 91.0303 83.082C91.3903 82.4686 91.7036 81.8953 91.9703 81.362ZM86.4103 83.302L87.1503 82.302C87.5236 82.6086 87.9036 82.9486 88.2903 83.322C88.6769 83.6953 89.0303 84.0686 89.3503 84.442C89.6703 84.802 89.9169 85.1286 90.0903 85.422L89.2903 86.582C89.1036 86.262 88.8503 85.9086 88.5303 85.522C88.2236 85.1353 87.8836 84.7486 87.5103 84.362C87.1369 83.9753 86.7703 83.622 86.4103 83.302ZM91.3303 86.002L92.4503 85.522C92.7436 85.962 93.0236 86.4286 93.2903 86.922C93.5569 87.4153 93.7903 87.8953 93.9903 88.362C94.2036 88.8286 94.3569 89.2486 94.4503 89.622L93.2703 90.182C93.1636 89.8086 93.0103 89.382 92.8103 88.902C92.6103 88.422 92.3836 87.9286 92.1303 87.422C91.8769 86.9153 91.6103 86.442 91.3303 86.002ZM86.3703 88.022C87.2636 87.9953 88.3236 87.962 89.5503 87.922C90.7903 87.8686 92.0636 87.8086 93.3703 87.742L93.3503 88.982C92.1103 89.062 90.8903 89.142 89.6903 89.222C88.4903 89.2886 87.4236 89.342 86.4903 89.382L86.3703 88.022ZM91.8503 90.802L92.9703 90.422C93.2636 91.0353 93.5369 91.702 93.7903 92.422C94.0569 93.142 94.2436 93.762 94.3503 94.282L93.1103 94.702C93.0169 94.1686 92.8503 93.542 92.6103 92.822C92.3703 92.0886 92.1169 91.4153 91.8503 90.802ZM87.4703 90.522L88.7503 90.742C88.6169 91.6886 88.4303 92.622 88.1903 93.542C87.9503 94.4486 87.6703 95.222 87.3503 95.862C87.2569 95.7953 87.1369 95.7286 86.9903 95.662C86.8569 95.5953 86.7103 95.5286 86.5503 95.462C86.4036 95.382 86.2703 95.322 86.1503 95.282C86.4969 94.6686 86.7703 93.942 86.9703 93.102C87.1836 92.2486 87.3503 91.3886 87.4703 90.522ZM89.7703 88.602H91.1303V97.522H89.7703V88.602ZM116.59 81.042C116.51 81.1486 116.41 81.2953 116.29 81.482C116.184 81.6553 116.07 81.8353 115.95 82.022C115.724 82.3553 115.45 82.802 115.13 83.362C114.824 83.9086 114.49 84.502 114.13 85.142C113.77 85.7686 113.417 86.3886 113.07 87.002C112.737 87.6153 112.444 88.1686 112.19 88.662C112.67 88.222 113.164 87.9086 113.67 87.722C114.19 87.522 114.69 87.422 115.17 87.422C115.837 87.422 116.384 87.6286 116.81 88.042C117.25 88.4553 117.484 89.0553 117.51 89.842C117.524 90.242 117.53 90.6686 117.53 91.122C117.544 91.562 117.55 91.9953 117.55 92.422C117.55 92.8353 117.564 93.2086 117.59 93.542C117.63 94.0486 117.804 94.4153 118.11 94.642C118.417 94.8553 118.784 94.962 119.21 94.962C119.757 94.962 120.25 94.8153 120.69 94.522C121.144 94.2153 121.537 93.8153 121.87 93.322C122.217 92.8286 122.504 92.2953 122.73 91.722C122.957 91.1486 123.137 90.602 123.27 90.082L124.59 91.162C124.244 92.2286 123.817 93.1753 123.31 94.002C122.804 94.8153 122.19 95.4553 121.47 95.922C120.764 96.3886 119.924 96.622 118.95 96.622C118.244 96.622 117.677 96.4886 117.25 96.222C116.837 95.9686 116.537 95.6486 116.35 95.262C116.177 94.8753 116.077 94.482 116.05 94.082C116.037 93.6953 116.024 93.2753 116.01 92.822C116.01 92.3686 116.01 91.922 116.01 91.482C116.01 91.042 115.997 90.642 115.97 90.282C115.944 89.842 115.804 89.502 115.55 89.262C115.31 89.0086 114.964 88.882 114.51 88.882C113.977 88.882 113.457 89.042 112.95 89.362C112.457 89.6686 112.004 90.0686 111.59 90.562C111.19 91.0553 110.864 91.5686 110.61 92.102C110.464 92.3953 110.297 92.7486 110.11 93.162C109.937 93.5753 109.77 94.002 109.61 94.442C109.45 94.882 109.304 95.2953 109.17 95.682C109.05 96.0686 108.957 96.3886 108.89 96.642L107.17 96.042C107.41 95.362 107.724 94.5886 108.11 93.722C108.497 92.8553 108.917 91.9486 109.37 91.002C109.824 90.042 110.29 89.0953 110.77 88.162C111.25 87.2153 111.704 86.3286 112.13 85.502C112.57 84.662 112.964 83.9286 113.31 83.302C113.657 82.662 113.917 82.182 114.09 81.862C114.21 81.622 114.33 81.382 114.45 81.142C114.584 80.8886 114.71 80.6153 114.83 80.322L116.59 81.042ZM133.91 80.442C133.844 80.6553 133.777 80.922 133.71 81.242C133.644 81.562 133.59 81.822 133.55 82.022C133.457 82.502 133.344 83.062 133.21 83.702C133.09 84.3286 132.95 84.9886 132.79 85.682C132.644 86.3753 132.477 87.0553 132.29 87.722C132.117 88.4286 131.904 89.202 131.65 90.042C131.397 90.8686 131.13 91.702 130.85 92.542C130.57 93.382 130.284 94.1753 129.99 94.922C129.697 95.6686 129.424 96.322 129.17 96.882L127.41 96.282C127.717 95.762 128.024 95.142 128.33 94.422C128.65 93.702 128.957 92.9286 129.25 92.102C129.557 91.2753 129.837 90.4553 130.09 89.642C130.357 88.8153 130.584 88.0486 130.77 87.342C130.89 86.8753 131.01 86.382 131.13 85.862C131.25 85.342 131.364 84.8353 131.47 84.342C131.59 83.8353 131.684 83.3753 131.75 82.962C131.83 82.5353 131.89 82.1886 131.93 81.922C131.97 81.642 131.997 81.3486 132.01 81.042C132.024 80.7353 132.017 80.482 131.99 80.282L133.91 80.442ZM129.47 83.762C130.217 83.762 131.017 83.7286 131.87 83.662C132.737 83.582 133.617 83.4686 134.51 83.322C135.404 83.1753 136.264 83.002 137.09 82.802V84.362C136.264 84.5486 135.397 84.7086 134.49 84.842C133.584 84.9753 132.69 85.082 131.81 85.162C130.944 85.2286 130.157 85.262 129.45 85.262C129.01 85.262 128.604 85.2553 128.23 85.242C127.857 85.2153 127.49 85.1953 127.13 85.182L127.07 83.622C127.55 83.6753 127.977 83.7153 128.35 83.742C128.737 83.7553 129.11 83.762 129.47 83.762ZM135.79 86.522C136.324 86.4686 136.904 86.4286 137.53 86.402C138.17 86.362 138.81 86.342 139.45 86.342C140.037 86.342 140.624 86.3553 141.21 86.382C141.81 86.4086 142.377 86.4553 142.91 86.522L142.87 88.042C142.364 87.9753 141.824 87.922 141.25 87.882C140.677 87.8286 140.097 87.802 139.51 87.802C138.87 87.802 138.244 87.822 137.63 87.862C137.017 87.8886 136.404 87.942 135.79 88.022V86.522ZM136.21 91.382C136.13 91.7153 136.064 92.0353 136.01 92.342C135.957 92.6353 135.93 92.9153 135.93 93.182C135.93 93.422 135.97 93.6553 136.05 93.882C136.144 94.0953 136.31 94.2886 136.55 94.462C136.79 94.6353 137.13 94.7753 137.57 94.882C138.024 94.9886 138.604 95.042 139.31 95.042C139.95 95.042 140.604 95.0086 141.27 94.942C141.95 94.8753 142.597 94.7753 143.21 94.642L143.15 96.262C142.617 96.342 142.024 96.4086 141.37 96.462C140.717 96.5286 140.024 96.562 139.29 96.562C137.717 96.562 136.51 96.3153 135.67 95.822C134.83 95.3286 134.41 94.5886 134.41 93.602C134.41 93.2153 134.437 92.8353 134.49 92.462C134.544 92.0753 134.617 91.6686 134.71 91.242L136.21 91.382ZM140.75 81.042C140.924 81.2686 141.11 81.5486 141.31 81.882C141.51 82.2153 141.704 82.5486 141.89 82.882C142.09 83.2153 142.257 83.522 142.39 83.802L141.31 84.282C141.19 84.002 141.03 83.6953 140.83 83.362C140.644 83.0286 140.45 82.6953 140.25 82.362C140.064 82.0286 139.877 81.742 139.69 81.502L140.75 81.042ZM142.95 80.222C143.137 80.4753 143.337 80.7686 143.55 81.102C143.764 81.4353 143.964 81.7686 144.15 82.102C144.35 82.4353 144.517 82.7286 144.65 82.982L143.57 83.462C143.357 83.0086 143.097 82.5286 142.79 82.022C142.484 81.502 142.19 81.0553 141.91 80.682L142.95 80.222ZM163.51 89.082L164.73 89.962C164.184 90.4553 163.597 90.962 162.97 91.482C162.344 91.9886 161.764 92.4153 161.23 92.762L160.31 92.062C160.657 91.7953 161.024 91.4886 161.41 91.142C161.81 90.7953 162.197 90.442 162.57 90.082C162.944 89.722 163.257 89.3886 163.51 89.082ZM158.55 79.062L160.21 79.382C159.984 79.862 159.737 80.342 159.47 80.822C159.204 81.2886 158.957 81.6953 158.73 82.042L157.47 81.722C157.657 81.3486 157.857 80.9086 158.07 80.402C158.284 79.8953 158.444 79.4486 158.55 79.062ZM155.83 85.242V86.982H162.57V85.242H155.83ZM155.83 82.362V84.102H162.57V82.362H155.83ZM154.45 81.142H164.01V88.222H154.45V81.142ZM158.49 87.562H159.85V95.862C159.85 96.2486 159.804 96.542 159.71 96.742C159.63 96.9553 159.464 97.122 159.21 97.242C158.957 97.3486 158.624 97.4086 158.21 97.422C157.797 97.4486 157.277 97.462 156.65 97.462C156.624 97.2753 156.57 97.0553 156.49 96.802C156.41 96.562 156.324 96.342 156.23 96.142C156.684 96.1553 157.09 96.162 157.45 96.162C157.81 96.162 158.05 96.162 158.17 96.162C158.304 96.1486 158.39 96.122 158.43 96.082C158.47 96.042 158.49 95.9686 158.49 95.862V87.562ZM153.69 89.942H157.03V91.222H153.69V89.942ZM156.69 89.942H156.97L157.21 89.902L158.03 90.242C157.684 91.842 157.13 93.1686 156.37 94.222C155.624 95.2753 154.75 96.0886 153.75 96.662C153.697 96.5553 153.61 96.4353 153.49 96.302C153.384 96.1686 153.264 96.042 153.13 95.922C153.01 95.802 152.904 95.7086 152.81 95.642C153.744 95.1353 154.55 94.4286 155.23 93.522C155.91 92.6153 156.397 91.502 156.69 90.182V89.942ZM159.69 87.662C159.824 88.3686 160.024 89.0953 160.29 89.842C160.557 90.5886 160.904 91.3153 161.33 92.022C161.757 92.7286 162.284 93.382 162.91 93.982C163.55 94.5686 164.304 95.0553 165.17 95.442C165.077 95.5353 164.97 95.6553 164.85 95.802C164.744 95.9353 164.637 96.0753 164.53 96.222C164.424 96.382 164.33 96.5286 164.25 96.662C163.397 96.222 162.657 95.682 162.03 95.042C161.417 94.402 160.897 93.7153 160.47 92.982C160.057 92.2353 159.717 91.4953 159.45 90.762C159.197 90.0153 158.997 89.3153 158.85 88.662L159.69 87.662ZM149.57 79.082L150.89 79.582C150.65 80.0753 150.384 80.5886 150.09 81.122C149.81 81.6553 149.524 82.1753 149.23 82.682C148.95 83.1753 148.684 83.6086 148.43 83.982L147.39 83.522C147.644 83.1353 147.904 82.682 148.17 82.162C148.45 81.642 148.71 81.1086 148.95 80.562C149.204 80.0153 149.41 79.522 149.57 79.082ZM151.81 81.362L153.07 81.962C152.617 82.6953 152.11 83.482 151.55 84.322C150.99 85.1486 150.424 85.9486 149.85 86.722C149.29 87.4953 148.757 88.1686 148.25 88.742L147.33 88.222C147.704 87.782 148.097 87.282 148.51 86.722C148.924 86.1486 149.33 85.5553 149.73 84.942C150.13 84.3153 150.51 83.6953 150.87 83.082C151.23 82.4686 151.544 81.8953 151.81 81.362ZM146.39 83.262L147.17 82.302C147.53 82.622 147.89 82.9753 148.25 83.362C148.624 83.7486 148.964 84.1286 149.27 84.502C149.577 84.8753 149.817 85.2153 149.99 85.522L149.15 86.642C148.977 86.322 148.737 85.962 148.43 85.562C148.137 85.162 147.81 84.762 147.45 84.362C147.09 83.962 146.737 83.5953 146.39 83.262ZM151.03 85.942L152.13 85.502C152.41 85.9286 152.677 86.3953 152.93 86.902C153.184 87.4086 153.41 87.902 153.61 88.382C153.824 88.8486 153.977 89.262 154.07 89.622L152.87 90.182C152.79 89.7953 152.65 89.362 152.45 88.882C152.264 88.3886 152.05 87.8886 151.81 87.382C151.57 86.862 151.31 86.382 151.03 85.942ZM146.21 87.922C147.077 87.882 148.104 87.8353 149.29 87.782C150.49 87.7153 151.717 87.6486 152.97 87.582V88.842C151.797 88.922 150.63 89.002 149.47 89.082C148.324 89.1486 147.297 89.2086 146.39 89.262L146.21 87.922ZM151.57 90.782L152.67 90.462C152.924 91.022 153.144 91.6353 153.33 92.302C153.53 92.9686 153.664 93.5486 153.73 94.042L152.55 94.402C152.51 93.9086 152.397 93.3286 152.21 92.662C152.024 91.982 151.81 91.3553 151.57 90.782ZM147.43 90.522L148.69 90.722C148.557 91.6686 148.37 92.602 148.13 93.522C147.904 94.4286 147.637 95.202 147.33 95.842C147.25 95.7886 147.137 95.7286 146.99 95.662C146.844 95.582 146.697 95.5086 146.55 95.442C146.404 95.3753 146.277 95.322 146.17 95.282C146.504 94.6686 146.77 93.942 146.97 93.102C147.17 92.2486 147.324 91.3886 147.43 90.522ZM149.55 88.522H150.87V97.482H149.55V88.522ZM174.13 80.342C174.104 80.5286 174.07 80.7286 174.03 80.942C173.99 81.142 173.95 81.342 173.91 81.542C173.857 81.7686 173.797 82.0886 173.73 82.502C173.664 82.9153 173.584 83.3553 173.49 83.822C173.41 84.2753 173.324 84.7153 173.23 85.142C173.084 85.702 172.91 86.342 172.71 87.062C172.524 87.7686 172.297 88.5286 172.03 89.342C171.777 90.142 171.49 90.962 171.17 91.802C170.85 92.6286 170.497 93.4486 170.11 94.262C169.724 95.0753 169.304 95.8486 168.85 96.582L167.23 95.922C167.684 95.322 168.11 94.642 168.51 93.882C168.91 93.122 169.277 92.3353 169.61 91.522C169.944 90.6953 170.244 89.882 170.51 89.082C170.777 88.282 171.004 87.542 171.19 86.862C171.39 86.1686 171.544 85.5753 171.65 85.082C171.837 84.2953 171.99 83.4686 172.11 82.602C172.23 81.7353 172.29 80.922 172.29 80.162L174.13 80.342ZM181.01 82.662C181.33 83.062 181.664 83.5686 182.01 84.182C182.37 84.7953 182.717 85.442 183.05 86.122C183.397 86.802 183.71 87.462 183.99 88.102C184.284 88.742 184.51 89.2953 184.67 89.762L183.13 90.502C182.984 89.982 182.777 89.3953 182.51 88.742C182.257 88.0886 181.964 87.4286 181.63 86.762C181.31 86.082 180.97 85.442 180.61 84.842C180.264 84.2286 179.91 83.722 179.55 83.322L181.01 82.662ZM166.93 84.742C167.25 84.7553 167.55 84.762 167.83 84.762C168.11 84.762 168.41 84.7553 168.73 84.742C169.024 84.7286 169.404 84.7086 169.87 84.682C170.35 84.642 170.864 84.602 171.41 84.562C171.957 84.5086 172.504 84.462 173.05 84.422C173.597 84.3686 174.097 84.3286 174.55 84.302C175.004 84.262 175.364 84.242 175.63 84.242C176.23 84.242 176.77 84.342 177.25 84.542C177.744 84.7286 178.137 85.0686 178.43 85.562C178.737 86.042 178.89 86.7353 178.89 87.642C178.89 88.4286 178.85 89.282 178.77 90.202C178.69 91.1086 178.564 91.9753 178.39 92.802C178.23 93.6153 178.01 94.302 177.73 94.862C177.424 95.5286 177.024 95.9686 176.53 96.182C176.037 96.4086 175.464 96.522 174.81 96.522C174.424 96.522 174.01 96.4886 173.57 96.422C173.144 96.3686 172.77 96.3086 172.45 96.242L172.19 94.562C172.47 94.6553 172.764 94.7353 173.07 94.802C173.377 94.8553 173.67 94.902 173.95 94.942C174.23 94.9686 174.457 94.982 174.63 94.982C175.004 94.982 175.337 94.922 175.63 94.802C175.924 94.6686 176.177 94.382 176.39 93.942C176.604 93.4886 176.777 92.922 176.91 92.242C177.057 91.562 177.164 90.8353 177.23 90.062C177.297 89.2886 177.33 88.542 177.33 87.822C177.33 87.2086 177.244 86.7486 177.07 86.442C176.897 86.1353 176.65 85.9286 176.33 85.822C176.01 85.7153 175.637 85.662 175.21 85.662C174.877 85.662 174.424 85.6886 173.85 85.742C173.277 85.782 172.664 85.8353 172.01 85.902C171.357 85.9553 170.75 86.0153 170.19 86.082C169.644 86.1486 169.217 86.1953 168.91 86.222C168.67 86.2486 168.37 86.2886 168.01 86.342C167.664 86.382 167.364 86.422 167.11 86.462L166.93 84.742ZM181.25 79.762C181.424 79.9886 181.604 80.2686 181.79 80.602C181.99 80.922 182.19 81.2553 182.39 81.602C182.59 81.9353 182.757 82.2353 182.89 82.502L181.79 82.982C181.67 82.7153 181.517 82.4153 181.33 82.082C181.144 81.7486 180.95 81.4153 180.75 81.082C180.55 80.7486 180.357 80.4553 180.17 80.202L181.25 79.762ZM183.45 78.942C183.624 79.1953 183.817 79.4886 184.03 79.822C184.244 80.1553 184.45 80.4886 184.65 80.822C184.85 81.142 185.01 81.4286 185.13 81.682L184.05 82.162C183.837 81.722 183.577 81.2486 183.27 80.742C182.964 80.222 182.67 79.7753 182.39 79.402L183.45 78.942ZM32.4503 105.022H44.9103V106.462H32.4503V105.022ZM41.9303 105.562H43.4303V119.422C43.4303 119.942 43.3569 120.335 43.2103 120.602C43.0636 120.869 42.8036 121.069 42.4303 121.202C42.0703 121.309 41.5569 121.375 40.8903 121.402C40.2236 121.442 39.3969 121.462 38.4103 121.462C38.3836 121.235 38.3169 120.975 38.2103 120.682C38.1036 120.389 37.9903 120.129 37.8703 119.902C38.4036 119.915 38.9103 119.929 39.3903 119.942C39.8703 119.955 40.2836 119.955 40.6303 119.942C40.9903 119.942 41.2436 119.935 41.3903 119.922C41.6036 119.922 41.7436 119.889 41.8103 119.822C41.8903 119.742 41.9303 119.602 41.9303 119.402V105.562ZM33.0303 109.282H34.4503V117.602H33.0303V109.282ZM33.6903 109.282H39.3103V116.202H33.6903V114.882H37.9103V110.622H33.6903V109.282ZM30.9903 103.102L32.3903 103.522C31.9903 104.642 31.5169 105.749 30.9703 106.842C30.4369 107.922 29.8503 108.942 29.2103 109.902C28.5836 110.862 27.9303 111.722 27.2503 112.482C27.1969 112.362 27.1169 112.209 27.0103 112.022C26.9169 111.835 26.8103 111.649 26.6903 111.462C26.5836 111.262 26.4836 111.109 26.3903 111.002C27.0169 110.349 27.6103 109.602 28.1703 108.762C28.7436 107.909 29.2703 107.002 29.7503 106.042C30.2303 105.082 30.6436 104.102 30.9903 103.102ZM29.1103 108.322L30.5703 106.842L30.5903 106.862V121.462H29.1103V108.322ZM54.4103 104.282C54.3703 104.455 54.3303 104.649 54.2903 104.862C54.2503 105.062 54.2103 105.262 54.1703 105.462C54.1303 105.702 54.0703 106.029 53.9903 106.442C53.9236 106.855 53.8503 107.295 53.7703 107.762C53.6903 108.215 53.5969 108.649 53.4903 109.062C53.3569 109.635 53.1903 110.282 52.9903 111.002C52.7903 111.709 52.5636 112.462 52.3103 113.262C52.0569 114.062 51.7703 114.882 51.4503 115.722C51.1303 116.549 50.7769 117.375 50.3903 118.202C50.0036 119.015 49.5836 119.782 49.1303 120.502L47.4903 119.862C47.9569 119.249 48.3836 118.562 48.7703 117.802C49.1703 117.042 49.5369 116.255 49.8703 115.442C50.2036 114.615 50.5036 113.802 50.7703 113.002C51.0503 112.202 51.2836 111.462 51.4703 110.782C51.6569 110.102 51.8036 109.515 51.9103 109.022C52.0969 108.222 52.2503 107.395 52.3703 106.542C52.4903 105.675 52.5503 104.855 52.5503 104.082L54.4103 104.282ZM61.2903 106.402C61.6103 106.815 61.9436 107.329 62.2903 107.942C62.6503 108.555 62.9969 109.209 63.3303 109.902C63.6769 110.595 63.9903 111.262 64.2703 111.902C64.5503 112.542 64.7769 113.095 64.9503 113.562L63.3903 114.302C63.2436 113.795 63.0436 113.215 62.7903 112.562C62.5369 111.895 62.2436 111.222 61.9103 110.542C61.5903 109.849 61.2503 109.202 60.8903 108.602C60.5436 107.989 60.1903 107.475 59.8303 107.062L61.2903 106.402ZM47.2103 108.662C47.5169 108.689 47.8103 108.702 48.0903 108.702C48.3703 108.689 48.6703 108.675 48.9903 108.662C49.2969 108.649 49.6836 108.629 50.1503 108.602C50.6169 108.562 51.1236 108.522 51.6703 108.482C52.2303 108.442 52.7769 108.402 53.3103 108.362C53.8569 108.309 54.3569 108.269 54.8103 108.242C55.2769 108.202 55.6436 108.182 55.9103 108.182C56.5103 108.182 57.0503 108.275 57.5303 108.462C58.0236 108.649 58.4169 108.989 58.7103 109.482C59.0036 109.975 59.1503 110.669 59.1503 111.562C59.1503 112.349 59.1103 113.202 59.0303 114.122C58.9636 115.029 58.8436 115.895 58.6703 116.722C58.4969 117.549 58.2703 118.235 57.9903 118.782C57.6836 119.462 57.2836 119.909 56.7903 120.122C56.2969 120.349 55.7236 120.462 55.0703 120.462C54.6969 120.462 54.2903 120.429 53.8503 120.362C53.4103 120.309 53.0303 120.242 52.7103 120.162L52.4503 118.502C52.7436 118.582 53.0369 118.655 53.3303 118.722C53.6369 118.789 53.9303 118.835 54.2103 118.862C54.4903 118.889 54.7236 118.902 54.9103 118.902C55.2703 118.902 55.5969 118.842 55.8903 118.722C56.1969 118.589 56.4503 118.309 56.6503 117.882C56.8636 117.429 57.0369 116.862 57.1703 116.182C57.3169 115.489 57.4236 114.755 57.4903 113.982C57.5703 113.209 57.6103 112.469 57.6103 111.762C57.6103 111.135 57.5236 110.675 57.3503 110.382C57.1769 110.075 56.9303 109.869 56.6103 109.762C56.2903 109.642 55.9169 109.582 55.4903 109.582C55.1436 109.582 54.6836 109.609 54.1103 109.662C53.5369 109.702 52.9236 109.755 52.2703 109.822C51.6303 109.889 51.0303 109.955 50.4703 110.022C49.9103 110.075 49.4769 110.122 49.1703 110.162C48.9436 110.189 48.6503 110.229 48.2903 110.282C47.9436 110.322 47.6369 110.362 47.3703 110.402L47.2103 108.662ZM76.9303 106.222C76.7969 107.262 76.6236 108.349 76.4103 109.482C76.2103 110.615 75.9503 111.715 75.6303 112.782C75.2303 114.155 74.7836 115.302 74.2903 116.222C73.8103 117.142 73.2903 117.835 72.7303 118.302C72.1703 118.769 71.5836 119.002 70.9703 119.002C70.3836 119.002 69.8169 118.789 69.2703 118.362C68.7236 117.935 68.2769 117.322 67.9303 116.522C67.5836 115.709 67.4103 114.755 67.4103 113.662C67.4103 112.569 67.6303 111.535 68.0703 110.562C68.5236 109.589 69.1436 108.729 69.9303 107.982C70.7303 107.222 71.6636 106.622 72.7303 106.182C73.7969 105.742 74.9369 105.522 76.1503 105.522C77.3236 105.522 78.3769 105.715 79.3103 106.102C80.2569 106.489 81.0636 107.022 81.7303 107.702C82.3969 108.369 82.9103 109.149 83.2703 110.042C83.6303 110.922 83.8103 111.869 83.8103 112.882C83.8103 114.282 83.5103 115.515 82.9103 116.582C82.3236 117.649 81.4703 118.515 80.3503 119.182C79.2436 119.849 77.8969 120.289 76.3103 120.502L75.3703 119.022C75.6903 118.982 75.9969 118.942 76.2903 118.902C76.5836 118.862 76.8503 118.815 77.0903 118.762C77.7303 118.615 78.3503 118.389 78.9503 118.082C79.5636 117.762 80.1103 117.362 80.5903 116.882C81.0703 116.389 81.4503 115.809 81.7303 115.142C82.0236 114.462 82.1703 113.689 82.1703 112.822C82.1703 112.009 82.0369 111.255 81.7703 110.562C81.5036 109.855 81.1103 109.235 80.5903 108.702C80.0703 108.169 79.4369 107.749 78.6903 107.442C77.9436 107.135 77.0903 106.982 76.1303 106.982C75.0369 106.982 74.0436 107.182 73.1503 107.582C72.2703 107.982 71.5169 108.509 70.8903 109.162C70.2769 109.802 69.8036 110.509 69.4703 111.282C69.1369 112.042 68.9703 112.789 68.9703 113.522C68.9703 114.362 69.0769 115.055 69.2903 115.602C69.5169 116.135 69.7836 116.529 70.0903 116.782C70.4103 117.035 70.7236 117.162 71.0303 117.162C71.3503 117.162 71.6769 117.009 72.0103 116.702C72.3436 116.382 72.6836 115.875 73.0303 115.182C73.3769 114.475 73.7169 113.562 74.0503 112.442C74.3436 111.482 74.5903 110.462 74.7903 109.382C75.0036 108.302 75.1569 107.242 75.2503 106.202L76.9303 106.222ZM100.15 107.222L101.73 107.702C100.89 110.142 99.8103 112.249 98.4903 114.022C97.1836 115.795 95.6103 117.289 93.7703 118.502C91.9436 119.715 89.8169 120.715 87.3903 121.502C87.3369 121.369 87.2503 121.215 87.1303 121.042C87.0236 120.869 86.9036 120.689 86.7703 120.502C86.6503 120.315 86.5369 120.169 86.4303 120.062C88.8036 119.369 90.8769 118.462 92.6503 117.342C94.4236 116.209 95.9303 114.815 97.1703 113.162C98.4103 111.495 99.4036 109.515 100.15 107.222ZM91.0503 107.342C91.7836 109.475 92.7703 111.395 94.0103 113.102C95.2636 114.795 96.7969 116.229 98.6103 117.402C100.424 118.575 102.537 119.449 104.95 120.022C104.83 120.129 104.697 120.269 104.55 120.442C104.417 120.629 104.284 120.815 104.15 121.002C104.03 121.189 103.93 121.349 103.85 121.482C101.384 120.842 99.2303 119.895 97.3903 118.642C95.5636 117.375 94.0103 115.835 92.7303 114.022C91.4503 112.195 90.3969 110.115 89.5703 107.782L91.0503 107.342ZM86.6503 106.482H104.73V107.942H86.6503V106.482ZM94.8503 103.082H96.3903V107.362H94.8503V103.082ZM110.31 108.862H119.91V110.242H110.31V108.862ZM107.07 113.882H124.29V115.322H107.07V113.882ZM114.87 112.382H116.47V119.622C116.47 120.062 116.397 120.402 116.25 120.642C116.117 120.882 115.87 121.069 115.51 121.202C115.164 121.322 114.71 121.389 114.15 121.402C113.604 121.429 112.91 121.442 112.07 121.442C112.03 121.295 111.97 121.129 111.89 120.942C111.824 120.769 111.744 120.595 111.65 120.422C111.57 120.249 111.49 120.089 111.41 119.942C111.864 119.955 112.297 119.962 112.71 119.962C113.124 119.975 113.477 119.982 113.77 119.982C114.077 119.982 114.29 119.982 114.41 119.982C114.597 119.969 114.717 119.935 114.77 119.882C114.837 119.815 114.87 119.715 114.87 119.582V112.382ZM119.47 108.862H119.85L120.19 108.782L121.17 109.542C120.744 110.022 120.244 110.509 119.67 111.002C119.11 111.482 118.517 111.942 117.89 112.382C117.277 112.809 116.664 113.175 116.05 113.482C115.957 113.349 115.824 113.202 115.65 113.042C115.477 112.869 115.33 112.729 115.21 112.622C115.744 112.342 116.277 112.002 116.81 111.602C117.344 111.202 117.844 110.789 118.31 110.362C118.777 109.935 119.164 109.535 119.47 109.162V108.862ZM114.83 103.042H116.41V106.282H114.83V103.042ZM107.25 105.242H124.05V109.962H122.51V106.682H108.73V109.962H107.25V105.242ZM134.77 106.382C135.317 106.462 135.95 106.529 136.67 106.582C137.404 106.622 138.157 106.642 138.93 106.642C139.717 106.629 140.464 106.602 141.17 106.562C141.89 106.509 142.497 106.442 142.99 106.362V107.982C142.457 108.035 141.83 108.082 141.11 108.122C140.404 108.149 139.664 108.162 138.89 108.162C138.13 108.162 137.39 108.149 136.67 108.122C135.95 108.082 135.317 108.035 134.77 107.982V106.382ZM135.55 114.522C135.457 114.882 135.384 115.209 135.33 115.502C135.277 115.795 135.25 116.082 135.25 116.362C135.25 116.589 135.297 116.815 135.39 117.042C135.497 117.255 135.67 117.449 135.91 117.622C136.164 117.782 136.51 117.915 136.95 118.022C137.39 118.115 137.95 118.162 138.63 118.162C139.537 118.162 140.39 118.122 141.19 118.042C141.99 117.949 142.79 117.815 143.59 117.642L143.63 119.322C143.004 119.455 142.27 119.562 141.43 119.642C140.604 119.709 139.67 119.742 138.63 119.742C136.95 119.742 135.717 119.475 134.93 118.942C134.157 118.409 133.77 117.675 133.77 116.742C133.77 116.409 133.797 116.055 133.85 115.682C133.917 115.295 134.004 114.862 134.11 114.382L135.55 114.522ZM130.95 104.842C130.924 104.949 130.884 105.089 130.83 105.262C130.79 105.422 130.744 105.589 130.69 105.762C130.65 105.922 130.617 106.062 130.59 106.182C130.524 106.555 130.444 106.989 130.35 107.482C130.257 107.962 130.164 108.482 130.07 109.042C129.99 109.589 129.91 110.149 129.83 110.722C129.764 111.282 129.704 111.829 129.65 112.362C129.61 112.895 129.59 113.389 129.59 113.842C129.59 114.335 129.604 114.802 129.63 115.242C129.67 115.682 129.717 116.149 129.77 116.642C129.89 116.335 130.017 116.009 130.15 115.662C130.284 115.315 130.417 114.975 130.55 114.642C130.697 114.295 130.824 113.989 130.93 113.722L131.77 114.362C131.597 114.842 131.41 115.369 131.21 115.942C131.01 116.515 130.83 117.069 130.67 117.602C130.524 118.122 130.417 118.535 130.35 118.842C130.324 118.989 130.297 119.149 130.27 119.322C130.244 119.495 130.237 119.635 130.25 119.742C130.264 119.849 130.27 119.962 130.27 120.082C130.284 120.215 130.297 120.335 130.31 120.442L128.87 120.542C128.67 119.835 128.497 118.929 128.35 117.822C128.204 116.702 128.13 115.469 128.13 114.122C128.13 113.389 128.164 112.642 128.23 111.882C128.297 111.109 128.384 110.362 128.49 109.642C128.597 108.909 128.697 108.242 128.79 107.642C128.897 107.029 128.977 106.515 129.03 106.102C129.07 105.862 129.104 105.622 129.13 105.382C129.157 105.129 129.17 104.895 129.17 104.682L130.95 104.842ZM150.505 121.002C150.078 120.469 149.611 119.935 149.105 119.402C148.598 118.869 148.085 118.355 147.565 117.862C147.058 117.369 146.565 116.929 146.085 116.542L147.385 115.402C147.865 115.789 148.371 116.235 148.905 116.742C149.438 117.249 149.958 117.769 150.465 118.302C150.985 118.835 151.451 119.349 151.865 119.842L150.505 121.002ZM170.505 121.002C170.078 120.469 169.611 119.935 169.105 119.402C168.598 118.869 168.085 118.355 167.565 117.862C167.058 117.369 166.565 116.929 166.085 116.542L167.385 115.402C167.865 115.789 168.371 116.235 168.905 116.742C169.438 117.249 169.958 117.769 170.465 118.302C170.985 118.835 171.451 119.349 171.865 119.842L170.505 121.002Z" fill="black"/>
<path d="M40.3414 52.402V66.9475H38.58V54.2486H38.4948L34.9436 56.6066V54.8168L38.58 52.402H40.3414ZM39.1056 73.3395C37.5952 73.3395 36.1558 73.1099 34.7874 72.6506C33.4238 72.1913 32.1714 71.5426 31.0303 70.7046C29.8939 69.8712 28.9067 68.884 28.0686 67.7429C27.2353 66.6066 26.589 65.3566 26.1297 63.9929C25.6704 62.6246 25.4408 61.1852 25.4408 59.6747C25.4408 58.1643 25.6704 56.7273 26.1297 55.3637C26.589 53.9953 27.2353 52.7429 28.0686 51.6066C28.9067 50.4655 29.8939 49.4782 31.0303 48.6449C32.1714 47.8068 33.4238 47.1582 34.7874 46.6989C36.1558 46.2396 37.5952 46.01 39.1056 46.01C40.616 46.01 42.053 46.2396 43.4167 46.6989C44.785 47.1582 46.0374 47.8068 47.1738 48.6449C48.3149 49.4782 49.3021 50.4655 50.1354 51.6066C50.9735 52.7429 51.6221 53.9953 52.0814 55.3637C52.5407 56.7273 52.7704 58.1643 52.7704 59.6747C52.7704 61.1852 52.5407 62.6246 52.0814 63.9929C51.6221 65.3566 50.9735 66.6066 50.1354 67.7429C49.3021 68.884 48.3149 69.8712 47.1738 70.7046C46.0374 71.5426 44.785 72.1913 43.4167 72.6506C42.053 73.1099 40.616 73.3395 39.1056 73.3395ZM39.1056 71.6918C40.4361 71.6918 41.7003 71.4882 42.8982 71.081C44.1008 70.6785 45.2017 70.108 46.2007 69.3693C47.2045 68.6354 48.0734 67.769 48.8073 66.7699C49.5459 65.7661 50.1165 64.6653 50.5189 63.4674C50.9214 62.2647 51.1226 61.0005 51.1226 59.6747C51.1226 58.3443 50.9214 57.08 50.5189 55.8821C50.1165 54.6795 49.5459 53.5786 48.8073 52.5796C48.0734 51.5758 47.2045 50.7069 46.2007 49.973C45.2017 49.2344 44.1008 48.6639 42.8982 48.2614C41.7003 47.8589 40.4361 47.6577 39.1056 47.6577C37.7751 47.6577 36.5085 47.8589 35.3059 48.2614C34.1079 48.6639 33.0071 49.2344 32.0033 49.973C31.0043 50.7069 30.1354 51.5758 29.3968 52.5796C28.6629 53.5786 28.0947 54.6795 27.6922 55.8821C27.2898 57.08 27.0885 58.3443 27.0885 59.6747C27.0885 61.0005 27.2898 62.2647 27.6922 63.4674C28.0947 64.6653 28.6629 65.7661 29.3968 66.7699C30.1354 67.769 31.0043 68.6354 32.0033 69.3693C33.0071 70.108 34.1079 70.6785 35.3059 71.081C36.5085 71.4882 37.7751 71.6918 39.1056 71.6918ZM59.3865 51.5675C59.3598 51.7941 59.3332 52.0541 59.3065 52.3475C59.2798 52.6275 59.2665 52.9075 59.2665 53.1875C59.2665 53.3608 59.2665 53.7075 59.2665 54.2275C59.2665 54.7341 59.2665 55.3475 59.2665 56.0675C59.2665 56.7741 59.2665 57.5275 59.2665 58.3275C59.2665 59.1141 59.2665 59.8741 59.2665 60.6075C59.2665 61.3408 59.2665 61.9875 59.2665 62.5475C59.2665 63.0941 59.2665 63.4941 59.2665 63.7475C59.2665 64.2541 59.3798 64.6075 59.6065 64.8075C59.8332 64.9941 60.1865 65.1341 60.6665 65.2275C60.9865 65.2808 61.3865 65.3208 61.8665 65.3475C62.3465 65.3741 62.8332 65.3875 63.3265 65.3875C63.8465 65.3875 64.4132 65.3741 65.0265 65.3475C65.6532 65.3208 66.2798 65.2808 66.9065 65.2275C67.5332 65.1741 68.1265 65.1075 68.6865 65.0275C69.2598 64.9475 69.7532 64.8541 70.1665 64.7475V66.5675C69.5932 66.6608 68.8998 66.7408 68.0865 66.8075C67.2865 66.8608 66.4598 66.9075 65.6065 66.9475C64.7532 66.9741 63.9665 66.9875 63.2465 66.9875C62.6465 66.9875 62.0665 66.9741 61.5065 66.9475C60.9465 66.9075 60.4532 66.8541 60.0265 66.7875C59.2665 66.6541 58.6798 66.3941 58.2665 66.0075C57.8532 65.6075 57.6465 65.0008 57.6465 64.1875C57.6465 63.8675 57.6465 63.4075 57.6465 62.8075C57.6465 62.1941 57.6465 61.5008 57.6465 60.7275C57.6465 59.9541 57.6465 59.1675 57.6465 58.3675C57.6465 57.5541 57.6465 56.7875 57.6465 56.0675C57.6465 55.3475 57.6465 54.7341 57.6465 54.2275C57.6465 53.7075 57.6465 53.3608 57.6465 53.1875C57.6465 53.0008 57.6398 52.8141 57.6265 52.6275C57.6132 52.4275 57.5998 52.2341 57.5865 52.0475C57.5732 51.8608 57.5532 51.7008 57.5265 51.5675H59.3865ZM58.5465 57.8675C59.1465 57.7341 59.8132 57.5675 60.5465 57.3675C61.2932 57.1675 62.0598 56.9475 62.8465 56.7075C63.6332 56.4675 64.3932 56.2208 65.1265 55.9675C65.8732 55.7008 66.5332 55.4408 67.1065 55.1875C67.4132 55.0541 67.7065 54.9141 67.9865 54.7675C68.2798 54.6208 68.5732 54.4541 68.8665 54.2675L69.5665 55.8875C69.2865 55.9941 68.9732 56.1208 68.6265 56.2675C68.2932 56.4141 67.9732 56.5475 67.6665 56.6675C67.0532 56.9208 66.3465 57.1875 65.5465 57.4675C64.7598 57.7341 63.9465 58.0008 63.1065 58.2675C62.2665 58.5208 61.4532 58.7608 60.6665 58.9875C59.8798 59.2008 59.1732 59.3808 58.5465 59.5275V57.8675ZM77.5465 52.2875C77.9065 52.5275 78.3198 52.8275 78.7865 53.1875C79.2532 53.5341 79.7265 53.9075 80.2065 54.3075C80.6998 54.6941 81.1598 55.0741 81.5865 55.4475C82.0132 55.8208 82.3665 56.1475 82.6465 56.4275L81.3865 57.6875C81.1332 57.4341 80.8065 57.1208 80.4065 56.7475C80.0065 56.3741 79.5665 55.9875 79.0865 55.5875C78.6065 55.1741 78.1332 54.7875 77.6665 54.4275C77.1998 54.0541 76.7798 53.7475 76.4065 53.5075L77.5465 52.2875ZM75.8265 65.6875C76.9998 65.5141 78.0665 65.2741 79.0265 64.9675C79.9998 64.6608 80.8865 64.3141 81.6865 63.9275C82.4865 63.5408 83.1998 63.1541 83.8265 62.7675C84.8532 62.1275 85.7998 61.3941 86.6665 60.5675C87.5332 59.7275 88.2932 58.8608 88.9465 57.9675C89.5998 57.0741 90.1198 56.2208 90.5065 55.4075L91.4665 57.1075C91.0132 57.9341 90.4532 58.7741 89.7865 59.6275C89.1198 60.4808 88.3665 61.3008 87.5265 62.0875C86.6865 62.8741 85.7598 63.5875 84.7465 64.2275C84.0798 64.6408 83.3465 65.0475 82.5465 65.4475C81.7598 65.8475 80.8932 66.2141 79.9465 66.5475C79.0132 66.8675 77.9932 67.1275 76.8865 67.3275L75.8265 65.6875ZM99.7465 65.1875C99.7465 65.0008 99.7465 64.6275 99.7465 64.0675C99.7465 63.4941 99.7465 62.8208 99.7465 62.0475C99.7465 61.2608 99.7465 60.4408 99.7465 59.5875C99.7465 58.7208 99.7465 57.8808 99.7465 57.0675C99.7465 56.2541 99.7465 55.5341 99.7465 54.9075C99.7465 54.2808 99.7465 53.8275 99.7465 53.5475C99.7465 53.2675 99.7332 52.9275 99.7065 52.5275C99.6798 52.1275 99.6398 51.7741 99.5865 51.4675H101.547C101.52 51.7608 101.487 52.1075 101.447 52.5075C101.42 52.9075 101.407 53.2541 101.407 53.5475C101.407 54.0675 101.407 54.6941 101.407 55.4275C101.407 56.1475 101.407 56.9208 101.407 57.7475C101.407 58.5608 101.407 59.3741 101.407 60.1875C101.42 60.9875 101.427 61.7408 101.427 62.4475C101.427 63.1408 101.427 63.7341 101.427 64.2275C101.427 64.7075 101.427 65.0275 101.427 65.1875C101.427 65.4008 101.427 65.6475 101.427 65.9275C101.44 66.2075 101.46 66.4941 101.487 66.7875C101.513 67.0675 101.533 67.3208 101.547 67.5475H99.6065C99.6598 67.2275 99.6932 66.8475 99.7065 66.4075C99.7332 65.9675 99.7465 65.5608 99.7465 65.1875ZM101.067 56.7075C101.72 56.9075 102.44 57.1475 103.227 57.4275C104.027 57.6941 104.84 57.9808 105.667 58.2875C106.493 58.5941 107.273 58.9075 108.007 59.2275C108.753 59.5341 109.4 59.8275 109.947 60.1075L109.267 61.8075C108.693 61.4875 108.047 61.1741 107.327 60.8675C106.607 60.5475 105.867 60.2341 105.107 59.9275C104.36 59.6208 103.633 59.3475 102.927 59.1075C102.233 58.8541 101.613 58.6475 101.067 58.4875V56.7075ZM114.171 63.9645V62.5157L120.563 52.402H121.614V54.6463H120.904L116.075 62.2884V62.402H124.683V63.9645H114.171ZM121.018 66.9475V63.5242V62.8495V52.402H122.694V66.9475H121.018Z" fill="black"/>
</svg>
