<svg width="211" height="150" viewBox="0 0 211 150" fill="none" xmlns="http://www.w3.org/2000/svg">
<rect width="210" height="148.5" transform="matrix(-1 0 0 -1 210.65 149.269)" fill="white"/>
<path d="M149.293 40.3002C149.032 40.3002 148.902 40.2247 148.902 40.0737C148.902 39.9227 149.015 39.8403 149.241 39.8266L150.415 39.6824C150.763 39.6412 150.998 39.5726 151.12 39.4764C151.242 39.3666 151.303 39.1675 151.303 38.8792V26.5224C151.303 26.3302 151.25 26.1929 151.146 26.1105C151.042 26.0281 150.824 25.9869 150.494 25.9869C149.85 25.9869 149.215 26.2066 148.589 26.646C147.963 27.0853 147.554 27.7924 147.362 28.7672L147.232 29.4468C147.197 29.6253 147.075 29.7146 146.867 29.7146C146.606 29.7146 146.493 29.5979 146.527 29.3645L146.762 25.6368C146.797 25.321 146.954 25.1631 147.232 25.1631C147.354 25.1631 147.467 25.1906 147.571 25.2455C147.675 25.2867 147.849 25.3348 148.093 25.3897C148.354 25.4446 148.763 25.4721 149.319 25.4721H155.139C155.695 25.4721 156.095 25.4446 156.339 25.3897C156.6 25.3348 156.783 25.2867 156.887 25.2455C157.009 25.1906 157.122 25.1631 157.226 25.1631C157.504 25.1631 157.661 25.321 157.696 25.6368L157.931 29.3645C157.965 29.5979 157.852 29.7146 157.591 29.7146C157.383 29.7146 157.261 29.6253 157.226 29.4468L157.096 28.7672C156.922 27.7924 156.522 27.0853 155.895 26.646C155.269 26.2066 154.625 25.9869 153.964 25.9869C153.634 25.9869 153.416 26.0281 153.312 26.1105C153.208 26.1929 153.155 26.3302 153.155 26.5224V38.8792C153.155 39.1675 153.216 39.3666 153.338 39.4764C153.477 39.5726 153.712 39.6412 154.043 39.6824L155.217 39.8266C155.443 39.8403 155.556 39.9227 155.556 40.0737C155.556 40.2247 155.426 40.3002 155.165 40.3002H149.293Z" fill="black"/>
<path d="M140.593 40.4856C140.245 40.4856 139.854 40.4581 139.419 40.4032C139.001 40.3483 138.601 40.2796 138.218 40.1973C137.853 40.1149 137.566 40.0256 137.357 39.9295C137.236 39.8746 137.14 39.8197 137.07 39.7648C137.018 39.6961 136.992 39.5863 136.992 39.4353L136.862 36.2019C136.862 35.9273 136.975 35.79 137.201 35.79C137.392 35.79 137.523 35.9136 137.592 36.1607L137.827 36.9433C138.418 38.9067 139.523 39.8883 141.141 39.8883C142.011 39.8883 142.698 39.6618 143.203 39.2087C143.724 38.7419 143.985 38.0897 143.985 37.2522C143.985 36.4422 143.716 35.687 143.176 34.9868C142.655 34.2866 141.811 33.5932 140.645 32.9067C139.358 32.1791 138.418 31.4788 137.827 30.8061C137.236 30.1196 136.94 29.3919 136.94 28.6231C136.94 27.607 137.383 26.797 138.271 26.1929C139.175 25.575 140.323 25.2661 141.715 25.2661C142.237 25.2661 142.741 25.3142 143.229 25.4103C143.716 25.5064 144.116 25.6437 144.429 25.8222C144.533 25.8771 144.612 25.9389 144.664 26.0075C144.733 26.0762 144.768 26.1654 144.768 26.2753L144.846 29.3851C144.846 29.6185 144.733 29.7352 144.507 29.7352C144.351 29.7352 144.238 29.6391 144.168 29.4468L143.985 28.932C143.603 27.8748 143.203 27.1059 142.785 26.6254C142.385 26.1311 141.802 25.884 141.037 25.884C140.289 25.884 139.688 26.0762 139.236 26.4606C138.801 26.845 138.584 27.3874 138.584 28.0876C138.584 28.678 138.827 29.2409 139.314 29.7764C139.802 30.3118 140.654 30.964 141.872 31.7329C143.176 32.5704 144.125 33.3804 144.716 34.163C145.325 34.9319 145.629 35.7557 145.629 36.6344C145.629 37.4033 145.412 38.076 144.977 38.6527C144.542 39.2293 143.942 39.6824 143.176 40.0119C142.428 40.3277 141.567 40.4856 140.593 40.4856Z" fill="black"/>
<path d="M124.855 40.3002C124.594 40.3002 124.463 40.2247 124.463 40.0737C124.463 39.9501 124.576 39.8678 124.803 39.8266L125.403 39.7442C125.768 39.6893 126.003 39.6137 126.107 39.5176C126.229 39.4215 126.29 39.2293 126.29 38.941V26.8313C126.29 26.543 126.229 26.3508 126.107 26.2547C126.003 26.1586 125.768 26.083 125.403 26.0281L124.803 25.9457C124.576 25.9046 124.463 25.8222 124.463 25.6986C124.463 25.5476 124.594 25.4721 124.855 25.4721H133.622C134.023 25.4721 134.24 25.63 134.275 25.9457L134.484 29.3645C134.518 29.5979 134.405 29.7146 134.144 29.7146C133.936 29.7146 133.814 29.6253 133.779 29.4468L133.622 28.6848C133.431 27.7512 133.04 27.0716 132.448 26.646C131.857 26.2066 131.039 25.9869 129.995 25.9869C129.299 25.9869 128.812 26.0693 128.534 26.2341C128.273 26.3851 128.143 26.6597 128.143 27.0579V32.0212C128.143 32.2134 128.264 32.3095 128.508 32.3095H129.813C130.578 32.3095 131.048 31.9869 131.222 31.3416L131.483 30.3118C131.552 30.1059 131.7 30.0166 131.926 30.0441C132.118 30.0715 132.213 30.1883 132.213 30.3942V35.028C132.213 35.2339 132.118 35.3506 131.926 35.3781C131.7 35.4056 131.552 35.3163 131.483 35.1104L131.222 34.1012C131.1 33.6207 130.926 33.3049 130.7 33.1539C130.491 33.0029 130.187 32.9273 129.787 32.9273H128.508C128.264 32.9273 128.143 33.0235 128.143 33.2157V38.3849C128.143 38.8792 128.299 39.2362 128.612 39.4559C128.943 39.6755 129.534 39.7854 130.387 39.7854C131.257 39.7854 131.996 39.6137 132.605 39.2705C133.231 38.9135 133.666 38.2545 133.91 37.2934L134.223 36.0783C134.275 35.8998 134.405 35.8106 134.614 35.8106C134.858 35.8106 134.962 35.9273 134.927 36.1607L134.666 39.8266C134.631 40.1423 134.414 40.3002 134.014 40.3002H124.855Z" fill="black"/>
<path d="M117.153 40.4856C116.214 40.4856 115.379 40.314 114.648 39.9707C113.935 39.6137 113.378 39.1263 112.978 38.5085C112.578 37.8769 112.378 37.1561 112.378 36.3461V26.8313C112.378 26.543 112.317 26.3508 112.195 26.2547C112.091 26.1586 111.856 26.083 111.491 26.0281L110.891 25.9457C110.664 25.9046 110.551 25.8222 110.551 25.6986C110.551 25.5476 110.682 25.4721 110.943 25.4721H115.718C115.979 25.4721 116.11 25.5544 116.11 25.7192C116.11 25.8428 116.014 25.9183 115.823 25.9457L115.118 26.0281C114.77 26.0693 114.535 26.1448 114.413 26.2547C114.292 26.3645 114.231 26.5636 114.231 26.8519V36.3667C114.231 37.4101 114.526 38.2202 115.118 38.7968C115.709 39.3735 116.536 39.6618 117.597 39.6618C118.676 39.6618 119.511 39.3735 120.102 38.7968C120.694 38.2202 120.989 37.4101 120.989 36.3667V27.2638C120.989 26.5224 120.694 26.1105 120.102 26.0281L119.397 25.9457C119.206 25.9183 119.11 25.8428 119.11 25.7192C119.11 25.5544 119.241 25.4721 119.502 25.4721H123.259C123.52 25.4721 123.651 25.5476 123.651 25.6986C123.651 25.8222 123.538 25.9046 123.312 25.9457L122.711 26.0281C122.12 26.1105 121.824 26.5155 121.824 27.2432V36.3461C121.824 37.5955 121.398 38.5977 120.546 39.3529C119.693 40.108 118.562 40.4856 117.153 40.4856Z" fill="black"/>
<path d="M93.1333 10.3143C94.0275 9.30319 95.0997 9.00331 96.0487 9.21296C96.888 9.39843 97.6001 9.97831 97.9632 10.7445C98.7823 10.0136 99.5764 9.80922 100.308 9.99406C100.981 10.164 101.532 10.6488 101.953 11.189C103.146 9.96241 104.383 9.68895 105.453 9.96465C106.473 10.2276 107.287 10.9769 107.723 11.7317C108.966 11.5091 109.767 11.7394 110.189 12.3044C110.562 12.8049 110.554 13.4653 110.434 13.9953C110.962 14.3952 111.307 14.7878 111.492 15.1749C111.702 15.6157 111.696 16.0363 111.533 16.4055C111.376 16.7617 111.084 17.0439 110.767 17.2557C110.539 17.4074 110.288 17.5298 110.037 17.623C110.211 18.2495 110.22 18.7872 110.081 19.2375C109.919 19.7652 109.567 20.1356 109.129 20.3708C108.362 20.7835 107.323 20.79 106.453 20.5684C106.227 21.1086 105.946 21.5283 105.604 21.8285C105.203 22.1816 104.737 22.3549 104.231 22.3785C103.298 22.4221 102.248 21.9575 101.177 21.2553C98.7282 23.1379 95.8567 23.6224 93.8183 23.6224C91.9521 23.6224 90.3854 23.6319 88.6704 23.6368C86.9345 23.6417 85.0489 23.6419 82.5531 23.6224L82.5581 22.9995C85.0511 23.0189 86.9343 23.0187 88.6686 23.0138C89.6687 23.011 90.6201 23.0067 91.6105 23.0035C91.9897 23.3859 92.5153 23.6227 93.0963 23.6227C93.6918 23.6227 94.2287 23.3734 94.6097 22.9741C96.5198 22.8539 98.9221 22.2733 100.967 20.6285L101.146 20.484L101.337 20.6134C102.456 21.3736 103.43 21.7924 104.201 21.7563C104.575 21.7389 104.904 21.6148 105.193 21.3606C105.487 21.1021 105.755 20.6945 105.972 20.086L106.074 19.8004L106.362 19.8947C107.185 20.1637 108.183 20.1723 108.834 19.822C109.149 19.6528 109.378 19.4036 109.486 19.0545C109.595 18.6986 109.589 18.202 109.355 17.5247L109.247 17.2128L109.565 17.1233C109.857 17.041 110.163 16.9093 110.421 16.7376C110.681 16.5643 110.87 16.3642 110.963 16.1539C111.05 15.9564 111.064 15.7256 110.929 15.4429C110.789 15.1477 110.481 14.7872 109.9 14.3755L109.718 14.2462L109.781 14.0323C109.93 13.5335 109.935 13.0058 109.69 12.6773C109.466 12.3774 108.921 12.1079 107.623 12.3864L107.384 12.4377L107.277 12.2177C106.945 11.5312 106.209 10.8026 105.297 10.5678C104.418 10.3412 103.308 10.5581 102.161 11.8841L101.894 12.1923L101.667 11.8539C101.255 11.2405 100.736 10.7444 100.156 10.5979C99.6095 10.46 98.9108 10.6106 98.0645 11.5175L97.6763 11.9336L97.535 11.3823C97.3375 10.6116 96.6954 9.99393 95.9145 9.82135C95.1536 9.65321 94.2156 9.9011 93.4085 10.9597L93.1805 11.2591L92.9291 10.979C92.5754 10.585 92.0074 10.305 91.4765 10.3684C90.9808 10.4276 90.4073 10.8029 90.0508 11.9547L89.9902 12.1511L89.7861 12.1724C88.9901 12.2564 88.5832 12.5876 88.4497 12.938C88.3154 13.2905 88.4054 13.7987 88.9012 14.3501L89.0772 14.5457L88.9138 14.7518C88.6218 15.1205 88.3181 15.6706 88.282 16.1456C88.2647 16.3731 88.3097 16.5632 88.4258 16.7155C88.5432 16.8694 88.7632 17.0242 89.1714 17.12L89.0291 17.7264C88.5269 17.6085 88.1607 17.3952 87.9305 17.0933C87.6991 16.7899 87.6351 16.4363 87.6608 16.0983C87.7031 15.5424 87.9906 14.9774 88.2739 14.5695C87.81 13.9661 87.6451 13.3006 87.8677 12.7162C88.0973 12.1135 88.6945 11.7135 89.5191 11.5799C89.9326 10.4064 90.6274 9.84251 91.4029 9.74995C92.0498 9.67276 92.6789 9.93558 93.1333 10.3143Z" fill="black"/>
<path d="M69.3749 40.0737C69.3749 40.2247 69.5054 40.3002 69.7663 40.3002H75.6376C75.8986 40.3002 76.029 40.2247 76.029 40.0737C76.029 39.9227 75.916 39.8403 75.6898 39.8266L74.5155 39.6824C74.185 39.6412 73.9502 39.5726 73.811 39.4764C73.6892 39.3666 73.6283 39.1675 73.6283 38.8792V33.8541C73.6283 33.6344 73.6544 33.4422 73.7066 33.2774C73.7588 33.099 73.8458 32.9136 73.9676 32.7214L77.386 27.305C77.6817 26.8519 77.9165 26.5293 78.0905 26.337C79.2599 25.045 80.9527 23.6972 82.5531 23.6224L82.5581 22.9995C78.9664 22.6564 77.4156 25.8137 76.5248 27.2844L73.4457 32.2477C73.3761 32.3438 73.2891 32.3919 73.1847 32.3919C73.0803 32.3919 72.9934 32.3438 72.9238 32.2477L69.7141 26.8519C69.5402 26.5636 69.5141 26.3508 69.6359 26.2135C69.7576 26.0762 69.9664 26.0007 70.2621 25.9869L70.7579 25.9457C71.0537 25.932 71.2015 25.8496 71.2015 25.6986C71.2015 25.5476 71.0798 25.4721 70.8362 25.4721H66.374C66.1131 25.4721 65.9826 25.5407 65.9826 25.678C65.9826 25.8153 66.1044 25.9046 66.3479 25.9457L66.5828 25.9869C66.8785 26.0419 67.1047 26.1311 67.2612 26.2547C67.4178 26.3782 67.557 26.5567 67.6788 26.7901L71.5147 33.1333C71.6886 33.4216 71.7756 33.7168 71.7756 34.0189V38.8792C71.7756 39.1675 71.7147 39.3666 71.5929 39.4764C71.4712 39.5726 71.2363 39.6412 70.8884 39.6824L69.7141 39.8266C69.488 39.8403 69.3749 39.9227 69.3749 40.0737Z" fill="black"/>
<path d="M64.1409 40.4856C63.8626 40.4856 63.6277 40.3208 63.4364 39.9913L56.3647 27.8816C56.3125 27.7855 56.2429 27.7443 56.156 27.7581C56.0864 27.7718 56.0516 27.8336 56.0516 27.9434V38.5291C56.0516 38.9135 56.1299 39.2087 56.2864 39.4147C56.4604 39.6069 56.7648 39.7305 57.1997 39.7854L57.539 39.8266C57.7651 39.8403 57.8782 39.9227 57.8782 40.0737C57.8782 40.2247 57.7477 40.3002 57.4868 40.3002H53.7552C53.4943 40.3002 53.3638 40.2247 53.3638 40.0737C53.3638 39.9227 53.4769 39.8403 53.7031 39.8266L54.0423 39.7854C54.4946 39.7305 54.8077 39.6069 54.9817 39.4147C55.1557 39.2087 55.2426 38.9135 55.2426 38.5291V26.8313C55.2426 26.543 55.1818 26.3508 55.06 26.2547C54.9556 26.1586 54.7034 26.083 54.3032 26.0281L53.7031 25.9457C53.4769 25.9046 53.3638 25.8222 53.3638 25.6986C53.3638 25.5476 53.4943 25.4721 53.7552 25.4721H56.5474C56.9823 25.4721 57.2867 25.6231 57.4607 25.9252L63.619 36.6138C63.6712 36.6962 63.7321 36.7305 63.8017 36.7168C63.8887 36.703 63.9322 36.655 63.9322 36.5726V27.2432C63.9322 26.8039 63.8365 26.5018 63.6451 26.337C63.4537 26.1586 63.2102 26.0487 62.9145 26.0075L62.4448 25.9457C62.2186 25.9046 62.1055 25.8222 62.1055 25.6986C62.1055 25.5476 62.236 25.4721 62.4969 25.4721H66.2285C66.4894 25.4721 66.6199 25.5476 66.6199 25.6986C66.6199 25.8496 66.5068 25.932 66.2807 25.9457L65.9414 25.9869C65.4891 26.0419 65.176 26.1586 65.002 26.337C64.8281 26.5018 64.7411 26.8039 64.7411 27.2432V39.8266C64.7411 40.0737 64.6802 40.2453 64.5584 40.3414C64.454 40.4375 64.3149 40.4856 64.1409 40.4856Z" fill="black"/>
<path fill-rule="evenodd" clip-rule="evenodd" d="M82.0657 39.5382C83.0399 40.1698 84.2315 40.4856 85.6406 40.4856C86.3539 40.4856 86.9802 40.4307 87.5194 40.3208C88.0587 40.2247 88.5371 40.0943 88.9546 39.9295C89.2156 39.8197 89.3983 39.7236 89.5026 39.6412C89.607 39.5451 89.6592 39.4215 89.6592 39.2705V33.6893C89.6592 33.401 89.694 33.1951 89.7636 33.0715C89.4351 33.0715 88.891 32.9605 88.3732 32.8549C88.0899 32.7971 87.8144 32.7409 87.5865 32.7054C86.8398 32.589 86.5277 32.6484 86.9193 32.8656C87.2846 32.893 87.5194 32.9617 87.6238 33.0715C87.7456 33.1813 87.8065 33.3804 87.8065 33.6687V38.179C87.8065 38.8517 87.6238 39.3117 87.2585 39.5588C86.8932 39.806 86.3539 39.9295 85.6406 39.9295C84.3185 39.9295 83.2312 39.3254 82.3788 38.1172C81.5438 36.8952 81.1263 35.1241 81.1263 32.8038C81.1263 30.5521 81.5351 28.8359 82.3527 27.6551C83.1877 26.4606 84.2402 25.8634 85.5102 25.8634C86.3626 25.8634 87.0323 26.0762 87.5194 26.5018C88.0065 26.9274 88.4415 27.71 88.8242 28.8496L89.0329 29.4674C89.0851 29.6459 89.2069 29.7352 89.3983 29.7352C89.607 29.7352 89.7114 29.6185 89.7114 29.3851L89.6331 26.2547C89.6331 26.0624 89.52 25.9183 89.2939 25.8222C88.8764 25.6574 88.3893 25.527 87.8326 25.4309C87.2759 25.321 86.6583 25.2661 85.9799 25.2661C84.6403 25.2661 83.4487 25.5819 82.4049 26.2135C81.3785 26.8313 80.5696 27.71 79.9781 28.8496C79.3866 29.9754 79.0909 31.2935 79.0909 32.8038C79.0909 34.369 79.3431 35.7282 79.8476 36.8815C80.3521 38.0211 81.0915 38.9067 82.0657 39.5382Z" fill="black"/>
<path fill-rule="evenodd" clip-rule="evenodd" d="M100.342 38.342C100.938 39.2405 101.699 39.7575 102.625 39.8933C102.716 40.1051 103.08 40.5434 103.079 40.6118C102.879 40.5452 102.467 40.4842 102.254 40.426C102.118 40.3886 101.989 40.3534 101.882 40.3208C100.977 40.0874 100.16 39.6206 99.4292 38.9204C99.1389 38.6298 98.8731 38.312 98.6318 37.9668C99.1195 38.1142 100.144 38.3956 100.342 38.342ZM99.1943 32.8656C99.1943 34.7878 99.4222 36.3144 99.8779 37.4453C99.7347 37.437 98.5323 36.9992 97.949 36.7814C97.8731 36.62 97.8011 36.4543 97.733 36.2843C97.3329 35.2408 97.1329 34.1012 97.1329 32.8656C97.1329 31.7946 97.2807 30.7992 97.5765 29.8793C97.8896 28.9594 98.3158 28.1562 98.8551 27.4698C99.4118 26.7695 100.055 26.2272 100.786 25.8428C101.517 25.4583 102.3 25.2661 103.135 25.2661C103.97 25.2661 104.744 25.4583 105.457 25.8428C106.188 26.2272 106.831 26.7695 107.388 27.4698C107.945 28.1562 108.371 28.9594 108.667 29.8793C108.98 30.7992 109.136 31.7946 109.136 32.8656C109.136 34.1287 108.919 35.2957 108.484 36.3667C108.067 37.4238 107.484 38.3026 106.736 39.0028C106.145 39.5688 105.486 39.9733 104.759 40.2164C104.618 40.0828 104.331 39.7972 104.31 39.7238C105 39.4608 105.574 38.9459 106.031 38.179C106.727 37.012 107.075 35.2408 107.075 32.8656C107.075 30.4903 106.727 28.726 106.031 27.5727C105.335 26.4057 104.37 25.8222 103.135 25.8222C101.917 25.8222 100.951 26.4057 100.238 27.5727C99.5423 28.726 99.1943 30.4903 99.1943 32.8656Z" fill="black"/>
<path d="M84.5915 33.6893C85.0245 33.2225 86.3889 32.2666 88.1045 32.4644C90.2489 32.7115 95.7634 36.2688 97.4748 37.2233C97.7139 37.3567 98.0311 37.4912 98.4005 37.6156C98.9098 37.787 99.5186 37.939 100.16 38.042C100.656 38.1217 101.172 38.172 101.676 38.179C101.738 38.1798 101.8 38.1802 101.861 38.1801C101.774 38.0769 101.684 37.9733 101.592 37.8685C101.026 37.8705 100.485 37.8 99.9829 37.6899C99.2536 37.53 98.607 37.2868 98.0869 37.0613C97.8569 36.9616 97.6516 36.8654 97.4748 36.7814C96.1455 36.1498 90.9659 32.6939 88.6345 32.3095C86.7693 32.002 84.9622 33.0486 84.5915 33.6893Z" fill="black"/>
<path d="M102.536 38.1566C102.455 38.0537 102.369 37.9437 102.28 37.8296C102.047 37.8555 101.818 37.8677 101.592 37.8685C101.684 37.9733 101.774 38.0769 101.861 38.1801C102.095 38.1797 102.32 38.172 102.536 38.1566Z" fill="black"/>
<path d="M103.949 39.8358C103.692 39.8983 103.42 39.9295 103.135 39.9295C103.097 39.9295 103.059 39.929 103.022 39.9278C103.084 40.0919 103.134 40.1149 103.27 40.3493C103.406 40.5836 103.838 41.1459 104.014 41.5287C104.358 42.2755 104.799 42.8275 105.338 43.1847C105.877 43.5419 106.448 43.7623 107.049 43.8458C107.671 43.9405 108.239 43.9521 108.753 43.8806C109.352 43.7972 109.836 43.6672 110.202 43.4907C110.589 43.3253 110.902 43.1424 111.14 42.942C111.256 42.8283 111.303 42.7241 111.282 42.6294C111.258 42.5212 111.183 42.462 111.057 42.4516C110.931 42.4413 110.807 42.4794 110.685 42.5661C110.211 42.8969 109.76 43.0479 109.203 43.1696C108.606 43.3001 108.173 43.4148 107.323 43.1696C106.473 42.9245 106.106 42.603 105.623 41.8617C105.217 41.2402 104.569 40.5052 103.949 39.8358Z" fill="black"/>
<path fill-rule="evenodd" clip-rule="evenodd" d="M106.752 32.6494C107.147 33.7392 107.109 34.7062 106.151 36.213C106.05 36.3718 105.925 36.5236 105.795 36.6596C105.565 36.9008 105.32 37.0922 105.17 37.1847C104.644 37.5091 104.475 37.5906 104.143 37.7323C103.52 37.9993 102.951 38.1272 102.536 38.1566C102.455 38.0537 102.369 37.9437 102.28 37.8296C102.561 37.7983 102.846 37.7472 103.135 37.6724C103.645 37.5402 104.257 37.2018 104.644 36.9339C104.918 36.7441 105.197 36.3961 105.218 36.3667C105.914 35.4157 106.333 34.4018 106.124 33.4679C106.055 33.1614 105.781 32.7548 105.346 32.7028C104.858 32.6447 104.085 32.8941 103.437 33.6687C102.848 32.7054 101.882 32.2427 100.905 32.536C100.675 32.6049 100.348 33.0532 100.238 33.5336C100.11 34.0961 100.222 35.1414 100.905 36.1583C101.054 36.3805 101.33 36.7017 101.622 37.0422C101.811 37.2621 102.007 37.4902 102.18 37.7049C102.141 37.7169 101.693 37.7301 101.475 37.7353C101.426 37.6804 101.375 37.6233 101.322 37.5647C101.061 37.2721 100.765 36.9411 100.543 36.6596C100.502 36.6078 100.462 36.5571 100.422 36.507C99.7306 35.6377 99.2071 34.9796 99.4292 33.1383C99.5285 32.3147 100.177 31.8026 100.967 31.6888C101.927 31.5504 103.062 31.9914 103.54 33.0715C103.819 32.4504 104.646 31.8679 105.482 31.8767C105.946 31.8817 106.576 32.1623 106.752 32.6494Z" fill="black"/>
<path fill-rule="evenodd" clip-rule="evenodd" d="M103.949 39.8358C103.692 39.8983 103.42 39.9295 103.135 39.9295C103.097 39.9295 103.059 39.929 103.022 39.9278C102.901 39.6101 102.779 39.4355 102.551 39.1099C102.483 39.0131 102.406 38.903 102.316 38.7718C102.219 38.6281 102.11 38.4853 101.994 38.342C102.193 38.334 102.602 38.3137 102.647 38.2967C102.719 38.3888 102.786 38.473 102.844 38.5466C102.919 38.6411 102.98 38.7181 103.022 38.7718C103.368 39.2128 103.693 39.5614 103.882 39.7645C103.907 39.7907 103.929 39.8145 103.949 39.8358Z" fill="black"/>
<circle cx="90.6827" cy="25.0272" r="1" stroke="black" stroke-width="0.505019"/>
<circle cx="90.6827" cy="25.0272" r="1" stroke="black" stroke-width="0.505019"/>
<path d="M94.4526 21.5304C94.4526 20.7812 93.8455 20.1738 93.0963 20.1738C92.3472 20.1738 91.7398 20.7812 91.7398 21.5304C91.7398 22.2795 92.3472 22.8867 93.0963 22.8867V23.4015L93 23.3993C92.0432 23.3508 91.276 22.5835 91.2274 21.6266L91.2249 21.5304C91.2249 20.4968 92.0628 19.6589 93.0963 19.6589L93.1926 19.6614C94.1814 19.7116 94.9675 20.5292 94.9675 21.5304L94.9652 21.6266C94.9151 22.6153 94.0975 23.4015 93.0963 23.4015V22.8867C93.8454 22.8866 94.4526 22.2795 94.4526 21.5304Z" fill="black"/>
<path d="M94.4526 21.5304C94.4526 20.7812 93.8455 20.1738 93.0963 20.1738C92.3472 20.1738 91.7398 20.7812 91.7398 21.5304C91.7398 22.2795 92.3472 22.8867 93.0963 22.8867V23.4015L93 23.3993C92.0432 23.3508 91.276 22.5835 91.2274 21.6266L91.2249 21.5304C91.2249 20.4968 92.0628 19.6589 93.0963 19.6589L93.1926 19.6614C94.1814 19.7116 94.9675 20.5292 94.9675 21.5304L94.9652 21.6266C94.9151 22.6153 94.0975 23.4015 93.0963 23.4015V22.8867C93.8454 22.8866 94.4526 22.2795 94.4526 21.5304Z" fill="black"/>
<path d="M34.3473 63.9645V62.5157L40.7394 52.402H41.7905V54.6463H41.0803L36.2507 62.2884V62.402H44.8587V63.9645H34.3473ZM41.1939 66.9475V63.5242V62.8495V52.402H42.8701V66.9475H41.1939ZM40.4553 73.3395C38.9449 73.3395 37.5055 73.1099 36.1371 72.6506C34.7735 72.1913 33.5211 71.5426 32.38 70.7046C31.2436 69.8712 30.2564 68.884 29.4183 67.7429C28.585 66.6066 27.9387 65.3566 27.4794 63.9929C27.0201 62.6246 26.7905 61.1852 26.7905 59.6747C26.7905 58.1643 27.0201 56.7273 27.4794 55.3637C27.9387 53.9953 28.585 52.7429 29.4183 51.6066C30.2564 50.4655 31.2436 49.4782 32.38 48.6449C33.5211 47.8068 34.7735 47.1582 36.1371 46.6989C37.5055 46.2396 38.9449 46.01 40.4553 46.01C41.9657 46.01 43.4027 46.2396 44.7664 46.6989C46.1347 47.1582 47.3871 47.8068 48.5235 48.6449C49.6646 49.4782 50.6518 50.4655 51.4851 51.6066C52.3232 52.7429 52.9718 53.9953 53.4311 55.3637C53.8904 56.7273 54.1201 58.1643 54.1201 59.6747C54.1201 61.1852 53.8904 62.6246 53.4311 63.9929C52.9718 65.3566 52.3232 66.6066 51.4851 67.7429C50.6518 68.884 49.6646 69.8712 48.5235 70.7046C47.3871 71.5426 46.1347 72.1913 44.7664 72.6506C43.4027 73.1099 41.9657 73.3395 40.4553 73.3395ZM40.4553 71.6918C41.7858 71.6918 43.05 71.4882 44.2479 71.081C45.4505 70.6785 46.5514 70.108 47.5504 69.3693C48.5542 68.6354 49.4231 67.769 50.157 66.7699C50.8956 65.7661 51.4662 64.6653 51.8686 63.4674C52.2711 62.2647 52.4723 61.0005 52.4723 59.6747C52.4723 58.3443 52.2711 57.08 51.8686 55.8821C51.4662 54.6795 50.8956 53.5786 50.157 52.5796C49.4231 51.5758 48.5542 50.7069 47.5504 49.973C46.5514 49.2344 45.4505 48.6639 44.2479 48.2614C43.05 47.8589 41.7858 47.6577 40.4553 47.6577C39.1248 47.6577 37.8582 47.8589 36.6556 48.2614C35.4576 48.6639 34.3568 49.2344 33.353 49.973C32.354 50.7069 31.4851 51.5758 30.7465 52.5796C30.0126 53.5786 29.4444 54.6795 29.0419 55.8821C28.6395 57.08 28.4382 58.3443 28.4382 59.6747C28.4382 61.0005 28.6395 62.2647 29.0419 63.4674C29.4444 64.6653 30.0126 65.7661 30.7465 66.7699C31.4851 67.769 32.354 68.6354 33.353 69.3693C34.3568 70.108 35.4576 70.6785 36.6556 71.081C37.8582 71.4882 39.1248 71.6918 40.4553 71.6918ZM60.7362 51.5675C60.7095 51.7941 60.6829 52.0541 60.6562 52.3475C60.6295 52.6275 60.6162 52.9075 60.6162 53.1875C60.6162 53.3608 60.6162 53.7075 60.6162 54.2275C60.6162 54.7341 60.6162 55.3475 60.6162 56.0675C60.6162 56.7741 60.6162 57.5275 60.6162 58.3275C60.6162 59.1141 60.6162 59.8741 60.6162 60.6075C60.6162 61.3408 60.6162 61.9875 60.6162 62.5475C60.6162 63.0941 60.6162 63.4941 60.6162 63.7475C60.6162 64.2541 60.7295 64.6075 60.9562 64.8075C61.1829 64.9941 61.5362 65.1341 62.0162 65.2275C62.3362 65.2808 62.7362 65.3208 63.2162 65.3475C63.6962 65.3741 64.1829 65.3875 64.6762 65.3875C65.1962 65.3875 65.7629 65.3741 66.3762 65.3475C67.0029 65.3208 67.6295 65.2808 68.2562 65.2275C68.8829 65.1741 69.4762 65.1075 70.0362 65.0275C70.6095 64.9475 71.1029 64.8541 71.5162 64.7475V66.5675C70.9429 66.6608 70.2495 66.7408 69.4362 66.8075C68.6362 66.8608 67.8095 66.9075 66.9562 66.9475C66.1029 66.9741 65.3162 66.9875 64.5962 66.9875C63.9962 66.9875 63.4162 66.9741 62.8562 66.9475C62.2962 66.9075 61.8029 66.8541 61.3762 66.7875C60.6162 66.6541 60.0295 66.3941 59.6162 66.0075C59.2029 65.6075 58.9962 65.0008 58.9962 64.1875C58.9962 63.8675 58.9962 63.4075 58.9962 62.8075C58.9962 62.1941 58.9962 61.5008 58.9962 60.7275C58.9962 59.9541 58.9962 59.1675 58.9962 58.3675C58.9962 57.5541 58.9962 56.7875 58.9962 56.0675C58.9962 55.3475 58.9962 54.7341 58.9962 54.2275C58.9962 53.7075 58.9962 53.3608 58.9962 53.1875C58.9962 53.0008 58.9895 52.8141 58.9762 52.6275C58.9629 52.4275 58.9495 52.2341 58.9362 52.0475C58.9229 51.8608 58.9029 51.7008 58.8762 51.5675H60.7362ZM59.8962 57.8675C60.4962 57.7341 61.1629 57.5675 61.8962 57.3675C62.6429 57.1675 63.4095 56.9475 64.1962 56.7075C64.9829 56.4675 65.7429 56.2208 66.4762 55.9675C67.2229 55.7008 67.8829 55.4408 68.4562 55.1875C68.7629 55.0541 69.0562 54.9141 69.3362 54.7675C69.6295 54.6208 69.9229 54.4541 70.2162 54.2675L70.9162 55.8875C70.6362 55.9941 70.3229 56.1208 69.9762 56.2675C69.6429 56.4141 69.3229 56.5475 69.0162 56.6675C68.4029 56.9208 67.6962 57.1875 66.8962 57.4675C66.1095 57.7341 65.2962 58.0008 64.4562 58.2675C63.6162 58.5208 62.8029 58.7608 62.0162 58.9875C61.2295 59.2008 60.5229 59.3808 59.8962 59.5275V57.8675ZM78.8962 52.2875C79.2562 52.5275 79.6695 52.8275 80.1362 53.1875C80.6029 53.5341 81.0762 53.9075 81.5562 54.3075C82.0495 54.6941 82.5095 55.0741 82.9362 55.4475C83.3629 55.8208 83.7162 56.1475 83.9962 56.4275L82.7362 57.6875C82.4829 57.4341 82.1562 57.1208 81.7562 56.7475C81.3562 56.3741 80.9162 55.9875 80.4362 55.5875C79.9562 55.1741 79.4829 54.7875 79.0162 54.4275C78.5495 54.0541 78.1295 53.7475 77.7562 53.5075L78.8962 52.2875ZM77.1762 65.6875C78.3495 65.5141 79.4162 65.2741 80.3762 64.9675C81.3495 64.6608 82.2362 64.3141 83.0362 63.9275C83.8362 63.5408 84.5495 63.1541 85.1762 62.7675C86.2029 62.1275 87.1495 61.3941 88.0162 60.5675C88.8829 59.7275 89.6429 58.8608 90.2962 57.9675C90.9495 57.0741 91.4695 56.2208 91.8562 55.4075L92.8162 57.1075C92.3629 57.9341 91.8029 58.7741 91.1362 59.6275C90.4695 60.4808 89.7162 61.3008 88.8762 62.0875C88.0362 62.8741 87.1095 63.5875 86.0962 64.2275C85.4295 64.6408 84.6962 65.0475 83.8962 65.4475C83.1095 65.8475 82.2429 66.2141 81.2962 66.5475C80.3629 66.8675 79.3429 67.1275 78.2362 67.3275L77.1762 65.6875ZM101.096 65.1875C101.096 65.0008 101.096 64.6275 101.096 64.0675C101.096 63.4941 101.096 62.8208 101.096 62.0475C101.096 61.2608 101.096 60.4408 101.096 59.5875C101.096 58.7208 101.096 57.8808 101.096 57.0675C101.096 56.2541 101.096 55.5341 101.096 54.9075C101.096 54.2808 101.096 53.8275 101.096 53.5475C101.096 53.2675 101.083 52.9275 101.056 52.5275C101.03 52.1275 100.99 51.7741 100.936 51.4675H102.896C102.87 51.7608 102.836 52.1075 102.796 52.5075C102.77 52.9075 102.756 53.2541 102.756 53.5475C102.756 54.0675 102.756 54.6941 102.756 55.4275C102.756 56.1475 102.756 56.9208 102.756 57.7475C102.756 58.5608 102.756 59.3741 102.756 60.1875C102.77 60.9875 102.776 61.7408 102.776 62.4475C102.776 63.1408 102.776 63.7341 102.776 64.2275C102.776 64.7075 102.776 65.0275 102.776 65.1875C102.776 65.4008 102.776 65.6475 102.776 65.9275C102.79 66.2075 102.81 66.4941 102.836 66.7875C102.863 67.0675 102.883 67.3208 102.896 67.5475H100.956C101.01 67.2275 101.043 66.8475 101.056 66.4075C101.083 65.9675 101.096 65.5608 101.096 65.1875ZM102.416 56.7075C103.07 56.9075 103.79 57.1475 104.576 57.4275C105.376 57.6941 106.19 57.9808 107.016 58.2875C107.843 58.5941 108.623 58.9075 109.356 59.2275C110.103 59.5341 110.75 59.8275 111.296 60.1075L110.616 61.8075C110.043 61.4875 109.396 61.1741 108.676 60.8675C107.956 60.5475 107.216 60.2341 106.456 59.9275C105.71 59.6208 104.983 59.3475 104.276 59.1075C103.583 58.8541 102.963 58.6475 102.416 58.4875V56.7075ZM115.862 66.9475V65.6691L120.663 60.4134C121.226 59.7978 121.69 59.2628 122.055 58.8083C122.42 58.349 122.69 57.9181 122.865 57.5157C123.045 57.1085 123.135 56.6823 123.135 56.2372C123.135 55.7259 123.012 55.2832 122.765 54.9091C122.524 54.5351 122.192 54.2462 121.771 54.0426C121.35 53.839 120.876 53.7372 120.351 53.7372C119.792 53.7372 119.304 53.8532 118.887 54.0853C118.476 54.3125 118.156 54.6321 117.929 55.0441C117.706 55.456 117.595 55.9389 117.595 56.4929H115.919C115.919 55.6407 116.115 54.8925 116.508 54.2486C116.901 53.6047 117.436 53.1028 118.113 52.7429C118.795 52.3831 119.56 52.2032 120.407 52.2032C121.26 52.2032 122.015 52.3831 122.673 52.7429C123.331 53.1028 123.847 53.5881 124.221 54.1989C124.595 54.8097 124.782 55.4891 124.782 56.2372C124.782 56.7723 124.685 57.2955 124.491 57.8068C124.302 58.3135 123.97 58.8793 123.497 59.5043C123.028 60.1246 122.377 60.8821 121.544 61.777L118.277 65.2713V65.385H125.038V66.9475H115.862ZM27.728 111.965V110.516L34.1201 100.402H35.1712V102.646H34.461L29.6314 110.288V110.402H38.2394V111.965H27.728ZM34.5746 114.947V111.524V110.849V100.402H36.2507V114.947H34.5746ZM51.6953 99.5875H58.1153V100.927H51.6953V99.5875ZM51.0353 104.407H58.5953V105.747H51.0353V104.407ZM55.0153 104.947H56.4153V114.807C56.4153 115.194 56.3619 115.501 56.2553 115.727C56.1486 115.967 55.9486 116.147 55.6553 116.267C55.3753 116.387 55.0019 116.454 54.5353 116.467C54.0686 116.494 53.4819 116.507 52.7753 116.507C52.7486 116.307 52.6819 116.074 52.5753 115.807C52.4819 115.541 52.3819 115.314 52.2753 115.127C52.8086 115.141 53.2953 115.147 53.7353 115.147C54.1886 115.147 54.4886 115.147 54.6353 115.147C54.7819 115.134 54.8819 115.101 54.9353 115.047C54.9886 115.007 55.0153 114.921 55.0153 114.787V104.947ZM48.4953 106.127L49.7153 104.887L49.7953 104.927V116.487H48.4953V106.127ZM49.9353 102.567L51.2153 103.007C50.8686 103.754 50.4619 104.501 49.9953 105.247C49.5286 105.981 49.0419 106.681 48.5353 107.347C48.0286 108.001 47.5219 108.581 47.0153 109.087C46.9753 108.994 46.9019 108.874 46.7953 108.727C46.6886 108.567 46.5753 108.414 46.4553 108.267C46.3353 108.107 46.2286 107.981 46.1353 107.887C46.8553 107.207 47.5553 106.394 48.2353 105.447C48.9153 104.501 49.4819 103.541 49.9353 102.567ZM49.5753 98.3875L50.8153 98.8275C50.4953 99.4141 50.1219 100.001 49.6953 100.587C49.2819 101.174 48.8486 101.727 48.3953 102.247C47.9419 102.767 47.4953 103.234 47.0553 103.647C47.0019 103.554 46.9219 103.434 46.8153 103.287C46.7086 103.141 46.5886 102.994 46.4553 102.847C46.3353 102.701 46.2353 102.587 46.1553 102.507C46.7953 101.987 47.4153 101.361 48.0153 100.627C48.6286 99.8941 49.1486 99.1475 49.5753 98.3875ZM40.4153 102.007H45.8153V103.407H40.4153V102.007ZM42.7553 98.1475H44.0553V116.527H42.7553V98.1475ZM42.6553 102.847L43.5153 103.127C43.3953 103.887 43.2353 104.687 43.0353 105.527C42.8353 106.367 42.6086 107.194 42.3553 108.007C42.1153 108.821 41.8486 109.581 41.5553 110.287C41.2753 110.981 40.9819 111.574 40.6753 112.067C40.6219 111.947 40.5486 111.807 40.4553 111.647C40.3753 111.474 40.2886 111.307 40.1953 111.147C40.1153 110.987 40.0286 110.861 39.9353 110.767C40.2286 110.327 40.5086 109.801 40.7753 109.187C41.0553 108.561 41.3153 107.887 41.5553 107.167C41.8086 106.447 42.0286 105.721 42.2153 104.987C42.4019 104.241 42.5486 103.527 42.6553 102.847ZM43.8953 104.587C44.0019 104.721 44.1619 104.961 44.3753 105.307C44.5886 105.641 44.8153 106.014 45.0553 106.427C45.3086 106.827 45.5353 107.201 45.7353 107.547C45.9486 107.894 46.0953 108.141 46.1753 108.287L45.4153 109.327C45.3219 109.087 45.1819 108.774 44.9953 108.387C44.8086 108.001 44.6019 107.594 44.3753 107.167C44.1619 106.727 43.9553 106.334 43.7553 105.987C43.5686 105.627 43.4153 105.354 43.2953 105.167L43.8953 104.587ZM70.6753 101.287C70.5419 102.327 70.3686 103.414 70.1553 104.547C69.9553 105.681 69.6953 106.781 69.3753 107.847C68.9753 109.221 68.5286 110.367 68.0353 111.287C67.5553 112.207 67.0353 112.901 66.4753 113.367C65.9153 113.834 65.3286 114.067 64.7153 114.067C64.1286 114.067 63.5619 113.854 63.0153 113.427C62.4686 113.001 62.0219 112.387 61.6753 111.587C61.3286 110.774 61.1553 109.821 61.1553 108.727C61.1553 107.634 61.3753 106.601 61.8153 105.627C62.2686 104.654 62.8886 103.794 63.6753 103.047C64.4753 102.287 65.4086 101.687 66.4753 101.247C67.5419 100.807 68.6819 100.587 69.8953 100.587C71.0686 100.587 72.1219 100.781 73.0553 101.167C74.0019 101.554 74.8086 102.087 75.4753 102.767C76.1419 103.434 76.6553 104.214 77.0153 105.107C77.3753 105.987 77.5553 106.934 77.5553 107.947C77.5553 109.347 77.2553 110.581 76.6553 111.647C76.0686 112.714 75.2153 113.581 74.0953 114.247C72.9886 114.914 71.6419 115.354 70.0553 115.567L69.1153 114.087C69.4353 114.047 69.7419 114.007 70.0353 113.967C70.3286 113.927 70.5953 113.881 70.8353 113.827C71.4753 113.681 72.0953 113.454 72.6953 113.147C73.3086 112.827 73.8553 112.427 74.3353 111.947C74.8153 111.454 75.1953 110.874 75.4753 110.207C75.7686 109.527 75.9153 108.754 75.9153 107.887C75.9153 107.074 75.7819 106.321 75.5153 105.627C75.2486 104.921 74.8553 104.301 74.3353 103.767C73.8153 103.234 73.1819 102.814 72.4353 102.507C71.6886 102.201 70.8353 102.047 69.8753 102.047C68.7819 102.047 67.7886 102.247 66.8953 102.647C66.0153 103.047 65.2619 103.574 64.6353 104.227C64.0219 104.867 63.5486 105.574 63.2153 106.347C62.8819 107.107 62.7153 107.854 62.7153 108.587C62.7153 109.427 62.8219 110.121 63.0353 110.667C63.2619 111.201 63.5286 111.594 63.8353 111.847C64.1553 112.101 64.4686 112.227 64.7753 112.227C65.0953 112.227 65.4219 112.074 65.7553 111.767C66.0886 111.447 66.4286 110.941 66.7753 110.247C67.1219 109.541 67.4619 108.627 67.7953 107.507C68.0886 106.547 68.3353 105.527 68.5353 104.447C68.7486 103.367 68.9019 102.307 68.9953 101.267L70.6753 101.287ZM80.1753 108.827H90.0153V110.067H80.1753V108.827ZM80.2953 101.827H89.9353V103.067H80.2953V101.827ZM83.8953 107.087L85.3153 107.407C85.0086 108.047 84.6686 108.734 84.2953 109.467C83.9353 110.187 83.5753 110.887 83.2153 111.567C82.8686 112.234 82.5419 112.834 82.2353 113.367L80.9153 112.907C81.2086 112.401 81.5353 111.814 81.8953 111.147C82.2553 110.481 82.6086 109.794 82.9553 109.087C83.3153 108.367 83.6286 107.701 83.8953 107.087ZM86.8953 109.567L88.2953 109.747C88.1353 110.721 87.8686 111.581 87.4953 112.327C87.1353 113.061 86.6553 113.701 86.0553 114.247C85.4686 114.781 84.7486 115.234 83.8953 115.607C83.0553 115.981 82.0553 116.294 80.8953 116.547C80.8419 116.347 80.7486 116.127 80.6153 115.887C80.4953 115.647 80.3686 115.447 80.2353 115.287C81.6353 115.047 82.7886 114.701 83.6953 114.247C84.6019 113.781 85.3086 113.167 85.8153 112.407C86.3353 111.634 86.6953 110.687 86.8953 109.567ZM88.1553 98.5275L89.4553 99.0875C89.1619 99.5541 88.8553 100.021 88.5353 100.487C88.2286 100.954 87.9353 101.354 87.6553 101.687L86.6353 101.187C86.8886 100.841 87.1619 100.414 87.4553 99.9075C87.7486 99.3875 87.9819 98.9275 88.1553 98.5275ZM84.4353 98.1275H85.8353V107.327H84.4353V98.1275ZM81.0553 99.0875L82.1753 98.6275C82.4686 99.0275 82.7353 99.4675 82.9753 99.9475C83.2286 100.427 83.4019 100.847 83.4953 101.207L82.2953 101.727C82.2153 101.381 82.0553 100.961 81.8153 100.467C81.5753 99.9608 81.3219 99.5008 81.0553 99.0875ZM84.4753 102.387L85.4753 102.967C85.1553 103.527 84.7419 104.087 84.2353 104.647C83.7419 105.207 83.2019 105.727 82.6153 106.207C82.0419 106.674 81.4686 107.067 80.8953 107.387C80.8153 107.214 80.6953 107.014 80.5353 106.787C80.3753 106.561 80.2219 106.381 80.0753 106.247C80.6353 105.994 81.1953 105.667 81.7553 105.267C82.3153 104.867 82.8353 104.414 83.3153 103.907C83.7953 103.401 84.1819 102.894 84.4753 102.387ZM85.6753 103.067C85.8486 103.161 86.1086 103.314 86.4553 103.527C86.8153 103.741 87.1953 103.974 87.5953 104.227C87.9953 104.481 88.3619 104.714 88.6953 104.927C89.0286 105.141 89.2686 105.307 89.4153 105.427L88.5753 106.507C88.4019 106.347 88.1553 106.141 87.8353 105.887C87.5153 105.634 87.1686 105.367 86.7953 105.087C86.4353 104.807 86.0886 104.541 85.7553 104.287C85.4219 104.034 85.1486 103.841 84.9353 103.707L85.6753 103.067ZM91.4753 101.827H98.5953V103.227H91.4753V101.827ZM91.9753 98.1275L93.4753 98.3475C93.2619 99.6541 92.9819 100.914 92.6353 102.127C92.3019 103.327 91.9086 104.447 91.4553 105.487C91.0019 106.514 90.4819 107.414 89.8953 108.187C89.8153 108.094 89.7019 107.987 89.5553 107.867C89.4086 107.734 89.2486 107.607 89.0753 107.487C88.9153 107.354 88.7819 107.247 88.6753 107.167C89.2353 106.461 89.7286 105.634 90.1553 104.687C90.5819 103.727 90.9419 102.694 91.2353 101.587C91.5419 100.467 91.7886 99.3141 91.9753 98.1275ZM95.8953 102.627L97.4353 102.787C97.1153 105.094 96.6353 107.121 95.9953 108.867C95.3686 110.614 94.5153 112.121 93.4353 113.387C92.3686 114.654 90.9953 115.727 89.3153 116.607C89.2619 116.474 89.1819 116.321 89.0753 116.147C88.9686 115.987 88.8553 115.821 88.7353 115.647C88.6286 115.487 88.5219 115.354 88.4153 115.247C90.0019 114.501 91.2953 113.554 92.2953 112.407C93.2953 111.247 94.0753 109.861 94.6353 108.247C95.2086 106.621 95.6286 104.747 95.8953 102.627ZM92.2753 103.067C92.5686 104.907 92.9819 106.634 93.5153 108.247C94.0619 109.847 94.7686 111.254 95.6353 112.467C96.5019 113.667 97.5553 114.594 98.7953 115.247C98.6753 115.354 98.5419 115.481 98.3953 115.627C98.2619 115.774 98.1353 115.927 98.0153 116.087C97.8953 116.247 97.7953 116.401 97.7153 116.547C96.4219 115.774 95.3286 114.741 94.4353 113.447C93.5419 112.141 92.8153 110.627 92.2553 108.907C91.6953 107.187 91.2486 105.314 90.9153 103.287L92.2753 103.067ZM82.1153 112.647L82.8953 111.627C83.6953 111.921 84.4886 112.261 85.2753 112.647C86.0619 113.021 86.7953 113.407 87.4753 113.807C88.1553 114.207 88.7353 114.594 89.2153 114.967L88.1753 116.047C87.7219 115.661 87.1686 115.267 86.5153 114.867C85.8619 114.467 85.1553 114.074 84.3953 113.687C83.6486 113.301 82.8886 112.954 82.1153 112.647ZM115.675 103.007C115.449 103.154 115.209 103.294 114.955 103.427C114.702 103.561 114.429 103.701 114.135 103.847C113.802 104.034 113.389 104.247 112.895 104.487C112.402 104.727 111.875 104.994 111.315 105.287C110.755 105.581 110.195 105.887 109.635 106.207C109.075 106.527 108.549 106.847 108.055 107.167C107.122 107.767 106.389 108.401 105.855 109.067C105.335 109.734 105.075 110.447 105.075 111.207C105.075 112.034 105.469 112.694 106.255 113.187C107.055 113.667 108.242 113.907 109.815 113.907C110.549 113.907 111.309 113.881 112.095 113.827C112.882 113.761 113.635 113.674 114.355 113.567C115.089 113.461 115.709 113.347 116.215 113.227V115.007C115.722 115.101 115.135 115.181 114.455 115.247C113.789 115.327 113.069 115.387 112.295 115.427C111.522 115.481 110.722 115.507 109.895 115.507C108.949 115.507 108.082 115.427 107.295 115.267C106.509 115.121 105.822 114.887 105.235 114.567C104.662 114.247 104.215 113.827 103.895 113.307C103.575 112.774 103.415 112.134 103.415 111.387C103.415 110.654 103.569 109.981 103.875 109.367C104.182 108.741 104.622 108.147 105.195 107.587C105.769 107.027 106.449 106.487 107.235 105.967C107.742 105.621 108.282 105.287 108.855 104.967C109.442 104.634 110.015 104.314 110.575 104.007C111.135 103.701 111.655 103.421 112.135 103.167C112.629 102.914 113.042 102.701 113.375 102.527C113.655 102.354 113.909 102.201 114.135 102.067C114.362 101.921 114.582 101.761 114.795 101.587L115.675 103.007ZM105.555 99.3875C105.862 100.241 106.189 101.074 106.535 101.887C106.895 102.701 107.255 103.461 107.615 104.167C107.989 104.874 108.329 105.501 108.635 106.047L107.255 106.867C106.922 106.321 106.569 105.674 106.195 104.927C105.822 104.181 105.449 103.387 105.075 102.547C104.702 101.707 104.335 100.874 103.975 100.047L105.555 99.3875ZM123.855 100.987C123.829 101.147 123.802 101.347 123.775 101.587C123.762 101.827 123.742 102.067 123.715 102.307C123.702 102.547 123.695 102.754 123.695 102.927C123.682 103.341 123.675 103.814 123.675 104.347C123.689 104.867 123.702 105.414 123.715 105.987C123.742 106.547 123.782 107.107 123.835 107.667C123.942 108.774 124.122 109.747 124.375 110.587C124.629 111.414 124.935 112.061 125.295 112.527C125.669 112.994 126.089 113.227 126.555 113.227C126.809 113.227 127.055 113.114 127.295 112.887C127.535 112.647 127.762 112.334 127.975 111.947C128.202 111.547 128.402 111.107 128.575 110.627C128.762 110.134 128.915 109.641 129.035 109.147L130.295 110.567C129.895 111.701 129.489 112.601 129.075 113.267C128.675 113.921 128.262 114.394 127.835 114.687C127.422 114.981 126.989 115.127 126.535 115.127C125.909 115.127 125.302 114.901 124.715 114.447C124.129 113.981 123.622 113.234 123.195 112.207C122.769 111.167 122.462 109.787 122.275 108.067C122.209 107.481 122.155 106.847 122.115 106.167C122.089 105.487 122.069 104.841 122.055 104.227C122.055 103.614 122.055 103.114 122.055 102.727C122.055 102.501 122.049 102.207 122.035 101.847C122.022 101.487 121.982 101.187 121.915 100.947L123.855 100.987ZM134.275 101.547C134.635 102.001 134.975 102.534 135.295 103.147C135.629 103.747 135.929 104.394 136.195 105.087C136.475 105.767 136.722 106.474 136.935 107.207C137.162 107.941 137.342 108.674 137.475 109.407C137.622 110.127 137.729 110.821 137.795 111.487L136.195 112.147C136.115 111.241 135.975 110.321 135.775 109.387C135.575 108.441 135.329 107.527 135.035 106.647C134.742 105.754 134.402 104.914 134.015 104.127C133.629 103.341 133.195 102.661 132.715 102.087L134.275 101.547ZM145.635 99.1675C146.182 99.2875 146.809 99.4075 147.515 99.5275C148.222 99.6341 148.949 99.7408 149.695 99.8475C150.442 99.9408 151.149 100.021 151.815 100.087C152.495 100.141 153.069 100.187 153.535 100.227L153.315 101.707C152.822 101.667 152.242 101.607 151.575 101.527C150.922 101.447 150.235 101.361 149.515 101.267C148.795 101.174 148.075 101.074 147.355 100.967C146.649 100.847 145.989 100.734 145.375 100.627L145.635 99.1675ZM153.935 104.887C153.749 105.021 153.549 105.174 153.335 105.347C153.122 105.521 152.955 105.667 152.835 105.787C152.635 105.961 152.362 106.207 152.015 106.527C151.682 106.834 151.322 107.174 150.935 107.547C150.562 107.907 150.202 108.247 149.855 108.567C149.522 108.887 149.262 109.147 149.075 109.347C149.182 109.334 149.309 109.334 149.455 109.347C149.615 109.347 149.749 109.361 149.855 109.387C150.242 109.427 150.555 109.574 150.795 109.827C151.049 110.081 151.242 110.414 151.375 110.827C151.442 111.014 151.509 111.241 151.575 111.507C151.655 111.774 151.735 112.047 151.815 112.327C151.895 112.594 151.969 112.841 152.035 113.067C152.169 113.441 152.362 113.714 152.615 113.887C152.869 114.061 153.255 114.147 153.775 114.147C154.229 114.147 154.682 114.134 155.135 114.107C155.602 114.067 156.042 114.014 156.455 113.947C156.882 113.881 157.249 113.814 157.555 113.747L157.455 115.427C157.175 115.467 156.809 115.507 156.355 115.547C155.902 115.601 155.435 115.641 154.955 115.667C154.489 115.707 154.069 115.727 153.695 115.727C152.895 115.727 152.242 115.607 151.735 115.367C151.242 115.127 150.889 114.681 150.675 114.027C150.609 113.827 150.529 113.581 150.435 113.287C150.355 112.981 150.275 112.681 150.195 112.387C150.129 112.094 150.062 111.854 149.995 111.667C149.875 111.321 149.709 111.061 149.495 110.887C149.295 110.701 149.055 110.607 148.775 110.607C148.495 110.607 148.235 110.674 147.995 110.807C147.755 110.927 147.522 111.101 147.295 111.327C147.149 111.474 146.949 111.674 146.695 111.927C146.442 112.167 146.162 112.454 145.855 112.787C145.562 113.107 145.255 113.447 144.935 113.807C144.615 114.154 144.309 114.501 144.015 114.847C143.722 115.181 143.462 115.494 143.235 115.787L141.715 114.727C141.835 114.621 141.982 114.494 142.155 114.347C142.329 114.187 142.515 114.014 142.715 113.827C142.849 113.694 143.095 113.447 143.455 113.087C143.815 112.714 144.249 112.274 144.755 111.767C145.275 111.261 145.822 110.721 146.395 110.147C146.969 109.561 147.542 108.987 148.115 108.427C148.689 107.854 149.215 107.321 149.695 106.827C150.189 106.334 150.602 105.921 150.935 105.587C150.629 105.601 150.255 105.627 149.815 105.667C149.375 105.694 148.915 105.727 148.435 105.767C147.955 105.807 147.482 105.847 147.015 105.887C146.549 105.927 146.115 105.961 145.715 105.987C145.329 106.014 145.015 106.041 144.775 106.067C144.442 106.094 144.142 106.127 143.875 106.167C143.622 106.194 143.382 106.227 143.155 106.267L143.015 104.507C143.242 104.521 143.502 104.534 143.795 104.547C144.089 104.561 144.395 104.561 144.715 104.547C144.942 104.547 145.289 104.534 145.755 104.507C146.222 104.481 146.749 104.447 147.335 104.407C147.935 104.367 148.535 104.327 149.135 104.287C149.735 104.234 150.289 104.187 150.795 104.147C151.315 104.107 151.722 104.067 152.015 104.027C152.189 104.001 152.369 103.967 152.555 103.927C152.742 103.887 152.882 103.847 152.975 103.807L153.935 104.887ZM166.895 103.347C167.469 103.401 168.029 103.441 168.575 103.467C169.135 103.494 169.702 103.507 170.275 103.507C171.489 103.507 172.689 103.461 173.875 103.367C175.062 103.274 176.162 103.127 177.175 102.927V104.467C176.109 104.627 174.982 104.754 173.795 104.847C172.609 104.927 171.429 104.967 170.255 104.967C169.682 104.967 169.122 104.961 168.575 104.947C168.042 104.921 167.482 104.887 166.895 104.847V103.347ZM173.895 99.7475C173.855 99.9608 173.822 100.167 173.795 100.367C173.782 100.554 173.769 100.754 173.755 100.967C173.742 101.207 173.729 101.514 173.715 101.887C173.715 102.247 173.715 102.641 173.715 103.067C173.715 103.494 173.715 103.907 173.715 104.307C173.715 105.067 173.729 105.827 173.755 106.587C173.782 107.347 173.815 108.087 173.855 108.807C173.895 109.527 173.929 110.201 173.955 110.827C173.995 111.454 174.015 112.027 174.015 112.547C174.015 112.961 173.955 113.361 173.835 113.747C173.729 114.134 173.542 114.487 173.275 114.807C173.022 115.114 172.669 115.354 172.215 115.527C171.775 115.714 171.222 115.807 170.555 115.807C169.209 115.807 168.182 115.547 167.475 115.027C166.769 114.521 166.415 113.814 166.415 112.907C166.415 112.361 166.575 111.861 166.895 111.407C167.215 110.941 167.682 110.574 168.295 110.307C168.909 110.041 169.649 109.907 170.515 109.907C171.355 109.907 172.135 110.001 172.855 110.187C173.575 110.374 174.235 110.627 174.835 110.947C175.449 111.254 176.009 111.601 176.515 111.987C177.022 112.374 177.482 112.754 177.895 113.127L177.035 114.467C176.342 113.801 175.642 113.221 174.935 112.727C174.242 112.234 173.522 111.847 172.775 111.567C172.029 111.287 171.229 111.147 170.375 111.147C169.629 111.147 169.015 111.294 168.535 111.587C168.069 111.881 167.835 112.274 167.835 112.767C167.835 113.274 168.062 113.661 168.515 113.927C168.969 114.194 169.555 114.327 170.275 114.327C170.849 114.327 171.289 114.241 171.595 114.067C171.902 113.881 172.122 113.627 172.255 113.307C172.389 112.974 172.455 112.587 172.455 112.147C172.455 111.787 172.442 111.307 172.415 110.707C172.389 110.094 172.355 109.421 172.315 108.687C172.275 107.954 172.242 107.214 172.215 106.467C172.189 105.707 172.175 104.994 172.175 104.327C172.175 103.634 172.175 102.994 172.175 102.407C172.175 101.807 172.175 101.334 172.175 100.987C172.175 100.814 172.169 100.614 172.155 100.387C172.142 100.147 172.122 99.9341 172.095 99.7475H173.895ZM164.015 99.8875C163.975 99.9941 163.929 100.134 163.875 100.307C163.835 100.467 163.795 100.634 163.755 100.807C163.729 100.967 163.702 101.107 163.675 101.227C163.595 101.614 163.509 102.067 163.415 102.587C163.322 103.094 163.229 103.647 163.135 104.247C163.055 104.834 162.975 105.434 162.895 106.047C162.829 106.647 162.775 107.227 162.735 107.787C162.695 108.347 162.675 108.847 162.675 109.287C162.675 109.781 162.689 110.247 162.715 110.687C162.755 111.127 162.809 111.594 162.875 112.087C162.982 111.781 163.102 111.454 163.235 111.107C163.369 110.761 163.502 110.414 163.635 110.067C163.782 109.721 163.909 109.414 164.015 109.147L164.835 109.787C164.675 110.241 164.495 110.754 164.295 111.327C164.109 111.887 163.929 112.427 163.755 112.947C163.595 113.454 163.475 113.874 163.395 114.207C163.369 114.341 163.349 114.494 163.335 114.667C163.322 114.827 163.315 114.974 163.315 115.107C163.329 115.201 163.335 115.314 163.335 115.447C163.349 115.581 163.362 115.701 163.375 115.807L161.975 115.907C161.775 115.187 161.595 114.294 161.435 113.227C161.289 112.147 161.215 110.927 161.215 109.567C161.215 108.834 161.249 108.067 161.315 107.267C161.395 106.454 161.482 105.661 161.575 104.887C161.682 104.114 161.782 103.407 161.875 102.767C161.982 102.114 162.069 101.581 162.135 101.167C162.162 100.927 162.189 100.687 162.215 100.447C162.242 100.194 162.255 99.9541 162.255 99.7275L164.015 99.8875ZM175.615 99.1075C175.735 99.3341 175.869 99.6208 176.015 99.9675C176.162 100.301 176.309 100.641 176.455 100.987C176.602 101.321 176.715 101.621 176.795 101.887L175.775 102.247C175.682 101.954 175.569 101.641 175.435 101.307C175.302 100.974 175.169 100.641 175.035 100.307C174.902 99.9741 174.769 99.6741 174.635 99.4075L175.615 99.1075ZM177.615 98.4875C177.749 98.7275 177.889 99.0141 178.035 99.3475C178.182 99.6808 178.322 100.014 178.455 100.347C178.602 100.681 178.729 100.981 178.835 101.247L177.815 101.607C177.655 101.167 177.469 100.687 177.255 100.167C177.055 99.6341 176.849 99.1808 176.635 98.8075L177.615 98.4875Z" fill="black"/>
</svg>
