<svg width="211" height="149" viewBox="0 0 211 149" fill="none" xmlns="http://www.w3.org/2000/svg">
<rect width="210" height="148.5" transform="matrix(-1 0 0 -1 210.65 148.731)" fill="white"/>
<path d="M36.0483 51.0491C35.6483 51.6625 35.1483 52.3091 34.5483 52.9891C33.9616 53.6691 33.3083 54.3491 32.5883 55.0291C31.8683 55.7091 31.1016 56.3625 30.2883 56.9891C29.475 57.6158 28.6416 58.1825 27.7883 58.6891C27.7216 58.5691 27.635 58.4425 27.5283 58.3091C27.4216 58.1625 27.3083 58.0158 27.1883 57.8691C27.0683 57.7225 26.955 57.6025 26.8483 57.5091C27.715 57.0158 28.5616 56.4491 29.3883 55.8091C30.215 55.1691 30.995 54.4958 31.7283 53.7891C32.475 53.0691 33.1483 52.3491 33.7483 51.6291C34.3483 50.9091 34.8416 50.2158 35.2283 49.5491H36.7283C37.2483 50.2958 37.8483 51.0425 38.5283 51.7891C39.2083 52.5225 39.935 53.2291 40.7083 53.9091C41.495 54.5891 42.295 55.2225 43.1083 55.8091C43.935 56.3825 44.735 56.8758 45.5083 57.2891C45.3216 57.4625 45.1416 57.6691 44.9683 57.9091C44.795 58.1358 44.6416 58.3625 44.5083 58.5891C43.735 58.1225 42.9416 57.5891 42.1283 56.9891C41.3283 56.3891 40.5483 55.7558 39.7883 55.0891C39.0283 54.4091 38.3283 53.7291 37.6883 53.0491C37.0483 52.3558 36.5016 51.6891 36.0483 51.0491ZM31.7683 55.9291H40.5283V57.3291H31.7683V55.9291ZM29.1883 59.8491H41.3283V61.2891H29.1883V59.8491ZM41.0283 59.8491H41.2483L41.5283 59.7691L42.7083 60.1291C42.3883 60.8625 42.015 61.6958 41.5883 62.6291C41.175 63.5491 40.735 64.4825 40.2683 65.4291C39.815 66.3625 39.375 67.2491 38.9483 68.0891L37.3883 67.6491C37.7083 67.0358 38.0416 66.3825 38.3883 65.6891C38.735 64.9825 39.075 64.2825 39.4083 63.5891C39.7416 62.8958 40.0483 62.2425 40.3283 61.6291C40.6083 61.0158 40.8416 60.4891 41.0283 60.0491V59.8491ZM57.6083 50.5291C57.5816 50.7025 57.555 50.8958 57.5283 51.1091C57.515 51.3225 57.5016 51.5758 57.4883 51.8691C57.4883 52.0691 57.4816 52.3691 57.4683 52.7691C57.4683 53.1691 57.4683 53.6225 57.4683 54.1291C57.4683 54.6225 57.4683 55.1225 57.4683 55.6291C57.4683 56.1358 57.4683 56.6025 57.4683 57.0291C57.4683 57.6958 57.4816 58.3958 57.5083 59.1291C57.535 59.8625 57.5683 60.5758 57.6083 61.2691C57.6483 61.9625 57.6816 62.5958 57.7083 63.1691C57.735 63.7425 57.7483 64.1958 57.7483 64.5291C57.7483 64.9958 57.635 65.4425 57.4083 65.8691C57.195 66.2958 56.8283 66.6425 56.3083 66.9091C55.8016 67.1891 55.1083 67.3291 54.2283 67.3291C52.7883 67.3291 51.6883 67.0758 50.9283 66.5691C50.1683 66.0758 49.7883 65.3491 49.7883 64.3891C49.7883 63.7758 49.9683 63.2425 50.3283 62.7891C50.7016 62.3358 51.235 61.9825 51.9283 61.7291C52.6216 61.4625 53.4483 61.3291 54.4083 61.3291C55.4616 61.3291 56.4483 61.4558 57.3683 61.7091C58.3016 61.9491 59.155 62.2558 59.9283 62.6291C60.7016 63.0025 61.3883 63.3958 61.9883 63.8091C62.5883 64.2091 63.0816 64.5691 63.4683 64.8891L62.5483 66.3091C62.095 65.8825 61.5683 65.4558 60.9683 65.0291C60.3816 64.6025 59.735 64.2091 59.0283 63.8491C58.335 63.4891 57.5816 63.2025 56.7683 62.9891C55.9683 62.7625 55.115 62.6491 54.2083 62.6491C53.2483 62.6491 52.515 62.8091 52.0083 63.1291C51.515 63.4491 51.2683 63.8425 51.2683 64.3091C51.2683 64.6025 51.3616 64.8758 51.5483 65.1291C51.735 65.3691 52.035 65.5625 52.4483 65.7091C52.8616 65.8558 53.395 65.9291 54.0483 65.9291C54.435 65.9291 54.7883 65.8825 55.1083 65.7891C55.4283 65.6825 55.6816 65.5025 55.8683 65.2491C56.0683 64.9958 56.1683 64.6425 56.1683 64.1891C56.1683 63.8025 56.155 63.3025 56.1283 62.6891C56.115 62.0625 56.095 61.4025 56.0683 60.7091C56.0416 60.0025 56.015 59.3225 55.9883 58.6691C55.975 58.0158 55.9683 57.4691 55.9683 57.0291C55.9683 56.5758 55.9683 56.1158 55.9683 55.6491C55.9683 55.1691 55.9683 54.6958 55.9683 54.2291C55.9683 53.7625 55.9683 53.3158 55.9683 52.8891C55.9816 52.4625 55.9883 52.0758 55.9883 51.7291C55.9883 51.5691 55.9816 51.3625 55.9683 51.1091C55.955 50.8558 55.935 50.6625 55.9083 50.5291H57.6083ZM49.9483 52.7091C50.2816 52.7625 50.6683 52.8158 51.1083 52.8691C51.5483 52.9225 52.0083 52.9758 52.4883 53.0291C52.9816 53.0691 53.4483 53.1025 53.8883 53.1291C54.3416 53.1425 54.735 53.1491 55.0683 53.1491C56.335 53.1491 57.6283 53.1025 58.9483 53.0091C60.2816 52.9158 61.595 52.7625 62.8883 52.5491L62.8683 54.0091C62.135 54.0891 61.335 54.1691 60.4683 54.2491C59.6016 54.3291 58.7083 54.3958 57.7883 54.4491C56.8816 54.5025 55.9816 54.5291 55.0883 54.5291C54.6216 54.5291 54.0683 54.5091 53.4283 54.4691C52.7883 54.4291 52.155 54.3825 51.5283 54.3291C50.915 54.2758 50.395 54.2291 49.9683 54.1891L49.9483 52.7091ZM49.8483 56.9491C50.2083 57.0025 50.6083 57.0558 51.0483 57.1091C51.4883 57.1625 51.9416 57.2025 52.4083 57.2291C52.875 57.2558 53.3216 57.2825 53.7483 57.3091C54.175 57.3225 54.555 57.3291 54.8883 57.3291C55.8616 57.3291 56.8016 57.3091 57.7083 57.2691C58.6283 57.2158 59.5283 57.1491 60.4083 57.0691C61.3016 56.9758 62.1816 56.8625 63.0483 56.7291L63.0283 58.2291C62.3616 58.3225 61.695 58.4025 61.0283 58.4691C60.375 58.5225 59.715 58.5691 59.0483 58.6091C58.395 58.6491 57.7216 58.6825 57.0283 58.7091C56.3483 58.7225 55.6283 58.7291 54.8683 58.7291C54.415 58.7291 53.8883 58.7158 53.2883 58.6891C52.7016 58.6625 52.1016 58.6291 51.4883 58.5891C50.8883 58.5491 50.3483 58.5025 49.8683 58.4491L49.8483 56.9491ZM67.7283 53.2491C68.1016 53.2358 68.4416 53.2225 68.7483 53.2091C69.0683 53.1825 69.3216 53.1625 69.5083 53.1491C69.8283 53.1091 70.2883 53.0625 70.8883 53.0091C71.5016 52.9425 72.2016 52.8758 72.9883 52.8091C73.775 52.7291 74.6216 52.6491 75.5283 52.5691C76.435 52.4891 77.3483 52.4091 78.2683 52.3291C79.0016 52.2625 79.695 52.2091 80.3483 52.1691C81.0016 52.1158 81.6083 52.0758 82.1683 52.0491C82.7283 52.0091 83.2283 51.9825 83.6683 51.9691V53.5691C83.295 53.5691 82.8683 53.5758 82.3883 53.5891C81.9083 53.6025 81.435 53.6291 80.9683 53.6691C80.5016 53.7091 80.095 53.7825 79.7483 53.8891C79.0416 54.1158 78.4016 54.4625 77.8283 54.9291C77.2683 55.3825 76.7883 55.9091 76.3883 56.5091C75.9883 57.1091 75.6816 57.7291 75.4683 58.3691C75.2683 59.0091 75.1683 59.6291 75.1683 60.2291C75.1683 61.0025 75.3016 61.6825 75.5683 62.2691C75.835 62.8425 76.195 63.3291 76.6483 63.7291C77.115 64.1291 77.6416 64.4558 78.2283 64.7091C78.815 64.9625 79.435 65.1558 80.0883 65.2891C80.755 65.4091 81.415 65.4758 82.0683 65.4891L81.4883 67.1491C80.7416 67.1225 79.995 67.0158 79.2483 66.8291C78.5016 66.6558 77.7883 66.4025 77.1083 66.0691C76.4283 65.7225 75.8216 65.2891 75.2883 64.7691C74.755 64.2491 74.335 63.6425 74.0283 62.9491C73.7216 62.2558 73.5683 61.4625 73.5683 60.5691C73.5683 59.5291 73.7483 58.5691 74.1083 57.6891C74.4816 56.7958 74.955 56.0158 75.5283 55.3491C76.1016 54.6825 76.695 54.1691 77.3083 53.8091C76.8816 53.8625 76.3483 53.9225 75.7083 53.9891C75.0816 54.0558 74.4083 54.1291 73.6883 54.2091C72.9683 54.2758 72.2416 54.3558 71.5083 54.4491C70.7883 54.5425 70.115 54.6358 69.4883 54.7291C68.8616 54.8091 68.335 54.8958 67.9083 54.9891L67.7283 53.2491ZM80.7883 56.0291C80.935 56.2425 81.1083 56.5158 81.3083 56.8491C81.5216 57.1691 81.7283 57.5025 81.9283 57.8491C82.1283 58.1825 82.295 58.5025 82.4283 58.8091L81.4083 59.2891C81.1816 58.7958 80.9283 58.3091 80.6483 57.8291C80.3683 57.3358 80.075 56.8825 79.7683 56.4691L80.7883 56.0291ZM82.9683 55.1891C83.1283 55.4025 83.315 55.6691 83.5283 55.9891C83.7416 56.3091 83.9483 56.6425 84.1483 56.9891C84.3616 57.3225 84.5483 57.6425 84.7083 57.9491L83.6683 58.4491C83.4283 57.9558 83.1616 57.4691 82.8683 56.9891C82.5883 56.5091 82.295 56.0625 81.9883 55.6491L82.9683 55.1891ZM95.3483 50.5891C95.2683 50.9891 95.1616 51.4625 95.0283 52.0091C94.9083 52.5425 94.7083 53.1491 94.4283 53.8291C94.1883 54.4291 93.8883 55.0491 93.5283 55.6891C93.1816 56.3291 92.8083 56.9091 92.4083 57.4291C92.6616 57.2691 92.9483 57.1358 93.2683 57.0291C93.5883 56.9091 93.915 56.8225 94.2483 56.7691C94.595 56.7158 94.9083 56.6891 95.1883 56.6891C95.9616 56.6891 96.615 56.9091 97.1483 57.3491C97.6816 57.7758 97.9483 58.4025 97.9483 59.2291C97.9483 59.4825 97.9483 59.8091 97.9483 60.2091C97.9483 60.5958 97.9483 61.0091 97.9483 61.4491C97.9616 61.8758 97.975 62.2958 97.9883 62.7091C98.0016 63.1225 98.0083 63.4825 98.0083 63.7891H96.4683C96.4816 63.5225 96.495 63.2091 96.5083 62.8491C96.5216 62.4891 96.5283 62.1091 96.5283 61.7091C96.5416 61.3091 96.5416 60.9291 96.5283 60.5691C96.5283 60.2091 96.5283 59.9025 96.5283 59.6491C96.5283 59.0625 96.3483 58.6358 95.9883 58.3691C95.6416 58.0891 95.2016 57.9491 94.6683 57.9491C94.0416 57.9491 93.4216 58.0891 92.8083 58.3691C92.2083 58.6358 91.6816 58.9825 91.2283 59.4091C90.935 59.6891 90.6416 60.0091 90.3483 60.3691C90.0683 60.7158 89.755 61.0891 89.4083 61.4891L88.0483 60.4891C89.0083 59.5558 89.8083 58.6825 90.4483 57.8691C91.0883 57.0558 91.6083 56.3025 92.0083 55.6091C92.4083 54.9025 92.7216 54.2691 92.9483 53.7091C93.1616 53.1491 93.335 52.5891 93.4683 52.0291C93.6016 51.4558 93.6816 50.9291 93.7083 50.4491L95.3483 50.5891ZM88.5083 52.7491C89.0416 52.8158 89.6216 52.8691 90.2483 52.9091C90.875 52.9491 91.4216 52.9691 91.8883 52.9691C92.7816 52.9691 93.7416 52.9491 94.7683 52.9091C95.795 52.8558 96.8283 52.7825 97.8683 52.6891C98.9216 52.5958 99.9216 52.4625 100.868 52.2891L100.848 53.7691C100.155 53.8891 99.415 53.9891 98.6283 54.0691C97.8416 54.1358 97.0416 54.1958 96.2283 54.2491C95.415 54.2891 94.6283 54.3225 93.8683 54.3491C93.1216 54.3625 92.4283 54.3691 91.7883 54.3691C91.5083 54.3691 91.1816 54.3691 90.8083 54.3691C90.4483 54.3558 90.0683 54.3425 89.6683 54.3291C89.2683 54.3025 88.8816 54.2758 88.5083 54.2491V52.7491ZM103.788 57.5891C103.615 57.6291 103.422 57.6891 103.208 57.7691C103.008 57.8358 102.802 57.9091 102.588 57.9891C102.388 58.0691 102.195 58.1491 102.008 58.2291C101.315 58.4958 100.508 58.8225 99.5883 59.2091C98.6683 59.5958 97.7283 60.0425 96.7683 60.5491C96.1016 60.8825 95.515 61.2358 95.0083 61.6091C94.5016 61.9691 94.1016 62.3491 93.8083 62.7491C93.515 63.1358 93.3683 63.5625 93.3683 64.0291C93.3683 64.4158 93.455 64.7291 93.6283 64.9691C93.815 65.2091 94.075 65.3958 94.4083 65.5291C94.7416 65.6491 95.1216 65.7291 95.5483 65.7691C95.9883 65.8091 96.4683 65.8291 96.9883 65.8291C97.7616 65.8291 98.6416 65.7891 99.6283 65.7091C100.628 65.6158 101.568 65.4958 102.448 65.3491L102.408 66.9491C101.902 67.0158 101.328 67.0758 100.688 67.1291C100.062 67.1825 99.4216 67.2225 98.7683 67.2491C98.1283 67.2891 97.515 67.3091 96.9283 67.3091C95.9816 67.3091 95.115 67.2225 94.3283 67.0491C93.555 66.8758 92.935 66.5691 92.4683 66.1291C92.0016 65.6891 91.7683 65.0625 91.7683 64.2491C91.7683 63.6491 91.9083 63.1025 92.1883 62.6091C92.4683 62.1025 92.8416 61.6425 93.3083 61.2291C93.7883 60.8158 94.315 60.4358 94.8883 60.0891C95.4616 59.7291 96.0483 59.4025 96.6483 59.1091C97.2883 58.7625 97.8883 58.4625 98.4483 58.2091C99.0216 57.9558 99.5616 57.7225 100.068 57.5091C100.575 57.2958 101.048 57.0825 101.488 56.8691C101.782 56.7358 102.062 56.6091 102.328 56.4891C102.595 56.3691 102.862 56.2358 103.128 56.0891L103.788 57.5891ZM114.388 52.2091H117.548V53.5091H114.388V52.2091ZM116.048 62.8291H123.648V63.9691H116.048V62.8291ZM115.948 66.0091H123.608V67.2691H115.948V66.0091ZM115.348 59.6891H124.288V67.9091H122.828V60.9491H116.748V67.9891H115.348V59.6891ZM119.108 49.6491H120.488V57.7091C120.488 58.0825 120.448 58.3691 120.368 58.5691C120.288 58.7558 120.122 58.9091 119.868 59.0291C119.628 59.1358 119.308 59.2025 118.908 59.2291C118.522 59.2558 118.048 59.2691 117.488 59.2691C117.462 59.0691 117.408 58.8491 117.328 58.6091C117.248 58.3691 117.162 58.1558 117.068 57.9691C117.482 57.9825 117.848 57.9891 118.168 57.9891C118.488 57.9891 118.708 57.9825 118.828 57.9691C119.015 57.9691 119.108 57.8758 119.108 57.6891V49.6491ZM117.128 52.2091H117.368L117.628 52.1691L118.468 52.4091C118.202 53.9691 117.735 55.2825 117.068 56.3491C116.402 57.4025 115.602 58.2225 114.668 58.8091C114.562 58.6491 114.428 58.4691 114.268 58.2691C114.108 58.0691 113.955 57.9091 113.808 57.7891C114.622 57.3358 115.322 56.6425 115.908 55.7091C116.495 54.7625 116.902 53.6758 117.128 52.4491V52.2091ZM123.888 51.1891L125.068 52.1491C124.562 52.6158 124.022 53.0958 123.448 53.5891C122.875 54.0691 122.348 54.4758 121.868 54.8091L120.968 54.0491C121.288 53.7958 121.622 53.5025 121.968 53.1691C122.328 52.8358 122.675 52.4958 123.008 52.1491C123.355 51.8025 123.648 51.4825 123.888 51.1891ZM120.348 50.2091C120.615 51.2891 120.988 52.3225 121.468 53.3091C121.948 54.2958 122.542 55.1625 123.248 55.9091C123.955 56.6425 124.768 57.1758 125.688 57.5091C125.595 57.6025 125.488 57.7225 125.368 57.8691C125.262 58.0025 125.148 58.1491 125.028 58.3091C124.922 58.4558 124.828 58.5958 124.748 58.7291C123.815 58.2891 123.002 57.6491 122.308 56.8091C121.615 55.9558 121.028 54.9825 120.548 53.8891C120.082 52.7825 119.715 51.6225 119.448 50.4091L120.348 50.2091ZM106.908 65.5691C107.522 65.3958 108.222 65.1958 109.008 64.9691C109.808 64.7425 110.662 64.4958 111.568 64.2291C112.475 63.9491 113.375 63.6691 114.268 63.3891L114.448 64.6891C113.182 65.1025 111.915 65.5091 110.648 65.9091C109.382 66.3091 108.255 66.6691 107.268 66.9891L106.908 65.5691ZM107.828 58.4691H109.028V65.7891H107.828V58.4691ZM108.968 51.7891V55.2891H112.488V51.7891H108.968ZM107.688 50.4691H113.828V56.5891H107.688V50.4691ZM110.328 56.2891H111.588V65.3291H110.328V56.2891ZM110.948 59.3691H113.888V60.7091H110.948V59.3691ZM137.608 50.5291C137.582 50.7025 137.555 50.8958 137.528 51.1091C137.515 51.3225 137.502 51.5758 137.488 51.8691C137.488 52.0691 137.482 52.3691 137.468 52.7691C137.468 53.1691 137.468 53.6225 137.468 54.1291C137.468 54.6225 137.468 55.1225 137.468 55.6291C137.468 56.1358 137.468 56.6025 137.468 57.0291C137.468 57.6958 137.482 58.3958 137.508 59.1291C137.535 59.8625 137.568 60.5758 137.608 61.2691C137.648 61.9625 137.682 62.5958 137.708 63.1691C137.735 63.7425 137.748 64.1958 137.748 64.5291C137.748 64.9958 137.635 65.4425 137.408 65.8691C137.195 66.2958 136.828 66.6425 136.308 66.9091C135.802 67.1891 135.108 67.3291 134.228 67.3291C132.788 67.3291 131.688 67.0758 130.928 66.5691C130.168 66.0758 129.788 65.3491 129.788 64.3891C129.788 63.7758 129.968 63.2425 130.328 62.7891C130.702 62.3358 131.235 61.9825 131.928 61.7291C132.622 61.4625 133.448 61.3291 134.408 61.3291C135.462 61.3291 136.448 61.4558 137.368 61.7091C138.302 61.9491 139.155 62.2558 139.928 62.6291C140.702 63.0025 141.388 63.3958 141.988 63.8091C142.588 64.2091 143.082 64.5691 143.468 64.8891L142.548 66.3091C142.095 65.8825 141.568 65.4558 140.968 65.0291C140.382 64.6025 139.735 64.2091 139.028 63.8491C138.335 63.4891 137.582 63.2025 136.768 62.9891C135.968 62.7625 135.115 62.6491 134.208 62.6491C133.248 62.6491 132.515 62.8091 132.008 63.1291C131.515 63.4491 131.268 63.8425 131.268 64.3091C131.268 64.6025 131.362 64.8758 131.548 65.1291C131.735 65.3691 132.035 65.5625 132.448 65.7091C132.862 65.8558 133.395 65.9291 134.048 65.9291C134.435 65.9291 134.788 65.8825 135.108 65.7891C135.428 65.6825 135.682 65.5025 135.868 65.2491C136.068 64.9958 136.168 64.6425 136.168 64.1891C136.168 63.8025 136.155 63.3025 136.128 62.6891C136.115 62.0625 136.095 61.4025 136.068 60.7091C136.042 60.0025 136.015 59.3225 135.988 58.6691C135.975 58.0158 135.968 57.4691 135.968 57.0291C135.968 56.5758 135.968 56.1158 135.968 55.6491C135.968 55.1691 135.968 54.6958 135.968 54.2291C135.968 53.7625 135.968 53.3158 135.968 52.8891C135.982 52.4625 135.988 52.0758 135.988 51.7291C135.988 51.5691 135.982 51.3625 135.968 51.1091C135.955 50.8558 135.935 50.6625 135.908 50.5291H137.608ZM129.948 52.7091C130.282 52.7625 130.668 52.8158 131.108 52.8691C131.548 52.9225 132.008 52.9758 132.488 53.0291C132.982 53.0691 133.448 53.1025 133.888 53.1291C134.342 53.1425 134.735 53.1491 135.068 53.1491C136.335 53.1491 137.628 53.1025 138.948 53.0091C140.282 52.9158 141.595 52.7625 142.888 52.5491L142.868 54.0091C142.135 54.0891 141.335 54.1691 140.468 54.2491C139.602 54.3291 138.708 54.3958 137.788 54.4491C136.882 54.5025 135.982 54.5291 135.088 54.5291C134.622 54.5291 134.068 54.5091 133.428 54.4691C132.788 54.4291 132.155 54.3825 131.528 54.3291C130.915 54.2758 130.395 54.2291 129.968 54.1891L129.948 52.7091ZM129.848 56.9491C130.208 57.0025 130.608 57.0558 131.048 57.1091C131.488 57.1625 131.942 57.2025 132.408 57.2291C132.875 57.2558 133.322 57.2825 133.748 57.3091C134.175 57.3225 134.555 57.3291 134.888 57.3291C135.862 57.3291 136.802 57.3091 137.708 57.2691C138.628 57.2158 139.528 57.1491 140.408 57.0691C141.302 56.9758 142.182 56.8625 143.048 56.7291L143.028 58.2291C142.362 58.3225 141.695 58.4025 141.028 58.4691C140.375 58.5225 139.715 58.5691 139.048 58.6091C138.395 58.6491 137.722 58.6825 137.028 58.7091C136.348 58.7225 135.628 58.7291 134.868 58.7291C134.415 58.7291 133.888 58.7158 133.288 58.6891C132.702 58.6625 132.102 58.6291 131.488 58.5891C130.888 58.5491 130.348 58.5025 129.868 58.4491L129.848 56.9491ZM152.388 50.6291C152.935 50.7491 153.562 50.8691 154.268 50.9891C154.975 51.0958 155.702 51.2025 156.448 51.3091C157.195 51.4025 157.902 51.4825 158.568 51.5491C159.248 51.6025 159.822 51.6491 160.288 51.6891L160.068 53.1691C159.575 53.1291 158.995 53.0691 158.328 52.9891C157.675 52.9091 156.988 52.8225 156.268 52.7291C155.548 52.6358 154.828 52.5358 154.108 52.4291C153.402 52.3091 152.742 52.1958 152.128 52.0891L152.388 50.6291ZM160.688 56.3491C160.502 56.4825 160.302 56.6358 160.088 56.8091C159.875 56.9825 159.708 57.1291 159.588 57.2491C159.388 57.4225 159.115 57.6691 158.768 57.9891C158.435 58.2958 158.075 58.6358 157.688 59.0091C157.315 59.3691 156.955 59.7091 156.608 60.0291C156.275 60.3491 156.015 60.6091 155.828 60.8091C155.935 60.7958 156.062 60.7958 156.208 60.8091C156.368 60.8091 156.502 60.8225 156.608 60.8491C156.995 60.8891 157.308 61.0358 157.548 61.2891C157.802 61.5425 157.995 61.8758 158.128 62.2891C158.195 62.4758 158.262 62.7025 158.328 62.9691C158.408 63.2358 158.488 63.5091 158.568 63.7891C158.648 64.0558 158.722 64.3025 158.788 64.5291C158.922 64.9025 159.115 65.1758 159.368 65.3491C159.622 65.5225 160.008 65.6091 160.528 65.6091C160.982 65.6091 161.435 65.5958 161.888 65.5691C162.355 65.5291 162.795 65.4758 163.208 65.4091C163.635 65.3425 164.002 65.2758 164.308 65.2091L164.208 66.8891C163.928 66.9291 163.562 66.9691 163.108 67.0091C162.655 67.0625 162.188 67.1025 161.708 67.1291C161.242 67.1691 160.822 67.1891 160.448 67.1891C159.648 67.1891 158.995 67.0691 158.488 66.8291C157.995 66.5891 157.642 66.1425 157.428 65.4891C157.362 65.2891 157.282 65.0425 157.188 64.7491C157.108 64.4425 157.028 64.1425 156.948 63.8491C156.882 63.5558 156.815 63.3158 156.748 63.1291C156.628 62.7825 156.462 62.5225 156.248 62.3491C156.048 62.1625 155.808 62.0691 155.528 62.0691C155.248 62.0691 154.988 62.1358 154.748 62.2691C154.508 62.3891 154.275 62.5625 154.048 62.7891C153.902 62.9358 153.702 63.1358 153.448 63.3891C153.195 63.6291 152.915 63.9158 152.608 64.2491C152.315 64.5691 152.008 64.9091 151.688 65.2691C151.368 65.6158 151.062 65.9625 150.768 66.3091C150.475 66.6425 150.215 66.9558 149.988 67.2491L148.468 66.1891C148.588 66.0825 148.735 65.9558 148.908 65.8091C149.082 65.6491 149.268 65.4758 149.468 65.2891C149.602 65.1558 149.848 64.9091 150.208 64.5491C150.568 64.1758 151.002 63.7358 151.508 63.2291C152.028 62.7225 152.575 62.1825 153.148 61.6091C153.722 61.0225 154.295 60.4491 154.868 59.8891C155.442 59.3158 155.968 58.7825 156.448 58.2891C156.942 57.7958 157.355 57.3825 157.688 57.0491C157.382 57.0625 157.008 57.0891 156.568 57.1291C156.128 57.1558 155.668 57.1891 155.188 57.2291C154.708 57.2691 154.235 57.3091 153.768 57.3491C153.302 57.3891 152.868 57.4225 152.468 57.4491C152.082 57.4758 151.768 57.5025 151.528 57.5291C151.195 57.5558 150.895 57.5891 150.628 57.6291C150.375 57.6558 150.135 57.6891 149.908 57.7291L149.768 55.9691C149.995 55.9825 150.255 55.9958 150.548 56.0091C150.842 56.0225 151.148 56.0225 151.468 56.0091C151.695 56.0091 152.042 55.9958 152.508 55.9691C152.975 55.9425 153.502 55.9091 154.088 55.8691C154.688 55.8291 155.288 55.7891 155.888 55.7491C156.488 55.6958 157.042 55.6491 157.548 55.6091C158.068 55.5691 158.475 55.5291 158.768 55.4891C158.942 55.4625 159.122 55.4291 159.308 55.3891C159.495 55.3491 159.635 55.3091 159.728 55.2691L160.688 56.3491ZM166.852 53.1291C167.239 53.1158 167.586 53.1025 167.892 53.0891C168.199 53.0625 168.446 53.0425 168.632 53.0291C168.952 52.9891 169.412 52.9425 170.012 52.8891C170.626 52.8225 171.326 52.7558 172.112 52.6891C172.899 52.6091 173.746 52.5291 174.652 52.4491C175.559 52.3691 176.472 52.2891 177.392 52.2091C178.126 52.1425 178.819 52.0891 179.472 52.0491C180.126 51.9958 180.732 51.9558 181.292 51.9291C181.852 51.8891 182.352 51.8625 182.792 51.8491V53.4491C182.419 53.4358 181.992 53.4358 181.512 53.4491C181.032 53.4625 180.559 53.4958 180.092 53.5491C179.626 53.5891 179.219 53.6625 178.872 53.7691C178.166 53.9958 177.526 54.3425 176.952 54.8091C176.392 55.2625 175.912 55.7891 175.512 56.3891C175.112 56.9758 174.806 57.5958 174.592 58.2491C174.392 58.8891 174.292 59.5025 174.292 60.0891C174.292 60.8758 174.426 61.5625 174.692 62.1491C174.959 62.7225 175.319 63.2091 175.772 63.6091C176.239 64.0091 176.766 64.3358 177.352 64.5891C177.952 64.8425 178.579 65.0291 179.232 65.1491C179.886 65.2691 180.539 65.3425 181.192 65.3691L180.612 67.0291C179.879 67.0025 179.132 66.8958 178.372 66.7091C177.626 66.5358 176.912 66.2825 176.232 65.9491C175.552 65.6025 174.946 65.1691 174.412 64.6491C173.879 64.1291 173.459 63.5225 173.152 62.8291C172.846 62.1358 172.692 61.3425 172.692 60.4491C172.692 59.4091 172.872 58.4491 173.232 57.5691C173.606 56.6758 174.079 55.8958 174.652 55.2291C175.226 54.5625 175.819 54.0491 176.432 53.6891C176.006 53.7425 175.479 53.8025 174.852 53.8691C174.226 53.9358 173.546 54.0091 172.812 54.0891C172.092 54.1558 171.372 54.2358 170.652 54.3291C169.932 54.4225 169.252 54.5158 168.612 54.6091C167.986 54.6891 167.459 54.7758 167.032 54.8691L166.852 53.1291ZM44.7656 73.6491L46.3256 73.9291C46.0456 75.0891 45.7189 76.2158 45.3456 77.3091C44.9722 78.3891 44.5522 79.3958 44.0856 80.3291C43.6189 81.2491 43.1189 82.0691 42.5856 82.7891C42.4789 82.6958 42.3389 82.5958 42.1656 82.4891C41.9922 82.3825 41.8122 82.2825 41.6256 82.1891C41.4389 82.0825 41.2789 82.0025 41.1456 81.9491C41.7056 81.2825 42.2122 80.5158 42.6656 79.6491C43.1322 78.7691 43.5389 77.8158 43.8856 76.7891C44.2456 75.7625 44.5389 74.7158 44.7656 73.6491ZM48.0656 78.5691H48.8256V81.2491C48.8256 81.5958 48.8722 82.0691 48.9656 82.6691C49.0722 83.2691 49.2522 83.9291 49.5056 84.6491C49.7722 85.3691 50.1456 86.1025 50.6256 86.8491C51.1056 87.5958 51.7189 88.3025 52.4656 88.9691C53.2256 89.6225 54.1522 90.1891 55.2456 90.6691C55.1389 90.7758 55.0256 90.9091 54.9056 91.0691C54.7856 91.2425 54.6656 91.4091 54.5456 91.5691C54.4389 91.7425 54.3456 91.8891 54.2656 92.0091C53.4122 91.6225 52.6589 91.1625 52.0056 90.6291C51.3656 90.0958 50.8056 89.5291 50.3256 88.9291C49.8589 88.3158 49.4656 87.7091 49.1456 87.1091C48.8256 86.5091 48.5722 85.9491 48.3856 85.4291C48.2122 84.8958 48.0989 84.4425 48.0456 84.0691C47.9789 84.4425 47.8456 84.8891 47.6456 85.4091C47.4456 85.9291 47.1722 86.4891 46.8256 87.0891C46.4789 87.6758 46.0322 88.2691 45.4856 88.8691C44.9522 89.4691 44.3189 90.0358 43.5856 90.5691C42.8522 91.1158 42.0056 91.5958 41.0456 92.0091C40.9789 91.8891 40.8922 91.7491 40.7856 91.5891C40.6789 91.4425 40.5656 91.2891 40.4456 91.1291C40.3256 90.9825 40.2189 90.8625 40.1256 90.7691C41.3522 90.2891 42.3789 89.7158 43.2056 89.0491C44.0456 88.3825 44.7322 87.6758 45.2656 86.9291C45.7989 86.1825 46.2056 85.4491 46.4856 84.7291C46.7789 83.9958 46.9789 83.3291 47.0856 82.7291C47.2056 82.1158 47.2656 81.6225 47.2656 81.2491V78.5691H48.0656ZM36.6056 87.8891C36.9922 87.5158 37.4389 87.0825 37.9456 86.5891C38.4656 86.0825 39.0056 85.5358 39.5656 84.9491C40.1389 84.3625 40.7056 83.7758 41.2656 83.1891L42.1056 84.4691C41.3722 85.2825 40.6056 86.1025 39.8056 86.9291C39.0056 87.7425 38.2656 88.4758 37.5856 89.1291L36.6056 87.8891ZM37.2456 76.0291L38.3056 74.9491C38.7322 75.2158 39.1789 75.5291 39.6456 75.8891C40.1256 76.2358 40.5722 76.5825 40.9856 76.9291C41.3989 77.2758 41.7322 77.5958 41.9856 77.8891L40.8656 79.1291C40.6122 78.8358 40.2856 78.5025 39.8856 78.1291C39.4856 77.7558 39.0522 77.3891 38.5856 77.0291C38.1189 76.6558 37.6722 76.3225 37.2456 76.0291ZM44.7856 77.2091H53.7856V78.6891H44.1056L44.7856 77.2091ZM53.2856 77.2091H53.5056L53.8056 77.1291L54.9056 77.7291C54.7189 78.3691 54.4989 79.0158 54.2456 79.6691C54.0056 80.3225 53.7456 80.9425 53.4656 81.5291C53.1989 82.1025 52.9389 82.6158 52.6856 83.0691C52.5789 83.0158 52.4456 82.9491 52.2856 82.8691C52.1389 82.7891 51.9856 82.7091 51.8256 82.6291C51.6789 82.5491 51.5456 82.4891 51.4256 82.4491C51.6522 82.0358 51.8856 81.5558 52.1256 81.0091C52.3656 80.4491 52.5922 79.8691 52.8056 79.2691C53.0189 78.6558 53.1789 78.0891 53.2856 77.5691V77.2091ZM69.9256 78.4091C69.9256 78.8091 70.0656 79.1558 70.3456 79.4491C70.6389 79.7291 70.9922 79.8691 71.4056 79.8691C71.8056 79.8691 72.1456 79.7291 72.4256 79.4491C72.7189 79.1558 72.8656 78.8091 72.8656 78.4091C72.8656 77.9958 72.7189 77.6491 72.4256 77.3691C72.1456 77.0891 71.8056 76.9491 71.4056 76.9491C70.9922 76.9491 70.6389 77.0891 70.3456 77.3691C70.0656 77.6491 69.9256 77.9958 69.9256 78.4091ZM68.9656 78.4091C68.9656 77.9558 69.0722 77.5491 69.2856 77.1891C69.5122 76.8158 69.8056 76.5225 70.1656 76.3091C70.5389 76.0825 70.9522 75.9691 71.4056 75.9691C71.8456 75.9691 72.2456 76.0825 72.6056 76.3091C72.9789 76.5225 73.2722 76.8158 73.4856 77.1891C73.7122 77.5491 73.8256 77.9558 73.8256 78.4091C73.8256 78.8491 73.7122 79.2558 73.4856 79.6291C73.2722 79.9891 72.9789 80.2825 72.6056 80.5091C72.2456 80.7225 71.8456 80.8291 71.4056 80.8291C70.9522 80.8291 70.5389 80.7225 70.1656 80.5091C69.8056 80.2825 69.5122 79.9891 69.2856 79.6291C69.0722 79.2558 68.9656 78.8491 68.9656 78.4091ZM56.9056 85.1491C57.1722 84.9225 57.4056 84.7091 57.6056 84.5091C57.8189 84.3091 58.0589 84.0758 58.3256 83.8091C58.5656 83.5691 58.8389 83.2625 59.1456 82.8891C59.4656 82.5158 59.8056 82.1158 60.1656 81.6891C60.5389 81.2491 60.9056 80.8091 61.2656 80.3691C61.6256 79.9158 61.9589 79.5091 62.2656 79.1491C62.7989 78.5225 63.3256 78.1758 63.8456 78.1091C64.3656 78.0291 64.9656 78.3091 65.6456 78.9491C66.0589 79.3225 66.5056 79.7625 66.9856 80.2691C67.4789 80.7625 67.9656 81.2625 68.4456 81.7691C68.9256 82.2758 69.3589 82.7358 69.7456 83.1491C70.1989 83.6158 70.7056 84.1558 71.2656 84.7691C71.8256 85.3691 72.3989 85.9891 72.9856 86.6291C73.5722 87.2558 74.1189 87.8425 74.6256 88.3891L73.2456 89.8491C72.7789 89.2758 72.2789 88.6825 71.7456 88.0691C71.2256 87.4425 70.7056 86.8358 70.1856 86.2491C69.6789 85.6491 69.2122 85.1091 68.7856 84.6291C68.4922 84.2958 68.1656 83.9358 67.8056 83.5491C67.4456 83.1625 67.0856 82.7758 66.7256 82.3891C66.3656 82.0025 66.0256 81.6425 65.7056 81.3091C65.3989 80.9758 65.1389 80.7091 64.9256 80.5091C64.5389 80.1358 64.2189 79.9625 63.9656 79.9891C63.7256 80.0158 63.4322 80.2358 63.0856 80.6491C62.8456 80.9425 62.5722 81.2891 62.2656 81.6891C61.9589 82.0758 61.6389 82.4825 61.3056 82.9091C60.9722 83.3358 60.6522 83.7425 60.3456 84.1291C60.0389 84.5158 59.7722 84.8491 59.5456 85.1291C59.3456 85.3825 59.1389 85.6491 58.9256 85.9291C58.7256 86.2091 58.5522 86.4558 58.4056 86.6691L56.9056 85.1491ZM77.8856 81.7491C78.0856 81.7625 78.3322 81.7825 78.6256 81.8091C78.9189 81.8225 79.2389 81.8358 79.5856 81.8491C79.9456 81.8491 80.3056 81.8491 80.6656 81.8491C80.8789 81.8491 81.2056 81.8491 81.6456 81.8491C82.0989 81.8491 82.6256 81.8491 83.2256 81.8491C83.8256 81.8491 84.4589 81.8491 85.1256 81.8491C85.8056 81.8491 86.4789 81.8491 87.1456 81.8491C87.8256 81.8491 88.4656 81.8491 89.0656 81.8491C89.6789 81.8491 90.2056 81.8491 90.6456 81.8491C91.0856 81.8491 91.4122 81.8491 91.6256 81.8491C92.1322 81.8491 92.5656 81.8358 92.9256 81.8091C93.2856 81.7825 93.5722 81.7625 93.7856 81.7491V83.7091C93.5856 83.6958 93.2856 83.6758 92.8856 83.6491C92.4989 83.6225 92.0856 83.6091 91.6456 83.6091C91.4322 83.6091 91.0989 83.6091 90.6456 83.6091C90.1922 83.6091 89.6656 83.6091 89.0656 83.6091C88.4789 83.6091 87.8456 83.6091 87.1656 83.6091C86.4856 83.6091 85.8056 83.6091 85.1256 83.6091C84.4589 83.6091 83.8256 83.6091 83.2256 83.6091C82.6389 83.6091 82.1189 83.6091 81.6656 83.6091C81.2122 83.6091 80.8789 83.6091 80.6656 83.6091C80.1189 83.6091 79.5989 83.6225 79.1056 83.6491C78.6122 83.6625 78.2056 83.6825 77.8856 83.7091V81.7491ZM109.775 75.4891C109.948 75.7158 110.148 76.0158 110.375 76.3891C110.615 76.7625 110.848 77.1425 111.075 77.5291C111.302 77.9158 111.488 78.2691 111.635 78.5891L110.495 79.1091C110.335 78.7625 110.155 78.4091 109.955 78.0491C109.755 77.6758 109.548 77.3091 109.335 76.9491C109.122 76.5891 108.902 76.2558 108.675 75.9491L109.775 75.4891ZM112.395 74.5291C112.582 74.7558 112.788 75.0491 113.015 75.4091C113.242 75.7691 113.475 76.1425 113.715 76.5291C113.955 76.9158 114.155 77.2691 114.315 77.5891L113.175 78.1091C113.002 77.7491 112.808 77.3891 112.595 77.0291C112.382 76.6691 112.162 76.3158 111.935 75.9691C111.722 75.6225 111.502 75.3025 111.275 75.0091L112.395 74.5291ZM101.235 75.1891C101.528 75.3491 101.875 75.5625 102.275 75.8291C102.675 76.0825 103.088 76.3491 103.515 76.6291C103.942 76.8958 104.335 77.1558 104.695 77.4091C105.068 77.6491 105.362 77.8491 105.575 78.0091L104.635 79.3891C104.395 79.2025 104.088 78.9825 103.715 78.7291C103.355 78.4758 102.968 78.2158 102.555 77.9491C102.155 77.6691 101.755 77.4091 101.355 77.1691C100.968 76.9158 100.628 76.7025 100.335 76.5291L101.235 75.1891ZM98.2349 89.4891C98.9683 89.3558 99.7216 89.1825 100.495 88.9691C101.268 88.7558 102.035 88.4958 102.795 88.1891C103.555 87.8825 104.268 87.5425 104.935 87.1691C106.042 86.5291 107.068 85.8225 108.015 85.0491C108.962 84.2625 109.815 83.4291 110.575 82.5491C111.335 81.6691 111.982 80.7625 112.515 79.8291L113.475 81.4891C112.608 82.8225 111.508 84.1158 110.175 85.3691C108.842 86.6091 107.375 87.6958 105.775 88.6291C105.108 89.0158 104.375 89.3758 103.575 89.7091C102.788 90.0291 102.008 90.3091 101.235 90.5491C100.475 90.8025 99.7816 90.9891 99.1549 91.1091L98.2349 89.4891ZM98.2149 79.6891C98.5083 79.8491 98.8616 80.0491 99.2749 80.2891C99.6883 80.5291 100.108 80.7825 100.535 81.0491C100.962 81.3158 101.355 81.5691 101.715 81.8091C102.088 82.0358 102.382 82.2291 102.595 82.3891L101.695 83.7891C101.442 83.6025 101.128 83.3891 100.755 83.1491C100.395 82.9091 100.008 82.6558 99.5949 82.3891C99.1816 82.1225 98.7749 81.8758 98.3749 81.6491C97.9749 81.4091 97.6216 81.2091 97.3149 81.0491L98.2149 79.6891ZM116.575 84.9291C116.828 84.7291 117.062 84.5291 117.275 84.3291C117.502 84.1158 117.748 83.8758 118.015 83.6091C118.282 83.3291 118.575 82.9958 118.895 82.6091C119.228 82.2091 119.568 81.7891 119.915 81.3491C120.275 80.8958 120.628 80.4491 120.975 80.0091C121.322 79.5691 121.642 79.1758 121.935 78.8291C122.522 78.1491 123.088 77.7758 123.635 77.7091C124.195 77.6425 124.802 77.9425 125.455 78.6091C125.868 79.0225 126.302 79.5025 126.755 80.0491C127.208 80.5825 127.668 81.1225 128.135 81.6691C128.615 82.2158 129.062 82.7225 129.475 83.1891C129.782 83.5225 130.128 83.8958 130.515 84.3091C130.902 84.7225 131.315 85.1558 131.755 85.6091C132.195 86.0491 132.642 86.4958 133.095 86.9491C133.562 87.4025 134.022 87.8225 134.475 88.2091L133.195 89.6691C132.702 89.1891 132.175 88.6625 131.615 88.0891C131.068 87.5025 130.528 86.9091 129.995 86.3091C129.462 85.7091 128.962 85.1558 128.495 84.6491C128.068 84.1558 127.622 83.6358 127.155 83.0891C126.702 82.5291 126.262 81.9958 125.835 81.4891C125.422 80.9825 125.062 80.5558 124.755 80.2091C124.462 79.9025 124.215 79.7091 124.015 79.6291C123.815 79.5491 123.622 79.5691 123.435 79.6891C123.262 79.7958 123.055 79.9891 122.815 80.2691C122.588 80.5625 122.322 80.9091 122.015 81.3091C121.708 81.7091 121.388 82.1225 121.055 82.5491C120.722 82.9758 120.395 83.3958 120.075 83.8091C119.768 84.2225 119.488 84.5825 119.235 84.8891C119.035 85.1558 118.822 85.4291 118.595 85.7091C118.382 85.9758 118.202 86.2158 118.055 86.4291L116.575 84.9291ZM144.155 74.8091H153.995V76.2491H144.155V74.8091ZM150.015 80.7691H151.535V90.0891C151.535 90.5558 151.468 90.9091 151.335 91.1491C151.202 91.4025 150.968 91.5958 150.635 91.7291C150.288 91.8358 149.815 91.8958 149.215 91.9091C148.628 91.9358 147.842 91.9491 146.855 91.9491C146.828 91.7491 146.768 91.5091 146.675 91.2291C146.582 90.9491 146.475 90.6958 146.355 90.4691C146.835 90.4825 147.288 90.4958 147.715 90.5091C148.142 90.5225 148.515 90.5225 148.835 90.5091C149.155 90.5091 149.375 90.5091 149.495 90.5091C149.682 90.4958 149.815 90.4625 149.895 90.4091C149.975 90.3425 150.015 90.2291 150.015 90.0691V80.7691ZM143.275 80.3291H154.555V81.7691H143.275V80.3291ZM139.295 81.8891L140.615 80.5691L140.775 80.6491V92.0691H139.295V81.8891ZM141.595 77.8891L143.015 78.4091C142.508 79.2491 141.922 80.0891 141.255 80.9291C140.588 81.7691 139.888 82.5558 139.155 83.2891C138.435 84.0091 137.722 84.6558 137.015 85.2291C136.935 85.1225 136.828 84.9891 136.695 84.8291C136.575 84.6691 136.448 84.5091 136.315 84.3491C136.182 84.1891 136.062 84.0625 135.955 83.9691C136.648 83.4758 137.335 82.9025 138.015 82.2491C138.708 81.5958 139.362 80.8958 139.975 80.1491C140.602 79.4025 141.142 78.6491 141.595 77.8891ZM140.795 73.5891L142.235 74.1891C141.795 74.7625 141.282 75.3558 140.695 75.9691C140.122 76.5691 139.515 77.1491 138.875 77.7091C138.248 78.2558 137.635 78.7425 137.035 79.1691C136.968 79.0625 136.882 78.9358 136.775 78.7891C136.682 78.6291 136.575 78.4758 136.455 78.3291C136.348 78.1691 136.248 78.0491 136.155 77.9691C136.715 77.5825 137.282 77.1425 137.855 76.6491C138.442 76.1558 138.988 75.6425 139.495 75.1091C140.015 74.5758 140.448 74.0691 140.795 73.5891ZM159.035 76.7091C160.435 76.8691 161.768 76.9625 163.035 76.9891C164.315 77.0158 165.468 76.9825 166.495 76.8891C167.308 76.8091 168.115 76.6891 168.915 76.5291C169.728 76.3558 170.495 76.1558 171.215 75.9291L171.435 77.3691C170.782 77.5558 170.048 77.7291 169.235 77.8891C168.435 78.0491 167.635 78.1691 166.835 78.2491C165.822 78.3425 164.642 78.3891 163.295 78.3891C161.962 78.3758 160.575 78.3025 159.135 78.1691L159.035 76.7091ZM158.655 80.8091C159.788 80.9291 160.908 81.0091 162.015 81.0491C163.122 81.0758 164.168 81.0691 165.155 81.0291C166.142 80.9891 167.022 80.9225 167.795 80.8291C168.755 80.7225 169.628 80.5825 170.415 80.4091C171.202 80.2358 171.862 80.0625 172.395 79.8891L172.635 81.3891C172.088 81.5358 171.448 81.6825 170.715 81.8291C169.982 81.9625 169.195 82.0825 168.355 82.1891C167.528 82.2825 166.588 82.3558 165.535 82.4091C164.482 82.4491 163.368 82.4625 162.195 82.4491C161.035 82.4225 159.882 82.3758 158.735 82.3091L158.655 80.8091ZM165.495 76.4491C165.415 76.1425 165.322 75.8425 165.215 75.5491C165.122 75.2425 165.028 74.9491 164.935 74.6691L166.635 74.4491C166.702 75.0091 166.808 75.5958 166.955 76.2091C167.102 76.8091 167.262 77.4025 167.435 77.9891C167.608 78.5625 167.775 79.0825 167.935 79.5491C168.122 80.0691 168.342 80.6225 168.595 81.2091C168.848 81.7958 169.128 82.3758 169.435 82.9491C169.742 83.5225 170.068 84.0691 170.415 84.5891C170.522 84.7358 170.635 84.8825 170.755 85.0291C170.888 85.1625 171.022 85.3025 171.155 85.4491L170.335 86.6691C169.962 86.5625 169.522 86.4758 169.015 86.4091C168.508 86.3291 167.988 86.2625 167.455 86.2091C166.922 86.1425 166.422 86.0825 165.955 86.0291L166.095 84.8091C166.628 84.8625 167.182 84.9225 167.755 84.9891C168.328 85.0558 168.775 85.1091 169.095 85.1491C168.535 84.2825 168.042 83.3891 167.615 82.4691C167.202 81.5491 166.848 80.6825 166.555 79.8691C166.395 79.4158 166.248 78.9958 166.115 78.6091C165.995 78.2091 165.882 77.8291 165.775 77.4691C165.682 77.1091 165.588 76.7691 165.495 76.4491ZM161.555 85.1091C161.315 85.4558 161.115 85.8091 160.955 86.1691C160.795 86.5291 160.715 86.9291 160.715 87.3691C160.715 88.1958 161.088 88.8158 161.835 89.2291C162.595 89.6425 163.762 89.8491 165.335 89.8491C166.268 89.8491 167.115 89.8158 167.875 89.7491C168.635 89.6825 169.375 89.5758 170.095 89.4291L170.035 91.0291C169.342 91.1358 168.602 91.2158 167.815 91.2691C167.028 91.3358 166.208 91.3691 165.355 91.3691C164.048 91.3691 162.935 91.2358 162.015 90.9691C161.108 90.7025 160.415 90.2958 159.935 89.7491C159.468 89.2025 159.228 88.5025 159.215 87.6491C159.202 87.0758 159.268 86.5691 159.415 86.1291C159.575 85.6758 159.768 85.2291 159.995 84.7891L161.555 85.1091ZM50.6502 101.709V103.129H60.6902V101.709H50.6502ZM50.6502 99.3091V100.709H60.6902V99.3091H50.6502ZM49.2102 98.2491H62.1902V104.189H49.2102V98.2491ZM46.8102 105.309H64.4502V106.569H46.8102V105.309ZM55.7102 107.809H62.8102V109.029H55.7102V107.809ZM49.4302 107.929H54.3502V109.069H49.4302V107.929ZM49.4302 110.469H54.3502V111.589H49.4302V110.469ZM57.7902 108.929C58.3769 110.369 59.2836 111.609 60.5102 112.649C61.7502 113.676 63.2169 114.402 64.9102 114.829C64.8169 114.922 64.7102 115.036 64.5902 115.169C64.4702 115.316 64.3569 115.456 64.2502 115.589C64.1569 115.736 64.0769 115.869 64.0102 115.989C62.2502 115.469 60.7369 114.636 59.4702 113.489C58.2169 112.329 57.2569 110.929 56.5902 109.289L57.7902 108.929ZM62.3502 107.809H62.6302L62.8902 107.749L63.8102 108.129C63.3702 109.489 62.7436 110.676 61.9302 111.689C61.1169 112.702 60.1836 113.562 59.1302 114.269C58.0769 114.962 56.9702 115.502 55.8102 115.889C55.7302 115.716 55.6036 115.509 55.4302 115.269C55.2702 115.029 55.1169 114.842 54.9702 114.709C55.7702 114.482 56.5502 114.162 57.3102 113.749C58.0836 113.336 58.7969 112.849 59.4502 112.289C60.1169 111.729 60.6969 111.096 61.1902 110.389C61.6969 109.669 62.0836 108.889 62.3502 108.049V107.809ZM46.6302 113.529C47.2836 113.462 48.0236 113.389 48.8502 113.309C49.6902 113.229 50.5769 113.136 51.5102 113.029C52.4436 112.922 53.3769 112.816 54.3102 112.709L54.3302 113.949C52.9702 114.122 51.6302 114.289 50.3102 114.449C48.9902 114.609 47.8102 114.749 46.7702 114.869L46.6302 113.529ZM53.5702 105.709H55.0102V116.009H53.5702V105.709ZM48.5502 105.749H49.9302V113.869H48.5502V105.749ZM76.9302 109.129L77.8302 108.169C78.3102 108.369 78.8036 108.602 79.3102 108.869C79.8169 109.122 80.2969 109.382 80.7502 109.649C81.2169 109.916 81.6036 110.169 81.9102 110.409L80.9902 111.449C80.6836 111.209 80.2969 110.949 79.8302 110.669C79.3769 110.376 78.8969 110.096 78.3902 109.829C77.8836 109.549 77.3969 109.316 76.9302 109.129ZM74.7302 112.929L75.6302 111.849C76.2969 112.036 76.9902 112.256 77.7102 112.509C78.4302 112.749 79.1369 113.009 79.8302 113.289C80.5236 113.569 81.1769 113.849 81.7902 114.129C82.4169 114.409 82.9502 114.676 83.3902 114.929L82.5102 116.109C81.9236 115.749 81.1902 115.369 80.3102 114.969C79.4436 114.569 78.5236 114.189 77.5502 113.829C76.5769 113.469 75.6369 113.169 74.7302 112.929ZM77.3302 97.6091L78.8102 97.8491C78.3169 98.9425 77.6769 100.062 76.8902 101.209C76.1169 102.356 75.1569 103.409 74.0102 104.369C73.9436 104.262 73.8436 104.149 73.7102 104.029C73.5902 103.909 73.4636 103.796 73.3302 103.689C73.2102 103.569 73.0902 103.476 72.9702 103.409C73.6902 102.849 74.3302 102.236 74.8902 101.569C75.4502 100.902 75.9302 100.229 76.3302 99.5491C76.7436 98.8558 77.0769 98.2091 77.3302 97.6091ZM77.0502 99.6891H82.4902V101.029H76.3902L77.0502 99.6891ZM82.0502 99.6891H82.3502L82.6302 99.6291L83.5502 100.169C82.9769 101.582 82.2102 102.862 81.2502 104.009C80.3036 105.156 79.2436 106.156 78.0702 107.009C76.8969 107.862 75.6969 108.562 74.4702 109.109C74.4036 108.976 74.3169 108.836 74.2102 108.689C74.1036 108.542 73.9902 108.402 73.8702 108.269C73.7502 108.122 73.6369 108.009 73.5302 107.929C74.7302 107.449 75.8902 106.822 77.0102 106.049C78.1302 105.262 79.1302 104.362 80.0102 103.349C80.9036 102.322 81.5836 101.202 82.0502 99.9891V99.6891ZM76.7902 100.849C77.3369 101.889 78.0436 102.882 78.9102 103.829C79.7769 104.776 80.7369 105.622 81.7902 106.369C82.8569 107.116 83.9702 107.696 85.1302 108.109C85.0102 108.216 84.8902 108.342 84.7702 108.489C84.6502 108.636 84.5302 108.782 84.4102 108.929C84.3036 109.076 84.2102 109.216 84.1302 109.349C82.9702 108.856 81.8502 108.202 80.7702 107.389C79.6902 106.576 78.7036 105.649 77.8102 104.609C76.9302 103.556 76.1902 102.449 75.5902 101.289L76.7902 100.849ZM69.5502 97.6091L70.8702 98.1491C70.6169 98.6158 70.3502 99.1158 70.0702 99.6491C69.7902 100.182 69.5036 100.696 69.2102 101.189C68.9302 101.682 68.6569 102.109 68.3902 102.469L67.3702 102.009C67.6236 101.622 67.8836 101.176 68.1502 100.669C68.4169 100.149 68.6769 99.6225 68.9302 99.0891C69.1836 98.5425 69.3902 98.0491 69.5502 97.6091ZM71.8102 99.8891L73.0702 100.469C72.6169 101.229 72.1102 102.036 71.5502 102.889C71.0036 103.742 70.4502 104.562 69.8902 105.349C69.3302 106.136 68.7969 106.829 68.2902 107.429L67.3702 106.909C67.7436 106.456 68.1302 105.942 68.5302 105.369C68.9436 104.782 69.3436 104.176 69.7302 103.549C70.1302 102.909 70.5036 102.276 70.8502 101.649C71.2102 101.009 71.5302 100.422 71.8102 99.8891ZM66.4102 101.829L67.1702 100.829C67.5436 101.136 67.9169 101.482 68.2902 101.869C68.6769 102.242 69.0302 102.616 69.3502 102.989C69.6702 103.349 69.9169 103.676 70.0902 103.969L69.2702 105.109C69.0969 104.802 68.8502 104.456 68.5302 104.069C68.2236 103.669 67.8836 103.276 67.5102 102.889C67.1369 102.502 66.7702 102.149 66.4102 101.829ZM71.0902 104.549L72.1502 104.109C72.4169 104.536 72.6702 104.996 72.9102 105.489C73.1636 105.969 73.3836 106.442 73.5702 106.909C73.7702 107.362 73.9102 107.769 73.9902 108.129L72.8702 108.629C72.7902 108.269 72.6569 107.856 72.4702 107.389C72.2836 106.909 72.0702 106.422 71.8302 105.929C71.6036 105.436 71.3569 104.976 71.0902 104.549ZM66.3302 106.569C67.2102 106.542 68.2436 106.502 69.4302 106.449C70.6169 106.396 71.8436 106.342 73.1102 106.289L73.0902 107.509C71.9036 107.589 70.7302 107.669 69.5702 107.749C68.4102 107.816 67.3769 107.882 66.4702 107.949L66.3302 106.569ZM71.6102 109.249L72.7102 108.909C72.9769 109.469 73.2302 110.096 73.4702 110.789C73.7236 111.469 73.8969 112.056 73.9902 112.549L72.8502 112.949C72.7569 112.442 72.5902 111.849 72.3502 111.169C72.1236 110.476 71.8769 109.836 71.6102 109.249ZM67.4702 109.049L68.7502 109.269C68.6169 110.216 68.4302 111.149 68.1902 112.069C67.9502 112.976 67.6702 113.749 67.3502 114.389C67.2569 114.322 67.1369 114.256 66.9902 114.189C66.8569 114.122 66.7102 114.056 66.5502 113.989C66.4036 113.909 66.2702 113.849 66.1502 113.809C66.4969 113.196 66.7702 112.469 66.9702 111.629C67.1836 110.776 67.3502 109.916 67.4702 109.049ZM69.6102 107.129H70.9502V116.049H69.6102V107.129ZM87.4902 98.3291H91.9902V99.5291H87.4902V98.3291ZM87.2902 103.749H92.1502V104.949H87.2902V103.749ZM87.2902 106.409H92.1502V107.609H87.2902V106.409ZM86.4502 100.969H93.0902V102.249H86.4502V100.969ZM87.8502 109.089H92.2502V114.729H87.8502V113.529H90.9702V110.289H87.8502V109.089ZM87.1702 109.089H88.4102V115.709H87.1702V109.089ZM92.9302 98.5691L93.9502 97.9291C94.3236 98.2891 94.6902 98.7025 95.0502 99.1691C95.4236 99.6225 95.6969 100.022 95.8702 100.369L94.7902 101.109C94.6302 100.736 94.3702 100.316 94.0102 99.8491C93.6636 99.3691 93.3036 98.9425 92.9302 98.5691ZM92.7702 103.009L93.7502 102.309C94.1636 102.656 94.5769 103.056 94.9902 103.509C95.4036 103.962 95.7036 104.362 95.8902 104.709L94.8702 105.509C94.6702 105.149 94.3702 104.736 93.9702 104.269C93.5702 103.802 93.1702 103.382 92.7702 103.009ZM95.7302 107.069V113.049H94.4102V108.369H92.6702V107.069H95.7302ZM95.7302 112.349C96.0502 112.936 96.5169 113.409 97.1302 113.769C97.7436 114.116 98.4502 114.309 99.2502 114.349C99.5969 114.362 100.017 114.369 100.51 114.369C101.017 114.369 101.544 114.369 102.09 114.369C102.65 114.356 103.19 114.336 103.71 114.309C104.23 114.282 104.69 114.262 105.09 114.249C105.037 114.342 104.977 114.469 104.91 114.629C104.844 114.802 104.79 114.976 104.75 115.149C104.71 115.322 104.677 115.482 104.65 115.629C104.29 115.642 103.87 115.656 103.39 115.669C102.924 115.682 102.43 115.689 101.91 115.689C101.404 115.689 100.91 115.689 100.43 115.689C99.9636 115.689 99.5502 115.682 99.1902 115.669C98.2702 115.616 97.4769 115.409 96.8102 115.049C96.1436 114.689 95.5836 114.182 95.1302 113.529C94.7969 113.916 94.4502 114.296 94.0902 114.669C93.7436 115.042 93.3702 115.442 92.9702 115.869L92.2502 114.529C92.6102 114.222 92.9902 113.882 93.3902 113.509C93.8036 113.122 94.1902 112.736 94.5502 112.349H95.7302ZM96.2702 104.409H104.69V105.749H96.2702V104.409ZM99.7902 97.6691H101.11V113.509H99.7902V97.6691ZM96.4102 99.2291L97.5702 98.8891C97.7836 99.3425 97.9836 99.8291 98.1702 100.349C98.3702 100.869 98.5369 101.376 98.6702 101.869C98.8169 102.349 98.9236 102.776 98.9902 103.149L97.7502 103.549C97.6969 103.176 97.6036 102.742 97.4702 102.249C97.3369 101.742 97.1769 101.229 96.9902 100.709C96.8036 100.176 96.6102 99.6825 96.4102 99.2291ZM103.09 98.7691L104.43 99.1891C104.297 99.6691 104.15 100.176 103.99 100.709C103.83 101.242 103.664 101.756 103.49 102.249C103.33 102.742 103.177 103.182 103.03 103.569L101.89 103.189C102.037 102.802 102.184 102.349 102.33 101.829C102.49 101.309 102.637 100.782 102.77 100.249C102.904 99.7025 103.01 99.2091 103.09 98.7691ZM99.5902 104.969L100.57 105.369C100.317 106.182 99.9969 107.016 99.6102 107.869C99.2236 108.722 98.7902 109.522 98.3102 110.269C97.8436 111.016 97.3569 111.636 96.8502 112.129C96.7836 111.916 96.6769 111.676 96.5302 111.409C96.3969 111.142 96.2702 110.916 96.1502 110.729C96.6036 110.302 97.0502 109.776 97.4902 109.149C97.9302 108.522 98.3369 107.842 98.7102 107.109C99.0836 106.376 99.3769 105.662 99.5902 104.969ZM101.33 105.049C101.61 105.742 101.95 106.456 102.35 107.189C102.764 107.922 103.197 108.609 103.65 109.249C104.117 109.876 104.564 110.396 104.99 110.809C104.817 110.929 104.624 111.096 104.41 111.309C104.21 111.509 104.044 111.696 103.91 111.869C103.51 111.389 103.09 110.789 102.65 110.069C102.21 109.349 101.797 108.582 101.41 107.769C101.024 106.956 100.69 106.169 100.41 105.409L101.33 105.049ZM114.77 100.909C115.317 100.989 115.95 101.056 116.67 101.109C117.404 101.149 118.157 101.169 118.93 101.169C119.717 101.156 120.464 101.129 121.17 101.089C121.89 101.036 122.497 100.969 122.99 100.889V102.509C122.457 102.562 121.83 102.609 121.11 102.649C120.404 102.676 119.664 102.689 118.89 102.689C118.13 102.689 117.39 102.676 116.67 102.649C115.95 102.609 115.317 102.562 114.77 102.509V100.909ZM115.55 109.049C115.457 109.409 115.384 109.736 115.33 110.029C115.277 110.322 115.25 110.609 115.25 110.889C115.25 111.116 115.297 111.342 115.39 111.569C115.497 111.782 115.67 111.976 115.91 112.149C116.164 112.309 116.51 112.442 116.95 112.549C117.39 112.642 117.95 112.689 118.63 112.689C119.537 112.689 120.39 112.649 121.19 112.569C121.99 112.476 122.79 112.342 123.59 112.169L123.63 113.849C123.004 113.982 122.27 114.089 121.43 114.169C120.604 114.236 119.67 114.269 118.63 114.269C116.95 114.269 115.717 114.002 114.93 113.469C114.157 112.936 113.77 112.202 113.77 111.269C113.77 110.936 113.797 110.582 113.85 110.209C113.917 109.822 114.004 109.389 114.11 108.909L115.55 109.049ZM110.95 99.3691C110.924 99.4758 110.884 99.6158 110.83 99.7891C110.79 99.9491 110.744 100.116 110.69 100.289C110.65 100.449 110.617 100.589 110.59 100.709C110.524 101.082 110.444 101.516 110.35 102.009C110.257 102.489 110.164 103.009 110.07 103.569C109.99 104.116 109.91 104.676 109.83 105.249C109.764 105.809 109.704 106.356 109.65 106.889C109.61 107.422 109.59 107.916 109.59 108.369C109.59 108.862 109.604 109.329 109.63 109.769C109.67 110.209 109.717 110.676 109.77 111.169C109.89 110.862 110.017 110.536 110.15 110.189C110.284 109.842 110.417 109.502 110.55 109.169C110.697 108.822 110.824 108.516 110.93 108.249L111.77 108.889C111.597 109.369 111.41 109.896 111.21 110.469C111.01 111.042 110.83 111.596 110.67 112.129C110.524 112.649 110.417 113.062 110.35 113.369C110.324 113.516 110.297 113.676 110.27 113.849C110.244 114.022 110.237 114.162 110.25 114.269C110.264 114.376 110.27 114.489 110.27 114.609C110.284 114.742 110.297 114.862 110.31 114.969L108.87 115.069C108.67 114.362 108.497 113.456 108.35 112.349C108.204 111.229 108.13 109.996 108.13 108.649C108.13 107.916 108.164 107.169 108.23 106.409C108.297 105.636 108.384 104.889 108.49 104.169C108.597 103.436 108.697 102.769 108.79 102.169C108.897 101.556 108.977 101.042 109.03 100.629C109.07 100.389 109.104 100.149 109.13 99.9091C109.157 99.6558 109.17 99.4225 109.17 99.2091L110.95 99.3691ZM126.21 108.229C126.957 107.989 127.864 107.682 128.93 107.309C130.01 106.922 131.11 106.522 132.23 106.109L132.47 107.469C131.457 107.856 130.437 108.242 129.41 108.629C128.384 109.016 127.45 109.369 126.61 109.689L126.21 108.229ZM126.45 101.649H132.37V103.049H126.45V101.649ZM128.99 97.6291H130.39V114.269C130.39 114.669 130.337 114.982 130.23 115.209C130.137 115.436 129.964 115.609 129.71 115.729C129.47 115.849 129.15 115.929 128.75 115.969C128.35 116.009 127.83 116.022 127.19 116.009C127.177 115.836 127.124 115.609 127.03 115.329C126.95 115.062 126.864 114.822 126.77 114.609C127.197 114.622 127.584 114.629 127.93 114.629C128.29 114.642 128.53 114.642 128.65 114.629C128.77 114.629 128.857 114.602 128.91 114.549C128.964 114.509 128.99 114.416 128.99 114.269V97.6291ZM135.75 97.7491H137.15V106.589C137.15 107.589 137.097 108.542 136.99 109.449C136.884 110.342 136.664 111.182 136.33 111.969C136.01 112.756 135.537 113.482 134.91 114.149C134.284 114.816 133.45 115.422 132.41 115.969C132.344 115.862 132.25 115.736 132.13 115.589C132.01 115.456 131.884 115.322 131.75 115.189C131.617 115.069 131.49 114.969 131.37 114.889C132.344 114.409 133.117 113.876 133.69 113.289C134.277 112.689 134.717 112.042 135.01 111.349C135.304 110.656 135.497 109.909 135.59 109.109C135.697 108.309 135.75 107.462 135.75 106.569V97.7491ZM139.19 97.7491H140.61V113.449C140.61 113.862 140.65 114.129 140.73 114.249C140.81 114.356 140.984 114.409 141.25 114.409C141.317 114.409 141.43 114.409 141.59 114.409C141.75 114.409 141.924 114.409 142.11 114.409C142.31 114.409 142.497 114.409 142.67 114.409C142.844 114.409 142.97 114.409 143.05 114.409C143.224 114.409 143.35 114.329 143.43 114.169C143.51 114.009 143.57 113.716 143.61 113.289C143.65 112.862 143.677 112.276 143.69 111.529C143.864 111.676 144.07 111.809 144.31 111.929C144.564 112.036 144.797 112.116 145.01 112.169C144.957 113.062 144.87 113.776 144.75 114.309C144.63 114.829 144.444 115.202 144.19 115.429C143.95 115.669 143.604 115.789 143.15 115.789C143.07 115.789 142.93 115.789 142.73 115.789C142.53 115.789 142.317 115.789 142.09 115.789C141.864 115.789 141.65 115.789 141.45 115.789C141.264 115.789 141.13 115.789 141.05 115.789C140.57 115.789 140.197 115.722 139.93 115.589C139.664 115.456 139.47 115.216 139.35 114.869C139.244 114.536 139.19 114.056 139.19 113.429V97.7491ZM132.41 100.689L133.55 100.069C133.857 100.509 134.144 100.982 134.41 101.489C134.69 101.982 134.937 102.476 135.15 102.969C135.377 103.462 135.544 103.902 135.65 104.289L134.43 104.969C134.337 104.569 134.184 104.122 133.97 103.629C133.77 103.122 133.537 102.616 133.27 102.109C133.004 101.602 132.717 101.129 132.41 100.689ZM140.09 107.229L141.01 106.309C141.49 106.682 141.977 107.096 142.47 107.549C142.977 108.002 143.444 108.442 143.87 108.869C144.31 109.296 144.664 109.676 144.93 110.009L143.95 111.069C143.67 110.736 143.31 110.342 142.87 109.889C142.444 109.436 141.984 108.976 141.49 108.509C141.01 108.029 140.544 107.602 140.09 107.229ZM131.63 109.869C132.15 109.549 132.784 109.142 133.53 108.649C134.29 108.142 135.057 107.622 135.83 107.089L136.33 108.249C135.677 108.742 135.01 109.242 134.33 109.749C133.65 110.242 133.017 110.702 132.43 111.129L131.63 109.869ZM143.17 99.8691L144.53 100.569C144.264 101.049 143.977 101.556 143.67 102.089C143.377 102.622 143.077 103.136 142.77 103.629C142.464 104.109 142.177 104.536 141.91 104.909L140.85 104.309C141.117 103.922 141.39 103.476 141.67 102.969C141.964 102.449 142.244 101.916 142.51 101.369C142.777 100.822 142.997 100.322 143.17 99.8691ZM159.03 98.9291C158.99 99.0891 158.95 99.2691 158.91 99.4691C158.87 99.6558 158.83 99.8425 158.79 100.029C158.764 100.216 158.73 100.369 158.69 100.489C158.504 101.329 158.277 102.196 158.01 103.089C157.757 103.982 157.47 104.869 157.15 105.749C156.83 106.629 156.484 107.449 156.11 108.209C155.75 108.969 155.37 109.629 154.97 110.189C154.464 110.882 153.95 111.509 153.43 112.069C152.924 112.616 152.404 113.042 151.87 113.349C151.337 113.656 150.764 113.809 150.15 113.809C149.657 113.809 149.197 113.669 148.77 113.389C148.344 113.109 148.004 112.702 147.75 112.169C147.497 111.636 147.37 110.982 147.37 110.209C147.37 109.369 147.524 108.529 147.83 107.689C148.15 106.849 148.584 106.076 149.13 105.369C149.69 104.662 150.317 104.076 151.01 103.609C151.997 102.929 152.99 102.449 153.99 102.169C154.99 101.889 155.997 101.749 157.01 101.749C158.317 101.749 159.477 102.022 160.49 102.569C161.517 103.116 162.317 103.882 162.89 104.869C163.477 105.842 163.77 106.982 163.77 108.289C163.77 109.609 163.47 110.762 162.87 111.749C162.284 112.722 161.45 113.509 160.37 114.109C159.304 114.696 158.057 115.089 156.63 115.289L155.69 113.869C156.744 113.776 157.67 113.576 158.47 113.269C159.284 112.962 159.964 112.562 160.51 112.069C161.057 111.576 161.47 111.002 161.75 110.349C162.044 109.696 162.19 108.989 162.19 108.229C162.19 107.242 161.97 106.369 161.53 105.609C161.09 104.836 160.464 104.229 159.65 103.789C158.85 103.349 157.917 103.129 156.85 103.129C155.877 103.129 154.95 103.289 154.07 103.609C153.204 103.916 152.377 104.356 151.59 104.929C151.03 105.329 150.544 105.822 150.13 106.409C149.717 106.996 149.39 107.609 149.15 108.249C148.924 108.876 148.81 109.489 148.81 110.089C148.81 110.756 148.944 111.282 149.21 111.669C149.49 112.042 149.857 112.229 150.31 112.229C150.63 112.229 150.957 112.136 151.29 111.949C151.624 111.749 151.95 111.489 152.27 111.169C152.59 110.849 152.897 110.496 153.19 110.109C153.497 109.709 153.77 109.309 154.01 108.909C154.344 108.389 154.67 107.789 154.99 107.109C155.31 106.429 155.61 105.702 155.89 104.929C156.184 104.142 156.437 103.356 156.65 102.569C156.877 101.769 157.057 101.009 157.19 100.289C157.23 100.089 157.257 99.8425 157.27 99.5491C157.297 99.2558 157.31 98.9958 157.31 98.7691L159.03 98.9291ZM150.85 99.8291C150.904 100.109 150.964 100.409 151.03 100.729C151.11 101.036 151.184 101.329 151.25 101.609C151.384 102.089 151.55 102.629 151.75 103.229C151.95 103.829 152.157 104.429 152.37 105.029C152.597 105.629 152.83 106.196 153.07 106.729C153.31 107.249 153.537 107.682 153.75 108.029C154.097 108.616 154.49 109.216 154.93 109.829C155.37 110.442 155.83 110.976 156.31 111.429L155.05 112.469C154.65 112.016 154.264 111.536 153.89 111.029C153.517 110.522 153.144 109.942 152.77 109.289C152.517 108.902 152.264 108.436 152.01 107.889C151.757 107.329 151.497 106.729 151.23 106.089C150.977 105.449 150.73 104.796 150.49 104.129C150.25 103.449 150.037 102.796 149.85 102.169C149.757 101.849 149.65 101.536 149.53 101.229C149.424 100.909 149.31 100.622 149.19 100.369L150.85 99.8291Z" fill="black"/>
<path d="M149.293 39.7619C149.032 39.7619 148.902 39.6864 148.902 39.5354C148.902 39.3843 149.015 39.302 149.241 39.2882L150.415 39.1441C150.763 39.1029 150.998 39.0342 151.12 38.9381C151.242 38.8283 151.303 38.6292 151.303 38.3409V25.9841C151.303 25.7918 151.25 25.6546 151.146 25.5722C151.042 25.4898 150.824 25.4486 150.494 25.4486C149.85 25.4486 149.215 25.6683 148.589 26.1076C147.962 26.547 147.554 27.2541 147.362 28.2289L147.232 28.9085C147.197 29.087 147.075 29.1762 146.866 29.1762C146.606 29.1762 146.492 29.0595 146.527 28.8261L146.762 25.0985C146.797 24.7827 146.953 24.6248 147.232 24.6248C147.354 24.6248 147.467 24.6523 147.571 24.7072C147.675 24.7484 147.849 24.7964 148.093 24.8514C148.354 24.9063 148.763 24.9337 149.319 24.9337H155.138C155.695 24.9337 156.095 24.9063 156.339 24.8514C156.6 24.7964 156.782 24.7484 156.887 24.7072C157.009 24.6523 157.122 24.6248 157.226 24.6248C157.504 24.6248 157.661 24.7827 157.696 25.0985L157.931 28.8261C157.965 29.0595 157.852 29.1762 157.591 29.1762C157.383 29.1762 157.261 29.087 157.226 28.9085L157.096 28.2289C156.922 27.2541 156.521 26.547 155.895 26.1076C155.269 25.6683 154.625 25.4486 153.964 25.4486C153.634 25.4486 153.416 25.4898 153.312 25.5722C153.207 25.6546 153.155 25.7918 153.155 25.9841V38.3409C153.155 38.6292 153.216 38.8283 153.338 38.9381C153.477 39.0342 153.712 39.1029 154.043 39.1441L155.217 39.2882C155.443 39.302 155.556 39.3843 155.556 39.5354C155.556 39.6864 155.426 39.7619 155.165 39.7619H149.293Z" fill="black"/>
<path d="M140.593 39.9473C140.245 39.9473 139.854 39.9198 139.419 39.8649C139.001 39.81 138.601 39.7413 138.218 39.6589C137.853 39.5765 137.566 39.4873 137.357 39.3912C137.235 39.3363 137.14 39.2814 137.07 39.2264C137.018 39.1578 136.992 39.0479 136.992 38.8969L136.861 35.6636C136.861 35.389 136.975 35.2517 137.201 35.2517C137.392 35.2517 137.523 35.3752 137.592 35.6224L137.827 36.405C138.418 38.3683 139.523 39.35 141.141 39.35C142.011 39.35 142.698 39.1235 143.202 38.6704C143.724 38.2036 143.985 37.5514 143.985 36.7139C143.985 35.9038 143.716 35.1487 143.176 34.4485C142.654 33.7483 141.811 33.0549 140.645 32.3684C139.358 31.6407 138.418 30.9405 137.827 30.2678C137.235 29.5813 136.94 28.8536 136.94 28.0847C136.94 27.0687 137.383 26.2587 138.271 25.6545C139.175 25.0367 140.323 24.7278 141.715 24.7278C142.237 24.7278 142.741 24.7758 143.229 24.8719C143.716 24.9681 144.116 25.1054 144.429 25.2838C144.533 25.3388 144.612 25.4005 144.664 25.4692C144.733 25.5378 144.768 25.6271 144.768 25.7369L144.846 28.8467C144.846 29.0801 144.733 29.1968 144.507 29.1968C144.351 29.1968 144.238 29.1007 144.168 28.9085L143.985 28.3936C143.603 27.3364 143.202 26.5676 142.785 26.087C142.385 25.5928 141.802 25.3456 141.037 25.3456C140.289 25.3456 139.688 25.5378 139.236 25.9223C138.801 26.3067 138.584 26.849 138.584 27.5493C138.584 28.1396 138.827 28.7026 139.314 29.238C139.801 29.7735 140.654 30.4256 141.872 31.1945C143.176 32.032 144.124 32.8421 144.716 33.6247C145.325 34.3936 145.629 35.2173 145.629 36.096C145.629 36.8649 145.412 37.5377 144.977 38.1143C144.542 38.691 143.942 39.1441 143.176 39.4736C142.428 39.7894 141.567 39.9473 140.593 39.9473Z" fill="black"/>
<path d="M124.855 39.7619C124.594 39.7619 124.463 39.6864 124.463 39.5353C124.463 39.4118 124.576 39.3294 124.802 39.2882L125.403 39.2058C125.768 39.1509 126.003 39.0754 126.107 38.9793C126.229 38.8832 126.29 38.691 126.29 38.4026V26.293C126.29 26.0046 126.229 25.8124 126.107 25.7163C126.003 25.6202 125.768 25.5447 125.403 25.4898L124.802 25.4074C124.576 25.3662 124.463 25.2838 124.463 25.1603C124.463 25.0092 124.594 24.9337 124.855 24.9337H133.622C134.023 24.9337 134.24 25.0916 134.275 25.4074L134.484 28.8261C134.518 29.0595 134.405 29.1762 134.144 29.1762C133.936 29.1762 133.814 29.087 133.779 28.9085L133.622 28.1465C133.431 27.2129 133.04 26.5332 132.448 26.1076C131.857 25.6683 131.039 25.4486 129.995 25.4486C129.299 25.4486 128.812 25.531 128.534 25.6957C128.273 25.8467 128.143 26.1213 128.143 26.5195V31.4828C128.143 31.675 128.264 31.7711 128.508 31.7711H129.813C130.578 31.7711 131.048 31.4485 131.222 30.8032L131.483 29.7735C131.552 29.5675 131.7 29.4783 131.926 29.5057C132.118 29.5332 132.213 29.6499 132.213 29.8558V34.4896C132.213 34.6956 132.118 34.8123 131.926 34.8398C131.7 34.8672 131.552 34.778 131.483 34.572L131.222 33.5629C131.1 33.0823 130.926 32.7666 130.7 32.6155C130.491 32.4645 130.187 32.389 129.787 32.389H128.508C128.264 32.389 128.143 32.4851 128.143 32.6773V37.8466C128.143 38.3409 128.299 38.6978 128.612 38.9175C128.943 39.1372 129.534 39.247 130.387 39.247C131.257 39.247 131.996 39.0754 132.605 38.7322C133.231 38.3752 133.666 37.7161 133.91 36.7551L134.223 35.54C134.275 35.3615 134.405 35.2722 134.614 35.2722C134.858 35.2722 134.962 35.3889 134.927 35.6224L134.666 39.2882C134.631 39.604 134.414 39.7619 134.014 39.7619H124.855Z" fill="black"/>
<path d="M117.153 39.9472C116.214 39.9472 115.379 39.7756 114.648 39.4324C113.935 39.0754 113.378 38.588 112.978 37.9701C112.578 37.3386 112.378 36.6178 112.378 35.8077V26.293C112.378 26.0046 112.317 25.8124 112.195 25.7163C112.091 25.6202 111.856 25.5447 111.491 25.4898L110.891 25.4074C110.664 25.3662 110.551 25.2838 110.551 25.1603C110.551 25.0092 110.682 24.9337 110.943 24.9337H115.718C115.979 24.9337 116.11 25.0161 116.11 25.1809C116.11 25.3044 116.014 25.3799 115.823 25.4074L115.118 25.4898C114.77 25.531 114.535 25.6065 114.413 25.7163C114.292 25.8262 114.231 26.0252 114.231 26.3136V35.8283C114.231 36.8718 114.526 37.6818 115.118 38.2585C115.709 38.8351 116.536 39.1234 117.597 39.1234C118.676 39.1234 119.511 38.8351 120.102 38.2585C120.694 37.6818 120.989 36.8718 120.989 35.8283V26.7255C120.989 25.984 120.694 25.5722 120.102 25.4898L119.397 25.4074C119.206 25.3799 119.11 25.3044 119.11 25.1809C119.11 25.0161 119.241 24.9337 119.502 24.9337H123.259C123.52 24.9337 123.651 25.0092 123.651 25.1603C123.651 25.2838 123.538 25.3662 123.312 25.4074L122.711 25.4898C122.12 25.5722 121.824 25.9772 121.824 26.7049V35.8077C121.824 37.0571 121.398 38.0594 120.546 38.8145C119.693 39.5697 118.562 39.9472 117.153 39.9472Z" fill="black"/>
<path d="M93.1332 9.776C94.0275 8.76484 95.0997 8.46496 96.0487 8.67461C96.888 8.86008 97.6001 9.43996 97.9631 10.2061C98.7823 9.47524 99.5764 9.27087 100.308 9.45571C100.981 9.62568 101.532 10.1105 101.953 10.6506C103.146 9.42406 104.383 9.1506 105.453 9.4263C106.473 9.6892 107.287 10.4385 107.723 11.1934C108.966 10.9708 109.767 11.201 110.189 11.7661C110.562 12.2665 110.554 12.9269 110.434 13.457C110.962 13.8569 111.307 14.2494 111.492 14.6366C111.702 15.0774 111.696 15.498 111.533 15.8672C111.376 16.2234 111.084 16.5055 110.767 16.7174C110.539 16.869 110.287 16.9914 110.037 17.0847C110.211 17.7112 110.219 18.2488 110.081 18.6992C109.919 19.2268 109.567 19.5972 109.129 19.8325C108.362 20.2452 107.323 20.2517 106.453 20.0301C106.227 20.5703 105.946 20.99 105.604 21.2901C105.203 21.6432 104.737 21.8165 104.23 21.8402C103.298 21.8838 102.248 21.4191 101.177 20.7169C98.7282 22.5996 95.8567 23.0841 93.8183 23.0841C91.952 23.0841 90.3854 23.0936 88.6703 23.0984C86.9344 23.1033 85.0488 23.1035 82.553 23.0841L82.5581 22.4611C85.0511 22.4805 86.9342 22.4804 88.6686 22.4755C89.6686 22.4726 90.6201 22.4683 91.6105 22.4652C91.9896 22.8475 92.5152 23.0844 93.0962 23.0844C93.6918 23.0843 94.2286 22.8351 94.6097 22.4357C96.5198 22.3156 98.922 21.7349 100.967 20.0902L101.146 19.9456L101.337 20.0751C102.456 20.8353 103.43 21.254 104.201 21.218C104.575 21.2005 104.904 21.0765 105.193 20.8223C105.487 20.5638 105.755 20.1561 105.972 19.5477L106.074 19.2621L106.362 19.3563C107.185 19.6253 108.183 19.634 108.834 19.2837C109.149 19.1145 109.378 18.8653 109.486 18.5162C109.595 18.1603 109.589 17.6636 109.355 16.9864L109.247 16.6744L109.565 16.5849C109.857 16.5027 110.163 16.3709 110.421 16.1993C110.681 16.0259 110.87 15.8259 110.963 15.6155C111.05 15.4181 111.064 15.1872 110.929 14.9046C110.789 14.6094 110.481 14.2488 109.9 13.8371L109.718 13.7079L109.781 13.4939C109.93 12.9952 109.935 12.4674 109.69 12.1389C109.466 11.839 108.921 11.5695 107.623 11.848L107.384 11.8993L107.277 11.6793C106.945 10.9928 106.209 10.2643 105.297 10.0294C104.418 9.80281 103.308 10.0197 102.16 11.3457L101.894 11.654L101.666 11.3156C101.255 10.7022 100.735 10.2061 100.156 10.0596C99.6095 9.92167 98.9107 10.0722 98.0644 10.9792L97.6762 11.3953L97.535 10.8439C97.3375 10.0733 96.6953 9.45558 95.9144 9.283C95.1535 9.11486 94.2155 9.36275 93.4085 10.4213L93.1805 10.7208L92.9291 10.4407C92.5753 10.0466 92.0074 9.76668 91.4765 9.83005C90.9807 9.88926 90.4072 10.2645 90.0508 11.4164L89.9902 11.6127L89.7861 11.6341C88.99 11.7181 88.5831 12.0492 88.4496 12.3996C88.3154 12.7521 88.4053 13.2603 88.9011 13.8117L89.0771 14.0073L88.9137 14.2135C88.6217 14.5822 88.3181 15.1322 88.2819 15.6072C88.2646 15.8347 88.3097 16.0249 88.4257 16.1771C88.5431 16.3311 88.7632 16.4859 89.1714 16.5816L89.0291 17.188C88.5268 17.0702 88.1607 16.8568 87.9305 16.555C87.6991 16.2515 87.635 15.8979 87.6607 15.56C87.703 15.004 87.9905 14.4391 88.2739 14.0312C87.81 13.4278 87.6451 12.7622 87.8676 12.1779C88.0972 11.5752 88.6945 11.1752 89.5191 11.0415C89.9325 9.86803 90.6273 9.30416 91.4028 9.2116C92.0497 9.13441 92.6789 9.39723 93.1332 9.776Z" fill="black"/>
<path d="M69.3748 39.5353C69.3748 39.6864 69.5053 39.7619 69.7663 39.7619H75.6376C75.8985 39.7619 76.029 39.6864 76.029 39.5353C76.029 39.3843 75.9159 39.3019 75.6897 39.2882L74.5155 39.144C74.185 39.1029 73.9501 39.0342 73.8109 38.9381C73.6892 38.8283 73.6283 38.6292 73.6283 38.3409V33.3158C73.6283 33.0961 73.6544 32.9039 73.7066 32.7391C73.7587 32.5606 73.8457 32.3753 73.9675 32.183L77.3859 26.7666C77.6816 26.3136 77.9165 25.9909 78.0904 25.7987C79.2598 24.5067 80.9527 23.1589 82.553 23.0841L82.5581 22.4611C78.9664 22.1181 77.4155 25.2753 76.5248 26.746L73.4456 31.7094C73.376 31.8055 73.289 31.8535 73.1847 31.8535C73.0803 31.8535 72.9933 31.8055 72.9237 31.7094L69.7141 26.3136C69.5401 26.0252 69.514 25.8124 69.6358 25.6751C69.7576 25.5378 69.9663 25.4623 70.2621 25.4486L70.7579 25.4074C71.0536 25.3937 71.2015 25.3113 71.2015 25.1603C71.2015 25.0092 71.0797 24.9337 70.8361 24.9337H66.374C66.113 24.9337 65.9825 25.0024 65.9825 25.1397C65.9825 25.277 66.1043 25.3662 66.3479 25.4074L66.5827 25.4486C66.8785 25.5035 67.1046 25.5927 67.2612 25.7163C67.4177 25.8399 67.5569 26.0184 67.6787 26.2518L71.5146 32.5949C71.6886 32.8833 71.7755 33.1785 71.7755 33.4805V38.3409C71.7755 38.6292 71.7147 38.8283 71.5929 38.9381C71.4711 39.0342 71.2363 39.1029 70.8883 39.144L69.7141 39.2882C69.4879 39.3019 69.3748 39.3843 69.3748 39.5353Z" fill="black"/>
<path d="M64.1408 39.9472C63.8625 39.9472 63.6277 39.7825 63.4363 39.453L56.3647 27.3433C56.3125 27.2472 56.2429 27.206 56.1559 27.2197C56.0863 27.2335 56.0515 27.2952 56.0515 27.4051V37.9907C56.0515 38.3752 56.1298 38.6704 56.2864 38.8763C56.4603 39.0685 56.7648 39.1921 57.1997 39.247L57.5389 39.2882C57.7651 39.3019 57.8781 39.3843 57.8781 39.5353C57.8781 39.6864 57.7477 39.7619 57.4867 39.7619H53.7552C53.4942 39.7619 53.3638 39.6864 53.3638 39.5353C53.3638 39.3843 53.4768 39.3019 53.703 39.2882L54.0422 39.247C54.4945 39.1921 54.8077 39.0685 54.9816 38.8763C55.1556 38.6704 55.2426 38.3752 55.2426 37.9907V26.293C55.2426 26.0046 55.1817 25.8124 55.0599 25.7163C54.9555 25.6202 54.7033 25.5447 54.3032 25.4898L53.703 25.4074C53.4768 25.3662 53.3638 25.2838 53.3638 25.1603C53.3638 25.0092 53.4942 24.9337 53.7552 24.9337H56.5473C56.9822 24.9337 57.2867 25.0847 57.4606 25.3868L63.619 36.0754C63.6711 36.1578 63.732 36.1921 63.8016 36.1784C63.8886 36.1647 63.9321 36.1166 63.9321 36.0342V26.7049C63.9321 26.2655 63.8364 25.9635 63.645 25.7987C63.4537 25.6202 63.2101 25.5104 62.9144 25.4692L62.4447 25.4074C62.2185 25.3662 62.1055 25.2838 62.1055 25.1603C62.1055 25.0092 62.2359 24.9337 62.4969 24.9337H66.2284C66.4894 24.9337 66.6198 25.0092 66.6198 25.1603C66.6198 25.3113 66.5068 25.3937 66.2806 25.4074L65.9414 25.4486C65.4891 25.5035 65.1759 25.6202 65.002 25.7987C64.828 25.9635 64.741 26.2655 64.741 26.7049V39.2882C64.741 39.5353 64.6801 39.707 64.5584 39.8031C64.454 39.8992 64.3148 39.9472 64.1408 39.9472Z" fill="black"/>
<path fill-rule="evenodd" clip-rule="evenodd" d="M82.0656 38.9999C83.0398 39.6315 84.2315 39.9473 85.6406 39.9473C86.3538 39.9473 86.9801 39.8923 87.5194 39.7825C88.0587 39.6864 88.5371 39.556 88.9546 39.3912C89.2155 39.2814 89.3982 39.1852 89.5026 39.1029C89.607 39.0068 89.6591 38.8832 89.6591 38.7322V33.151C89.6591 32.8627 89.6939 32.6567 89.7635 32.5332C89.435 32.5332 88.891 32.4222 88.3732 32.3166C88.0898 32.2588 87.8144 32.2026 87.5864 32.1671C86.8397 32.0507 86.5276 32.1101 86.9192 32.3272C87.2845 32.3547 87.5194 32.4233 87.6238 32.5332C87.7455 32.643 87.8064 32.8421 87.8064 33.1304V37.6406C87.8064 38.3134 87.6238 38.7734 87.2584 39.0205C86.8931 39.2676 86.3538 39.3912 85.6406 39.3912C84.3184 39.3912 83.2312 38.7871 82.3787 37.5789C81.5437 36.3569 81.1262 34.5858 81.1262 32.2654C81.1262 30.0138 81.535 28.2975 82.3526 27.1168C83.1877 25.9223 84.2402 25.325 85.5101 25.325C86.3625 25.325 87.0323 25.5378 87.5194 25.9635C88.0065 26.3891 88.4414 27.1717 88.8241 28.3113L89.0329 28.9291C89.0851 29.1076 89.2068 29.1968 89.3982 29.1968C89.607 29.1968 89.7113 29.0801 89.7113 28.8467L89.633 25.7163C89.633 25.5241 89.52 25.3799 89.2938 25.2838C88.8763 25.1191 88.3892 24.9886 87.8325 24.8925C87.2758 24.7827 86.6583 24.7278 85.9798 24.7278C84.6403 24.7278 83.4486 25.0436 82.4048 25.6751C81.3784 26.293 80.5695 27.1717 79.978 28.3113C79.3866 29.4371 79.0908 30.7552 79.0908 32.2654C79.0908 33.8306 79.3431 35.1899 79.8476 36.3432C80.3521 37.4828 81.0914 38.3683 82.0656 38.9999Z" fill="black"/>
<path fill-rule="evenodd" clip-rule="evenodd" d="M100.342 37.8037C100.938 38.7021 101.699 39.2192 102.625 39.355C102.716 39.5667 103.08 40.0051 103.078 40.0735C102.879 40.0069 102.467 39.9458 102.254 39.8876C102.118 39.8502 101.989 39.815 101.882 39.7825C100.977 39.5491 100.16 39.0823 99.4291 38.3821C99.1388 38.0915 98.8731 37.7736 98.6318 37.4285C99.1194 37.5759 100.144 37.8573 100.342 37.8037ZM99.1943 32.3272C99.1943 34.2494 99.4221 35.776 99.8779 36.907C99.7347 36.8986 98.5322 36.4609 97.9489 36.243C97.873 36.0817 97.801 35.916 97.733 35.7459C97.3329 34.7025 97.1328 33.5629 97.1328 32.3272C97.1328 31.2563 97.2807 30.2609 97.5764 29.341C97.8895 28.4211 98.3158 27.6179 98.855 26.9314C99.4117 26.2312 100.055 25.6889 100.786 25.3044C101.517 24.92 102.3 24.7278 103.135 24.7278C103.97 24.7278 104.744 24.92 105.457 25.3044C106.188 25.6889 106.831 26.2312 107.388 26.9314C107.945 27.6179 108.371 28.4211 108.667 29.341C108.98 30.2609 109.136 31.2563 109.136 32.3272C109.136 33.5904 108.919 34.7574 108.484 35.8283C108.066 36.8855 107.484 37.7642 106.736 38.4644C106.145 39.0305 105.486 39.435 104.759 39.678C104.618 39.5445 104.331 39.2589 104.31 39.1854C105 38.9225 105.574 38.4076 106.031 37.6406C106.727 36.4736 107.075 34.7025 107.075 32.3272C107.075 29.952 106.727 28.1877 106.031 27.0344C105.335 25.8674 104.37 25.2838 103.135 25.2838C101.917 25.2838 100.951 25.8674 100.238 27.0344C99.5422 28.1877 99.1943 29.952 99.1943 32.3272Z" fill="black"/>
<path d="M84.5915 33.151C85.0245 32.6842 86.3889 31.7283 88.1044 31.926C90.2488 32.1732 95.7633 35.7305 97.4747 36.685C97.7139 36.8183 98.031 36.9529 98.4005 37.0772C98.9098 37.2486 99.5185 37.4007 100.159 37.5036C100.656 37.5834 101.172 37.6337 101.676 37.6406C101.738 37.6415 101.8 37.6419 101.861 37.6418C101.774 37.5386 101.684 37.4349 101.592 37.3302C101.026 37.3322 100.485 37.2617 99.9828 37.1516C99.2535 36.9917 98.6069 36.7484 98.0868 36.523C97.8568 36.4233 97.6515 36.327 97.4747 36.243C96.1455 35.6115 90.9659 32.1556 88.6344 31.7712C86.7692 31.4636 84.9621 32.5103 84.5915 33.151Z" fill="black"/>
<path d="M102.536 37.6183C102.455 37.5153 102.369 37.4053 102.279 37.2913C102.047 37.3171 101.818 37.3294 101.592 37.3302C101.684 37.4349 101.774 37.5386 101.861 37.6418C102.095 37.6413 102.32 37.6336 102.536 37.6183Z" fill="black"/>
<path d="M103.949 39.2975C103.692 39.36 103.42 39.3912 103.135 39.3912C103.097 39.3912 103.059 39.3906 103.022 39.3895C103.084 39.5536 103.134 39.5766 103.27 39.8109C103.406 40.0452 103.838 40.6076 104.014 40.9903C104.358 41.7372 104.799 42.2892 105.338 42.6464C105.877 43.0035 106.448 43.2239 107.049 43.3075C107.671 43.4022 108.239 43.4138 108.753 43.3423C109.352 43.2588 109.836 43.1288 110.202 42.9523C110.589 42.7869 110.902 42.604 111.14 42.4036C111.256 42.2899 111.303 42.1857 111.282 42.0911C111.258 41.9829 111.183 41.9236 111.057 41.9133C110.931 41.9029 110.807 41.9411 110.685 42.0278C110.211 42.3586 109.76 42.5096 109.203 42.6313C108.606 42.7618 108.173 42.8764 107.323 42.6313C106.473 42.3861 106.106 42.0647 105.623 41.3234C105.217 40.7018 104.569 39.9669 103.949 39.2975Z" fill="black"/>
<path fill-rule="evenodd" clip-rule="evenodd" d="M106.752 32.111C107.147 33.2009 107.109 34.1679 106.151 35.6746C106.05 35.8334 105.925 35.9852 105.795 36.1212C105.565 36.3624 105.32 36.5539 105.17 36.6464C104.644 36.9708 104.475 37.0522 104.143 37.194C103.519 37.461 102.951 37.5888 102.536 37.6183C102.455 37.5153 102.369 37.4053 102.279 37.2913C102.561 37.26 102.846 37.2088 103.135 37.1341C103.645 37.0018 104.257 36.6634 104.644 36.3955C104.918 36.2058 105.197 35.8578 105.218 35.8283C105.914 34.8773 106.333 33.8635 106.124 32.9295C106.055 32.623 105.781 32.2164 105.346 32.1645C104.858 32.1064 104.085 32.3558 103.437 33.1304C102.848 32.1671 101.882 31.7044 100.905 31.9977C100.675 32.0666 100.348 32.5148 100.238 32.9952C100.11 33.5578 100.222 34.6031 100.905 35.62C101.054 35.8422 101.33 36.1633 101.622 36.5039C101.811 36.7238 102.007 36.9519 102.18 37.1666C102.141 37.1786 101.693 37.1918 101.475 37.1969C101.426 37.1421 101.375 37.085 101.322 37.0264C101.061 36.7338 100.765 36.4027 100.543 36.1212C100.502 36.0695 100.462 36.0187 100.422 35.9687C99.7305 35.0994 99.2071 34.4413 99.4291 32.5999C99.5285 31.7763 100.177 31.2642 100.967 31.1505C101.927 31.0121 103.062 31.4531 103.54 32.5332C103.819 31.912 104.645 31.3295 105.482 31.3384C105.946 31.3433 106.576 31.6239 106.752 32.111Z" fill="black"/>
<path fill-rule="evenodd" clip-rule="evenodd" d="M103.949 39.2975C103.692 39.36 103.42 39.3912 103.135 39.3912C103.097 39.3912 103.059 39.3906 103.022 39.3895C102.901 39.0718 102.779 38.8972 102.55 38.5716C102.483 38.4748 102.406 38.3646 102.316 38.2334C102.219 38.0898 102.11 37.947 101.994 37.8037C102.193 37.7957 102.602 37.7754 102.647 37.7584C102.719 37.8505 102.786 37.9347 102.844 38.0083C102.919 38.1028 102.98 38.1798 103.022 38.2334C103.368 38.6745 103.693 39.023 103.882 39.2261C103.907 39.2524 103.929 39.2762 103.949 39.2975Z" fill="black"/>
<circle cx="90.6827" cy="24.4888" r="1" stroke="black" stroke-width="0.505019"/>
<circle cx="90.6827" cy="24.4888" r="1" stroke="black" stroke-width="0.505019"/>
<path d="M94.4526 20.992C94.4526 20.2429 93.8454 19.6355 93.0963 19.6355C92.3471 19.6355 91.7397 20.2429 91.7397 20.992C91.7398 21.7412 92.3471 22.3483 93.0963 22.3483V22.8632L93 22.8609C92.0431 22.8125 91.2759 22.0452 91.2274 21.0883L91.2249 20.992C91.2249 19.9585 92.0628 19.1206 93.0963 19.1206L93.1926 19.1231C94.1813 19.1733 94.9674 19.9908 94.9674 20.992L94.9652 21.0883C94.915 22.077 94.0974 22.8632 93.0963 22.8632V22.3483C93.8454 22.3483 94.4525 21.7411 94.4526 20.992Z" fill="black"/>
<path d="M94.4526 20.992C94.4526 20.2429 93.8454 19.6355 93.0963 19.6355C92.3471 19.6355 91.7397 20.2429 91.7397 20.992C91.7398 21.7412 92.3471 22.3483 93.0963 22.3483V22.8632L93 22.8609C92.0431 22.8125 91.2759 22.0452 91.2274 21.0883L91.2249 20.992C91.2249 19.9585 92.0628 19.1206 93.0963 19.1206L93.1926 19.1231C94.1813 19.1733 94.9674 19.9908 94.9674 20.992L94.9652 21.0883C94.915 22.077 94.0974 22.8632 93.0963 22.8632V22.3483C93.8454 22.3483 94.4525 21.7411 94.4526 20.992Z" fill="black"/>
</svg>
