<svg width="211" height="149" viewBox="0 0 211 149" fill="none" xmlns="http://www.w3.org/2000/svg">
<rect width="210" height="148.5" transform="translate(0.5)" fill="white"/>
<path d="M149.293 39.7619C149.032 39.7619 148.902 39.6864 148.902 39.5354C148.902 39.3843 149.015 39.302 149.241 39.2882L150.415 39.1441C150.763 39.1029 150.998 39.0342 151.12 38.9381C151.242 38.8283 151.303 38.6292 151.303 38.3409V25.9841C151.303 25.7918 151.25 25.6546 151.146 25.5722C151.042 25.4898 150.824 25.4486 150.494 25.4486C149.85 25.4486 149.215 25.6683 148.589 26.1076C147.962 26.547 147.554 27.2541 147.362 28.2289L147.232 28.9085C147.197 29.087 147.075 29.1762 146.866 29.1762C146.606 29.1762 146.492 29.0595 146.527 28.8261L146.762 25.0985C146.797 24.7827 146.953 24.6248 147.232 24.6248C147.354 24.6248 147.467 24.6523 147.571 24.7072C147.675 24.7484 147.849 24.7964 148.093 24.8514C148.354 24.9063 148.763 24.9337 149.319 24.9337H155.138C155.695 24.9337 156.095 24.9063 156.339 24.8514C156.6 24.7964 156.782 24.7484 156.887 24.7072C157.009 24.6523 157.122 24.6248 157.226 24.6248C157.504 24.6248 157.661 24.7827 157.696 25.0985L157.931 28.8261C157.965 29.0595 157.852 29.1762 157.591 29.1762C157.383 29.1762 157.261 29.087 157.226 28.9085L157.096 28.2289C156.922 27.2541 156.521 26.547 155.895 26.1076C155.269 25.6683 154.625 25.4486 153.964 25.4486C153.634 25.4486 153.416 25.4898 153.312 25.5722C153.207 25.6546 153.155 25.7918 153.155 25.9841V38.3409C153.155 38.6292 153.216 38.8283 153.338 38.9381C153.477 39.0342 153.712 39.1029 154.043 39.1441L155.217 39.2882C155.443 39.302 155.556 39.3843 155.556 39.5354C155.556 39.6864 155.426 39.7619 155.165 39.7619H149.293Z" fill="black"/>
<path d="M140.593 39.9473C140.245 39.9473 139.854 39.9198 139.419 39.8649C139.001 39.81 138.601 39.7413 138.218 39.6589C137.853 39.5765 137.566 39.4873 137.357 39.3912C137.235 39.3363 137.14 39.2814 137.07 39.2264C137.018 39.1578 136.992 39.0479 136.992 38.8969L136.861 35.6636C136.861 35.389 136.975 35.2517 137.201 35.2517C137.392 35.2517 137.523 35.3752 137.592 35.6224L137.827 36.405C138.418 38.3683 139.523 39.35 141.141 39.35C142.011 39.35 142.698 39.1235 143.202 38.6704C143.724 38.2036 143.985 37.5514 143.985 36.7139C143.985 35.9038 143.716 35.1487 143.176 34.4485C142.654 33.7483 141.811 33.0549 140.645 32.3684C139.358 31.6407 138.418 30.9405 137.827 30.2678C137.235 29.5813 136.94 28.8536 136.94 28.0847C136.94 27.0687 137.383 26.2587 138.271 25.6545C139.175 25.0367 140.323 24.7278 141.715 24.7278C142.237 24.7278 142.741 24.7758 143.229 24.8719C143.716 24.9681 144.116 25.1054 144.429 25.2838C144.533 25.3388 144.612 25.4005 144.664 25.4692C144.733 25.5378 144.768 25.6271 144.768 25.7369L144.846 28.8467C144.846 29.0801 144.733 29.1968 144.507 29.1968C144.351 29.1968 144.238 29.1007 144.168 28.9085L143.985 28.3936C143.603 27.3364 143.202 26.5676 142.785 26.087C142.385 25.5928 141.802 25.3456 141.037 25.3456C140.289 25.3456 139.688 25.5378 139.236 25.9223C138.801 26.3067 138.584 26.849 138.584 27.5493C138.584 28.1396 138.827 28.7026 139.314 29.238C139.801 29.7735 140.654 30.4256 141.872 31.1945C143.176 32.032 144.124 32.8421 144.716 33.6247C145.325 34.3936 145.629 35.2173 145.629 36.096C145.629 36.8649 145.412 37.5377 144.977 38.1143C144.542 38.691 143.942 39.1441 143.176 39.4736C142.428 39.7894 141.567 39.9473 140.593 39.9473Z" fill="black"/>
<path d="M124.855 39.7619C124.594 39.7619 124.463 39.6864 124.463 39.5353C124.463 39.4118 124.576 39.3294 124.802 39.2882L125.403 39.2058C125.768 39.1509 126.003 39.0754 126.107 38.9793C126.229 38.8832 126.29 38.691 126.29 38.4026V26.293C126.29 26.0046 126.229 25.8124 126.107 25.7163C126.003 25.6202 125.768 25.5447 125.403 25.4898L124.802 25.4074C124.576 25.3662 124.463 25.2838 124.463 25.1603C124.463 25.0092 124.594 24.9337 124.855 24.9337H133.622C134.023 24.9337 134.24 25.0916 134.275 25.4074L134.484 28.8261C134.518 29.0595 134.405 29.1762 134.144 29.1762C133.936 29.1762 133.814 29.087 133.779 28.9085L133.622 28.1465C133.431 27.2129 133.04 26.5332 132.448 26.1076C131.857 25.6683 131.039 25.4486 129.995 25.4486C129.299 25.4486 128.812 25.531 128.534 25.6957C128.273 25.8467 128.143 26.1213 128.143 26.5195V31.4828C128.143 31.675 128.264 31.7711 128.508 31.7711H129.813C130.578 31.7711 131.048 31.4485 131.222 30.8032L131.483 29.7735C131.552 29.5675 131.7 29.4783 131.926 29.5057C132.118 29.5332 132.213 29.6499 132.213 29.8558V34.4896C132.213 34.6956 132.118 34.8123 131.926 34.8398C131.7 34.8672 131.552 34.778 131.483 34.572L131.222 33.5629C131.1 33.0823 130.926 32.7666 130.7 32.6155C130.491 32.4645 130.187 32.389 129.787 32.389H128.508C128.264 32.389 128.143 32.4851 128.143 32.6773V37.8466C128.143 38.3409 128.299 38.6978 128.612 38.9175C128.943 39.1372 129.534 39.247 130.387 39.247C131.257 39.247 131.996 39.0754 132.605 38.7322C133.231 38.3752 133.666 37.7161 133.91 36.7551L134.223 35.54C134.275 35.3615 134.405 35.2722 134.614 35.2722C134.858 35.2722 134.962 35.3889 134.927 35.6224L134.666 39.2882C134.631 39.604 134.414 39.7619 134.014 39.7619H124.855Z" fill="black"/>
<path d="M117.153 39.9472C116.214 39.9472 115.379 39.7756 114.648 39.4324C113.935 39.0754 113.378 38.588 112.978 37.9701C112.578 37.3386 112.378 36.6178 112.378 35.8077V26.293C112.378 26.0046 112.317 25.8124 112.195 25.7163C112.091 25.6202 111.856 25.5447 111.491 25.4898L110.891 25.4074C110.664 25.3662 110.551 25.2838 110.551 25.1603C110.551 25.0092 110.682 24.9337 110.943 24.9337H115.718C115.979 24.9337 116.109 25.0161 116.109 25.1809C116.109 25.3044 116.014 25.3799 115.822 25.4074L115.118 25.4898C114.77 25.531 114.535 25.6065 114.413 25.7163C114.292 25.8262 114.231 26.0252 114.231 26.3136V35.8283C114.231 36.8718 114.526 37.6818 115.118 38.2585C115.709 38.8351 116.536 39.1234 117.597 39.1234C118.675 39.1234 119.51 38.8351 120.102 38.2585C120.693 37.6818 120.989 36.8718 120.989 35.8283V26.7255C120.989 25.984 120.693 25.5722 120.102 25.4898L119.397 25.4074C119.206 25.3799 119.11 25.3044 119.11 25.1809C119.11 25.0161 119.241 24.9337 119.502 24.9337H123.259C123.52 24.9337 123.651 25.0092 123.651 25.1603C123.651 25.2838 123.538 25.3662 123.312 25.4074L122.711 25.4898C122.12 25.5722 121.824 25.9772 121.824 26.7049V35.8077C121.824 37.0571 121.398 38.0594 120.546 38.8145C119.693 39.5697 118.562 39.9472 117.153 39.9472Z" fill="black"/>
<path d="M93.1332 9.776C94.0275 8.76484 95.0997 8.46496 96.0487 8.67461C96.888 8.86008 97.6001 9.43996 97.9631 10.2061C98.7823 9.47524 99.5764 9.27087 100.308 9.45571C100.981 9.62568 101.532 10.1105 101.953 10.6506C103.146 9.42406 104.383 9.1506 105.453 9.4263C106.473 9.6892 107.287 10.4385 107.723 11.1934C108.966 10.9708 109.767 11.201 110.189 11.7661C110.562 12.2665 110.554 12.9269 110.434 13.457C110.962 13.8569 111.307 14.2494 111.492 14.6366C111.702 15.0774 111.696 15.498 111.533 15.8672C111.376 16.2234 111.084 16.5055 110.767 16.7174C110.539 16.869 110.287 16.9914 110.037 17.0847C110.211 17.7112 110.219 18.2488 110.081 18.6992C109.919 19.2268 109.567 19.5972 109.129 19.8325C108.362 20.2452 107.323 20.2517 106.453 20.0301C106.227 20.5703 105.946 20.99 105.604 21.2901C105.203 21.6432 104.737 21.8165 104.23 21.8402C103.298 21.8838 102.248 21.4191 101.177 20.7169C98.7282 22.5996 95.8567 23.0841 93.8183 23.0841C91.952 23.0841 90.3854 23.0936 88.6703 23.0984C86.9344 23.1033 85.0488 23.1035 82.553 23.0841L82.5581 22.4611C85.0511 22.4805 86.9342 22.4804 88.6686 22.4755C89.6686 22.4726 90.6201 22.4683 91.6105 22.4652C91.9896 22.8475 92.5152 23.0844 93.0962 23.0844C93.6918 23.0843 94.2286 22.8351 94.6097 22.4357C96.5198 22.3156 98.922 21.7349 100.967 20.0902L101.146 19.9456L101.337 20.0751C102.456 20.8353 103.43 21.254 104.201 21.218C104.575 21.2005 104.904 21.0765 105.193 20.8223C105.487 20.5638 105.755 20.1561 105.972 19.5477L106.074 19.2621L106.362 19.3563C107.185 19.6253 108.183 19.634 108.834 19.2837C109.149 19.1145 109.378 18.8653 109.486 18.5162C109.595 18.1603 109.589 17.6636 109.355 16.9864L109.247 16.6744L109.565 16.5849C109.857 16.5027 110.163 16.3709 110.421 16.1993C110.681 16.0259 110.87 15.8259 110.963 15.6155C111.05 15.4181 111.064 15.1872 110.929 14.9046C110.789 14.6094 110.481 14.2488 109.9 13.8371L109.718 13.7079L109.781 13.4939C109.93 12.9952 109.935 12.4674 109.69 12.1389C109.466 11.839 108.921 11.5695 107.623 11.848L107.384 11.8993L107.277 11.6793C106.945 10.9928 106.209 10.2643 105.297 10.0294C104.418 9.80281 103.308 10.0197 102.16 11.3457L101.894 11.654L101.666 11.3156C101.255 10.7022 100.735 10.2061 100.156 10.0596C99.6095 9.92167 98.9107 10.0722 98.0644 10.9792L97.6762 11.3953L97.535 10.8439C97.3375 10.0733 96.6953 9.45558 95.9144 9.283C95.1535 9.11486 94.2155 9.36275 93.4085 10.4213L93.1805 10.7208L92.9291 10.4407C92.5753 10.0466 92.0074 9.76668 91.4765 9.83005C90.9807 9.88926 90.4072 10.2645 90.0508 11.4164L89.9902 11.6127L89.7861 11.6341C88.99 11.7181 88.5831 12.0492 88.4496 12.3996C88.3154 12.7521 88.4053 13.2603 88.9011 13.8117L89.0771 14.0073L88.9137 14.2135C88.6217 14.5822 88.3181 15.1322 88.2819 15.6072C88.2646 15.8347 88.3097 16.0249 88.4257 16.1771C88.5431 16.3311 88.7632 16.4859 89.1714 16.5816L89.0291 17.188C88.5268 17.0702 88.1607 16.8568 87.9305 16.555C87.6991 16.2515 87.635 15.8979 87.6607 15.56C87.703 15.004 87.9905 14.4391 88.2739 14.0312C87.81 13.4278 87.6451 12.7622 87.8676 12.1779C88.0972 11.5752 88.6945 11.1752 89.5191 11.0415C89.9325 9.86803 90.6273 9.30416 91.4028 9.2116C92.0497 9.13441 92.6789 9.39723 93.1332 9.776Z" fill="black"/>
<path d="M69.3748 39.5353C69.3748 39.6864 69.5053 39.7619 69.7663 39.7619H75.6376C75.8985 39.7619 76.029 39.6864 76.029 39.5353C76.029 39.3843 75.9159 39.3019 75.6897 39.2882L74.5155 39.144C74.185 39.1029 73.9501 39.0342 73.8109 38.9381C73.6892 38.8283 73.6283 38.6292 73.6283 38.3409V33.3158C73.6283 33.0961 73.6544 32.9039 73.7066 32.7391C73.7587 32.5606 73.8457 32.3753 73.9675 32.183L77.3859 26.7666C77.6816 26.3136 77.9165 25.9909 78.0904 25.7987C79.2598 24.5067 80.9527 23.1589 82.553 23.0841L82.5581 22.4611C78.9664 22.1181 77.4155 25.2753 76.5248 26.746L73.4456 31.7094C73.376 31.8055 73.289 31.8535 73.1847 31.8535C73.0803 31.8535 72.9933 31.8055 72.9237 31.7094L69.7141 26.3136C69.5401 26.0252 69.514 25.8124 69.6358 25.6751C69.7576 25.5378 69.9663 25.4623 70.2621 25.4486L70.7579 25.4074C71.0536 25.3937 71.2015 25.3113 71.2015 25.1603C71.2015 25.0092 71.0797 24.9337 70.8361 24.9337H66.374C66.113 24.9337 65.9825 25.0024 65.9825 25.1397C65.9825 25.277 66.1043 25.3662 66.3479 25.4074L66.5827 25.4486C66.8785 25.5035 67.1046 25.5927 67.2612 25.7163C67.4177 25.8399 67.5569 26.0184 67.6787 26.2518L71.5146 32.5949C71.6886 32.8833 71.7755 33.1785 71.7755 33.4805V38.3409C71.7755 38.6292 71.7147 38.8283 71.5929 38.9381C71.4711 39.0342 71.2363 39.1029 70.8883 39.144L69.7141 39.2882C69.4879 39.3019 69.3748 39.3843 69.3748 39.5353Z" fill="black"/>
<path d="M64.1408 39.9472C63.8625 39.9472 63.6277 39.7825 63.4363 39.453L56.3647 27.3433C56.3125 27.2472 56.2429 27.206 56.1559 27.2197C56.0863 27.2335 56.0515 27.2952 56.0515 27.4051V37.9907C56.0515 38.3752 56.1298 38.6704 56.2864 38.8763C56.4603 39.0685 56.7648 39.1921 57.1997 39.247L57.5389 39.2882C57.7651 39.3019 57.8781 39.3843 57.8781 39.5353C57.8781 39.6864 57.7477 39.7619 57.4867 39.7619H53.7552C53.4942 39.7619 53.3638 39.6864 53.3638 39.5353C53.3638 39.3843 53.4768 39.3019 53.703 39.2882L54.0422 39.247C54.4945 39.1921 54.8077 39.0685 54.9816 38.8763C55.1556 38.6704 55.2426 38.3752 55.2426 37.9907V26.293C55.2426 26.0046 55.1817 25.8124 55.0599 25.7163C54.9555 25.6202 54.7033 25.5447 54.3032 25.4898L53.703 25.4074C53.4768 25.3662 53.3638 25.2838 53.3638 25.1603C53.3638 25.0092 53.4942 24.9337 53.7552 24.9337H56.5473C56.9822 24.9337 57.2867 25.0847 57.4606 25.3868L63.619 36.0754C63.6711 36.1578 63.732 36.1921 63.8016 36.1784C63.8886 36.1647 63.9321 36.1166 63.9321 36.0342V26.7049C63.9321 26.2655 63.8364 25.9635 63.645 25.7987C63.4537 25.6202 63.2101 25.5104 62.9144 25.4692L62.4447 25.4074C62.2185 25.3662 62.1055 25.2838 62.1055 25.1603C62.1055 25.0092 62.2359 24.9337 62.4969 24.9337H66.2284C66.4894 24.9337 66.6198 25.0092 66.6198 25.1603C66.6198 25.3113 66.5068 25.3937 66.2806 25.4074L65.9414 25.4486C65.4891 25.5035 65.1759 25.6202 65.002 25.7987C64.828 25.9635 64.741 26.2655 64.741 26.7049V39.2882C64.741 39.5353 64.6801 39.707 64.5584 39.8031C64.454 39.8992 64.3148 39.9472 64.1408 39.9472Z" fill="black"/>
<path fill-rule="evenodd" clip-rule="evenodd" d="M82.0656 38.9999C83.0398 39.6315 84.2315 39.9473 85.6406 39.9473C86.3538 39.9473 86.9801 39.8923 87.5194 39.7825C88.0587 39.6864 88.5371 39.556 88.9546 39.3912C89.2155 39.2814 89.3982 39.1852 89.5026 39.1029C89.607 39.0068 89.6591 38.8832 89.6591 38.7322V33.151C89.6591 32.8627 89.6939 32.6567 89.7635 32.5332C89.435 32.5332 88.891 32.4222 88.3732 32.3166C88.0898 32.2588 87.8144 32.2026 87.5864 32.1671C86.8397 32.0507 86.5276 32.1101 86.9192 32.3272C87.2845 32.3547 87.5194 32.4233 87.6238 32.5332C87.7455 32.643 87.8064 32.8421 87.8064 33.1304V37.6406C87.8064 38.3134 87.6238 38.7734 87.2584 39.0205C86.8931 39.2676 86.3538 39.3912 85.6406 39.3912C84.3184 39.3912 83.2312 38.7871 82.3787 37.5789C81.5437 36.3569 81.1262 34.5858 81.1262 32.2654C81.1262 30.0138 81.535 28.2975 82.3526 27.1168C83.1877 25.9223 84.2402 25.325 85.5101 25.325C86.3625 25.325 87.0323 25.5378 87.5194 25.9635C88.0065 26.3891 88.4414 27.1717 88.8241 28.3113L89.0329 28.9291C89.0851 29.1076 89.2068 29.1968 89.3982 29.1968C89.607 29.1968 89.7113 29.0801 89.7113 28.8467L89.633 25.7163C89.633 25.5241 89.52 25.3799 89.2938 25.2838C88.8763 25.1191 88.3892 24.9886 87.8325 24.8925C87.2758 24.7827 86.6583 24.7278 85.9798 24.7278C84.6403 24.7278 83.4486 25.0436 82.4048 25.6751C81.3784 26.293 80.5695 27.1717 79.978 28.3113C79.3866 29.4371 79.0908 30.7552 79.0908 32.2654C79.0908 33.8306 79.3431 35.1899 79.8476 36.3432C80.3521 37.4828 81.0914 38.3683 82.0656 38.9999Z" fill="black"/>
<path fill-rule="evenodd" clip-rule="evenodd" d="M100.342 37.8037C100.938 38.7021 101.699 39.2192 102.625 39.355C102.716 39.5667 103.08 40.0051 103.078 40.0735C102.879 40.0069 102.467 39.9458 102.254 39.8876C102.118 39.8502 101.989 39.815 101.882 39.7825C100.977 39.5491 100.16 39.0823 99.4291 38.3821C99.1388 38.0915 98.8731 37.7736 98.6318 37.4285C99.1194 37.5759 100.144 37.8573 100.342 37.8037ZM99.1943 32.3272C99.1943 34.2494 99.4221 35.776 99.8779 36.907C99.7347 36.8986 98.5322 36.4609 97.9489 36.243C97.873 36.0817 97.801 35.916 97.733 35.7459C97.3329 34.7025 97.1328 33.5629 97.1328 32.3272C97.1328 31.2563 97.2807 30.2609 97.5764 29.341C97.8895 28.4211 98.3158 27.6179 98.855 26.9314C99.4117 26.2312 100.055 25.6889 100.786 25.3044C101.517 24.92 102.3 24.7278 103.135 24.7278C103.97 24.7278 104.744 24.92 105.457 25.3044C106.188 25.6889 106.831 26.2312 107.388 26.9314C107.945 27.6179 108.371 28.4211 108.667 29.341C108.98 30.2609 109.136 31.2563 109.136 32.3272C109.136 33.5904 108.919 34.7574 108.484 35.8283C108.066 36.8855 107.484 37.7642 106.736 38.4644C106.145 39.0305 105.486 39.435 104.759 39.678C104.618 39.5445 104.331 39.2589 104.31 39.1854C105 38.9225 105.574 38.4076 106.031 37.6406C106.727 36.4736 107.075 34.7025 107.075 32.3272C107.075 29.952 106.727 28.1877 106.031 27.0344C105.335 25.8674 104.37 25.2838 103.135 25.2838C101.917 25.2838 100.951 25.8674 100.238 27.0344C99.5422 28.1877 99.1943 29.952 99.1943 32.3272Z" fill="black"/>
<path d="M84.5915 33.151C85.0245 32.6842 86.3889 31.7283 88.1044 31.926C90.2488 32.1732 95.7633 35.7305 97.4747 36.685C97.7139 36.8183 98.031 36.9529 98.4005 37.0772C98.9098 37.2486 99.5185 37.4007 100.159 37.5036C100.656 37.5834 101.172 37.6337 101.676 37.6406C101.738 37.6415 101.8 37.6419 101.861 37.6418C101.774 37.5386 101.684 37.4349 101.592 37.3302C101.026 37.3322 100.485 37.2617 99.9828 37.1516C99.2535 36.9917 98.6069 36.7484 98.0868 36.523C97.8568 36.4233 97.6515 36.327 97.4747 36.243C96.1455 35.6115 90.9659 32.1556 88.6344 31.7712C86.7692 31.4636 84.9621 32.5103 84.5915 33.151Z" fill="black"/>
<path d="M102.536 37.6183C102.455 37.5153 102.369 37.4053 102.279 37.2913C102.047 37.3171 101.818 37.3294 101.592 37.3302C101.684 37.4349 101.774 37.5386 101.861 37.6418C102.095 37.6413 102.32 37.6336 102.536 37.6183Z" fill="black"/>
<path d="M103.949 39.2975C103.692 39.36 103.42 39.3912 103.135 39.3912C103.097 39.3912 103.059 39.3906 103.022 39.3895C103.084 39.5536 103.134 39.5766 103.27 39.8109C103.406 40.0452 103.838 40.6076 104.014 40.9903C104.358 41.7372 104.799 42.2892 105.338 42.6464C105.877 43.0035 106.448 43.2239 107.049 43.3075C107.671 43.4022 108.239 43.4138 108.753 43.3423C109.352 43.2588 109.836 43.1288 110.202 42.9523C110.589 42.7869 110.902 42.604 111.14 42.4036C111.256 42.2899 111.303 42.1857 111.282 42.0911C111.258 41.9829 111.183 41.9236 111.057 41.9133C110.931 41.9029 110.807 41.9411 110.685 42.0278C110.211 42.3586 109.76 42.5096 109.203 42.6313C108.606 42.7618 108.173 42.8764 107.323 42.6313C106.473 42.3861 106.106 42.0647 105.623 41.3234C105.217 40.7018 104.569 39.9669 103.949 39.2975Z" fill="black"/>
<path fill-rule="evenodd" clip-rule="evenodd" d="M106.752 32.111C107.147 33.2009 107.109 34.1679 106.151 35.6746C106.05 35.8334 105.925 35.9852 105.795 36.1212C105.565 36.3624 105.32 36.5539 105.17 36.6464C104.644 36.9708 104.475 37.0522 104.143 37.194C103.519 37.461 102.951 37.5888 102.536 37.6183C102.455 37.5153 102.369 37.4053 102.279 37.2913C102.561 37.26 102.846 37.2088 103.135 37.1341C103.645 37.0018 104.257 36.6634 104.644 36.3955C104.918 36.2058 105.197 35.8578 105.218 35.8283C105.914 34.8773 106.333 33.8635 106.124 32.9295C106.055 32.623 105.781 32.2164 105.346 32.1645C104.858 32.1064 104.085 32.3558 103.437 33.1304C102.848 32.1671 101.882 31.7044 100.905 31.9977C100.675 32.0666 100.348 32.5148 100.238 32.9952C100.11 33.5578 100.222 34.6031 100.905 35.62C101.054 35.8422 101.33 36.1633 101.622 36.5039C101.811 36.7238 102.007 36.9519 102.18 37.1666C102.141 37.1786 101.693 37.1918 101.475 37.1969C101.426 37.1421 101.375 37.085 101.322 37.0264C101.061 36.7338 100.765 36.4027 100.543 36.1212C100.502 36.0695 100.462 36.0187 100.422 35.9687C99.7305 35.0994 99.2071 34.4413 99.4291 32.5999C99.5285 31.7763 100.177 31.2642 100.967 31.1505C101.927 31.0121 103.062 31.4531 103.54 32.5332C103.819 31.912 104.645 31.3295 105.482 31.3384C105.946 31.3433 106.576 31.6239 106.752 32.111Z" fill="black"/>
<path fill-rule="evenodd" clip-rule="evenodd" d="M103.949 39.2975C103.692 39.36 103.42 39.3912 103.135 39.3912C103.097 39.3912 103.059 39.3906 103.022 39.3895C102.901 39.0718 102.779 38.8972 102.55 38.5716C102.483 38.4748 102.406 38.3646 102.316 38.2334C102.219 38.0898 102.11 37.947 101.994 37.8037C102.193 37.7957 102.602 37.7754 102.647 37.7584C102.719 37.8505 102.786 37.9347 102.844 38.0083C102.919 38.1028 102.98 38.1798 103.022 38.2334C103.368 38.6745 103.693 39.023 103.882 39.2261C103.907 39.2524 103.929 39.2762 103.949 39.2975Z" fill="black"/>
<circle cx="90.6826" cy="24.4888" r="1" stroke="black" stroke-width="0.505019"/>
<circle cx="90.6826" cy="24.4888" r="1" stroke="black" stroke-width="0.505019"/>
<path d="M94.4526 20.992C94.4526 20.2429 93.8454 19.6355 93.0963 19.6355C92.3471 19.6355 91.7397 20.2429 91.7397 20.992C91.7398 21.7412 92.3471 22.3483 93.0963 22.3483V22.8632L93 22.8609C92.0431 22.8125 91.2759 22.0452 91.2274 21.0883L91.2249 20.992C91.2249 19.9585 92.0628 19.1206 93.0963 19.1206L93.1926 19.1231C94.1813 19.1733 94.9674 19.9908 94.9674 20.992L94.9652 21.0883C94.915 22.077 94.0974 22.8632 93.0963 22.8632V22.3483C93.8454 22.3483 94.4525 21.7411 94.4526 20.992Z" fill="black"/>
<path d="M94.4526 20.992C94.4526 20.2429 93.8454 19.6355 93.0963 19.6355C92.3471 19.6355 91.7397 20.2429 91.7397 20.992C91.7398 21.7412 92.3471 22.3483 93.0963 22.3483V22.8632L93 22.8609C92.0431 22.8125 91.2759 22.0452 91.2274 21.0883L91.2249 20.992C91.2249 19.9585 92.0628 19.1206 93.0963 19.1206L93.1926 19.1231C94.1813 19.1733 94.9674 19.9908 94.9674 20.992L94.9652 21.0883C94.915 22.077 94.0974 22.8632 93.0963 22.8632V22.3483C93.8454 22.3483 94.4525 21.7411 94.4526 20.992Z" fill="black"/>
<path d="M15.4192 72.25H14.4036L17.3411 64.25H18.3411L21.2786 72.25H20.2629L17.8723 65.5156H17.8098L15.4192 72.25ZM15.7942 69.125H19.8879V69.9844H15.7942V69.125ZM24.7434 70.8438V65.6875H25.6184V70.8438H24.7434ZM22.6028 68.7031V67.8281H27.759V68.7031H22.6028ZM29.7756 72.25V64.25H32.5725C33.1298 64.25 33.5894 64.3464 33.9514 64.5391C34.3134 64.7292 34.5829 64.9857 34.76 65.3086C34.9371 65.6289 35.0256 65.9844 35.0256 66.375C35.0256 66.7187 34.9644 67.0026 34.842 67.2266C34.7222 67.4505 34.5634 67.6276 34.3655 67.7578C34.1702 67.888 33.9579 67.9844 33.7288 68.0469V68.125C33.9736 68.1406 34.2196 68.2266 34.467 68.3828C34.7144 68.5391 34.9215 68.763 35.0881 69.0547C35.2548 69.3464 35.3381 69.7031 35.3381 70.125C35.3381 70.526 35.247 70.8867 35.0647 71.207C34.8824 71.5273 34.5946 71.7812 34.2014 71.9687C33.8082 72.1562 33.2965 72.25 32.6663 72.25H29.7756ZM30.7444 71.3906H32.6663C33.2991 71.3906 33.7483 71.2682 34.0139 71.0234C34.2821 70.776 34.4163 70.4766 34.4163 70.125C34.4163 69.8542 34.3472 69.6042 34.2092 69.375C34.0712 69.1432 33.8746 68.9583 33.6194 68.8203C33.3642 68.6797 33.0621 68.6094 32.7131 68.6094H30.7444V71.3906ZM30.7444 67.7656H32.5413C32.8329 67.7656 33.0959 67.7083 33.3303 67.5937C33.5673 67.4792 33.7548 67.3177 33.8928 67.1094C34.0334 66.901 34.1038 66.6562 34.1038 66.375C34.1038 66.0234 33.9814 65.7253 33.7366 65.4805C33.4918 65.2331 33.1038 65.1094 32.5725 65.1094H30.7444V67.7656ZM39.1487 70.8438V65.6875H40.0237V70.8438H39.1487ZM37.0081 68.7031V67.8281H42.1643V68.7031H37.0081ZM50.6184 66.75H49.6497C49.5924 66.4714 49.4921 66.2266 49.3489 66.0156C49.2083 65.8047 49.0364 65.6276 48.8333 65.4844C48.6327 65.3385 48.4101 65.2292 48.1653 65.1562C47.9205 65.0833 47.6653 65.0469 47.3997 65.0469C46.9153 65.0469 46.4765 65.1693 46.0833 65.4141C45.6926 65.6589 45.3814 66.0195 45.1497 66.4961C44.9205 66.9727 44.8059 67.5573 44.8059 68.25C44.8059 68.9427 44.9205 69.5273 45.1497 70.0039C45.3814 70.4805 45.6926 70.8411 46.0833 71.0859C46.4765 71.3307 46.9153 71.4531 47.3997 71.4531C47.6653 71.4531 47.9205 71.4167 48.1653 71.3437C48.4101 71.2708 48.6327 71.1628 48.8333 71.0195C49.0364 70.8737 49.2083 70.6953 49.3489 70.4844C49.4921 70.2708 49.5924 70.026 49.6497 69.75H50.6184C50.5455 70.1589 50.4127 70.5247 50.22 70.8477C50.0273 71.1706 49.7877 71.4453 49.5012 71.6719C49.2148 71.8958 48.8931 72.0664 48.5364 72.1836C48.1822 72.3008 47.8033 72.3594 47.3997 72.3594C46.7174 72.3594 46.1106 72.1927 45.5793 71.8594C45.0481 71.526 44.6301 71.0521 44.3254 70.4375C44.0208 69.8229 43.8684 69.0937 43.8684 68.25C43.8684 67.4062 44.0208 66.6771 44.3254 66.0625C44.6301 65.4479 45.0481 64.974 45.5793 64.6406C46.1106 64.3073 46.7174 64.1406 47.3997 64.1406C47.8033 64.1406 48.1822 64.1992 48.5364 64.3164C48.8931 64.4336 49.2148 64.6055 49.5012 64.832C49.7877 65.056 50.0273 65.3294 50.22 65.6523C50.4127 65.9727 50.5455 66.3385 50.6184 66.75ZM54.4026 70.8438V65.6875H55.2776V70.8438H54.4026ZM52.262 68.7031V67.8281H57.4182V68.7031H52.262ZM61.9036 72.25H59.4348V64.25H62.0129C62.789 64.25 63.453 64.4102 64.0051 64.7305C64.5572 65.0482 64.9804 65.5052 65.2747 66.1016C65.5689 66.6953 65.7161 67.4062 65.7161 68.2344C65.7161 69.0677 65.5676 69.7852 65.2708 70.3867C64.9739 70.9857 64.5416 71.4466 63.9739 71.7695C63.4062 72.0898 62.7161 72.25 61.9036 72.25ZM60.4036 71.3906H61.8411C62.5025 71.3906 63.0507 71.263 63.4856 71.0078C63.9205 70.7526 64.2447 70.3893 64.4583 69.918C64.6718 69.4466 64.7786 68.8854 64.7786 68.2344C64.7786 67.5885 64.6731 67.0326 64.4622 66.5664C64.2512 66.0977 63.9361 65.7383 63.5168 65.4883C63.0976 65.2357 62.5754 65.1094 61.9504 65.1094H60.4036V71.3906ZM69.5598 70.8438V65.6875H70.4348V70.8438H69.5598ZM67.4192 68.7031V67.8281H72.5754V68.7031H67.4192ZM74.592 72.25V64.25H79.4202V65.1094H75.5608V67.8125H79.1702V68.6719H75.5608V71.3906H79.4827V72.25H74.592ZM83.385 70.8438V65.6875H84.26V70.8438H83.385ZM81.2444 68.7031V67.8281H86.4006V68.7031H81.2444ZM88.4172 72.25V64.25H93.2141V65.1094H89.386V67.8125H92.8547V68.6719H89.386V72.25H88.4172ZM101.28 67.8203V68.6797H97.7795V67.8203H101.28ZM105.636 67.509H115.712V68.411H105.636V67.509ZM128.738 66.431V67.19H120.752V66.431H128.738ZM120.752 68.917H128.738V69.676H120.752V68.917ZM135.14 69.588C135.082 69.2873 135.093 69.016 135.173 68.774C135.261 68.532 135.39 68.3157 135.558 68.125C135.734 67.927 135.925 67.7473 136.13 67.586C136.343 67.4173 136.545 67.2523 136.735 67.091C136.926 66.9297 137.084 66.7647 137.208 66.596C137.333 66.42 137.395 66.2293 137.395 66.024C137.395 65.7673 137.333 65.54 137.208 65.342C137.084 65.144 136.9 64.99 136.658 64.88C136.416 64.7627 136.105 64.704 135.723 64.704C135.349 64.704 134.986 64.7883 134.634 64.957C134.29 65.1183 133.96 65.3677 133.644 65.705L133.05 65.155C133.417 64.7663 133.824 64.4583 134.271 64.231C134.719 63.9963 135.239 63.879 135.833 63.879C136.354 63.879 136.801 63.9633 137.175 64.132C137.557 64.3007 137.85 64.539 138.055 64.847C138.268 65.1477 138.374 65.5107 138.374 65.936C138.374 66.2147 138.312 66.4603 138.187 66.673C138.063 66.8857 137.901 67.08 137.703 67.256C137.513 67.432 137.311 67.6043 137.098 67.773C136.886 67.9343 136.688 68.103 136.504 68.279C136.328 68.455 136.193 68.6493 136.097 68.862C136.009 69.0747 135.991 69.3167 136.042 69.588H135.14ZM135.613 72.305C135.415 72.305 135.247 72.239 135.107 72.107C134.968 71.975 134.898 71.799 134.898 71.579C134.898 71.359 134.968 71.183 135.107 71.051C135.247 70.9117 135.415 70.842 135.613 70.842C135.804 70.842 135.969 70.9117 136.108 71.051C136.248 71.183 136.317 71.359 136.317 71.579C136.317 71.799 136.248 71.975 136.108 72.107C135.969 72.239 135.804 72.305 135.613 72.305Z" fill="black"/>
<path d="M104.732 83.4025V91.4025H103.763V84.4182H103.716L101.763 85.715V84.7307L103.763 83.4025H104.732ZM109.595 91.5119C109.059 91.5119 108.585 91.4168 108.173 91.2267C107.764 91.034 107.445 90.7697 107.216 90.4338C106.987 90.0952 106.874 89.7098 106.876 89.2775C106.874 88.939 106.94 88.6265 107.076 88.34C107.211 88.051 107.396 87.8101 107.63 87.6174C107.867 87.4221 108.132 87.2984 108.423 87.2463V87.1994C108.04 87.1004 107.736 86.8856 107.509 86.5549C107.283 86.2215 107.171 85.8426 107.173 85.4182C107.171 85.0119 107.274 84.6486 107.482 84.3283C107.69 84.008 107.977 83.7554 108.341 83.5705C108.708 83.3856 109.126 83.2932 109.595 83.2932C110.059 83.2932 110.473 83.3856 110.837 83.5705C111.202 83.7554 111.488 84.008 111.697 84.3283C111.908 84.6486 112.014 85.0119 112.017 85.4182C112.014 85.8426 111.899 86.2215 111.669 86.5549C111.443 86.8856 111.142 87.1004 110.767 87.1994V87.2463C111.056 87.2984 111.317 87.4221 111.548 87.6174C111.78 87.8101 111.965 88.051 112.103 88.34C112.241 88.6265 112.311 88.939 112.314 89.2775C112.311 89.7098 112.194 90.0952 111.962 90.4338C111.733 90.7697 111.414 91.034 111.005 91.2267C110.599 91.4168 110.129 91.5119 109.595 91.5119ZM109.595 90.6525C109.957 90.6525 110.27 90.5939 110.533 90.4767C110.796 90.3596 110.999 90.1942 111.142 89.9807C111.285 89.7671 111.358 89.5171 111.361 89.2307C111.358 88.9286 111.28 88.6616 111.126 88.4299C110.973 88.1981 110.763 88.0158 110.497 87.883C110.234 87.7502 109.934 87.6838 109.595 87.6838C109.254 87.6838 108.949 87.7502 108.681 87.883C108.415 88.0158 108.206 88.1981 108.052 88.4299C107.901 88.6616 107.827 88.9286 107.83 89.2307C107.827 89.5171 107.896 89.7671 108.037 89.9807C108.18 90.1942 108.384 90.3596 108.65 90.4767C108.915 90.5939 109.231 90.6525 109.595 90.6525ZM109.595 86.8557C109.882 86.8557 110.136 86.7984 110.357 86.6838C110.581 86.5692 110.757 86.409 110.884 86.2033C111.012 85.9976 111.077 85.7567 111.08 85.4807C111.077 85.2098 111.013 84.9741 110.888 84.7736C110.763 84.5705 110.59 84.4142 110.369 84.3049C110.147 84.1929 109.889 84.1369 109.595 84.1369C109.296 84.1369 109.034 84.1929 108.81 84.3049C108.586 84.4142 108.413 84.5705 108.29 84.7736C108.168 84.9741 108.108 85.2098 108.111 85.4807C108.108 85.7567 108.169 85.9976 108.294 86.2033C108.422 86.409 108.598 86.5692 108.822 86.6838C109.046 86.7984 109.303 86.8557 109.595 86.8557ZM114.498 90.3791C114.306 90.3791 114.14 90.3101 114.002 90.1721C113.864 90.034 113.795 89.8687 113.795 89.676C113.795 89.4833 113.864 89.3179 114.002 89.1799C114.14 89.0418 114.306 88.9728 114.498 88.9728C114.691 88.9728 114.857 89.0418 114.995 89.1799C115.133 89.3179 115.202 89.4833 115.202 89.676C115.202 89.8036 115.169 89.9208 115.104 90.0275C115.041 90.1343 114.957 90.2202 114.85 90.2853C114.746 90.3478 114.629 90.3791 114.498 90.3791ZM114.498 86.3322C114.306 86.3322 114.14 86.2632 114.002 86.1252C113.864 85.9872 113.795 85.8218 113.795 85.6291C113.795 85.4364 113.864 85.271 114.002 85.133C114.14 84.995 114.306 84.926 114.498 84.926C114.691 84.926 114.857 84.995 114.995 85.133C115.133 85.271 115.202 85.4364 115.202 85.6291C115.202 85.7567 115.169 85.8739 115.104 85.9807C115.041 86.0874 114.957 86.1734 114.85 86.2385C114.746 86.301 114.629 86.3322 114.498 86.3322ZM118.718 86.5075V90.4015H117.915V87.2775H116.518V86.5075H118.718ZM118.718 90.0605C118.975 90.4639 119.341 90.7645 119.818 90.9625C120.295 91.1605 120.856 91.2742 121.501 91.3035C121.809 91.3109 122.183 91.3182 122.623 91.3255C123.063 91.3255 123.525 91.3255 124.009 91.3255C124.493 91.3182 124.962 91.3072 125.417 91.2925C125.872 91.2779 126.264 91.2595 126.594 91.2375C126.565 91.2962 126.532 91.3732 126.495 91.4685C126.458 91.5639 126.425 91.6629 126.396 91.7655C126.367 91.8682 126.345 91.9635 126.33 92.0515C126.022 92.0589 125.655 92.0662 125.23 92.0735C124.812 92.0882 124.376 92.0955 123.921 92.0955C123.466 92.1029 123.026 92.1029 122.601 92.0955C122.176 92.0882 121.813 92.0809 121.512 92.0735C120.786 92.0442 120.166 91.9269 119.653 91.7215C119.14 91.5162 118.711 91.1972 118.366 90.7645C118.124 90.9992 117.875 91.2339 117.618 91.4685C117.369 91.7105 117.108 91.9525 116.837 92.1945L116.408 91.3805C116.65 91.2045 116.91 91.0029 117.189 90.7755C117.475 90.5409 117.743 90.3025 117.992 90.0605H118.718ZM116.628 82.8995L117.255 82.4375C117.482 82.6062 117.71 82.7969 117.937 83.0095C118.172 83.2222 118.384 83.4349 118.575 83.6475C118.773 83.8602 118.927 84.0582 119.037 84.2415L118.366 84.7585C118.263 84.5752 118.117 84.3735 117.926 84.1535C117.735 83.9262 117.526 83.7062 117.299 83.4935C117.079 83.2735 116.855 83.0755 116.628 82.8995ZM122.403 83.4495H123.206V90.9955H122.403V83.4495ZM120.731 87.3325V88.0805H124.911V87.3325H120.731ZM120.731 86.0675V86.7935H124.911V86.0675H120.731ZM120.005 85.5065H125.67V88.6415H120.005V85.5065ZM119.422 82.5475H126.253V83.9775H125.472V83.1745H120.17V83.9775H119.422V82.5475ZM119.664 84.2195H125.978V84.8355H119.664V84.2195ZM119.246 89.3125H126.44V89.9505H119.246V89.3125ZM127.771 89.3455H132.787V89.9835H127.771V89.3455ZM127.474 84.0435H132.974V84.6925H127.474V84.0435ZM129.861 83.0535H130.62V91.1385H129.861V83.0535ZM127.474 91.1605C127.921 91.1165 128.435 91.0689 129.014 91.0175C129.601 90.9662 130.22 90.9075 130.873 90.8415C131.533 90.7755 132.186 90.7059 132.831 90.6325L132.842 91.2815C132.219 91.3549 131.592 91.4282 130.961 91.5015C130.33 91.5822 129.725 91.6519 129.146 91.7105C128.574 91.7765 128.053 91.8352 127.584 91.8865L127.474 91.1605ZM128.486 87.2995V88.1025H132.061V87.2995H128.486ZM128.486 85.9575V86.7495H132.061V85.9575H128.486ZM127.804 85.3855H132.765V88.6745H127.804V85.3855ZM132.369 82.2725L132.776 82.9105C132.343 82.9985 131.845 83.0792 131.28 83.1525C130.715 83.2259 130.129 83.2882 129.52 83.3395C128.919 83.3835 128.343 83.4129 127.793 83.4275C127.778 83.3395 127.749 83.2369 127.705 83.1195C127.668 83.0022 127.632 82.8995 127.595 82.8115C128.006 82.7895 128.427 82.7639 128.86 82.7345C129.3 82.6979 129.733 82.6575 130.158 82.6135C130.591 82.5695 130.994 82.5182 131.368 82.4595C131.749 82.4009 132.083 82.3385 132.369 82.2725ZM132.886 84.7365H136.857V85.4955H132.886V84.7365ZM136.538 84.7365H137.33C137.33 84.7365 137.33 84.7659 137.33 84.8245C137.33 84.8759 137.33 84.9345 137.33 85.0005C137.33 85.0592 137.33 85.1069 137.33 85.1435C137.301 86.3095 137.268 87.2922 137.231 88.0915C137.202 88.8835 137.165 89.5325 137.121 90.0385C137.077 90.5445 137.022 90.9369 136.956 91.2155C136.897 91.4869 136.82 91.6812 136.725 91.7985C136.63 91.9452 136.523 92.0479 136.406 92.1065C136.289 92.1652 136.149 92.2019 135.988 92.2165C135.834 92.2385 135.636 92.2459 135.394 92.2385C135.152 92.2385 134.899 92.2349 134.635 92.2275C134.628 92.1102 134.602 91.9745 134.558 91.8205C134.514 91.6739 134.459 91.5455 134.393 91.4355C134.664 91.4575 134.914 91.4685 135.141 91.4685C135.368 91.4759 135.533 91.4795 135.636 91.4795C135.724 91.4795 135.797 91.4685 135.856 91.4465C135.915 91.4245 135.97 91.3805 136.021 91.3145C136.094 91.2265 136.157 91.0542 136.208 90.7975C136.259 90.5335 136.303 90.1559 136.34 89.6645C136.377 89.1732 136.41 88.5389 136.439 87.7615C136.476 86.9842 136.509 86.0382 136.538 84.9235V84.7365ZM134.217 82.3055H135.02C135.013 83.1782 134.998 84.0215 134.976 84.8355C134.961 85.6495 134.914 86.4232 134.833 87.1565C134.752 87.8899 134.617 88.5755 134.426 89.2135C134.243 89.8515 133.982 90.4345 133.645 90.9625C133.315 91.4832 132.886 91.9415 132.358 92.3375C132.321 92.2715 132.266 92.2019 132.193 92.1285C132.12 92.0552 132.043 91.9819 131.962 91.9085C131.889 91.8425 131.819 91.7875 131.753 91.7435C132.252 91.3842 132.659 90.9625 132.974 90.4785C133.289 89.9872 133.531 89.4445 133.7 88.8505C133.876 88.2492 133.997 87.6039 134.063 86.9145C134.136 86.2179 134.18 85.4845 134.195 84.7145C134.21 83.9372 134.217 83.1342 134.217 82.3055ZM141.653 86.6835H148.583V87.3985H141.653V86.6835ZM142.896 88.1685H147.681V88.8505H142.896V88.1685ZM143.424 86.9475L144.15 87.1345C143.864 87.7432 143.486 88.3079 143.017 88.8285C142.555 89.3419 142.071 89.7709 141.565 90.1155C141.528 90.0715 141.473 90.0165 141.4 89.9505C141.334 89.8845 141.264 89.8185 141.191 89.7525C141.118 89.6865 141.052 89.6389 140.993 89.6095C141.499 89.3015 141.968 88.9165 142.401 88.4545C142.841 87.9925 143.182 87.4902 143.424 86.9475ZM147.527 88.1685H148.308C148.308 88.1685 148.304 88.2125 148.297 88.3005C148.297 88.3812 148.293 88.4472 148.286 88.4985C148.227 89.2612 148.165 89.8772 148.099 90.3465C148.04 90.8159 147.974 91.1752 147.901 91.4245C147.828 91.6739 147.74 91.8535 147.637 91.9635C147.549 92.0662 147.454 92.1359 147.351 92.1725C147.248 92.2092 147.131 92.2312 146.999 92.2385C146.882 92.2532 146.724 92.2605 146.526 92.2605C146.335 92.2605 146.13 92.2532 145.91 92.2385C145.91 92.1359 145.892 92.0185 145.855 91.8865C145.818 91.7619 145.774 91.6519 145.723 91.5565C145.928 91.5785 146.115 91.5932 146.284 91.6005C146.453 91.6079 146.577 91.6115 146.658 91.6115C146.731 91.6115 146.794 91.6042 146.845 91.5895C146.904 91.5749 146.951 91.5419 146.988 91.4905C147.069 91.4172 147.138 91.2669 147.197 91.0395C147.263 90.8122 147.322 90.4785 147.373 90.0385C147.432 89.5912 147.483 89.0119 147.527 88.3005V88.1685ZM143.479 84.5715V85.4405H147.021V84.5715H143.479ZM143.479 83.1085V83.9775H147.021V83.1085H143.479ZM142.731 82.4925H147.791V86.0675H142.731V82.4925ZM138.595 84.5385H141.851V85.3305H138.595V84.5385ZM139.882 82.2505H140.663V89.0155H139.882V82.2505ZM138.386 89.4445C138.665 89.3272 138.987 89.1879 139.354 89.0265C139.721 88.8652 140.113 88.6892 140.531 88.4985C140.949 88.3079 141.367 88.1209 141.785 87.9375L141.961 88.6635C141.396 88.9422 140.828 89.2245 140.256 89.5105C139.684 89.7892 139.167 90.0422 138.705 90.2695L138.386 89.4445ZM146.13 88.3005L146.702 88.6085C146.57 89.0705 146.383 89.5399 146.141 90.0165C145.899 90.4932 145.628 90.9332 145.327 91.3365C145.026 91.7399 144.711 92.0699 144.381 92.3265C144.308 92.2459 144.212 92.1615 144.095 92.0735C143.985 91.9855 143.875 91.9122 143.765 91.8535C144.11 91.6189 144.436 91.3109 144.744 90.9295C145.059 90.5482 145.334 90.1265 145.569 89.6645C145.811 89.2025 145.998 88.7479 146.13 88.3005ZM144.403 88.3225L144.975 88.6525C144.784 89.0485 144.539 89.4519 144.238 89.8625C143.945 90.2659 143.618 90.6399 143.259 90.9845C142.9 91.3292 142.54 91.6189 142.181 91.8535C142.115 91.7655 142.031 91.6739 141.928 91.5785C141.833 91.4832 141.734 91.4025 141.631 91.3365C141.99 91.1385 142.35 90.8782 142.709 90.5555C143.068 90.2329 143.395 89.8772 143.688 89.4885C143.989 89.0999 144.227 88.7112 144.403 88.3225ZM104.732 96.4025V104.403H103.763V97.4182H103.716L101.763 98.715V97.7307L103.763 96.4025H104.732ZM109.58 96.2932C109.908 96.2958 110.236 96.3583 110.564 96.4807C110.892 96.603 111.192 96.8062 111.462 97.09C111.733 97.3713 111.951 97.7554 112.115 98.2424C112.279 98.7293 112.361 99.34 112.361 100.074C112.361 100.785 112.293 101.417 112.158 101.969C112.025 102.518 111.832 102.982 111.58 103.36C111.33 103.737 111.025 104.024 110.665 104.219C110.309 104.414 109.905 104.512 109.455 104.512C109.007 104.512 108.607 104.423 108.255 104.246C107.906 104.067 107.62 103.818 107.396 103.5C107.175 103.18 107.033 102.809 106.97 102.387H107.923C108.009 102.754 108.18 103.057 108.435 103.297C108.693 103.534 109.033 103.653 109.455 103.653C110.072 103.653 110.559 103.383 110.915 102.844C111.275 102.305 111.455 101.543 111.455 100.559H111.392C111.246 100.778 111.073 100.966 110.872 101.125C110.672 101.284 110.449 101.406 110.205 101.492C109.96 101.578 109.699 101.621 109.423 101.621C108.965 101.621 108.544 101.508 108.162 101.281C107.781 101.052 107.477 100.738 107.247 100.34C107.021 99.939 106.908 99.4807 106.908 98.965C106.908 98.4754 107.017 98.0275 107.236 97.6213C107.457 97.2124 107.767 96.8869 108.165 96.6447C108.567 96.4025 109.038 96.2853 109.58 96.2932ZM109.58 97.1525C109.251 97.1525 108.956 97.2346 108.693 97.3986C108.432 97.5601 108.225 97.7788 108.072 98.0549C107.921 98.3283 107.845 98.6317 107.845 98.965C107.845 99.2984 107.918 99.6017 108.064 99.8752C108.212 100.146 108.414 100.362 108.669 100.524C108.927 100.682 109.22 100.762 109.548 100.762C109.796 100.762 110.026 100.714 110.24 100.617C110.453 100.518 110.639 100.384 110.798 100.215C110.96 100.043 111.086 99.8491 111.177 99.633C111.268 99.4142 111.314 99.1864 111.314 98.9494C111.314 98.6369 111.238 98.3439 111.087 98.0705C110.939 97.7971 110.733 97.5757 110.47 97.4064C110.21 97.2372 109.913 97.1525 109.58 97.1525ZM114.584 103.379C114.392 103.379 114.226 103.31 114.088 103.172C113.95 103.034 113.881 102.869 113.881 102.676C113.881 102.483 113.95 102.318 114.088 102.18C114.226 102.042 114.392 101.973 114.584 101.973C114.777 101.973 114.942 102.042 115.081 102.18C115.219 102.318 115.288 102.483 115.288 102.676C115.288 102.804 115.255 102.921 115.19 103.028C115.127 103.134 115.043 103.22 114.936 103.285C114.832 103.348 114.715 103.379 114.584 103.379ZM114.584 99.3322C114.392 99.3322 114.226 99.2632 114.088 99.1252C113.95 98.9872 113.881 98.8218 113.881 98.6291C113.881 98.4364 113.95 98.271 114.088 98.133C114.226 97.995 114.392 97.926 114.584 97.926C114.777 97.926 114.942 97.995 115.081 98.133C115.219 98.271 115.288 98.4364 115.288 98.6291C115.288 98.7567 115.255 98.8739 115.19 98.9807C115.127 99.0874 115.043 99.1734 114.936 99.2385C114.832 99.301 114.715 99.3322 114.584 99.3322ZM120.927 101.587H123.16V102.17H120.927V101.587ZM120.311 96.2625H123.776V96.9005H120.311V96.2625ZM119.992 98.6715H126.669V99.3425H119.992V98.6715ZM121.059 100.003H123.534V103.776H121.059V103.171H122.852V100.619H121.059V100.003ZM120.575 100.003H121.246V104.48H120.575V100.003ZM121.631 95.1735H122.357V96.7135H121.631V95.1735ZM125.679 99.9035L126.372 100.058C126.064 101.216 125.624 102.236 125.052 103.116C124.48 103.988 123.787 104.711 122.973 105.283C122.944 105.239 122.9 105.18 122.841 105.107C122.782 105.041 122.716 104.971 122.643 104.898C122.577 104.832 122.518 104.777 122.467 104.733C123.266 104.227 123.934 103.563 124.469 102.742C125.004 101.913 125.408 100.967 125.679 99.9035ZM120.641 97.1095L121.202 96.9775C121.312 97.2122 121.4 97.4762 121.466 97.7695C121.532 98.0555 121.572 98.3049 121.587 98.5175L120.982 98.6605C120.975 98.4479 120.938 98.1985 120.872 97.9125C120.806 97.6265 120.729 97.3589 120.641 97.1095ZM124.953 95.8665L125.514 95.5695C125.756 95.8409 125.983 96.1452 126.196 96.4825C126.416 96.8199 126.577 97.1169 126.68 97.3735L126.075 97.7035C125.98 97.4469 125.826 97.1462 125.613 96.8015C125.408 96.4495 125.188 96.1379 124.953 95.8665ZM122.731 96.9555L123.413 97.1095C123.325 97.3662 123.237 97.6375 123.149 97.9235C123.061 98.2095 122.98 98.4479 122.907 98.6385L122.357 98.5065C122.423 98.2865 122.493 98.0299 122.566 97.7365C122.647 97.4359 122.702 97.1755 122.731 96.9555ZM116.648 95.6355H120.322V96.3725H116.648V95.6355ZM117.506 97.9455H119.497V98.6385H117.506V97.9455ZM117.506 100.223H119.497V100.916H117.506V100.223ZM117.165 96.0095H117.869V103.05H117.165V96.0095ZM119.068 96.0095H119.783V105.283H119.068V96.0095ZM116.461 102.951C116.85 102.877 117.304 102.793 117.825 102.698C118.346 102.595 118.885 102.485 119.442 102.368L119.497 103.083C118.991 103.193 118.485 103.303 117.979 103.413C117.473 103.523 117.015 103.625 116.604 103.721L116.461 102.951ZM124.029 95.1735H124.777C124.77 96.1562 124.781 97.0985 124.81 98.0005C124.847 98.9025 124.891 99.7349 124.942 100.498C125.001 101.26 125.07 101.924 125.151 102.489C125.239 103.053 125.338 103.497 125.448 103.82C125.565 104.135 125.694 104.296 125.833 104.304C125.921 104.304 125.994 104.161 126.053 103.875C126.119 103.581 126.167 103.174 126.196 102.654C126.24 102.712 126.299 102.771 126.372 102.83C126.445 102.888 126.519 102.94 126.592 102.984C126.665 103.028 126.724 103.064 126.768 103.094C126.695 103.666 126.607 104.109 126.504 104.425C126.401 104.74 126.288 104.956 126.163 105.074C126.046 105.198 125.928 105.261 125.811 105.261C125.525 105.253 125.279 105.081 125.074 104.744C124.876 104.414 124.711 103.944 124.579 103.336C124.454 102.727 124.352 102.005 124.271 101.169C124.198 100.333 124.143 99.4085 124.106 98.3965C124.069 97.3845 124.044 96.3102 124.029 95.1735ZM130.013 96.2625V97.3955H135.238V96.2625H130.013ZM129.188 95.5915H136.107V98.0775H129.188V95.5915ZM129.529 100.674V101.455H135.689V100.674H129.529ZM129.529 102.038V102.83H135.689V102.038H129.529ZM129.529 99.3205V100.091H135.689V99.3205H129.529ZM128.715 98.7045H136.536V103.446H128.715V98.7045ZM130.805 103.424L131.575 103.93C131.282 104.106 130.937 104.282 130.541 104.458C130.152 104.634 129.749 104.791 129.331 104.931C128.92 105.077 128.521 105.198 128.132 105.294C128.066 105.206 127.971 105.099 127.846 104.975C127.729 104.857 127.622 104.762 127.527 104.689C127.916 104.593 128.319 104.476 128.737 104.337C129.155 104.197 129.547 104.051 129.914 103.897C130.281 103.735 130.578 103.578 130.805 103.424ZM133.5 104.007L134.204 103.468C134.593 103.578 135 103.706 135.425 103.853C135.85 103.999 136.261 104.15 136.657 104.304C137.06 104.45 137.401 104.586 137.68 104.711L136.976 105.305C136.705 105.173 136.367 105.026 135.964 104.865C135.568 104.711 135.154 104.557 134.721 104.403C134.288 104.249 133.881 104.117 133.5 104.007ZM143.147 100.773H143.994V104.513H143.147V100.773ZM139.99 97.8685H147.283V98.5945H139.99V97.8685ZM138.747 104.227H148.493V104.975H138.747V104.227ZM139.748 102.115H147.536V102.841H139.748V102.115ZM142.19 98.2425L143.048 98.4845C142.894 98.7412 142.729 99.0089 142.553 99.2875C142.384 99.5589 142.212 99.8192 142.036 100.069C141.86 100.318 141.695 100.542 141.541 100.74L140.881 100.509C141.035 100.303 141.193 100.069 141.354 99.8045C141.515 99.5405 141.669 99.2729 141.816 99.0015C141.97 98.7229 142.095 98.4699 142.19 98.2425ZM139.55 100.212C140.159 100.204 140.866 100.193 141.673 100.179C142.48 100.157 143.338 100.135 144.247 100.113C145.156 100.083 146.066 100.058 146.975 100.036L146.931 100.729C146.044 100.765 145.153 100.802 144.258 100.839C143.371 100.868 142.527 100.894 141.728 100.916C140.929 100.938 140.217 100.956 139.594 100.971L139.55 100.212ZM144.863 99.2545L145.457 98.8255C145.772 99.0235 146.091 99.2472 146.414 99.4965C146.744 99.7459 147.052 99.9989 147.338 100.256C147.631 100.505 147.866 100.74 148.042 100.96L147.404 101.422C147.235 101.209 147.012 100.974 146.733 100.718C146.454 100.461 146.15 100.204 145.82 99.9475C145.497 99.6835 145.178 99.4525 144.863 99.2545ZM143.147 95.1625H143.994V96.5155H143.147V95.1625ZM138.868 95.9985H148.361V98.0335H147.525V96.7575H139.671V98.0335H138.868V95.9985ZM149.681 96.9005H159.515V97.6595H149.681V96.9005ZM150.814 100.443H153.905V101.092H150.814V100.443ZM150.814 102.203H153.905V102.852H150.814V102.203ZM155.742 98.7485H156.512V103.259H155.742V98.7485ZM153.597 98.6495H154.4V104.337C154.4 104.542 154.371 104.703 154.312 104.821C154.261 104.938 154.158 105.03 154.004 105.096C153.85 105.162 153.648 105.202 153.399 105.217C153.157 105.231 152.849 105.239 152.475 105.239C152.453 105.136 152.413 105.011 152.354 104.865C152.303 104.725 152.248 104.604 152.189 104.502C152.468 104.509 152.721 104.513 152.948 104.513C153.175 104.52 153.326 104.52 153.399 104.513C153.48 104.513 153.531 104.498 153.553 104.469C153.582 104.439 153.597 104.392 153.597 104.326V98.6495ZM157.975 98.4185H158.789V104.26C158.789 104.494 158.756 104.674 158.69 104.799C158.624 104.931 158.503 105.03 158.327 105.096C158.158 105.162 157.931 105.202 157.645 105.217C157.366 105.239 157.014 105.246 156.589 105.239C156.567 105.129 156.527 104.997 156.468 104.843C156.409 104.696 156.351 104.564 156.292 104.447C156.622 104.461 156.923 104.469 157.194 104.469C157.465 104.469 157.649 104.465 157.744 104.458C157.832 104.458 157.891 104.443 157.92 104.414C157.957 104.384 157.975 104.329 157.975 104.249V98.4185ZM151.386 95.4265L152.156 95.1515C152.369 95.3789 152.578 95.6392 152.783 95.9325C152.988 96.2259 153.146 96.4789 153.256 96.6915L152.442 96.9995C152.354 96.7869 152.207 96.5339 152.002 96.2405C151.804 95.9399 151.599 95.6685 151.386 95.4265ZM157.051 95.1075L157.931 95.3935C157.726 95.7382 157.502 96.0865 157.26 96.4385C157.025 96.7905 156.809 97.0949 156.611 97.3515L155.874 97.0875C156.013 96.9042 156.156 96.6989 156.303 96.4715C156.45 96.2369 156.585 96.0022 156.71 95.7675C156.842 95.5255 156.956 95.3055 157.051 95.1075ZM150.374 98.6495H153.861V99.3535H151.155V105.228H150.374V98.6495ZM101.919 117.403V116.699L104.56 113.809C104.87 113.47 105.125 113.176 105.326 112.926C105.526 112.673 105.675 112.436 105.771 112.215C105.87 111.991 105.919 111.757 105.919 111.512C105.919 111.231 105.852 110.987 105.716 110.781C105.583 110.576 105.401 110.417 105.169 110.305C104.938 110.193 104.677 110.137 104.388 110.137C104.081 110.137 103.813 110.201 103.583 110.328C103.357 110.453 103.181 110.629 103.056 110.856C102.934 111.082 102.872 111.348 102.872 111.653H101.951C101.951 111.184 102.059 110.772 102.275 110.418C102.491 110.064 102.785 109.788 103.158 109.59C103.533 109.392 103.953 109.293 104.419 109.293C104.888 109.293 105.303 109.392 105.665 109.59C106.027 109.788 106.311 110.055 106.517 110.391C106.723 110.727 106.826 111.1 106.826 111.512C106.826 111.806 106.772 112.094 106.665 112.375C106.561 112.654 106.379 112.965 106.119 113.309C105.861 113.65 105.503 114.067 105.044 114.559L103.247 116.481V116.543H106.966V117.403H101.919ZM111.189 117.512C110.6 117.512 110.099 117.352 109.685 117.031C109.271 116.709 108.955 116.241 108.736 115.629C108.517 115.015 108.408 114.272 108.408 113.403C108.408 112.538 108.517 111.8 108.736 111.188C108.957 110.573 109.275 110.104 109.689 109.781C110.106 109.456 110.606 109.293 111.189 109.293C111.772 109.293 112.271 109.456 112.685 109.781C113.102 110.104 113.419 110.573 113.638 111.188C113.859 111.8 113.97 112.538 113.97 113.403C113.97 114.272 113.861 115.015 113.642 115.629C113.423 116.241 113.107 116.709 112.693 117.031C112.279 117.352 111.777 117.512 111.189 117.512ZM111.189 116.653C111.772 116.653 112.225 116.371 112.548 115.809C112.871 115.246 113.033 114.444 113.033 113.403C113.033 112.71 112.958 112.12 112.81 111.633C112.664 111.146 112.453 110.775 112.177 110.52C111.904 110.265 111.574 110.137 111.189 110.137C110.611 110.137 110.159 110.422 109.833 110.992C109.508 111.56 109.345 112.363 109.345 113.403C109.345 114.095 109.418 114.684 109.564 115.168C109.71 115.653 109.919 116.021 110.193 116.274C110.469 116.526 110.801 116.653 111.189 116.653ZM116.142 116.379C115.949 116.379 115.784 116.31 115.646 116.172C115.508 116.034 115.439 115.869 115.439 115.676C115.439 115.483 115.508 115.318 115.646 115.18C115.784 115.042 115.949 114.973 116.142 114.973C116.335 114.973 116.5 115.042 116.638 115.18C116.776 115.318 116.845 115.483 116.845 115.676C116.845 115.804 116.813 115.921 116.747 116.028C116.685 116.134 116.6 116.22 116.494 116.285C116.389 116.348 116.272 116.379 116.142 116.379ZM116.142 112.332C115.949 112.332 115.784 112.263 115.646 112.125C115.508 111.987 115.439 111.822 115.439 111.629C115.439 111.436 115.508 111.271 115.646 111.133C115.784 110.995 115.949 110.926 116.142 110.926C116.335 110.926 116.5 110.995 116.638 111.133C116.776 111.271 116.845 111.436 116.845 111.629C116.845 111.757 116.813 111.874 116.747 111.981C116.685 112.087 116.6 112.173 116.494 112.238C116.389 112.301 116.272 112.332 116.142 112.332ZM118.195 108.724H121.979V109.494H118.195V108.724ZM118.327 111.848H121.88V112.607H118.327V111.848ZM117.997 115.764C118.334 115.676 118.723 115.573 119.163 115.456C119.603 115.338 120.068 115.21 120.56 115.071C121.058 114.931 121.553 114.792 122.045 114.653L122.155 115.39C121.465 115.595 120.769 115.8 120.065 116.006C119.368 116.211 118.748 116.394 118.206 116.556L117.997 115.764ZM123.266 111.111V112.222H126.863V111.111H123.266ZM123.266 112.882V114.004H126.863V112.882H123.266ZM123.266 109.34V110.44H126.863V109.34H123.266ZM122.496 108.647H127.666V114.708H122.496V108.647ZM125.378 114.367H126.17V117.172C126.17 117.304 126.188 117.388 126.225 117.425C126.261 117.469 126.346 117.491 126.478 117.491C126.522 117.491 126.602 117.491 126.72 117.491C126.837 117.491 126.958 117.491 127.083 117.491C127.207 117.491 127.295 117.491 127.347 117.491C127.427 117.491 127.49 117.461 127.534 117.403C127.578 117.344 127.607 117.223 127.622 117.04C127.644 116.849 127.658 116.567 127.666 116.193C127.724 116.229 127.794 116.27 127.875 116.314C127.963 116.358 128.051 116.394 128.139 116.424C128.227 116.453 128.307 116.479 128.381 116.501C128.359 116.948 128.315 117.296 128.249 117.546C128.183 117.795 128.084 117.967 127.952 118.063C127.827 118.158 127.655 118.206 127.435 118.206C127.398 118.206 127.328 118.206 127.226 118.206C127.123 118.206 127.013 118.206 126.896 118.206C126.778 118.206 126.668 118.206 126.566 118.206C126.47 118.206 126.401 118.206 126.357 118.206C126.093 118.206 125.887 118.176 125.741 118.118C125.601 118.059 125.506 117.953 125.455 117.799C125.403 117.645 125.378 117.436 125.378 117.172V114.367ZM123.497 114.532H124.311C124.259 115.001 124.179 115.434 124.069 115.83C123.959 116.218 123.794 116.57 123.574 116.886C123.354 117.201 123.06 117.48 122.694 117.722C122.334 117.971 121.876 118.18 121.319 118.349C121.289 118.283 121.249 118.206 121.198 118.118C121.146 118.037 121.088 117.953 121.022 117.865C120.963 117.784 120.904 117.722 120.846 117.678C121.352 117.538 121.766 117.37 122.089 117.172C122.419 116.966 122.679 116.732 122.87 116.468C123.06 116.204 123.2 115.91 123.288 115.588C123.383 115.265 123.453 114.913 123.497 114.532ZM119.724 109.032H120.527V115.511L119.724 115.654V109.032ZM132.22 111.936L139.04 111.078L139.161 111.859L132.341 112.717L132.22 111.936ZM136.521 108.79L137.115 108.394C137.335 108.57 137.562 108.764 137.797 108.977C138.031 109.189 138.248 109.402 138.446 109.615C138.651 109.82 138.816 110.003 138.941 110.165L138.303 110.605C138.178 110.436 138.017 110.249 137.819 110.044C137.628 109.831 137.419 109.615 137.192 109.395C136.964 109.167 136.741 108.966 136.521 108.79ZM132.099 108.273L132.88 108.526C132.601 109.171 132.275 109.802 131.901 110.418C131.534 111.034 131.134 111.613 130.702 112.156C130.269 112.691 129.825 113.164 129.371 113.575C129.341 113.509 129.297 113.424 129.239 113.322C129.18 113.219 129.118 113.12 129.052 113.025C128.993 112.922 128.938 112.841 128.887 112.783C129.312 112.423 129.723 112.005 130.119 111.529C130.522 111.052 130.892 110.535 131.23 109.978C131.567 109.42 131.857 108.852 132.099 108.273ZM130.845 111.21L131.681 110.374L131.692 110.396V118.261H130.845V111.21ZM134.684 108.317H135.509C135.553 109.556 135.633 110.711 135.751 111.782C135.868 112.852 136.029 113.795 136.235 114.609C136.44 115.423 136.697 116.064 137.005 116.534C137.313 117.003 137.672 117.26 138.083 117.304C138.244 117.311 138.372 117.153 138.468 116.831C138.563 116.508 138.636 116.028 138.688 115.39C138.746 115.441 138.82 115.496 138.908 115.555C138.996 115.613 139.084 115.668 139.172 115.72C139.26 115.764 139.329 115.8 139.381 115.83C139.3 116.46 139.197 116.959 139.073 117.326C138.948 117.685 138.805 117.934 138.644 118.074C138.49 118.22 138.314 118.286 138.116 118.272C137.624 118.235 137.195 118.048 136.829 117.711C136.462 117.373 136.15 116.908 135.894 116.314C135.644 115.72 135.439 115.016 135.278 114.202C135.116 113.388 134.988 112.486 134.893 111.496C134.805 110.506 134.735 109.446 134.684 108.317ZM140.734 109.703H149.589V110.44H140.734V109.703ZM141.273 111.342H149.094V112.057H141.273V111.342ZM140.294 112.981H150.018V113.729H140.294V112.981ZM140.206 114.752H150.139V115.489H140.206V114.752ZM144.716 110.121H145.552V113.52H144.716V110.121ZM142.131 108.449L142.857 108.141C143.055 108.346 143.242 108.577 143.418 108.834C143.601 109.09 143.733 109.325 143.814 109.538L143.044 109.879C142.978 109.673 142.86 109.435 142.692 109.164C142.523 108.892 142.336 108.654 142.131 108.449ZM147.301 108.141L148.159 108.405C147.983 108.661 147.796 108.914 147.598 109.164C147.407 109.413 147.227 109.626 147.059 109.802L146.344 109.56C146.454 109.428 146.567 109.281 146.685 109.12C146.802 108.951 146.916 108.782 147.026 108.614C147.136 108.438 147.227 108.28 147.301 108.141ZM144.661 113.597H145.53C145.471 114.11 145.383 114.583 145.266 115.016C145.148 115.441 144.98 115.826 144.76 116.171C144.547 116.515 144.257 116.823 143.891 117.095C143.524 117.366 143.062 117.597 142.505 117.788C141.947 117.986 141.273 118.151 140.481 118.283C140.466 118.209 140.433 118.129 140.382 118.041C140.338 117.953 140.286 117.861 140.228 117.766C140.176 117.678 140.121 117.604 140.063 117.546C140.803 117.436 141.43 117.3 141.944 117.139C142.464 116.977 142.89 116.783 143.22 116.556C143.557 116.328 143.821 116.072 144.012 115.786C144.202 115.492 144.345 115.166 144.441 114.807C144.536 114.44 144.609 114.037 144.661 113.597ZM145.772 114.972C146.087 115.756 146.619 116.354 147.367 116.765C148.115 117.168 149.09 117.425 150.293 117.535C150.234 117.593 150.172 117.667 150.106 117.755C150.04 117.85 149.977 117.945 149.919 118.041C149.867 118.136 149.823 118.22 149.787 118.294C148.951 118.184 148.217 118 147.587 117.744C146.963 117.494 146.439 117.157 146.014 116.732C145.596 116.299 145.262 115.76 145.013 115.115L145.772 114.972ZM154.275 112.695L154.979 112.794C154.942 113.307 154.887 113.813 154.814 114.312C154.74 114.81 154.649 115.276 154.539 115.709C154.436 116.134 154.304 116.515 154.143 116.853C154.099 116.816 154.04 116.776 153.967 116.732C153.901 116.68 153.827 116.633 153.747 116.589C153.673 116.537 153.604 116.497 153.538 116.468C153.699 116.16 153.827 115.804 153.923 115.401C154.018 114.997 154.091 114.565 154.143 114.103C154.201 113.641 154.245 113.171 154.275 112.695ZM153.989 110.583H158.114V111.353H153.989V110.583ZM155.65 108.317H156.431V118.118H155.65V108.317ZM156.959 112.838L157.608 112.717C157.696 113.061 157.78 113.432 157.861 113.828C157.949 114.216 158.022 114.598 158.081 114.972C158.147 115.346 158.191 115.683 158.213 115.984L157.542 116.116C157.52 115.815 157.479 115.478 157.421 115.104C157.362 114.722 157.292 114.337 157.212 113.949C157.138 113.553 157.054 113.182 156.959 112.838ZM158.433 108.812H161.062V109.549H158.433V108.812ZM158.169 111.848H161.216V112.596H158.169V111.848ZM156.739 108.702L157.3 108.438C157.49 108.665 157.674 108.922 157.85 109.208C158.033 109.486 158.165 109.728 158.246 109.934L157.663 110.231C157.582 110.025 157.454 109.78 157.278 109.494C157.102 109.2 156.922 108.936 156.739 108.702ZM159.434 112.068H160.226V117.304C160.226 117.531 160.196 117.707 160.138 117.832C160.086 117.964 159.98 118.066 159.819 118.14C159.665 118.198 159.459 118.235 159.203 118.25C158.946 118.272 158.623 118.283 158.235 118.283C158.227 118.173 158.198 118.041 158.147 117.887C158.103 117.733 158.055 117.597 158.004 117.48C158.282 117.487 158.535 117.491 158.763 117.491C158.997 117.498 159.155 117.498 159.236 117.491C159.316 117.483 159.368 117.465 159.39 117.436C159.419 117.414 159.434 117.37 159.434 117.304V112.068ZM152.955 108.163L153.714 108.438C153.538 108.738 153.325 109.046 153.076 109.362C152.826 109.67 152.562 109.963 152.284 110.242C152.012 110.52 151.734 110.77 151.448 110.99C151.418 110.938 151.374 110.876 151.316 110.803C151.264 110.722 151.209 110.645 151.151 110.572C151.092 110.491 151.041 110.425 150.997 110.374C151.246 110.183 151.495 109.967 151.745 109.725C152.001 109.475 152.236 109.215 152.449 108.944C152.661 108.672 152.83 108.412 152.955 108.163ZM152.306 112.552L152.966 111.881L153.065 111.914V118.294H152.306V112.552ZM153.285 110.374L154.022 110.627C153.809 111.081 153.556 111.532 153.263 111.98C152.969 112.42 152.658 112.834 152.328 113.223C151.998 113.611 151.664 113.956 151.327 114.257C151.297 114.198 151.253 114.125 151.195 114.037C151.136 113.941 151.074 113.85 151.008 113.762C150.942 113.666 150.883 113.593 150.832 113.542C151.308 113.153 151.767 112.68 152.207 112.123C152.647 111.565 153.006 110.982 153.285 110.374ZM166.683 108.768H171.996V109.549H166.683V108.768ZM166.375 112.717H172.216V113.509H166.375V112.717ZM170.181 109.076H170.973V118.283H170.181V109.076ZM167.607 109.109H168.388V112.97C168.388 113.424 168.369 113.894 168.333 114.378C168.296 114.854 168.223 115.327 168.113 115.797C168.01 116.259 167.852 116.706 167.64 117.139C167.434 117.571 167.159 117.967 166.815 118.327C166.771 118.283 166.708 118.228 166.628 118.162C166.554 118.103 166.477 118.044 166.397 117.986C166.323 117.934 166.25 117.89 166.177 117.854C166.499 117.524 166.752 117.161 166.936 116.765C167.126 116.361 167.269 115.943 167.365 115.511C167.467 115.078 167.533 114.645 167.563 114.213C167.592 113.78 167.607 113.362 167.607 112.959V109.109ZM162.217 108.768H166.089V109.527H162.217V108.768ZM163.317 112.134H165.902V116.897H163.317V116.16H165.165V112.882H163.317V112.134ZM163.658 109.12L164.417 109.285C164.292 109.974 164.134 110.649 163.944 111.309C163.753 111.969 163.529 112.588 163.273 113.168C163.023 113.74 162.726 114.246 162.382 114.686C162.367 114.612 162.338 114.521 162.294 114.411C162.25 114.301 162.202 114.187 162.151 114.07C162.099 113.952 162.052 113.861 162.008 113.795C162.433 113.23 162.778 112.541 163.042 111.727C163.306 110.905 163.511 110.036 163.658 109.12ZM162.965 112.134H163.669V117.777H162.965V112.134ZM173.888 113.96H180.378V114.73H173.888V113.96ZM179.927 113.96H180.785V117.062C180.785 117.208 180.807 117.304 180.851 117.348C180.895 117.392 180.99 117.414 181.137 117.414C181.166 117.414 181.221 117.414 181.302 117.414C181.39 117.414 181.485 117.414 181.588 117.414C181.69 117.414 181.786 117.414 181.874 117.414C181.962 117.414 182.028 117.414 182.072 117.414C182.174 117.414 182.251 117.377 182.303 117.304C182.354 117.223 182.391 117.065 182.413 116.831C182.435 116.596 182.449 116.24 182.457 115.764C182.523 115.815 182.6 115.863 182.688 115.907C182.783 115.951 182.878 115.991 182.974 116.028C183.076 116.064 183.168 116.094 183.249 116.116C183.219 116.673 183.168 117.102 183.095 117.403C183.029 117.711 182.922 117.923 182.776 118.041C182.629 118.158 182.424 118.217 182.16 118.217C182.116 118.217 182.039 118.217 181.929 118.217C181.826 118.217 181.709 118.217 181.577 118.217C181.452 118.217 181.335 118.217 181.225 118.217C181.122 118.217 181.052 118.217 181.016 118.217C180.737 118.217 180.517 118.184 180.356 118.118C180.202 118.052 180.092 117.934 180.026 117.766C179.96 117.604 179.927 117.373 179.927 117.073V113.96ZM177.738 108.152H178.585V109.648H177.738V108.152ZM176.418 109.714H177.287C177.228 110.205 177.133 110.645 177.001 111.034C176.876 111.415 176.685 111.752 176.429 112.046C176.179 112.339 175.838 112.592 175.406 112.805C174.973 113.01 174.427 113.182 173.767 113.322C173.737 113.219 173.679 113.102 173.591 112.97C173.503 112.83 173.418 112.724 173.338 112.651C173.939 112.533 174.427 112.394 174.801 112.233C175.182 112.064 175.483 111.862 175.703 111.628C175.93 111.386 176.095 111.107 176.198 110.792C176.3 110.476 176.374 110.117 176.418 109.714ZM178.959 109.725H179.784V111.87C179.784 112.002 179.809 112.086 179.861 112.123C179.912 112.159 180.037 112.178 180.235 112.178C180.286 112.178 180.374 112.178 180.499 112.178C180.623 112.178 180.759 112.178 180.906 112.178C181.06 112.178 181.203 112.178 181.335 112.178C181.467 112.178 181.558 112.178 181.61 112.178C181.712 112.178 181.789 112.159 181.841 112.123C181.899 112.079 181.94 111.998 181.962 111.881C181.984 111.763 181.998 111.584 182.006 111.342C182.072 111.386 182.145 111.43 182.226 111.474C182.314 111.51 182.402 111.543 182.49 111.573C182.585 111.602 182.669 111.628 182.743 111.65C182.721 111.98 182.673 112.24 182.6 112.431C182.526 112.614 182.416 112.742 182.27 112.816C182.13 112.882 181.94 112.915 181.698 112.915C181.646 112.915 181.547 112.915 181.401 112.915C181.254 112.915 181.093 112.915 180.917 112.915C180.741 112.915 180.579 112.915 180.433 112.915C180.293 112.915 180.198 112.915 180.147 112.915C179.831 112.915 179.586 112.885 179.41 112.827C179.241 112.768 179.124 112.665 179.058 112.519C178.992 112.365 178.959 112.152 178.959 111.881V109.725ZM173.503 109.175H182.897V111.078H182.039V109.923H174.328V111.166H173.503V109.175ZM177.056 112.607H177.881V113.938C177.881 114.238 177.851 114.55 177.793 114.873C177.741 115.188 177.635 115.507 177.474 115.83C177.312 116.145 177.078 116.453 176.77 116.754C176.462 117.054 176.058 117.337 175.56 117.601C175.061 117.865 174.438 118.103 173.69 118.316C173.631 118.213 173.547 118.096 173.437 117.964C173.334 117.839 173.235 117.733 173.14 117.645C173.836 117.454 174.419 117.241 174.889 117.007C175.358 116.772 175.736 116.523 176.022 116.259C176.315 115.995 176.535 115.731 176.682 115.467C176.828 115.195 176.927 114.931 176.979 114.675C177.03 114.411 177.056 114.161 177.056 113.927V112.607ZM190.256 108.812H193.556V109.593H191.059V118.283H190.256V108.812ZM184.393 109.384H189.651V110.121H184.393V109.384ZM184.118 112.431H189.805V113.179H184.118V112.431ZM186.604 108.207H187.407V109.824H186.604V108.207ZM185.086 110.495L185.779 110.352C185.896 110.623 186.002 110.927 186.098 111.265C186.193 111.595 186.255 111.877 186.285 112.112L185.548 112.299C185.526 112.049 185.471 111.76 185.383 111.43C185.295 111.092 185.196 110.781 185.086 110.495ZM188.232 110.275L189.024 110.462C188.906 110.784 188.782 111.118 188.65 111.463C188.525 111.8 188.404 112.09 188.287 112.332L187.616 112.145C187.689 111.976 187.762 111.782 187.836 111.562C187.916 111.342 187.99 111.118 188.056 110.891C188.129 110.663 188.188 110.458 188.232 110.275ZM185.141 116.908H188.76V117.645H185.141V116.908ZM184.855 114.147H189.189V118.239H188.386V114.873H185.625V118.294H184.855V114.147ZM193.347 108.812H193.501L193.644 108.779L194.238 109.164C194.018 109.684 193.772 110.242 193.501 110.836C193.229 111.43 192.965 111.98 192.709 112.486C193.083 112.83 193.369 113.16 193.567 113.476C193.765 113.784 193.904 114.077 193.985 114.356C194.065 114.634 194.106 114.906 194.106 115.17C194.106 115.514 194.062 115.811 193.974 116.061C193.886 116.303 193.746 116.49 193.556 116.622C193.365 116.746 193.127 116.827 192.841 116.864C192.694 116.878 192.536 116.886 192.368 116.886C192.206 116.886 192.041 116.882 191.873 116.875C191.865 116.757 191.843 116.622 191.807 116.468C191.77 116.314 191.715 116.178 191.642 116.061C191.81 116.075 191.968 116.086 192.115 116.094C192.261 116.094 192.39 116.09 192.5 116.083C192.595 116.075 192.683 116.064 192.764 116.05C192.844 116.028 192.918 115.998 192.984 115.962C193.101 115.888 193.182 115.775 193.226 115.621C193.277 115.467 193.303 115.287 193.303 115.082C193.295 114.737 193.193 114.359 192.995 113.949C192.797 113.531 192.415 113.08 191.851 112.596C191.997 112.317 192.14 112.02 192.28 111.705C192.419 111.382 192.555 111.063 192.687 110.748C192.819 110.425 192.94 110.121 193.05 109.835C193.16 109.549 193.259 109.296 193.347 109.076V108.812ZM101.919 130.403V129.699L104.56 126.809C104.87 126.47 105.125 126.176 105.326 125.926C105.526 125.673 105.675 125.436 105.771 125.215C105.87 124.991 105.919 124.757 105.919 124.512C105.919 124.231 105.852 123.987 105.716 123.781C105.583 123.576 105.401 123.417 105.169 123.305C104.938 123.193 104.677 123.137 104.388 123.137C104.081 123.137 103.813 123.201 103.583 123.328C103.357 123.453 103.181 123.629 103.056 123.856C102.934 124.082 102.872 124.348 102.872 124.653H101.951C101.951 124.184 102.059 123.772 102.275 123.418C102.491 123.064 102.785 122.788 103.158 122.59C103.533 122.392 103.953 122.293 104.419 122.293C104.888 122.293 105.303 122.392 105.665 122.59C106.027 122.788 106.311 123.055 106.517 123.391C106.723 123.727 106.826 124.1 106.826 124.512C106.826 124.806 106.772 125.094 106.665 125.375C106.561 125.654 106.379 125.965 106.119 126.309C105.861 126.65 105.503 127.067 105.044 127.559L103.247 129.481V129.543H106.966V130.403H101.919ZM111.392 122.403V130.403H110.423V123.418H110.376L108.423 124.715V123.731L110.423 122.403H111.392ZM114.38 129.379C114.188 129.379 114.022 129.31 113.884 129.172C113.746 129.034 113.677 128.869 113.677 128.676C113.677 128.483 113.746 128.318 113.884 128.18C114.022 128.042 114.188 127.973 114.38 127.973C114.573 127.973 114.738 128.042 114.876 128.18C115.014 128.318 115.083 128.483 115.083 128.676C115.083 128.804 115.051 128.921 114.986 129.028C114.923 129.134 114.839 129.22 114.732 129.285C114.628 129.348 114.511 129.379 114.38 129.379ZM114.38 125.332C114.188 125.332 114.022 125.263 113.884 125.125C113.746 124.987 113.677 124.822 113.677 124.629C113.677 124.436 113.746 124.271 113.884 124.133C114.022 123.995 114.188 123.926 114.38 123.926C114.573 123.926 114.738 123.995 114.876 124.133C115.014 124.271 115.083 124.436 115.083 124.629C115.083 124.757 115.051 124.874 114.986 124.981C114.923 125.087 114.839 125.173 114.732 125.238C114.628 125.301 114.511 125.332 114.38 125.332ZM117.786 122.857C117.969 122.879 118.171 122.897 118.391 122.912C118.611 122.919 118.809 122.923 118.985 122.923H124.408C124.54 122.923 124.679 122.923 124.826 122.923C124.98 122.915 125.112 122.908 125.222 122.901C125.215 123.025 125.207 123.168 125.2 123.33C125.193 123.484 125.189 123.627 125.189 123.759V129.435C125.189 129.633 125.193 129.838 125.2 130.051C125.215 130.263 125.226 130.414 125.233 130.502H124.243C124.25 130.414 124.254 130.282 124.254 130.106C124.261 129.922 124.265 129.732 124.265 129.534V123.803H118.996C118.791 123.803 118.567 123.806 118.325 123.814C118.09 123.821 117.911 123.828 117.786 123.836V122.857ZM117.643 128.929C117.782 128.943 117.962 128.958 118.182 128.973C118.409 128.987 118.637 128.995 118.864 128.995H124.76V129.886H118.886C118.666 129.886 118.439 129.889 118.204 129.897C117.977 129.904 117.79 129.915 117.643 129.93V128.929ZM129.391 122.34C129.589 122.472 129.816 122.637 130.073 122.835C130.33 123.025 130.59 123.231 130.854 123.451C131.125 123.663 131.378 123.872 131.613 124.078C131.848 124.283 132.042 124.463 132.196 124.617L131.503 125.31C131.364 125.17 131.184 124.998 130.964 124.793C130.744 124.587 130.502 124.375 130.238 124.155C129.974 123.927 129.714 123.715 129.457 123.517C129.2 123.311 128.969 123.143 128.764 123.011L129.391 122.34ZM128.445 129.71C129.09 129.614 129.677 129.482 130.205 129.314C130.74 129.145 131.228 128.954 131.668 128.742C132.108 128.529 132.5 128.316 132.845 128.104C133.41 127.752 133.93 127.348 134.407 126.894C134.884 126.432 135.302 125.955 135.661 125.464C136.02 124.972 136.306 124.503 136.519 124.056L137.047 124.991C136.798 125.445 136.49 125.907 136.123 126.377C135.756 126.846 135.342 127.297 134.88 127.73C134.418 128.162 133.908 128.555 133.351 128.907C132.984 129.134 132.581 129.358 132.141 129.578C131.708 129.798 131.232 129.999 130.711 130.183C130.198 130.359 129.637 130.502 129.028 130.612L128.445 129.71ZM146.243 122.736C146.243 122.934 146.313 123.102 146.452 123.242C146.591 123.381 146.764 123.451 146.969 123.451C147.167 123.451 147.336 123.381 147.475 123.242C147.622 123.102 147.695 122.934 147.695 122.736C147.695 122.53 147.622 122.358 147.475 122.219C147.336 122.072 147.167 121.999 146.969 121.999C146.764 121.999 146.591 122.072 146.452 122.219C146.313 122.358 146.243 122.53 146.243 122.736ZM145.737 122.736C145.737 122.508 145.792 122.299 145.902 122.109C146.012 121.918 146.159 121.768 146.342 121.658C146.533 121.548 146.742 121.493 146.969 121.493C147.196 121.493 147.402 121.548 147.585 121.658C147.776 121.768 147.926 121.918 148.036 122.109C148.146 122.299 148.201 122.508 148.201 122.736C148.201 122.956 148.146 123.161 148.036 123.352C147.926 123.535 147.776 123.682 147.585 123.792C147.402 123.902 147.196 123.957 146.969 123.957C146.742 123.957 146.533 123.902 146.342 123.792C146.159 123.682 146.012 123.535 145.902 123.352C145.792 123.161 145.737 122.956 145.737 122.736ZM140.963 122.153C140.948 122.277 140.934 122.42 140.919 122.582C140.912 122.736 140.908 122.89 140.908 123.044C140.908 123.139 140.908 123.33 140.908 123.616C140.908 123.894 140.908 124.232 140.908 124.628C140.908 125.016 140.908 125.431 140.908 125.871C140.908 126.303 140.908 126.721 140.908 127.125C140.908 127.528 140.908 127.884 140.908 128.192C140.908 128.492 140.908 128.712 140.908 128.852C140.908 129.13 140.967 129.325 141.084 129.435C141.209 129.537 141.407 129.614 141.678 129.666C141.854 129.695 142.07 129.717 142.327 129.732C142.591 129.746 142.859 129.754 143.13 129.754C143.423 129.754 143.739 129.746 144.076 129.732C144.413 129.717 144.754 129.695 145.099 129.666C145.451 129.636 145.781 129.6 146.089 129.556C146.397 129.512 146.665 129.46 146.892 129.402V130.403C146.577 130.454 146.195 130.494 145.748 130.524C145.308 130.56 144.853 130.586 144.384 130.601C143.922 130.623 143.489 130.634 143.086 130.634C142.763 130.634 142.444 130.623 142.129 130.601C141.821 130.586 141.553 130.56 141.326 130.524C140.901 130.45 140.574 130.307 140.347 130.095C140.12 129.875 140.006 129.541 140.006 129.094C140.006 128.91 140.006 128.654 140.006 128.324C140.006 127.994 140.006 127.616 140.006 127.191C140.006 126.765 140.006 126.333 140.006 125.893C140.006 125.445 140.006 125.024 140.006 124.628C140.006 124.232 140.006 123.894 140.006 123.616C140.006 123.33 140.006 123.139 140.006 123.044C140.006 122.948 140.002 122.849 139.995 122.747C139.995 122.644 139.988 122.541 139.973 122.439C139.966 122.329 139.955 122.233 139.94 122.153H140.963ZM140.501 125.618C140.831 125.544 141.194 125.456 141.59 125.354C141.993 125.244 142.4 125.126 142.811 125.002C143.229 124.877 143.632 124.745 144.021 124.606C144.417 124.466 144.773 124.327 145.088 124.188C145.257 124.114 145.422 124.037 145.583 123.957C145.744 123.876 145.902 123.788 146.056 123.693L146.441 124.573C146.287 124.639 146.115 124.712 145.924 124.793C145.741 124.866 145.568 124.936 145.407 125.002C145.062 125.141 144.677 125.284 144.252 125.431C143.834 125.577 143.401 125.72 142.954 125.86C142.507 125.992 142.07 126.116 141.645 126.234C141.227 126.351 140.846 126.45 140.501 126.531V125.618ZM157.001 125.167C156.986 125.218 156.972 125.277 156.957 125.343C156.942 125.409 156.931 125.464 156.924 125.508C156.909 125.676 156.88 125.904 156.836 126.19C156.799 126.476 156.755 126.791 156.704 127.136C156.653 127.48 156.601 127.825 156.55 128.17C156.499 128.507 156.451 128.819 156.407 129.105C156.37 129.383 156.337 129.6 156.308 129.754H155.373C155.402 129.629 155.435 129.438 155.472 129.182C155.516 128.918 155.564 128.621 155.615 128.291C155.674 127.961 155.725 127.631 155.769 127.301C155.813 126.963 155.85 126.659 155.879 126.388C155.916 126.109 155.938 125.896 155.945 125.75C155.806 125.75 155.608 125.75 155.351 125.75C155.094 125.75 154.812 125.75 154.504 125.75C154.203 125.75 153.906 125.75 153.613 125.75C153.32 125.75 153.067 125.75 152.854 125.75C152.649 125.75 152.513 125.75 152.447 125.75C152.286 125.75 152.132 125.753 151.985 125.761C151.846 125.768 151.706 125.775 151.567 125.783V124.859C151.655 124.873 151.747 124.884 151.842 124.892C151.945 124.899 152.047 124.906 152.15 124.914C152.253 124.921 152.348 124.925 152.436 124.925C152.524 124.925 152.674 124.925 152.887 124.925C153.1 124.925 153.342 124.925 153.613 124.925C153.892 124.925 154.174 124.925 154.46 124.925C154.746 124.925 155.006 124.925 155.241 124.925C155.483 124.925 155.663 124.925 155.78 124.925C155.846 124.925 155.912 124.921 155.978 124.914C156.051 124.906 156.121 124.899 156.187 124.892C156.253 124.877 156.301 124.862 156.33 124.848L157.001 125.167ZM150.533 129.402C150.665 129.409 150.808 129.42 150.962 129.435C151.116 129.442 151.277 129.446 151.446 129.446C151.541 129.446 151.739 129.446 152.04 129.446C152.348 129.446 152.711 129.446 153.129 129.446C153.547 129.446 153.983 129.446 154.438 129.446C154.9 129.446 155.34 129.446 155.758 129.446C156.183 129.446 156.546 129.446 156.847 129.446C157.148 129.446 157.346 129.446 157.441 129.446C157.558 129.446 157.701 129.442 157.87 129.435C158.046 129.427 158.193 129.42 158.31 129.413V130.304C158.244 130.296 158.16 130.293 158.057 130.293C157.954 130.293 157.852 130.293 157.749 130.293C157.646 130.285 157.555 130.282 157.474 130.282C157.371 130.282 157.166 130.282 156.858 130.282C156.55 130.282 156.183 130.282 155.758 130.282C155.333 130.282 154.889 130.282 154.427 130.282C153.965 130.282 153.525 130.282 153.107 130.282C152.689 130.282 152.33 130.282 152.029 130.282C151.728 130.282 151.534 130.282 151.446 130.282C151.277 130.282 151.123 130.285 150.984 130.293C150.845 130.293 150.694 130.3 150.533 130.315V129.402ZM161.016 125.64C161.126 125.647 161.262 125.658 161.423 125.673C161.584 125.68 161.76 125.687 161.951 125.695C162.149 125.695 162.347 125.695 162.545 125.695C162.662 125.695 162.842 125.695 163.084 125.695C163.333 125.695 163.623 125.695 163.953 125.695C164.283 125.695 164.631 125.695 164.998 125.695C165.372 125.695 165.742 125.695 166.109 125.695C166.483 125.695 166.835 125.695 167.165 125.695C167.502 125.695 167.792 125.695 168.034 125.695C168.276 125.695 168.456 125.695 168.573 125.695C168.852 125.695 169.09 125.687 169.288 125.673C169.486 125.658 169.644 125.647 169.761 125.64V126.718C169.651 126.71 169.486 126.699 169.266 126.685C169.053 126.67 168.826 126.663 168.584 126.663C168.467 126.663 168.283 126.663 168.034 126.663C167.785 126.663 167.495 126.663 167.165 126.663C166.842 126.663 166.494 126.663 166.12 126.663C165.746 126.663 165.372 126.663 164.998 126.663C164.631 126.663 164.283 126.663 163.953 126.663C163.63 126.663 163.344 126.663 163.095 126.663C162.846 126.663 162.662 126.663 162.545 126.663C162.244 126.663 161.958 126.67 161.687 126.685C161.416 126.692 161.192 126.703 161.016 126.718V125.64ZM175.459 125.365C175.811 125.57 176.181 125.797 176.57 126.047C176.959 126.296 177.344 126.556 177.725 126.828C178.114 127.092 178.484 127.352 178.836 127.609C179.188 127.865 179.5 128.107 179.771 128.335L179.122 129.094C178.873 128.866 178.572 128.617 178.22 128.346C177.875 128.067 177.509 127.788 177.12 127.51C176.731 127.224 176.343 126.949 175.954 126.685C175.565 126.421 175.202 126.182 174.865 125.97L175.459 125.365ZM180.497 123.352C180.446 123.432 180.398 123.531 180.354 123.649C180.31 123.759 180.27 123.858 180.233 123.946C180.13 124.32 179.984 124.723 179.793 125.156C179.602 125.588 179.379 126.025 179.122 126.465C178.865 126.897 178.572 127.315 178.242 127.719C177.751 128.327 177.135 128.914 176.394 129.479C175.661 130.036 174.773 130.505 173.732 130.887L172.94 130.205C173.622 129.992 174.242 129.732 174.799 129.424C175.364 129.108 175.87 128.764 176.317 128.39C176.764 128.016 177.153 127.631 177.483 127.235C177.769 126.897 178.029 126.527 178.264 126.124C178.506 125.72 178.715 125.321 178.891 124.925C179.067 124.521 179.195 124.147 179.276 123.803H175.195L175.547 123.022H179.045C179.192 123.022 179.327 123.014 179.452 123C179.577 122.978 179.683 122.948 179.771 122.912L180.497 123.352ZM176.79 121.768C176.695 121.914 176.603 122.068 176.515 122.23C176.427 122.391 176.354 122.523 176.295 122.626C176.075 123.029 175.789 123.473 175.437 123.957C175.092 124.433 174.685 124.91 174.216 125.387C173.754 125.863 173.23 126.307 172.643 126.718L171.906 126.146C172.537 125.757 173.083 125.328 173.545 124.859C174.007 124.389 174.396 123.931 174.711 123.484C175.026 123.036 175.268 122.648 175.437 122.318C175.496 122.222 175.562 122.09 175.635 121.922C175.708 121.746 175.76 121.588 175.789 121.449L176.79 121.768ZM183.016 125.64C183.126 125.647 183.262 125.658 183.423 125.673C183.584 125.68 183.76 125.687 183.951 125.695C184.149 125.695 184.347 125.695 184.545 125.695C184.662 125.695 184.842 125.695 185.084 125.695C185.333 125.695 185.623 125.695 185.953 125.695C186.283 125.695 186.631 125.695 186.998 125.695C187.372 125.695 187.742 125.695 188.109 125.695C188.483 125.695 188.835 125.695 189.165 125.695C189.502 125.695 189.792 125.695 190.034 125.695C190.276 125.695 190.456 125.695 190.573 125.695C190.852 125.695 191.09 125.687 191.288 125.673C191.486 125.658 191.644 125.647 191.761 125.64V126.718C191.651 126.71 191.486 126.699 191.266 126.685C191.053 126.67 190.826 126.663 190.584 126.663C190.467 126.663 190.283 126.663 190.034 126.663C189.785 126.663 189.495 126.663 189.165 126.663C188.842 126.663 188.494 126.663 188.12 126.663C187.746 126.663 187.372 126.663 186.998 126.663C186.631 126.663 186.283 126.663 185.953 126.663C185.63 126.663 185.344 126.663 185.095 126.663C184.846 126.663 184.662 126.663 184.545 126.663C184.244 126.663 183.958 126.67 183.687 126.685C183.416 126.692 183.192 126.703 183.016 126.718V125.64ZM199.494 121.812H202.794V122.593H200.297V131.283H199.494V121.812ZM193.631 122.384H198.889V123.121H193.631V122.384ZM193.356 125.431H199.043V126.179H193.356V125.431ZM195.842 121.207H196.645V122.824H195.842V121.207ZM194.324 123.495L195.017 123.352C195.134 123.623 195.241 123.927 195.336 124.265C195.431 124.595 195.494 124.877 195.523 125.112L194.786 125.299C194.764 125.049 194.709 124.76 194.621 124.43C194.533 124.092 194.434 123.781 194.324 123.495ZM197.47 123.275L198.262 123.462C198.145 123.784 198.02 124.118 197.888 124.463C197.763 124.8 197.642 125.09 197.525 125.332L196.854 125.145C196.927 124.976 197.001 124.782 197.074 124.562C197.155 124.342 197.228 124.118 197.294 123.891C197.367 123.663 197.426 123.458 197.47 123.275ZM194.379 129.908H197.998V130.645H194.379V129.908ZM194.093 127.147H198.427V131.239H197.624V127.873H194.863V131.294H194.093V127.147ZM202.585 121.812H202.739L202.882 121.779L203.476 122.164C203.256 122.684 203.01 123.242 202.739 123.836C202.468 124.43 202.204 124.98 201.947 125.486C202.321 125.83 202.607 126.16 202.805 126.476C203.003 126.784 203.142 127.077 203.223 127.356C203.304 127.634 203.344 127.906 203.344 128.17C203.344 128.514 203.3 128.811 203.212 129.061C203.124 129.303 202.985 129.49 202.794 129.622C202.603 129.746 202.365 129.827 202.079 129.864C201.932 129.878 201.775 129.886 201.606 129.886C201.445 129.886 201.28 129.882 201.111 129.875C201.104 129.757 201.082 129.622 201.045 129.468C201.008 129.314 200.953 129.178 200.88 129.061C201.049 129.075 201.206 129.086 201.353 129.094C201.5 129.094 201.628 129.09 201.738 129.083C201.833 129.075 201.921 129.064 202.002 129.05C202.083 129.028 202.156 128.998 202.222 128.962C202.339 128.888 202.42 128.775 202.464 128.621C202.515 128.467 202.541 128.287 202.541 128.082C202.534 127.737 202.431 127.359 202.233 126.949C202.035 126.531 201.654 126.08 201.089 125.596C201.236 125.317 201.379 125.02 201.518 124.705C201.657 124.382 201.793 124.063 201.925 123.748C202.057 123.425 202.178 123.121 202.288 122.835C202.398 122.549 202.497 122.296 202.585 122.076V121.812Z" fill="black"/>
</svg>
