<svg width="211" height="149" viewBox="0 0 211 149" fill="none" xmlns="http://www.w3.org/2000/svg">
<g clip-path="url(#clip0_98_750)">
<rect width="210" height="148.5" transform="matrix(-1 0 0 -1 210.65 148.731)" fill="white"/>
<path d="M99.2635 57.8012V56.2671H108.013V57.8012H99.2635ZM99.2635 62.0057V60.4716H108.013V62.0057H99.2635ZM121.076 53.9891L122.416 54.5091C122.003 55.2958 121.516 56.0825 120.956 56.8691C120.396 57.6558 119.803 58.3958 119.176 59.0891C118.563 59.7691 117.943 60.3758 117.316 60.9091C117.263 60.7891 117.19 60.6425 117.096 60.4691C117.003 60.2825 116.896 60.0958 116.776 59.9091C116.67 59.7091 116.576 59.5558 116.496 59.4491C117.07 59.0091 117.636 58.4958 118.196 57.9091C118.77 57.3225 119.303 56.6958 119.796 56.0291C120.29 55.3625 120.716 54.6825 121.076 53.9891ZM120.696 49.6491L122.136 50.2091C121.763 50.7825 121.323 51.3625 120.816 51.9491C120.31 52.5358 119.776 53.0958 119.216 53.6291C118.656 54.1491 118.09 54.6091 117.516 55.0091C117.463 54.8891 117.383 54.7558 117.276 54.6091C117.183 54.4491 117.083 54.2958 116.976 54.1491C116.87 53.9891 116.776 53.8625 116.696 53.7691C117.216 53.4225 117.73 53.0225 118.236 52.5691C118.743 52.1025 119.21 51.6225 119.636 51.1291C120.076 50.6225 120.43 50.1291 120.696 49.6491ZM119.276 57.7291L120.696 56.3291L120.756 56.3691V67.9891H119.276V57.7291ZM124.196 52.5691H133.456V53.9691H124.196V52.5691ZM133.016 52.5691H133.276L133.516 52.5091L134.596 52.7691C134.41 53.4758 134.196 54.2025 133.956 54.9491C133.716 55.6825 133.496 56.3025 133.296 56.8091L131.956 56.5091C132.143 56.0291 132.33 55.4425 132.516 54.7491C132.716 54.0558 132.883 53.3958 133.016 52.7691V52.5691ZM128.016 49.6091H129.456V58.2091H128.016V49.6091ZM123.396 52.5691H124.836V57.8291C124.836 58.5625 124.803 59.3691 124.736 60.2491C124.683 61.1158 124.57 62.0025 124.396 62.9091C124.236 63.8158 123.99 64.6958 123.656 65.5491C123.336 66.3891 122.916 67.1691 122.396 67.8891C122.316 67.7825 122.203 67.6691 122.056 67.5491C121.923 67.4291 121.783 67.3091 121.636 67.1891C121.49 67.0825 121.363 66.9958 121.256 66.9291C121.75 66.2625 122.136 65.5491 122.416 64.7891C122.696 64.0158 122.91 63.2225 123.056 62.4091C123.203 61.5958 123.296 60.8025 123.336 60.0291C123.376 59.2425 123.396 58.5091 123.396 57.8291V52.5691ZM124.336 57.4691H132.436V58.7891H124.336V57.4691ZM132.176 57.4691H132.456L132.736 57.3891L133.676 57.7491C133.223 59.5891 132.543 61.1758 131.636 62.5091C130.73 63.8425 129.67 64.9625 128.456 65.8691C127.243 66.7625 125.936 67.4691 124.536 67.9891C124.443 67.8158 124.316 67.6025 124.156 67.3491C123.996 67.1091 123.843 66.9158 123.696 66.7691C124.67 66.4491 125.603 66.0225 126.496 65.4891C127.39 64.9425 128.21 64.2891 128.956 63.5291C129.716 62.7691 130.37 61.9091 130.916 60.9491C131.476 59.9758 131.896 58.9025 132.176 57.7291V57.4691ZM126.236 58.2491C126.93 60.3158 128.01 62.0891 129.476 63.5691C130.943 65.0358 132.763 66.0758 134.936 66.6891C134.843 66.7825 134.73 66.9025 134.596 67.0491C134.476 67.2091 134.363 67.3625 134.256 67.5091C134.15 67.6691 134.056 67.8158 133.976 67.9491C131.736 67.2291 129.863 66.0691 128.356 64.4691C126.863 62.8558 125.736 60.8958 124.976 58.5891L126.236 58.2491ZM136.876 54.3891H154.916V55.9091H136.876V54.3891ZM144.356 49.6091L145.956 49.9091C145.57 50.9358 145.143 52.0225 144.676 53.1691C144.223 54.3025 143.756 55.4491 143.276 56.6091C142.796 57.7691 142.323 58.8758 141.856 59.9291C141.39 60.9825 140.963 61.9225 140.576 62.7491L139.076 62.1891C139.476 61.4025 139.903 60.4891 140.356 59.4491C140.823 58.4091 141.29 57.3225 141.756 56.1891C142.236 55.0425 142.696 53.9091 143.136 52.7891C143.59 51.6558 143.996 50.5958 144.356 49.6091ZM150.256 55.0691L151.856 55.4491C151.483 57.3825 150.963 59.0691 150.296 60.5091C149.63 61.9358 148.756 63.1491 147.676 64.1491C146.596 65.1491 145.25 65.9625 143.636 66.5891C142.023 67.2291 140.083 67.7158 137.816 68.0491C137.75 67.8225 137.636 67.5691 137.476 67.2891C137.33 67.0225 137.176 66.7958 137.016 66.6091C139.203 66.3158 141.056 65.8891 142.576 65.3291C144.11 64.7558 145.376 64.0091 146.376 63.0891C147.39 62.1691 148.203 61.0491 148.816 59.7291C149.43 58.4091 149.91 56.8558 150.256 55.0691ZM140.096 61.4291L141.096 60.2691C142.243 60.6425 143.436 61.0891 144.676 61.6091C145.93 62.1158 147.163 62.6558 148.376 63.2291C149.59 63.8025 150.716 64.3891 151.756 64.9891C152.81 65.5891 153.703 66.1625 154.436 66.7091L153.316 68.1091C152.623 67.5625 151.763 66.9825 150.736 66.3691C149.71 65.7558 148.596 65.1491 147.396 64.5491C146.21 63.9491 144.99 63.3825 143.736 62.8491C142.483 62.3158 141.27 61.8425 140.096 61.4291Z" fill="black"/>
<path d="M48.8587 66.608C47.9212 66.608 47.0855 66.447 46.3516 66.1251C45.6224 65.8031 45.0424 65.3556 44.6115 64.7827C44.1854 64.2051 43.9534 63.5351 43.9155 62.7728H45.7052C45.7431 63.2415 45.9041 63.6464 46.1882 63.9873C46.4723 64.3234 46.844 64.5839 47.3033 64.7685C47.7625 64.9532 48.2715 65.0455 48.8302 65.0455C49.4552 65.0455 50.0092 64.9366 50.4922 64.7188C50.9751 64.501 51.3539 64.198 51.6285 63.8097C51.9032 63.4215 52.0405 62.9716 52.0405 62.4603C52.0405 61.9252 51.9079 61.4541 51.6427 61.0469C51.3776 60.635 50.9893 60.313 50.478 60.081C49.9666 59.849 49.3416 59.733 48.603 59.733H47.4382V58.1705H48.603C49.1806 58.1705 49.6873 58.0663 50.1229 57.858C50.5632 57.6497 50.9065 57.3561 51.1527 56.9773C51.4036 56.5985 51.5291 56.1535 51.5291 55.6421C51.5291 55.1497 51.4202 54.7212 51.2024 54.3566C50.9846 53.992 50.6768 53.7079 50.2791 53.5043C49.8861 53.3007 49.4221 53.1989 48.8871 53.1989C48.3852 53.1989 47.9117 53.2913 47.4666 53.4759C47.0263 53.6558 46.6664 53.9186 46.3871 54.2643C46.1077 54.6052 45.9562 55.0171 45.9325 55.5001H44.228C44.2564 54.7377 44.486 54.0701 44.9169 53.4972C45.3478 52.9196 45.9112 52.4698 46.6072 52.1478C47.308 51.8258 48.0774 51.6648 48.9155 51.6648C49.8151 51.6648 50.5869 51.8471 51.2308 52.2117C51.8748 52.5716 52.3695 53.0474 52.7152 53.6393C53.0608 54.2311 53.2337 54.8703 53.2337 55.5569C53.2337 56.376 53.0182 57.0744 52.5873 57.652C52.1612 58.2297 51.5812 58.6298 50.8473 58.8523V58.966C51.7659 59.1175 52.4832 59.5081 52.9993 60.1378C53.5154 60.7628 53.7734 61.537 53.7734 62.4603C53.7734 63.251 53.558 63.9612 53.1271 64.591C52.701 65.216 52.1186 65.7084 51.38 66.0682C50.6413 66.4281 49.8009 66.608 48.8587 66.608ZM61.9623 63.4262V61.9773L68.3544 51.8637H69.4055V54.108H68.6953L63.8658 61.7501V61.8637H72.4737V63.4262H61.9623ZM68.8089 66.4091V62.9859V62.3111V51.8637H70.4851V66.4091H68.8089ZM85.3057 66.608C84.4724 66.608 83.7219 66.4423 83.0543 66.1109C82.3867 65.7794 81.8517 65.3249 81.4492 64.7472C81.0467 64.1696 80.8266 63.5114 80.7887 62.7728H82.4932C82.5595 63.4309 82.8578 63.9754 83.3881 64.4063C83.9232 64.8324 84.5624 65.0455 85.3057 65.0455C85.9023 65.0455 86.4326 64.9058 86.8967 64.6265C87.3654 64.3471 87.7324 63.9636 87.9975 63.4759C88.2674 62.9835 88.4023 62.4271 88.4023 61.8069C88.4023 61.1724 88.2627 60.6066 87.9833 60.1094C87.7087 59.6075 87.3299 59.2122 86.8469 58.9234C86.364 58.6345 85.8124 58.4877 85.1921 58.483C84.747 58.4783 84.2901 58.5469 83.8214 58.689C83.3526 58.8263 82.9667 59.0038 82.6637 59.2216L81.016 59.0228L81.8967 51.8637H89.4535V53.4262H83.3739L82.8626 57.716H82.9478C83.2461 57.4792 83.6201 57.2827 84.0699 57.1265C84.5198 56.9702 84.9885 56.8921 85.4762 56.8921C86.3664 56.8921 87.1594 57.1052 87.8555 57.5313C88.5562 57.9527 89.1055 58.5304 89.5032 59.2643C89.9056 59.9982 90.1069 60.8362 90.1069 61.7785C90.1069 62.7065 89.8985 63.5351 89.4819 64.2643C89.0699 64.9887 88.5018 65.5616 87.7773 65.983C87.0529 66.3997 86.229 66.608 85.3057 66.608Z" fill="#FF0000"/>
<path d="M30.6598 91.5215C29.8265 91.5215 29.076 91.3558 28.4084 91.0244C27.7408 90.6929 27.2058 90.2384 26.8033 89.6607C26.4008 89.0831 26.1807 88.4249 26.1428 87.6863H27.8473C27.9136 88.3444 28.2119 88.889 28.7422 89.3198C29.2773 89.746 29.9165 89.959 30.6598 89.959C31.2564 89.959 31.7867 89.8193 32.2507 89.54C32.7195 89.2606 33.0865 88.8771 33.3516 88.3894C33.6215 87.897 33.7564 87.3407 33.7564 86.7204C33.7564 86.0859 33.6168 85.5201 33.3374 85.0229C33.0628 84.5211 32.684 84.1257 32.201 83.8369C31.7181 83.548 31.1665 83.4013 30.5462 83.3965C30.1011 83.3918 29.6442 83.4604 29.1755 83.6025C28.7067 83.7398 28.3208 83.9174 28.0178 84.1352L26.3701 83.9363L27.2507 76.7772H34.8076V78.3397H28.728L28.2167 82.6295H28.3019C28.6002 82.3927 28.9742 82.1962 29.424 82.04C29.8739 81.8837 30.3426 81.8056 30.8303 81.8056C31.7204 81.8056 32.5135 82.0187 33.2096 82.4448C33.9103 82.8662 34.4596 83.4439 34.8573 84.1778C35.2597 84.9117 35.461 85.7497 35.461 86.692C35.461 87.62 35.2526 88.4486 34.836 89.1778C34.424 89.9022 33.8559 90.4751 33.1314 90.8965C32.407 91.3132 31.5831 91.5215 30.6598 91.5215ZM48.538 76.5783C49.1346 76.5831 49.7312 76.6967 50.3278 76.9193C50.9244 77.1418 51.4689 77.5111 51.9613 78.0272C52.4538 78.5386 52.8491 79.237 53.1474 80.1224C53.4457 81.0078 53.5949 82.1181 53.5949 83.4533C53.5949 84.746 53.4717 85.8942 53.2255 86.8979C52.9841 87.897 52.6337 88.7398 52.1744 89.4264C51.7199 90.1129 51.1659 90.6337 50.5125 90.9889C49.8638 91.344 49.1299 91.5215 48.3108 91.5215C47.4964 91.5215 46.7696 91.3605 46.1304 91.0386C45.4959 90.7119 44.9751 90.2597 44.5679 89.682C44.1654 89.0997 43.9074 88.4249 43.7937 87.6579H45.5267C45.6829 88.3255 45.9931 88.8771 46.4571 89.3127C46.9258 89.7436 47.5437 89.959 48.3108 89.959C49.4329 89.959 50.3183 89.469 50.967 88.4889C51.6204 87.5087 51.9471 86.1238 51.9471 84.334H51.8335C51.5683 84.7318 51.2535 85.075 50.8889 85.3639C50.5243 85.6527 50.1195 85.8752 49.6744 86.0315C49.2293 86.1877 48.7558 86.2658 48.2539 86.2658C47.4206 86.2658 46.6559 86.0599 45.9599 85.6479C45.2686 85.2313 44.7146 84.6607 44.298 83.9363C43.886 83.2071 43.6801 82.3738 43.6801 81.4363C43.6801 80.5461 43.8789 79.7318 44.2767 78.9931C44.6791 78.2497 45.2426 77.6579 45.967 77.2175C46.6962 76.7772 47.5532 76.5641 48.538 76.5783ZM48.538 78.1408C47.9414 78.1408 47.404 78.29 46.9258 78.5883C46.4523 78.8818 46.0759 79.2796 45.7966 79.7815C45.5219 80.2786 45.3846 80.8302 45.3846 81.4363C45.3846 82.0424 45.5172 82.594 45.7824 83.0911C46.0522 83.5836 46.4192 83.9765 46.8832 84.2701C47.352 84.5589 47.8846 84.7033 48.4812 84.7033C48.931 84.7033 49.3501 84.6157 49.7383 84.4406C50.1266 84.2606 50.4651 84.0168 50.7539 83.709C51.0475 83.3965 51.2771 83.0438 51.4429 82.6508C51.6086 82.2531 51.6914 81.8388 51.6914 81.4079C51.6914 80.8397 51.5541 80.307 51.2795 79.8099C51.0096 79.3127 50.6356 78.9103 50.1574 78.6025C49.6839 78.2947 49.1441 78.1408 48.538 78.1408ZM66.6719 91.5215C65.6965 91.5215 64.8348 91.3487 64.0867 91.0031C63.3433 90.6527 62.7633 90.1721 62.3466 89.5613C61.93 88.9458 61.724 88.245 61.7287 87.459C61.724 86.8435 61.8447 86.2753 62.0909 85.7545C62.3372 85.2289 62.6733 84.7909 63.0995 84.4406C63.5303 84.0854 64.0109 83.8605 64.5412 83.7658V83.6806C63.8452 83.5007 63.2912 83.1101 62.8793 82.5087C62.4674 81.9027 62.2638 81.2138 62.2685 80.442C62.2638 79.7033 62.4508 79.0428 62.8296 78.4604C63.2084 77.8781 63.7292 77.4188 64.3921 77.0826C65.0597 76.7464 65.8196 76.5783 66.6719 76.5783C67.5147 76.5783 68.2676 76.7464 68.9304 77.0826C69.5933 77.4188 70.1141 77.8781 70.4929 78.4604C70.8765 79.0428 71.0706 79.7033 71.0753 80.442C71.0706 81.2138 70.8599 81.9027 70.4432 82.5087C70.0313 83.1101 69.4844 83.5007 68.8026 83.6806V83.7658C69.3282 83.8605 69.8016 84.0854 70.2231 84.4406C70.6445 84.7909 70.9806 85.2289 71.2316 85.7545C71.4825 86.2753 71.6104 86.8435 71.6151 87.459C71.6104 88.245 71.3973 88.9458 70.9759 89.5613C70.5592 90.1721 69.9792 90.6527 69.2358 91.0031C68.4972 91.3487 67.6426 91.5215 66.6719 91.5215ZM66.6719 89.959C67.3301 89.959 67.8982 89.8525 68.3765 89.6394C68.8547 89.4264 69.224 89.1257 69.4844 88.7374C69.7448 88.3492 69.8774 87.8946 69.8821 87.3738C69.8774 86.8246 69.7354 86.3392 69.456 85.9178C69.1766 85.4964 68.7955 85.165 68.3125 84.9235C67.8343 84.682 67.2874 84.5613 66.6719 84.5613C66.0516 84.5613 65.4977 84.682 65.01 84.9235C64.527 85.165 64.1459 85.4964 63.8665 85.9178C63.5919 86.3392 63.457 86.8246 63.4617 87.3738C63.457 87.8946 63.5824 88.3492 63.8381 88.7374C64.0985 89.1257 64.4702 89.4264 64.9532 89.6394C65.4361 89.8525 66.009 89.959 66.6719 89.959ZM66.6719 83.0556C67.1927 83.0556 67.6544 82.9515 68.0569 82.7431C68.4641 82.5348 68.7837 82.2436 69.0157 81.8695C69.2477 81.4955 69.366 81.0575 69.3708 80.5556C69.366 80.0632 69.25 79.6347 69.0228 79.2701C68.7955 78.9008 68.4806 78.6167 68.0782 78.4178C67.6757 78.2142 67.207 78.1124 66.6719 78.1124C66.1274 78.1124 65.6516 78.2142 65.2444 78.4178C64.8372 78.6167 64.5223 78.9008 64.2998 79.2701C64.0772 79.6347 63.9683 80.0632 63.9731 80.5556C63.9683 81.0575 64.0796 81.4955 64.3069 81.8695C64.5389 82.2436 64.8585 82.5348 65.2657 82.7431C65.6729 82.9515 66.1416 83.0556 66.6719 83.0556ZM84.5927 76.5783C85.1893 76.5831 85.7859 76.6967 86.3825 76.9193C86.9791 77.1418 87.5236 77.5111 88.016 78.0272C88.5084 78.5386 88.9038 79.237 89.2021 80.1224C89.5004 81.0078 89.6495 82.1181 89.6495 83.4533C89.6495 84.746 89.5264 85.8942 89.2802 86.8979C89.0387 87.897 88.6884 88.7398 88.2291 89.4264C87.7745 90.1129 87.2206 90.6337 86.5672 90.9889C85.9185 91.344 85.1846 91.5215 84.3655 91.5215C83.5511 91.5215 82.8243 91.3605 82.1851 91.0386C81.5506 90.7119 81.0298 90.2597 80.6226 89.682C80.2201 89.0997 79.962 88.4249 79.8484 87.6579H81.5814C81.7376 88.3255 82.0477 88.8771 82.5118 89.3127C82.9805 89.7436 83.5984 89.959 84.3655 89.959C85.4876 89.959 86.373 89.469 87.0217 88.4889C87.6751 87.5087 88.0018 86.1238 88.0018 84.334H87.8882C87.623 84.7318 87.3082 85.075 86.9436 85.3639C86.579 85.6527 86.1742 85.8752 85.7291 86.0315C85.284 86.1877 84.8105 86.2658 84.3086 86.2658C83.4753 86.2658 82.7106 86.0599 82.0146 85.6479C81.3233 85.2313 80.7693 84.6607 80.3527 83.9363C79.9407 83.2071 79.7348 82.3738 79.7348 81.4363C79.7348 80.5461 79.9336 79.7318 80.3314 78.9931C80.7338 78.2497 81.2973 77.6579 82.0217 77.2175C82.7509 76.7772 83.6079 76.5641 84.5927 76.5783ZM84.5927 78.1408C83.9961 78.1408 83.4587 78.29 82.9805 78.5883C82.507 78.8818 82.1306 79.2796 81.8512 79.7815C81.5766 80.2786 81.4393 80.8302 81.4393 81.4363C81.4393 82.0424 81.5719 82.594 81.837 83.0911C82.1069 83.5836 82.4739 83.9765 82.9379 84.2701C83.4066 84.5589 83.9393 84.7033 84.5359 84.7033C84.9857 84.7033 85.4048 84.6157 85.793 84.4406C86.1813 84.2606 86.5198 84.0168 86.8086 83.709C87.1022 83.3965 87.3318 83.0438 87.4976 82.6508C87.6633 82.2531 87.7461 81.8388 87.7461 81.4079C87.7461 80.8397 87.6088 80.307 87.3342 79.8099C87.0643 79.3127 86.6903 78.9103 86.212 78.6025C85.7386 78.2947 85.1988 78.1408 84.5927 78.1408Z" fill="#FF0000"/>
<path d="M98.7777 82.7147V81.1806H107.528V82.7147H98.7777ZM98.7777 86.9193V85.3852H107.528V86.9193H98.7777ZM121.706 91.5215C121.109 91.5121 120.512 91.3984 119.916 91.1806C119.319 90.9628 118.775 90.5959 118.282 90.0798C117.79 89.5589 117.395 88.8558 117.096 87.9704C116.798 87.0802 116.649 85.9628 116.649 84.6181C116.649 83.3302 116.77 82.1891 117.011 81.1948C117.253 80.1958 117.603 79.3553 118.062 78.6735C118.521 77.987 119.075 77.4661 119.724 77.111C120.378 76.7559 121.114 76.5783 121.933 76.5783C122.747 76.5783 123.472 76.7417 124.106 77.0684C124.745 77.3904 125.266 77.8402 125.669 78.4178C126.071 78.9955 126.332 79.6607 126.45 80.4136H124.717C124.556 79.7602 124.244 79.218 123.78 78.7872C123.315 78.3563 122.7 78.1408 121.933 78.1408C120.806 78.1408 119.918 78.6309 119.27 79.611C118.626 80.5911 118.301 81.9666 118.297 83.7374H118.41C118.675 83.335 118.99 82.9917 119.355 82.7076C119.724 82.4188 120.131 82.1962 120.576 82.04C121.021 81.8837 121.493 81.8056 121.99 81.8056C122.823 81.8056 123.585 82.014 124.277 82.4306C124.968 82.8425 125.522 83.4131 125.939 84.1423C126.355 84.8667 126.564 85.6977 126.564 86.6352C126.564 87.5348 126.362 88.3586 125.96 89.1068C125.557 89.8501 124.992 90.442 124.262 90.8823C123.538 91.3179 122.686 91.531 121.706 91.5215ZM121.706 89.959C122.302 89.959 122.837 89.8099 123.311 89.5116C123.789 89.2133 124.165 88.8132 124.44 88.3113C124.719 87.8094 124.859 87.2507 124.859 86.6352C124.859 86.0338 124.724 85.487 124.454 84.9945C124.189 84.4974 123.822 84.102 123.353 83.8085C122.889 83.5149 122.359 83.3681 121.762 83.3681C121.313 83.3681 120.894 83.4581 120.505 83.638C120.117 83.8132 119.776 84.0547 119.483 84.3624C119.194 84.6702 118.967 85.0229 118.801 85.4207C118.635 85.8137 118.552 86.228 118.552 86.6636C118.552 87.2412 118.687 87.781 118.957 88.2829C119.232 88.7848 119.606 89.1896 120.079 89.4974C120.557 89.8051 121.1 89.959 121.706 89.959ZM139.641 91.5215C138.665 91.5215 137.804 91.3487 137.055 91.0031C136.312 90.6527 135.732 90.1721 135.315 89.5613C134.899 88.9458 134.693 88.245 134.697 87.459C134.693 86.8435 134.813 86.2753 135.06 85.7545C135.306 85.2289 135.642 84.7909 136.068 84.4406C136.499 84.0854 136.98 83.8605 137.51 83.7658V83.6806C136.814 83.5007 136.26 83.1101 135.848 82.5087C135.436 81.9027 135.233 81.2138 135.237 80.442C135.233 79.7033 135.42 79.0428 135.798 78.4604C136.177 77.8781 136.698 77.4188 137.361 77.0826C138.028 76.7464 138.788 76.5783 139.641 76.5783C140.483 76.5783 141.236 76.7464 141.899 77.0826C142.562 77.4188 143.083 77.8781 143.462 78.4604C143.845 79.0428 144.039 79.7033 144.044 80.442C144.039 81.2138 143.829 81.9027 143.412 82.5087C143 83.1101 142.453 83.5007 141.771 83.6806V83.7658C142.297 83.8605 142.77 84.0854 143.192 84.4406C143.613 84.7909 143.949 85.2289 144.2 85.7545C144.451 86.2753 144.579 86.8435 144.584 87.459C144.579 88.245 144.366 88.9458 143.945 89.5613C143.528 90.1721 142.948 90.6527 142.205 91.0031C141.466 91.3487 140.611 91.5215 139.641 91.5215ZM139.641 89.959C140.299 89.959 140.867 89.8525 141.345 89.6394C141.823 89.4264 142.193 89.1257 142.453 88.7374C142.714 88.3492 142.846 87.8946 142.851 87.3738C142.846 86.8246 142.704 86.3392 142.425 85.9178C142.145 85.4964 141.764 85.165 141.281 84.9235C140.803 84.682 140.256 84.5613 139.641 84.5613C139.02 84.5613 138.466 84.682 137.979 84.9235C137.496 85.165 137.115 85.4964 136.835 85.9178C136.561 86.3392 136.426 86.8246 136.43 87.3738C136.426 87.8946 136.551 88.3492 136.807 88.7374C137.067 89.1257 137.439 89.4264 137.922 89.6394C138.405 89.8525 138.978 89.959 139.641 89.959ZM139.641 83.0556C140.161 83.0556 140.623 82.9515 141.026 82.7431C141.433 82.5348 141.752 82.2436 141.984 81.8695C142.216 81.4955 142.335 81.0575 142.34 80.5556C142.335 80.0632 142.219 79.6347 141.992 79.2701C141.764 78.9008 141.449 78.6167 141.047 78.4178C140.644 78.2142 140.176 78.1124 139.641 78.1124C139.096 78.1124 138.62 78.2142 138.213 78.4178C137.806 78.6167 137.491 78.9008 137.269 79.2701C137.046 79.6347 136.937 80.0632 136.942 80.5556C136.937 81.0575 137.048 81.4955 137.276 81.8695C137.508 82.2436 137.827 82.5348 138.234 82.7431C138.642 82.9515 139.11 83.0556 139.641 83.0556ZM157.76 91.5215C157.164 91.5121 156.567 91.3984 155.971 91.1806C155.374 90.9628 154.829 90.5959 154.337 90.0798C153.845 89.5589 153.449 88.8558 153.151 87.9704C152.853 87.0802 152.704 85.9628 152.704 84.6181C152.704 83.3302 152.824 82.1891 153.066 81.1948C153.307 80.1958 153.658 79.3553 154.117 78.6735C154.576 77.987 155.13 77.4661 155.779 77.111C156.432 76.7559 157.168 76.5783 157.988 76.5783C158.802 76.5783 159.526 76.7417 160.161 77.0684C160.8 77.3904 161.321 77.8402 161.723 78.4178C162.126 78.9955 162.386 79.6607 162.505 80.4136H160.772C160.611 79.7602 160.298 79.218 159.834 78.7872C159.37 78.3563 158.755 78.1408 157.988 78.1408C156.861 78.1408 155.973 78.6309 155.324 79.611C154.68 80.5911 154.356 81.9666 154.351 83.7374H154.465C154.73 83.335 155.045 82.9917 155.409 82.7076C155.779 82.4188 156.186 82.1962 156.631 82.04C157.076 81.8837 157.547 81.8056 158.044 81.8056C158.878 81.8056 159.64 82.014 160.331 82.4306C161.023 82.8425 161.577 83.4131 161.993 84.1423C162.41 84.8667 162.618 85.6977 162.618 86.6352C162.618 87.5348 162.417 88.3586 162.015 89.1068C161.612 89.8501 161.046 90.442 160.317 90.8823C159.593 91.3179 158.74 91.531 157.76 91.5215ZM157.76 89.959C158.357 89.959 158.892 89.8099 159.365 89.5116C159.844 89.2133 160.22 88.8132 160.495 88.3113C160.774 87.8094 160.914 87.2507 160.914 86.6352C160.914 86.0338 160.779 85.487 160.509 84.9945C160.244 84.4974 159.877 84.102 159.408 83.8085C158.944 83.5149 158.414 83.3681 157.817 83.3681C157.367 83.3681 156.948 83.4581 156.56 83.638C156.172 83.8132 155.831 84.0547 155.537 84.3624C155.249 84.6702 155.021 85.0229 154.856 85.4207C154.69 85.8137 154.607 86.228 154.607 86.6636C154.607 87.2412 154.742 87.781 155.012 88.2829C155.286 88.7848 155.66 89.1896 156.134 89.4974C156.612 89.8051 157.154 89.959 157.76 89.959ZM175.582 91.5215C174.748 91.5215 173.998 91.3558 173.33 91.0244C172.663 90.6929 172.128 90.2384 171.725 89.6607C171.323 89.0831 171.103 88.4249 171.065 87.6863H172.769C172.836 88.3444 173.134 88.889 173.664 89.3198C174.199 89.746 174.838 89.959 175.582 89.959C176.178 89.959 176.709 89.8193 177.173 89.54C177.641 89.2606 178.008 88.8771 178.273 88.3894C178.543 87.897 178.678 87.3407 178.678 86.7204C178.678 86.0859 178.539 85.5201 178.259 85.0229C177.985 84.5211 177.606 84.1257 177.123 83.8369C176.64 83.548 176.088 83.4013 175.468 83.3965C175.023 83.3918 174.566 83.4604 174.097 83.6025C173.629 83.7398 173.243 83.9174 172.94 84.1352L171.292 83.9363L172.173 76.7772H179.729V78.3397H173.65L173.139 82.6295H173.224C173.522 82.3927 173.896 82.1962 174.346 82.04C174.796 81.8837 175.264 81.8056 175.752 81.8056C176.642 81.8056 177.435 82.0187 178.131 82.4448C178.832 82.8662 179.381 83.4439 179.779 84.1778C180.182 84.9117 180.383 85.7497 180.383 86.692C180.383 87.62 180.175 88.4486 179.758 89.1778C179.346 89.9022 178.778 90.4751 178.053 90.8965C177.329 91.3132 176.505 91.5215 175.582 91.5215Z" fill="black"/>
<path d="M31.2178 116.435C30.2424 116.435 29.3807 116.262 28.6326 115.917C27.8892 115.566 27.3092 115.086 26.8925 114.475C26.4758 113.859 26.2699 113.159 26.2746 112.373C26.2699 111.757 26.3906 111.189 26.6368 110.668C26.883 110.142 27.2192 109.704 27.6453 109.354C28.0762 108.999 28.5568 108.774 29.0871 108.679V108.594C28.3911 108.414 27.8371 108.024 27.4252 107.422C27.0132 106.816 26.8096 106.127 26.8144 105.356C26.8096 104.617 26.9967 103.956 27.3755 103.374C27.7542 102.792 28.2751 102.332 28.938 101.996C29.6056 101.66 30.3655 101.492 31.2178 101.492C32.0606 101.492 32.8134 101.66 33.4763 101.996C34.1392 102.332 34.66 102.792 35.0388 103.374C35.4223 103.956 35.6165 104.617 35.6212 105.356C35.6165 106.127 35.4058 106.816 34.9891 107.422C34.5772 108.024 34.0303 108.414 33.3485 108.594V108.679C33.874 108.774 34.3475 108.999 34.7689 109.354C35.1903 109.704 35.5265 110.142 35.7774 110.668C36.0284 111.189 36.1562 111.757 36.161 112.373C36.1562 113.159 35.9432 113.859 35.5218 114.475C35.1051 115.086 34.5251 115.566 33.7817 115.917C33.0431 116.262 32.1884 116.435 31.2178 116.435ZM31.2178 114.873C31.8759 114.873 32.4441 114.766 32.9223 114.553C33.4005 114.34 33.7699 114.039 34.0303 113.651C34.2907 113.263 34.4233 112.808 34.428 112.287C34.4233 111.738 34.2812 111.253 34.0019 110.831C33.7225 110.41 33.3414 110.079 32.8584 109.837C32.3802 109.596 31.8333 109.475 31.2178 109.475C30.5975 109.475 30.0435 109.596 29.5558 109.837C29.0729 110.079 28.6917 110.41 28.4124 110.831C28.1378 111.253 28.0028 111.738 28.0076 112.287C28.0028 112.808 28.1283 113.263 28.384 113.651C28.6444 114.039 29.0161 114.34 29.499 114.553C29.982 114.766 30.5549 114.873 31.2178 114.873ZM31.2178 107.969C31.7386 107.969 32.2003 107.865 32.6027 107.657C33.0099 107.448 33.3295 107.157 33.5615 106.783C33.7935 106.409 33.9119 105.971 33.9166 105.469C33.9119 104.977 33.7959 104.548 33.5686 104.184C33.3414 103.814 33.0265 103.53 32.624 103.331C32.2216 103.128 31.7528 103.026 31.2178 103.026C30.6733 103.026 30.1974 103.128 29.7902 103.331C29.383 103.53 29.0682 103.814 28.8456 104.184C28.6231 104.548 28.5142 104.977 28.5189 105.469C28.5142 105.971 28.6255 106.409 28.8527 106.783C29.0847 107.157 29.4043 107.448 29.8115 107.657C30.2187 107.865 30.6875 107.969 31.2178 107.969ZM49.1386 101.492C49.7352 101.497 50.3318 101.61 50.9284 101.833C51.525 102.055 52.0695 102.425 52.5619 102.941C53.0543 103.452 53.4497 104.151 53.748 105.036C54.0463 105.921 54.1954 107.032 54.1954 108.367C54.1954 109.66 54.0723 110.808 53.8261 111.811C53.5846 112.811 53.2342 113.653 52.775 114.34C52.3204 115.026 51.7664 115.547 51.113 115.902C50.4643 116.258 49.7304 116.435 48.9113 116.435C48.0969 116.435 47.3701 116.274 46.7309 115.952C46.0965 115.625 45.5756 115.173 45.1684 114.596C44.766 114.013 44.5079 113.338 44.3943 112.571H46.1272C46.2835 113.239 46.5936 113.791 47.0576 114.226C47.5264 114.657 48.1443 114.873 48.9113 114.873C50.0335 114.873 50.9189 114.383 51.5676 113.402C52.221 112.422 52.5477 111.037 52.5477 109.248H52.434C52.1689 109.645 51.854 109.989 51.4894 110.277C51.1249 110.566 50.72 110.789 50.275 110.945C49.8299 111.101 49.3564 111.179 48.8545 111.179C48.0212 111.179 47.2565 110.973 46.5605 110.561C45.8692 110.145 45.3152 109.574 44.8985 108.85C44.4866 108.121 44.2806 107.287 44.2806 106.35C44.2806 105.46 44.4795 104.645 44.8772 103.907C45.2797 103.163 45.8431 102.571 46.5676 102.131C47.2967 101.691 48.1537 101.478 49.1386 101.492ZM49.1386 103.054C48.542 103.054 48.0046 103.204 47.5264 103.502C47.0529 103.795 46.6765 104.193 46.3971 104.695C46.1225 105.192 45.9852 105.744 45.9852 106.35C45.9852 106.956 46.1178 107.508 46.3829 108.005C46.6528 108.497 47.0197 108.89 47.4838 109.184C47.9525 109.472 48.4852 109.617 49.0818 109.617C49.5316 109.617 49.9506 109.529 50.3389 109.354C50.7271 109.174 51.0657 108.93 51.3545 108.623C51.6481 108.31 51.8777 107.957 52.0434 107.564C52.2091 107.167 52.292 106.752 52.292 106.321C52.292 105.753 52.1547 105.221 51.8801 104.723C51.6102 104.226 51.2361 103.824 50.7579 103.516C50.2844 103.208 49.7447 103.054 49.1386 103.054ZM62.6134 116.236V114.958L67.4145 109.702C67.978 109.087 68.442 108.552 68.8066 108.097C69.1711 107.638 69.441 107.207 69.6162 106.804C69.7961 106.397 69.8861 105.971 69.8861 105.526C69.8861 105.015 69.763 104.572 69.5168 104.198C69.2753 103.824 68.9439 103.535 68.5225 103.331C68.1011 103.128 67.6276 103.026 67.102 103.026C66.5433 103.026 66.0556 103.142 65.6389 103.374C65.227 103.601 64.9074 103.921 64.6801 104.333C64.4576 104.745 64.3463 105.228 64.3463 105.782H62.6702C62.6702 104.929 62.8667 104.181 63.2597 103.537C63.6527 102.893 64.1877 102.392 64.8648 102.032C65.5466 101.672 66.3113 101.492 67.1588 101.492C68.0111 101.492 68.7663 101.672 69.4245 102.032C70.0826 102.392 70.5987 102.877 70.9728 103.488C71.3468 104.098 71.5338 104.778 71.5338 105.526C71.5338 106.061 71.4368 106.584 71.2426 107.096C71.0532 107.602 70.7218 108.168 70.2483 108.793C69.7796 109.413 69.1285 110.171 68.2952 111.066L65.0282 114.56V114.674H71.7895V116.236H62.6134ZM85.0921 116.435C84.022 116.435 83.1105 116.144 82.3577 115.561C81.6049 114.974 81.0296 114.124 80.6318 113.012C80.2341 111.894 80.0353 110.545 80.0353 108.963C80.0353 107.392 80.2341 106.049 80.6318 104.936C81.0343 103.819 81.612 102.967 82.3648 102.38C83.1224 101.788 84.0315 101.492 85.0921 101.492C86.1527 101.492 87.0594 101.788 87.8122 102.38C88.5698 102.967 89.1475 103.819 89.5452 104.936C89.9477 106.049 90.1489 107.392 90.1489 108.963C90.1489 110.545 89.95 111.894 89.5523 113.012C89.1546 114.124 88.5793 114.974 87.8264 115.561C87.0736 116.144 86.1621 116.435 85.0921 116.435ZM85.0921 114.873C86.1527 114.873 86.9765 114.361 87.5637 113.338C88.1508 112.316 88.4443 110.857 88.4443 108.963C88.4443 107.704 88.3094 106.632 88.0395 105.746C87.7744 104.861 87.3908 104.186 86.8889 103.722C86.3918 103.258 85.7928 103.026 85.0921 103.026C84.0409 103.026 83.2194 103.544 82.6276 104.581C82.0357 105.614 81.7398 107.074 81.7398 108.963C81.7398 110.223 81.8724 111.293 82.1375 112.174C82.4027 113.054 82.7838 113.724 83.281 114.184C83.7829 114.643 84.3866 114.873 85.0921 114.873Z" fill="#FF0000"/>
<path d="M99.183 107.628V106.094H107.933V107.628H99.183ZM99.183 111.833V110.299H107.933V111.833H99.183ZM124.676 111.396C124.569 110.85 124.589 110.356 124.736 109.916C124.896 109.476 125.129 109.083 125.436 108.736C125.756 108.376 126.102 108.05 126.476 107.756C126.862 107.45 127.229 107.15 127.576 106.856C127.922 106.563 128.209 106.263 128.436 105.956C128.662 105.636 128.776 105.29 128.776 104.916C128.776 104.45 128.662 104.036 128.436 103.676C128.209 103.316 127.876 103.036 127.436 102.836C126.996 102.623 126.429 102.516 125.736 102.516C125.056 102.516 124.396 102.67 123.756 102.976C123.129 103.27 122.529 103.723 121.956 104.336L120.876 103.336C121.542 102.63 122.282 102.07 123.096 101.656C123.909 101.23 124.856 101.016 125.936 101.016C126.882 101.016 127.696 101.17 128.376 101.476C129.069 101.783 129.602 102.216 129.976 102.776C130.362 103.323 130.556 103.983 130.556 104.756C130.556 105.263 130.442 105.71 130.216 106.096C129.989 106.483 129.696 106.836 129.336 107.156C128.989 107.476 128.622 107.79 128.236 108.096C127.849 108.39 127.489 108.696 127.156 109.016C126.836 109.336 126.589 109.69 126.416 110.076C126.256 110.463 126.222 110.903 126.316 111.396H124.676ZM125.536 116.336C125.176 116.336 124.869 116.216 124.616 115.976C124.362 115.736 124.236 115.416 124.236 115.016C124.236 114.616 124.362 114.296 124.616 114.056C124.869 113.803 125.176 113.676 125.536 113.676C125.882 113.676 126.182 113.803 126.436 114.056C126.689 114.296 126.816 114.616 126.816 115.016C126.816 115.416 126.689 115.736 126.436 115.976C126.182 116.216 125.882 116.336 125.536 116.336Z" fill="black"/>
<path d="M149.293 39.7619C149.032 39.7619 148.902 39.6864 148.902 39.5354C148.902 39.3843 149.015 39.302 149.241 39.2882L150.415 39.1441C150.763 39.1029 150.998 39.0342 151.12 38.9381C151.242 38.8283 151.303 38.6292 151.303 38.3409V25.9841C151.303 25.7918 151.25 25.6546 151.146 25.5722C151.042 25.4898 150.824 25.4486 150.494 25.4486C149.85 25.4486 149.215 25.6683 148.589 26.1076C147.962 26.547 147.554 27.2541 147.362 28.2289L147.232 28.9085C147.197 29.087 147.075 29.1762 146.866 29.1762C146.606 29.1762 146.492 29.0595 146.527 28.8261L146.762 25.0985C146.797 24.7827 146.953 24.6248 147.232 24.6248C147.354 24.6248 147.467 24.6523 147.571 24.7072C147.675 24.7484 147.849 24.7964 148.093 24.8514C148.354 24.9063 148.763 24.9337 149.319 24.9337H155.138C155.695 24.9337 156.095 24.9063 156.339 24.8514C156.6 24.7964 156.782 24.7484 156.887 24.7072C157.009 24.6523 157.122 24.6248 157.226 24.6248C157.504 24.6248 157.661 24.7827 157.696 25.0985L157.931 28.8261C157.965 29.0595 157.852 29.1762 157.591 29.1762C157.383 29.1762 157.261 29.087 157.226 28.9085L157.096 28.2289C156.922 27.2541 156.521 26.547 155.895 26.1076C155.269 25.6683 154.625 25.4486 153.964 25.4486C153.634 25.4486 153.416 25.4898 153.312 25.5722C153.207 25.6546 153.155 25.7918 153.155 25.9841V38.3409C153.155 38.6292 153.216 38.8283 153.338 38.9381C153.477 39.0342 153.712 39.1029 154.043 39.1441L155.217 39.2882C155.443 39.302 155.556 39.3843 155.556 39.5354C155.556 39.6864 155.426 39.7619 155.165 39.7619H149.293Z" fill="black"/>
<path d="M140.593 39.9473C140.245 39.9473 139.854 39.9198 139.419 39.8649C139.001 39.81 138.601 39.7413 138.218 39.6589C137.853 39.5765 137.566 39.4873 137.357 39.3912C137.235 39.3363 137.14 39.2814 137.07 39.2264C137.018 39.1578 136.992 39.0479 136.992 38.8969L136.861 35.6636C136.861 35.389 136.975 35.2517 137.201 35.2517C137.392 35.2517 137.523 35.3752 137.592 35.6224L137.827 36.405C138.418 38.3683 139.523 39.35 141.141 39.35C142.011 39.35 142.698 39.1235 143.202 38.6704C143.724 38.2036 143.985 37.5514 143.985 36.7139C143.985 35.9038 143.716 35.1487 143.176 34.4485C142.654 33.7483 141.811 33.0549 140.645 32.3684C139.358 31.6407 138.418 30.9405 137.827 30.2678C137.235 29.5813 136.94 28.8536 136.94 28.0847C136.94 27.0687 137.383 26.2587 138.271 25.6545C139.175 25.0367 140.323 24.7278 141.715 24.7278C142.237 24.7278 142.741 24.7758 143.229 24.8719C143.716 24.9681 144.116 25.1054 144.429 25.2838C144.533 25.3388 144.612 25.4005 144.664 25.4692C144.733 25.5378 144.768 25.6271 144.768 25.7369L144.846 28.8467C144.846 29.0801 144.733 29.1968 144.507 29.1968C144.351 29.1968 144.238 29.1007 144.168 28.9085L143.985 28.3936C143.603 27.3364 143.202 26.5676 142.785 26.087C142.385 25.5928 141.802 25.3456 141.037 25.3456C140.289 25.3456 139.688 25.5378 139.236 25.9223C138.801 26.3067 138.584 26.849 138.584 27.5493C138.584 28.1396 138.827 28.7026 139.314 29.238C139.801 29.7735 140.654 30.4256 141.872 31.1945C143.176 32.032 144.124 32.8421 144.716 33.6247C145.325 34.3936 145.629 35.2173 145.629 36.096C145.629 36.8649 145.412 37.5377 144.977 38.1143C144.542 38.691 143.942 39.1441 143.176 39.4736C142.428 39.7894 141.567 39.9473 140.593 39.9473Z" fill="black"/>
<path d="M124.855 39.7619C124.594 39.7619 124.463 39.6864 124.463 39.5353C124.463 39.4118 124.576 39.3294 124.802 39.2882L125.403 39.2058C125.768 39.1509 126.003 39.0754 126.107 38.9793C126.229 38.8832 126.29 38.691 126.29 38.4026V26.293C126.29 26.0046 126.229 25.8124 126.107 25.7163C126.003 25.6202 125.768 25.5447 125.403 25.4898L124.802 25.4074C124.576 25.3662 124.463 25.2838 124.463 25.1603C124.463 25.0092 124.594 24.9337 124.855 24.9337H133.622C134.023 24.9337 134.24 25.0916 134.275 25.4074L134.484 28.8261C134.518 29.0595 134.405 29.1762 134.144 29.1762C133.936 29.1762 133.814 29.087 133.779 28.9085L133.622 28.1465C133.431 27.2129 133.04 26.5332 132.448 26.1076C131.857 25.6683 131.039 25.4486 129.995 25.4486C129.299 25.4486 128.812 25.531 128.534 25.6957C128.273 25.8467 128.143 26.1213 128.143 26.5195V31.4828C128.143 31.675 128.264 31.7711 128.508 31.7711H129.813C130.578 31.7711 131.048 31.4485 131.222 30.8032L131.483 29.7735C131.552 29.5675 131.7 29.4783 131.926 29.5057C132.118 29.5332 132.213 29.6499 132.213 29.8558V34.4896C132.213 34.6956 132.118 34.8123 131.926 34.8398C131.7 34.8672 131.552 34.778 131.483 34.572L131.222 33.5629C131.1 33.0823 130.926 32.7666 130.7 32.6155C130.491 32.4645 130.187 32.389 129.787 32.389H128.508C128.264 32.389 128.143 32.4851 128.143 32.6773V37.8466C128.143 38.3409 128.299 38.6978 128.612 38.9175C128.943 39.1372 129.534 39.247 130.387 39.247C131.257 39.247 131.996 39.0754 132.605 38.7322C133.231 38.3752 133.666 37.7161 133.91 36.7551L134.223 35.54C134.275 35.3615 134.405 35.2722 134.614 35.2722C134.858 35.2722 134.962 35.3889 134.927 35.6224L134.666 39.2882C134.631 39.604 134.414 39.7619 134.014 39.7619H124.855Z" fill="black"/>
<path d="M117.153 39.9472C116.214 39.9472 115.379 39.7756 114.648 39.4324C113.935 39.0754 113.378 38.588 112.978 37.9701C112.578 37.3386 112.378 36.6178 112.378 35.8077V26.293C112.378 26.0046 112.317 25.8124 112.195 25.7163C112.091 25.6202 111.856 25.5447 111.491 25.4898L110.891 25.4074C110.664 25.3662 110.551 25.2838 110.551 25.1603C110.551 25.0092 110.682 24.9337 110.943 24.9337H115.718C115.979 24.9337 116.11 25.0161 116.11 25.1809C116.11 25.3044 116.014 25.3799 115.822 25.4074L115.118 25.4898C114.77 25.531 114.535 25.6065 114.413 25.7163C114.292 25.8262 114.231 26.0252 114.231 26.3136V35.8283C114.231 36.8718 114.526 37.6818 115.118 38.2585C115.709 38.8351 116.536 39.1234 117.597 39.1234C118.675 39.1234 119.511 38.8351 120.102 38.2585C120.693 37.6818 120.989 36.8718 120.989 35.8283V26.7255C120.989 25.984 120.693 25.5722 120.102 25.4898L119.397 25.4074C119.206 25.3799 119.11 25.3044 119.11 25.1809C119.11 25.0161 119.241 24.9337 119.502 24.9337H123.259C123.52 24.9337 123.651 25.0092 123.651 25.1603C123.651 25.2838 123.538 25.3662 123.312 25.4074L122.711 25.4898C122.12 25.5722 121.824 25.9772 121.824 26.7049V35.8077C121.824 37.0571 121.398 38.0594 120.546 38.8145C119.693 39.5697 118.562 39.9472 117.153 39.9472Z" fill="black"/>
<path d="M93.1332 9.776C94.0275 8.76484 95.0997 8.46496 96.0487 8.67461C96.888 8.86008 97.6001 9.43996 97.9631 10.2061C98.7823 9.47524 99.5764 9.27087 100.308 9.45571C100.981 9.62568 101.532 10.1105 101.953 10.6506C103.146 9.42406 104.383 9.1506 105.453 9.4263C106.473 9.6892 107.287 10.4385 107.723 11.1934C108.966 10.9708 109.767 11.201 110.189 11.7661C110.562 12.2665 110.554 12.9269 110.434 13.457C110.962 13.8569 111.307 14.2494 111.492 14.6366C111.702 15.0774 111.696 15.498 111.533 15.8672C111.376 16.2234 111.084 16.5055 110.767 16.7174C110.539 16.869 110.288 16.9914 110.037 17.0847C110.211 17.7112 110.22 18.2488 110.081 18.6992C109.919 19.2268 109.567 19.5972 109.129 19.8325C108.362 20.2452 107.323 20.2517 106.453 20.0301C106.227 20.5703 105.946 20.99 105.604 21.2901C105.203 21.6432 104.737 21.8165 104.231 21.8402C103.298 21.8838 102.248 21.4191 101.177 20.7169C98.7282 22.5996 95.8567 23.0841 93.8183 23.0841C91.9521 23.0841 90.3854 23.0936 88.6704 23.0984C86.9344 23.1033 85.0488 23.1035 82.553 23.0841L82.5581 22.4611C85.0511 22.4805 86.9343 22.4804 88.6686 22.4755C89.6686 22.4726 90.6201 22.4683 91.6105 22.4652C91.9896 22.8475 92.5152 23.0844 93.0963 23.0844C93.6918 23.0843 94.2286 22.8351 94.6097 22.4357C96.5198 22.3156 98.922 21.7349 100.967 20.0902L101.146 19.9456L101.337 20.0751C102.456 20.8353 103.43 21.254 104.201 21.218C104.575 21.2005 104.904 21.0765 105.193 20.8223C105.487 20.5638 105.755 20.1561 105.972 19.5477L106.074 19.2621L106.362 19.3563C107.185 19.6253 108.183 19.634 108.834 19.2837C109.149 19.1145 109.378 18.8653 109.486 18.5162C109.595 18.1603 109.589 17.6636 109.355 16.9864L109.247 16.6744L109.565 16.5849C109.857 16.5027 110.163 16.3709 110.421 16.1993C110.681 16.0259 110.87 15.8259 110.963 15.6155C111.05 15.4181 111.064 15.1872 110.929 14.9046C110.789 14.6094 110.481 14.2488 109.9 13.8371L109.718 13.7079L109.781 13.4939C109.93 12.9952 109.935 12.4674 109.69 12.1389C109.466 11.839 108.921 11.5695 107.623 11.848L107.384 11.8993L107.277 11.6793C106.945 10.9928 106.209 10.2643 105.297 10.0294C104.418 9.80281 103.308 10.0197 102.16 11.3457L101.894 11.654L101.666 11.3156C101.255 10.7022 100.735 10.2061 100.156 10.0596C99.6095 9.92167 98.9107 10.0722 98.0644 10.9792L97.6763 11.3953L97.535 10.8439C97.3375 10.0733 96.6953 9.45558 95.9144 9.283C95.1535 9.11486 94.2155 9.36275 93.4085 10.4213L93.1805 10.7208L92.9291 10.4407C92.5753 10.0466 92.0074 9.76668 91.4765 9.83005C90.9807 9.88926 90.4073 10.2645 90.0508 11.4164L89.9902 11.6127L89.7861 11.6341C88.99 11.7181 88.5831 12.0492 88.4496 12.3996C88.3154 12.7521 88.4053 13.2603 88.9011 13.8117L89.0771 14.0073L88.9137 14.2135C88.6218 14.5822 88.3181 15.1322 88.2819 15.6072C88.2646 15.8347 88.3097 16.0249 88.4257 16.1771C88.5432 16.3311 88.7632 16.4859 89.1714 16.5816L89.0291 17.188C88.5268 17.0702 88.1607 16.8568 87.9305 16.555C87.6991 16.2515 87.635 15.8979 87.6607 15.56C87.7031 15.004 87.9905 14.4391 88.2739 14.0312C87.81 13.4278 87.6451 12.7622 87.8676 12.1779C88.0973 11.5752 88.6945 11.1752 89.5191 11.0415C89.9325 9.86803 90.6273 9.30416 91.4028 9.2116C92.0498 9.13441 92.6789 9.39723 93.1332 9.776Z" fill="black"/>
<path d="M69.3749 39.5353C69.3749 39.6864 69.5053 39.7619 69.7663 39.7619H75.6376C75.8985 39.7619 76.029 39.6864 76.029 39.5353C76.029 39.3843 75.9159 39.3019 75.6898 39.2882L74.5155 39.144C74.185 39.1029 73.9501 39.0342 73.8109 38.9381C73.6892 38.8283 73.6283 38.6292 73.6283 38.3409V33.3158C73.6283 33.0961 73.6544 32.9039 73.7066 32.7391C73.7588 32.5606 73.8457 32.3753 73.9675 32.183L77.3859 26.7666C77.6816 26.3136 77.9165 25.9909 78.0905 25.7987C79.2598 24.5067 80.9527 23.1589 82.553 23.0841L82.5581 22.4611C78.9664 22.1181 77.4155 25.2753 76.5248 26.746L73.4456 31.7094C73.376 31.8055 73.2891 31.8535 73.1847 31.8535C73.0803 31.8535 72.9933 31.8055 72.9237 31.7094L69.7141 26.3136C69.5401 26.0252 69.514 25.8124 69.6358 25.6751C69.7576 25.5378 69.9663 25.4623 70.2621 25.4486L70.7579 25.4074C71.0536 25.3937 71.2015 25.3113 71.2015 25.1603C71.2015 25.0092 71.0797 24.9337 70.8362 24.9337H66.374C66.113 24.9337 65.9826 25.0024 65.9826 25.1397C65.9826 25.277 66.1043 25.3662 66.3479 25.4074L66.5827 25.4486C66.8785 25.5035 67.1046 25.5927 67.2612 25.7163C67.4178 25.8399 67.5569 26.0184 67.6787 26.2518L71.5146 32.5949C71.6886 32.8833 71.7756 33.1785 71.7756 33.4805V38.3409C71.7756 38.6292 71.7147 38.8283 71.5929 38.9381C71.4711 39.0342 71.2363 39.1029 70.8883 39.144L69.7141 39.2882C69.4879 39.3019 69.3749 39.3843 69.3749 39.5353Z" fill="black"/>
<path d="M64.1409 39.9472C63.8625 39.9472 63.6277 39.7825 63.4363 39.453L56.3647 27.3433C56.3125 27.2472 56.2429 27.206 56.1559 27.2197C56.0863 27.2335 56.0515 27.2952 56.0515 27.4051V37.9907C56.0515 38.3752 56.1298 38.6704 56.2864 38.8763C56.4603 39.0685 56.7648 39.1921 57.1997 39.247L57.5389 39.2882C57.7651 39.3019 57.8782 39.3843 57.8782 39.5353C57.8782 39.6864 57.7477 39.7619 57.4867 39.7619H53.7552C53.4943 39.7619 53.3638 39.6864 53.3638 39.5353C53.3638 39.3843 53.4769 39.3019 53.703 39.2882L54.0422 39.247C54.4946 39.1921 54.8077 39.0685 54.9817 38.8763C55.1556 38.6704 55.2426 38.3752 55.2426 37.9907V26.293C55.2426 26.0046 55.1817 25.8124 55.0599 25.7163C54.9556 25.6202 54.7033 25.5447 54.3032 25.4898L53.703 25.4074C53.4769 25.3662 53.3638 25.2838 53.3638 25.1603C53.3638 25.0092 53.4943 24.9337 53.7552 24.9337H56.5473C56.9822 24.9337 57.2867 25.0847 57.4606 25.3868L63.619 36.0754C63.6712 36.1578 63.732 36.1921 63.8016 36.1784C63.8886 36.1647 63.9321 36.1166 63.9321 36.0342V26.7049C63.9321 26.2655 63.8364 25.9635 63.6451 25.7987C63.4537 25.6202 63.2102 25.5104 62.9144 25.4692L62.4447 25.4074C62.2186 25.3662 62.1055 25.2838 62.1055 25.1603C62.1055 25.0092 62.236 24.9337 62.4969 24.9337H66.2284C66.4894 24.9337 66.6199 25.0092 66.6199 25.1603C66.6199 25.3113 66.5068 25.3937 66.2806 25.4074L65.9414 25.4486C65.4891 25.5035 65.1759 25.6202 65.002 25.7987C64.828 25.9635 64.741 26.2655 64.741 26.7049V39.2882C64.741 39.5353 64.6802 39.707 64.5584 39.8031C64.454 39.8992 64.3148 39.9472 64.1409 39.9472Z" fill="black"/>
<path fill-rule="evenodd" clip-rule="evenodd" d="M82.0656 38.9999C83.0398 39.6315 84.2315 39.9473 85.6406 39.9473C86.3538 39.9473 86.9801 39.8923 87.5194 39.7825C88.0587 39.6864 88.5371 39.556 88.9546 39.3912C89.2155 39.2814 89.3982 39.1852 89.5026 39.1029C89.607 39.0068 89.6591 38.8832 89.6591 38.7322V33.151C89.6591 32.8627 89.6939 32.6567 89.7635 32.5332C89.435 32.5332 88.891 32.4222 88.3732 32.3166C88.0898 32.2588 87.8144 32.2026 87.5864 32.1671C86.8397 32.0507 86.5276 32.1101 86.9192 32.3272C87.2845 32.3547 87.5194 32.4233 87.6238 32.5332C87.7455 32.643 87.8064 32.8421 87.8064 33.1304V37.6406C87.8064 38.3134 87.6238 38.7734 87.2584 39.0205C86.8931 39.2676 86.3538 39.3912 85.6406 39.3912C84.3184 39.3912 83.2312 38.7871 82.3787 37.5789C81.5437 36.3569 81.1262 34.5858 81.1262 32.2654C81.1262 30.0138 81.535 28.2975 82.3526 27.1168C83.1877 25.9223 84.2402 25.325 85.5101 25.325C86.3625 25.325 87.0323 25.5378 87.5194 25.9635C88.0065 26.3891 88.4414 27.1717 88.8241 28.3113L89.0329 28.9291C89.0851 29.1076 89.2068 29.1968 89.3982 29.1968C89.607 29.1968 89.7113 29.0801 89.7113 28.8467L89.633 25.7163C89.633 25.5241 89.52 25.3799 89.2938 25.2838C88.8763 25.1191 88.3892 24.9886 87.8325 24.8925C87.2758 24.7827 86.6583 24.7278 85.9798 24.7278C84.6403 24.7278 83.4486 25.0436 82.4048 25.6751C81.3784 26.293 80.5695 27.1717 79.978 28.3113C79.3866 29.4371 79.0908 30.7552 79.0908 32.2654C79.0908 33.8306 79.3431 35.1899 79.8476 36.3432C80.3521 37.4828 81.0914 38.3683 82.0656 38.9999Z" fill="black"/>
<path fill-rule="evenodd" clip-rule="evenodd" d="M100.342 37.8037C100.938 38.7021 101.699 39.2192 102.625 39.355C102.716 39.5667 103.08 40.0051 103.078 40.0735C102.879 40.0069 102.467 39.9458 102.254 39.8876C102.118 39.8502 101.989 39.815 101.882 39.7825C100.977 39.5491 100.16 39.0823 99.4291 38.3821C99.1388 38.0915 98.8731 37.7736 98.6318 37.4285C99.1194 37.5759 100.144 37.8573 100.342 37.8037ZM99.1943 32.3272C99.1943 34.2494 99.4221 35.776 99.8779 36.907C99.7347 36.8986 98.5322 36.4609 97.9489 36.243C97.873 36.0817 97.801 35.916 97.733 35.7459C97.3329 34.7025 97.1328 33.5629 97.1328 32.3272C97.1328 31.2563 97.2807 30.2609 97.5764 29.341C97.8895 28.4211 98.3158 27.6179 98.855 26.9314C99.4117 26.2312 100.055 25.6889 100.786 25.3044C101.517 24.92 102.3 24.7278 103.135 24.7278C103.97 24.7278 104.744 24.92 105.457 25.3044C106.188 25.6889 106.831 26.2312 107.388 26.9314C107.945 27.6179 108.371 28.4211 108.667 29.341C108.98 30.2609 109.136 31.2563 109.136 32.3272C109.136 33.5904 108.919 34.7574 108.484 35.8283C108.066 36.8855 107.484 37.7642 106.736 38.4644C106.145 39.0305 105.486 39.435 104.759 39.678C104.618 39.5445 104.331 39.2589 104.31 39.1854C105 38.9225 105.574 38.4076 106.031 37.6406C106.727 36.4736 107.075 34.7025 107.075 32.3272C107.075 29.952 106.727 28.1877 106.031 27.0344C105.335 25.8674 104.37 25.2838 103.135 25.2838C101.917 25.2838 100.951 25.8674 100.238 27.0344C99.5422 28.1877 99.1943 29.952 99.1943 32.3272Z" fill="black"/>
<path d="M84.5915 33.151C85.0245 32.6842 86.3889 31.7283 88.1044 31.926C90.2488 32.1732 95.7633 35.7305 97.4747 36.685C97.7139 36.8183 98.031 36.9529 98.4005 37.0772C98.9098 37.2486 99.5185 37.4007 100.159 37.5036C100.656 37.5834 101.172 37.6337 101.676 37.6406C101.738 37.6415 101.8 37.6419 101.861 37.6418C101.774 37.5386 101.684 37.4349 101.592 37.3302C101.026 37.3322 100.485 37.2617 99.9828 37.1516C99.2535 36.9917 98.6069 36.7484 98.0868 36.523C97.8568 36.4233 97.6515 36.327 97.4747 36.243C96.1455 35.6115 90.9659 32.1556 88.6344 31.7712C86.7692 31.4636 84.9621 32.5103 84.5915 33.151Z" fill="black"/>
<path d="M102.536 37.6183C102.455 37.5153 102.369 37.4053 102.279 37.2913C102.047 37.3171 101.818 37.3294 101.592 37.3302C101.684 37.4349 101.774 37.5386 101.861 37.6418C102.095 37.6413 102.32 37.6336 102.536 37.6183Z" fill="black"/>
<path d="M103.949 39.2975C103.692 39.36 103.42 39.3912 103.135 39.3912C103.097 39.3912 103.059 39.3906 103.022 39.3895C103.084 39.5536 103.134 39.5766 103.27 39.8109C103.406 40.0452 103.838 40.6076 104.014 40.9903C104.358 41.7372 104.799 42.2892 105.338 42.6464C105.877 43.0035 106.448 43.2239 107.049 43.3075C107.671 43.4022 108.239 43.4138 108.753 43.3423C109.352 43.2588 109.836 43.1288 110.202 42.9523C110.589 42.7869 110.902 42.604 111.14 42.4036C111.256 42.2899 111.303 42.1857 111.282 42.0911C111.258 41.9829 111.183 41.9236 111.057 41.9133C110.931 41.9029 110.807 41.9411 110.685 42.0278C110.211 42.3586 109.76 42.5096 109.203 42.6313C108.606 42.7618 108.173 42.8764 107.323 42.6313C106.473 42.3861 106.106 42.0647 105.623 41.3234C105.217 40.7018 104.569 39.9669 103.949 39.2975Z" fill="black"/>
<path fill-rule="evenodd" clip-rule="evenodd" d="M106.752 32.111C107.147 33.2009 107.109 34.1679 106.151 35.6746C106.05 35.8334 105.925 35.9852 105.795 36.1212C105.565 36.3624 105.32 36.5539 105.17 36.6464C104.644 36.9708 104.475 37.0522 104.143 37.194C103.519 37.461 102.951 37.5888 102.536 37.6183C102.455 37.5153 102.369 37.4053 102.279 37.2913C102.561 37.26 102.846 37.2088 103.135 37.1341C103.645 37.0018 104.257 36.6634 104.644 36.3955C104.918 36.2058 105.197 35.8578 105.218 35.8283C105.914 34.8773 106.333 33.8635 106.124 32.9295C106.055 32.623 105.781 32.2164 105.346 32.1645C104.858 32.1064 104.085 32.3558 103.437 33.1304C102.848 32.1671 101.882 31.7044 100.905 31.9977C100.675 32.0666 100.348 32.5148 100.238 32.9952C100.11 33.5578 100.222 34.6031 100.905 35.62C101.054 35.8422 101.33 36.1633 101.622 36.5039C101.811 36.7238 102.007 36.9519 102.18 37.1666C102.141 37.1786 101.693 37.1918 101.475 37.1969C101.426 37.1421 101.375 37.085 101.322 37.0264C101.061 36.7338 100.765 36.4027 100.543 36.1212C100.502 36.0695 100.462 36.0187 100.422 35.9687C99.7305 35.0994 99.2071 34.4413 99.4291 32.5999C99.5285 31.7763 100.177 31.2642 100.967 31.1505C101.927 31.0121 103.062 31.4531 103.54 32.5332C103.819 31.912 104.645 31.3295 105.482 31.3384C105.946 31.3433 106.576 31.6239 106.752 32.111Z" fill="black"/>
<path fill-rule="evenodd" clip-rule="evenodd" d="M103.949 39.2975C103.692 39.36 103.42 39.3912 103.135 39.3912C103.097 39.3912 103.059 39.3906 103.022 39.3895C102.901 39.0718 102.779 38.8972 102.55 38.5716C102.483 38.4748 102.406 38.3646 102.316 38.2334C102.219 38.0898 102.11 37.947 101.994 37.8037C102.193 37.7957 102.602 37.7754 102.647 37.7584C102.719 37.8505 102.786 37.9347 102.844 38.0083C102.919 38.1028 102.98 38.1798 103.022 38.2334C103.368 38.6745 103.693 39.023 103.882 39.2261C103.907 39.2524 103.929 39.2762 103.949 39.2975Z" fill="black"/>
<circle cx="90.6827" cy="24.4888" r="1" stroke="black" stroke-width="0.505019"/>
<circle cx="90.6827" cy="24.4888" r="1" stroke="black" stroke-width="0.505019"/>
<path d="M94.4526 20.992C94.4526 20.2429 93.8454 19.6355 93.0963 19.6355C92.3472 19.6355 91.7398 20.2429 91.7398 20.992C91.7398 21.7412 92.3472 22.3483 93.0963 22.3483V22.8632L93 22.8609C92.0431 22.8125 91.276 22.0452 91.2274 21.0883L91.2249 20.992C91.2249 19.9585 92.0628 19.1206 93.0963 19.1206L93.1926 19.1231C94.1813 19.1733 94.9675 19.9908 94.9675 20.992L94.9652 21.0883C94.9151 22.077 94.0975 22.8632 93.0963 22.8632V22.3483C93.8454 22.3483 94.4526 21.7411 94.4526 20.992Z" fill="black"/>
<path d="M94.4526 20.992C94.4526 20.2429 93.8454 19.6355 93.0963 19.6355C92.3472 19.6355 91.7398 20.2429 91.7398 20.992C91.7398 21.7412 92.3472 22.3483 93.0963 22.3483V22.8632L93 22.8609C92.0431 22.8125 91.276 22.0452 91.2274 21.0883L91.2249 20.992C91.2249 19.9585 92.0628 19.1206 93.0963 19.1206L93.1926 19.1231C94.1813 19.1733 94.9675 19.9908 94.9675 20.992L94.9652 21.0883C94.9151 22.077 94.0975 22.8632 93.0963 22.8632V22.3483C93.8454 22.3483 94.4526 21.7411 94.4526 20.992Z" fill="black"/>
</g>
<defs>
<clipPath id="clip0_98_750">
<rect width="210" height="148.5" fill="white" transform="matrix(-1 0 0 -1 210.65 148.731)"/>
</clipPath>
</defs>
</svg>
