<svg width="211" height="149" viewBox="0 0 211 149" fill="none" xmlns="http://www.w3.org/2000/svg">
<rect width="210" height="148.5" transform="matrix(-1 0 0 -1 210.65 148.5)" fill="white"/>
<path d="M149.293 39.5312C149.032 39.5312 148.902 39.4557 148.902 39.3047C148.902 39.1537 149.015 39.0713 149.241 39.0576L150.415 38.9134C150.763 38.8722 150.998 38.8036 151.12 38.7075C151.242 38.5976 151.303 38.3985 151.303 38.1102V25.7534C151.303 25.5612 151.25 25.4239 151.146 25.3415C151.042 25.2591 150.824 25.2179 150.494 25.2179C149.85 25.2179 149.215 25.4376 148.589 25.877C147.963 26.3163 147.554 27.0234 147.362 27.9982L147.232 28.6778C147.197 28.8563 147.075 28.9456 146.867 28.9456C146.606 28.9456 146.493 28.8289 146.527 28.5955L146.762 24.8678C146.797 24.552 146.954 24.3941 147.232 24.3941C147.354 24.3941 147.467 24.4216 147.571 24.4765C147.675 24.5177 147.849 24.5658 148.093 24.6207C148.354 24.6756 148.763 24.7031 149.319 24.7031H155.139C155.695 24.7031 156.095 24.6756 156.339 24.6207C156.6 24.5658 156.783 24.5177 156.887 24.4765C157.009 24.4216 157.122 24.3941 157.226 24.3941C157.504 24.3941 157.661 24.552 157.696 24.8678L157.931 28.5955C157.965 28.8289 157.852 28.9456 157.591 28.9456C157.383 28.9456 157.261 28.8563 157.226 28.6778L157.096 27.9982C156.922 27.0234 156.522 26.3163 155.895 25.877C155.269 25.4376 154.625 25.2179 153.964 25.2179C153.634 25.2179 153.416 25.2591 153.312 25.3415C153.208 25.4239 153.155 25.5612 153.155 25.7534V38.1102C153.155 38.3985 153.216 38.5976 153.338 38.7075C153.477 38.8036 153.712 38.8722 154.043 38.9134L155.217 39.0576C155.443 39.0713 155.556 39.1537 155.556 39.3047C155.556 39.4557 155.426 39.5312 155.165 39.5312H149.293Z" fill="black"/>
<path d="M140.593 39.7166C140.245 39.7166 139.854 39.6891 139.419 39.6342C139.001 39.5793 138.601 39.5107 138.218 39.4283C137.853 39.3459 137.566 39.2566 137.357 39.1605C137.236 39.1056 137.14 39.0507 137.07 38.9958C137.018 38.9271 136.992 38.8173 136.992 38.6663L136.862 35.4329C136.862 35.1583 136.975 35.021 137.201 35.021C137.392 35.021 137.523 35.1446 137.592 35.3917L137.827 36.1743C138.418 38.1377 139.523 39.1194 141.141 39.1194C142.011 39.1194 142.698 38.8928 143.203 38.4397C143.724 37.9729 143.985 37.3208 143.985 36.4832C143.985 35.6732 143.716 34.918 143.176 34.2178C142.655 33.5176 141.811 32.8242 140.645 32.1378C139.358 31.4101 138.418 30.7099 137.827 30.0371C137.236 29.3506 136.94 28.6229 136.94 27.8541C136.94 26.8381 137.383 26.028 138.271 25.4239C139.175 24.8061 140.323 24.4971 141.715 24.4971C142.237 24.4971 142.741 24.5452 143.229 24.6413C143.716 24.7374 144.116 24.8747 144.429 25.0532C144.533 25.1081 144.612 25.1699 144.664 25.2385C144.733 25.3072 144.768 25.3964 144.768 25.5063L144.846 28.6161C144.846 28.8495 144.733 28.9662 144.507 28.9662C144.351 28.9662 144.238 28.8701 144.168 28.6779L143.985 28.163C143.603 27.1058 143.203 26.3369 142.785 25.8564C142.385 25.3621 141.802 25.115 141.037 25.115C140.289 25.115 139.688 25.3072 139.236 25.6916C138.801 26.0761 138.584 26.6184 138.584 27.3186C138.584 27.909 138.827 28.4719 139.314 29.0074C139.802 29.5428 140.654 30.195 141.872 30.9639C143.176 31.8014 144.125 32.6114 144.716 33.394C145.325 34.1629 145.629 34.9867 145.629 35.8654C145.629 36.6343 145.412 37.307 144.977 37.8837C144.542 38.4603 143.942 38.9134 143.176 39.2429C142.428 39.5587 141.567 39.7166 140.593 39.7166Z" fill="black"/>
<path d="M124.855 39.5312C124.594 39.5312 124.463 39.4557 124.463 39.3047C124.463 39.1811 124.576 39.0987 124.803 39.0576L125.403 38.9752C125.768 38.9203 126.003 38.8447 126.107 38.7486C126.229 38.6525 126.29 38.4603 126.29 38.172V26.0623C126.29 25.774 126.229 25.5818 126.107 25.4857C126.003 25.3896 125.768 25.314 125.403 25.2591L124.803 25.1767C124.576 25.1356 124.463 25.0532 124.463 24.9296C124.463 24.7786 124.594 24.7031 124.855 24.7031H133.622C134.023 24.7031 134.24 24.861 134.275 25.1767L134.484 28.5955C134.518 28.8289 134.405 28.9456 134.144 28.9456C133.936 28.9456 133.814 28.8563 133.779 28.6778L133.622 27.9158C133.431 26.9822 133.04 26.3026 132.448 25.877C131.857 25.4376 131.039 25.2179 129.995 25.2179C129.299 25.2179 128.812 25.3003 128.534 25.4651C128.273 25.6161 128.143 25.8907 128.143 26.2889V31.2522C128.143 31.4444 128.264 31.5405 128.508 31.5405H129.813C130.578 31.5405 131.048 31.2178 131.222 30.5725L131.483 29.5428C131.552 29.3369 131.7 29.2476 131.926 29.2751C132.118 29.3025 132.213 29.4192 132.213 29.6252V34.259C132.213 34.4649 132.118 34.5816 131.926 34.6091C131.7 34.6366 131.552 34.5473 131.483 34.3414L131.222 33.3322C131.1 32.8517 130.926 32.5359 130.7 32.3849C130.491 32.2339 130.187 32.1583 129.787 32.1583H128.508C128.264 32.1583 128.143 32.2544 128.143 32.4467V37.6159C128.143 38.1102 128.299 38.4672 128.612 38.6869C128.943 38.9065 129.534 39.0164 130.387 39.0164C131.257 39.0164 131.996 38.8447 132.605 38.5015C133.231 38.1445 133.666 37.4855 133.91 36.5244L134.223 35.3093C134.275 35.1308 134.405 35.0416 134.614 35.0416C134.858 35.0416 134.962 35.1583 134.927 35.3917L134.666 39.0576C134.631 39.3733 134.414 39.5312 134.014 39.5312H124.855Z" fill="black"/>
<path d="M117.153 39.7166C116.214 39.7166 115.379 39.545 114.648 39.2017C113.935 38.8447 113.378 38.3573 112.978 37.7395C112.578 37.1079 112.378 36.3871 112.378 35.5771V26.0623C112.378 25.774 112.317 25.5818 112.195 25.4857C112.091 25.3896 111.856 25.314 111.491 25.2591L110.891 25.1767C110.664 25.1356 110.551 25.0532 110.551 24.9296C110.551 24.7786 110.682 24.7031 110.943 24.7031H115.718C115.979 24.7031 116.11 24.7854 116.11 24.9502C116.11 25.0738 116.014 25.1493 115.823 25.1767L115.118 25.2591C114.77 25.3003 114.535 25.3758 114.413 25.4857C114.292 25.5955 114.231 25.7946 114.231 26.0829V35.5976C114.231 36.6411 114.526 37.4512 115.118 38.0278C115.709 38.6045 116.536 38.8928 117.597 38.8928C118.676 38.8928 119.511 38.6045 120.102 38.0278C120.694 37.4512 120.989 36.6411 120.989 35.5976V26.4948C120.989 25.7534 120.694 25.3415 120.102 25.2591L119.397 25.1767C119.206 25.1493 119.11 25.0738 119.11 24.9502C119.11 24.7854 119.241 24.7031 119.502 24.7031H123.259C123.52 24.7031 123.651 24.7786 123.651 24.9296C123.651 25.0532 123.538 25.1356 123.312 25.1767L122.711 25.2591C122.12 25.3415 121.824 25.7465 121.824 26.4742V35.5771C121.824 36.8265 121.398 37.8287 120.546 38.5839C119.693 39.339 118.562 39.7166 117.153 39.7166Z" fill="black"/>
<path d="M93.1333 9.54534C94.0275 8.53419 95.0997 8.23431 96.0487 8.44396C96.888 8.62942 97.6001 9.20931 97.9632 9.97549C98.7823 9.24459 99.5764 9.04022 100.308 9.22506C100.981 9.39502 101.532 9.87982 101.953 10.42C103.146 9.19341 104.383 8.91995 105.453 9.19565C106.473 9.45855 107.287 10.2079 107.723 10.9627C108.966 10.7401 109.767 10.9704 110.189 11.5354C110.562 12.0359 110.554 12.6963 110.434 13.2263C110.962 13.6262 111.307 14.0188 111.492 14.4059C111.702 14.8467 111.696 15.2673 111.533 15.6365C111.376 15.9927 111.084 16.2749 110.767 16.4867C110.539 16.6384 110.288 16.7608 110.037 16.854C110.211 17.4805 110.22 18.0182 110.081 18.4685C109.919 18.9962 109.567 19.3666 109.129 19.6018C108.362 20.0145 107.323 20.021 106.453 19.7994C106.227 20.3396 105.946 20.7593 105.604 21.0595C105.203 21.4126 104.737 21.5859 104.231 21.6095C103.298 21.6531 102.248 21.1885 101.177 20.4863C98.7282 22.3689 95.8567 22.8534 93.8183 22.8534C91.9521 22.8534 90.3854 22.8629 88.6704 22.8678C86.9345 22.8727 85.0489 22.8729 82.5531 22.8534L82.5581 22.2305C85.0511 22.2499 86.9343 22.2497 88.6686 22.2448C89.6687 22.242 90.6201 22.2377 91.6105 22.2345C91.9897 22.6169 92.5153 22.8537 93.0963 22.8537C93.6918 22.8537 94.2287 22.6044 94.6097 22.2051C96.5198 22.0849 98.9221 21.5043 100.967 19.8595L101.146 19.715L101.337 19.8444C102.456 20.6046 103.43 21.0234 104.201 20.9873C104.575 20.9699 104.904 20.8458 105.193 20.5916C105.487 20.3331 105.755 19.9255 105.972 19.317L106.074 19.0314L106.362 19.1257C107.185 19.3947 108.183 19.4033 108.834 19.053C109.149 18.8838 109.378 18.6346 109.486 18.2855C109.595 17.9296 109.589 17.433 109.355 16.7557L109.247 16.4438L109.565 16.3543C109.857 16.272 110.163 16.1403 110.421 15.9686C110.681 15.7953 110.87 15.5952 110.963 15.3849C111.05 15.1874 111.064 14.9566 110.929 14.6739C110.789 14.3787 110.481 14.0182 109.9 13.6065L109.718 13.4772L109.781 13.2633C109.93 12.7645 109.935 12.2368 109.69 11.9083C109.466 11.6084 108.921 11.3389 107.623 11.6174L107.384 11.6687L107.277 11.4487C106.945 10.7622 106.209 10.0336 105.297 9.79876C104.418 9.57215 103.308 9.78909 102.161 11.1151L101.894 11.4233L101.667 11.0849C101.255 10.4715 100.736 9.97541 100.156 9.82892C99.6095 9.69102 98.9108 9.84155 98.0645 10.7485L97.6763 11.1646L97.535 10.6133C97.3375 9.8426 96.6954 9.22493 95.9145 9.05235C95.1536 8.88421 94.2156 9.1321 93.4085 10.1907L93.1805 10.4901L92.9291 10.21C92.5754 9.81597 92.0074 9.53603 91.4765 9.59939C90.9808 9.6586 90.4073 10.0339 90.0508 11.1857L89.9902 11.3821L89.7861 11.4034C88.9901 11.4874 88.5832 11.8186 88.4497 12.169C88.3154 12.5215 88.4054 13.0297 88.9012 13.5811L89.0772 13.7767L88.9138 13.9828C88.6218 14.3515 88.3181 14.9016 88.282 15.3766C88.2647 15.6041 88.3097 15.7942 88.4258 15.9465C88.5432 16.1004 88.7632 16.2552 89.1714 16.351L89.0291 16.9574C88.5269 16.8395 88.1607 16.6262 87.9305 16.3243C87.6991 16.0209 87.6351 15.6673 87.6608 15.3293C87.7031 14.7734 87.9906 14.2084 88.2739 13.8005C87.81 13.1971 87.6451 12.5316 87.8677 11.9472C88.0973 11.3445 88.6945 10.9445 89.5191 10.8109C89.9326 9.63738 90.6274 9.07351 91.4029 8.98095C92.0498 8.90376 92.6789 9.16658 93.1333 9.54534Z" fill="black"/>
<path d="M69.3749 39.3047C69.3749 39.4557 69.5054 39.5312 69.7663 39.5312H75.6376C75.8986 39.5312 76.029 39.4557 76.029 39.3047C76.029 39.1537 75.916 39.0713 75.6898 39.0576L74.5155 38.9134C74.185 38.8722 73.9502 38.8036 73.811 38.7074C73.6892 38.5976 73.6283 38.3985 73.6283 38.1102V33.0851C73.6283 32.8654 73.6544 32.6732 73.7066 32.5084C73.7588 32.33 73.8458 32.1446 73.9676 31.9524L77.386 26.536C77.6817 26.0829 77.9165 25.7603 78.0905 25.568C79.2599 24.276 80.9527 22.9282 82.5531 22.8534L82.5581 22.2305C78.9664 21.8874 77.4156 25.0447 76.5248 26.5154L73.4457 31.4787C73.3761 31.5748 73.2891 31.6229 73.1847 31.6229C73.0803 31.6229 72.9934 31.5748 72.9238 31.4787L69.7141 26.0829C69.5402 25.7946 69.5141 25.5818 69.6359 25.4445C69.7576 25.3072 69.9664 25.2317 70.2621 25.2179L70.7579 25.1767C71.0537 25.163 71.2015 25.0806 71.2015 24.9296C71.2015 24.7786 71.0798 24.7031 70.8362 24.7031H66.374C66.1131 24.7031 65.9826 24.7717 65.9826 24.909C65.9826 25.0463 66.1044 25.1355 66.3479 25.1767L66.5828 25.2179C66.8785 25.2729 67.1047 25.3621 67.2612 25.4857C67.4178 25.6092 67.557 25.7877 67.6788 26.0211L71.5147 32.3643C71.6886 32.6526 71.7756 32.9478 71.7756 33.2499V38.1102C71.7756 38.3985 71.7147 38.5976 71.5929 38.7074C71.4712 38.8036 71.2363 38.8722 70.8884 38.9134L69.7141 39.0576C69.488 39.0713 69.3749 39.1537 69.3749 39.3047Z" fill="black"/>
<path d="M64.1409 39.7166C63.8626 39.7166 63.6277 39.5518 63.4364 39.2223L56.3647 27.1126C56.3125 27.0165 56.2429 26.9753 56.156 26.9891C56.0864 27.0028 56.0516 27.0646 56.0516 27.1744V37.7601C56.0516 38.1445 56.1299 38.4397 56.2864 38.6457C56.4604 38.8379 56.7648 38.9614 57.1997 39.0164L57.539 39.0576C57.7651 39.0713 57.8782 39.1537 57.8782 39.3047C57.8782 39.4557 57.7477 39.5312 57.4868 39.5312H53.7552C53.4943 39.5312 53.3638 39.4557 53.3638 39.3047C53.3638 39.1537 53.4769 39.0713 53.7031 39.0576L54.0423 39.0164C54.4946 38.9614 54.8077 38.8379 54.9817 38.6457C55.1557 38.4397 55.2426 38.1445 55.2426 37.7601V26.0623C55.2426 25.774 55.1818 25.5818 55.06 25.4857C54.9556 25.3896 54.7034 25.314 54.3032 25.2591L53.7031 25.1767C53.4769 25.1356 53.3638 25.0532 53.3638 24.9296C53.3638 24.7786 53.4943 24.7031 53.7552 24.7031H56.5474C56.9823 24.7031 57.2867 24.8541 57.4607 25.1561L63.619 35.8448C63.6712 35.9272 63.7321 35.9615 63.8017 35.9478C63.8887 35.934 63.9322 35.886 63.9322 35.8036V26.4742C63.9322 26.0349 63.8365 25.7328 63.6451 25.568C63.4537 25.3896 63.2102 25.2797 62.9145 25.2385L62.4448 25.1767C62.2186 25.1356 62.1055 25.0532 62.1055 24.9296C62.1055 24.7786 62.236 24.7031 62.4969 24.7031H66.2285C66.4894 24.7031 66.6199 24.7786 66.6199 24.9296C66.6199 25.0806 66.5068 25.163 66.2807 25.1767L65.9414 25.2179C65.4891 25.2728 65.176 25.3896 65.002 25.568C64.8281 25.7328 64.7411 26.0349 64.7411 26.4742V39.0576C64.7411 39.3047 64.6802 39.4763 64.5584 39.5724C64.454 39.6685 64.3149 39.7166 64.1409 39.7166Z" fill="black"/>
<path fill-rule="evenodd" clip-rule="evenodd" d="M82.0657 38.7692C83.0399 39.4008 84.2315 39.7166 85.6406 39.7166C86.3539 39.7166 86.9802 39.6617 87.5194 39.5518C88.0587 39.4557 88.5371 39.3253 88.9546 39.1605C89.2156 39.0507 89.3983 38.9546 89.5026 38.8722C89.607 38.7761 89.6592 38.6525 89.6592 38.5015V32.9204C89.6592 32.632 89.694 32.4261 89.7636 32.3025C89.4351 32.3025 88.891 32.1915 88.3732 32.0859C88.0899 32.0281 87.8144 31.9719 87.5865 31.9364C86.8398 31.8201 86.5277 31.8795 86.9193 32.0966C87.2846 32.124 87.5194 32.1927 87.6238 32.3025C87.7456 32.4124 87.8065 32.6114 87.8065 32.8998V37.41C87.8065 38.0828 87.6238 38.5427 87.2585 38.7898C86.8932 39.037 86.3539 39.1605 85.6406 39.1605C84.3185 39.1605 83.2312 38.5564 82.3788 37.3482C81.5438 36.1263 81.1263 34.3551 81.1263 32.0348C81.1263 29.7831 81.5351 28.0669 82.3527 26.8861C83.1877 25.6916 84.2402 25.0944 85.5102 25.0944C86.3626 25.0944 87.0323 25.3072 87.5194 25.7328C88.0065 26.1584 88.4415 26.941 88.8242 28.0806L89.0329 28.6984C89.0851 28.8769 89.2069 28.9662 89.3983 28.9662C89.607 28.9662 89.7114 28.8495 89.7114 28.6161L89.6331 25.4857C89.6331 25.2935 89.52 25.1493 89.2939 25.0532C88.8764 24.8884 88.3893 24.758 87.8326 24.6619C87.2759 24.552 86.6583 24.4971 85.9799 24.4971C84.6403 24.4971 83.4487 24.8129 82.4049 25.4445C81.3785 26.0623 80.5696 26.941 79.9781 28.0806C79.3866 29.2064 79.0909 30.5245 79.0909 32.0348C79.0909 33.6 79.3431 34.9592 79.8476 36.1125C80.3521 37.2521 81.0915 38.1377 82.0657 38.7692Z" fill="black"/>
<path fill-rule="evenodd" clip-rule="evenodd" d="M100.342 37.573C100.938 38.4715 101.699 38.9886 102.625 39.1243C102.716 39.3361 103.08 39.7744 103.079 39.8428C102.879 39.7763 102.467 39.7152 102.254 39.657C102.118 39.6196 101.989 39.5844 101.882 39.5518C100.977 39.3184 100.16 38.8516 99.4292 38.1514C99.1389 37.8608 98.8731 37.543 98.6318 37.1978C99.1195 37.3452 100.144 37.6266 100.342 37.573ZM99.1943 32.0966C99.1943 34.0188 99.4222 35.5454 99.8779 36.6763C99.7347 36.668 98.5323 36.2302 97.949 36.0124C97.8731 35.8511 97.8011 35.6854 97.733 35.5153C97.3329 34.4718 97.1329 33.3322 97.1329 32.0966C97.1329 31.0256 97.2807 30.0302 97.5765 29.1103C97.8896 28.1904 98.3158 27.3873 98.8551 26.7008C99.4118 26.0005 100.055 25.4582 100.786 25.0738C101.517 24.6893 102.3 24.4971 103.135 24.4971C103.97 24.4971 104.744 24.6893 105.457 25.0738C106.188 25.4582 106.831 26.0005 107.388 26.7008C107.945 27.3873 108.371 28.1904 108.667 29.1103C108.98 30.0302 109.136 31.0256 109.136 32.0966C109.136 33.3597 108.919 34.5267 108.484 35.5977C108.067 36.6549 107.484 37.5336 106.736 38.2338C106.145 38.7998 105.486 39.2043 104.759 39.4474C104.618 39.3138 104.331 39.0283 104.31 38.9548C105 38.6918 105.574 38.1769 106.031 37.41C106.727 36.243 107.075 34.4718 107.075 32.0966C107.075 29.7213 106.727 27.957 106.031 26.8037C105.335 25.6367 104.37 25.0532 103.135 25.0532C101.917 25.0532 100.951 25.6367 100.238 26.8037C99.5423 27.957 99.1943 29.7213 99.1943 32.0966Z" fill="black"/>
<path d="M84.5915 32.9204C85.0245 32.4535 86.3889 31.4977 88.1045 31.6954C90.2489 31.9425 95.7634 35.4998 97.4748 36.4543C97.7139 36.5877 98.0311 36.7222 98.4005 36.8466C98.9098 37.018 99.5186 37.17 100.16 37.273C100.656 37.3527 101.172 37.403 101.676 37.41C101.738 37.4109 101.8 37.4112 101.861 37.4111C101.774 37.308 101.684 37.2043 101.592 37.0996C101.026 37.1015 100.485 37.031 99.9829 36.9209C99.2536 36.7611 98.607 36.5178 98.0869 36.2923C97.8569 36.1926 97.6516 36.0964 97.4748 36.0124C96.1455 35.3808 90.9659 31.9249 88.6345 31.5405C86.7693 31.233 84.9622 32.2796 84.5915 32.9204Z" fill="black"/>
<path d="M102.536 37.3876C102.455 37.2847 102.369 37.1747 102.28 37.0606C102.047 37.0865 101.818 37.0988 101.592 37.0996C101.684 37.2043 101.774 37.308 101.861 37.4111C102.095 37.4107 102.32 37.403 102.536 37.3876Z" fill="black"/>
<path d="M103.949 39.0668C103.692 39.1293 103.42 39.1605 103.135 39.1605C103.097 39.1605 103.059 39.16 103.022 39.1588C103.084 39.3229 103.134 39.346 103.27 39.5803C103.406 39.8146 103.838 40.3769 104.014 40.7597C104.358 41.5065 104.799 42.0586 105.338 42.4157C105.877 42.7729 106.448 42.9933 107.049 43.0768C107.671 43.1716 108.239 43.1831 108.753 43.1116C109.352 43.0282 109.836 42.8982 110.202 42.7217C110.589 42.5563 110.902 42.3734 111.14 42.173C111.256 42.0593 111.303 41.9551 111.282 41.8604C111.258 41.7523 111.183 41.693 111.057 41.6826C110.931 41.6723 110.807 41.7105 110.685 41.7971C110.211 42.1279 109.76 42.2789 109.203 42.4006C108.606 42.5312 108.173 42.6458 107.323 42.4006C106.473 42.1555 106.106 41.834 105.623 41.0927C105.217 40.4712 104.569 39.7362 103.949 39.0668Z" fill="black"/>
<path fill-rule="evenodd" clip-rule="evenodd" d="M106.752 31.8804C107.147 32.9702 107.109 33.9372 106.151 35.444C106.05 35.6028 105.925 35.7546 105.795 35.8906C105.565 36.1318 105.32 36.3232 105.17 36.4158C104.644 36.7401 104.475 36.8216 104.143 36.9634C103.52 37.2304 102.951 37.3582 102.536 37.3876C102.455 37.2847 102.369 37.1747 102.28 37.0606C102.561 37.0293 102.846 36.9782 103.135 36.9035C103.645 36.7712 104.257 36.4328 104.644 36.1649C104.918 35.9751 105.197 35.6271 105.218 35.5977C105.914 34.6467 106.333 33.6328 106.124 32.6989C106.055 32.3924 105.781 31.9858 105.346 31.9338C104.858 31.8757 104.085 32.1251 103.437 32.8998C102.848 31.9364 101.882 31.4737 100.905 31.7671C100.675 31.8359 100.348 32.2842 100.238 32.7646C100.11 33.3272 100.222 34.3724 100.905 35.3893C101.054 35.6115 101.33 35.9327 101.622 36.2732C101.811 36.4932 102.007 36.7212 102.18 36.9359C102.141 36.9479 101.693 36.9612 101.475 36.9663C101.426 36.9114 101.375 36.8544 101.322 36.7957C101.061 36.5031 100.765 36.1721 100.543 35.8906C100.502 35.8388 100.462 35.7881 100.422 35.738C99.7306 34.8687 99.2071 34.2106 99.4292 32.3693C99.5285 31.5457 100.177 31.0336 100.967 30.9198C101.927 30.7814 103.062 31.2224 103.54 32.3025C103.819 31.6814 104.646 31.0989 105.482 31.1078C105.946 31.1127 106.576 31.3933 106.752 31.8804Z" fill="black"/>
<path fill-rule="evenodd" clip-rule="evenodd" d="M103.949 39.0668C103.692 39.1293 103.42 39.1605 103.135 39.1605C103.097 39.1605 103.059 39.16 103.022 39.1588C102.901 38.8411 102.779 38.6665 102.551 38.341C102.483 38.2442 102.406 38.134 102.316 38.0028C102.219 37.8592 102.11 37.7164 101.994 37.573C102.193 37.565 102.602 37.5447 102.647 37.5277C102.719 37.6199 102.786 37.7041 102.844 37.7776C102.919 37.8722 102.98 37.9491 103.022 38.0028C103.368 38.4439 103.693 38.7924 103.882 38.9955C103.907 39.0217 103.929 39.0455 103.949 39.0668Z" fill="black"/>
<circle cx="90.6827" cy="24.2582" r="1" stroke="black" stroke-width="0.505019"/>
<circle cx="90.6827" cy="24.2582" r="1" stroke="black" stroke-width="0.505019"/>
<path d="M94.4526 20.7614C94.4526 20.0122 93.8455 19.4048 93.0963 19.4048C92.3472 19.4048 91.7398 20.0122 91.7398 20.7614C91.7398 21.5105 92.3472 22.1177 93.0963 22.1177V22.6325L93 22.6303C92.0432 22.5818 91.276 21.8145 91.2274 20.8576L91.2249 20.7614C91.2249 19.7278 92.0628 18.8899 93.0963 18.8899L93.1926 18.8925C94.1814 18.9426 94.9675 19.7602 94.9675 20.7614L94.9652 20.8576C94.9151 21.8464 94.0975 22.6325 93.0963 22.6325V22.1177C93.8454 22.1176 94.4526 21.5105 94.4526 20.7614Z" fill="black"/>
<path d="M94.4526 20.7614C94.4526 20.0122 93.8455 19.4048 93.0963 19.4048C92.3472 19.4048 91.7398 20.0122 91.7398 20.7614C91.7398 21.5105 92.3472 22.1177 93.0963 22.1177V22.6325L93 22.6303C92.0432 22.5818 91.276 21.8145 91.2274 20.8576L91.2249 20.7614C91.2249 19.7278 92.0628 18.8899 93.0963 18.8899L93.1926 18.8925C94.1814 18.9426 94.9675 19.7602 94.9675 20.7614L94.9652 20.8576C94.9151 21.8464 94.0975 22.6325 93.0963 22.6325V22.1177C93.8454 22.1176 94.4526 21.5105 94.4526 20.7614Z" fill="black"/>
<path d="M119.419 78.686C119.614 78.4908 119.614 78.1742 119.419 77.9789L116.237 74.797C116.042 74.6017 115.725 74.6017 115.53 74.797C115.335 74.9922 115.335 75.3088 115.53 75.5041L118.358 78.3325L115.53 81.1609C115.335 81.3562 115.335 81.6728 115.53 81.868C115.725 82.0633 116.042 82.0633 116.237 81.868L119.419 78.686ZM78.3287 125.365C78.3287 125.641 78.5525 125.865 78.8287 125.865H83.3287C83.6048 125.865 83.8287 125.641 83.8287 125.365C83.8287 125.089 83.6048 124.865 83.3287 124.865H79.3287L79.3287 120.865C79.3287 120.589 79.1048 120.365 78.8287 120.365C78.5525 120.365 78.3287 120.589 78.3287 120.865L78.3287 125.365ZM122.996 131.977C123.191 131.782 123.191 131.466 122.996 131.27L119.814 128.088C119.618 127.893 119.302 127.893 119.107 128.088C118.911 128.284 118.911 128.6 119.107 128.795L121.935 131.624L119.107 134.452C118.911 134.648 118.911 134.964 119.107 135.159C119.302 135.355 119.618 135.355 119.814 135.159L122.996 131.977ZM75.4309 78.3325V78.8325H119.065V78.3325V77.8325H75.4309V78.3325ZM122.642 81.5514L122.288 81.1979L78.4751 125.011L78.8287 125.365L79.1822 125.718L122.996 81.905L122.642 81.5514ZM75.4309 131.624C75.4309 132.124 75.431 132.124 75.4312 132.124C75.4315 132.124 75.4318 132.124 75.4322 132.124C75.4327 132.124 75.4332 132.124 75.4339 132.124C75.4345 132.124 75.4353 132.124 75.4362 132.124C75.437 132.124 75.438 132.124 75.4391 132.124C75.4402 132.124 75.4414 132.124 75.4427 132.124C75.444 132.124 75.4454 132.124 75.4469 132.124C75.4485 132.124 75.4501 132.124 75.4518 132.124C75.4536 132.124 75.4554 132.124 75.4574 132.124C75.4593 132.124 75.4614 132.124 75.4635 132.124C75.4657 132.124 75.468 132.124 75.4704 132.124C75.4727 132.124 75.4752 132.124 75.4778 132.124C75.4804 132.124 75.4831 132.124 75.4859 132.124C75.4887 132.124 75.4916 132.124 75.4946 132.124C75.4977 132.124 75.5008 132.124 75.504 132.124C75.5072 132.124 75.5106 132.124 75.514 132.124C75.5175 132.124 75.521 132.124 75.5246 132.124C75.5283 132.124 75.532 132.124 75.5359 132.124C75.5398 132.124 75.5437 132.124 75.5478 132.124C75.5519 132.124 75.556 132.124 75.5603 132.124C75.5646 132.124 75.5689 132.124 75.5734 132.124C75.5779 132.124 75.5825 132.124 75.5872 132.124C75.5919 132.124 75.5967 132.124 75.6016 132.124C75.6065 132.124 75.6115 132.124 75.6166 132.124C75.6217 132.124 75.6269 132.124 75.6322 132.124C75.6375 132.124 75.6429 132.124 75.6484 132.124C75.6539 132.124 75.6595 132.124 75.6652 132.124C75.6709 132.124 75.6768 132.124 75.6827 132.124C75.6886 132.124 75.6946 132.124 75.7007 132.124C75.7069 132.124 75.7131 132.124 75.7194 132.124C75.7257 132.124 75.7322 132.124 75.7387 132.124C75.7452 132.124 75.7518 132.124 75.7586 132.124C75.7653 132.124 75.7721 132.124 75.779 132.124C75.786 132.124 75.793 132.124 75.8001 132.124C75.8072 132.124 75.8145 132.124 75.8218 132.124C75.8291 132.124 75.8366 132.124 75.8441 132.124C75.8516 132.124 75.8592 132.124 75.8669 132.124C75.8747 132.124 75.8825 132.124 75.8904 132.124C75.8983 132.124 75.9064 132.124 75.9145 132.124C75.9226 132.124 75.9308 132.124 75.9391 132.124C75.9474 132.124 75.9559 132.124 75.9644 132.124C75.9729 132.124 75.9815 132.124 75.9902 132.124C75.9989 132.124 76.0077 132.124 76.0166 132.124C76.0255 132.124 76.0345 132.124 76.0436 132.124C76.0527 132.124 76.0619 132.124 76.0712 132.124C76.0805 132.124 76.0898 132.124 76.0993 132.124C76.1088 132.124 76.1184 132.124 76.1281 132.124C76.1377 132.124 76.1475 132.124 76.1574 132.124C76.1672 132.124 76.1772 132.124 76.1873 132.124C76.1973 132.124 76.2075 132.124 76.2177 132.124C76.228 132.124 76.2383 132.124 76.2487 132.124C76.2592 132.124 76.2697 132.124 76.2803 132.124C76.291 132.124 76.3017 132.124 76.3125 132.124C76.3233 132.124 76.3342 132.124 76.3452 132.124C76.3562 132.124 76.3673 132.124 76.3785 132.124C76.3897 132.124 76.401 132.124 76.4124 132.124C76.4238 132.124 76.4352 132.124 76.4468 132.124C76.4584 132.124 76.47 132.124 76.4818 132.124C76.4935 132.124 76.5054 132.124 76.5173 132.124C76.5293 132.124 76.5413 132.124 76.5534 132.124C76.5655 132.124 76.5778 132.124 76.5901 132.124C76.6024 132.124 76.6148 132.124 76.6273 132.124C76.6398 132.124 76.6523 132.124 76.665 132.124C76.6777 132.124 76.6904 132.124 76.7033 132.124C76.7162 132.124 76.7291 132.124 76.7421 132.124C76.7552 132.124 76.7683 132.124 76.7815 132.124C76.7948 132.124 76.8081 132.124 76.8215 132.124C76.8349 132.124 76.8484 132.124 76.8619 132.124C76.8755 132.124 76.8892 132.124 76.9029 132.124C76.9167 132.124 76.9306 132.124 76.9445 132.124C76.9584 132.124 76.9725 132.124 76.9866 132.124C77.0007 132.124 77.0149 132.124 77.0292 132.124C77.0435 132.124 77.0579 132.124 77.0723 132.124C77.0868 132.124 77.1014 132.124 77.116 132.124C77.1307 132.124 77.1454 132.124 77.1602 132.124C77.1751 132.124 77.19 132.124 77.205 132.124C77.22 132.124 77.2351 132.124 77.2503 132.124C77.2654 132.124 77.2807 132.124 77.296 132.124C77.3114 132.124 77.3268 132.124 77.3424 132.124C77.3579 132.124 77.3735 132.124 77.3892 132.124C77.4049 132.124 77.4207 132.124 77.4365 132.124C77.4524 132.124 77.4684 132.124 77.4844 132.124C77.5004 132.124 77.5166 132.124 77.5328 132.124C77.549 132.124 77.5653 132.124 77.5817 132.124C77.5981 132.124 77.6145 132.124 77.6311 132.124C77.6476 132.124 77.6643 132.124 77.681 132.124C77.6977 132.124 77.7145 132.124 77.7314 132.124C77.7483 132.124 77.7653 132.124 77.7824 132.124C77.7994 132.124 77.8166 132.124 77.8338 132.124C77.851 132.124 77.8684 132.124 77.8857 132.124C77.9031 132.124 77.9206 132.124 77.9382 132.124C77.9558 132.124 77.9734 132.124 77.9911 132.124C78.0089 132.124 78.0267 132.124 78.0446 132.124C78.0625 132.124 78.0804 132.124 78.0985 132.124C78.1166 132.124 78.1347 132.124 78.1529 132.124C78.1712 132.124 78.1895 132.124 78.2079 132.124C78.2262 132.124 78.2447 132.124 78.2633 132.124C78.2818 132.124 78.3005 132.124 78.3192 132.124C78.3379 132.124 78.3567 132.124 78.3756 132.124C78.3944 132.124 78.4134 132.124 78.4324 132.124C78.4515 132.124 78.4706 132.124 78.4898 132.124C78.509 132.124 78.5283 132.124 78.5476 132.124C78.567 132.124 78.5864 132.124 78.606 132.124C78.6255 132.124 78.6451 132.124 78.6648 132.124C78.6844 132.124 78.7042 132.124 78.724 132.124C78.7439 132.124 78.7638 132.124 78.7838 132.124C78.8038 132.124 78.8239 132.124 78.844 132.124C78.8642 132.124 78.8844 132.124 78.9047 132.124C78.925 132.124 78.9454 132.124 78.9659 132.124C78.9863 132.124 79.0069 132.124 79.0275 132.124C79.0481 132.124 79.0688 132.124 79.0896 132.124C79.1104 132.124 79.1312 132.124 79.1522 132.124C79.1731 132.124 79.1941 132.124 79.2152 132.124C79.2363 132.124 79.2574 132.124 79.2787 132.124C79.2999 132.124 79.3212 132.124 79.3426 132.124C79.364 132.124 79.3855 132.124 79.407 132.124C79.4286 132.124 79.4502 132.124 79.4719 132.124C79.4936 132.124 79.5154 132.124 79.5372 132.124C79.559 132.124 79.581 132.124 79.603 132.124C79.625 132.124 79.647 132.124 79.6692 132.124C79.6913 132.124 79.7136 132.124 79.7359 132.124C79.7581 132.124 79.7805 132.124 79.803 132.124C79.8254 132.124 79.8479 132.124 79.8705 132.124C79.8931 132.124 79.9158 132.124 79.9385 132.124C79.9613 132.124 79.9841 132.124 80.007 132.124C80.0299 132.124 80.0528 132.124 80.0759 132.124C80.0989 132.124 80.122 132.124 80.1452 132.124C80.1684 132.124 80.1916 132.124 80.2149 132.124C80.2383 132.124 80.2617 132.124 80.2851 132.124C80.3086 132.124 80.3321 132.124 80.3558 132.124C80.3794 132.124 80.4031 132.124 80.4268 132.124C80.4506 132.124 80.4744 132.124 80.4983 132.124C80.5222 132.124 80.5462 132.124 80.5702 132.124C80.5943 132.124 80.6184 132.124 80.6426 132.124C80.6667 132.124 80.691 132.124 80.7153 132.124C80.7396 132.124 80.764 132.124 80.7885 132.124C80.813 132.124 80.8375 132.124 80.8621 132.124C80.8867 132.124 80.9114 132.124 80.9361 132.124C80.9609 132.124 80.9857 132.124 81.0106 132.124C81.0355 132.124 81.0604 132.124 81.0854 132.124C81.1105 132.124 81.1356 132.124 81.1607 132.124C81.1859 132.124 81.2111 132.124 81.2364 132.124C81.2617 132.124 81.2871 132.124 81.3125 132.124C81.3379 132.124 81.3634 132.124 81.389 132.124C81.4146 132.124 81.4402 132.124 81.4659 132.124C81.4916 132.124 81.5174 132.124 81.5432 132.124C81.5691 132.124 81.595 132.124 81.621 132.124C81.6469 132.124 81.673 132.124 81.6991 132.124C81.7252 132.124 81.7514 132.124 81.7776 132.124C81.8038 132.124 81.8301 132.124 81.8565 132.124C81.8829 132.124 81.9093 132.124 81.9358 132.124C81.9623 132.124 81.9889 132.124 82.0155 132.124C82.0422 132.124 82.0689 132.124 82.0957 132.124C82.1224 132.124 82.1493 132.124 82.1761 132.124C82.203 132.124 82.23 132.124 82.257 132.124C82.2841 132.124 82.3111 132.124 82.3383 132.124C82.3655 132.124 82.3927 132.124 82.42 132.124C82.4472 132.124 82.4746 132.124 82.502 132.124C82.5294 132.124 82.5569 132.124 82.5844 132.124C82.612 132.124 82.6396 132.124 82.6672 132.124C82.6949 132.124 82.7226 132.124 82.7504 132.124C82.7782 132.124 82.8061 132.124 82.834 132.124C82.8619 132.124 82.8899 132.124 82.9179 132.124C82.946 132.124 82.9741 132.124 83.0022 132.124C83.0304 132.124 83.0586 132.124 83.0869 132.124C83.1152 132.124 83.1435 132.124 83.172 132.124C83.2004 132.124 83.2288 132.124 83.2574 132.124C83.2859 132.124 83.3145 132.124 83.3432 132.124C83.3718 132.124 83.4005 132.124 83.4293 132.124C83.4581 132.124 83.4869 132.124 83.5158 132.124C83.5447 132.124 83.5737 132.124 83.6027 132.124C83.6317 132.124 83.6608 132.124 83.6899 132.124C83.7191 132.124 83.7483 132.124 83.7775 132.124C83.8068 132.124 83.8361 132.124 83.8655 132.124C83.8949 132.124 83.9243 132.124 83.9538 132.124C83.9833 132.124 84.0128 132.124 84.0424 132.124C84.072 132.124 84.1017 132.124 84.1314 132.124C84.1612 132.124 84.191 132.124 84.2208 132.124C84.2506 132.124 84.2805 132.124 84.3105 132.124C84.3405 132.124 84.3705 132.124 84.4006 132.124C84.4306 132.124 84.4608 132.124 84.4909 132.124C84.5211 132.124 84.5514 132.124 84.5817 132.124C84.612 132.124 84.6423 132.124 84.6728 132.124C84.7032 132.124 84.7336 132.124 84.7642 132.124C84.7947 132.124 84.8253 132.124 84.8559 132.124C84.8866 132.124 84.9173 132.124 84.948 132.124C84.9788 132.124 85.0096 132.124 85.0404 132.124C85.0713 132.124 85.1022 132.124 85.1332 132.124C85.1641 132.124 85.1952 132.124 85.2263 132.124C85.2573 132.124 85.2885 132.124 85.3197 132.124C85.3509 132.124 85.3821 132.124 85.4134 132.124C85.4447 132.124 85.4761 132.124 85.5075 132.124C85.5389 132.124 85.5703 132.124 85.6018 132.124C85.6334 132.124 85.6649 132.124 85.6965 132.124C85.7282 132.124 85.7598 132.124 85.7916 132.124C85.8233 132.124 85.8551 132.124 85.8869 132.124C85.9187 132.124 85.9506 132.124 85.9826 132.124C86.0145 132.124 86.0465 132.124 86.0785 132.124C86.1106 132.124 86.1427 132.124 86.1748 132.124C86.207 132.124 86.2392 132.124 86.2714 132.124C86.3037 132.124 86.336 132.124 86.3683 132.124C86.4007 132.124 86.4331 132.124 86.4655 132.124C86.498 132.124 86.5305 132.124 86.5631 132.124C86.5956 132.124 86.6282 132.124 86.6609 132.124C86.6935 132.124 86.7262 132.124 86.759 132.124C86.7917 132.124 86.8246 132.124 86.8574 132.124C86.8903 132.124 86.9232 132.124 86.9561 132.124C86.9891 132.124 87.0221 132.124 87.0552 132.124C87.0882 132.124 87.1213 132.124 87.1545 132.124C87.1876 132.124 87.2208 132.124 87.2541 132.124C87.2873 132.124 87.3206 132.124 87.354 132.124C87.3873 132.124 87.4207 132.124 87.4541 132.124C87.4876 132.124 87.5211 132.124 87.5546 132.124C87.5882 132.124 87.6217 132.124 87.6554 132.124C87.689 132.124 87.7227 132.124 87.7564 132.124C87.7902 132.124 87.8239 132.124 87.8578 132.124C87.8916 132.124 87.9254 132.124 87.9594 132.124C87.9933 132.124 88.0272 132.124 88.0612 132.124C88.0953 132.124 88.1293 132.124 88.1634 132.124C88.1975 132.124 88.2317 132.124 88.2659 132.124C88.3 132.124 88.3343 132.124 88.3686 132.124C88.4029 132.124 88.4372 132.124 88.4716 132.124C88.5059 132.124 88.5403 132.124 88.5748 132.124C88.6093 132.124 88.6438 132.124 88.6783 132.124C88.7129 132.124 88.7475 132.124 88.7821 132.124C88.8168 132.124 88.8515 132.124 88.8862 132.124C88.9209 132.124 88.9557 132.124 88.9905 132.124C89.0253 132.124 89.0602 132.124 89.0951 132.124C89.13 132.124 89.1649 132.124 89.1999 132.124C89.2349 132.124 89.27 132.124 89.305 132.124C89.3401 132.124 89.3752 132.124 89.4104 132.124C89.4456 132.124 89.4808 132.124 89.516 132.124C89.5513 132.124 89.5865 132.124 89.6219 132.124C89.6572 132.124 89.6926 132.124 89.728 132.124C89.7634 132.124 89.7989 132.124 89.8344 132.124C89.8698 132.124 89.9054 132.124 89.941 132.124C89.9765 132.124 90.0122 132.124 90.0478 132.124C90.0835 132.124 90.1192 132.124 90.1549 132.124C90.1907 132.124 90.2265 132.124 90.2623 132.124C90.2981 132.124 90.334 132.124 90.3699 132.124C90.4058 132.124 90.4417 132.124 90.4777 132.124C90.5137 132.124 90.5497 132.124 90.5858 132.124C90.6218 132.124 90.6579 132.124 90.694 132.124C90.7302 132.124 90.7664 132.124 90.8026 132.124C90.8388 132.124 90.8751 132.124 90.9113 132.124C90.9476 132.124 90.984 132.124 91.0203 132.124C91.0567 132.124 91.0931 132.124 91.1296 132.124C91.166 132.124 91.2025 132.124 91.239 132.124C91.2755 132.124 91.3121 132.124 91.3487 132.124C91.3853 132.124 91.4219 132.124 91.4586 132.124C91.4953 132.124 91.532 132.124 91.5687 132.124C91.6054 132.124 91.6422 132.124 91.679 132.124C91.7159 132.124 91.7527 132.124 91.7896 132.124C91.8265 132.124 91.8634 132.124 91.9004 132.124C91.9373 132.124 91.9743 132.124 92.0114 132.124C92.0484 132.124 92.0855 132.124 92.1226 132.124C92.1597 132.124 92.1968 132.124 92.234 132.124C92.2711 132.124 92.3084 132.124 92.3456 132.124C92.3828 132.124 92.4201 132.124 92.4574 132.124C92.4947 132.124 92.5321 132.124 92.5695 132.124C92.6068 132.124 92.6443 132.124 92.6817 132.124C92.7191 132.124 92.7566 132.124 92.7941 132.124C92.8317 132.124 92.8692 132.124 92.9068 132.124C92.9444 132.124 92.982 132.124 93.0196 132.124C93.0573 132.124 93.0949 132.124 93.1327 132.124C93.1704 132.124 93.2081 132.124 93.2459 132.124C93.2837 132.124 93.3215 132.124 93.3593 132.124C93.3972 132.124 93.435 132.124 93.4729 132.124C93.5108 132.124 93.5488 132.124 93.5867 132.124C93.6247 132.124 93.6627 132.124 93.7007 132.124C93.7388 132.124 93.7768 132.124 93.8149 132.124C93.853 132.124 93.8911 132.124 93.9293 132.124C93.9674 132.124 94.0056 132.124 94.0438 132.124C94.082 132.124 94.1203 132.124 94.1586 132.124C94.1968 132.124 94.2351 132.124 94.2735 132.124C94.3118 132.124 94.3502 132.124 94.3886 132.124C94.427 132.124 94.4654 132.124 94.5038 132.124C94.5423 132.124 94.5808 132.124 94.6193 132.124C94.6578 132.124 94.6963 132.124 94.7349 132.124C94.7734 132.124 94.812 132.124 94.8507 132.124C94.8893 132.124 94.9279 132.124 94.9666 132.124C95.0053 132.124 95.044 132.124 95.0827 132.124C95.1215 132.124 95.1602 132.124 95.199 132.124C95.2378 132.124 95.2766 132.124 95.3155 132.124C95.3543 132.124 95.3932 132.124 95.4321 132.124C95.471 132.124 95.5099 132.124 95.5488 132.124C95.5878 132.124 95.6268 132.124 95.6658 132.124C95.7048 132.124 95.7438 132.124 95.7829 132.124C95.8219 132.124 95.861 132.124 95.9001 132.124C95.9392 132.124 95.9783 132.124 96.0175 132.124C96.0566 132.124 96.0958 132.124 96.135 132.124C96.1742 132.124 96.2135 132.124 96.2527 132.124C96.292 132.124 96.3313 132.124 96.3706 132.124C96.4099 132.124 96.4492 132.124 96.4886 132.124C96.5279 132.124 96.5673 132.124 96.6067 132.124C96.6461 132.124 96.6855 132.124 96.725 132.124C96.7644 132.124 96.8039 132.124 96.8434 132.124C96.8829 132.124 96.9224 132.124 96.9619 132.124C97.0015 132.124 97.041 132.124 97.0806 132.124C97.1202 132.124 97.1598 132.124 97.1995 132.124C97.2391 132.124 97.2788 132.124 97.3184 132.124C97.3581 132.124 97.3978 132.124 97.4375 132.124C97.4772 132.124 97.517 132.124 97.5568 132.124C97.5965 132.124 97.6363 132.124 97.6761 132.124C97.7159 132.124 97.7557 132.124 97.7956 132.124C97.8354 132.124 97.8753 132.124 97.9152 132.124C97.9551 132.124 97.995 132.124 98.0349 132.124C98.0749 132.124 98.1148 132.124 98.1548 132.124C98.1948 132.124 98.2348 132.124 98.2748 132.124C98.3148 132.124 98.3548 132.124 98.3949 132.124C98.4349 132.124 98.475 132.124 98.5151 132.124C98.5552 132.124 98.5953 132.124 98.6354 132.124C98.6755 132.124 98.7157 132.124 98.7558 132.124C98.796 132.124 98.8362 132.124 98.8764 132.124C98.9166 132.124 98.9568 132.124 98.997 132.124C99.0373 132.124 99.0775 132.124 99.1178 132.124C99.1581 132.124 99.1984 132.124 99.2387 132.124C99.279 132.124 99.3193 132.124 99.3596 132.124C99.4 132.124 99.4403 132.124 99.4807 132.124C99.5211 132.124 99.5615 132.124 99.6019 132.124C99.6423 132.124 99.6827 132.124 99.7232 132.124C99.7636 132.124 99.8041 132.124 99.8446 132.124C99.885 132.124 99.9255 132.124 99.966 132.124C100.007 132.124 100.047 132.124 100.088 132.124C100.128 132.124 100.169 132.124 100.209 132.124C100.25 132.124 100.29 132.124 100.331 132.124C100.372 132.124 100.412 132.124 100.453 132.124C100.493 132.124 100.534 132.124 100.575 132.124C100.615 132.124 100.656 132.124 100.697 132.124C100.737 132.124 100.778 132.124 100.819 132.124C100.86 132.124 100.9 132.124 100.941 132.124C100.982 132.124 101.023 132.124 101.063 132.124C101.104 132.124 101.145 132.124 101.186 132.124C101.226 132.124 101.267 132.124 101.308 132.124C101.349 132.124 101.39 132.124 101.431 132.124C101.471 132.124 101.512 132.124 101.553 132.124C101.594 132.124 101.635 132.124 101.676 132.124C101.717 132.124 101.757 132.124 101.798 132.124C101.839 132.124 101.88 132.124 101.921 132.124C101.962 132.124 102.003 132.124 102.044 132.124C102.085 132.124 102.126 132.124 102.167 132.124C102.208 132.124 102.249 132.124 102.29 132.124C102.331 132.124 102.372 132.124 102.413 132.124C102.454 132.124 102.495 132.124 102.536 132.124C102.577 132.124 102.618 132.124 102.659 132.124C102.7 132.124 102.741 132.124 102.782 132.124C102.823 132.124 102.864 132.124 102.905 132.124C102.947 132.124 102.988 132.124 103.029 132.124C103.07 132.124 103.111 132.124 103.152 132.124C103.193 132.124 103.234 132.124 103.276 132.124C103.317 132.124 103.358 132.124 103.399 132.124C103.44 132.124 103.481 132.124 103.522 132.124C103.564 132.124 103.605 132.124 103.646 132.124C103.687 132.124 103.728 132.124 103.77 132.124C103.811 132.124 103.852 132.124 103.893 132.124C103.934 132.124 103.976 132.124 104.017 132.124C104.058 132.124 104.099 132.124 104.14 132.124C104.182 132.124 104.223 132.124 104.264 132.124C104.305 132.124 104.347 132.124 104.388 132.124C104.429 132.124 104.47 132.124 104.512 132.124C104.553 132.124 104.594 132.124 104.636 132.124C104.677 132.124 104.718 132.124 104.759 132.124C104.801 132.124 104.842 132.124 104.883 132.124C104.925 132.124 104.966 132.124 105.007 132.124C105.048 132.124 105.09 132.124 105.131 132.124C105.172 132.124 105.214 132.124 105.255 132.124C105.296 132.124 105.338 132.124 105.379 132.124C105.42 132.124 105.462 132.124 105.503 132.124C105.544 132.124 105.586 132.124 105.627 132.124C105.668 132.124 105.709 132.124 105.751 132.124C105.792 132.124 105.833 132.124 105.875 132.124C105.916 132.124 105.958 132.124 105.999 132.124C106.04 132.124 106.082 132.124 106.123 132.124C106.164 132.124 106.206 132.124 106.247 132.124C106.288 132.124 106.33 132.124 106.371 132.124C106.412 132.124 106.454 132.124 106.495 132.124C106.536 132.124 106.578 132.124 106.619 132.124C106.66 132.124 106.702 132.124 106.743 132.124C106.784 132.124 106.826 132.124 106.867 132.124C106.908 132.124 106.95 132.124 106.991 132.124C107.032 132.124 107.074 132.124 107.115 132.124C107.156 132.124 107.198 132.124 107.239 132.124C107.28 132.124 107.322 132.124 107.363 132.124C107.404 132.124 107.446 132.124 107.487 132.124C107.528 132.124 107.57 132.124 107.611 132.124C107.652 132.124 107.694 132.124 107.735 132.124C107.776 132.124 107.818 132.124 107.859 132.124C107.9 132.124 107.942 132.124 107.983 132.124C108.024 132.124 108.066 132.124 108.107 132.124C108.148 132.124 108.19 132.124 108.231 132.124C108.272 132.124 108.313 132.124 108.355 132.124C108.396 132.124 108.437 132.124 108.479 132.124C108.52 132.124 108.561 132.124 108.602 132.124C108.644 132.124 108.685 132.124 108.726 132.124C108.767 132.124 108.809 132.124 108.85 132.124C108.891 132.124 108.932 132.124 108.974 132.124C109.015 132.124 109.056 132.124 109.097 132.124C109.139 132.124 109.18 132.124 109.221 132.124C109.262 132.124 109.303 132.124 109.345 132.124C109.386 132.124 109.427 132.124 109.468 132.124C109.509 132.124 109.551 132.124 109.592 132.124C109.633 132.124 109.674 132.124 109.715 132.124C109.756 132.124 109.798 132.124 109.839 132.124C109.88 132.124 109.921 132.124 109.962 132.124C110.003 132.124 110.044 132.124 110.085 132.124C110.127 132.124 110.168 132.124 110.209 132.124C110.25 132.124 110.291 132.124 110.332 132.124C110.373 132.124 110.414 132.124 110.455 132.124C110.496 132.124 110.537 132.124 110.578 132.124C110.619 132.124 110.66 132.124 110.701 132.124C110.742 132.124 110.784 132.124 110.825 132.124C110.866 132.124 110.907 132.124 110.947 132.124C110.988 132.124 111.029 132.124 111.07 132.124C111.111 132.124 111.152 132.124 111.193 132.124C111.234 132.124 111.275 132.124 111.316 132.124C111.357 132.124 111.398 132.124 111.439 132.124C111.48 132.124 111.521 132.124 111.561 132.124C111.602 132.124 111.643 132.124 111.684 132.124C111.725 132.124 111.766 132.124 111.807 132.124C111.847 132.124 111.888 132.124 111.929 132.124C111.97 132.124 112.011 132.124 112.051 132.124C112.092 132.124 112.133 132.124 112.174 132.124C112.214 132.124 112.255 132.124 112.296 132.124C112.337 132.124 112.377 132.124 112.418 132.124C112.459 132.124 112.499 132.124 112.54 132.124C112.581 132.124 112.621 132.124 112.662 132.124C112.703 132.124 112.743 132.124 112.784 132.124C112.824 132.124 112.865 132.124 112.906 132.124C112.946 132.124 112.987 132.124 113.027 132.124C113.068 132.124 113.108 132.124 113.149 132.124C113.189 132.124 113.23 132.124 113.27 132.124C113.311 132.124 113.351 132.124 113.392 132.124C113.432 132.124 113.473 132.124 113.513 132.124C113.553 132.124 113.594 132.124 113.634 132.124C113.675 132.124 113.715 132.124 113.755 132.124C113.796 132.124 113.836 132.124 113.876 132.124C113.917 132.124 113.957 132.124 113.997 132.124C114.038 132.124 114.078 132.124 114.118 132.124C114.158 132.124 114.199 132.124 114.239 132.124C114.279 132.124 114.319 132.124 114.359 132.124C114.4 132.124 114.44 132.124 114.48 132.124C114.52 132.124 114.56 132.124 114.6 132.124C114.64 132.124 114.68 132.124 114.72 132.124C114.761 132.124 114.801 132.124 114.841 132.124C114.881 132.124 114.921 132.124 114.961 132.124C115.001 132.124 115.041 132.124 115.081 132.124C115.12 132.124 115.16 132.124 115.2 132.124C115.24 132.124 115.28 132.124 115.32 132.124C115.36 132.124 115.4 132.124 115.44 132.124C115.479 132.124 115.519 132.124 115.559 132.124C115.599 132.124 115.638 132.124 115.678 132.124C115.718 132.124 115.758 132.124 115.797 132.124C115.837 132.124 115.877 132.124 115.916 132.124C115.956 132.124 115.996 132.124 116.035 132.124C116.075 132.124 116.114 132.124 116.154 132.124C116.194 132.124 116.233 132.124 116.273 132.124C116.312 132.124 116.352 132.124 116.391 132.124C116.43 132.124 116.47 132.124 116.509 132.124C116.549 132.124 116.588 132.124 116.628 132.124C116.667 132.124 116.706 132.124 116.746 132.124C116.785 132.124 116.824 132.124 116.863 132.124C116.903 132.124 116.942 132.124 116.981 132.124C117.02 132.124 117.06 132.124 117.099 132.124C117.138 132.124 117.177 132.124 117.216 132.124C117.255 132.124 117.295 132.124 117.334 132.124C117.373 132.124 117.412 132.124 117.451 132.124C117.49 132.124 117.529 132.124 117.568 132.124C117.607 132.124 117.646 132.124 117.685 132.124C117.723 132.124 117.762 132.124 117.801 132.124C117.84 132.124 117.879 132.124 117.918 132.124C117.957 132.124 117.995 132.124 118.034 132.124C118.073 132.124 118.112 132.124 118.15 132.124C118.189 132.124 118.228 132.124 118.266 132.124C118.305 132.124 118.343 132.124 118.382 132.124C118.421 132.124 118.459 132.124 118.498 132.124C118.536 132.124 118.575 132.124 118.613 132.124C118.652 132.124 118.69 132.124 118.729 132.124C118.767 132.124 118.805 132.124 118.844 132.124C118.882 132.124 118.92 132.124 118.959 132.124C118.997 132.124 119.035 132.124 119.073 132.124C119.112 132.124 119.15 132.124 119.188 132.124C119.226 132.124 119.264 132.124 119.303 132.124C119.341 132.124 119.379 132.124 119.417 132.124C119.455 132.124 119.493 132.124 119.531 132.124C119.569 132.124 119.607 132.124 119.645 132.124C119.683 132.124 119.721 132.124 119.758 132.124C119.796 132.124 119.834 132.124 119.872 132.124C119.91 132.124 119.947 132.124 119.985 132.124C120.023 132.124 120.061 132.124 120.098 132.124C120.136 132.124 120.174 132.124 120.211 132.124C120.249 132.124 120.286 132.124 120.324 132.124C120.361 132.124 120.399 132.124 120.436 132.124C120.474 132.124 120.511 132.124 120.549 132.124C120.586 132.124 120.624 132.124 120.661 132.124C120.698 132.124 120.736 132.124 120.773 132.124C120.81 132.124 120.847 132.124 120.884 132.124C120.922 132.124 120.959 132.124 120.996 132.124C121.033 132.124 121.07 132.124 121.107 132.124C121.144 132.124 121.181 132.124 121.218 132.124C121.255 132.124 121.292 132.124 121.329 132.124C121.366 132.124 121.403 132.124 121.44 132.124C121.477 132.124 121.513 132.124 121.55 132.124C121.587 132.124 121.624 132.124 121.66 132.124C121.697 132.124 121.734 132.124 121.77 132.124C121.807 132.124 121.844 132.124 121.88 132.124C121.917 132.124 121.953 132.124 121.99 132.124C122.026 132.124 122.063 132.124 122.099 132.124C122.135 132.124 122.172 132.124 122.208 132.124C122.244 132.124 122.281 132.124 122.317 132.124C122.353 132.124 122.389 132.124 122.426 132.124C122.462 132.124 122.498 132.124 122.534 132.124C122.57 132.124 122.606 132.124 122.642 132.124V131.624V131.124C122.606 131.124 122.57 131.124 122.534 131.124C122.498 131.124 122.462 131.124 122.426 131.124C122.389 131.124 122.353 131.124 122.317 131.124C122.281 131.124 122.244 131.124 122.208 131.124C122.172 131.124 122.135 131.124 122.099 131.124C122.063 131.124 122.026 131.124 121.99 131.124C121.953 131.124 121.917 131.124 121.88 131.124C121.844 131.124 121.807 131.124 121.77 131.124C121.734 131.124 121.697 131.124 121.66 131.124C121.624 131.124 121.587 131.124 121.55 131.124C121.513 131.124 121.477 131.124 121.44 131.124C121.403 131.124 121.366 131.124 121.329 131.124C121.292 131.124 121.255 131.124 121.218 131.124C121.181 131.124 121.144 131.124 121.107 131.124C121.07 131.124 121.033 131.124 120.996 131.124C120.959 131.124 120.922 131.124 120.884 131.124C120.847 131.124 120.81 131.124 120.773 131.124C120.736 131.124 120.698 131.124 120.661 131.124C120.624 131.124 120.586 131.124 120.549 131.124C120.511 131.124 120.474 131.124 120.436 131.124C120.399 131.124 120.361 131.124 120.324 131.124C120.286 131.124 120.249 131.124 120.211 131.124C120.174 131.124 120.136 131.124 120.098 131.124C120.061 131.124 120.023 131.124 119.985 131.124C119.947 131.124 119.91 131.124 119.872 131.124C119.834 131.124 119.796 131.124 119.758 131.124C119.721 131.124 119.683 131.124 119.645 131.124C119.607 131.124 119.569 131.124 119.531 131.124C119.493 131.124 119.455 131.124 119.417 131.124C119.379 131.124 119.341 131.124 119.303 131.124C119.264 131.124 119.226 131.124 119.188 131.124C119.15 131.124 119.112 131.124 119.073 131.124C119.035 131.124 118.997 131.124 118.959 131.124C118.92 131.124 118.882 131.124 118.844 131.124C118.805 131.124 118.767 131.124 118.729 131.124C118.69 131.124 118.652 131.124 118.613 131.124C118.575 131.124 118.536 131.124 118.498 131.124C118.459 131.124 118.421 131.124 118.382 131.124C118.343 131.124 118.305 131.124 118.266 131.124C118.228 131.124 118.189 131.124 118.15 131.124C118.112 131.124 118.073 131.124 118.034 131.124C117.995 131.124 117.957 131.124 117.918 131.124C117.879 131.124 117.84 131.124 117.801 131.124C117.762 131.124 117.723 131.124 117.685 131.124C117.646 131.124 117.607 131.124 117.568 131.124C117.529 131.124 117.49 131.124 117.451 131.124C117.412 131.124 117.373 131.124 117.334 131.124C117.295 131.124 117.255 131.124 117.216 131.124C117.177 131.124 117.138 131.124 117.099 131.124C117.06 131.124 117.02 131.124 116.981 131.124C116.942 131.124 116.903 131.124 116.863 131.124C116.824 131.124 116.785 131.124 116.746 131.124C116.706 131.124 116.667 131.124 116.628 131.124C116.588 131.124 116.549 131.124 116.509 131.124C116.47 131.124 116.43 131.124 116.391 131.124C116.352 131.124 116.312 131.124 116.273 131.124C116.233 131.124 116.194 131.124 116.154 131.124C116.114 131.124 116.075 131.124 116.035 131.124C115.996 131.124 115.956 131.124 115.916 131.124C115.877 131.124 115.837 131.124 115.797 131.124C115.758 131.124 115.718 131.124 115.678 131.124C115.638 131.124 115.599 131.124 115.559 131.124C115.519 131.124 115.479 131.124 115.44 131.124C115.4 131.124 115.36 131.124 115.32 131.124C115.28 131.124 115.24 131.124 115.2 131.124C115.16 131.124 115.12 131.124 115.081 131.124C115.041 131.124 115.001 131.124 114.961 131.124C114.921 131.124 114.881 131.124 114.841 131.124C114.801 131.124 114.761 131.124 114.72 131.124C114.68 131.124 114.64 131.124 114.6 131.124C114.56 131.124 114.52 131.124 114.48 131.124C114.44 131.124 114.4 131.124 114.359 131.124C114.319 131.124 114.279 131.124 114.239 131.124C114.199 131.124 114.158 131.124 114.118 131.124C114.078 131.124 114.038 131.124 113.997 131.124C113.957 131.124 113.917 131.124 113.876 131.124C113.836 131.124 113.796 131.124 113.755 131.124C113.715 131.124 113.675 131.124 113.634 131.124C113.594 131.124 113.553 131.124 113.513 131.124C113.473 131.124 113.432 131.124 113.392 131.124C113.351 131.124 113.311 131.124 113.27 131.124C113.23 131.124 113.189 131.124 113.149 131.124C113.108 131.124 113.068 131.124 113.027 131.124C112.987 131.124 112.946 131.124 112.906 131.124C112.865 131.124 112.824 131.124 112.784 131.124C112.743 131.124 112.703 131.124 112.662 131.124C112.621 131.124 112.581 131.124 112.54 131.124C112.499 131.124 112.459 131.124 112.418 131.124C112.377 131.124 112.337 131.124 112.296 131.124C112.255 131.124 112.214 131.124 112.174 131.124C112.133 131.124 112.092 131.124 112.051 131.124C112.011 131.124 111.97 131.124 111.929 131.124C111.888 131.124 111.847 131.124 111.807 131.124C111.766 131.124 111.725 131.124 111.684 131.124C111.643 131.124 111.602 131.124 111.561 131.124C111.521 131.124 111.48 131.124 111.439 131.124C111.398 131.124 111.357 131.124 111.316 131.124C111.275 131.124 111.234 131.124 111.193 131.124C111.152 131.124 111.111 131.124 111.07 131.124C111.029 131.124 110.988 131.124 110.947 131.124C110.907 131.124 110.866 131.124 110.825 131.124C110.784 131.124 110.742 131.124 110.701 131.124C110.66 131.124 110.619 131.124 110.578 131.124C110.537 131.124 110.496 131.124 110.455 131.124C110.414 131.124 110.373 131.124 110.332 131.124C110.291 131.124 110.25 131.124 110.209 131.124C110.168 131.124 110.127 131.124 110.085 131.124C110.044 131.124 110.003 131.124 109.962 131.124C109.921 131.124 109.88 131.124 109.839 131.124C109.798 131.124 109.756 131.124 109.715 131.124C109.674 131.124 109.633 131.124 109.592 131.124C109.551 131.124 109.509 131.124 109.468 131.124C109.427 131.124 109.386 131.124 109.345 131.124C109.303 131.124 109.262 131.124 109.221 131.124C109.18 131.124 109.139 131.124 109.097 131.124C109.056 131.124 109.015 131.124 108.974 131.124C108.932 131.124 108.891 131.124 108.85 131.124C108.809 131.124 108.767 131.124 108.726 131.124C108.685 131.124 108.644 131.124 108.602 131.124C108.561 131.124 108.52 131.124 108.479 131.124C108.437 131.124 108.396 131.124 108.355 131.124C108.313 131.124 108.272 131.124 108.231 131.124C108.19 131.124 108.148 131.124 108.107 131.124C108.066 131.124 108.024 131.124 107.983 131.124C107.942 131.124 107.9 131.124 107.859 131.124C107.818 131.124 107.776 131.124 107.735 131.124C107.694 131.124 107.652 131.124 107.611 131.124C107.57 131.124 107.528 131.124 107.487 131.124C107.446 131.124 107.404 131.124 107.363 131.124C107.322 131.124 107.28 131.124 107.239 131.124C107.198 131.124 107.156 131.124 107.115 131.124C107.074 131.124 107.032 131.124 106.991 131.124C106.95 131.124 106.908 131.124 106.867 131.124C106.826 131.124 106.784 131.124 106.743 131.124C106.702 131.124 106.66 131.124 106.619 131.124C106.578 131.124 106.536 131.124 106.495 131.124C106.454 131.124 106.412 131.124 106.371 131.124C106.33 131.124 106.288 131.124 106.247 131.124C106.206 131.124 106.164 131.124 106.123 131.124C106.082 131.124 106.04 131.124 105.999 131.124C105.958 131.124 105.916 131.124 105.875 131.124C105.833 131.124 105.792 131.124 105.751 131.124C105.709 131.124 105.668 131.124 105.627 131.124C105.586 131.124 105.544 131.124 105.503 131.124C105.462 131.124 105.42 131.124 105.379 131.124C105.338 131.124 105.296 131.124 105.255 131.124C105.214 131.124 105.172 131.124 105.131 131.124C105.09 131.124 105.048 131.124 105.007 131.124C104.966 131.124 104.925 131.124 104.883 131.124C104.842 131.124 104.801 131.124 104.759 131.124C104.718 131.124 104.677 131.124 104.636 131.124C104.594 131.124 104.553 131.124 104.512 131.124C104.47 131.124 104.429 131.124 104.388 131.124C104.347 131.124 104.305 131.124 104.264 131.124C104.223 131.124 104.182 131.124 104.14 131.124C104.099 131.124 104.058 131.124 104.017 131.124C103.976 131.124 103.934 131.124 103.893 131.124C103.852 131.124 103.811 131.124 103.77 131.124C103.728 131.124 103.687 131.124 103.646 131.124C103.605 131.124 103.564 131.124 103.522 131.124C103.481 131.124 103.44 131.124 103.399 131.124C103.358 131.124 103.317 131.124 103.276 131.124C103.234 131.124 103.193 131.124 103.152 131.124C103.111 131.124 103.07 131.124 103.029 131.124C102.988 131.124 102.947 131.124 102.905 131.124C102.864 131.124 102.823 131.124 102.782 131.124C102.741 131.124 102.7 131.124 102.659 131.124C102.618 131.124 102.577 131.124 102.536 131.124C102.495 131.124 102.454 131.124 102.413 131.124C102.372 131.124 102.331 131.124 102.29 131.124C102.249 131.124 102.208 131.124 102.167 131.124C102.126 131.124 102.085 131.124 102.044 131.124C102.003 131.124 101.962 131.124 101.921 131.124C101.88 131.124 101.839 131.124 101.798 131.124C101.757 131.124 101.717 131.124 101.676 131.124C101.635 131.124 101.594 131.124 101.553 131.124C101.512 131.124 101.471 131.124 101.431 131.124C101.39 131.124 101.349 131.124 101.308 131.124C101.267 131.124 101.226 131.124 101.186 131.124C101.145 131.124 101.104 131.124 101.063 131.124C101.023 131.124 100.982 131.124 100.941 131.124C100.9 131.124 100.86 131.124 100.819 131.124C100.778 131.124 100.737 131.124 100.697 131.124C100.656 131.124 100.615 131.124 100.575 131.124C100.534 131.124 100.493 131.124 100.453 131.124C100.412 131.124 100.372 131.124 100.331 131.124C100.29 131.124 100.25 131.124 100.209 131.124C100.169 131.124 100.128 131.124 100.088 131.124C100.047 131.124 100.007 131.124 99.966 131.124C99.9255 131.124 99.885 131.124 99.8446 131.124C99.8041 131.124 99.7636 131.124 99.7232 131.124C99.6827 131.124 99.6423 131.124 99.6019 131.124C99.5615 131.124 99.5211 131.124 99.4807 131.124C99.4403 131.124 99.4 131.124 99.3596 131.124C99.3193 131.124 99.279 131.124 99.2387 131.124C99.1984 131.124 99.1581 131.124 99.1178 131.124C99.0775 131.124 99.0373 131.124 98.997 131.124C98.9568 131.124 98.9166 131.124 98.8764 131.124C98.8362 131.124 98.796 131.124 98.7558 131.124C98.7157 131.124 98.6755 131.124 98.6354 131.124C98.5953 131.124 98.5552 131.124 98.5151 131.124C98.475 131.124 98.4349 131.124 98.3949 131.124C98.3548 131.124 98.3148 131.124 98.2748 131.124C98.2348 131.124 98.1948 131.124 98.1548 131.124C98.1148 131.124 98.0749 131.124 98.0349 131.124C97.995 131.124 97.9551 131.124 97.9152 131.124C97.8753 131.124 97.8354 131.124 97.7956 131.124C97.7557 131.124 97.7159 131.124 97.6761 131.124C97.6363 131.124 97.5965 131.124 97.5568 131.124C97.517 131.124 97.4772 131.124 97.4375 131.124C97.3978 131.124 97.3581 131.124 97.3184 131.124C97.2788 131.124 97.2391 131.124 97.1995 131.124C97.1598 131.124 97.1202 131.124 97.0806 131.124C97.041 131.124 97.0015 131.124 96.9619 131.124C96.9224 131.124 96.8829 131.124 96.8434 131.124C96.8039 131.124 96.7644 131.124 96.725 131.124C96.6855 131.124 96.6461 131.124 96.6067 131.124C96.5673 131.124 96.5279 131.124 96.4886 131.124C96.4492 131.124 96.4099 131.124 96.3706 131.124C96.3313 131.124 96.292 131.124 96.2527 131.124C96.2135 131.124 96.1742 131.124 96.135 131.124C96.0958 131.124 96.0566 131.124 96.0175 131.124C95.9783 131.124 95.9392 131.124 95.9001 131.124C95.861 131.124 95.8219 131.124 95.7829 131.124C95.7438 131.124 95.7048 131.124 95.6658 131.124C95.6268 131.124 95.5878 131.124 95.5488 131.124C95.5099 131.124 95.471 131.124 95.4321 131.124C95.3932 131.124 95.3543 131.124 95.3155 131.124C95.2766 131.124 95.2378 131.124 95.199 131.124C95.1602 131.124 95.1215 131.124 95.0827 131.124C95.044 131.124 95.0053 131.124 94.9666 131.124C94.9279 131.124 94.8893 131.124 94.8507 131.124C94.812 131.124 94.7734 131.124 94.7349 131.124C94.6963 131.124 94.6578 131.124 94.6193 131.124C94.5808 131.124 94.5423 131.124 94.5038 131.124C94.4654 131.124 94.427 131.124 94.3886 131.124C94.3502 131.124 94.3118 131.124 94.2735 131.124C94.2351 131.124 94.1968 131.124 94.1586 131.124C94.1203 131.124 94.082 131.124 94.0438 131.124C94.0056 131.124 93.9674 131.124 93.9293 131.124C93.8911 131.124 93.853 131.124 93.8149 131.124C93.7768 131.124 93.7388 131.124 93.7007 131.124C93.6627 131.124 93.6247 131.124 93.5867 131.124C93.5488 131.124 93.5108 131.124 93.4729 131.124C93.435 131.124 93.3972 131.124 93.3593 131.124C93.3215 131.124 93.2837 131.124 93.2459 131.124C93.2081 131.124 93.1704 131.124 93.1327 131.124C93.0949 131.124 93.0573 131.124 93.0196 131.124C92.982 131.124 92.9444 131.124 92.9068 131.124C92.8692 131.124 92.8317 131.124 92.7941 131.124C92.7566 131.124 92.7191 131.124 92.6817 131.124C92.6443 131.124 92.6068 131.124 92.5695 131.124C92.5321 131.124 92.4947 131.124 92.4574 131.124C92.4201 131.124 92.3828 131.124 92.3456 131.124C92.3084 131.124 92.2711 131.124 92.234 131.124C92.1968 131.124 92.1597 131.124 92.1226 131.124C92.0855 131.124 92.0484 131.124 92.0114 131.124C91.9743 131.124 91.9373 131.124 91.9004 131.124C91.8634 131.124 91.8265 131.124 91.7896 131.124C91.7527 131.124 91.7159 131.124 91.679 131.124C91.6422 131.124 91.6054 131.124 91.5687 131.124C91.532 131.124 91.4953 131.124 91.4586 131.124C91.4219 131.124 91.3853 131.124 91.3487 131.124C91.3121 131.124 91.2755 131.124 91.239 131.124C91.2025 131.124 91.166 131.124 91.1296 131.124C91.0931 131.124 91.0567 131.124 91.0203 131.124C90.984 131.124 90.9476 131.124 90.9113 131.124C90.8751 131.124 90.8388 131.124 90.8026 131.124C90.7664 131.124 90.7302 131.124 90.694 131.124C90.6579 131.124 90.6218 131.124 90.5858 131.124C90.5497 131.124 90.5137 131.124 90.4777 131.124C90.4417 131.124 90.4058 131.124 90.3699 131.124C90.334 131.124 90.2981 131.124 90.2623 131.124C90.2265 131.124 90.1907 131.124 90.1549 131.124C90.1192 131.124 90.0835 131.124 90.0478 131.124C90.0122 131.124 89.9765 131.124 89.941 131.124C89.9054 131.124 89.8698 131.124 89.8344 131.124C89.7989 131.124 89.7634 131.124 89.728 131.124C89.6926 131.124 89.6572 131.124 89.6219 131.124C89.5865 131.124 89.5513 131.124 89.516 131.124C89.4808 131.124 89.4456 131.124 89.4104 131.124C89.3752 131.124 89.3401 131.124 89.305 131.124C89.27 131.124 89.2349 131.124 89.1999 131.124C89.1649 131.124 89.13 131.124 89.0951 131.124C89.0602 131.124 89.0253 131.124 88.9905 131.124C88.9557 131.124 88.9209 131.124 88.8862 131.124C88.8515 131.124 88.8168 131.124 88.7821 131.124C88.7475 131.124 88.7129 131.124 88.6783 131.124C88.6438 131.124 88.6093 131.124 88.5748 131.124C88.5403 131.124 88.5059 131.124 88.4716 131.124C88.4372 131.124 88.4029 131.124 88.3686 131.124C88.3343 131.124 88.3 131.124 88.2659 131.124C88.2317 131.124 88.1975 131.124 88.1634 131.124C88.1293 131.124 88.0953 131.124 88.0612 131.124C88.0272 131.124 87.9933 131.124 87.9594 131.124C87.9254 131.124 87.8916 131.124 87.8578 131.124C87.8239 131.124 87.7902 131.124 87.7564 131.124C87.7227 131.124 87.689 131.124 87.6554 131.124C87.6217 131.124 87.5882 131.124 87.5546 131.124C87.5211 131.124 87.4876 131.124 87.4541 131.124C87.4207 131.124 87.3873 131.124 87.354 131.124C87.3206 131.124 87.2873 131.124 87.2541 131.124C87.2208 131.124 87.1876 131.124 87.1545 131.124C87.1213 131.124 87.0882 131.124 87.0552 131.124C87.0221 131.124 86.9891 131.124 86.9561 131.124C86.9232 131.124 86.8903 131.124 86.8574 131.124C86.8246 131.124 86.7917 131.124 86.759 131.124C86.7262 131.124 86.6935 131.124 86.6609 131.124C86.6282 131.124 86.5956 131.124 86.5631 131.124C86.5305 131.124 86.498 131.124 86.4655 131.124C86.4331 131.124 86.4007 131.124 86.3683 131.124C86.336 131.124 86.3037 131.124 86.2714 131.124C86.2392 131.124 86.207 131.124 86.1748 131.124C86.1427 131.124 86.1106 131.124 86.0785 131.124C86.0465 131.124 86.0145 131.124 85.9826 131.124C85.9506 131.124 85.9187 131.124 85.8869 131.124C85.8551 131.124 85.8233 131.124 85.7916 131.124C85.7598 131.124 85.7282 131.124 85.6965 131.124C85.6649 131.124 85.6334 131.124 85.6018 131.124C85.5703 131.124 85.5389 131.124 85.5075 131.124C85.4761 131.124 85.4447 131.124 85.4134 131.124C85.3821 131.124 85.3509 131.124 85.3197 131.124C85.2885 131.124 85.2573 131.124 85.2263 131.124C85.1952 131.124 85.1641 131.124 85.1332 131.124C85.1022 131.124 85.0713 131.124 85.0404 131.124C85.0096 131.124 84.9788 131.124 84.948 131.124C84.9173 131.124 84.8866 131.124 84.8559 131.124C84.8253 131.124 84.7947 131.124 84.7642 131.124C84.7336 131.124 84.7032 131.124 84.6728 131.124C84.6423 131.124 84.612 131.124 84.5817 131.124C84.5514 131.124 84.5211 131.124 84.4909 131.124C84.4608 131.124 84.4306 131.124 84.4006 131.124C84.3705 131.124 84.3405 131.124 84.3105 131.124C84.2805 131.124 84.2506 131.124 84.2208 131.124C84.191 131.124 84.1612 131.124 84.1314 131.124C84.1017 131.124 84.072 131.124 84.0424 131.124C84.0128 131.124 83.9833 131.124 83.9538 131.124C83.9243 131.124 83.8949 131.124 83.8655 131.124C83.8361 131.124 83.8068 131.124 83.7775 131.124C83.7483 131.124 83.7191 131.124 83.6899 131.124C83.6608 131.124 83.6317 131.124 83.6027 131.124C83.5737 131.124 83.5447 131.124 83.5158 131.124C83.4869 131.124 83.4581 131.124 83.4293 131.124C83.4005 131.124 83.3718 131.124 83.3432 131.124C83.3145 131.124 83.2859 131.124 83.2574 131.124C83.2288 131.124 83.2004 131.124 83.172 131.124C83.1435 131.124 83.1152 131.124 83.0869 131.124C83.0586 131.124 83.0304 131.124 83.0022 131.124C82.9741 131.124 82.946 131.124 82.9179 131.124C82.8899 131.124 82.8619 131.124 82.834 131.124C82.8061 131.124 82.7782 131.124 82.7504 131.124C82.7226 131.124 82.6949 131.124 82.6672 131.124C82.6396 131.124 82.612 131.124 82.5844 131.124C82.5569 131.124 82.5294 131.124 82.502 131.124C82.4746 131.124 82.4472 131.124 82.42 131.124C82.3927 131.124 82.3655 131.124 82.3383 131.124C82.3111 131.124 82.2841 131.124 82.257 131.124C82.23 131.124 82.203 131.124 82.1761 131.124C82.1493 131.124 82.1224 131.124 82.0957 131.124C82.0689 131.124 82.0422 131.124 82.0155 131.124C81.9889 131.124 81.9623 131.124 81.9358 131.124C81.9093 131.124 81.8829 131.124 81.8565 131.124C81.8301 131.124 81.8038 131.124 81.7776 131.124C81.7514 131.124 81.7252 131.124 81.6991 131.124C81.673 131.124 81.6469 131.124 81.621 131.124C81.595 131.124 81.5691 131.124 81.5432 131.124C81.5174 131.124 81.4916 131.124 81.4659 131.124C81.4402 131.124 81.4146 131.124 81.389 131.124C81.3634 131.124 81.3379 131.124 81.3125 131.124C81.2871 131.124 81.2617 131.124 81.2364 131.124C81.2111 131.124 81.1859 131.124 81.1607 131.124C81.1356 131.124 81.1105 131.124 81.0854 131.124C81.0604 131.124 81.0355 131.124 81.0106 131.124C80.9857 131.124 80.9609 131.124 80.9361 131.124C80.9114 131.124 80.8867 131.124 80.8621 131.124C80.8375 131.124 80.813 131.124 80.7885 131.124C80.764 131.124 80.7396 131.124 80.7153 131.124C80.691 131.124 80.6667 131.124 80.6426 131.124C80.6184 131.124 80.5943 131.124 80.5702 131.124C80.5462 131.124 80.5222 131.124 80.4983 131.124C80.4744 131.124 80.4506 131.124 80.4268 131.124C80.4031 131.124 80.3794 131.124 80.3558 131.124C80.3321 131.124 80.3086 131.124 80.2851 131.124C80.2617 131.124 80.2383 131.124 80.2149 131.124C80.1916 131.124 80.1684 131.124 80.1452 131.124C80.122 131.124 80.0989 131.124 80.0759 131.124C80.0528 131.124 80.0299 131.124 80.007 131.124C79.9841 131.124 79.9613 131.124 79.9385 131.124C79.9158 131.124 79.8931 131.124 79.8705 131.124C79.8479 131.124 79.8254 131.124 79.803 131.124C79.7805 131.124 79.7581 131.124 79.7359 131.124C79.7136 131.124 79.6913 131.124 79.6692 131.124C79.647 131.124 79.625 131.124 79.603 131.124C79.581 131.124 79.559 131.124 79.5372 131.124C79.5154 131.124 79.4936 131.124 79.4719 131.124C79.4502 131.124 79.4286 131.124 79.407 131.124C79.3855 131.124 79.364 131.124 79.3426 131.124C79.3212 131.124 79.2999 131.124 79.2787 131.124C79.2574 131.124 79.2363 131.124 79.2152 131.124C79.1941 131.124 79.1731 131.124 79.1522 131.124C79.1312 131.124 79.1104 131.124 79.0896 131.124C79.0688 131.124 79.0481 131.124 79.0275 131.124C79.0069 131.124 78.9863 131.124 78.9659 131.124C78.9454 131.124 78.925 131.124 78.9047 131.124C78.8844 131.124 78.8642 131.124 78.844 131.124C78.8239 131.124 78.8038 131.124 78.7838 131.124C78.7638 131.124 78.7439 131.124 78.724 131.124C78.7042 131.124 78.6844 131.124 78.6648 131.124C78.6451 131.124 78.6255 131.124 78.606 131.124C78.5864 131.124 78.567 131.124 78.5476 131.124C78.5283 131.124 78.509 131.124 78.4898 131.124C78.4706 131.124 78.4515 131.124 78.4324 131.124C78.4134 131.124 78.3944 131.124 78.3756 131.124C78.3567 131.124 78.3379 131.124 78.3192 131.124C78.3005 131.124 78.2818 131.124 78.2633 131.124C78.2447 131.124 78.2262 131.124 78.2079 131.124C78.1895 131.124 78.1712 131.124 78.1529 131.124C78.1347 131.124 78.1166 131.124 78.0985 131.124C78.0804 131.124 78.0625 131.124 78.0446 131.124C78.0267 131.124 78.0089 131.124 77.9911 131.124C77.9734 131.124 77.9558 131.124 77.9382 131.124C77.9206 131.124 77.9031 131.124 77.8857 131.124C77.8684 131.124 77.851 131.124 77.8338 131.124C77.8166 131.124 77.7994 131.124 77.7824 131.124C77.7653 131.124 77.7483 131.124 77.7314 131.124C77.7145 131.124 77.6977 131.124 77.681 131.124C77.6643 131.124 77.6476 131.124 77.6311 131.124C77.6145 131.124 77.5981 131.124 77.5817 131.124C77.5653 131.124 77.549 131.124 77.5328 131.124C77.5166 131.124 77.5004 131.124 77.4844 131.124C77.4684 131.124 77.4524 131.124 77.4365 131.124C77.4207 131.124 77.4049 131.124 77.3892 131.124C77.3735 131.124 77.3579 131.124 77.3424 131.124C77.3268 131.124 77.3114 131.124 77.296 131.124C77.2807 131.124 77.2654 131.124 77.2503 131.124C77.2351 131.124 77.22 131.124 77.205 131.124C77.19 131.124 77.1751 131.124 77.1602 131.124C77.1454 131.124 77.1307 131.124 77.116 131.124C77.1014 131.124 77.0868 131.124 77.0723 131.124C77.0579 131.124 77.0435 131.124 77.0292 131.124C77.0149 131.124 77.0007 131.124 76.9866 131.124C76.9725 131.124 76.9584 131.124 76.9445 131.124C76.9306 131.124 76.9167 131.124 76.9029 131.124C76.8892 131.124 76.8755 131.124 76.8619 131.124C76.8484 131.124 76.8349 131.124 76.8215 131.124C76.8081 131.124 76.7948 131.124 76.7815 131.124C76.7683 131.124 76.7552 131.124 76.7421 131.124C76.7291 131.124 76.7162 131.124 76.7033 131.124C76.6904 131.124 76.6777 131.124 76.665 131.124C76.6523 131.124 76.6398 131.124 76.6273 131.124C76.6148 131.124 76.6024 131.124 76.5901 131.124C76.5778 131.124 76.5655 131.124 76.5534 131.124C76.5413 131.124 76.5293 131.124 76.5173 131.124C76.5054 131.124 76.4935 131.124 76.4818 131.124C76.47 131.124 76.4584 131.124 76.4468 131.124C76.4352 131.124 76.4238 131.124 76.4124 131.124C76.401 131.124 76.3897 131.124 76.3785 131.124C76.3673 131.124 76.3562 131.124 76.3452 131.124C76.3342 131.124 76.3233 131.124 76.3125 131.124C76.3017 131.124 76.291 131.124 76.2803 131.124C76.2697 131.124 76.2592 131.124 76.2487 131.124C76.2383 131.124 76.228 131.124 76.2177 131.124C76.2075 131.124 76.1973 131.124 76.1873 131.124C76.1772 131.124 76.1672 131.124 76.1574 131.124C76.1475 131.124 76.1377 131.124 76.1281 131.124C76.1184 131.124 76.1088 131.124 76.0993 131.124C76.0898 131.124 76.0805 131.124 76.0712 131.124C76.0619 131.124 76.0527 131.124 76.0436 131.124C76.0345 131.124 76.0255 131.124 76.0166 131.124C76.0077 131.124 75.9989 131.124 75.9902 131.124C75.9815 131.124 75.9729 131.124 75.9644 131.124C75.9559 131.124 75.9474 131.124 75.9391 131.124C75.9308 131.124 75.9226 131.124 75.9145 131.124C75.9064 131.124 75.8983 131.124 75.8904 131.124C75.8825 131.124 75.8747 131.124 75.8669 131.124C75.8592 131.124 75.8516 131.124 75.8441 131.124C75.8366 131.124 75.8291 131.124 75.8218 131.124C75.8145 131.124 75.8072 131.124 75.8001 131.124C75.793 131.124 75.786 131.124 75.779 131.124C75.7721 131.124 75.7653 131.124 75.7586 131.124C75.7518 131.124 75.7452 131.124 75.7387 131.124C75.7322 131.124 75.7257 131.124 75.7194 131.124C75.7131 131.124 75.7069 131.124 75.7007 131.124C75.6946 131.124 75.6886 131.124 75.6827 131.124C75.6768 131.124 75.6709 131.124 75.6652 131.124C75.6595 131.124 75.6539 131.124 75.6484 131.124C75.6429 131.124 75.6375 131.124 75.6322 131.124C75.6269 131.124 75.6217 131.124 75.6166 131.124C75.6115 131.124 75.6065 131.124 75.6016 131.124C75.5967 131.124 75.5919 131.124 75.5872 131.124C75.5825 131.124 75.5779 131.124 75.5734 131.124C75.5689 131.124 75.5646 131.124 75.5603 131.124C75.556 131.124 75.5519 131.124 75.5478 131.124C75.5437 131.124 75.5398 131.124 75.5359 131.124C75.532 131.124 75.5283 131.124 75.5246 131.124C75.521 131.124 75.5175 131.124 75.514 131.124C75.5106 131.124 75.5072 131.124 75.504 131.124C75.5008 131.124 75.4977 131.124 75.4946 131.124C75.4916 131.124 75.4887 131.124 75.4859 131.124C75.4831 131.124 75.4804 131.124 75.4778 131.124C75.4752 131.124 75.4727 131.124 75.4704 131.124C75.468 131.124 75.4657 131.124 75.4635 131.124C75.4614 131.124 75.4593 131.124 75.4574 131.124C75.4554 131.124 75.4536 131.124 75.4518 131.124C75.4501 131.124 75.4485 131.124 75.4469 131.124C75.4454 131.124 75.444 131.124 75.4427 131.124C75.4414 131.124 75.4402 131.124 75.4391 131.124C75.438 131.124 75.437 131.124 75.4362 131.124C75.4353 131.124 75.4345 131.124 75.4339 131.124C75.4332 131.124 75.4327 131.124 75.4322 131.124C75.4318 131.124 75.4315 131.124 75.4312 131.124C75.431 131.124 75.4309 131.124 75.4309 131.624Z" fill="black"/>
<path d="M33.3474 63.1955V61.7466L39.7394 51.633H40.7905V53.8773H40.0803L35.2508 61.5194V61.633H43.8587V63.1955H33.3474ZM40.1939 66.1785V62.7552V62.0805V51.633H41.8701V66.1785H40.1939ZM39.4553 72.5705C37.9449 72.5705 36.5055 72.3409 35.1371 71.8816C33.7735 71.4223 32.5211 70.7736 31.38 69.9356C30.2437 69.1022 29.2564 68.115 28.4184 66.9739C27.585 65.8376 26.9387 64.5876 26.4795 63.2239C26.0202 61.8555 25.7905 60.4162 25.7905 58.9057C25.7905 57.3953 26.0202 55.9583 26.4795 54.5947C26.9387 53.2263 27.585 51.9739 28.4184 50.8376C29.2564 49.6965 30.2437 48.7092 31.38 47.8759C32.5211 47.0378 33.7735 46.3892 35.1371 45.9299C36.5055 45.4706 37.9449 45.241 39.4553 45.241C40.9657 45.241 42.4028 45.4706 43.7664 45.9299C45.1348 46.3892 46.3871 47.0378 47.5235 47.8759C48.6646 48.7092 49.6518 49.6965 50.4851 50.8376C51.3232 51.9739 51.9719 53.2263 52.4312 54.5947C52.8904 55.9583 53.1201 57.3953 53.1201 58.9057C53.1201 60.4162 52.8904 61.8555 52.4312 63.2239C51.9719 64.5876 51.3232 65.8376 50.4851 66.9739C49.6518 68.115 48.6646 69.1022 47.5235 69.9356C46.3871 70.7736 45.1348 71.4223 43.7664 71.8816C42.4028 72.3409 40.9657 72.5705 39.4553 72.5705ZM39.4553 70.9228C40.7858 70.9228 42.05 70.7192 43.2479 70.312C44.4506 69.9095 45.5514 69.339 46.5505 68.6003C47.5543 67.8664 48.4231 67 49.157 66.0009C49.8956 64.9971 50.4662 63.8963 50.8687 62.6984C51.2711 61.4957 51.4724 60.2315 51.4724 58.9057C51.4724 57.5752 51.2711 56.311 50.8687 55.1131C50.4662 53.9105 49.8956 52.8096 49.157 51.8106C48.4231 50.8068 47.5543 49.9379 46.5505 49.204C45.5514 48.4654 44.4506 47.8948 43.2479 47.4924C42.05 47.0899 40.7858 46.8887 39.4553 46.8887C38.1248 46.8887 36.8582 47.0899 35.6556 47.4924C34.4577 47.8948 33.3568 48.4654 32.353 49.204C31.354 49.9379 30.4851 50.8068 29.7465 51.8106C29.0126 52.8096 28.4444 53.9105 28.042 55.1131C27.6395 56.311 27.4383 57.5752 27.4383 58.9057C27.4383 60.2315 27.6395 61.4957 28.042 62.6984C28.4444 63.8963 29.0126 64.9971 29.7465 66.0009C30.4851 67 31.354 67.8664 32.353 68.6003C33.3568 69.339 34.4577 69.9095 35.6556 70.312C36.8582 70.7192 38.1248 70.9228 39.4553 70.9228ZM59.7362 50.7985C59.7096 51.0251 59.6829 51.2851 59.6562 51.5785C59.6296 51.8585 59.6162 52.1385 59.6162 52.4185C59.6162 52.5918 59.6162 52.9385 59.6162 53.4585C59.6162 53.9651 59.6162 54.5785 59.6162 55.2985C59.6162 56.0051 59.6162 56.7585 59.6162 57.5585C59.6162 58.3451 59.6162 59.1051 59.6162 59.8385C59.6162 60.5718 59.6162 61.2185 59.6162 61.7785C59.6162 62.3251 59.6162 62.7251 59.6162 62.9785C59.6162 63.4851 59.7296 63.8385 59.9562 64.0385C60.1829 64.2251 60.5362 64.3651 61.0162 64.4585C61.3362 64.5118 61.7362 64.5518 62.2162 64.5785C62.6962 64.6051 63.1829 64.6185 63.6762 64.6185C64.1962 64.6185 64.7629 64.6051 65.3762 64.5785C66.0029 64.5518 66.6296 64.5118 67.2562 64.4585C67.8829 64.4051 68.4762 64.3385 69.0362 64.2585C69.6096 64.1785 70.1029 64.0851 70.5162 63.9785V65.7985C69.9429 65.8918 69.2496 65.9718 68.4362 66.0385C67.6362 66.0918 66.8096 66.1385 65.9562 66.1785C65.1029 66.2051 64.3162 66.2185 63.5962 66.2185C62.9962 66.2185 62.4162 66.2051 61.8562 66.1785C61.2962 66.1385 60.8029 66.0851 60.3762 66.0185C59.6162 65.8851 59.0296 65.6251 58.6162 65.2385C58.2029 64.8385 57.9962 64.2318 57.9962 63.4185C57.9962 63.0985 57.9962 62.6385 57.9962 62.0385C57.9962 61.4251 57.9962 60.7318 57.9962 59.9585C57.9962 59.1851 57.9962 58.3985 57.9962 57.5985C57.9962 56.7851 57.9962 56.0185 57.9962 55.2985C57.9962 54.5785 57.9962 53.9651 57.9962 53.4585C57.9962 52.9385 57.9962 52.5918 57.9962 52.4185C57.9962 52.2318 57.9896 52.0451 57.9762 51.8585C57.9629 51.6585 57.9496 51.4651 57.9362 51.2785C57.9229 51.0918 57.9029 50.9318 57.8762 50.7985H59.7362ZM58.8962 57.0985C59.4962 56.9651 60.1629 56.7985 60.8962 56.5985C61.6429 56.3985 62.4096 56.1785 63.1962 55.9385C63.9829 55.6985 64.7429 55.4518 65.4762 55.1985C66.2229 54.9318 66.8829 54.6718 67.4562 54.4185C67.7629 54.2851 68.0562 54.1451 68.3362 53.9985C68.6296 53.8518 68.9229 53.6851 69.2162 53.4985L69.9162 55.1185C69.6362 55.2251 69.3229 55.3518 68.9762 55.4985C68.6429 55.6451 68.3229 55.7785 68.0162 55.8985C67.4029 56.1518 66.6962 56.4185 65.8962 56.6985C65.1096 56.9651 64.2962 57.2318 63.4562 57.4985C62.6162 57.7518 61.8029 57.9918 61.0162 58.2185C60.2296 58.4318 59.5229 58.6118 58.8962 58.7585V57.0985ZM77.8962 51.5185C78.2562 51.7585 78.6696 52.0585 79.1362 52.4185C79.6029 52.7651 80.0762 53.1385 80.5562 53.5385C81.0496 53.9251 81.5096 54.3051 81.9362 54.6785C82.3629 55.0518 82.7162 55.3785 82.9962 55.6585L81.7362 56.9185C81.4829 56.6651 81.1562 56.3518 80.7562 55.9785C80.3562 55.6051 79.9162 55.2185 79.4362 54.8185C78.9562 54.4051 78.4829 54.0185 78.0162 53.6585C77.5496 53.2851 77.1296 52.9785 76.7562 52.7385L77.8962 51.5185ZM76.1762 64.9185C77.3496 64.7451 78.4162 64.5051 79.3762 64.1985C80.3496 63.8918 81.2362 63.5451 82.0362 63.1585C82.8362 62.7718 83.5496 62.3851 84.1762 61.9985C85.2029 61.3585 86.1496 60.6251 87.0162 59.7985C87.8829 58.9585 88.6429 58.0918 89.2962 57.1985C89.9496 56.3051 90.4696 55.4518 90.8562 54.6385L91.8162 56.3385C91.3629 57.1651 90.8029 58.0051 90.1362 58.8585C89.4696 59.7118 88.7162 60.5318 87.8762 61.3185C87.0362 62.1051 86.1096 62.8185 85.0962 63.4585C84.4296 63.8718 83.6962 64.2785 82.8962 64.6785C82.1096 65.0785 81.2429 65.4451 80.2962 65.7785C79.3629 66.0985 78.3429 66.3585 77.2362 66.5585L76.1762 64.9185ZM100.096 64.4185C100.096 64.2318 100.096 63.8585 100.096 63.2985C100.096 62.7251 100.096 62.0518 100.096 61.2785C100.096 60.4918 100.096 59.6718 100.096 58.8185C100.096 57.9518 100.096 57.1118 100.096 56.2985C100.096 55.4851 100.096 54.7651 100.096 54.1385C100.096 53.5118 100.096 53.0585 100.096 52.7785C100.096 52.4985 100.083 52.1585 100.056 51.7585C100.03 51.3585 99.9896 51.0051 99.9362 50.6985H101.896C101.87 50.9918 101.836 51.3385 101.796 51.7385C101.77 52.1385 101.756 52.4851 101.756 52.7785C101.756 53.2985 101.756 53.9251 101.756 54.6585C101.756 55.3785 101.756 56.1518 101.756 56.9785C101.756 57.7918 101.756 58.6051 101.756 59.4185C101.77 60.2185 101.776 60.9718 101.776 61.6785C101.776 62.3718 101.776 62.9651 101.776 63.4585C101.776 63.9385 101.776 64.2585 101.776 64.4185C101.776 64.6318 101.776 64.8785 101.776 65.1585C101.79 65.4385 101.81 65.7251 101.836 66.0185C101.863 66.2985 101.883 66.5518 101.896 66.7785H99.9562C100.01 66.4585 100.043 66.0785 100.056 65.6385C100.083 65.1985 100.096 64.7918 100.096 64.4185ZM101.416 55.9385C102.07 56.1385 102.79 56.3785 103.576 56.6585C104.376 56.9251 105.19 57.2118 106.016 57.5185C106.843 57.8251 107.623 58.1385 108.356 58.4585C109.103 58.7651 109.75 59.0585 110.296 59.3385L109.616 61.0385C109.043 60.7185 108.396 60.4051 107.676 60.0985C106.956 59.7785 106.216 59.4651 105.456 59.1585C104.71 58.8518 103.983 58.5785 103.276 58.3385C102.583 58.0851 101.963 57.8785 101.416 57.7185V55.9385ZM119.976 51.633V66.1785H118.214V53.4796H118.129L114.578 55.8376V54.0478L118.214 51.633H119.976Z" fill="black"/>
</svg>
