<svg width="211" height="149" viewBox="0 0 211 149" fill="none" xmlns="http://www.w3.org/2000/svg">
<rect width="210" height="148.5" transform="matrix(-1 0 0 -1 210.65 148.731)" fill="white"/>
<path d="M14.3467 55.3491H31.9467V56.8891H14.3467V55.3491ZM24.0867 55.9691C24.5401 57.5825 25.1334 59.0891 25.8667 60.4891C26.6134 61.8758 27.5201 63.0891 28.5867 64.1291C29.6667 65.1691 30.8934 65.9825 32.2667 66.5691C32.1467 66.6758 32.0134 66.8091 31.8667 66.9691C31.7334 67.1425 31.6001 67.3158 31.4667 67.4891C31.3334 67.6625 31.2267 67.8225 31.1467 67.9691C29.7067 67.2758 28.4334 66.3625 27.3267 65.2291C26.2334 64.0958 25.3001 62.7758 24.5267 61.2691C23.7534 59.7625 23.1134 58.1158 22.6067 56.3291L24.0867 55.9691ZM22.3267 49.6291H23.9467C23.9467 50.4958 23.9201 51.4625 23.8667 52.5291C23.8267 53.5825 23.7267 54.6825 23.5667 55.8291C23.4067 56.9625 23.1401 58.1091 22.7667 59.2691C22.4067 60.4158 21.9001 61.5291 21.2467 62.6091C20.6067 63.6758 19.7867 64.6691 18.7867 65.5891C17.7867 66.5091 16.5601 67.3025 15.1067 67.9691C14.9867 67.7691 14.8134 67.5491 14.5867 67.3091C14.3734 67.0825 14.1667 66.8891 13.9667 66.7291C15.3801 66.1158 16.5667 65.3825 17.5267 64.5291C18.5001 63.6758 19.2934 62.7425 19.9067 61.7291C20.5201 60.7158 20.9934 59.6691 21.3267 58.5891C21.6601 57.5091 21.8934 56.4358 22.0267 55.3691C22.1601 54.2891 22.2401 53.2625 22.2667 52.2891C22.3067 51.3158 22.3267 50.4291 22.3267 49.6291ZM44.1067 52.8091H50.9667V54.2291H44.1067V52.8091ZM50.5267 52.8091H51.9267C51.9267 52.8091 51.9267 52.8625 51.9267 52.9691C51.9267 53.0758 51.9267 53.1958 51.9267 53.3291C51.9267 53.4491 51.9201 53.5358 51.9067 53.5891C51.8667 55.9758 51.8201 57.9891 51.7667 59.6291C51.7134 61.2558 51.6534 62.5891 51.5867 63.6291C51.5201 64.6558 51.4267 65.4491 51.3067 66.0091C51.2001 66.5691 51.0667 66.9625 50.9067 67.1891C50.7201 67.4691 50.5134 67.6558 50.2867 67.7491C50.0601 67.8558 49.7934 67.9291 49.4867 67.9691C49.1801 68.0091 48.7867 68.0291 48.3067 68.0291C47.8267 68.0291 47.3401 68.0091 46.8467 67.9691C46.8334 67.7691 46.7867 67.5291 46.7067 67.2491C46.6267 66.9825 46.5267 66.7491 46.4067 66.5491C46.9401 66.6025 47.4334 66.6291 47.8867 66.6291C48.3534 66.6425 48.6867 66.6491 48.8867 66.6491C49.0601 66.6491 49.2001 66.6291 49.3067 66.5891C49.4267 66.5491 49.5334 66.4558 49.6267 66.3091C49.7601 66.1491 49.8734 65.8025 49.9667 65.2691C50.0601 64.7358 50.1401 63.9625 50.2067 62.9491C50.2734 61.9358 50.3267 60.6291 50.3667 59.0291C50.4201 57.4291 50.4734 55.4758 50.5267 53.1691V52.8091ZM44.4867 49.6291L45.9667 49.9491C45.7401 50.8558 45.4601 51.7491 45.1267 52.6291C44.8067 53.5091 44.4467 54.3358 44.0467 55.1091C43.6601 55.8825 43.2467 56.5625 42.8067 57.1491C42.7134 57.0691 42.5867 56.9758 42.4267 56.8691C42.2801 56.7491 42.1267 56.6358 41.9667 56.5291C41.8067 56.4091 41.6667 56.3158 41.5467 56.2491C42.2134 55.4358 42.7934 54.4425 43.2867 53.2691C43.7801 52.0958 44.1801 50.8825 44.4867 49.6291ZM44.0467 56.6491H48.5067V63.1891H44.0467V61.9091H47.2467V57.9291H44.0467V56.6491ZM43.4067 56.6491H44.6667V64.6291H43.4067V56.6491ZM35.5867 53.4691H41.5667V54.6691H35.5867V53.4691ZM35.5867 56.4891H41.5667V57.6691H35.5867V56.4891ZM34.8467 59.5291H41.4067V60.7491H34.8467V59.5291ZM38.0667 51.1291H39.3067V60.1691H38.0667V51.1291ZM38.9067 61.7691L39.6067 61.5291C39.8467 61.9291 40.0734 62.3758 40.2867 62.8691C40.5134 63.3491 40.6734 63.7625 40.7667 64.1091L40.0067 64.4091C39.9134 64.0491 39.7601 63.6225 39.5467 63.1291C39.3467 62.6358 39.1334 62.1825 38.9067 61.7691ZM37.5467 62.0891L38.3067 61.9491C38.5067 62.4558 38.6801 63.0091 38.8267 63.6091C38.9734 64.2091 39.0667 64.7225 39.1067 65.1491L38.3067 65.3491C38.2667 64.9091 38.1734 64.3891 38.0267 63.7891C37.8934 63.1758 37.7334 62.6091 37.5467 62.0891ZM36.1267 62.2891L36.9067 62.1891C37.0267 62.7758 37.1134 63.4158 37.1667 64.1091C37.2201 64.7891 37.2401 65.3758 37.2267 65.8691L36.4067 65.9691C36.4201 65.4625 36.4001 64.8691 36.3467 64.1891C36.2934 63.5091 36.2201 62.8758 36.1267 62.2891ZM34.7067 61.9891L35.6267 62.1691C35.6001 62.7558 35.5467 63.3491 35.4667 63.9491C35.4001 64.5491 35.2934 65.1091 35.1467 65.6291C35.0001 66.1358 34.7934 66.5691 34.5267 66.9291L33.6867 66.4491C33.9267 66.1158 34.1134 65.7091 34.2467 65.2291C34.3801 64.7491 34.4801 64.2291 34.5467 63.6691C34.6267 63.1091 34.6801 62.5491 34.7067 61.9891ZM34.8467 50.4291H41.9867V51.6891H36.1267V59.9891H34.8467V50.4291ZM40.9267 59.5291H42.2067C42.2067 59.5291 42.2067 59.6025 42.2067 59.7491C42.2067 59.8958 42.2001 60.0158 42.1867 60.1091C42.1201 61.7625 42.0401 63.0958 41.9467 64.1091C41.8667 65.1091 41.7734 65.8691 41.6667 66.3891C41.5601 66.8958 41.4267 67.2491 41.2667 67.4491C41.1201 67.6358 40.9601 67.7625 40.7867 67.8291C40.6267 67.9091 40.4267 67.9558 40.1867 67.9691C40.0001 67.9958 39.7401 68.0091 39.4067 68.0091C39.0867 68.0091 38.7534 67.9958 38.4067 67.9691C38.3934 67.7958 38.3601 67.5891 38.3067 67.3491C38.2534 67.1225 38.1734 66.9291 38.0667 66.7691C38.4134 66.7958 38.7267 66.8158 39.0067 66.8291C39.2867 66.8425 39.4934 66.8491 39.6267 66.8491C39.7467 66.8491 39.8467 66.8291 39.9267 66.7891C40.0201 66.7625 40.1001 66.7025 40.1667 66.6091C40.2867 66.4758 40.3867 66.1758 40.4667 65.7091C40.5601 65.2425 40.6401 64.5291 40.7067 63.5691C40.7867 62.6091 40.8601 61.3358 40.9267 59.7491V59.5291ZM62.3067 50.5891C62.2267 50.9891 62.1201 51.4625 61.9867 52.0091C61.8667 52.5425 61.6667 53.1491 61.3867 53.8291C61.1467 54.4291 60.8467 55.0491 60.4867 55.6891C60.1401 56.3291 59.7667 56.9091 59.3667 57.4291C59.6201 57.2691 59.9067 57.1358 60.2267 57.0291C60.5467 56.9091 60.8734 56.8225 61.2067 56.7691C61.5534 56.7158 61.8667 56.6891 62.1467 56.6891C62.9201 56.6891 63.5734 56.9091 64.1067 57.3491C64.6401 57.7758 64.9067 58.4025 64.9067 59.2291C64.9067 59.4825 64.9067 59.8091 64.9067 60.2091C64.9067 60.5958 64.9067 61.0091 64.9067 61.4491C64.9201 61.8758 64.9334 62.2958 64.9467 62.7091C64.9601 63.1225 64.9667 63.4825 64.9667 63.7891H63.4267C63.4401 63.5225 63.4534 63.2091 63.4667 62.8491C63.4801 62.4891 63.4867 62.1091 63.4867 61.7091C63.5001 61.3091 63.5001 60.9291 63.4867 60.5691C63.4867 60.2091 63.4867 59.9025 63.4867 59.6491C63.4867 59.0625 63.3067 58.6358 62.9467 58.3691C62.6001 58.0891 62.1601 57.9491 61.6267 57.9491C61.0001 57.9491 60.3801 58.0891 59.7667 58.3691C59.1667 58.6358 58.6401 58.9825 58.1867 59.4091C57.8934 59.6891 57.6001 60.0091 57.3067 60.3691C57.0267 60.7158 56.7134 61.0891 56.3667 61.4891L55.0067 60.4891C55.9667 59.5558 56.7667 58.6825 57.4067 57.8691C58.0467 57.0558 58.5667 56.3025 58.9667 55.6091C59.3667 54.9025 59.6801 54.2691 59.9067 53.7091C60.1201 53.1491 60.2934 52.5891 60.4267 52.0291C60.5601 51.4558 60.6401 50.9291 60.6667 50.4491L62.3067 50.5891ZM55.4667 52.7491C56.0001 52.8158 56.5801 52.8691 57.2067 52.9091C57.8334 52.9491 58.3801 52.9691 58.8467 52.9691C59.7401 52.9691 60.7001 52.9491 61.7267 52.9091C62.7534 52.8558 63.7867 52.7825 64.8267 52.6891C65.8801 52.5958 66.8801 52.4625 67.8267 52.2891L67.8067 53.7691C67.1134 53.8891 66.3734 53.9891 65.5867 54.0691C64.8001 54.1358 64.0001 54.1958 63.1867 54.2491C62.3734 54.2891 61.5867 54.3225 60.8267 54.3491C60.0801 54.3625 59.3867 54.3691 58.7467 54.3691C58.4667 54.3691 58.1401 54.3691 57.7667 54.3691C57.4067 54.3558 57.0267 54.3425 56.6267 54.3291C56.2267 54.3025 55.8401 54.2758 55.4667 54.2491V52.7491ZM70.7467 57.5891C70.5734 57.6291 70.3801 57.6891 70.1667 57.7691C69.9667 57.8358 69.7601 57.9091 69.5467 57.9891C69.3467 58.0691 69.1534 58.1491 68.9667 58.2291C68.2734 58.4958 67.4667 58.8225 66.5467 59.2091C65.6267 59.5958 64.6867 60.0425 63.7267 60.5491C63.0601 60.8825 62.4734 61.2358 61.9667 61.6091C61.4601 61.9691 61.0601 62.3491 60.7667 62.7491C60.4734 63.1358 60.3267 63.5625 60.3267 64.0291C60.3267 64.4158 60.4134 64.7291 60.5867 64.9691C60.7734 65.2091 61.0334 65.3958 61.3667 65.5291C61.7001 65.6491 62.0801 65.7291 62.5067 65.7691C62.9467 65.8091 63.4267 65.8291 63.9467 65.8291C64.7201 65.8291 65.6001 65.7891 66.5867 65.7091C67.5867 65.6158 68.5267 65.4958 69.4067 65.3491L69.3667 66.9491C68.8601 67.0158 68.2867 67.0758 67.6467 67.1291C67.0201 67.1825 66.3801 67.2225 65.7267 67.2491C65.0867 67.2891 64.4734 67.3091 63.8867 67.3091C62.9401 67.3091 62.0734 67.2225 61.2867 67.0491C60.5134 66.8758 59.8934 66.5691 59.4267 66.1291C58.9601 65.6891 58.7267 65.0625 58.7267 64.2491C58.7267 63.6491 58.8667 63.1025 59.1467 62.6091C59.4267 62.1025 59.8001 61.6425 60.2667 61.2291C60.7467 60.8158 61.2734 60.4358 61.8467 60.0891C62.4201 59.7291 63.0067 59.4025 63.6067 59.1091C64.2467 58.7625 64.8467 58.4625 65.4067 58.2091C65.9801 57.9558 66.5201 57.7225 67.0267 57.5091C67.5334 57.2958 68.0067 57.0825 68.4467 56.8691C68.7401 56.7358 69.0201 56.6091 69.2867 56.4891C69.5534 56.3691 69.8201 56.2358 70.0867 56.0891L70.7467 57.5891ZM75.0067 51.2491H87.8267V52.7891H75.0067V51.2491ZM87.6267 51.2491H87.9067L88.2667 51.1491L89.3267 51.9091C89.2867 51.9491 89.2401 51.9891 89.1867 52.0291C89.1334 52.0691 89.0734 52.1091 89.0067 52.1491C87.0467 53.7358 85.3734 55.1225 83.9867 56.3091C82.6001 57.4825 81.4467 58.4891 80.5267 59.3291C79.6067 60.1558 78.8734 60.8491 78.3267 61.4091C77.7934 61.9691 77.3934 62.4291 77.1267 62.7891C76.8734 63.1491 76.7067 63.4425 76.6267 63.6691C76.5601 63.8958 76.5267 64.0958 76.5267 64.2691C76.5267 64.7491 76.7534 65.1025 77.2067 65.3291C77.6734 65.5558 78.2934 65.6691 79.0667 65.6691H88.3867C88.8667 65.6691 89.2401 65.5625 89.5067 65.3491C89.7734 65.1225 89.9667 64.7158 90.0867 64.1291C90.2201 63.5291 90.3067 62.6625 90.3467 61.5291C90.5601 61.6358 90.8067 61.7425 91.0867 61.8491C91.3801 61.9425 91.6401 62.0158 91.8667 62.0691C91.8134 63.1091 91.7067 63.9691 91.5467 64.6491C91.4001 65.3158 91.1867 65.8358 90.9067 66.2091C90.6401 66.5825 90.2867 66.8425 89.8467 66.9891C89.4201 67.1358 88.8934 67.2091 88.2667 67.2091H79.2467C77.7801 67.2091 76.6867 66.9558 75.9667 66.4491C75.2601 65.9558 74.9067 65.2691 74.9067 64.3891C74.9067 64.1358 74.9401 63.8625 75.0067 63.5691C75.0867 63.2625 75.2534 62.9025 75.5067 62.4891C75.7601 62.0758 76.1601 61.5691 76.7067 60.9691C77.2534 60.3558 77.9934 59.6091 78.9267 58.7291C79.8601 57.8491 81.0334 56.7958 82.4467 55.5691C83.8734 54.3425 85.6001 52.9025 87.6267 51.2491ZM102.227 52.9091C102.773 52.9891 103.407 53.0558 104.127 53.1091C104.86 53.1491 105.613 53.1691 106.387 53.1691C107.173 53.1558 107.92 53.1291 108.627 53.0891C109.347 53.0358 109.953 52.9691 110.447 52.8891V54.5091C109.913 54.5625 109.287 54.6091 108.567 54.6491C107.86 54.6758 107.12 54.6891 106.347 54.6891C105.587 54.6891 104.847 54.6758 104.127 54.6491C103.407 54.6091 102.773 54.5625 102.227 54.5091V52.9091ZM103.007 61.0491C102.913 61.4091 102.84 61.7358 102.787 62.0291C102.733 62.3225 102.707 62.6091 102.707 62.8891C102.707 63.1158 102.753 63.3425 102.847 63.5691C102.953 63.7825 103.127 63.9758 103.367 64.1491C103.62 64.3091 103.967 64.4425 104.407 64.5491C104.847 64.6425 105.407 64.6891 106.087 64.6891C106.993 64.6891 107.847 64.6491 108.647 64.5691C109.447 64.4758 110.247 64.3425 111.047 64.1691L111.087 65.8491C110.46 65.9825 109.727 66.0891 108.887 66.1691C108.06 66.2358 107.127 66.2691 106.087 66.2691C104.407 66.2691 103.173 66.0025 102.387 65.4691C101.613 64.9358 101.227 64.2025 101.227 63.2691C101.227 62.9358 101.253 62.5825 101.307 62.2091C101.373 61.8225 101.46 61.3891 101.567 60.9091L103.007 61.0491ZM98.4067 51.3691C98.3801 51.4758 98.3401 51.6158 98.2867 51.7891C98.2467 51.9491 98.2001 52.1158 98.1467 52.2891C98.1067 52.4491 98.0734 52.5891 98.0467 52.7091C97.9801 53.0825 97.9001 53.5158 97.8067 54.0091C97.7134 54.4891 97.6201 55.0091 97.5267 55.5691C97.4467 56.1158 97.3667 56.6758 97.2867 57.2491C97.2201 57.8091 97.1601 58.3558 97.1067 58.8891C97.0667 59.4225 97.0467 59.9158 97.0467 60.3691C97.0467 60.8625 97.0601 61.3291 97.0867 61.7691C97.1267 62.2091 97.1734 62.6758 97.2267 63.1691C97.3467 62.8625 97.4734 62.5358 97.6067 62.1891C97.7401 61.8425 97.8734 61.5025 98.0067 61.1691C98.1534 60.8225 98.2801 60.5158 98.3867 60.2491L99.2267 60.8891C99.0534 61.3691 98.8667 61.8958 98.6667 62.4691C98.4667 63.0425 98.2867 63.5958 98.1267 64.1291C97.9801 64.6491 97.8734 65.0625 97.8067 65.3691C97.7801 65.5158 97.7534 65.6758 97.7267 65.8491C97.7001 66.0225 97.6934 66.1625 97.7067 66.2691C97.7201 66.3758 97.7267 66.4891 97.7267 66.6091C97.7401 66.7425 97.7534 66.8625 97.7667 66.9691L96.3267 67.0691C96.1267 66.3625 95.9534 65.4558 95.8067 64.3491C95.6601 63.2291 95.5867 61.9958 95.5867 60.6491C95.5867 59.9158 95.6201 59.1691 95.6867 58.4091C95.7534 57.6358 95.8401 56.8891 95.9467 56.1691C96.0534 55.4358 96.1534 54.7691 96.2467 54.1691C96.3534 53.5558 96.4334 53.0425 96.4867 52.6291C96.5267 52.3891 96.5601 52.1491 96.5867 51.9091C96.6134 51.6558 96.6267 51.4225 96.6267 51.2091L98.4067 51.3691ZM121.607 50.2491L122.867 49.7491C123.133 50.1491 123.4 50.5958 123.667 51.0891C123.947 51.5691 124.2 52.0358 124.427 52.4891C124.667 52.9425 124.853 53.3491 124.987 53.7091L123.647 54.3291C123.527 53.9691 123.353 53.5558 123.127 53.0891C122.9 52.6091 122.653 52.1225 122.387 51.6291C122.12 51.1358 121.86 50.6758 121.607 50.2491ZM129.507 49.6091L130.967 50.1291C130.647 50.8358 130.3 51.5625 129.927 52.3091C129.567 53.0558 129.22 53.7025 128.887 54.2491L127.587 53.7491C127.8 53.3758 128.027 52.9491 128.267 52.4691C128.52 51.9758 128.753 51.4825 128.967 50.9891C129.18 50.4825 129.36 50.0225 129.507 49.6091ZM120.487 54.2091H131.987V55.6291H120.487V54.2091ZM126.167 59.5891H131.427V60.9891H126.167V59.5891ZM122.307 61.3091C122.667 62.6558 123.147 63.6825 123.747 64.3891C124.36 65.0958 125.08 65.5825 125.907 65.8491C126.747 66.1025 127.68 66.2291 128.707 66.2291C128.8 66.2291 128.96 66.2291 129.187 66.2291C129.427 66.2291 129.707 66.2291 130.027 66.2291C130.347 66.2291 130.667 66.2291 130.987 66.2291C131.32 66.2291 131.613 66.2291 131.867 66.2291C132.133 66.2158 132.327 66.2091 132.447 66.2091C132.38 66.3291 132.313 66.4758 132.247 66.6491C132.18 66.8225 132.12 66.9958 132.067 67.1691C132.027 67.3558 131.993 67.5158 131.967 67.6491H131.207H128.607C127.687 67.6491 126.84 67.5625 126.067 67.3891C125.293 67.2291 124.6 66.9358 123.987 66.5091C123.373 66.0825 122.827 65.4891 122.347 64.7291C121.88 63.9558 121.487 62.9691 121.167 61.7691L122.307 61.3091ZM125.487 54.6691H126.947V66.8291L125.487 66.1691V54.6691ZM121.407 58.2091L122.907 58.3291C122.747 60.4758 122.427 62.3691 121.947 64.0091C121.48 65.6358 120.727 66.9958 119.687 68.0891C119.62 67.9958 119.513 67.8825 119.367 67.7491C119.233 67.6158 119.087 67.4825 118.927 67.3491C118.767 67.2291 118.633 67.1358 118.527 67.0691C119.18 66.4291 119.7 65.6625 120.087 64.7691C120.487 63.8758 120.787 62.8825 120.987 61.7891C121.2 60.6825 121.34 59.4891 121.407 58.2091ZM118.467 53.6891L119.807 54.1691C119.353 54.9691 118.827 55.7625 118.227 56.5491C117.64 57.3225 117.013 58.0558 116.347 58.7491C115.693 59.4425 115.04 60.0558 114.387 60.5891C114.333 60.4825 114.253 60.3491 114.147 60.1891C114.053 60.0158 113.947 59.8425 113.827 59.6691C113.72 59.4958 113.62 59.3625 113.527 59.2691C114.14 58.8025 114.747 58.2758 115.347 57.6891C115.96 57.0891 116.533 56.4491 117.067 55.7691C117.6 55.0758 118.067 54.3825 118.467 53.6891ZM117.987 49.6091L119.347 50.1491C118.96 50.6958 118.5 51.2625 117.967 51.8491C117.447 52.4358 116.893 52.9891 116.307 53.5091C115.733 54.0291 115.16 54.4958 114.587 54.9091C114.533 54.8025 114.453 54.6825 114.347 54.5491C114.253 54.4158 114.153 54.2825 114.047 54.1491C113.94 54.0025 113.847 53.8891 113.767 53.8091C114.287 53.4491 114.813 53.0358 115.347 52.5691C115.893 52.0891 116.4 51.5958 116.867 51.0891C117.333 50.5825 117.707 50.0891 117.987 49.6091ZM116.647 57.4091L117.867 56.1691L118.067 56.2691V68.0691H116.647V57.4091ZM137.567 52.4491C137.54 52.6091 137.513 52.8091 137.487 53.0491C137.473 53.2891 137.453 53.5291 137.427 53.7691C137.413 54.0091 137.407 54.2158 137.407 54.3891C137.393 54.8025 137.387 55.2758 137.387 55.8091C137.4 56.3291 137.413 56.8758 137.427 57.4491C137.453 58.0091 137.493 58.5691 137.547 59.1291C137.653 60.2358 137.833 61.2091 138.087 62.0491C138.34 62.8758 138.647 63.5225 139.007 63.9891C139.38 64.4558 139.8 64.6891 140.267 64.6891C140.52 64.6891 140.767 64.5758 141.007 64.3491C141.247 64.1091 141.473 63.7958 141.687 63.4091C141.913 63.0091 142.113 62.5691 142.287 62.0891C142.473 61.5958 142.627 61.1025 142.747 60.6091L144.007 62.0291C143.607 63.1625 143.2 64.0625 142.787 64.7291C142.387 65.3825 141.973 65.8558 141.547 66.1491C141.133 66.4425 140.7 66.5891 140.247 66.5891C139.62 66.5891 139.013 66.3625 138.427 65.9091C137.84 65.4425 137.333 64.6958 136.907 63.6691C136.48 62.6291 136.173 61.2491 135.987 59.5291C135.92 58.9425 135.867 58.3091 135.827 57.6291C135.8 56.9491 135.78 56.3025 135.767 55.6891C135.767 55.0758 135.767 54.5758 135.767 54.1891C135.767 53.9625 135.76 53.6691 135.747 53.3091C135.733 52.9491 135.693 52.6491 135.627 52.4091L137.567 52.4491ZM147.987 53.0091C148.347 53.4625 148.687 53.9958 149.007 54.6091C149.34 55.2091 149.64 55.8558 149.907 56.5491C150.187 57.2291 150.433 57.9358 150.647 58.6691C150.873 59.4025 151.053 60.1358 151.187 60.8691C151.333 61.5891 151.44 62.2825 151.507 62.9491L149.907 63.6091C149.827 62.7025 149.687 61.7825 149.487 60.8491C149.287 59.9025 149.04 58.9891 148.747 58.1091C148.453 57.2158 148.113 56.3758 147.727 55.5891C147.34 54.8025 146.907 54.1225 146.427 53.5491L147.987 53.0091ZM161.087 57.2891H172.067V60.8291H170.667V58.5091H162.447V60.8291H161.087V57.2891ZM167.487 59.8491H168.907V65.8691C168.907 66.1091 168.933 66.2625 168.987 66.3291C169.04 66.3958 169.173 66.4291 169.387 66.4291C169.453 66.4291 169.573 66.4291 169.747 66.4291C169.933 66.4291 170.12 66.4291 170.307 66.4291C170.493 66.4291 170.627 66.4291 170.707 66.4291C170.853 66.4291 170.96 66.3691 171.027 66.2491C171.107 66.1291 171.16 65.8825 171.187 65.5091C171.227 65.1225 171.253 64.5491 171.267 63.7891C171.373 63.8691 171.5 63.9491 171.647 64.0291C171.793 64.0958 171.947 64.1625 172.107 64.2291C172.267 64.2825 172.413 64.3291 172.547 64.3691C172.507 65.2625 172.427 65.9558 172.307 66.4491C172.2 66.9558 172.033 67.3025 171.807 67.4891C171.58 67.6758 171.267 67.7691 170.867 67.7691C170.8 67.7691 170.687 67.7691 170.527 67.7691C170.367 67.7691 170.193 67.7691 170.007 67.7691C169.833 67.7691 169.667 67.7691 169.507 67.7691C169.36 67.7691 169.253 67.7691 169.187 67.7691C168.733 67.7691 168.38 67.7091 168.127 67.5891C167.887 67.4825 167.72 67.2891 167.627 67.0091C167.533 66.7425 167.487 66.3625 167.487 65.8691V59.8491ZM164.047 59.8291H165.467C165.413 60.9091 165.32 61.8825 165.187 62.7491C165.053 63.6025 164.833 64.3625 164.527 65.0291C164.22 65.6825 163.787 66.2558 163.227 66.7491C162.68 67.2558 161.96 67.6825 161.067 68.0291C161.013 67.9091 160.933 67.7758 160.827 67.6291C160.733 67.4825 160.627 67.3358 160.507 67.1891C160.4 67.0558 160.293 66.9425 160.187 66.8491C161 66.5558 161.653 66.2025 162.147 65.7891C162.64 65.3758 163.013 64.8891 163.267 64.3291C163.533 63.7558 163.72 63.1025 163.827 62.3691C163.933 61.6225 164.007 60.7758 164.047 59.8291ZM161.167 51.4091H171.987V52.6691H161.167V51.4091ZM161.827 54.5491H171.387V55.8091H161.827V54.5491ZM165.727 49.5891H167.207V55.2091H165.727V49.5891ZM154.727 55.6691H160.127V56.8491H154.727V55.6691ZM154.847 50.3091H160.067V51.5091H154.847V50.3091ZM154.727 58.3291H160.127V59.5291H154.727V58.3291ZM153.867 52.9291H160.687V54.1891H153.867V52.9291ZM155.427 61.0291H160.147V66.8491H155.427V65.6091H158.867V62.2691H155.427V61.0291ZM154.707 61.0291H155.987V67.7891H154.707V61.0291ZM186.487 50.9291C186.447 51.0891 186.407 51.2691 186.367 51.4691C186.327 51.6558 186.287 51.8425 186.247 52.0291C186.22 52.2158 186.187 52.3691 186.147 52.4891C185.96 53.3291 185.733 54.1958 185.467 55.0891C185.213 55.9825 184.927 56.8691 184.607 57.7491C184.287 58.6291 183.94 59.4491 183.567 60.2091C183.207 60.9691 182.827 61.6291 182.427 62.1891C181.92 62.8825 181.407 63.5091 180.887 64.0691C180.38 64.6158 179.86 65.0425 179.327 65.3491C178.793 65.6558 178.22 65.8091 177.607 65.8091C177.113 65.8091 176.653 65.6691 176.227 65.3891C175.8 65.1091 175.46 64.7025 175.207 64.1691C174.953 63.6358 174.827 62.9825 174.827 62.2091C174.827 61.3691 174.98 60.5291 175.287 59.6891C175.607 58.8491 176.04 58.0758 176.587 57.3691C177.147 56.6625 177.773 56.0758 178.467 55.6091C179.453 54.9291 180.447 54.4491 181.447 54.1691C182.447 53.8891 183.453 53.7491 184.467 53.7491C185.773 53.7491 186.933 54.0225 187.947 54.5691C188.973 55.1158 189.773 55.8825 190.347 56.8691C190.933 57.8425 191.227 58.9825 191.227 60.2891C191.227 61.6091 190.927 62.7625 190.327 63.7491C189.74 64.7225 188.907 65.5091 187.827 66.1091C186.76 66.6958 185.513 67.0891 184.087 67.2891L183.147 65.8691C184.2 65.7758 185.127 65.5758 185.927 65.2691C186.74 64.9625 187.42 64.5625 187.967 64.0691C188.513 63.5758 188.927 63.0025 189.207 62.3491C189.5 61.6958 189.647 60.9891 189.647 60.2291C189.647 59.2425 189.427 58.3691 188.987 57.6091C188.547 56.8358 187.92 56.2291 187.107 55.7891C186.307 55.3491 185.373 55.1291 184.307 55.1291C183.333 55.1291 182.407 55.2891 181.527 55.6091C180.66 55.9158 179.833 56.3558 179.047 56.9291C178.487 57.3291 178 57.8225 177.587 58.4091C177.173 58.9958 176.847 59.6091 176.607 60.2491C176.38 60.8758 176.267 61.4891 176.267 62.0891C176.267 62.7558 176.4 63.2825 176.667 63.6691C176.947 64.0425 177.313 64.2291 177.767 64.2291C178.087 64.2291 178.413 64.1358 178.747 63.9491C179.08 63.7491 179.407 63.4891 179.727 63.1691C180.047 62.8491 180.353 62.4958 180.647 62.1091C180.953 61.7091 181.227 61.3091 181.467 60.9091C181.8 60.3891 182.127 59.7891 182.447 59.1091C182.767 58.4291 183.067 57.7025 183.347 56.9291C183.64 56.1425 183.893 55.3558 184.107 54.5691C184.333 53.7691 184.513 53.0091 184.647 52.2891C184.687 52.0891 184.713 51.8425 184.727 51.5491C184.753 51.2558 184.767 50.9958 184.767 50.7691L186.487 50.9291ZM178.307 51.8291C178.36 52.1091 178.42 52.4091 178.487 52.7291C178.567 53.0358 178.64 53.3291 178.707 53.6091C178.84 54.0891 179.007 54.6291 179.207 55.2291C179.407 55.8291 179.613 56.4291 179.827 57.0291C180.053 57.6291 180.287 58.1958 180.527 58.7291C180.767 59.2491 180.993 59.6825 181.207 60.0291C181.553 60.6158 181.947 61.2158 182.387 61.8291C182.827 62.4425 183.287 62.9758 183.767 63.4291L182.507 64.4691C182.107 64.0158 181.72 63.5358 181.347 63.0291C180.973 62.5225 180.6 61.9425 180.227 61.2891C179.973 60.9025 179.72 60.4358 179.467 59.8891C179.213 59.3291 178.953 58.7291 178.687 58.0891C178.433 57.4491 178.187 56.7958 177.947 56.1291C177.707 55.4491 177.493 54.7958 177.307 54.1691C177.213 53.8491 177.107 53.5358 176.987 53.2291C176.88 52.9091 176.767 52.6225 176.647 52.3691L178.307 51.8291Z" fill="black"/>
<path d="M14.3467 80.2627H31.9467V81.8027H14.3467V80.2627ZM24.0867 80.8827C24.5401 82.496 25.1334 84.0027 25.8667 85.4027C26.6134 86.7894 27.5201 88.0027 28.5867 89.0427C29.6667 90.0827 30.8934 90.896 32.2667 91.4827C32.1467 91.5894 32.0134 91.7227 31.8667 91.8827C31.7334 92.056 31.6001 92.2294 31.4667 92.4027C31.3334 92.576 31.2267 92.736 31.1467 92.8827C29.7067 92.1894 28.4334 91.276 27.3267 90.1427C26.2334 89.0094 25.3001 87.6894 24.5267 86.1827C23.7534 84.676 23.1134 83.0294 22.6067 81.2427L24.0867 80.8827ZM22.3267 74.5427H23.9467C23.9467 75.4094 23.9201 76.376 23.8667 77.4427C23.8267 78.496 23.7267 79.596 23.5667 80.7427C23.4067 81.876 23.1401 83.0227 22.7667 84.1827C22.4067 85.3294 21.9001 86.4427 21.2467 87.5227C20.6067 88.5894 19.7867 89.5827 18.7867 90.5027C17.7867 91.4227 16.5601 92.216 15.1067 92.8827C14.9867 92.6827 14.8134 92.4627 14.5867 92.2227C14.3734 91.996 14.1667 91.8027 13.9667 91.6427C15.3801 91.0294 16.5667 90.296 17.5267 89.4427C18.5001 88.5894 19.2934 87.656 19.9067 86.6427C20.5201 85.6294 20.9934 84.5827 21.3267 83.5027C21.6601 82.4227 21.8934 81.3494 22.0267 80.2827C22.1601 79.2027 22.2401 78.176 22.2667 77.2027C22.3067 76.2294 22.3267 75.3427 22.3267 74.5427ZM44.1067 77.7227H50.9667V79.1427H44.1067V77.7227ZM50.5267 77.7227H51.9267C51.9267 77.7227 51.9267 77.776 51.9267 77.8827C51.9267 77.9894 51.9267 78.1094 51.9267 78.2427C51.9267 78.3627 51.9201 78.4494 51.9067 78.5027C51.8667 80.8894 51.8201 82.9027 51.7667 84.5427C51.7134 86.1694 51.6534 87.5027 51.5867 88.5427C51.5201 89.5694 51.4267 90.3627 51.3067 90.9227C51.2001 91.4827 51.0667 91.876 50.9067 92.1027C50.7201 92.3827 50.5134 92.5694 50.2867 92.6627C50.0601 92.7694 49.7934 92.8427 49.4867 92.8827C49.1801 92.9227 48.7867 92.9427 48.3067 92.9427C47.8267 92.9427 47.3401 92.9227 46.8467 92.8827C46.8334 92.6827 46.7867 92.4427 46.7067 92.1627C46.6267 91.896 46.5267 91.6627 46.4067 91.4627C46.9401 91.516 47.4334 91.5427 47.8867 91.5427C48.3534 91.556 48.6867 91.5627 48.8867 91.5627C49.0601 91.5627 49.2001 91.5427 49.3067 91.5027C49.4267 91.4627 49.5334 91.3694 49.6267 91.2227C49.7601 91.0627 49.8734 90.716 49.9667 90.1827C50.0601 89.6494 50.1401 88.876 50.2067 87.8627C50.2734 86.8494 50.3267 85.5427 50.3667 83.9427C50.4201 82.3427 50.4734 80.3894 50.5267 78.0827V77.7227ZM44.4867 74.5427L45.9667 74.8627C45.7401 75.7694 45.4601 76.6627 45.1267 77.5427C44.8067 78.4227 44.4467 79.2494 44.0467 80.0227C43.6601 80.796 43.2467 81.476 42.8067 82.0627C42.7134 81.9827 42.5867 81.8894 42.4267 81.7827C42.2801 81.6627 42.1267 81.5494 41.9667 81.4427C41.8067 81.3227 41.6667 81.2294 41.5467 81.1627C42.2134 80.3494 42.7934 79.356 43.2867 78.1827C43.7801 77.0094 44.1801 75.796 44.4867 74.5427ZM44.0467 81.5627H48.5067V88.1027H44.0467V86.8227H47.2467V82.8427H44.0467V81.5627ZM43.4067 81.5627H44.6667V89.5427H43.4067V81.5627ZM35.5867 78.3827H41.5667V79.5827H35.5867V78.3827ZM35.5867 81.4027H41.5667V82.5827H35.5867V81.4027ZM34.8467 84.4427H41.4067V85.6627H34.8467V84.4427ZM38.0667 76.0427H39.3067V85.0827H38.0667V76.0427ZM38.9067 86.6827L39.6067 86.4427C39.8467 86.8427 40.0734 87.2894 40.2867 87.7827C40.5134 88.2627 40.6734 88.676 40.7667 89.0227L40.0067 89.3227C39.9134 88.9627 39.7601 88.536 39.5467 88.0427C39.3467 87.5494 39.1334 87.096 38.9067 86.6827ZM37.5467 87.0027L38.3067 86.8627C38.5067 87.3694 38.6801 87.9227 38.8267 88.5227C38.9734 89.1227 39.0667 89.636 39.1067 90.0627L38.3067 90.2627C38.2667 89.8227 38.1734 89.3027 38.0267 88.7027C37.8934 88.0894 37.7334 87.5227 37.5467 87.0027ZM36.1267 87.2027L36.9067 87.1027C37.0267 87.6894 37.1134 88.3294 37.1667 89.0227C37.2201 89.7027 37.2401 90.2894 37.2267 90.7827L36.4067 90.8827C36.4201 90.376 36.4001 89.7827 36.3467 89.1027C36.2934 88.4227 36.2201 87.7894 36.1267 87.2027ZM34.7067 86.9027L35.6267 87.0827C35.6001 87.6694 35.5467 88.2627 35.4667 88.8627C35.4001 89.4627 35.2934 90.0227 35.1467 90.5427C35.0001 91.0494 34.7934 91.4827 34.5267 91.8427L33.6867 91.3627C33.9267 91.0294 34.1134 90.6227 34.2467 90.1427C34.3801 89.6627 34.4801 89.1427 34.5467 88.5827C34.6267 88.0227 34.6801 87.4627 34.7067 86.9027ZM34.8467 75.3427H41.9867V76.6027H36.1267V84.9027H34.8467V75.3427ZM40.9267 84.4427H42.2067C42.2067 84.4427 42.2067 84.516 42.2067 84.6627C42.2067 84.8094 42.2001 84.9294 42.1867 85.0227C42.1201 86.676 42.0401 88.0094 41.9467 89.0227C41.8667 90.0227 41.7734 90.7827 41.6667 91.3027C41.5601 91.8094 41.4267 92.1627 41.2667 92.3627C41.1201 92.5494 40.9601 92.676 40.7867 92.7427C40.6267 92.8227 40.4267 92.8694 40.1867 92.8827C40.0001 92.9094 39.7401 92.9227 39.4067 92.9227C39.0867 92.9227 38.7534 92.9094 38.4067 92.8827C38.3934 92.7094 38.3601 92.5027 38.3067 92.2627C38.2534 92.036 38.1734 91.8427 38.0667 91.6827C38.4134 91.7094 38.7267 91.7294 39.0067 91.7427C39.2867 91.756 39.4934 91.7627 39.6267 91.7627C39.7467 91.7627 39.8467 91.7427 39.9267 91.7027C40.0201 91.676 40.1001 91.616 40.1667 91.5227C40.2867 91.3894 40.3867 91.0894 40.4667 90.6227C40.5601 90.156 40.6401 89.4427 40.7067 88.4827C40.7867 87.5227 40.8601 86.2494 40.9267 84.6627V84.4427ZM55.8624 91.4363C55.512 91.4363 55.2114 91.3109 54.9604 91.0599C54.7095 90.809 54.584 90.5083 54.584 90.1579C54.584 89.8075 54.7095 89.5069 54.9604 89.2559C55.2114 89.005 55.512 88.8795 55.8624 88.8795C56.2128 88.8795 56.5134 89.005 56.7644 89.2559C57.0153 89.5069 57.1408 89.8075 57.1408 90.1579C57.1408 90.3899 57.0816 90.603 56.9633 90.7971C56.8496 90.9913 56.6957 91.1475 56.5016 91.2659C56.3122 91.3795 56.0991 91.4363 55.8624 91.4363ZM61.3702 91.4363C61.0198 91.4363 60.7192 91.3109 60.4682 91.0599C60.2173 90.809 60.0918 90.5083 60.0918 90.1579C60.0918 89.8075 60.2173 89.5069 60.4682 89.2559C60.7192 89.005 61.0198 88.8795 61.3702 88.8795C61.7206 88.8795 62.0213 89.005 62.2722 89.2559C62.5231 89.5069 62.6486 89.8075 62.6486 90.1579C62.6486 90.3899 62.5894 90.603 62.4711 90.7971C62.3574 90.9913 62.2035 91.1475 62.0094 91.2659C61.82 91.3795 61.607 91.4363 61.3702 91.4363ZM66.878 91.4363C66.5276 91.4363 66.227 91.3109 65.976 91.0599C65.7251 90.809 65.5996 90.5083 65.5996 90.1579C65.5996 89.8075 65.7251 89.5069 65.976 89.2559C66.227 89.005 66.5276 88.8795 66.878 88.8795C67.2284 88.8795 67.5291 89.005 67.78 89.2559C68.031 89.5069 68.1564 89.8075 68.1564 90.1579C68.1564 90.3899 68.0973 90.603 67.9789 90.7971C67.8652 90.9913 67.7114 91.1475 67.5172 91.2659C67.3278 91.3795 67.1148 91.4363 66.878 91.4363ZM71.7608 85.1863C71.7608 83.3966 71.9928 81.7512 72.4569 80.2502C72.9256 78.7446 73.5932 77.3596 74.4597 76.0954H75.937C75.5961 76.5642 75.2765 77.1418 74.9782 77.8284C74.6846 78.5102 74.4266 79.2607 74.204 80.0798C73.9815 80.8942 73.8063 81.737 73.6785 82.6082C73.5553 83.4794 73.4938 84.3388 73.4938 85.1863C73.4938 86.3132 73.6027 87.4567 73.8205 88.6167C74.0383 89.7768 74.3319 90.8539 74.7012 91.8483C75.0705 92.8426 75.4824 93.6522 75.937 94.2772H74.4597C73.5932 93.013 72.9256 91.6305 72.4569 90.1295C71.9928 88.6238 71.7608 86.9761 71.7608 85.1863ZM85.4763 77.5627H86.9363V92.7227H85.4763V77.5627ZM79.0163 75.5427H90.6963V76.9027H79.0163V75.5427ZM77.8363 83.0627H90.8763V84.4227H77.8363V83.0627ZM80.7563 79.5827H82.1763V83.2627C82.1763 84.0627 82.1363 84.8894 82.0563 85.7427C81.9896 86.5827 81.8363 87.4227 81.5963 88.2627C81.3696 89.0894 81.0229 89.9027 80.5563 90.7027C80.0896 91.5027 79.4629 92.2494 78.6763 92.9427C78.5963 92.836 78.4896 92.716 78.3563 92.5827C78.2229 92.4627 78.0829 92.3427 77.9363 92.2227C77.8029 92.1027 77.6696 92.0094 77.5363 91.9427C78.2696 91.3027 78.8496 90.6227 79.2763 89.9027C79.7163 89.1827 80.0363 88.4494 80.2363 87.7027C80.4496 86.9427 80.5896 86.1894 80.6563 85.4427C80.7229 84.6827 80.7563 83.9494 80.7563 83.2427V79.5827ZM94.1963 75.0427L95.4763 75.7227C95.1296 76.1094 94.7763 76.496 94.4163 76.8827C94.0696 77.256 93.7496 77.5827 93.4563 77.8627L92.5363 77.3227C92.8029 77.016 93.0963 76.6427 93.4163 76.2027C93.7496 75.7627 94.0096 75.376 94.1963 75.0427ZM91.1163 78.2227L91.9763 77.3827C92.3896 77.5694 92.8229 77.7894 93.2763 78.0427C93.7429 78.296 94.1829 78.556 94.5963 78.8227C95.0229 79.076 95.3696 79.316 95.6363 79.5427L94.7363 80.5227C94.4829 80.2827 94.1496 80.0294 93.7363 79.7627C93.3363 79.4827 92.9029 79.2094 92.4363 78.9427C91.9829 78.6627 91.5429 78.4227 91.1163 78.2227ZM94.2963 84.0427L95.5763 84.7027C95.2029 85.0894 94.8296 85.476 94.4563 85.8627C94.0829 86.2494 93.7429 86.576 93.4363 86.8427L92.5163 86.3027C92.7163 86.1027 92.9229 85.8694 93.1363 85.6027C93.3629 85.3227 93.5763 85.0427 93.7763 84.7627C93.9896 84.4827 94.1629 84.2427 94.2963 84.0427ZM91.1363 87.1827L91.9963 86.3427C92.4363 86.5294 92.8963 86.756 93.3763 87.0227C93.8696 87.276 94.3296 87.5427 94.7563 87.8227C95.1963 88.0894 95.5563 88.336 95.8363 88.5627L94.9563 89.5427C94.6763 89.3027 94.3229 89.0427 93.8963 88.7627C93.4696 88.4694 93.0163 88.1894 92.5363 87.9227C92.0563 87.6427 91.5896 87.396 91.1363 87.1827ZM82.9363 77.6427L84.2163 78.1627C83.7496 78.5894 83.1896 79.0094 82.5363 79.4227C81.8963 79.8227 81.2229 80.196 80.5163 80.5427C79.8096 80.876 79.1229 81.1694 78.4563 81.4227C78.4029 81.316 78.3229 81.1894 78.2163 81.0427C78.1096 80.896 77.9963 80.7494 77.8763 80.6027C77.7696 80.456 77.6629 80.336 77.5563 80.2427C78.2096 80.0427 78.8696 79.8094 79.5363 79.5427C80.2029 79.276 80.8296 78.9827 81.4163 78.6627C82.0163 78.3427 82.5229 78.0027 82.9363 77.6427ZM89.7563 75.5427H91.1363C91.1896 76.396 91.2829 77.216 91.4163 78.0027C91.5629 78.7894 91.7629 79.5027 92.0163 80.1427C92.2829 80.7694 92.6229 81.276 93.0363 81.6627C93.4629 82.036 93.9896 82.2427 94.6163 82.2827C94.7496 82.296 94.8563 82.1694 94.9363 81.9027C95.0296 81.636 95.0896 81.2427 95.1163 80.7227C95.2629 80.8694 95.4163 81.016 95.5763 81.1627C95.7496 81.3094 95.9096 81.4294 96.0563 81.5227C95.9363 82.336 95.7363 82.916 95.4563 83.2627C95.1896 83.596 94.8096 83.716 94.3163 83.6227C93.4496 83.516 92.7296 83.2294 92.1563 82.7627C91.5963 82.2827 91.1563 81.676 90.8363 80.9427C90.5163 80.196 90.2763 79.3627 90.1163 78.4427C89.9563 77.5094 89.8363 76.5427 89.7563 75.5427ZM89.9563 83.0627H91.3763C91.4029 84.156 91.4629 85.2027 91.5563 86.2027C91.6629 87.2027 91.8363 88.096 92.0763 88.8827C92.3163 89.656 92.6496 90.2827 93.0763 90.7627C93.5029 91.2427 94.0563 91.5094 94.7363 91.5627C94.8696 91.576 94.9829 91.4027 95.0763 91.0427C95.1696 90.6827 95.2429 90.1694 95.2963 89.5027C95.4296 89.6627 95.5829 89.8227 95.7563 89.9827C95.9296 90.1294 96.0896 90.2494 96.2363 90.3427C96.1296 91.356 95.9363 92.0627 95.6563 92.4627C95.3763 92.8627 94.9629 93.016 94.4163 92.9227C93.6563 92.8294 93.0163 92.5894 92.4963 92.2027C91.9896 91.8294 91.5763 91.336 91.2563 90.7227C90.9363 90.096 90.6829 89.3827 90.4963 88.5827C90.3229 87.7694 90.1963 86.896 90.1163 85.9627C90.0496 85.0294 89.9963 84.0627 89.9563 83.0627ZM98.5363 76.3427H115.216V77.7227H98.5363V76.3427ZM97.9363 88.6227H115.896V90.0027H97.9363V88.6227ZM106.056 74.5427H107.596V92.9827H106.056V74.5427ZM101.476 83.6827V85.7427H112.296V83.6827H101.476ZM101.476 80.4627V82.5027H112.296V80.4627H101.476ZM100.036 79.2027H113.796V87.0027H100.036V79.2027ZM122.336 92.4427C121.91 91.9094 121.443 91.376 120.936 90.8427C120.43 90.3094 119.916 89.796 119.396 89.3027C118.89 88.8094 118.396 88.3694 117.916 87.9827L119.216 86.8427C119.696 87.2294 120.203 87.676 120.736 88.1827C121.27 88.6894 121.79 89.2094 122.296 89.7427C122.816 90.276 123.283 90.7894 123.696 91.2827L122.336 92.4427ZM141.536 79.1027H153.616V80.4427H141.536V79.1027ZM141.536 83.1027H153.376V84.4027H141.536V83.1027ZM141.176 87.1827H153.436V88.5027H141.176V87.1827ZM140.696 79.1027H142.176V84.1227C142.176 84.8294 142.13 85.576 142.036 86.3627C141.956 87.1494 141.79 87.9427 141.536 88.7427C141.283 89.5294 140.916 90.2894 140.436 91.0227C139.97 91.756 139.356 92.4227 138.596 93.0227C138.516 92.916 138.41 92.7894 138.276 92.6427C138.156 92.5094 138.03 92.376 137.896 92.2427C137.763 92.1094 137.643 92.0094 137.536 91.9427C138.256 91.396 138.823 90.8027 139.236 90.1627C139.663 89.5094 139.976 88.8427 140.176 88.1627C140.39 87.4694 140.53 86.776 140.596 86.0827C140.663 85.3894 140.696 84.7294 140.696 84.1027V79.1027ZM152.816 79.1027H154.296V91.0227C154.296 91.5027 154.223 91.8694 154.076 92.1227C153.93 92.3894 153.67 92.5827 153.296 92.7027C152.91 92.8094 152.383 92.876 151.716 92.9027C151.05 92.9427 150.21 92.9627 149.196 92.9627C149.17 92.8294 149.123 92.6694 149.056 92.4827C149.003 92.3094 148.936 92.136 148.856 91.9627C148.776 91.7894 148.696 91.636 148.616 91.5027C149.163 91.516 149.683 91.5227 150.176 91.5227C150.67 91.536 151.103 91.536 151.476 91.5227C151.85 91.5227 152.11 91.5227 152.256 91.5227C152.483 91.5094 152.63 91.4627 152.696 91.3827C152.776 91.316 152.816 91.1894 152.816 91.0027V79.1027ZM146.596 79.6627H148.036V87.8627H146.596V79.6627ZM143.436 75.7027H149.736V76.9627H143.436V75.7027ZM143.616 74.4627L145.236 74.7627C144.81 75.5494 144.296 76.356 143.696 77.1827C143.096 78.0094 142.416 78.8227 141.656 79.6227C140.896 80.4094 140.043 81.1494 139.096 81.8427C139.003 81.7227 138.89 81.596 138.756 81.4627C138.636 81.316 138.51 81.1827 138.376 81.0627C138.243 80.9427 138.116 80.8494 137.996 80.7827C138.903 80.1694 139.716 79.5027 140.436 78.7827C141.156 78.0627 141.783 77.3294 142.316 76.5827C142.85 75.836 143.283 75.1294 143.616 74.4627ZM149.216 75.7027H149.556L149.796 75.6227L150.816 76.2827C150.59 76.736 150.316 77.2027 149.996 77.6827C149.69 78.1494 149.37 78.6027 149.036 79.0427C148.703 79.4694 148.376 79.8494 148.056 80.1827C147.923 80.0627 147.75 79.936 147.536 79.8027C147.336 79.6694 147.156 79.5627 146.996 79.4827C147.263 79.176 147.536 78.816 147.816 78.4027C148.11 77.9894 148.376 77.5694 148.616 77.1427C148.87 76.716 149.07 76.3294 149.216 75.9827V75.7027ZM161.99 85.1863C161.99 86.9761 161.756 88.6238 161.287 90.1295C160.823 91.6305 160.158 93.013 159.291 94.2772H157.814C158.155 93.8085 158.472 93.2308 158.765 92.5443C159.064 91.8625 159.324 91.1144 159.547 90.3C159.769 89.4808 159.942 88.6357 160.065 87.7645C160.193 86.8885 160.257 86.0291 160.257 85.1863C160.257 84.0594 160.148 82.916 159.93 81.7559C159.712 80.5959 159.419 79.5187 159.05 78.5244C158.68 77.5301 158.268 76.7204 157.814 76.0954H159.291C160.158 77.3596 160.823 78.7446 161.287 80.2502C161.756 81.7512 161.99 83.3966 161.99 85.1863Z" fill="black"/>
<path d="M149.293 39.7619C149.032 39.7619 148.902 39.6864 148.902 39.5354C148.902 39.3843 149.015 39.302 149.241 39.2882L150.415 39.1441C150.763 39.1029 150.998 39.0342 151.12 38.9381C151.242 38.8283 151.303 38.6292 151.303 38.3409V25.9841C151.303 25.7918 151.25 25.6546 151.146 25.5722C151.042 25.4898 150.824 25.4486 150.494 25.4486C149.85 25.4486 149.215 25.6683 148.589 26.1076C147.962 26.547 147.554 27.2541 147.362 28.2289L147.232 28.9085C147.197 29.087 147.075 29.1762 146.866 29.1762C146.606 29.1762 146.492 29.0595 146.527 28.8261L146.762 25.0985C146.797 24.7827 146.953 24.6248 147.232 24.6248C147.354 24.6248 147.467 24.6523 147.571 24.7072C147.675 24.7484 147.849 24.7964 148.093 24.8514C148.354 24.9063 148.763 24.9337 149.319 24.9337H155.138C155.695 24.9337 156.095 24.9063 156.339 24.8514C156.6 24.7964 156.782 24.7484 156.887 24.7072C157.009 24.6523 157.122 24.6248 157.226 24.6248C157.504 24.6248 157.661 24.7827 157.696 25.0985L157.931 28.8261C157.965 29.0595 157.852 29.1762 157.591 29.1762C157.383 29.1762 157.261 29.087 157.226 28.9085L157.096 28.2289C156.922 27.2541 156.521 26.547 155.895 26.1076C155.269 25.6683 154.625 25.4486 153.964 25.4486C153.634 25.4486 153.416 25.4898 153.312 25.5722C153.207 25.6546 153.155 25.7918 153.155 25.9841V38.3409C153.155 38.6292 153.216 38.8283 153.338 38.9381C153.477 39.0342 153.712 39.1029 154.043 39.1441L155.217 39.2882C155.443 39.302 155.556 39.3843 155.556 39.5354C155.556 39.6864 155.426 39.7619 155.165 39.7619H149.293Z" fill="black"/>
<path d="M140.593 39.9473C140.245 39.9473 139.854 39.9198 139.419 39.8649C139.001 39.81 138.601 39.7413 138.218 39.6589C137.853 39.5765 137.566 39.4873 137.357 39.3912C137.235 39.3363 137.14 39.2814 137.07 39.2264C137.018 39.1578 136.992 39.0479 136.992 38.8969L136.861 35.6636C136.861 35.389 136.975 35.2517 137.201 35.2517C137.392 35.2517 137.523 35.3752 137.592 35.6224L137.827 36.405C138.418 38.3683 139.523 39.35 141.141 39.35C142.011 39.35 142.698 39.1235 143.202 38.6704C143.724 38.2036 143.985 37.5514 143.985 36.7139C143.985 35.9038 143.716 35.1487 143.176 34.4485C142.654 33.7483 141.811 33.0549 140.645 32.3684C139.358 31.6407 138.418 30.9405 137.827 30.2678C137.235 29.5813 136.94 28.8536 136.94 28.0847C136.94 27.0687 137.383 26.2587 138.271 25.6545C139.175 25.0367 140.323 24.7278 141.715 24.7278C142.237 24.7278 142.741 24.7758 143.229 24.8719C143.716 24.9681 144.116 25.1054 144.429 25.2838C144.533 25.3388 144.612 25.4005 144.664 25.4692C144.733 25.5378 144.768 25.6271 144.768 25.7369L144.846 28.8467C144.846 29.0801 144.733 29.1968 144.507 29.1968C144.351 29.1968 144.238 29.1007 144.168 28.9085L143.985 28.3936C143.603 27.3364 143.202 26.5676 142.785 26.087C142.385 25.5928 141.802 25.3456 141.037 25.3456C140.289 25.3456 139.688 25.5378 139.236 25.9223C138.801 26.3067 138.584 26.849 138.584 27.5493C138.584 28.1396 138.827 28.7026 139.314 29.238C139.801 29.7735 140.654 30.4256 141.872 31.1945C143.176 32.032 144.124 32.8421 144.716 33.6247C145.325 34.3936 145.629 35.2173 145.629 36.096C145.629 36.8649 145.412 37.5377 144.977 38.1143C144.542 38.691 143.942 39.1441 143.176 39.4736C142.428 39.7894 141.567 39.9473 140.593 39.9473Z" fill="black"/>
<path d="M124.855 39.7619C124.594 39.7619 124.463 39.6864 124.463 39.5353C124.463 39.4118 124.576 39.3294 124.802 39.2882L125.403 39.2058C125.768 39.1509 126.003 39.0754 126.107 38.9793C126.229 38.8832 126.29 38.691 126.29 38.4026V26.293C126.29 26.0046 126.229 25.8124 126.107 25.7163C126.003 25.6202 125.768 25.5447 125.403 25.4898L124.802 25.4074C124.576 25.3662 124.463 25.2838 124.463 25.1603C124.463 25.0092 124.594 24.9337 124.855 24.9337H133.622C134.023 24.9337 134.24 25.0916 134.275 25.4074L134.484 28.8261C134.518 29.0595 134.405 29.1762 134.144 29.1762C133.936 29.1762 133.814 29.087 133.779 28.9085L133.622 28.1465C133.431 27.2129 133.04 26.5332 132.448 26.1076C131.857 25.6683 131.039 25.4486 129.995 25.4486C129.299 25.4486 128.812 25.531 128.534 25.6957C128.273 25.8467 128.143 26.1213 128.143 26.5195V31.4828C128.143 31.675 128.264 31.7711 128.508 31.7711H129.813C130.578 31.7711 131.048 31.4485 131.222 30.8032L131.483 29.7735C131.552 29.5675 131.7 29.4783 131.926 29.5057C132.118 29.5332 132.213 29.6499 132.213 29.8558V34.4896C132.213 34.6956 132.118 34.8123 131.926 34.8398C131.7 34.8672 131.552 34.778 131.483 34.572L131.222 33.5629C131.1 33.0823 130.926 32.7666 130.7 32.6155C130.491 32.4645 130.187 32.389 129.787 32.389H128.508C128.264 32.389 128.143 32.4851 128.143 32.6773V37.8466C128.143 38.3409 128.299 38.6978 128.612 38.9175C128.943 39.1372 129.534 39.247 130.387 39.247C131.257 39.247 131.996 39.0754 132.605 38.7322C133.231 38.3752 133.666 37.7161 133.909 36.7551L134.223 35.54C134.275 35.3615 134.405 35.2722 134.614 35.2722C134.858 35.2722 134.962 35.3889 134.927 35.6224L134.666 39.2882C134.631 39.604 134.414 39.7619 134.014 39.7619H124.855Z" fill="black"/>
<path d="M117.153 39.9472C116.214 39.9472 115.379 39.7756 114.648 39.4324C113.935 39.0754 113.378 38.588 112.978 37.9701C112.578 37.3386 112.378 36.6178 112.378 35.8077V26.293C112.378 26.0046 112.317 25.8124 112.195 25.7163C112.091 25.6202 111.856 25.5447 111.491 25.4898L110.891 25.4074C110.664 25.3662 110.551 25.2838 110.551 25.1603C110.551 25.0092 110.682 24.9337 110.943 24.9337H115.718C115.979 24.9337 116.109 25.0161 116.109 25.1809C116.109 25.3044 116.014 25.3799 115.822 25.4074L115.118 25.4898C114.77 25.531 114.535 25.6065 114.413 25.7163C114.292 25.8262 114.231 26.0252 114.231 26.3136V35.8283C114.231 36.8718 114.526 37.6818 115.118 38.2585C115.709 38.8351 116.536 39.1234 117.597 39.1234C118.675 39.1234 119.51 38.8351 120.102 38.2585C120.693 37.6818 120.989 36.8718 120.989 35.8283V26.7255C120.989 25.984 120.693 25.5722 120.102 25.4898L119.397 25.4074C119.206 25.3799 119.11 25.3044 119.11 25.1809C119.11 25.0161 119.241 24.9337 119.502 24.9337H123.259C123.52 24.9337 123.651 25.0092 123.651 25.1603C123.651 25.2838 123.538 25.3662 123.312 25.4074L122.711 25.4898C122.12 25.5722 121.824 25.9772 121.824 26.7049V35.8077C121.824 37.0571 121.398 38.0594 120.546 38.8145C119.693 39.5697 118.562 39.9472 117.153 39.9472Z" fill="black"/>
<path d="M93.1332 9.776C94.0275 8.76484 95.0997 8.46496 96.0487 8.67461C96.888 8.86008 97.6001 9.43996 97.9631 10.2061C98.7823 9.47524 99.5764 9.27087 100.308 9.45571C100.981 9.62568 101.532 10.1105 101.953 10.6506C103.146 9.42406 104.383 9.1506 105.453 9.4263C106.473 9.6892 107.287 10.4385 107.723 11.1934C108.966 10.9708 109.767 11.201 110.189 11.7661C110.562 12.2665 110.554 12.9269 110.434 13.457C110.962 13.8569 111.307 14.2494 111.492 14.6366C111.702 15.0774 111.696 15.498 111.533 15.8672C111.376 16.2234 111.084 16.5055 110.767 16.7174C110.539 16.869 110.287 16.9914 110.037 17.0847C110.211 17.7112 110.219 18.2488 110.081 18.6992C109.919 19.2268 109.567 19.5972 109.129 19.8325C108.362 20.2452 107.323 20.2517 106.453 20.0301C106.227 20.5703 105.946 20.99 105.604 21.2901C105.203 21.6432 104.737 21.8165 104.23 21.8402C103.298 21.8838 102.248 21.4191 101.177 20.7169C98.7282 22.5996 95.8567 23.0841 93.8183 23.0841C91.952 23.0841 90.3854 23.0936 88.6703 23.0984C86.9344 23.1033 85.0488 23.1035 82.553 23.0841L82.5581 22.4611C85.0511 22.4805 86.9342 22.4804 88.6686 22.4755C89.6686 22.4726 90.6201 22.4683 91.6105 22.4652C91.9896 22.8475 92.5152 23.0844 93.0962 23.0844C93.6918 23.0843 94.2286 22.8351 94.6097 22.4357C96.5198 22.3156 98.922 21.7349 100.967 20.0902L101.146 19.9456L101.337 20.0751C102.456 20.8353 103.43 21.254 104.201 21.218C104.575 21.2005 104.904 21.0765 105.193 20.8223C105.487 20.5638 105.755 20.1561 105.972 19.5477L106.074 19.2621L106.362 19.3563C107.185 19.6253 108.183 19.634 108.834 19.2837C109.149 19.1145 109.378 18.8653 109.486 18.5162C109.595 18.1603 109.589 17.6636 109.355 16.9864L109.247 16.6744L109.565 16.5849C109.857 16.5027 110.163 16.3709 110.421 16.1993C110.681 16.0259 110.87 15.8259 110.963 15.6155C111.05 15.4181 111.064 15.1872 110.929 14.9046C110.789 14.6094 110.481 14.2488 109.9 13.8371L109.718 13.7079L109.781 13.4939C109.93 12.9952 109.935 12.4674 109.69 12.1389C109.466 11.839 108.921 11.5695 107.623 11.848L107.384 11.8993L107.277 11.6793C106.945 10.9928 106.209 10.2643 105.297 10.0294C104.418 9.80281 103.308 10.0197 102.16 11.3457L101.894 11.654L101.666 11.3156C101.255 10.7022 100.735 10.2061 100.156 10.0596C99.6095 9.92167 98.9107 10.0722 98.0644 10.9792L97.6762 11.3953L97.535 10.8439C97.3375 10.0733 96.6953 9.45558 95.9144 9.283C95.1535 9.11486 94.2155 9.36275 93.4085 10.4213L93.1805 10.7208L92.9291 10.4407C92.5753 10.0466 92.0074 9.76668 91.4765 9.83005C90.9807 9.88926 90.4072 10.2645 90.0508 11.4164L89.9902 11.6127L89.7861 11.6341C88.99 11.7181 88.5831 12.0492 88.4496 12.3996C88.3154 12.7521 88.4053 13.2603 88.9011 13.8117L89.0771 14.0073L88.9137 14.2135C88.6217 14.5822 88.3181 15.1322 88.2819 15.6072C88.2646 15.8347 88.3097 16.0249 88.4257 16.1771C88.5431 16.3311 88.7632 16.4859 89.1714 16.5816L89.0291 17.188C88.5268 17.0702 88.1607 16.8568 87.9305 16.555C87.6991 16.2515 87.635 15.8979 87.6607 15.56C87.703 15.004 87.9905 14.4391 88.2739 14.0312C87.81 13.4278 87.6451 12.7622 87.8676 12.1779C88.0972 11.5752 88.6945 11.1752 89.5191 11.0415C89.9325 9.86803 90.6273 9.30416 91.4028 9.2116C92.0497 9.13441 92.6789 9.39723 93.1332 9.776Z" fill="black"/>
<path d="M69.3748 39.5353C69.3748 39.6864 69.5053 39.7619 69.7663 39.7619H75.6376C75.8985 39.7619 76.029 39.6864 76.029 39.5353C76.029 39.3843 75.9159 39.3019 75.6897 39.2882L74.5155 39.144C74.185 39.1029 73.9501 39.0342 73.8109 38.9381C73.6892 38.8283 73.6283 38.6292 73.6283 38.3409V33.3158C73.6283 33.0961 73.6544 32.9039 73.7066 32.7391C73.7587 32.5606 73.8457 32.3753 73.9675 32.183L77.3859 26.7666C77.6816 26.3136 77.9165 25.9909 78.0904 25.7987C79.2598 24.5067 80.9527 23.1589 82.553 23.0841L82.5581 22.4611C78.9664 22.1181 77.4155 25.2753 76.5248 26.746L73.4456 31.7094C73.376 31.8055 73.289 31.8535 73.1847 31.8535C73.0803 31.8535 72.9933 31.8055 72.9237 31.7094L69.7141 26.3136C69.5401 26.0252 69.514 25.8124 69.6358 25.6751C69.7576 25.5378 69.9663 25.4623 70.2621 25.4486L70.7579 25.4074C71.0536 25.3937 71.2015 25.3113 71.2015 25.1603C71.2015 25.0092 71.0797 24.9337 70.8361 24.9337H66.374C66.113 24.9337 65.9825 25.0024 65.9825 25.1397C65.9825 25.277 66.1043 25.3662 66.3479 25.4074L66.5827 25.4486C66.8785 25.5035 67.1046 25.5927 67.2612 25.7163C67.4177 25.8399 67.5569 26.0184 67.6787 26.2518L71.5146 32.5949C71.6886 32.8833 71.7755 33.1785 71.7755 33.4805V38.3409C71.7755 38.6292 71.7147 38.8283 71.5929 38.9381C71.4711 39.0342 71.2363 39.1029 70.8883 39.144L69.7141 39.2882C69.4879 39.3019 69.3748 39.3843 69.3748 39.5353Z" fill="black"/>
<path d="M64.1408 39.9472C63.8625 39.9472 63.6277 39.7825 63.4363 39.453L56.3647 27.3433C56.3125 27.2472 56.2429 27.206 56.1559 27.2197C56.0863 27.2335 56.0515 27.2952 56.0515 27.4051V37.9907C56.0515 38.3752 56.1298 38.6704 56.2864 38.8763C56.4603 39.0685 56.7648 39.1921 57.1997 39.247L57.5389 39.2882C57.7651 39.3019 57.8781 39.3843 57.8781 39.5353C57.8781 39.6864 57.7477 39.7619 57.4867 39.7619H53.7552C53.4942 39.7619 53.3638 39.6864 53.3638 39.5353C53.3638 39.3843 53.4768 39.3019 53.703 39.2882L54.0422 39.247C54.4945 39.1921 54.8077 39.0685 54.9816 38.8763C55.1556 38.6704 55.2426 38.3752 55.2426 37.9907V26.293C55.2426 26.0046 55.1817 25.8124 55.0599 25.7163C54.9555 25.6202 54.7033 25.5447 54.3032 25.4898L53.703 25.4074C53.4768 25.3662 53.3638 25.2838 53.3638 25.1603C53.3638 25.0092 53.4942 24.9337 53.7552 24.9337H56.5473C56.9822 24.9337 57.2867 25.0847 57.4606 25.3868L63.619 36.0754C63.6711 36.1578 63.732 36.1921 63.8016 36.1784C63.8886 36.1647 63.9321 36.1166 63.9321 36.0342V26.7049C63.9321 26.2655 63.8364 25.9635 63.645 25.7987C63.4537 25.6202 63.2101 25.5104 62.9144 25.4692L62.4447 25.4074C62.2185 25.3662 62.1055 25.2838 62.1055 25.1603C62.1055 25.0092 62.2359 24.9337 62.4969 24.9337H66.2284C66.4894 24.9337 66.6198 25.0092 66.6198 25.1603C66.6198 25.3113 66.5068 25.3937 66.2806 25.4074L65.9414 25.4486C65.4891 25.5035 65.1759 25.6202 65.002 25.7987C64.828 25.9635 64.741 26.2655 64.741 26.7049V39.2882C64.741 39.5353 64.6801 39.707 64.5584 39.8031C64.454 39.8992 64.3148 39.9472 64.1408 39.9472Z" fill="black"/>
<path fill-rule="evenodd" clip-rule="evenodd" d="M82.0656 38.9999C83.0398 39.6315 84.2315 39.9473 85.6406 39.9473C86.3538 39.9473 86.9801 39.8923 87.5194 39.7825C88.0587 39.6864 88.5371 39.556 88.9546 39.3912C89.2155 39.2814 89.3982 39.1852 89.5026 39.1029C89.607 39.0068 89.6591 38.8832 89.6591 38.7322V33.151C89.6591 32.8627 89.6939 32.6567 89.7635 32.5332C89.435 32.5332 88.891 32.4222 88.3732 32.3166C88.0898 32.2588 87.8144 32.2026 87.5864 32.1671C86.8397 32.0507 86.5276 32.1101 86.9192 32.3272C87.2845 32.3547 87.5194 32.4233 87.6238 32.5332C87.7455 32.643 87.8064 32.8421 87.8064 33.1304V37.6406C87.8064 38.3134 87.6238 38.7734 87.2584 39.0205C86.8931 39.2676 86.3538 39.3912 85.6406 39.3912C84.3184 39.3912 83.2312 38.7871 82.3787 37.5789C81.5437 36.3569 81.1262 34.5858 81.1262 32.2654C81.1262 30.0138 81.535 28.2975 82.3526 27.1168C83.1877 25.9223 84.2402 25.325 85.5101 25.325C86.3625 25.325 87.0323 25.5378 87.5194 25.9635C88.0065 26.3891 88.4414 27.1717 88.8241 28.3113L89.0329 28.9291C89.0851 29.1076 89.2068 29.1968 89.3982 29.1968C89.607 29.1968 89.7113 29.0801 89.7113 28.8467L89.633 25.7163C89.633 25.5241 89.52 25.3799 89.2938 25.2838C88.8763 25.1191 88.3892 24.9886 87.8325 24.8925C87.2758 24.7827 86.6583 24.7278 85.9798 24.7278C84.6403 24.7278 83.4486 25.0436 82.4048 25.6751C81.3784 26.293 80.5695 27.1717 79.978 28.3113C79.3866 29.4371 79.0908 30.7552 79.0908 32.2654C79.0908 33.8306 79.3431 35.1899 79.8476 36.3432C80.3521 37.4828 81.0914 38.3683 82.0656 38.9999Z" fill="black"/>
<path fill-rule="evenodd" clip-rule="evenodd" d="M100.342 37.8037C100.938 38.7021 101.699 39.2192 102.625 39.355C102.716 39.5667 103.08 40.0051 103.078 40.0735C102.879 40.0069 102.467 39.9458 102.254 39.8876C102.118 39.8502 101.989 39.815 101.882 39.7825C100.977 39.5491 100.16 39.0823 99.4291 38.3821C99.1388 38.0915 98.8731 37.7736 98.6318 37.4285C99.1194 37.5759 100.144 37.8573 100.342 37.8037ZM99.1943 32.3272C99.1943 34.2494 99.4221 35.776 99.8779 36.907C99.7347 36.8986 98.5322 36.4609 97.9489 36.243C97.873 36.0817 97.801 35.916 97.733 35.7459C97.3329 34.7025 97.1328 33.5629 97.1328 32.3272C97.1328 31.2563 97.2807 30.2609 97.5764 29.341C97.8895 28.4211 98.3158 27.6179 98.855 26.9314C99.4117 26.2312 100.055 25.6889 100.786 25.3044C101.517 24.92 102.3 24.7278 103.135 24.7278C103.97 24.7278 104.744 24.92 105.457 25.3044C106.188 25.6889 106.831 26.2312 107.388 26.9314C107.945 27.6179 108.371 28.4211 108.667 29.341C108.98 30.2609 109.136 31.2563 109.136 32.3272C109.136 33.5904 108.919 34.7574 108.484 35.8283C108.066 36.8855 107.484 37.7642 106.736 38.4644C106.145 39.0305 105.486 39.435 104.759 39.678C104.618 39.5445 104.331 39.2589 104.31 39.1854C105 38.9225 105.574 38.4076 106.031 37.6406C106.727 36.4736 107.075 34.7025 107.075 32.3272C107.075 29.952 106.727 28.1877 106.031 27.0344C105.335 25.8674 104.37 25.2838 103.135 25.2838C101.917 25.2838 100.951 25.8674 100.238 27.0344C99.5422 28.1877 99.1943 29.952 99.1943 32.3272Z" fill="black"/>
<path d="M84.5915 33.151C85.0245 32.6842 86.3889 31.7283 88.1044 31.926C90.2488 32.1732 95.7633 35.7305 97.4747 36.685C97.7139 36.8183 98.031 36.9529 98.4005 37.0772C98.9098 37.2486 99.5185 37.4007 100.159 37.5036C100.656 37.5834 101.172 37.6337 101.676 37.6406C101.738 37.6415 101.8 37.6419 101.861 37.6418C101.774 37.5386 101.684 37.4349 101.592 37.3302C101.026 37.3322 100.485 37.2617 99.9828 37.1516C99.2535 36.9917 98.6069 36.7484 98.0868 36.523C97.8568 36.4233 97.6515 36.327 97.4747 36.243C96.1455 35.6115 90.9659 32.1556 88.6344 31.7712C86.7692 31.4636 84.9621 32.5103 84.5915 33.151Z" fill="black"/>
<path d="M102.536 37.6183C102.455 37.5153 102.369 37.4053 102.279 37.2913C102.047 37.3171 101.818 37.3294 101.592 37.3302C101.684 37.4349 101.774 37.5386 101.861 37.6418C102.095 37.6413 102.32 37.6336 102.536 37.6183Z" fill="black"/>
<path d="M103.949 39.2975C103.692 39.36 103.42 39.3912 103.135 39.3912C103.097 39.3912 103.059 39.3906 103.022 39.3895C103.084 39.5536 103.134 39.5766 103.27 39.8109C103.406 40.0452 103.838 40.6076 104.014 40.9903C104.358 41.7372 104.799 42.2892 105.338 42.6464C105.877 43.0035 106.448 43.2239 107.049 43.3075C107.671 43.4022 108.239 43.4138 108.753 43.3423C109.352 43.2588 109.836 43.1288 110.202 42.9523C110.589 42.7869 110.902 42.604 111.14 42.4036C111.256 42.2899 111.303 42.1857 111.282 42.0911C111.258 41.9829 111.183 41.9236 111.057 41.9133C110.931 41.9029 110.807 41.9411 110.685 42.0278C110.211 42.3586 109.76 42.5096 109.203 42.6313C108.606 42.7618 108.173 42.8764 107.323 42.6313C106.473 42.3861 106.106 42.0647 105.623 41.3234C105.217 40.7018 104.569 39.9669 103.949 39.2975Z" fill="black"/>
<path fill-rule="evenodd" clip-rule="evenodd" d="M106.752 32.111C107.147 33.2009 107.109 34.1679 106.151 35.6746C106.05 35.8334 105.925 35.9852 105.795 36.1212C105.565 36.3624 105.32 36.5539 105.17 36.6464C104.644 36.9708 104.475 37.0522 104.143 37.194C103.519 37.461 102.951 37.5888 102.536 37.6183C102.455 37.5153 102.369 37.4053 102.279 37.2913C102.561 37.26 102.846 37.2088 103.135 37.1341C103.645 37.0018 104.257 36.6634 104.644 36.3955C104.918 36.2058 105.197 35.8578 105.218 35.8283C105.914 34.8773 106.333 33.8635 106.124 32.9295C106.055 32.623 105.781 32.2164 105.346 32.1645C104.858 32.1064 104.085 32.3558 103.437 33.1304C102.848 32.1671 101.882 31.7044 100.905 31.9977C100.675 32.0666 100.348 32.5148 100.238 32.9952C100.11 33.5578 100.222 34.6031 100.905 35.62C101.054 35.8422 101.33 36.1633 101.622 36.5039C101.811 36.7238 102.007 36.9519 102.18 37.1666C102.141 37.1786 101.693 37.1918 101.475 37.1969C101.426 37.1421 101.375 37.085 101.322 37.0264C101.061 36.7338 100.765 36.4027 100.543 36.1212C100.502 36.0695 100.462 36.0187 100.422 35.9687C99.7305 35.0994 99.2071 34.4413 99.4291 32.5999C99.5285 31.7763 100.177 31.2642 100.967 31.1505C101.927 31.0121 103.062 31.4531 103.54 32.5332C103.819 31.912 104.645 31.3295 105.482 31.3384C105.946 31.3433 106.576 31.6239 106.752 32.111Z" fill="black"/>
<path fill-rule="evenodd" clip-rule="evenodd" d="M103.949 39.2975C103.692 39.36 103.42 39.3912 103.135 39.3912C103.097 39.3912 103.059 39.3906 103.022 39.3895C102.901 39.0718 102.779 38.8972 102.55 38.5716C102.483 38.4748 102.406 38.3646 102.316 38.2334C102.219 38.0898 102.11 37.947 101.994 37.8037C102.193 37.7957 102.602 37.7754 102.647 37.7584C102.719 37.8505 102.786 37.9347 102.844 38.0083C102.919 38.1028 102.98 38.1798 103.022 38.2334C103.368 38.6745 103.693 39.023 103.882 39.2261C103.907 39.2524 103.929 39.2762 103.949 39.2975Z" fill="black"/>
<circle cx="90.6826" cy="24.4888" r="1" stroke="black" stroke-width="0.505019"/>
<circle cx="90.6826" cy="24.4888" r="1" stroke="black" stroke-width="0.505019"/>
<path d="M94.4526 20.992C94.4526 20.2429 93.8454 19.6355 93.0963 19.6355C92.3471 19.6355 91.7397 20.2429 91.7397 20.992C91.7398 21.7412 92.3471 22.3483 93.0963 22.3483V22.8632L93 22.8609C92.0431 22.8125 91.2759 22.0452 91.2274 21.0883L91.2249 20.992C91.2249 19.9585 92.0628 19.1206 93.0963 19.1206L93.1926 19.1231C94.1813 19.1733 94.9674 19.9908 94.9674 20.992L94.9652 21.0883C94.915 22.077 94.0974 22.8632 93.0963 22.8632V22.3483C93.8454 22.3483 94.4525 21.7411 94.4526 20.992Z" fill="black"/>
<path d="M94.4526 20.992C94.4526 20.2429 93.8454 19.6355 93.0963 19.6355C92.3471 19.6355 91.7397 20.2429 91.7397 20.992C91.7398 21.7412 92.3471 22.3483 93.0963 22.3483V22.8632L93 22.8609C92.0431 22.8125 91.2759 22.0452 91.2274 21.0883L91.2249 20.992C91.2249 19.9585 92.0628 19.1206 93.0963 19.1206L93.1926 19.1231C94.1813 19.1733 94.9674 19.9908 94.9674 20.992L94.9652 21.0883C94.915 22.077 94.0974 22.8632 93.0963 22.8632V22.3483C93.8454 22.3483 94.4525 21.7411 94.4526 20.992Z" fill="black"/>
</svg>
