<svg width="211" height="150" viewBox="0 0 211 150" fill="none" xmlns="http://www.w3.org/2000/svg">
<g clip-path="url(#clip0_269_51)">
<rect width="210" height="148.5" transform="matrix(-1 0 0 -1 210.65 149.269)" fill="white"/>
<path d="M39.4695 67.1463C38.532 67.1463 37.6963 66.9854 36.9624 66.6634C36.2332 66.3414 35.6532 65.894 35.2223 65.3211C34.7962 64.7434 34.5642 64.0734 34.5263 63.3111H36.3161C36.354 63.7799 36.5149 64.1847 36.799 64.5256C37.0831 64.8618 37.4548 65.1222 37.9141 65.3068C38.3734 65.4915 38.8824 65.5838 39.4411 65.5838C40.0661 65.5838 40.6201 65.4749 41.103 65.2571C41.586 65.0393 41.9647 64.7363 42.2394 64.348C42.514 63.9598 42.6513 63.51 42.6513 62.9986C42.6513 62.4636 42.5187 61.9925 42.2536 61.5853C41.9884 61.1733 41.6002 60.8514 41.0888 60.6193C40.5774 60.3873 39.9524 60.2713 39.2138 60.2713H38.049V58.7088H39.2138C39.7915 58.7088 40.2981 58.6047 40.7337 58.3963C41.174 58.188 41.5173 57.8944 41.7635 57.5157C42.0145 57.1369 42.1399 56.6918 42.1399 56.1804C42.1399 55.688 42.031 55.2595 41.8132 54.8949C41.5954 54.5303 41.2877 54.2462 40.8899 54.0426C40.4969 53.839 40.0329 53.7372 39.4979 53.7372C38.996 53.7372 38.5225 53.8296 38.0774 54.0142C37.6371 54.1942 37.2772 54.4569 36.9979 54.8026C36.7185 55.1435 36.567 55.5554 36.5433 56.0384H34.8388C34.8672 55.2761 35.0968 54.6085 35.5277 54.0355C35.9586 53.4579 36.522 53.0081 37.2181 52.6861C37.9188 52.3641 38.6882 52.2032 39.5263 52.2032C40.4259 52.2032 41.1977 52.3854 41.8416 52.75C42.4856 53.1099 42.9804 53.5857 43.326 54.1776C43.6717 54.7694 43.8445 55.4086 43.8445 56.0952C43.8445 56.9143 43.629 57.6127 43.1982 58.1904C42.772 58.768 42.192 59.1681 41.4581 59.3907V59.5043C42.3767 59.6558 43.094 60.0464 43.6101 60.6762C44.1262 61.3012 44.3843 62.0753 44.3843 62.9986C44.3843 63.7893 44.1688 64.4996 43.7379 65.1293C43.3118 65.7543 42.7294 66.2467 41.9908 66.6066C41.2522 66.9664 40.4117 67.1463 39.4695 67.1463ZM39.4553 73.3395C37.9449 73.3395 36.5055 73.1099 35.1371 72.6506C33.7735 72.1913 32.5211 71.5426 31.38 70.7046C30.2436 69.8712 29.2564 68.884 28.4183 67.7429C27.585 66.6066 26.9387 65.3566 26.4794 63.9929C26.0201 62.6246 25.7905 61.1852 25.7905 59.6747C25.7905 58.1643 26.0201 56.7273 26.4794 55.3637C26.9387 53.9953 27.585 52.7429 28.4183 51.6066C29.2564 50.4655 30.2436 49.4782 31.38 48.6449C32.5211 47.8068 33.7735 47.1582 35.1371 46.6989C36.5055 46.2396 37.9449 46.01 39.4553 46.01C40.9657 46.01 42.4027 46.2396 43.7664 46.6989C45.1347 47.1582 46.3871 47.8068 47.5235 48.6449C48.6646 49.4782 49.6518 50.4655 50.4851 51.6066C51.3232 52.7429 51.9718 53.9953 52.4311 55.3637C52.8904 56.7273 53.1201 58.1643 53.1201 59.6747C53.1201 61.1852 52.8904 62.6246 52.4311 63.9929C51.9718 65.3566 51.3232 66.6066 50.4851 67.7429C49.6518 68.884 48.6646 69.8712 47.5235 70.7046C46.3871 71.5426 45.1347 72.1913 43.7664 72.6506C42.4027 73.1099 40.9657 73.3395 39.4553 73.3395ZM39.4553 71.6918C40.7858 71.6918 42.05 71.4882 43.2479 71.081C44.4505 70.6785 45.5514 70.108 46.5504 69.3693C47.5542 68.6354 48.4231 67.769 49.157 66.7699C49.8956 65.7661 50.4662 64.6653 50.8686 63.4674C51.2711 62.2647 51.4723 61.0005 51.4723 59.6747C51.4723 58.3443 51.2711 57.08 50.8686 55.8821C50.4662 54.6795 49.8956 53.5786 49.157 52.5796C48.4231 51.5758 47.5542 50.7069 46.5504 49.973C45.5514 49.2344 44.4505 48.6639 43.2479 48.2614C42.05 47.8589 40.7858 47.6577 39.4553 47.6577C38.1248 47.6577 36.8582 47.8589 35.6556 48.2614C34.4576 48.6639 33.3568 49.2344 32.353 49.973C31.354 50.7069 30.4851 51.5758 29.7465 52.5796C29.0126 53.5786 28.4444 54.6795 28.0419 55.8821C27.6395 57.08 27.4382 58.3443 27.4382 59.6747C27.4382 61.0005 27.6395 62.2647 28.0419 63.4674C28.4444 64.6653 29.0126 65.7661 29.7465 66.7699C30.4851 67.769 31.354 68.6354 32.353 69.3693C33.3568 70.108 34.4576 70.6785 35.6556 71.081C36.8582 71.4882 38.1248 71.6918 39.4553 71.6918ZM59.7362 51.5675C59.7095 51.7941 59.6829 52.0541 59.6562 52.3475C59.6295 52.6275 59.6162 52.9075 59.6162 53.1875C59.6162 53.3608 59.6162 53.7075 59.6162 54.2275C59.6162 54.7341 59.6162 55.3475 59.6162 56.0675C59.6162 56.7741 59.6162 57.5275 59.6162 58.3275C59.6162 59.1141 59.6162 59.8741 59.6162 60.6075C59.6162 61.3408 59.6162 61.9875 59.6162 62.5475C59.6162 63.0941 59.6162 63.4941 59.6162 63.7475C59.6162 64.2541 59.7295 64.6075 59.9562 64.8075C60.1829 64.9941 60.5362 65.1341 61.0162 65.2275C61.3362 65.2808 61.7362 65.3208 62.2162 65.3475C62.6962 65.3741 63.1829 65.3875 63.6762 65.3875C64.1962 65.3875 64.7629 65.3741 65.3762 65.3475C66.0029 65.3208 66.6295 65.2808 67.2562 65.2275C67.8829 65.1741 68.4762 65.1075 69.0362 65.0275C69.6095 64.9475 70.1029 64.8541 70.5162 64.7475V66.5675C69.9429 66.6608 69.2495 66.7408 68.4362 66.8075C67.6362 66.8608 66.8095 66.9075 65.9562 66.9475C65.1029 66.9741 64.3162 66.9875 63.5962 66.9875C62.9962 66.9875 62.4162 66.9741 61.8562 66.9475C61.2962 66.9075 60.8029 66.8541 60.3762 66.7875C59.6162 66.6541 59.0295 66.3941 58.6162 66.0075C58.2029 65.6075 57.9962 65.0008 57.9962 64.1875C57.9962 63.8675 57.9962 63.4075 57.9962 62.8075C57.9962 62.1941 57.9962 61.5008 57.9962 60.7275C57.9962 59.9541 57.9962 59.1675 57.9962 58.3675C57.9962 57.5541 57.9962 56.7875 57.9962 56.0675C57.9962 55.3475 57.9962 54.7341 57.9962 54.2275C57.9962 53.7075 57.9962 53.3608 57.9962 53.1875C57.9962 53.0008 57.9895 52.8141 57.9762 52.6275C57.9629 52.4275 57.9495 52.2341 57.9362 52.0475C57.9229 51.8608 57.9029 51.7008 57.8762 51.5675H59.7362ZM58.8962 57.8675C59.4962 57.7341 60.1629 57.5675 60.8962 57.3675C61.6429 57.1675 62.4095 56.9475 63.1962 56.7075C63.9829 56.4675 64.7429 56.2208 65.4762 55.9675C66.2229 55.7008 66.8829 55.4408 67.4562 55.1875C67.7629 55.0541 68.0562 54.9141 68.3362 54.7675C68.6295 54.6208 68.9229 54.4541 69.2162 54.2675L69.9162 55.8875C69.6362 55.9941 69.3229 56.1208 68.9762 56.2675C68.6429 56.4141 68.3229 56.5475 68.0162 56.6675C67.4029 56.9208 66.6962 57.1875 65.8962 57.4675C65.1095 57.7341 64.2962 58.0008 63.4562 58.2675C62.6162 58.5208 61.8029 58.7608 61.0162 58.9875C60.2295 59.2008 59.5229 59.3808 58.8962 59.5275V57.8675ZM77.8962 52.2875C78.2562 52.5275 78.6695 52.8275 79.1362 53.1875C79.6029 53.5341 80.0762 53.9075 80.5562 54.3075C81.0495 54.6941 81.5095 55.0741 81.9362 55.4475C82.3629 55.8208 82.7162 56.1475 82.9962 56.4275L81.7362 57.6875C81.4829 57.4341 81.1562 57.1208 80.7562 56.7475C80.3562 56.3741 79.9162 55.9875 79.4362 55.5875C78.9562 55.1741 78.4829 54.7875 78.0162 54.4275C77.5495 54.0541 77.1295 53.7475 76.7562 53.5075L77.8962 52.2875ZM76.1762 65.6875C77.3495 65.5141 78.4162 65.2741 79.3762 64.9675C80.3495 64.6608 81.2362 64.3141 82.0362 63.9275C82.8362 63.5408 83.5495 63.1541 84.1762 62.7675C85.2029 62.1275 86.1495 61.3941 87.0162 60.5675C87.8829 59.7275 88.6429 58.8608 89.2962 57.9675C89.9495 57.0741 90.4695 56.2208 90.8562 55.4075L91.8162 57.1075C91.3629 57.9341 90.8029 58.7741 90.1362 59.6275C89.4695 60.4808 88.7162 61.3008 87.8762 62.0875C87.0362 62.8741 86.1095 63.5875 85.0962 64.2275C84.4295 64.6408 83.6962 65.0475 82.8962 65.4475C82.1095 65.8475 81.2429 66.2141 80.2962 66.5475C79.3629 66.8675 78.3429 67.1275 77.2362 67.3275L76.1762 65.6875ZM100.096 65.1875C100.096 65.0008 100.096 64.6275 100.096 64.0675C100.096 63.4941 100.096 62.8208 100.096 62.0475C100.096 61.2608 100.096 60.4408 100.096 59.5875C100.096 58.7208 100.096 57.8808 100.096 57.0675C100.096 56.2541 100.096 55.5341 100.096 54.9075C100.096 54.2808 100.096 53.8275 100.096 53.5475C100.096 53.2675 100.083 52.9275 100.056 52.5275C100.03 52.1275 99.9895 51.7741 99.9362 51.4675H101.896C101.87 51.7608 101.836 52.1075 101.796 52.5075C101.77 52.9075 101.756 53.2541 101.756 53.5475C101.756 54.0675 101.756 54.6941 101.756 55.4275C101.756 56.1475 101.756 56.9208 101.756 57.7475C101.756 58.5608 101.756 59.3741 101.756 60.1875C101.77 60.9875 101.776 61.7408 101.776 62.4475C101.776 63.1408 101.776 63.7341 101.776 64.2275C101.776 64.7075 101.776 65.0275 101.776 65.1875C101.776 65.4008 101.776 65.6475 101.776 65.9275C101.79 66.2075 101.81 66.4941 101.836 66.7875C101.863 67.0675 101.883 67.3208 101.896 67.5475H99.9562C100.01 67.2275 100.043 66.8475 100.056 66.4075C100.083 65.9675 100.096 65.5608 100.096 65.1875ZM101.416 56.7075C102.07 56.9075 102.79 57.1475 103.576 57.4275C104.376 57.6941 105.19 57.9808 106.016 58.2875C106.843 58.5941 107.623 58.9075 108.356 59.2275C109.103 59.5341 109.75 59.8275 110.296 60.1075L109.616 61.8075C109.043 61.4875 108.396 61.1741 107.676 60.8675C106.956 60.5475 106.216 60.2341 105.456 59.9275C104.71 59.6208 103.983 59.3475 103.276 59.1075C102.583 58.8541 101.963 58.6475 101.416 58.4875V56.7075ZM114.862 66.9475V65.6691L119.663 60.4134C120.226 59.7978 120.69 59.2628 121.055 58.8083C121.42 58.349 121.69 57.9181 121.865 57.5157C122.045 57.1085 122.135 56.6823 122.135 56.2372C122.135 55.7259 122.012 55.2832 121.765 54.9091C121.524 54.5351 121.192 54.2462 120.771 54.0426C120.35 53.839 119.876 53.7372 119.351 53.7372C118.792 53.7372 118.304 53.8532 117.887 54.0853C117.476 54.3125 117.156 54.6321 116.929 55.0441C116.706 55.456 116.595 55.9389 116.595 56.4929H114.919C114.919 55.6407 115.115 54.8925 115.508 54.2486C115.901 53.6047 116.436 53.1028 117.113 52.7429C117.795 52.3831 118.56 52.2032 119.407 52.2032C120.26 52.2032 121.015 52.3831 121.673 52.7429C122.331 53.1028 122.847 53.5881 123.221 54.1989C123.595 54.8097 123.782 55.4891 123.782 56.2372C123.782 56.7723 123.685 57.2955 123.491 57.8068C123.302 58.3135 122.97 58.8793 122.497 59.5043C122.028 60.1246 121.377 60.8821 120.544 61.777L117.277 65.2713V65.385H124.038V66.9475H114.862Z" fill="black"/>
<path d="M29.6126 84.2375H42.1978" stroke="#FF0000"/>
<path d="M29.6126 102.606H42.1978" stroke="#FF0000"/>
<path d="M29.6126 120.481H42.1978" stroke="#FF0000"/>
<path d="M43.9183 99.8979V87.3127" stroke="#FF0000"/>
<path d="M80.0124 84.2375H92.5976" stroke="#FF0000"/>
<path d="M80.0124 102.606H92.5976" stroke="#FF0000"/>
<path d="M80.0124 120.481H92.5976" stroke="#FF0000"/>
<path d="M79.0908 99.8979V87.3127" stroke="#FF0000"/>
<path d="M94.3181 118.266V105.681" stroke="#FF0000"/>
<path d="M43.9183 118.266V105.681" stroke="#FF0000"/>
<path d="M55.5957 102.606H68.1809" stroke="#FF0000"/>
<path d="M69.9014 99.8979V87.3127" stroke="#FF0000"/>
<path d="M54.0295 99.8979V87.3127" stroke="#FF0000"/>
<path d="M69.9014 118.266V105.681" stroke="#FF0000"/>
<path d="M186.536 120.481H173.951" stroke="black"/>
<path d="M186.536 102.113H173.951" stroke="black"/>
<path d="M186.536 84.2375H173.951" stroke="black"/>
<path d="M172.23 104.821V117.406" stroke="black"/>
<path d="M136.136 120.481H123.551" stroke="black"/>
<path d="M136.136 102.113H123.551" stroke="black"/>
<path d="M136.136 84.2375H123.551" stroke="black"/>
<path d="M137.058 104.821V117.406" stroke="black"/>
<path d="M121.831 86.4525V99.0377" stroke="black"/>
<path d="M172.23 86.4525V99.0377" stroke="black"/>
<path d="M160.553 102.113H147.968" stroke="black"/>
<path d="M146.247 104.821V117.406" stroke="black"/>
<path d="M162.119 104.821V117.406" stroke="black"/>
<path d="M146.247 86.4525V99.0377" stroke="black"/>
<path d="M103.008 102.132V100.598H111.758V102.132H103.008ZM103.008 106.337V104.803H111.758V106.337H103.008Z" fill="black"/>
<path d="M149.293 40.3002C149.032 40.3002 148.902 40.2247 148.902 40.0737C148.902 39.9227 149.015 39.8403 149.241 39.8266L150.415 39.6824C150.763 39.6412 150.998 39.5726 151.12 39.4764C151.242 39.3666 151.303 39.1675 151.303 38.8792V26.5224C151.303 26.3302 151.25 26.1929 151.146 26.1105C151.042 26.0281 150.824 25.9869 150.494 25.9869C149.85 25.9869 149.215 26.2066 148.589 26.646C147.962 27.0853 147.554 27.7924 147.362 28.7672L147.232 29.4468C147.197 29.6253 147.075 29.7146 146.866 29.7146C146.606 29.7146 146.492 29.5979 146.527 29.3645L146.762 25.6368C146.797 25.321 146.953 25.1631 147.232 25.1631C147.354 25.1631 147.467 25.1906 147.571 25.2455C147.675 25.2867 147.849 25.3348 148.093 25.3897C148.354 25.4446 148.763 25.4721 149.319 25.4721H155.138C155.695 25.4721 156.095 25.4446 156.339 25.3897C156.6 25.3348 156.782 25.2867 156.887 25.2455C157.009 25.1906 157.122 25.1631 157.226 25.1631C157.504 25.1631 157.661 25.321 157.696 25.6368L157.931 29.3645C157.965 29.5979 157.852 29.7146 157.591 29.7146C157.383 29.7146 157.261 29.6253 157.226 29.4468L157.096 28.7672C156.922 27.7924 156.521 27.0853 155.895 26.646C155.269 26.2066 154.625 25.9869 153.964 25.9869C153.634 25.9869 153.416 26.0281 153.312 26.1105C153.207 26.1929 153.155 26.3302 153.155 26.5224V38.8792C153.155 39.1675 153.216 39.3666 153.338 39.4764C153.477 39.5726 153.712 39.6412 154.043 39.6824L155.217 39.8266C155.443 39.8403 155.556 39.9227 155.556 40.0737C155.556 40.2247 155.426 40.3002 155.165 40.3002H149.293Z" fill="black"/>
<path d="M140.593 40.4856C140.245 40.4856 139.854 40.4581 139.419 40.4032C139.001 40.3483 138.601 40.2796 138.218 40.1973C137.853 40.1149 137.566 40.0256 137.357 39.9295C137.235 39.8746 137.14 39.8197 137.07 39.7648C137.018 39.6961 136.992 39.5863 136.992 39.4353L136.861 36.2019C136.861 35.9273 136.975 35.79 137.201 35.79C137.392 35.79 137.523 35.9136 137.592 36.1607L137.827 36.9433C138.418 38.9067 139.523 39.8883 141.141 39.8883C142.011 39.8883 142.698 39.6618 143.202 39.2087C143.724 38.7419 143.985 38.0897 143.985 37.2522C143.985 36.4422 143.716 35.687 143.176 34.9868C142.654 34.2866 141.811 33.5932 140.645 32.9067C139.358 32.1791 138.418 31.4788 137.827 30.8061C137.235 30.1196 136.94 29.3919 136.94 28.6231C136.94 27.607 137.383 26.797 138.271 26.1929C139.175 25.575 140.323 25.2661 141.715 25.2661C142.237 25.2661 142.741 25.3142 143.229 25.4103C143.716 25.5064 144.116 25.6437 144.429 25.8222C144.533 25.8771 144.612 25.9389 144.664 26.0075C144.733 26.0762 144.768 26.1654 144.768 26.2753L144.846 29.3851C144.846 29.6185 144.733 29.7352 144.507 29.7352C144.351 29.7352 144.238 29.6391 144.168 29.4468L143.985 28.932C143.603 27.8748 143.202 27.1059 142.785 26.6254C142.385 26.1311 141.802 25.884 141.037 25.884C140.289 25.884 139.688 26.0762 139.236 26.4606C138.801 26.845 138.584 27.3874 138.584 28.0876C138.584 28.678 138.827 29.2409 139.314 29.7764C139.801 30.3118 140.654 30.964 141.872 31.7329C143.176 32.5704 144.124 33.3804 144.716 34.163C145.325 34.9319 145.629 35.7557 145.629 36.6344C145.629 37.4033 145.412 38.076 144.977 38.6527C144.542 39.2293 143.942 39.6824 143.176 40.0119C142.428 40.3277 141.567 40.4856 140.593 40.4856Z" fill="black"/>
<path d="M124.855 40.3002C124.594 40.3002 124.463 40.2247 124.463 40.0737C124.463 39.9501 124.576 39.8678 124.802 39.8266L125.403 39.7442C125.768 39.6893 126.003 39.6137 126.107 39.5176C126.229 39.4215 126.29 39.2293 126.29 38.941V26.8313C126.29 26.543 126.229 26.3508 126.107 26.2547C126.003 26.1586 125.768 26.083 125.403 26.0281L124.802 25.9457C124.576 25.9046 124.463 25.8222 124.463 25.6986C124.463 25.5476 124.594 25.4721 124.855 25.4721H133.622C134.023 25.4721 134.24 25.63 134.275 25.9457L134.484 29.3645C134.518 29.5979 134.405 29.7146 134.144 29.7146C133.936 29.7146 133.814 29.6253 133.779 29.4468L133.622 28.6848C133.431 27.7512 133.04 27.0716 132.448 26.646C131.857 26.2066 131.039 25.9869 129.995 25.9869C129.299 25.9869 128.812 26.0693 128.534 26.2341C128.273 26.3851 128.143 26.6597 128.143 27.0579V32.0212C128.143 32.2134 128.264 32.3095 128.508 32.3095H129.813C130.578 32.3095 131.048 31.9869 131.222 31.3416L131.483 30.3118C131.552 30.1059 131.7 30.0166 131.926 30.0441C132.118 30.0715 132.213 30.1883 132.213 30.3942V35.028C132.213 35.2339 132.118 35.3506 131.926 35.3781C131.7 35.4056 131.552 35.3163 131.483 35.1104L131.222 34.1012C131.1 33.6207 130.926 33.3049 130.7 33.1539C130.491 33.0029 130.187 32.9273 129.787 32.9273H128.508C128.264 32.9273 128.143 33.0235 128.143 33.2157V38.3849C128.143 38.8792 128.299 39.2362 128.612 39.4559C128.943 39.6755 129.534 39.7854 130.387 39.7854C131.257 39.7854 131.996 39.6137 132.605 39.2705C133.231 38.9135 133.666 38.2545 133.91 37.2934L134.223 36.0783C134.275 35.8998 134.405 35.8106 134.614 35.8106C134.858 35.8106 134.962 35.9273 134.927 36.1607L134.666 39.8266C134.631 40.1423 134.414 40.3002 134.014 40.3002H124.855Z" fill="black"/>
<path d="M117.153 40.4856C116.214 40.4856 115.379 40.314 114.648 39.9707C113.935 39.6137 113.378 39.1263 112.978 38.5085C112.578 37.8769 112.378 37.1561 112.378 36.3461V26.8313C112.378 26.543 112.317 26.3508 112.195 26.2547C112.091 26.1586 111.856 26.083 111.491 26.0281L110.891 25.9457C110.664 25.9046 110.551 25.8222 110.551 25.6986C110.551 25.5476 110.682 25.4721 110.943 25.4721H115.718C115.979 25.4721 116.11 25.5544 116.11 25.7192C116.11 25.8428 116.014 25.9183 115.822 25.9457L115.118 26.0281C114.77 26.0693 114.535 26.1448 114.413 26.2547C114.292 26.3645 114.231 26.5636 114.231 26.8519V36.3667C114.231 37.4101 114.526 38.2202 115.118 38.7968C115.709 39.3735 116.536 39.6618 117.597 39.6618C118.675 39.6618 119.511 39.3735 120.102 38.7968C120.693 38.2202 120.989 37.4101 120.989 36.3667V27.2638C120.989 26.5224 120.693 26.1105 120.102 26.0281L119.397 25.9457C119.206 25.9183 119.11 25.8428 119.11 25.7192C119.11 25.5544 119.241 25.4721 119.502 25.4721H123.259C123.52 25.4721 123.651 25.5476 123.651 25.6986C123.651 25.8222 123.538 25.9046 123.312 25.9457L122.711 26.0281C122.12 26.1105 121.824 26.5155 121.824 27.2432V36.3461C121.824 37.5955 121.398 38.5977 120.546 39.3529C119.693 40.108 118.562 40.4856 117.153 40.4856Z" fill="black"/>
<path d="M93.1332 10.3143C94.0275 9.30319 95.0997 9.00331 96.0487 9.21296C96.888 9.39843 97.6001 9.97831 97.9631 10.7445C98.7823 10.0136 99.5764 9.80922 100.308 9.99406C100.981 10.164 101.532 10.6488 101.953 11.189C103.146 9.96241 104.383 9.68895 105.453 9.96465C106.473 10.2276 107.287 10.9769 107.723 11.7317C108.966 11.5091 109.767 11.7394 110.189 12.3044C110.562 12.8049 110.554 13.4653 110.434 13.9953C110.962 14.3952 111.307 14.7878 111.492 15.1749C111.702 15.6157 111.696 16.0363 111.533 16.4055C111.376 16.7617 111.084 17.0439 110.767 17.2557C110.539 17.4074 110.288 17.5298 110.037 17.623C110.211 18.2495 110.22 18.7872 110.081 19.2375C109.919 19.7652 109.567 20.1356 109.129 20.3708C108.362 20.7835 107.323 20.79 106.453 20.5684C106.227 21.1086 105.946 21.5283 105.604 21.8285C105.203 22.1816 104.737 22.3549 104.231 22.3785C103.298 22.4221 102.248 21.9575 101.177 21.2553C98.7282 23.1379 95.8567 23.6224 93.8183 23.6224C91.9521 23.6224 90.3854 23.6319 88.6704 23.6368C86.9344 23.6417 85.0488 23.6419 82.553 23.6224L82.5581 22.9995C85.0511 23.0189 86.9343 23.0187 88.6686 23.0138C89.6686 23.011 90.6201 23.0067 91.6105 23.0035C91.9896 23.3859 92.5152 23.6227 93.0963 23.6227C93.6918 23.6227 94.2286 23.3734 94.6097 22.9741C96.5198 22.8539 98.922 22.2733 100.967 20.6285L101.146 20.484L101.337 20.6134C102.456 21.3736 103.43 21.7924 104.201 21.7563C104.575 21.7389 104.904 21.6148 105.193 21.3606C105.487 21.1021 105.755 20.6945 105.972 20.086L106.074 19.8004L106.362 19.8947C107.185 20.1637 108.183 20.1723 108.834 19.822C109.149 19.6528 109.378 19.4036 109.486 19.0545C109.595 18.6986 109.589 18.202 109.355 17.5247L109.247 17.2128L109.565 17.1233C109.857 17.041 110.163 16.9093 110.421 16.7376C110.681 16.5643 110.87 16.3642 110.963 16.1539C111.05 15.9564 111.064 15.7256 110.929 15.4429C110.789 15.1477 110.481 14.7872 109.9 14.3755L109.718 14.2462L109.781 14.0323C109.93 13.5335 109.935 13.0058 109.69 12.6773C109.466 12.3774 108.921 12.1079 107.623 12.3864L107.384 12.4377L107.277 12.2177C106.945 11.5312 106.209 10.8026 105.297 10.5678C104.418 10.3412 103.308 10.5581 102.16 11.8841L101.894 12.1923L101.666 11.8539C101.255 11.2405 100.735 10.7444 100.156 10.5979C99.6095 10.46 98.9107 10.6106 98.0644 11.5175L97.6763 11.9336L97.535 11.3823C97.3375 10.6116 96.6953 9.99393 95.9144 9.82135C95.1535 9.65321 94.2155 9.9011 93.4085 10.9597L93.1805 11.2591L92.9291 10.979C92.5753 10.585 92.0074 10.305 91.4765 10.3684C90.9807 10.4276 90.4073 10.8029 90.0508 11.9547L89.9902 12.1511L89.7861 12.1724C88.99 12.2564 88.5831 12.5876 88.4496 12.938C88.3154 13.2905 88.4053 13.7987 88.9011 14.3501L89.0771 14.5457L88.9137 14.7518C88.6218 15.1205 88.3181 15.6706 88.2819 16.1456C88.2646 16.3731 88.3097 16.5632 88.4257 16.7155C88.5432 16.8694 88.7632 17.0242 89.1714 17.12L89.0291 17.7264C88.5268 17.6085 88.1607 17.3952 87.9305 17.0933C87.6991 16.7899 87.635 16.4363 87.6607 16.0983C87.7031 15.5424 87.9905 14.9774 88.2739 14.5695C87.81 13.9661 87.6451 13.3006 87.8676 12.7162C88.0973 12.1135 88.6945 11.7135 89.5191 11.5799C89.9325 10.4064 90.6273 9.84251 91.4028 9.74995C92.0498 9.67276 92.6789 9.93558 93.1332 10.3143Z" fill="black"/>
<path d="M69.3749 40.0737C69.3749 40.2247 69.5053 40.3002 69.7663 40.3002H75.6376C75.8985 40.3002 76.029 40.2247 76.029 40.0737C76.029 39.9227 75.9159 39.8403 75.6898 39.8266L74.5155 39.6824C74.185 39.6412 73.9501 39.5726 73.8109 39.4764C73.6892 39.3666 73.6283 39.1675 73.6283 38.8792V33.8541C73.6283 33.6344 73.6544 33.4422 73.7066 33.2774C73.7588 33.099 73.8457 32.9136 73.9675 32.7214L77.3859 27.305C77.6816 26.8519 77.9165 26.5293 78.0905 26.337C79.2598 25.045 80.9527 23.6972 82.553 23.6224L82.5581 22.9995C78.9664 22.6564 77.4155 25.8137 76.5248 27.2844L73.4456 32.2477C73.376 32.3438 73.2891 32.3919 73.1847 32.3919C73.0803 32.3919 72.9933 32.3438 72.9237 32.2477L69.7141 26.8519C69.5401 26.5636 69.514 26.3508 69.6358 26.2135C69.7576 26.0762 69.9663 26.0007 70.2621 25.9869L70.7579 25.9457C71.0536 25.932 71.2015 25.8496 71.2015 25.6986C71.2015 25.5476 71.0797 25.4721 70.8362 25.4721H66.374C66.113 25.4721 65.9826 25.5407 65.9826 25.678C65.9826 25.8153 66.1043 25.9046 66.3479 25.9457L66.5827 25.9869C66.8785 26.0419 67.1046 26.1311 67.2612 26.2547C67.4178 26.3782 67.5569 26.5567 67.6787 26.7901L71.5146 33.1333C71.6886 33.4216 71.7756 33.7168 71.7756 34.0189V38.8792C71.7756 39.1675 71.7147 39.3666 71.5929 39.4764C71.4711 39.5726 71.2363 39.6412 70.8883 39.6824L69.7141 39.8266C69.4879 39.8403 69.3749 39.9227 69.3749 40.0737Z" fill="black"/>
<path d="M64.1409 40.4856C63.8625 40.4856 63.6277 40.3208 63.4363 39.9913L56.3647 27.8816C56.3125 27.7855 56.2429 27.7443 56.1559 27.7581C56.0863 27.7718 56.0515 27.8336 56.0515 27.9434V38.5291C56.0515 38.9135 56.1298 39.2087 56.2864 39.4147C56.4603 39.6069 56.7648 39.7305 57.1997 39.7854L57.5389 39.8266C57.7651 39.8403 57.8782 39.9227 57.8782 40.0737C57.8782 40.2247 57.7477 40.3002 57.4867 40.3002H53.7552C53.4943 40.3002 53.3638 40.2247 53.3638 40.0737C53.3638 39.9227 53.4769 39.8403 53.703 39.8266L54.0422 39.7854C54.4946 39.7305 54.8077 39.6069 54.9817 39.4147C55.1556 39.2087 55.2426 38.9135 55.2426 38.5291V26.8313C55.2426 26.543 55.1817 26.3508 55.0599 26.2547C54.9556 26.1586 54.7033 26.083 54.3032 26.0281L53.703 25.9457C53.4769 25.9046 53.3638 25.8222 53.3638 25.6986C53.3638 25.5476 53.4943 25.4721 53.7552 25.4721H56.5473C56.9822 25.4721 57.2867 25.6231 57.4606 25.9252L63.619 36.6138C63.6712 36.6962 63.732 36.7305 63.8016 36.7168C63.8886 36.703 63.9321 36.655 63.9321 36.5726V27.2432C63.9321 26.8039 63.8364 26.5018 63.6451 26.337C63.4537 26.1586 63.2102 26.0487 62.9144 26.0075L62.4447 25.9457C62.2186 25.9046 62.1055 25.8222 62.1055 25.6986C62.1055 25.5476 62.236 25.4721 62.4969 25.4721H66.2284C66.4894 25.4721 66.6199 25.5476 66.6199 25.6986C66.6199 25.8496 66.5068 25.932 66.2806 25.9457L65.9414 25.9869C65.4891 26.0419 65.1759 26.1586 65.002 26.337C64.828 26.5018 64.741 26.8039 64.741 27.2432V39.8266C64.741 40.0737 64.6802 40.2453 64.5584 40.3414C64.454 40.4375 64.3148 40.4856 64.1409 40.4856Z" fill="black"/>
<path fill-rule="evenodd" clip-rule="evenodd" d="M82.0656 39.5382C83.0398 40.1698 84.2315 40.4856 85.6406 40.4856C86.3538 40.4856 86.9801 40.4307 87.5194 40.3208C88.0587 40.2247 88.5371 40.0943 88.9546 39.9295C89.2155 39.8197 89.3982 39.7236 89.5026 39.6412C89.607 39.5451 89.6591 39.4215 89.6591 39.2705V33.6893C89.6591 33.401 89.6939 33.1951 89.7635 33.0715C89.435 33.0715 88.891 32.9605 88.3732 32.8549C88.0898 32.7971 87.8144 32.7409 87.5864 32.7054C86.8397 32.589 86.5276 32.6484 86.9192 32.8656C87.2845 32.893 87.5194 32.9617 87.6238 33.0715C87.7455 33.1813 87.8064 33.3804 87.8064 33.6687V38.179C87.8064 38.8517 87.6238 39.3117 87.2584 39.5588C86.8931 39.806 86.3538 39.9295 85.6406 39.9295C84.3184 39.9295 83.2312 39.3254 82.3787 38.1172C81.5437 36.8952 81.1262 35.1241 81.1262 32.8038C81.1262 30.5521 81.535 28.8359 82.3526 27.6551C83.1877 26.4606 84.2402 25.8634 85.5101 25.8634C86.3625 25.8634 87.0323 26.0762 87.5194 26.5018C88.0065 26.9274 88.4414 27.71 88.8241 28.8496L89.0329 29.4674C89.0851 29.6459 89.2068 29.7352 89.3982 29.7352C89.607 29.7352 89.7113 29.6185 89.7113 29.3851L89.633 26.2547C89.633 26.0624 89.52 25.9183 89.2938 25.8222C88.8763 25.6574 88.3892 25.527 87.8325 25.4309C87.2758 25.321 86.6583 25.2661 85.9798 25.2661C84.6403 25.2661 83.4486 25.5819 82.4048 26.2135C81.3784 26.8313 80.5695 27.71 79.978 28.8496C79.3866 29.9754 79.0908 31.2935 79.0908 32.8038C79.0908 34.369 79.3431 35.7282 79.8476 36.8815C80.3521 38.0211 81.0914 38.9067 82.0656 39.5382Z" fill="black"/>
<path fill-rule="evenodd" clip-rule="evenodd" d="M100.342 38.342C100.938 39.2405 101.699 39.7575 102.625 39.8933C102.716 40.1051 103.08 40.5434 103.078 40.6118C102.879 40.5452 102.467 40.4842 102.254 40.426C102.118 40.3886 101.989 40.3534 101.882 40.3208C100.977 40.0874 100.16 39.6206 99.4291 38.9204C99.1388 38.6298 98.8731 38.312 98.6318 37.9668C99.1194 38.1142 100.144 38.3956 100.342 38.342ZM99.1943 32.8656C99.1943 34.7878 99.4221 36.3144 99.8779 37.4453C99.7347 37.437 98.5322 36.9992 97.9489 36.7814C97.873 36.62 97.801 36.4543 97.733 36.2843C97.3329 35.2408 97.1328 34.1012 97.1328 32.8656C97.1328 31.7946 97.2807 30.7992 97.5764 29.8793C97.8895 28.9594 98.3158 28.1562 98.855 27.4698C99.4117 26.7695 100.055 26.2272 100.786 25.8428C101.517 25.4583 102.3 25.2661 103.135 25.2661C103.97 25.2661 104.744 25.4583 105.457 25.8428C106.188 26.2272 106.831 26.7695 107.388 27.4698C107.945 28.1562 108.371 28.9594 108.667 29.8793C108.98 30.7992 109.136 31.7946 109.136 32.8656C109.136 34.1287 108.919 35.2957 108.484 36.3667C108.066 37.4238 107.484 38.3026 106.736 39.0028C106.145 39.5688 105.486 39.9733 104.759 40.2164C104.618 40.0828 104.331 39.7972 104.31 39.7238C105 39.4608 105.574 38.9459 106.031 38.179C106.727 37.012 107.075 35.2408 107.075 32.8656C107.075 30.4903 106.727 28.726 106.031 27.5727C105.335 26.4057 104.37 25.8222 103.135 25.8222C101.917 25.8222 100.951 26.4057 100.238 27.5727C99.5422 28.726 99.1943 30.4903 99.1943 32.8656Z" fill="black"/>
<path d="M84.5915 33.6893C85.0245 33.2225 86.3889 32.2666 88.1044 32.4644C90.2488 32.7115 95.7633 36.2688 97.4747 37.2233C97.7139 37.3567 98.031 37.4912 98.4005 37.6156C98.9098 37.787 99.5185 37.939 100.159 38.042C100.656 38.1217 101.172 38.172 101.676 38.179C101.738 38.1798 101.8 38.1802 101.861 38.1801C101.774 38.0769 101.684 37.9733 101.592 37.8685C101.026 37.8705 100.485 37.8 99.9828 37.6899C99.2535 37.53 98.6069 37.2868 98.0868 37.0613C97.8568 36.9616 97.6515 36.8654 97.4747 36.7814C96.1455 36.1498 90.9659 32.6939 88.6344 32.3095C86.7692 32.002 84.9621 33.0486 84.5915 33.6893Z" fill="black"/>
<path d="M102.536 38.1566C102.455 38.0537 102.369 37.9437 102.279 37.8296C102.047 37.8555 101.818 37.8677 101.592 37.8685C101.684 37.9733 101.774 38.0769 101.861 38.1801C102.095 38.1797 102.32 38.172 102.536 38.1566Z" fill="black"/>
<path d="M103.949 39.8358C103.692 39.8983 103.42 39.9295 103.135 39.9295C103.097 39.9295 103.059 39.929 103.022 39.9278C103.084 40.0919 103.134 40.1149 103.27 40.3493C103.406 40.5836 103.838 41.1459 104.014 41.5287C104.358 42.2755 104.799 42.8275 105.338 43.1847C105.877 43.5419 106.448 43.7623 107.049 43.8458C107.671 43.9405 108.239 43.9521 108.753 43.8806C109.352 43.7972 109.836 43.6672 110.202 43.4907C110.589 43.3253 110.902 43.1424 111.14 42.942C111.256 42.8283 111.303 42.7241 111.282 42.6294C111.258 42.5212 111.183 42.462 111.057 42.4516C110.931 42.4413 110.807 42.4794 110.685 42.5661C110.211 42.8969 109.76 43.0479 109.203 43.1696C108.606 43.3001 108.173 43.4148 107.323 43.1696C106.473 42.9245 106.106 42.603 105.623 41.8617C105.217 41.2402 104.569 40.5052 103.949 39.8358Z" fill="black"/>
<path fill-rule="evenodd" clip-rule="evenodd" d="M106.752 32.6494C107.147 33.7392 107.109 34.7062 106.151 36.213C106.05 36.3718 105.925 36.5236 105.795 36.6596C105.565 36.9008 105.32 37.0922 105.17 37.1847C104.644 37.5091 104.475 37.5906 104.143 37.7323C103.519 37.9993 102.951 38.1272 102.536 38.1566C102.455 38.0537 102.369 37.9437 102.279 37.8296C102.561 37.7983 102.846 37.7472 103.135 37.6724C103.645 37.5402 104.257 37.2018 104.644 36.9339C104.918 36.7441 105.197 36.3961 105.218 36.3667C105.914 35.4157 106.333 34.4018 106.124 33.4679C106.055 33.1614 105.781 32.7548 105.346 32.7028C104.858 32.6447 104.085 32.8941 103.437 33.6687C102.848 32.7054 101.882 32.2427 100.905 32.536C100.675 32.6049 100.348 33.0532 100.238 33.5336C100.11 34.0961 100.222 35.1414 100.905 36.1583C101.054 36.3805 101.33 36.7017 101.622 37.0422C101.811 37.2621 102.007 37.4902 102.18 37.7049C102.141 37.7169 101.693 37.7301 101.475 37.7353C101.426 37.6804 101.375 37.6233 101.322 37.5647C101.061 37.2721 100.765 36.9411 100.543 36.6596C100.502 36.6078 100.462 36.5571 100.422 36.507C99.7305 35.6377 99.2071 34.9796 99.4291 33.1383C99.5285 32.3147 100.177 31.8026 100.967 31.6888C101.927 31.5504 103.062 31.9914 103.54 33.0715C103.819 32.4504 104.645 31.8679 105.482 31.8767C105.946 31.8817 106.576 32.1623 106.752 32.6494Z" fill="black"/>
<path fill-rule="evenodd" clip-rule="evenodd" d="M103.949 39.8358C103.692 39.8983 103.42 39.9295 103.135 39.9295C103.097 39.9295 103.059 39.929 103.022 39.9278C102.901 39.6101 102.779 39.4355 102.55 39.1099C102.483 39.0131 102.406 38.903 102.316 38.7718C102.219 38.6281 102.11 38.4853 101.994 38.342C102.193 38.334 102.602 38.3137 102.647 38.2967C102.719 38.3888 102.786 38.473 102.844 38.5466C102.919 38.6411 102.98 38.7181 103.022 38.7718C103.368 39.2128 103.693 39.5614 103.882 39.7645C103.907 39.7907 103.929 39.8145 103.949 39.8358Z" fill="black"/>
<circle cx="90.6827" cy="25.0272" r="1" stroke="black" stroke-width="0.505019"/>
<circle cx="90.6827" cy="25.0272" r="1" stroke="black" stroke-width="0.505019"/>
<path d="M94.4526 21.5304C94.4526 20.7812 93.8454 20.1738 93.0963 20.1738C92.3472 20.1738 91.7398 20.7812 91.7398 21.5304C91.7398 22.2795 92.3472 22.8867 93.0963 22.8867V23.4015L93 23.3993C92.0431 23.3508 91.276 22.5835 91.2274 21.6266L91.2249 21.5304C91.2249 20.4968 92.0628 19.6589 93.0963 19.6589L93.1926 19.6614C94.1813 19.7116 94.9675 20.5292 94.9675 21.5304L94.9652 21.6266C94.9151 22.6153 94.0975 23.4015 93.0963 23.4015V22.8867C93.8454 22.8866 94.4526 22.2795 94.4526 21.5304Z" fill="black"/>
<path d="M94.4526 21.5304C94.4526 20.7812 93.8454 20.1738 93.0963 20.1738C92.3472 20.1738 91.7398 20.7812 91.7398 21.5304C91.7398 22.2795 92.3472 22.8867 93.0963 22.8867V23.4015L93 23.3993C92.0431 23.3508 91.276 22.5835 91.2274 21.6266L91.2249 21.5304C91.2249 20.4968 92.0628 19.6589 93.0963 19.6589L93.1926 19.6614C94.1813 19.7116 94.9675 20.5292 94.9675 21.5304L94.9652 21.6266C94.9151 22.6153 94.0975 23.4015 93.0963 23.4015V22.8867C93.8454 22.8866 94.4526 22.2795 94.4526 21.5304Z" fill="black"/>
</g>
<defs>
<clipPath id="clip0_269_51">
<rect width="210" height="148.5" fill="white" transform="matrix(-1 0 0 -1 210.65 149.269)"/>
</clipPath>
</defs>
</svg>
