<svg width="211" height="149" viewBox="0 0 211 149" fill="none" xmlns="http://www.w3.org/2000/svg">
<rect width="210" height="148.5" transform="matrix(-1 0 0 -1 210.65 148.731)" fill="white"/>
<path d="M149.293 39.7619C149.032 39.7619 148.902 39.6864 148.902 39.5354C148.902 39.3843 149.015 39.302 149.241 39.2882L150.415 39.1441C150.763 39.1029 150.998 39.0342 151.12 38.9381C151.242 38.8283 151.303 38.6292 151.303 38.3409V25.9841C151.303 25.7918 151.25 25.6546 151.146 25.5722C151.042 25.4898 150.824 25.4486 150.494 25.4486C149.85 25.4486 149.215 25.6683 148.589 26.1076C147.962 26.547 147.554 27.2541 147.362 28.2289L147.232 28.9085C147.197 29.087 147.075 29.1762 146.866 29.1762C146.606 29.1762 146.492 29.0595 146.527 28.8261L146.762 25.0985C146.797 24.7827 146.953 24.6248 147.232 24.6248C147.354 24.6248 147.467 24.6523 147.571 24.7072C147.675 24.7484 147.849 24.7964 148.093 24.8514C148.354 24.9063 148.763 24.9337 149.319 24.9337H155.138C155.695 24.9337 156.095 24.9063 156.339 24.8514C156.6 24.7964 156.782 24.7484 156.887 24.7072C157.009 24.6523 157.122 24.6248 157.226 24.6248C157.504 24.6248 157.661 24.7827 157.696 25.0985L157.931 28.8261C157.965 29.0595 157.852 29.1762 157.591 29.1762C157.383 29.1762 157.261 29.087 157.226 28.9085L157.096 28.2289C156.922 27.2541 156.521 26.547 155.895 26.1076C155.269 25.6683 154.625 25.4486 153.964 25.4486C153.634 25.4486 153.416 25.4898 153.312 25.5722C153.207 25.6546 153.155 25.7918 153.155 25.9841V38.3409C153.155 38.6292 153.216 38.8283 153.338 38.9381C153.477 39.0342 153.712 39.1029 154.043 39.1441L155.217 39.2882C155.443 39.302 155.556 39.3843 155.556 39.5354C155.556 39.6864 155.426 39.7619 155.165 39.7619H149.293Z" fill="black"/>
<path d="M140.593 39.9473C140.245 39.9473 139.854 39.9198 139.419 39.8649C139.001 39.81 138.601 39.7413 138.218 39.6589C137.853 39.5765 137.566 39.4873 137.357 39.3912C137.235 39.3363 137.14 39.2814 137.07 39.2264C137.018 39.1578 136.992 39.0479 136.992 38.8969L136.861 35.6636C136.861 35.389 136.975 35.2517 137.201 35.2517C137.392 35.2517 137.523 35.3752 137.592 35.6224L137.827 36.405C138.418 38.3683 139.523 39.35 141.141 39.35C142.011 39.35 142.698 39.1235 143.202 38.6704C143.724 38.2036 143.985 37.5514 143.985 36.7139C143.985 35.9038 143.716 35.1487 143.176 34.4485C142.654 33.7483 141.811 33.0549 140.645 32.3684C139.358 31.6407 138.418 30.9405 137.827 30.2678C137.235 29.5813 136.94 28.8536 136.94 28.0847C136.94 27.0687 137.383 26.2587 138.271 25.6545C139.175 25.0367 140.323 24.7278 141.715 24.7278C142.237 24.7278 142.741 24.7758 143.229 24.8719C143.716 24.9681 144.116 25.1054 144.429 25.2838C144.533 25.3388 144.612 25.4005 144.664 25.4692C144.733 25.5378 144.768 25.6271 144.768 25.7369L144.846 28.8467C144.846 29.0801 144.733 29.1968 144.507 29.1968C144.351 29.1968 144.238 29.1007 144.168 28.9085L143.985 28.3936C143.603 27.3364 143.202 26.5676 142.785 26.087C142.385 25.5928 141.802 25.3456 141.037 25.3456C140.289 25.3456 139.688 25.5378 139.236 25.9223C138.801 26.3067 138.584 26.849 138.584 27.5493C138.584 28.1396 138.827 28.7026 139.314 29.238C139.801 29.7735 140.654 30.4256 141.872 31.1945C143.176 32.032 144.124 32.8421 144.716 33.6247C145.325 34.3936 145.629 35.2173 145.629 36.096C145.629 36.8649 145.412 37.5377 144.977 38.1143C144.542 38.691 143.942 39.1441 143.176 39.4736C142.428 39.7894 141.567 39.9473 140.593 39.9473Z" fill="black"/>
<path d="M124.855 39.7619C124.594 39.7619 124.463 39.6864 124.463 39.5353C124.463 39.4118 124.576 39.3294 124.802 39.2882L125.403 39.2058C125.768 39.1509 126.003 39.0754 126.107 38.9793C126.229 38.8832 126.29 38.691 126.29 38.4026V26.293C126.29 26.0046 126.229 25.8124 126.107 25.7163C126.003 25.6202 125.768 25.5447 125.403 25.4898L124.802 25.4074C124.576 25.3662 124.463 25.2838 124.463 25.1603C124.463 25.0092 124.594 24.9337 124.855 24.9337H133.622C134.023 24.9337 134.24 25.0916 134.275 25.4074L134.484 28.8261C134.518 29.0595 134.405 29.1762 134.144 29.1762C133.936 29.1762 133.814 29.087 133.779 28.9085L133.622 28.1465C133.431 27.2129 133.04 26.5332 132.448 26.1076C131.857 25.6683 131.039 25.4486 129.995 25.4486C129.299 25.4486 128.812 25.531 128.534 25.6957C128.273 25.8467 128.143 26.1213 128.143 26.5195V31.4828C128.143 31.675 128.264 31.7711 128.508 31.7711H129.813C130.578 31.7711 131.048 31.4485 131.222 30.8032L131.483 29.7735C131.552 29.5675 131.7 29.4783 131.926 29.5057C132.118 29.5332 132.213 29.6499 132.213 29.8558V34.4896C132.213 34.6956 132.118 34.8123 131.926 34.8398C131.7 34.8672 131.552 34.778 131.483 34.572L131.222 33.5629C131.1 33.0823 130.926 32.7666 130.7 32.6155C130.491 32.4645 130.187 32.389 129.787 32.389H128.508C128.264 32.389 128.143 32.4851 128.143 32.6773V37.8466C128.143 38.3409 128.299 38.6978 128.612 38.9175C128.943 39.1372 129.534 39.247 130.387 39.247C131.257 39.247 131.996 39.0754 132.605 38.7322C133.231 38.3752 133.666 37.7161 133.91 36.7551L134.223 35.54C134.275 35.3615 134.405 35.2722 134.614 35.2722C134.858 35.2722 134.962 35.3889 134.927 35.6224L134.666 39.2882C134.631 39.604 134.414 39.7619 134.014 39.7619H124.855Z" fill="black"/>
<path d="M117.153 39.9472C116.214 39.9472 115.379 39.7756 114.648 39.4324C113.935 39.0754 113.378 38.588 112.978 37.9701C112.578 37.3386 112.378 36.6178 112.378 35.8077V26.293C112.378 26.0046 112.317 25.8124 112.195 25.7163C112.091 25.6202 111.856 25.5447 111.491 25.4898L110.891 25.4074C110.664 25.3662 110.551 25.2838 110.551 25.1603C110.551 25.0092 110.682 24.9337 110.943 24.9337H115.718C115.979 24.9337 116.109 25.0161 116.109 25.1809C116.109 25.3044 116.014 25.3799 115.822 25.4074L115.118 25.4898C114.77 25.531 114.535 25.6065 114.413 25.7163C114.292 25.8262 114.231 26.0252 114.231 26.3136V35.8283C114.231 36.8718 114.526 37.6818 115.118 38.2585C115.709 38.8351 116.536 39.1234 117.597 39.1234C118.675 39.1234 119.51 38.8351 120.102 38.2585C120.693 37.6818 120.989 36.8718 120.989 35.8283V26.7255C120.989 25.984 120.693 25.5722 120.102 25.4898L119.397 25.4074C119.206 25.3799 119.11 25.3044 119.11 25.1809C119.11 25.0161 119.241 24.9337 119.502 24.9337H123.259C123.52 24.9337 123.651 25.0092 123.651 25.1603C123.651 25.2838 123.538 25.3662 123.312 25.4074L122.711 25.4898C122.12 25.5722 121.824 25.9772 121.824 26.7049V35.8077C121.824 37.0571 121.398 38.0594 120.546 38.8145C119.693 39.5697 118.562 39.9472 117.153 39.9472Z" fill="black"/>
<path d="M93.1332 9.776C94.0275 8.76484 95.0997 8.46496 96.0487 8.67461C96.888 8.86008 97.6001 9.43996 97.9631 10.2061C98.7823 9.47524 99.5764 9.27087 100.308 9.45571C100.981 9.62568 101.532 10.1105 101.953 10.6506C103.146 9.42406 104.383 9.1506 105.453 9.4263C106.473 9.6892 107.287 10.4385 107.723 11.1934C108.966 10.9708 109.767 11.201 110.189 11.7661C110.562 12.2665 110.554 12.9269 110.434 13.457C110.962 13.8569 111.307 14.2494 111.492 14.6366C111.702 15.0774 111.696 15.498 111.533 15.8672C111.376 16.2234 111.084 16.5055 110.767 16.7174C110.539 16.869 110.287 16.9914 110.037 17.0847C110.211 17.7112 110.219 18.2488 110.081 18.6992C109.919 19.2268 109.567 19.5972 109.129 19.8325C108.362 20.2452 107.323 20.2517 106.453 20.0301C106.227 20.5703 105.946 20.99 105.604 21.2901C105.203 21.6432 104.737 21.8165 104.23 21.8402C103.298 21.8838 102.248 21.4191 101.177 20.7169C98.7282 22.5996 95.8567 23.0841 93.8183 23.0841C91.952 23.0841 90.3854 23.0936 88.6703 23.0984C86.9344 23.1033 85.0488 23.1035 82.553 23.0841L82.5581 22.4611C85.0511 22.4805 86.9342 22.4804 88.6686 22.4755C89.6686 22.4726 90.6201 22.4683 91.6105 22.4652C91.9896 22.8475 92.5152 23.0844 93.0962 23.0844C93.6918 23.0843 94.2286 22.8351 94.6097 22.4357C96.5198 22.3156 98.922 21.7349 100.967 20.0902L101.146 19.9456L101.337 20.0751C102.456 20.8353 103.43 21.254 104.201 21.218C104.575 21.2005 104.904 21.0765 105.193 20.8223C105.487 20.5638 105.755 20.1561 105.972 19.5477L106.074 19.2621L106.362 19.3563C107.185 19.6253 108.183 19.634 108.834 19.2837C109.149 19.1145 109.378 18.8653 109.486 18.5162C109.595 18.1603 109.589 17.6636 109.355 16.9864L109.247 16.6744L109.565 16.5849C109.857 16.5027 110.163 16.3709 110.421 16.1993C110.681 16.0259 110.87 15.8259 110.963 15.6155C111.05 15.4181 111.064 15.1872 110.929 14.9046C110.789 14.6094 110.481 14.2488 109.9 13.8371L109.718 13.7079L109.781 13.4939C109.93 12.9952 109.935 12.4674 109.69 12.1389C109.466 11.839 108.921 11.5695 107.623 11.848L107.384 11.8993L107.277 11.6793C106.945 10.9928 106.209 10.2643 105.297 10.0294C104.418 9.80281 103.308 10.0197 102.16 11.3457L101.894 11.654L101.666 11.3156C101.255 10.7022 100.735 10.2061 100.156 10.0596C99.6095 9.92167 98.9107 10.0722 98.0644 10.9792L97.6762 11.3953L97.535 10.8439C97.3375 10.0733 96.6953 9.45558 95.9144 9.283C95.1535 9.11486 94.2155 9.36275 93.4085 10.4213L93.1805 10.7208L92.9291 10.4407C92.5753 10.0466 92.0074 9.76668 91.4765 9.83005C90.9807 9.88926 90.4072 10.2645 90.0508 11.4164L89.9902 11.6127L89.7861 11.6341C88.99 11.7181 88.5831 12.0492 88.4496 12.3996C88.3154 12.7521 88.4053 13.2603 88.9011 13.8117L89.0771 14.0073L88.9137 14.2135C88.6217 14.5822 88.3181 15.1322 88.2819 15.6072C88.2646 15.8347 88.3097 16.0249 88.4257 16.1771C88.5431 16.3311 88.7632 16.4859 89.1714 16.5816L89.0291 17.188C88.5268 17.0702 88.1607 16.8568 87.9305 16.555C87.6991 16.2515 87.635 15.8979 87.6607 15.56C87.703 15.004 87.9905 14.4391 88.2739 14.0312C87.81 13.4278 87.6451 12.7622 87.8676 12.1779C88.0972 11.5752 88.6945 11.1752 89.5191 11.0415C89.9325 9.86803 90.6273 9.30416 91.4028 9.2116C92.0497 9.13441 92.6789 9.39723 93.1332 9.776Z" fill="black"/>
<path d="M69.3748 39.5353C69.3748 39.6864 69.5053 39.7619 69.7663 39.7619H75.6376C75.8985 39.7619 76.029 39.6864 76.029 39.5353C76.029 39.3843 75.9159 39.3019 75.6897 39.2882L74.5155 39.144C74.185 39.1029 73.9501 39.0342 73.8109 38.9381C73.6892 38.8283 73.6283 38.6292 73.6283 38.3409V33.3158C73.6283 33.0961 73.6544 32.9039 73.7066 32.7391C73.7587 32.5606 73.8457 32.3753 73.9675 32.183L77.3859 26.7666C77.6816 26.3136 77.9165 25.9909 78.0904 25.7987C79.2598 24.5067 80.9527 23.1589 82.553 23.0841L82.5581 22.4611C78.9664 22.1181 77.4155 25.2753 76.5248 26.746L73.4456 31.7094C73.376 31.8055 73.289 31.8535 73.1847 31.8535C73.0803 31.8535 72.9933 31.8055 72.9237 31.7094L69.7141 26.3136C69.5401 26.0252 69.514 25.8124 69.6358 25.6751C69.7576 25.5378 69.9663 25.4623 70.2621 25.4486L70.7579 25.4074C71.0536 25.3937 71.2015 25.3113 71.2015 25.1603C71.2015 25.0092 71.0797 24.9337 70.8361 24.9337H66.374C66.113 24.9337 65.9825 25.0024 65.9825 25.1397C65.9825 25.277 66.1043 25.3662 66.3479 25.4074L66.5827 25.4486C66.8785 25.5035 67.1046 25.5927 67.2612 25.7163C67.4177 25.8399 67.5569 26.0184 67.6787 26.2518L71.5146 32.5949C71.6886 32.8833 71.7755 33.1785 71.7755 33.4805V38.3409C71.7755 38.6292 71.7147 38.8283 71.5929 38.9381C71.4711 39.0342 71.2363 39.1029 70.8883 39.144L69.7141 39.2882C69.4879 39.3019 69.3748 39.3843 69.3748 39.5353Z" fill="black"/>
<path d="M64.1408 39.9472C63.8625 39.9472 63.6277 39.7825 63.4363 39.453L56.3647 27.3433C56.3125 27.2472 56.2429 27.206 56.1559 27.2197C56.0863 27.2335 56.0515 27.2952 56.0515 27.4051V37.9907C56.0515 38.3752 56.1298 38.6704 56.2864 38.8763C56.4603 39.0685 56.7648 39.1921 57.1997 39.247L57.5389 39.2882C57.7651 39.3019 57.8781 39.3843 57.8781 39.5353C57.8781 39.6864 57.7477 39.7619 57.4867 39.7619H53.7552C53.4942 39.7619 53.3638 39.6864 53.3638 39.5353C53.3638 39.3843 53.4768 39.3019 53.703 39.2882L54.0422 39.247C54.4945 39.1921 54.8077 39.0685 54.9816 38.8763C55.1556 38.6704 55.2426 38.3752 55.2426 37.9907V26.293C55.2426 26.0046 55.1817 25.8124 55.0599 25.7163C54.9555 25.6202 54.7033 25.5447 54.3032 25.4898L53.703 25.4074C53.4768 25.3662 53.3638 25.2838 53.3638 25.1603C53.3638 25.0092 53.4942 24.9337 53.7552 24.9337H56.5473C56.9822 24.9337 57.2867 25.0847 57.4606 25.3868L63.619 36.0754C63.6711 36.1578 63.732 36.1921 63.8016 36.1784C63.8886 36.1647 63.9321 36.1166 63.9321 36.0342V26.7049C63.9321 26.2655 63.8364 25.9635 63.645 25.7987C63.4537 25.6202 63.2101 25.5104 62.9144 25.4692L62.4447 25.4074C62.2185 25.3662 62.1055 25.2838 62.1055 25.1603C62.1055 25.0092 62.2359 24.9337 62.4969 24.9337H66.2284C66.4894 24.9337 66.6198 25.0092 66.6198 25.1603C66.6198 25.3113 66.5068 25.3937 66.2806 25.4074L65.9414 25.4486C65.4891 25.5035 65.1759 25.6202 65.002 25.7987C64.828 25.9635 64.741 26.2655 64.741 26.7049V39.2882C64.741 39.5353 64.6801 39.707 64.5584 39.8031C64.454 39.8992 64.3148 39.9472 64.1408 39.9472Z" fill="black"/>
<path fill-rule="evenodd" clip-rule="evenodd" d="M82.0656 38.9999C83.0398 39.6315 84.2315 39.9473 85.6406 39.9473C86.3538 39.9473 86.9801 39.8923 87.5194 39.7825C88.0587 39.6864 88.5371 39.556 88.9546 39.3912C89.2155 39.2814 89.3982 39.1852 89.5026 39.1029C89.607 39.0068 89.6591 38.8832 89.6591 38.7322V33.151C89.6591 32.8627 89.6939 32.6567 89.7635 32.5332C89.435 32.5332 88.891 32.4222 88.3732 32.3166C88.0898 32.2588 87.8144 32.2026 87.5864 32.1671C86.8397 32.0507 86.5276 32.1101 86.9192 32.3272C87.2845 32.3547 87.5194 32.4233 87.6238 32.5332C87.7455 32.643 87.8064 32.8421 87.8064 33.1304V37.6406C87.8064 38.3134 87.6238 38.7734 87.2584 39.0205C86.8931 39.2676 86.3538 39.3912 85.6406 39.3912C84.3184 39.3912 83.2312 38.7871 82.3787 37.5789C81.5437 36.3569 81.1262 34.5858 81.1262 32.2654C81.1262 30.0138 81.535 28.2975 82.3526 27.1168C83.1877 25.9223 84.2402 25.325 85.5101 25.325C86.3625 25.325 87.0323 25.5378 87.5194 25.9635C88.0065 26.3891 88.4414 27.1717 88.8241 28.3113L89.0329 28.9291C89.0851 29.1076 89.2068 29.1968 89.3982 29.1968C89.607 29.1968 89.7113 29.0801 89.7113 28.8467L89.633 25.7163C89.633 25.5241 89.52 25.3799 89.2938 25.2838C88.8763 25.1191 88.3892 24.9886 87.8325 24.8925C87.2758 24.7827 86.6583 24.7278 85.9798 24.7278C84.6403 24.7278 83.4486 25.0436 82.4048 25.6751C81.3784 26.293 80.5695 27.1717 79.978 28.3113C79.3866 29.4371 79.0908 30.7552 79.0908 32.2654C79.0908 33.8306 79.3431 35.1899 79.8476 36.3432C80.3521 37.4828 81.0914 38.3683 82.0656 38.9999Z" fill="black"/>
<path fill-rule="evenodd" clip-rule="evenodd" d="M100.342 37.8037C100.938 38.7021 101.699 39.2192 102.625 39.355C102.716 39.5667 103.08 40.0051 103.078 40.0735C102.879 40.0069 102.467 39.9458 102.254 39.8876C102.118 39.8502 101.989 39.815 101.882 39.7825C100.977 39.5491 100.16 39.0823 99.4291 38.3821C99.1388 38.0915 98.8731 37.7736 98.6318 37.4285C99.1194 37.5759 100.144 37.8573 100.342 37.8037ZM99.1943 32.3272C99.1943 34.2494 99.4221 35.776 99.8779 36.907C99.7347 36.8986 98.5322 36.4609 97.9489 36.243C97.873 36.0817 97.801 35.916 97.733 35.7459C97.3329 34.7025 97.1328 33.5629 97.1328 32.3272C97.1328 31.2563 97.2807 30.2609 97.5764 29.341C97.8895 28.4211 98.3158 27.6179 98.855 26.9314C99.4117 26.2312 100.055 25.6889 100.786 25.3044C101.517 24.92 102.3 24.7278 103.135 24.7278C103.97 24.7278 104.744 24.92 105.457 25.3044C106.188 25.6889 106.831 26.2312 107.388 26.9314C107.945 27.6179 108.371 28.4211 108.667 29.341C108.98 30.2609 109.136 31.2563 109.136 32.3272C109.136 33.5904 108.919 34.7574 108.484 35.8283C108.066 36.8855 107.484 37.7642 106.736 38.4644C106.145 39.0305 105.486 39.435 104.759 39.678C104.618 39.5445 104.331 39.2589 104.31 39.1854C105 38.9225 105.574 38.4076 106.031 37.6406C106.727 36.4736 107.075 34.7025 107.075 32.3272C107.075 29.952 106.727 28.1877 106.031 27.0344C105.335 25.8674 104.37 25.2838 103.135 25.2838C101.917 25.2838 100.951 25.8674 100.238 27.0344C99.5422 28.1877 99.1943 29.952 99.1943 32.3272Z" fill="black"/>
<path d="M84.5915 33.151C85.0245 32.6842 86.3889 31.7283 88.1044 31.926C90.2488 32.1732 95.7633 35.7305 97.4747 36.685C97.7139 36.8183 98.031 36.9529 98.4005 37.0772C98.9098 37.2486 99.5185 37.4007 100.159 37.5036C100.656 37.5834 101.172 37.6337 101.676 37.6406C101.738 37.6415 101.8 37.6419 101.861 37.6418C101.774 37.5386 101.684 37.4349 101.592 37.3302C101.026 37.3322 100.485 37.2617 99.9828 37.1516C99.2535 36.9917 98.6069 36.7484 98.0868 36.523C97.8568 36.4233 97.6515 36.327 97.4747 36.243C96.1455 35.6115 90.9659 32.1556 88.6344 31.7712C86.7692 31.4636 84.9621 32.5103 84.5915 33.151Z" fill="black"/>
<path d="M102.536 37.6183C102.455 37.5153 102.369 37.4053 102.279 37.2913C102.047 37.3171 101.818 37.3294 101.592 37.3302C101.684 37.4349 101.774 37.5386 101.861 37.6418C102.095 37.6413 102.32 37.6336 102.536 37.6183Z" fill="black"/>
<path d="M103.949 39.2975C103.692 39.36 103.42 39.3912 103.135 39.3912C103.097 39.3912 103.059 39.3906 103.022 39.3895C103.084 39.5536 103.134 39.5766 103.27 39.8109C103.406 40.0452 103.838 40.6076 104.014 40.9903C104.358 41.7372 104.799 42.2892 105.338 42.6464C105.877 43.0035 106.448 43.2239 107.049 43.3075C107.671 43.4022 108.239 43.4138 108.753 43.3423C109.352 43.2588 109.836 43.1288 110.202 42.9523C110.589 42.7869 110.902 42.604 111.14 42.4036C111.256 42.2899 111.303 42.1857 111.282 42.0911C111.258 41.9829 111.183 41.9236 111.057 41.9133C110.931 41.9029 110.807 41.9411 110.685 42.0278C110.211 42.3586 109.76 42.5096 109.203 42.6313C108.606 42.7618 108.173 42.8764 107.323 42.6313C106.473 42.3861 106.106 42.0647 105.623 41.3234C105.217 40.7018 104.569 39.9669 103.949 39.2975Z" fill="black"/>
<path fill-rule="evenodd" clip-rule="evenodd" d="M106.752 32.111C107.147 33.2009 107.109 34.1679 106.151 35.6746C106.05 35.8334 105.925 35.9852 105.795 36.1212C105.565 36.3624 105.32 36.5539 105.17 36.6464C104.644 36.9708 104.475 37.0522 104.143 37.194C103.519 37.461 102.951 37.5888 102.536 37.6183C102.455 37.5153 102.369 37.4053 102.279 37.2913C102.561 37.26 102.846 37.2088 103.135 37.1341C103.645 37.0018 104.257 36.6634 104.644 36.3955C104.918 36.2058 105.197 35.8578 105.218 35.8283C105.914 34.8773 106.333 33.8635 106.124 32.9295C106.055 32.623 105.781 32.2164 105.346 32.1645C104.858 32.1064 104.085 32.3558 103.437 33.1304C102.848 32.1671 101.882 31.7044 100.905 31.9977C100.675 32.0666 100.348 32.5148 100.238 32.9952C100.11 33.5578 100.222 34.6031 100.905 35.62C101.054 35.8422 101.33 36.1633 101.622 36.5039C101.811 36.7238 102.007 36.9519 102.18 37.1666C102.141 37.1786 101.693 37.1918 101.475 37.1969C101.426 37.1421 101.375 37.085 101.322 37.0264C101.061 36.7338 100.765 36.4027 100.543 36.1212C100.502 36.0695 100.462 36.0187 100.422 35.9687C99.7305 35.0994 99.2071 34.4413 99.4291 32.5999C99.5285 31.7763 100.177 31.2642 100.967 31.1505C101.927 31.0121 103.062 31.4531 103.54 32.5332C103.819 31.912 104.645 31.3295 105.482 31.3384C105.946 31.3433 106.576 31.6239 106.752 32.111Z" fill="black"/>
<path fill-rule="evenodd" clip-rule="evenodd" d="M103.949 39.2975C103.692 39.36 103.42 39.3912 103.135 39.3912C103.097 39.3912 103.059 39.3906 103.022 39.3895C102.901 39.0718 102.779 38.8972 102.55 38.5716C102.483 38.4748 102.406 38.3646 102.316 38.2334C102.219 38.0898 102.11 37.947 101.994 37.8037C102.193 37.7957 102.602 37.7754 102.647 37.7584C102.719 37.8505 102.786 37.9347 102.844 38.0083C102.919 38.1028 102.98 38.1798 103.022 38.2334C103.368 38.6745 103.693 39.023 103.882 39.2261C103.907 39.2524 103.929 39.2762 103.949 39.2975Z" fill="black"/>
<circle cx="90.6826" cy="24.4888" r="1" stroke="black" stroke-width="0.505019"/>
<circle cx="90.6826" cy="24.4888" r="1" stroke="black" stroke-width="0.505019"/>
<path d="M94.4526 20.992C94.4526 20.2429 93.8454 19.6355 93.0963 19.6355C92.3471 19.6355 91.7397 20.2429 91.7397 20.992C91.7398 21.7412 92.3471 22.3483 93.0963 22.3483V22.8632L93 22.8609C92.0431 22.8125 91.2759 22.0452 91.2274 21.0883L91.2249 20.992C91.2249 19.9585 92.0628 19.1206 93.0963 19.1206L93.1926 19.1231C94.1813 19.1733 94.9674 19.9908 94.9674 20.992L94.9652 21.0883C94.915 22.077 94.0974 22.8632 93.0963 22.8632V22.3483C93.8454 22.3483 94.4525 21.7411 94.4526 20.992Z" fill="black"/>
<path d="M94.4526 20.992C94.4526 20.2429 93.8454 19.6355 93.0963 19.6355C92.3471 19.6355 91.7397 20.2429 91.7397 20.992C91.7398 21.7412 92.3471 22.3483 93.0963 22.3483V22.8632L93 22.8609C92.0431 22.8125 91.2759 22.0452 91.2274 21.0883L91.2249 20.992C91.2249 19.9585 92.0628 19.1206 93.0963 19.1206L93.1926 19.1231C94.1813 19.1733 94.9674 19.9908 94.9674 20.992L94.9652 21.0883C94.915 22.077 94.0974 22.8632 93.0963 22.8632V22.3483C93.8454 22.3483 94.4525 21.7411 94.4526 20.992Z" fill="black"/>
<path d="M54.4503 56.8607C54.6236 57.0873 54.8103 57.3673 55.0103 57.7007C55.2103 58.0207 55.4036 58.3473 55.5903 58.6807C55.7769 59.014 55.9436 59.3207 56.0903 59.6007L55.0103 60.0807C54.8103 59.6807 54.5569 59.214 54.2503 58.6807C53.9436 58.1473 53.6569 57.694 53.3903 57.3207L54.4503 56.8607ZM56.6503 56.0607C56.8236 56.3007 57.0103 56.5873 57.2103 56.9207C57.4236 57.254 57.6303 57.5873 57.8303 57.9207C58.0303 58.2407 58.1969 58.5273 58.3303 58.7807L57.2503 59.2607C57.0369 58.8207 56.7769 58.3473 56.4703 57.8407C56.1636 57.3207 55.8703 56.874 55.5903 56.5007L56.6503 56.0607ZM46.8103 64.2807C47.4636 64.654 48.1369 65.0673 48.8303 65.5207C49.5369 65.974 50.2436 66.4473 50.9503 66.9407C51.6569 67.434 52.3236 67.914 52.9503 68.3807C53.5903 68.8473 54.1569 69.2807 54.6503 69.6807L53.4703 71.0607C53.0169 70.6473 52.4769 70.194 51.8503 69.7007C51.2236 69.194 50.5503 68.6873 49.8303 68.1807C49.1236 67.6607 48.4169 67.1673 47.7103 66.7007C47.0036 66.2207 46.3436 65.7873 45.7303 65.4007L46.8103 64.2807ZM55.9703 60.6407C55.8769 60.774 55.7903 60.9473 55.7103 61.1607C55.6303 61.3607 55.5636 61.5407 55.5103 61.7007C55.3103 62.3807 55.0369 63.114 54.6903 63.9007C54.3569 64.6873 53.9503 65.4807 53.4703 66.2807C53.0036 67.0807 52.4769 67.8407 51.8903 68.5607C50.9836 69.6807 49.8569 70.7473 48.5103 71.7607C47.1769 72.774 45.5636 73.634 43.6703 74.3407L42.2303 73.0807C43.4836 72.7073 44.6169 72.234 45.6303 71.6607C46.6436 71.0873 47.5569 70.4607 48.3703 69.7807C49.1836 69.1007 49.8903 68.4073 50.4903 67.7007C51.0103 67.074 51.4836 66.4007 51.9103 65.6807C52.3503 64.9473 52.7303 64.214 53.0503 63.4807C53.3703 62.7473 53.6036 62.074 53.7503 61.4607H46.3303L46.9903 60.0207H53.3303C53.5969 60.0207 53.8436 60.0073 54.0703 59.9807C54.2969 59.9407 54.4903 59.894 54.6503 59.8407L55.9703 60.6407ZM49.2303 57.7407C49.0569 58.0073 48.8903 58.294 48.7303 58.6007C48.5703 58.894 48.4369 59.134 48.3303 59.3207C47.9303 60.0407 47.4169 60.8407 46.7903 61.7207C46.1636 62.6007 45.4236 63.474 44.5703 64.3407C43.7169 65.2073 42.7569 66.0073 41.6903 66.7407L40.3503 65.7207C41.4969 65.0007 42.4903 64.2207 43.3303 63.3807C44.1836 62.5273 44.8903 61.694 45.4503 60.8807C46.0236 60.0673 46.4636 59.354 46.7703 58.7407C46.8769 58.5673 46.9969 58.3273 47.1303 58.0207C47.2636 57.714 47.3569 57.4273 47.4103 57.1607L49.2303 57.7407ZM60.8703 65.7607C62.6036 65.294 64.2169 64.7273 65.7103 64.0607C67.2036 63.394 68.5036 62.714 69.6103 62.0207C70.3036 61.5807 70.9769 61.1073 71.6303 60.6007C72.2969 60.0807 72.9236 59.5407 73.5103 58.9807C74.0969 58.4207 74.6169 57.8673 75.0703 57.3207L76.4103 58.5607C75.8503 59.1607 75.2436 59.7473 74.5903 60.3207C73.9369 60.894 73.2436 61.4473 72.5103 61.9807C71.7903 62.5007 71.0369 63.0073 70.2503 63.5007C69.5169 63.9407 68.6903 64.394 67.7703 64.8607C66.8503 65.3273 65.8703 65.7673 64.8303 66.1807C63.7903 66.594 62.7369 66.974 61.6703 67.3207L60.8703 65.7607ZM69.2903 62.8607L71.0103 62.3407V71.4607C71.0103 71.714 71.0103 71.9807 71.0103 72.2607C71.0236 72.5407 71.0369 72.8007 71.0503 73.0407C71.0769 73.2807 71.1036 73.4673 71.1303 73.6007H69.1703C69.1836 73.4673 69.1969 73.2807 69.2103 73.0407C69.2369 72.8007 69.2569 72.5407 69.2703 72.2607C69.2836 71.9807 69.2903 71.714 69.2903 71.4607V62.8607ZM85.3048 57.1007C85.3315 57.314 85.3715 57.5473 85.4248 57.8007C85.4915 58.054 85.5648 58.334 85.6448 58.6407C85.7915 59.174 85.9715 59.8273 86.1848 60.6007C86.3981 61.374 86.6248 62.214 86.8648 63.1207C87.1181 64.014 87.3715 64.914 87.6248 65.8207C87.8915 66.7273 88.1315 67.5873 88.3448 68.4007C88.5715 69.214 88.7715 69.9273 88.9448 70.5407C89.1181 71.1407 89.2448 71.5807 89.3248 71.8607C89.3648 71.994 89.4115 72.154 89.4648 72.3407C89.5315 72.5273 89.5981 72.7207 89.6648 72.9207C89.7315 73.1073 89.7915 73.274 89.8448 73.4207L87.9848 73.8607C87.9448 73.634 87.8915 73.3673 87.8248 73.0607C87.7715 72.7673 87.7048 72.4873 87.6248 72.2207C87.5581 71.9807 87.4515 71.594 87.3048 71.0607C87.1581 70.5273 86.9848 69.894 86.7848 69.1607C86.5981 68.4273 86.3915 67.6473 86.1648 66.8207C85.9381 65.994 85.7115 65.174 85.4848 64.3607C85.2715 63.534 85.0648 62.7607 84.8648 62.0407C84.6648 61.3073 84.4915 60.6807 84.3448 60.1607C84.1981 59.6273 84.0915 59.254 84.0248 59.0407C83.9181 58.6673 83.8181 58.3673 83.7248 58.1407C83.6315 57.9007 83.5448 57.7007 83.4648 57.5407L85.3048 57.1007ZM96.8648 60.3607C96.6248 60.8673 96.3048 61.434 95.9048 62.0607C95.5181 62.674 95.0848 63.3007 94.6048 63.9407C94.1248 64.5807 93.6381 65.194 93.1448 65.7807C92.6648 66.354 92.2181 66.8407 91.8048 67.2407L90.1848 66.4607C90.5981 66.1407 91.0181 65.7607 91.4448 65.3207C91.8715 64.8807 92.2781 64.4207 92.6648 63.9407C93.0648 63.4607 93.4181 63.0007 93.7248 62.5607C94.0448 62.1207 94.2981 61.7407 94.4848 61.4207C94.3248 61.4473 93.9781 61.514 93.4448 61.6207C92.9248 61.714 92.2715 61.8407 91.4848 62.0007C90.7115 62.1607 89.8715 62.334 88.9648 62.5207C88.0581 62.694 87.1448 62.874 86.2248 63.0607C85.3181 63.234 84.4581 63.4073 83.6448 63.5807C82.8315 63.7407 82.1248 63.8873 81.5248 64.0207C80.9381 64.1407 80.5181 64.2273 80.2648 64.2807L79.8248 62.5807C80.1715 62.554 80.4981 62.5207 80.8048 62.4807C81.1248 62.4407 81.4648 62.394 81.8248 62.3407C81.9848 62.314 82.3181 62.254 82.8248 62.1607C83.3448 62.0673 83.9648 61.954 84.6848 61.8207C85.4181 61.674 86.1981 61.5207 87.0248 61.3607C87.8648 61.2007 88.7048 61.0407 89.5448 60.8807C90.3848 60.7207 91.1715 60.574 91.9048 60.4407C92.6515 60.294 93.2848 60.1673 93.8048 60.0607C94.3248 59.954 94.6715 59.8807 94.8448 59.8407C95.0048 59.814 95.1648 59.7807 95.3248 59.7407C95.4848 59.6873 95.6248 59.6273 95.7448 59.5607L96.8648 60.3607ZM100.761 65.9636V64.4295H109.511V65.9636H100.761ZM100.761 70.1682V68.6341H109.511V70.1682H100.761ZM123.588 72.1407L124.568 71.1807C125.302 71.434 126.048 71.7073 126.808 72.0007C127.582 72.2807 128.308 72.5607 128.988 72.8407C129.668 73.1207 130.255 73.374 130.748 73.6007L129.488 74.6207C129.035 74.3807 128.488 74.1207 127.848 73.8407C127.222 73.5607 126.542 73.274 125.808 72.9807C125.075 72.6873 124.335 72.4073 123.588 72.1407ZM112.868 69.5607H130.628V70.8407H112.868V69.5607ZM113.428 57.8607H130.128V59.1407H113.428V57.8607ZM120.908 56.1607H122.468V61.0807H120.908V56.1607ZM117.328 63.7407V65.0807H126.448V63.7407H117.328ZM117.328 66.0407V67.4007H126.448V66.0407H117.328ZM117.328 61.4807V62.7807H126.448V61.4807H117.328ZM115.868 60.4607H127.968V68.3807H115.868V60.4607ZM118.648 71.2207L119.968 72.0807C119.435 72.4007 118.822 72.7207 118.128 73.0407C117.435 73.3607 116.722 73.654 115.988 73.9207C115.255 74.2007 114.555 74.434 113.888 74.6207C113.768 74.474 113.608 74.294 113.408 74.0807C113.208 73.8673 113.028 73.694 112.868 73.5607C113.535 73.374 114.235 73.154 114.968 72.9007C115.702 72.6473 116.395 72.374 117.048 72.0807C117.702 71.7873 118.235 71.5007 118.648 71.2207ZM133.528 58.0207H149.988V73.8407H148.428V59.4607H135.048V74.0007H133.528V58.0207ZM134.328 71.1207H149.268V72.5807H134.328V71.1207ZM142.888 58.9807H144.348V65.3407C144.348 65.754 144.402 65.9873 144.508 66.0407C144.628 66.094 144.808 66.1207 145.048 66.1207C145.142 66.1207 145.282 66.1207 145.468 66.1207C145.668 66.1207 145.835 66.1207 145.968 66.1207C146.102 66.1207 146.228 66.114 146.348 66.1007C146.482 66.0873 146.582 66.074 146.648 66.0607C146.715 66.0207 146.775 65.9673 146.828 65.9007C146.882 65.8207 146.922 65.7073 146.948 65.5607C146.988 65.414 147.008 65.1807 147.008 64.8607C147.022 64.5407 147.035 64.1607 147.048 63.7207C147.195 63.8407 147.375 63.9607 147.588 64.0807C147.815 64.1873 148.022 64.274 148.208 64.3407C148.195 64.754 148.168 65.1673 148.128 65.5807C148.102 65.994 148.055 66.294 147.988 66.4807C147.922 66.654 147.828 66.8007 147.708 66.9207C147.602 67.0273 147.468 67.1207 147.308 67.2007C147.162 67.2673 146.968 67.314 146.728 67.3407C146.502 67.3673 146.282 67.3807 146.068 67.3807C145.975 67.3807 145.835 67.3807 145.648 67.3807C145.475 67.3807 145.295 67.3807 145.108 67.3807C144.935 67.3807 144.802 67.3807 144.708 67.3807C144.482 67.3807 144.242 67.354 143.988 67.3007C143.748 67.2473 143.548 67.154 143.388 67.0207C143.202 66.9007 143.068 66.7207 142.988 66.4807C142.922 66.2407 142.888 65.8207 142.888 65.2207V58.9807ZM138.808 58.9207H140.268C140.202 60.414 140.062 61.7807 139.848 63.0207C139.648 64.2473 139.275 65.334 138.728 66.2807C138.182 67.2273 137.368 68.014 136.288 68.6407C136.208 68.4673 136.068 68.274 135.868 68.0607C135.682 67.8473 135.508 67.674 135.348 67.5407C136.308 66.994 137.028 66.3073 137.508 65.4807C137.988 64.6407 138.308 63.674 138.468 62.5807C138.642 61.474 138.755 60.254 138.808 58.9207ZM156.388 60.7607H168.468V62.1007H156.388V60.7607ZM156.388 64.7607H168.228V66.0607H156.388V64.7607ZM156.028 68.8407H168.288V70.1607H156.028V68.8407ZM155.548 60.7607H157.028V65.7807C157.028 66.4873 156.982 67.234 156.888 68.0207C156.808 68.8073 156.642 69.6007 156.388 70.4007C156.135 71.1873 155.768 71.9473 155.288 72.6807C154.822 73.414 154.208 74.0807 153.448 74.6807C153.368 74.574 153.262 74.4473 153.128 74.3007C153.008 74.1673 152.882 74.034 152.748 73.9007C152.615 73.7673 152.495 73.6673 152.388 73.6007C153.108 73.054 153.675 72.4607 154.088 71.8207C154.515 71.1673 154.828 70.5007 155.028 69.8207C155.242 69.1273 155.382 68.434 155.448 67.7407C155.515 67.0473 155.548 66.3873 155.548 65.7607V60.7607ZM167.668 60.7607H169.148V72.6807C169.148 73.1607 169.075 73.5273 168.928 73.7807C168.782 74.0473 168.522 74.2407 168.148 74.3607C167.762 74.4673 167.235 74.534 166.568 74.5607C165.902 74.6007 165.062 74.6207 164.048 74.6207C164.022 74.4873 163.975 74.3273 163.908 74.1407C163.855 73.9673 163.788 73.794 163.708 73.6207C163.628 73.4473 163.548 73.294 163.468 73.1607C164.015 73.174 164.535 73.1807 165.028 73.1807C165.522 73.194 165.955 73.194 166.328 73.1807C166.702 73.1807 166.962 73.1807 167.108 73.1807C167.335 73.1673 167.482 73.1207 167.548 73.0407C167.628 72.974 167.668 72.8473 167.668 72.6607V60.7607ZM161.448 61.3207H162.888V69.5207H161.448V61.3207ZM158.288 57.3607H164.588V58.6207H158.288V57.3607ZM158.468 56.1207L160.088 56.4207C159.662 57.2073 159.148 58.014 158.548 58.8407C157.948 59.6673 157.268 60.4807 156.508 61.2807C155.748 62.0673 154.895 62.8073 153.948 63.5007C153.855 63.3807 153.742 63.254 153.608 63.1207C153.488 62.974 153.362 62.8407 153.228 62.7207C153.095 62.6007 152.968 62.5073 152.848 62.4407C153.755 61.8273 154.568 61.1607 155.288 60.4407C156.008 59.7207 156.635 58.9873 157.168 58.2407C157.702 57.494 158.135 56.7873 158.468 56.1207ZM164.068 57.3607H164.408L164.648 57.2807L165.668 57.9407C165.442 58.394 165.168 58.8607 164.848 59.3407C164.542 59.8073 164.222 60.2607 163.888 60.7007C163.555 61.1273 163.228 61.5073 162.908 61.8407C162.775 61.7207 162.602 61.594 162.388 61.4607C162.188 61.3273 162.008 61.2207 161.848 61.1407C162.115 60.834 162.388 60.474 162.668 60.0607C162.962 59.6473 163.228 59.2273 163.468 58.8007C163.722 58.374 163.922 57.9873 164.068 57.6407V57.3607ZM50.4961 88.0716V98.9807H49.1751V89.4565H49.1112L46.4479 91.225V89.8826L49.1751 88.0716H50.4961ZM49.5693 103.775C48.4365 103.775 47.3569 103.602 46.3307 103.258C45.3079 102.914 44.3687 102.427 43.5128 101.798C42.6606 101.173 41.9202 100.433 41.2916 99.5772C40.6666 98.725 40.1819 97.7875 39.8374 96.7647C39.493 95.7385 39.3207 94.6589 39.3207 93.5261C39.3207 92.3933 39.493 91.3155 39.8374 90.2928C40.1819 89.2665 40.6666 88.3272 41.2916 87.475C41.9202 86.6191 42.6606 85.8787 43.5128 85.2537C44.3687 84.6252 45.3079 84.1387 46.3307 83.7942C47.3569 83.4498 48.4365 83.2775 49.5693 83.2775C50.7021 83.2775 51.7799 83.4498 52.8026 83.7942C53.8289 84.1387 54.7682 84.6252 55.6204 85.2537C56.4763 85.8787 57.2167 86.6191 57.8417 87.475C58.4702 88.3272 58.9567 89.2665 59.3012 90.2928C59.6457 91.3155 59.8179 92.3933 59.8179 93.5261C59.8179 94.6589 59.6457 95.7385 59.3012 96.7647C58.9567 97.7875 58.4702 98.725 57.8417 99.5772C57.2167 100.433 56.4763 101.173 55.6204 101.798C54.7682 102.427 53.8289 102.914 52.8026 103.258C51.7799 103.602 50.7021 103.775 49.5693 103.775ZM49.5693 102.539C50.5672 102.539 51.5153 102.386 52.4138 102.081C53.3158 101.779 54.1414 101.351 54.8907 100.797C55.6435 100.247 56.2952 99.5968 56.8456 98.8475C57.3996 98.0946 57.8275 97.269 58.1293 96.3706C58.4312 95.4686 58.5821 94.5204 58.5821 93.5261C58.5821 92.5282 58.4312 91.5801 58.1293 90.6816C57.8275 89.7797 57.3996 88.954 56.8456 88.2047C56.2952 87.4519 55.6435 86.8003 54.8907 86.2498C54.1414 85.6959 53.3158 85.2679 52.4138 84.9661C51.5153 84.6642 50.5672 84.5133 49.5693 84.5133C48.5714 84.5133 47.6215 84.6642 46.7195 84.9661C45.8211 85.2679 44.9954 85.6959 44.2426 86.2498C43.4933 86.8003 42.8417 87.4519 42.2877 88.2047C41.7373 88.954 41.3111 89.7797 41.0093 90.6816C40.7074 91.5801 40.5565 92.5282 40.5565 93.5261C40.5565 94.5204 40.7074 95.4686 41.0093 96.3706C41.3111 97.269 41.7373 98.0946 42.2877 98.8475C42.8417 99.5968 43.4933 100.247 44.2426 100.797C44.9954 101.351 45.8211 101.779 46.7195 102.081C47.6215 102.386 48.5714 102.539 49.5693 102.539ZM68.455 88.7357C68.355 89.5157 68.225 90.3307 68.065 91.1807C67.915 92.0307 67.72 92.8557 67.48 93.6557C67.18 94.6857 66.845 95.5457 66.475 96.2357C66.115 96.9257 65.725 97.4457 65.305 97.7957C64.885 98.1457 64.445 98.3207 63.985 98.3207C63.545 98.3207 63.12 98.1607 62.71 97.8407C62.3 97.5207 61.965 97.0607 61.705 96.4607C61.445 95.8507 61.315 95.1357 61.315 94.3157C61.315 93.4957 61.48 92.7207 61.81 91.9907C62.15 91.2607 62.615 90.6157 63.205 90.0557C63.805 89.4857 64.505 89.0357 65.305 88.7057C66.105 88.3757 66.96 88.2107 67.87 88.2107C68.75 88.2107 69.54 88.3557 70.24 88.6457C70.95 88.9357 71.555 89.3357 72.055 89.8457C72.555 90.3457 72.94 90.9307 73.21 91.6007C73.48 92.2607 73.615 92.9707 73.615 93.7307C73.615 94.7807 73.39 95.7057 72.94 96.5057C72.5 97.3057 71.86 97.9557 71.02 98.4557C70.19 98.9557 69.18 99.2857 67.99 99.4457L67.285 98.3357C67.525 98.3057 67.755 98.2757 67.975 98.2457C68.195 98.2157 68.395 98.1807 68.575 98.1407C69.055 98.0307 69.52 97.8607 69.97 97.6307C70.43 97.3907 70.84 97.0907 71.2 96.7307C71.56 96.3607 71.845 95.9257 72.055 95.4257C72.275 94.9157 72.385 94.3357 72.385 93.6857C72.385 93.0757 72.285 92.5107 72.085 91.9907C71.885 91.4607 71.59 90.9957 71.2 90.5957C70.81 90.1957 70.335 89.8807 69.775 89.6507C69.215 89.4207 68.575 89.3057 67.855 89.3057C67.035 89.3057 66.29 89.4557 65.62 89.7557C64.96 90.0557 64.395 90.4507 63.925 90.9407C63.465 91.4207 63.11 91.9507 62.86 92.5307C62.61 93.1007 62.485 93.6607 62.485 94.2107C62.485 94.8407 62.565 95.3607 62.725 95.7707C62.895 96.1707 63.095 96.4657 63.325 96.6557C63.565 96.8457 63.8 96.9407 64.03 96.9407C64.27 96.9407 64.515 96.8257 64.765 96.5957C65.015 96.3557 65.27 95.9757 65.53 95.4557C65.79 94.9257 66.045 94.2407 66.295 93.4007C66.515 92.6807 66.7 91.9157 66.85 91.1057C67.01 90.2957 67.125 89.5007 67.195 88.7207L68.455 88.7357ZM76.375 86.9207H79.75V87.8207H76.375V86.9207ZM76.225 90.9857H79.87V91.8857H76.225V90.9857ZM76.225 92.9807H79.87V93.8807H76.225V92.9807ZM75.595 88.9007H80.575V89.8607H75.595V88.9007ZM76.645 94.9907H79.945V99.2207H76.645V98.3207H78.985V95.8907H76.645V94.9907ZM76.135 94.9907H77.065V99.9557H76.135V94.9907ZM80.455 87.1007L81.22 86.6207C81.5 86.8907 81.775 87.2007 82.045 87.5507C82.325 87.8907 82.53 88.1907 82.66 88.4507L81.85 89.0057C81.73 88.7257 81.535 88.4107 81.265 88.0607C81.005 87.7007 80.735 87.3807 80.455 87.1007ZM80.335 90.4307L81.07 89.9057C81.38 90.1657 81.69 90.4657 82 90.8057C82.31 91.1457 82.535 91.4457 82.675 91.7057L81.91 92.3057C81.76 92.0357 81.535 91.7257 81.235 91.3757C80.935 91.0257 80.635 90.7107 80.335 90.4307ZM82.555 93.4757V97.9607H81.565V94.4507H80.26V93.4757H82.555ZM82.555 97.4357C82.795 97.8757 83.145 98.2307 83.605 98.5007C84.065 98.7607 84.595 98.9057 85.195 98.9357C85.455 98.9457 85.77 98.9507 86.14 98.9507C86.52 98.9507 86.915 98.9507 87.325 98.9507C87.745 98.9407 88.15 98.9257 88.54 98.9057C88.93 98.8857 89.275 98.8707 89.575 98.8607C89.535 98.9307 89.49 99.0257 89.44 99.1457C89.39 99.2757 89.35 99.4057 89.32 99.5357C89.29 99.6657 89.265 99.7857 89.245 99.8957C88.975 99.9057 88.66 99.9157 88.3 99.9257C87.95 99.9357 87.58 99.9407 87.19 99.9407C86.81 99.9407 86.44 99.9407 86.08 99.9407C85.73 99.9407 85.42 99.9357 85.15 99.9257C84.46 99.8857 83.865 99.7307 83.365 99.4607C82.865 99.1907 82.445 98.8107 82.105 98.3207C81.855 98.6107 81.595 98.8957 81.325 99.1757C81.065 99.4557 80.785 99.7557 80.485 100.076L79.945 99.0707C80.215 98.8407 80.5 98.5857 80.8 98.3057C81.11 98.0157 81.4 97.7257 81.67 97.4357H82.555ZM82.96 91.4807H89.275V92.4857H82.96V91.4807ZM85.6 86.4257H86.59V98.3057H85.6V86.4257ZM83.065 87.5957L83.935 87.3407C84.095 87.6807 84.245 88.0457 84.385 88.4357C84.535 88.8257 84.66 89.2057 84.76 89.5757C84.87 89.9357 84.95 90.2557 85 90.5357L84.07 90.8357C84.03 90.5557 83.96 90.2307 83.86 89.8607C83.76 89.4807 83.64 89.0957 83.5 88.7057C83.36 88.3057 83.215 87.9357 83.065 87.5957ZM88.075 87.2507L89.08 87.5657C88.98 87.9257 88.87 88.3057 88.75 88.7057C88.63 89.1057 88.505 89.4907 88.375 89.8607C88.255 90.2307 88.14 90.5607 88.03 90.8507L87.175 90.5657C87.285 90.2757 87.395 89.9357 87.505 89.5457C87.625 89.1557 87.735 88.7607 87.835 88.3607C87.935 87.9507 88.015 87.5807 88.075 87.2507ZM85.45 91.9007L86.185 92.2007C85.995 92.8107 85.755 93.4357 85.465 94.0757C85.175 94.7157 84.85 95.3157 84.49 95.8757C84.14 96.4357 83.775 96.9007 83.395 97.2707C83.345 97.1107 83.265 96.9307 83.155 96.7307C83.055 96.5307 82.96 96.3607 82.87 96.2207C83.21 95.9007 83.545 95.5057 83.875 95.0357C84.205 94.5657 84.51 94.0557 84.79 93.5057C85.07 92.9557 85.29 92.4207 85.45 91.9007ZM86.755 91.9607C86.965 92.4807 87.22 93.0157 87.52 93.5657C87.83 94.1157 88.155 94.6307 88.495 95.1107C88.845 95.5807 89.18 95.9707 89.5 96.2807C89.37 96.3707 89.225 96.4957 89.065 96.6557C88.915 96.8057 88.79 96.9457 88.69 97.0757C88.39 96.7157 88.075 96.2657 87.745 95.7257C87.415 95.1857 87.105 94.6107 86.815 94.0007C86.525 93.3907 86.275 92.8007 86.065 92.2307L86.755 91.9607ZM96.895 87.1157C96.835 87.4157 96.755 87.7707 96.655 88.1807C96.565 88.5807 96.415 89.0357 96.205 89.5457C96.025 89.9957 95.8 90.4607 95.53 90.9407C95.27 91.4207 94.99 91.8557 94.69 92.2457C94.88 92.1257 95.095 92.0257 95.335 91.9457C95.575 91.8557 95.82 91.7907 96.07 91.7507C96.33 91.7107 96.565 91.6907 96.775 91.6907C97.355 91.6907 97.845 91.8557 98.245 92.1857C98.645 92.5057 98.845 92.9757 98.845 93.5957C98.845 93.7857 98.845 94.0307 98.845 94.3307C98.845 94.6207 98.845 94.9307 98.845 95.2607C98.855 95.5807 98.865 95.8957 98.875 96.2057C98.885 96.5157 98.89 96.7857 98.89 97.0157H97.735C97.745 96.8157 97.755 96.5807 97.765 96.3107C97.775 96.0407 97.78 95.7557 97.78 95.4557C97.79 95.1557 97.79 94.8707 97.78 94.6007C97.78 94.3307 97.78 94.1007 97.78 93.9107C97.78 93.4707 97.645 93.1507 97.375 92.9507C97.115 92.7407 96.785 92.6357 96.385 92.6357C95.915 92.6357 95.45 92.7407 94.99 92.9507C94.54 93.1507 94.145 93.4107 93.805 93.7307C93.585 93.9407 93.365 94.1807 93.145 94.4507C92.935 94.7107 92.7 94.9907 92.44 95.2907L91.42 94.5407C92.14 93.8407 92.74 93.1857 93.22 92.5757C93.7 91.9657 94.09 91.4007 94.39 90.8807C94.69 90.3507 94.925 89.8757 95.095 89.4557C95.255 89.0357 95.385 88.6157 95.485 88.1957C95.585 87.7657 95.645 87.3707 95.665 87.0107L96.895 87.1157ZM91.765 88.7357C92.165 88.7857 92.6 88.8257 93.07 88.8557C93.54 88.8857 93.95 88.9007 94.3 88.9007C94.97 88.9007 95.69 88.8857 96.46 88.8557C97.23 88.8157 98.005 88.7607 98.785 88.6907C99.575 88.6207 100.325 88.5207 101.035 88.3907L101.02 89.5007C100.5 89.5907 99.945 89.6657 99.355 89.7257C98.765 89.7757 98.165 89.8207 97.555 89.8607C96.945 89.8907 96.355 89.9157 95.785 89.9357C95.225 89.9457 94.705 89.9507 94.225 89.9507C94.015 89.9507 93.77 89.9507 93.49 89.9507C93.22 89.9407 92.935 89.9307 92.635 89.9207C92.335 89.9007 92.045 89.8807 91.765 89.8607V88.7357ZM103.225 92.3657C103.095 92.3957 102.95 92.4407 102.79 92.5007C102.64 92.5507 102.485 92.6057 102.325 92.6657C102.175 92.7257 102.03 92.7857 101.89 92.8457C101.37 93.0457 100.765 93.2907 100.075 93.5807C99.385 93.8707 98.68 94.2057 97.96 94.5857C97.46 94.8357 97.02 95.1007 96.64 95.3807C96.26 95.6507 95.96 95.9357 95.74 96.2357C95.52 96.5257 95.41 96.8457 95.41 97.1957C95.41 97.4857 95.475 97.7207 95.605 97.9007C95.745 98.0807 95.94 98.2207 96.19 98.3207C96.44 98.4107 96.725 98.4707 97.045 98.5007C97.375 98.5307 97.735 98.5457 98.125 98.5457C98.705 98.5457 99.365 98.5157 100.105 98.4557C100.855 98.3857 101.56 98.2957 102.22 98.1857L102.19 99.3857C101.81 99.4357 101.38 99.4807 100.9 99.5207C100.43 99.5607 99.95 99.5907 99.46 99.6107C98.98 99.6407 98.52 99.6557 98.08 99.6557C97.37 99.6557 96.72 99.5907 96.13 99.4607C95.55 99.3307 95.085 99.1007 94.735 98.7707C94.385 98.4407 94.21 97.9707 94.21 97.3607C94.21 96.9107 94.315 96.5007 94.525 96.1307C94.735 95.7507 95.015 95.4057 95.365 95.0957C95.725 94.7857 96.12 94.5007 96.55 94.2407C96.98 93.9707 97.42 93.7257 97.87 93.5057C98.35 93.2457 98.8 93.0207 99.22 92.8307C99.65 92.6407 100.055 92.4657 100.435 92.3057C100.815 92.1457 101.17 91.9857 101.5 91.8257C101.72 91.7257 101.93 91.6307 102.13 91.5407C102.33 91.4507 102.53 91.3507 102.73 91.2407L103.225 92.3657ZM107.08 90.1907H111.415V91.0607H107.08V90.1907ZM107.08 92.7407H111.415V93.5957H107.08V92.7407ZM107.08 95.3357H111.415V96.2357H107.08V95.3357ZM113.47 93.4757H119.17V94.4657H113.47V93.4757ZM107.86 87.7157H110.335V88.6157H107.86V87.7157ZM112.495 87.1457H118.36V88.0907H112.495V87.1457ZM112.315 96.2807H119.44V97.2857H112.315V96.2807ZM115.495 91.9457H116.56V100.121H115.495V91.9457ZM108.925 90.6107H109.75V95.7107H108.925V90.6107ZM118.015 87.1457H119.035C119.035 87.1457 119.03 87.1957 119.02 87.2957C119.02 87.3957 119.015 87.4857 119.005 87.5657C118.975 88.3957 118.935 89.0707 118.885 89.5907C118.835 90.1107 118.775 90.5107 118.705 90.7907C118.635 91.0707 118.545 91.2707 118.435 91.3907C118.345 91.5107 118.235 91.6007 118.105 91.6607C117.975 91.7107 117.815 91.7457 117.625 91.7657C117.475 91.7857 117.255 91.7957 116.965 91.7957C116.675 91.7857 116.375 91.7707 116.065 91.7507C116.055 91.6107 116.025 91.4507 115.975 91.2707C115.935 91.0907 115.875 90.9407 115.795 90.8207C116.095 90.8407 116.37 90.8557 116.62 90.8657C116.87 90.8757 117.045 90.8807 117.145 90.8807C117.255 90.8807 117.345 90.8757 117.415 90.8657C117.485 90.8457 117.545 90.8057 117.595 90.7457C117.655 90.6657 117.71 90.5057 117.76 90.2657C117.81 90.0257 117.855 89.6657 117.895 89.1857C117.935 88.7057 117.975 88.0757 118.015 87.2957V87.1457ZM113.53 92.0807L114.505 92.2607C114.345 92.9607 114.14 93.6357 113.89 94.2857C113.64 94.9257 113.355 95.4707 113.035 95.9207C112.975 95.8707 112.89 95.8207 112.78 95.7707C112.67 95.7107 112.56 95.6557 112.45 95.6057C112.34 95.5457 112.24 95.4957 112.15 95.4557C112.48 95.0257 112.76 94.5157 112.99 93.9257C113.22 93.3257 113.4 92.7107 113.53 92.0807ZM107.83 86.3657L108.865 86.5907C108.675 87.2707 108.45 87.9307 108.19 88.5707C107.93 89.2107 107.64 89.8107 107.32 90.3707C107.01 90.9207 106.675 91.4057 106.315 91.8257C106.265 91.7657 106.185 91.6957 106.075 91.6157C105.975 91.5257 105.87 91.4407 105.76 91.3607C105.65 91.2707 105.555 91.2007 105.475 91.1507C106.005 90.5807 106.47 89.8757 106.87 89.0357C107.28 88.1857 107.6 87.2957 107.83 86.3657ZM106.63 90.1907H107.575V94.1807C107.575 94.6307 107.555 95.1207 107.515 95.6507C107.485 96.1807 107.425 96.7157 107.335 97.2557C107.255 97.7957 107.13 98.3207 106.96 98.8307C106.8 99.3307 106.59 99.7907 106.33 100.211C106.27 100.151 106.19 100.086 106.09 100.016C105.99 99.9557 105.885 99.8957 105.775 99.8357C105.675 99.7757 105.585 99.7307 105.505 99.7007C105.845 99.1607 106.095 98.5757 106.255 97.9457C106.415 97.3057 106.515 96.6607 106.555 96.0107C106.605 95.3507 106.63 94.7407 106.63 94.1807V90.1907ZM111.1 90.1907H112.06V98.9507C112.06 99.2207 112.02 99.4357 111.94 99.5957C111.87 99.7657 111.74 99.8957 111.55 99.9857C111.36 100.066 111.105 100.116 110.785 100.136C110.465 100.156 110.04 100.166 109.51 100.166C109.49 100.036 109.445 99.8757 109.375 99.6857C109.305 99.4957 109.235 99.3357 109.165 99.2057C109.555 99.2157 109.9 99.2207 110.2 99.2207C110.51 99.2207 110.715 99.2157 110.815 99.2057C110.915 99.2057 110.985 99.1857 111.025 99.1457C111.075 99.1057 111.1 99.0357 111.1 98.9357V90.1907ZM114.64 87.4457H115.675C115.585 88.1357 115.44 88.7807 115.24 89.3807C115.04 89.9807 114.735 90.5207 114.325 91.0007C113.925 91.4707 113.37 91.8607 112.66 92.1707C112.6 92.0507 112.51 91.9157 112.39 91.7657C112.27 91.6157 112.15 91.4957 112.03 91.4057C112.65 91.1457 113.135 90.8157 113.485 90.4157C113.835 90.0057 114.095 89.5507 114.265 89.0507C114.445 88.5407 114.57 88.0057 114.64 87.4457ZM110.065 87.7157H110.29L110.455 87.6707L111.115 88.0907C110.955 88.5607 110.75 89.0507 110.5 89.5607C110.25 90.0607 110.01 90.4857 109.78 90.8357C109.69 90.7657 109.57 90.6907 109.42 90.6107C109.28 90.5207 109.155 90.4507 109.045 90.4007C109.175 90.1807 109.305 89.9257 109.435 89.6357C109.565 89.3357 109.685 89.0357 109.795 88.7357C109.905 88.4257 109.995 88.1507 110.065 87.9107V87.7157ZM131.41 87.2807C131.39 87.4107 131.375 87.5507 131.365 87.7007C131.365 87.8407 131.365 87.9957 131.365 88.1657C131.355 88.2757 131.35 88.4557 131.35 88.7057C131.36 88.9557 131.365 89.2407 131.365 89.5607C131.375 89.8707 131.38 90.1907 131.38 90.5207C131.39 90.8507 131.395 91.1557 131.395 91.4357C131.395 91.7057 131.395 91.9257 131.395 92.0957C131.395 92.9557 131.375 93.7557 131.335 94.4957C131.305 95.2357 131.195 95.9257 131.005 96.5657C130.815 97.2057 130.5 97.8007 130.06 98.3507C129.63 98.8907 129.015 99.3957 128.215 99.8657L127.12 99.0107C127.36 98.9107 127.615 98.7757 127.885 98.6057C128.165 98.4357 128.395 98.2607 128.575 98.0807C128.975 97.7307 129.29 97.3557 129.52 96.9557C129.75 96.5557 129.915 96.1157 130.015 95.6357C130.125 95.1557 130.195 94.6257 130.225 94.0457C130.255 93.4657 130.27 92.8157 130.27 92.0957C130.27 91.8557 130.265 91.5507 130.255 91.1807C130.245 90.8007 130.235 90.4107 130.225 90.0107C130.215 89.6007 130.205 89.2307 130.195 88.9007C130.185 88.5707 130.17 88.3307 130.15 88.1807C130.14 88.0107 130.12 87.8507 130.09 87.7007C130.06 87.5407 130.035 87.4007 130.015 87.2807H131.41ZM125.935 90.3857C126.155 90.4157 126.4 90.4457 126.67 90.4757C126.94 90.5057 127.22 90.5257 127.51 90.5357C127.81 90.5457 128.09 90.5507 128.35 90.5507C128.97 90.5507 129.605 90.5357 130.255 90.5057C130.915 90.4757 131.55 90.4257 132.16 90.3557C132.78 90.2857 133.335 90.1957 133.825 90.0857V91.3157C133.345 91.3857 132.8 91.4507 132.19 91.5107C131.59 91.5707 130.96 91.6157 130.3 91.6457C129.65 91.6657 129.005 91.6757 128.365 91.6757C128.125 91.6757 127.855 91.6707 127.555 91.6607C127.265 91.6507 126.975 91.6407 126.685 91.6307C126.405 91.6207 126.155 91.6057 125.935 91.5857V90.3857ZM123.82 87.5057C123.78 87.6457 123.735 87.8107 123.685 88.0007C123.645 88.1807 123.605 88.3407 123.565 88.4807C123.445 89.0207 123.33 89.6207 123.22 90.2807C123.11 90.9407 123.025 91.6257 122.965 92.3357C122.905 93.0457 122.885 93.7457 122.905 94.4357C122.925 95.1257 123.005 95.7807 123.145 96.4007C123.255 96.0807 123.38 95.7107 123.52 95.2907C123.67 94.8707 123.815 94.4757 123.955 94.1057L124.6 94.4957C124.48 94.8357 124.355 95.2207 124.225 95.6507C124.095 96.0707 123.975 96.4757 123.865 96.8657C123.755 97.2457 123.675 97.5607 123.625 97.8107C123.595 97.9207 123.57 98.0407 123.55 98.1707C123.54 98.3007 123.54 98.4057 123.55 98.4857C123.56 98.5657 123.565 98.6507 123.565 98.7407C123.575 98.8307 123.585 98.9157 123.595 98.9957L122.575 99.1157C122.475 98.8157 122.36 98.4107 122.23 97.9007C122.11 97.3907 122.005 96.8307 121.915 96.2207C121.825 95.6007 121.78 94.9807 121.78 94.3607C121.78 93.5407 121.815 92.7557 121.885 92.0057C121.965 91.2557 122.05 90.5657 122.14 89.9357C122.23 89.3057 122.3 88.7857 122.35 88.3757C122.38 88.1957 122.4 88.0157 122.41 87.8357C122.42 87.6557 122.425 87.5007 122.425 87.3707L123.82 87.5057Z" fill="black"/>
</svg>
