<svg width="211" height="150" viewBox="0 0 211 150" fill="none" xmlns="http://www.w3.org/2000/svg">
<rect width="210" height="148.5" transform="matrix(-1 0 0 -1 210.65 149.038)" fill="white"/>
<path d="M149.293 40.0692C149.032 40.0692 148.902 39.9937 148.902 39.8427C148.902 39.6917 149.015 39.6093 149.241 39.5956L150.415 39.4514C150.763 39.4102 150.998 39.3416 151.12 39.2454C151.242 39.1356 151.303 38.9365 151.303 38.6482V26.2914C151.303 26.0992 151.25 25.9619 151.146 25.8795C151.042 25.7971 150.824 25.7559 150.494 25.7559C149.85 25.7559 149.215 25.9756 148.589 26.415C147.963 26.8543 147.554 27.5614 147.362 28.5362L147.232 29.2158C147.197 29.3943 147.075 29.4836 146.867 29.4836C146.606 29.4836 146.493 29.3669 146.527 29.1335L146.762 25.4058C146.797 25.09 146.954 24.9321 147.232 24.9321C147.354 24.9321 147.467 24.9596 147.571 25.0145C147.675 25.0557 147.849 25.1038 148.093 25.1587C148.354 25.2136 148.763 25.2411 149.319 25.2411H155.139C155.695 25.2411 156.095 25.2136 156.339 25.1587C156.6 25.1038 156.783 25.0557 156.887 25.0145C157.009 24.9596 157.122 24.9321 157.226 24.9321C157.504 24.9321 157.661 25.09 157.696 25.4058L157.931 29.1335C157.965 29.3669 157.852 29.4836 157.591 29.4836C157.383 29.4836 157.261 29.3943 157.226 29.2158L157.096 28.5362C156.922 27.5614 156.522 26.8543 155.895 26.415C155.269 25.9756 154.625 25.7559 153.964 25.7559C153.634 25.7559 153.416 25.7971 153.312 25.8795C153.208 25.9619 153.155 26.0992 153.155 26.2914V38.6482C153.155 38.9365 153.216 39.1356 153.338 39.2454C153.477 39.3416 153.712 39.4102 154.043 39.4514L155.217 39.5956C155.443 39.6093 155.556 39.6917 155.556 39.8427C155.556 39.9937 155.426 40.0692 155.165 40.0692H149.293Z" fill="black"/>
<path d="M140.593 40.2546C140.245 40.2546 139.854 40.2271 139.419 40.1722C139.001 40.1173 138.601 40.0486 138.218 39.9663C137.853 39.8839 137.566 39.7946 137.357 39.6985C137.236 39.6436 137.14 39.5887 137.07 39.5338C137.018 39.4651 136.992 39.3553 136.992 39.2043L136.862 35.9709C136.862 35.6963 136.975 35.559 137.201 35.559C137.392 35.559 137.523 35.6826 137.592 35.9297L137.827 36.7123C138.418 38.6757 139.523 39.6573 141.141 39.6573C142.011 39.6573 142.698 39.4308 143.203 38.9777C143.724 38.5109 143.985 37.8587 143.985 37.0212C143.985 36.2112 143.716 35.456 143.176 34.7558C142.655 34.0556 141.811 33.3622 140.645 32.6757C139.358 31.9481 138.418 31.2478 137.827 30.5751C137.236 29.8886 136.94 29.1609 136.94 28.3921C136.94 27.376 137.383 26.566 138.271 25.9619C139.175 25.344 140.323 25.0351 141.715 25.0351C142.237 25.0351 142.741 25.0832 143.229 25.1793C143.716 25.2754 144.116 25.4127 144.429 25.5912C144.533 25.6461 144.612 25.7079 144.664 25.7765C144.733 25.8452 144.768 25.9344 144.768 26.0443L144.846 29.1541C144.846 29.3875 144.733 29.5042 144.507 29.5042C144.351 29.5042 144.238 29.4081 144.168 29.2158L143.985 28.701C143.603 27.6438 143.203 26.8749 142.785 26.3944C142.385 25.9001 141.802 25.653 141.037 25.653C140.289 25.653 139.688 25.8452 139.236 26.2296C138.801 26.614 138.584 27.1564 138.584 27.8566C138.584 28.447 138.827 29.0099 139.314 29.5454C139.802 30.0808 140.654 30.733 141.872 31.5018C143.176 32.3394 144.125 33.1494 144.716 33.932C145.325 34.7009 145.629 35.5247 145.629 36.4034C145.629 37.1722 145.412 37.845 144.977 38.4217C144.542 38.9983 143.942 39.4514 143.176 39.7809C142.428 40.0967 141.567 40.2546 140.593 40.2546Z" fill="black"/>
<path d="M124.855 40.0692C124.594 40.0692 124.463 39.9937 124.463 39.8427C124.463 39.7191 124.576 39.6367 124.803 39.5956L125.403 39.5132C125.768 39.4583 126.003 39.3827 126.107 39.2866C126.229 39.1905 126.29 38.9983 126.29 38.71V26.6003C126.29 26.312 126.229 26.1198 126.107 26.0237C126.003 25.9276 125.768 25.852 125.403 25.7971L124.803 25.7147C124.576 25.6736 124.463 25.5912 124.463 25.4676C124.463 25.3166 124.594 25.2411 124.855 25.2411H133.622C134.023 25.2411 134.24 25.399 134.275 25.7147L134.484 29.1335C134.518 29.3669 134.405 29.4836 134.144 29.4836C133.936 29.4836 133.814 29.3943 133.779 29.2158L133.622 28.4538C133.431 27.5202 133.04 26.8406 132.448 26.415C131.857 25.9756 131.039 25.7559 129.995 25.7559C129.299 25.7559 128.812 25.8383 128.534 26.0031C128.273 26.1541 128.143 26.4287 128.143 26.8269V31.7902C128.143 31.9824 128.264 32.0785 128.508 32.0785H129.813C130.578 32.0785 131.048 31.7558 131.222 31.1105L131.483 30.0808C131.552 29.8749 131.7 29.7856 131.926 29.8131C132.118 29.8405 132.213 29.9572 132.213 30.1632V34.797C132.213 35.0029 132.118 35.1196 131.926 35.1471C131.7 35.1746 131.552 35.0853 131.483 34.8794L131.222 33.8702C131.1 33.3897 130.926 33.0739 130.7 32.9229C130.491 32.7719 130.187 32.6963 129.787 32.6963H128.508C128.264 32.6963 128.143 32.7924 128.143 32.9847V38.1539C128.143 38.6482 128.299 39.0052 128.612 39.2249C128.943 39.4445 129.534 39.5544 130.387 39.5544C131.257 39.5544 131.996 39.3827 132.605 39.0395C133.231 38.6825 133.666 38.0235 133.91 37.0624L134.223 35.8473C134.275 35.6688 134.405 35.5796 134.614 35.5796C134.858 35.5796 134.962 35.6963 134.927 35.9297L134.666 39.5956C134.631 39.9113 134.414 40.0692 134.014 40.0692H124.855Z" fill="black"/>
<path d="M117.153 40.2546C116.214 40.2546 115.379 40.083 114.648 39.7397C113.935 39.3827 113.378 38.8953 112.978 38.2775C112.578 37.6459 112.378 36.9251 112.378 36.1151V26.6003C112.378 26.312 112.317 26.1198 112.195 26.0237C112.091 25.9276 111.856 25.852 111.491 25.7971L110.891 25.7147C110.664 25.6736 110.551 25.5912 110.551 25.4676C110.551 25.3166 110.682 25.2411 110.943 25.2411H115.718C115.979 25.2411 116.11 25.3234 116.11 25.4882C116.11 25.6118 116.014 25.6873 115.823 25.7147L115.118 25.7971C114.77 25.8383 114.535 25.9138 114.413 26.0237C114.292 26.1335 114.231 26.3326 114.231 26.6209V36.1357C114.231 37.1791 114.526 37.9892 115.118 38.5658C115.709 39.1425 116.536 39.4308 117.597 39.4308C118.676 39.4308 119.511 39.1425 120.102 38.5658C120.694 37.9892 120.989 37.1791 120.989 36.1357V27.0328C120.989 26.2914 120.694 25.8795 120.102 25.7971L119.397 25.7147C119.206 25.6873 119.11 25.6118 119.11 25.4882C119.11 25.3234 119.241 25.2411 119.502 25.2411H123.259C123.52 25.2411 123.651 25.3166 123.651 25.4676C123.651 25.5912 123.538 25.6736 123.312 25.7147L122.711 25.7971C122.12 25.8795 121.824 26.2845 121.824 27.0122V36.1151C121.824 37.3645 121.398 38.3667 120.546 39.1219C119.693 39.877 118.562 40.2546 117.153 40.2546Z" fill="black"/>
<path d="M93.1333 10.0833C94.0275 9.07218 95.0997 8.7723 96.0487 8.98196C96.888 9.16742 97.6001 9.7473 97.9631 10.5135C98.7823 9.78259 99.5764 9.57821 100.308 9.76305C100.981 9.93302 101.532 10.4178 101.953 10.958C103.146 9.7314 104.383 9.45795 105.453 9.73364C106.473 9.99655 107.287 10.7459 107.724 11.5007C108.966 11.2781 109.767 11.5084 110.189 12.0734C110.562 12.5739 110.554 13.2343 110.434 13.7643C110.962 14.1642 111.307 14.5568 111.492 14.9439C111.702 15.3847 111.696 15.8053 111.533 16.1745C111.376 16.5307 111.084 16.8129 110.767 17.0247C110.539 17.1764 110.288 17.2988 110.037 17.392C110.211 18.0185 110.22 18.5562 110.081 19.0065C109.919 19.5342 109.567 19.9045 109.129 20.1398C108.362 20.5525 107.323 20.559 106.453 20.3374C106.227 20.8776 105.946 21.2973 105.604 21.5975C105.203 21.9506 104.737 22.1239 104.231 22.1475C103.298 22.1911 102.248 21.7265 101.177 21.0243C98.7282 22.9069 95.8567 23.3914 93.8183 23.3914C91.9521 23.3914 90.3854 23.4009 88.6704 23.4058C86.9345 23.4107 85.0489 23.4108 82.5531 23.3914L82.5581 22.7685C85.0511 22.7879 86.9343 22.7877 88.6686 22.7828C89.6687 22.78 90.6201 22.7757 91.6105 22.7725C91.9897 23.1549 92.5153 23.3917 93.0963 23.3917C93.6918 23.3917 94.2287 23.1424 94.6097 22.7431C96.5198 22.6229 98.9221 22.0423 100.967 20.3975L101.146 20.253L101.337 20.3824C102.456 21.1426 103.43 21.5614 104.201 21.5253C104.575 21.5078 104.904 21.3838 105.193 21.1296C105.487 20.8711 105.755 20.4634 105.972 19.855L106.074 19.5694L106.362 19.6637C107.185 19.9327 108.183 19.9413 108.834 19.591C109.149 19.4218 109.378 19.1726 109.486 18.8235C109.595 18.4676 109.589 17.9709 109.355 17.2937L109.247 16.9818L109.565 16.8923C109.857 16.81 110.163 16.6783 110.421 16.5066C110.681 16.3333 110.87 16.1332 110.963 15.9229C111.05 15.7254 111.064 15.4946 110.929 15.2119C110.789 14.9167 110.481 14.5562 109.9 14.1445L109.718 14.0152L109.781 13.8013C109.93 13.3025 109.935 12.7748 109.69 12.4462C109.466 12.1464 108.921 11.8769 107.623 12.1554L107.384 12.2067L107.277 11.9867C106.945 11.3002 106.209 10.5716 105.297 10.3367C104.418 10.1101 103.308 10.3271 102.161 11.6531L101.894 11.9613L101.667 11.6229C101.255 11.0095 100.736 10.5134 100.156 10.3669C99.6095 10.229 98.9108 10.3795 98.0645 11.2865L97.6763 11.7026L97.535 11.1513C97.3375 10.3806 96.6954 9.76292 95.9145 9.59034C95.1536 9.4222 94.2156 9.67009 93.4085 10.7287L93.1805 11.0281L92.9291 10.748C92.5754 10.354 92.0074 10.074 91.4765 10.1374C90.9808 10.1966 90.4073 10.5719 90.0508 11.7237L89.9903 11.9201L89.7861 11.9414C88.9901 12.0254 88.5832 12.3565 88.4497 12.7069C88.3154 13.0595 88.4054 13.5677 88.9012 14.1191L89.0772 14.3146L88.9138 14.5208C88.6218 14.8895 88.3181 15.4396 88.282 15.9146C88.2647 16.1421 88.3097 16.3322 88.4258 16.4845C88.5432 16.6384 88.7632 16.7932 89.1714 16.889L89.0291 17.4954C88.5269 17.3775 88.1607 17.1642 87.9305 16.8623C87.6991 16.5589 87.6351 16.2053 87.6608 15.8673C87.7031 15.3113 87.9906 14.7464 88.2739 14.3385C87.81 13.7351 87.6451 13.0695 87.8677 12.4852C88.0973 11.8825 88.6945 11.4825 89.5191 11.3489C89.9326 10.1754 90.6274 9.6115 91.4029 9.51895C92.0498 9.44176 92.6789 9.70457 93.1333 10.0833Z" fill="black"/>
<path d="M69.3749 39.8427C69.3749 39.9937 69.5054 40.0692 69.7663 40.0692H75.6376C75.8986 40.0692 76.029 39.9937 76.029 39.8427C76.029 39.6917 75.916 39.6093 75.6898 39.5956L74.5155 39.4514C74.185 39.4102 73.9502 39.3415 73.811 39.2454C73.6892 39.1356 73.6283 38.9365 73.6283 38.6482V33.6231C73.6283 33.4034 73.6544 33.2112 73.7066 33.0464C73.7588 32.868 73.8458 32.6826 73.9676 32.4904L77.386 27.074C77.6817 26.6209 77.9165 26.2983 78.0905 26.106C79.2599 24.814 80.9527 23.4662 82.5531 23.3914L82.5581 22.7685C78.9664 22.4254 77.4156 25.5826 76.5248 27.0534L73.4457 32.0167C73.3761 32.1128 73.2891 32.1609 73.1847 32.1609C73.0803 32.1609 72.9934 32.1128 72.9238 32.0167L69.7141 26.6209C69.5402 26.3326 69.5141 26.1198 69.6359 25.9825C69.7576 25.8452 69.9664 25.7697 70.2621 25.7559L70.7579 25.7147C71.0537 25.701 71.2015 25.6186 71.2015 25.4676C71.2015 25.3166 71.0798 25.2411 70.8362 25.2411H66.374C66.1131 25.2411 65.9826 25.3097 65.9826 25.447C65.9826 25.5843 66.1044 25.6735 66.3479 25.7147L66.5828 25.7559C66.8785 25.8108 67.1047 25.9001 67.2612 26.0237C67.4178 26.1472 67.557 26.3257 67.6788 26.5591L71.5147 32.9023C71.6886 33.1906 71.7756 33.4858 71.7756 33.7879V38.6482C71.7756 38.9365 71.7147 39.1356 71.5929 39.2454C71.4712 39.3415 71.2363 39.4102 70.8884 39.4514L69.7141 39.5956C69.488 39.6093 69.3749 39.6917 69.3749 39.8427Z" fill="black"/>
<path d="M64.1409 40.2546C63.8626 40.2546 63.6277 40.0898 63.4364 39.7603L56.3647 27.6506C56.3125 27.5545 56.2429 27.5133 56.156 27.5271C56.0864 27.5408 56.0516 27.6026 56.0516 27.7124V38.2981C56.0516 38.6825 56.1299 38.9777 56.2864 39.1837C56.4604 39.3759 56.7648 39.4994 57.1997 39.5544L57.539 39.5956C57.7651 39.6093 57.8782 39.6917 57.8782 39.8427C57.8782 39.9937 57.7477 40.0692 57.4868 40.0692H53.7552C53.4943 40.0692 53.3638 39.9937 53.3638 39.8427C53.3638 39.6917 53.4769 39.6093 53.7031 39.5956L54.0423 39.5544C54.4946 39.4994 54.8077 39.3759 54.9817 39.1837C55.1557 38.9777 55.2426 38.6825 55.2426 38.2981V26.6003C55.2426 26.312 55.1818 26.1198 55.06 26.0237C54.9556 25.9276 54.7034 25.852 54.3032 25.7971L53.7031 25.7147C53.4769 25.6736 53.3638 25.5912 53.3638 25.4676C53.3638 25.3166 53.4943 25.2411 53.7552 25.2411H56.5474C56.9823 25.2411 57.2867 25.3921 57.4607 25.6941L63.619 36.3828C63.6712 36.4652 63.7321 36.4995 63.8017 36.4858C63.8887 36.472 63.9322 36.424 63.9322 36.3416V27.0122C63.9322 26.5729 63.8365 26.2708 63.6451 26.106C63.4537 25.9276 63.2102 25.8177 62.9145 25.7765L62.4448 25.7147C62.2186 25.6736 62.1055 25.5912 62.1055 25.4676C62.1055 25.3166 62.236 25.2411 62.4969 25.2411H66.2285C66.4894 25.2411 66.6199 25.3166 66.6199 25.4676C66.6199 25.6186 66.5068 25.701 66.2807 25.7147L65.9414 25.7559C65.4891 25.8109 65.176 25.9276 65.002 26.106C64.8281 26.2708 64.7411 26.5729 64.7411 27.0122V39.5956C64.7411 39.8427 64.6802 40.0143 64.5584 40.1104C64.454 40.2065 64.3149 40.2546 64.1409 40.2546Z" fill="black"/>
<path fill-rule="evenodd" clip-rule="evenodd" d="M82.0657 39.3072C83.0399 39.9388 84.2315 40.2546 85.6406 40.2546C86.3539 40.2546 86.9802 40.1997 87.5194 40.0898C88.0587 39.9937 88.5371 39.8633 88.9546 39.6985C89.2156 39.5887 89.3983 39.4926 89.5026 39.4102C89.607 39.3141 89.6592 39.1905 89.6592 39.0395V33.4583C89.6592 33.17 89.694 32.9641 89.7636 32.8405C89.4351 32.8405 88.891 32.7295 88.3732 32.6239C88.0899 32.5661 87.8144 32.5099 87.5865 32.4744C86.8398 32.358 86.5277 32.4174 86.9193 32.6346C87.2846 32.662 87.5194 32.7307 87.6238 32.8405C87.7456 32.9503 87.8065 33.1494 87.8065 33.4377V37.948C87.8065 38.6207 87.6238 39.0807 87.2585 39.3278C86.8932 39.575 86.3539 39.6985 85.6406 39.6985C84.3185 39.6985 83.2312 39.0944 82.3788 37.8862C81.5438 36.6642 81.1263 34.8931 81.1263 32.5728C81.1263 30.3211 81.5351 28.6049 82.3527 27.4241C83.1877 26.2296 84.2402 25.6324 85.5102 25.6324C86.3626 25.6324 87.0323 25.8452 87.5194 26.2708C88.0065 26.6964 88.4415 27.479 88.8242 28.6186L89.0329 29.2364C89.0851 29.4149 89.2069 29.5042 89.3983 29.5042C89.607 29.5042 89.7114 29.3875 89.7114 29.1541L89.6331 26.0237C89.6331 25.8314 89.52 25.6873 89.2939 25.5912C88.8764 25.4264 88.3893 25.296 87.8326 25.1999C87.2759 25.09 86.6583 25.0351 85.9799 25.0351C84.6403 25.0351 83.4487 25.3509 82.4049 25.9825C81.3785 26.6003 80.5696 27.479 79.9781 28.6186C79.3866 29.7444 79.0909 31.0625 79.0909 32.5728C79.0909 34.138 79.3431 35.4972 79.8476 36.6505C80.3521 37.7901 81.0915 38.6757 82.0657 39.3072Z" fill="black"/>
<path fill-rule="evenodd" clip-rule="evenodd" d="M100.342 38.111C100.938 39.0095 101.699 39.5265 102.625 39.6623C102.716 39.8741 103.08 40.3124 103.079 40.3808C102.879 40.3142 102.467 40.2532 102.254 40.195C102.118 40.1576 101.989 40.1224 101.882 40.0898C100.977 39.8564 100.16 39.3896 99.4292 38.6894C99.1389 38.3988 98.8731 38.081 98.6318 37.7358C99.1195 37.8832 100.144 38.1646 100.342 38.111ZM99.1943 32.6346C99.1943 34.5568 99.4222 36.0834 99.8779 37.2143C99.7347 37.2059 98.5323 36.7682 97.949 36.5504C97.8731 36.389 97.8011 36.2233 97.733 36.0533C97.3329 35.0098 97.1329 33.8702 97.1329 32.6346C97.1329 31.5636 97.2807 30.5682 97.5765 29.6483C97.8896 28.7284 98.3158 27.9252 98.8551 27.2387C99.4118 26.5385 100.055 25.9962 100.786 25.6118C101.517 25.2273 102.3 25.0351 103.135 25.0351C103.97 25.0351 104.744 25.2273 105.457 25.6118C106.188 25.9962 106.831 26.5385 107.388 27.2387C107.945 27.9252 108.371 28.7284 108.667 29.6483C108.98 30.5682 109.136 31.5636 109.136 32.6346C109.136 33.8977 108.919 35.0647 108.484 36.1356C108.067 37.1928 107.484 38.0715 106.736 38.7718C106.145 39.3378 105.486 39.7423 104.759 39.9854C104.618 39.8518 104.331 39.5662 104.31 39.4928C105 39.2298 105.574 38.7149 106.031 37.948C106.727 36.781 107.075 35.0098 107.075 32.6346C107.075 30.2593 106.727 28.495 106.031 27.3417C105.335 26.1747 104.37 25.5912 103.135 25.5912C101.917 25.5912 100.951 26.1747 100.238 27.3417C99.5423 28.495 99.1943 30.2593 99.1943 32.6346Z" fill="black"/>
<path d="M84.5915 33.4583C85.0245 32.9915 86.3889 32.0356 88.1045 32.2334C90.2489 32.4805 95.7634 36.0378 97.4748 36.9923C97.7139 37.1257 98.0311 37.2602 98.4005 37.3846C98.9098 37.556 99.5186 37.708 100.16 37.811C100.656 37.8907 101.172 37.941 101.676 37.948C101.738 37.9488 101.8 37.9492 101.861 37.9491C101.774 37.8459 101.684 37.7423 101.592 37.6375C101.026 37.6395 100.485 37.569 99.9829 37.4589C99.2536 37.299 98.607 37.0558 98.0869 36.8303C97.8569 36.7306 97.6516 36.6344 97.4748 36.5504C96.1455 35.9188 90.9659 32.4629 88.6345 32.0785C86.7693 31.771 84.9622 32.8176 84.5915 33.4583Z" fill="black"/>
<path d="M102.536 37.9256C102.455 37.8227 102.369 37.7127 102.28 37.5986C102.047 37.6245 101.818 37.6367 101.592 37.6375C101.684 37.7423 101.774 37.8459 101.861 37.9491C102.095 37.9487 102.32 37.941 102.536 37.9256Z" fill="black"/>
<path d="M103.949 39.6048C103.692 39.6673 103.42 39.6985 103.135 39.6985C103.097 39.6985 103.059 39.698 103.022 39.6968C103.084 39.8609 103.134 39.8839 103.27 40.1183C103.406 40.3526 103.838 40.9149 104.014 41.2977C104.358 42.0445 104.799 42.5965 105.338 42.9537C105.877 43.3109 106.448 43.5312 107.049 43.6148C107.671 43.7095 108.239 43.7211 108.753 43.6496C109.352 43.5662 109.836 43.4362 110.202 43.2597C110.589 43.0943 110.902 42.9114 111.14 42.711C111.256 42.5972 111.303 42.4931 111.282 42.3984C111.258 42.2902 111.183 42.231 111.057 42.2206C110.931 42.2103 110.807 42.2484 110.685 42.3351C110.211 42.6659 109.76 42.8169 109.203 42.9386C108.606 43.0691 108.173 43.1838 107.323 42.9386C106.473 42.6935 106.106 42.372 105.623 41.6307C105.217 41.0092 104.569 40.2742 103.949 39.6048Z" fill="black"/>
<path fill-rule="evenodd" clip-rule="evenodd" d="M106.752 32.4184C107.147 33.5082 107.109 34.4752 106.151 35.982C106.05 36.1408 105.925 36.2926 105.795 36.4286C105.565 36.6698 105.32 36.8612 105.17 36.9537C104.644 37.2781 104.475 37.3595 104.143 37.5013C103.52 37.7683 102.951 37.8961 102.536 37.9256C102.455 37.8227 102.369 37.7127 102.28 37.5986C102.561 37.5673 102.846 37.5162 103.135 37.4414C103.645 37.3092 104.257 36.9708 104.644 36.7029C104.918 36.5131 105.197 36.1651 105.218 36.1356C105.914 35.1847 106.333 34.1708 106.124 33.2369C106.055 32.9304 105.781 32.5238 105.346 32.4718C104.858 32.4137 104.085 32.6631 103.437 33.4377C102.848 32.4744 101.882 32.0117 100.905 32.305C100.675 32.3739 100.348 32.8222 100.238 33.3026C100.11 33.8651 100.222 34.9104 100.905 35.9273C101.054 36.1495 101.33 36.4707 101.622 36.8112C101.811 37.0311 102.007 37.2592 102.18 37.4739C102.141 37.4859 101.693 37.4991 101.475 37.5043C101.426 37.4494 101.375 37.3923 101.322 37.3337C101.061 37.0411 100.765 36.7101 100.543 36.4286C100.502 36.3768 100.462 36.3261 100.422 36.276C99.7306 35.4067 99.2071 34.7486 99.4292 32.9073C99.5285 32.0837 100.177 31.5716 100.967 31.4578C101.927 31.3194 103.062 31.7604 103.54 32.8405C103.819 32.2194 104.646 31.6369 105.482 31.6457C105.946 31.6507 106.576 31.9313 106.752 32.4184Z" fill="black"/>
<path fill-rule="evenodd" clip-rule="evenodd" d="M103.949 39.6048C103.692 39.6673 103.42 39.6985 103.135 39.6985C103.097 39.6985 103.059 39.698 103.022 39.6968C102.901 39.3791 102.779 39.2045 102.551 38.8789C102.483 38.7821 102.406 38.672 102.316 38.5408C102.219 38.3971 102.11 38.2543 101.994 38.111C102.193 38.103 102.602 38.0827 102.647 38.0657C102.719 38.1578 102.786 38.242 102.844 38.3156C102.919 38.4101 102.98 38.4871 103.022 38.5408C103.368 38.9818 103.693 39.3304 103.882 39.5335C103.907 39.5597 103.929 39.5835 103.949 39.6048Z" fill="black"/>
<circle cx="90.6827" cy="24.7962" r="1" stroke="black" stroke-width="0.505019"/>
<circle cx="90.6827" cy="24.7962" r="1" stroke="black" stroke-width="0.505019"/>
<path d="M94.4526 21.2994C94.4526 20.5502 93.8455 19.9428 93.0963 19.9428C92.3472 19.9428 91.7398 20.5502 91.7398 21.2994C91.7398 22.0485 92.3472 22.6557 93.0963 22.6557V23.1705L93 23.1683C92.0432 23.1198 91.276 22.3525 91.2274 21.3956L91.2249 21.2994C91.2249 20.2658 92.0628 19.4279 93.0963 19.4279L93.1926 19.4304C94.1814 19.4806 94.9675 20.2982 94.9675 21.2994L94.9652 21.3956C94.9151 22.3843 94.0975 23.1705 93.0963 23.1705V22.6557C93.8454 22.6556 94.4526 22.0485 94.4526 21.2994Z" fill="black"/>
<path d="M94.4526 21.2994C94.4526 20.5502 93.8455 19.9428 93.0963 19.9428C92.3472 19.9428 91.7398 20.5502 91.7398 21.2994C91.7398 22.0485 92.3472 22.6557 93.0963 22.6557V23.1705L93 23.1683C92.0432 23.1198 91.276 22.3525 91.2274 21.3956L91.2249 21.2994C91.2249 20.2658 92.0628 19.4279 93.0963 19.4279L93.1926 19.4304C94.1814 19.4806 94.9675 20.2982 94.9675 21.2994L94.9652 21.3956C94.9151 22.3843 94.0975 23.1705 93.0963 23.1705V22.6557C93.8454 22.6556 94.4526 22.0485 94.4526 21.2994Z" fill="black"/>
<path d="M34.3474 63.7335V62.2847L40.7394 52.171H41.7906V54.4153H41.0803L36.2508 62.0574V62.171H44.8587V63.7335H34.3474ZM41.194 66.7165V63.2932V62.6185V52.171H42.8701V66.7165H41.194ZM40.4553 73.1085C38.9449 73.1085 37.5055 72.8789 36.1372 72.4196C34.7735 71.9603 33.5212 71.3116 32.3801 70.4736C31.2437 69.6402 30.2565 68.653 29.4184 67.5119C28.5851 66.3756 27.9388 65.1256 27.4795 63.7619C27.0202 62.3936 26.7906 60.9542 26.7906 59.4437C26.7906 57.9333 27.0202 56.4963 27.4795 55.1327C27.9388 53.7643 28.5851 52.5119 29.4184 51.3756C30.2565 50.2345 31.2437 49.2472 32.3801 48.4139C33.5212 47.5758 34.7735 46.9272 36.1372 46.4679C37.5055 46.0086 38.9449 45.779 40.4553 45.779C41.9658 45.779 43.4028 46.0086 44.7664 46.4679C46.1348 46.9272 47.3872 47.5758 48.5235 48.4139C49.6646 49.2472 50.6518 50.2345 51.4852 51.3756C52.3232 52.5119 52.9719 53.7643 53.4312 55.1327C53.8905 56.4963 54.1201 57.9333 54.1201 59.4437C54.1201 60.9542 53.8905 62.3936 53.4312 63.7619C52.9719 65.1256 52.3232 66.3756 51.4852 67.5119C50.6518 68.653 49.6646 69.6402 48.5235 70.4736C47.3872 71.3116 46.1348 71.9603 44.7664 72.4196C43.4028 72.8789 41.9658 73.1085 40.4553 73.1085ZM40.4553 71.4608C41.7858 71.4608 43.05 71.2572 44.248 70.85C45.4506 70.4475 46.5515 69.877 47.5505 69.1383C48.5543 68.4044 49.4231 67.538 50.157 66.5389C50.8957 65.5351 51.4662 64.4343 51.8687 63.2364C52.2712 62.0337 52.4724 60.7695 52.4724 59.4437C52.4724 58.1132 52.2712 56.849 51.8687 55.6511C51.4662 54.4485 50.8957 53.3476 50.157 52.3486C49.4231 51.3448 48.5543 50.4759 47.5505 49.742C46.5515 49.0034 45.4506 48.4329 44.248 48.0304C43.05 47.6279 41.7858 47.4267 40.4553 47.4267C39.1248 47.4267 37.8583 47.6279 36.6556 48.0304C35.4577 48.4329 34.3569 49.0034 33.3531 49.742C32.354 50.4759 31.4852 51.3448 30.7465 52.3486C30.0126 53.3476 29.4444 54.4485 29.042 55.6511C28.6395 56.849 28.4383 58.1132 28.4383 59.4437C28.4383 60.7695 28.6395 62.0337 29.042 63.2364C29.4444 64.4343 30.0126 65.5351 30.7465 66.5389C31.4852 67.538 32.354 68.4044 33.3531 69.1383C34.3569 69.877 35.4577 70.4475 36.6556 70.85C37.8583 71.2572 39.1248 71.4608 40.4553 71.4608ZM60.7363 51.3365C60.7096 51.5631 60.6829 51.8231 60.6563 52.1165C60.6296 52.3965 60.6163 52.6765 60.6163 52.9565C60.6163 53.1298 60.6163 53.4765 60.6163 53.9965C60.6163 54.5031 60.6163 55.1165 60.6163 55.8365C60.6163 56.5431 60.6163 57.2965 60.6163 58.0965C60.6163 58.8831 60.6163 59.6431 60.6163 60.3765C60.6163 61.1098 60.6163 61.7565 60.6163 62.3165C60.6163 62.8631 60.6163 63.2631 60.6163 63.5165C60.6163 64.0231 60.7296 64.3765 60.9563 64.5765C61.1829 64.7631 61.5363 64.9031 62.0163 64.9965C62.3363 65.0498 62.7363 65.0898 63.2163 65.1165C63.6963 65.1431 64.1829 65.1565 64.6763 65.1565C65.1963 65.1565 65.7629 65.1431 66.3763 65.1165C67.0029 65.0898 67.6296 65.0498 68.2563 64.9965C68.8829 64.9431 69.4763 64.8765 70.0363 64.7965C70.6096 64.7165 71.1029 64.6231 71.5163 64.5165V66.3365C70.9429 66.4298 70.2496 66.5098 69.4363 66.5765C68.6363 66.6298 67.8096 66.6765 66.9563 66.7165C66.1029 66.7431 65.3163 66.7565 64.5963 66.7565C63.9963 66.7565 63.4163 66.7431 62.8563 66.7165C62.2963 66.6765 61.8029 66.6231 61.3763 66.5565C60.6163 66.4231 60.0296 66.1631 59.6163 65.7765C59.2029 65.3765 58.9963 64.7698 58.9963 63.9565C58.9963 63.6365 58.9963 63.1765 58.9963 62.5765C58.9963 61.9631 58.9963 61.2698 58.9963 60.4965C58.9963 59.7231 58.9963 58.9365 58.9963 58.1365C58.9963 57.3231 58.9963 56.5565 58.9963 55.8365C58.9963 55.1165 58.9963 54.5031 58.9963 53.9965C58.9963 53.4765 58.9963 53.1298 58.9963 52.9565C58.9963 52.7698 58.9896 52.5831 58.9763 52.3965C58.9629 52.1965 58.9496 52.0031 58.9363 51.8165C58.9229 51.6298 58.9029 51.4698 58.8763 51.3365H60.7363ZM59.8963 57.6365C60.4963 57.5031 61.1629 57.3365 61.8963 57.1365C62.6429 56.9365 63.4096 56.7165 64.1963 56.4765C64.9829 56.2365 65.7429 55.9898 66.4763 55.7365C67.2229 55.4698 67.8829 55.2098 68.4563 54.9565C68.7629 54.8231 69.0563 54.6831 69.3363 54.5365C69.6296 54.3898 69.9229 54.2231 70.2163 54.0365L70.9163 55.6565C70.6363 55.7631 70.3229 55.8898 69.9763 56.0365C69.6429 56.1831 69.3229 56.3165 69.0163 56.4365C68.4029 56.6898 67.6963 56.9565 66.8963 57.2365C66.1096 57.5031 65.2963 57.7698 64.4563 58.0365C63.6163 58.2898 62.8029 58.5298 62.0163 58.7565C61.2296 58.9698 60.5229 59.1498 59.8963 59.2965V57.6365ZM78.8963 52.0565C79.2563 52.2965 79.6696 52.5965 80.1363 52.9565C80.6029 53.3031 81.0763 53.6765 81.5563 54.0765C82.0496 54.4631 82.5096 54.8431 82.9363 55.2165C83.3629 55.5898 83.7163 55.9165 83.9963 56.1965L82.7363 57.4565C82.4829 57.2031 82.1563 56.8898 81.7563 56.5165C81.3563 56.1431 80.9163 55.7565 80.4363 55.3565C79.9563 54.9431 79.4829 54.5565 79.0163 54.1965C78.5496 53.8231 78.1296 53.5165 77.7563 53.2765L78.8963 52.0565ZM77.1763 65.4565C78.3496 65.2831 79.4163 65.0431 80.3763 64.7365C81.3496 64.4298 82.2363 64.0831 83.0363 63.6965C83.8363 63.3098 84.5496 62.9231 85.1763 62.5365C86.2029 61.8965 87.1496 61.1631 88.0163 60.3365C88.8829 59.4965 89.6429 58.6298 90.2963 57.7365C90.9496 56.8431 91.4696 55.9898 91.8563 55.1765L92.8163 56.8765C92.3629 57.7031 91.8029 58.5431 91.1363 59.3965C90.4696 60.2498 89.7163 61.0698 88.8763 61.8565C88.0363 62.6431 87.1096 63.3565 86.0963 63.9965C85.4296 64.4098 84.6963 64.8165 83.8963 65.2165C83.1096 65.6165 82.2429 65.9831 81.2963 66.3165C80.3629 66.6365 79.3429 66.8965 78.2363 67.0965L77.1763 65.4565ZM101.096 64.9565C101.096 64.7698 101.096 64.3965 101.096 63.8365C101.096 63.2631 101.096 62.5898 101.096 61.8165C101.096 61.0298 101.096 60.2098 101.096 59.3565C101.096 58.4898 101.096 57.6498 101.096 56.8365C101.096 56.0231 101.096 55.3031 101.096 54.6765C101.096 54.0498 101.096 53.5965 101.096 53.3165C101.096 53.0365 101.083 52.6965 101.056 52.2965C101.03 51.8965 100.99 51.5431 100.936 51.2365H102.896C102.87 51.5298 102.836 51.8765 102.796 52.2765C102.77 52.6765 102.756 53.0231 102.756 53.3165C102.756 53.8365 102.756 54.4631 102.756 55.1965C102.756 55.9165 102.756 56.6898 102.756 57.5165C102.756 58.3298 102.756 59.1431 102.756 59.9565C102.77 60.7565 102.776 61.5098 102.776 62.2165C102.776 62.9098 102.776 63.5031 102.776 63.9965C102.776 64.4765 102.776 64.7965 102.776 64.9565C102.776 65.1698 102.776 65.4165 102.776 65.6965C102.79 65.9765 102.81 66.2631 102.836 66.5565C102.863 66.8365 102.883 67.0898 102.896 67.3165H100.956C101.01 66.9965 101.043 66.6165 101.056 66.1765C101.083 65.7365 101.096 65.3298 101.096 64.9565ZM102.416 56.4765C103.07 56.6765 103.79 56.9165 104.576 57.1965C105.376 57.4631 106.19 57.7498 107.016 58.0565C107.843 58.3631 108.623 58.6765 109.356 58.9965C110.103 59.3031 110.75 59.5965 111.296 59.8765L110.616 61.5765C110.043 61.2565 109.396 60.9431 108.676 60.6365C107.956 60.3165 107.216 60.0031 106.456 59.6965C105.71 59.3898 104.983 59.1165 104.276 58.8765C103.583 58.6231 102.963 58.4165 102.416 58.2565V56.4765ZM120.777 66.9153C119.839 66.9153 119.004 66.7543 118.27 66.4324C117.54 66.1104 116.96 65.663 116.53 65.09C116.103 64.5124 115.871 63.8424 115.834 63.0801H117.623C117.661 63.5489 117.822 63.9537 118.106 64.2946C118.39 64.6308 118.762 64.8912 119.221 65.0758C119.681 65.2605 120.19 65.3528 120.748 65.3528C121.373 65.3528 121.927 65.2439 122.41 65.0261C122.893 64.8083 123.272 64.5053 123.547 64.117C123.821 63.7288 123.959 63.279 123.959 62.7676C123.959 62.2326 123.826 61.7614 123.561 61.3543C123.296 60.9423 122.907 60.6204 122.396 60.3883C121.885 60.1563 121.26 60.0403 120.521 60.0403H119.356V58.4778H120.521C121.099 58.4778 121.605 58.3737 122.041 58.1653C122.481 57.957 122.825 57.6634 123.071 57.2847C123.322 56.9059 123.447 56.4608 123.447 55.9494C123.447 55.457 123.338 55.0285 123.12 54.6639C122.903 54.2993 122.595 54.0152 122.197 53.8116C121.804 53.608 121.34 53.5062 120.805 53.5062C120.303 53.5062 119.83 53.5986 119.385 53.7832C118.944 53.9632 118.584 54.2259 118.305 54.5716C118.026 54.9125 117.874 55.3244 117.851 55.8074H116.146C116.174 55.0451 116.404 54.3775 116.835 53.8045C117.266 53.2269 117.829 52.7771 118.525 52.4551C119.226 52.1331 119.995 51.9722 120.834 51.9722C121.733 51.9722 122.505 52.1544 123.149 52.519C123.793 52.8789 124.288 53.3547 124.633 53.9466C124.979 54.5384 125.152 55.1776 125.152 55.8642C125.152 56.6833 124.936 57.3817 124.505 57.9594C124.079 58.537 123.499 58.9371 122.765 59.1597V59.2733C123.684 59.4248 124.401 59.8154 124.917 60.4452C125.433 61.0702 125.691 61.8443 125.691 62.7676C125.691 63.5583 125.476 64.2686 125.045 64.8983C124.619 65.5233 124.037 66.0157 123.298 66.3756C122.559 66.7354 121.719 66.9153 120.777 66.9153ZM40.4695 114.915C39.532 114.915 38.6963 114.754 37.9624 114.432C37.2333 114.11 36.6533 113.663 36.2224 113.09C35.7962 112.512 35.5642 111.842 35.5264 111.08H37.3161C37.354 111.549 37.515 111.954 37.7991 112.295C38.0832 112.631 38.4549 112.891 38.9141 113.076C39.3734 113.261 39.8824 113.353 40.4411 113.353C41.0661 113.353 41.6201 113.244 42.1031 113.026C42.586 112.808 42.9648 112.505 43.2394 112.117C43.5141 111.729 43.6514 111.279 43.6514 110.768C43.6514 110.233 43.5188 109.761 43.2536 109.354C42.9885 108.942 42.6002 108.62 42.0889 108.388C41.5775 108.156 40.9525 108.04 40.2139 108.04H39.0491V106.478H40.2139C40.7915 106.478 41.2981 106.374 41.7337 106.165C42.1741 105.957 42.5174 105.663 42.7636 105.285C43.0145 104.906 43.14 104.461 43.14 103.949C43.14 103.457 43.0311 103.028 42.8133 102.664C42.5955 102.299 42.2877 102.015 41.89 101.812C41.497 101.608 41.033 101.506 40.498 101.506C39.9961 101.506 39.5226 101.599 39.0775 101.783C38.6372 101.963 38.2773 102.226 37.998 102.572C37.7186 102.912 37.5671 103.324 37.5434 103.807H35.8389C35.8673 103.045 36.0969 102.377 36.5278 101.805C36.9587 101.227 37.5221 100.777 38.2181 100.455C38.9189 100.133 39.6883 99.9722 40.5264 99.9722C41.426 99.9722 42.1978 100.154 42.8417 100.519C43.4856 100.879 43.9804 101.355 44.3261 101.947C44.6717 102.538 44.8445 103.178 44.8445 103.864C44.8445 104.683 44.6291 105.382 44.1982 105.959C43.7721 106.537 43.1921 106.937 42.4582 107.16V107.273C43.3767 107.425 44.0941 107.815 44.6102 108.445C45.1263 109.07 45.3843 109.844 45.3843 110.768C45.3843 111.558 45.1689 112.269 44.738 112.898C44.3119 113.523 43.7295 114.016 42.9909 114.376C42.2522 114.735 41.4118 114.915 40.4695 114.915ZM40.4553 121.109C38.9449 121.109 37.5055 120.879 36.1372 120.42C34.7735 119.96 33.5212 119.312 32.3801 118.474C31.2437 117.64 30.2565 116.653 29.4184 115.512C28.5851 114.376 27.9388 113.126 27.4795 111.762C27.0202 110.394 26.7906 108.954 26.7906 107.444C26.7906 105.933 27.0202 104.496 27.4795 103.133C27.9388 101.764 28.5851 100.512 29.4184 99.3756C30.2565 98.2345 31.2437 97.2472 32.3801 96.4139C33.5212 95.5758 34.7735 94.9272 36.1372 94.4679C37.5055 94.0086 38.9449 93.779 40.4553 93.779C41.9658 93.779 43.4028 94.0086 44.7664 94.4679C46.1348 94.9272 47.3872 95.5758 48.5235 96.4139C49.6646 97.2472 50.6518 98.2345 51.4852 99.3756C52.3232 100.512 52.9719 101.764 53.4312 103.133C53.8905 104.496 54.1201 105.933 54.1201 107.444C54.1201 108.954 53.8905 110.394 53.4312 111.762C52.9719 113.126 52.3232 114.376 51.4852 115.512C50.6518 116.653 49.6646 117.64 48.5235 118.474C47.3872 119.312 46.1348 119.96 44.7664 120.42C43.4028 120.879 41.9658 121.109 40.4553 121.109ZM40.4553 119.461C41.7858 119.461 43.05 119.257 44.248 118.85C45.4506 118.448 46.5515 117.877 47.5505 117.138C48.5543 116.404 49.4231 115.538 50.157 114.539C50.8957 113.535 51.4662 112.434 51.8687 111.236C52.2712 110.034 52.4724 108.769 52.4724 107.444C52.4724 106.113 52.2712 104.849 51.8687 103.651C51.4662 102.448 50.8957 101.348 50.157 100.349C49.4231 99.3448 48.5543 98.4759 47.5505 97.742C46.5515 97.0034 45.4506 96.4329 44.248 96.0304C43.05 95.6279 41.7858 95.4267 40.4553 95.4267C39.1248 95.4267 37.8583 95.6279 36.6556 96.0304C35.4577 96.4329 34.3569 97.0034 33.3531 97.742C32.354 98.4759 31.4852 99.3448 30.7465 100.349C30.0126 101.348 29.4444 102.448 29.042 103.651C28.6395 104.849 28.4383 106.113 28.4383 107.444C28.4383 108.769 28.6395 110.034 29.042 111.236C29.4444 112.434 30.0126 113.535 30.7465 114.539C31.4852 115.538 32.354 116.404 33.3531 117.138C34.3569 117.877 35.4577 118.448 36.6556 118.85C37.8583 119.257 39.1248 119.461 40.4553 119.461ZM63.4763 101.216C64.0229 101.296 64.6563 101.363 65.3763 101.416C66.1096 101.456 66.8629 101.476 67.6363 101.476C68.4229 101.463 69.1696 101.436 69.8763 101.396C70.5963 101.343 71.2029 101.276 71.6963 101.196V102.816C71.1629 102.87 70.5363 102.916 69.8163 102.956C69.1096 102.983 68.3696 102.996 67.5963 102.996C66.8363 102.996 66.0963 102.983 65.3763 102.956C64.6563 102.916 64.0229 102.87 63.4763 102.816V101.216ZM64.2563 109.356C64.1629 109.716 64.0896 110.043 64.0363 110.336C63.9829 110.63 63.9563 110.916 63.9563 111.196C63.9563 111.423 64.0029 111.65 64.0963 111.876C64.2029 112.09 64.3763 112.283 64.6163 112.456C64.8696 112.616 65.2163 112.75 65.6563 112.856C66.0963 112.95 66.6563 112.996 67.3363 112.996C68.2429 112.996 69.0963 112.956 69.8963 112.876C70.6963 112.783 71.4963 112.65 72.2963 112.476L72.3363 114.156C71.7096 114.29 70.9763 114.396 70.1363 114.476C69.3096 114.543 68.3763 114.576 67.3363 114.576C65.6563 114.576 64.4229 114.31 63.6363 113.776C62.8629 113.243 62.4763 112.51 62.4763 111.576C62.4763 111.243 62.5029 110.89 62.5563 110.516C62.6229 110.13 62.7096 109.696 62.8163 109.216L64.2563 109.356ZM59.6563 99.6765C59.6296 99.7831 59.5896 99.9231 59.5363 100.096C59.4963 100.256 59.4496 100.423 59.3963 100.596C59.3563 100.756 59.3229 100.896 59.2963 101.016C59.2296 101.39 59.1496 101.823 59.0563 102.316C58.9629 102.796 58.8696 103.316 58.7763 103.876C58.6963 104.423 58.6163 104.983 58.5363 105.556C58.4696 106.116 58.4096 106.663 58.3563 107.196C58.3163 107.73 58.2963 108.223 58.2963 108.676C58.2963 109.17 58.3096 109.636 58.3363 110.076C58.3763 110.516 58.4229 110.983 58.4763 111.476C58.5963 111.17 58.7229 110.843 58.8563 110.496C58.9896 110.15 59.1229 109.81 59.2563 109.476C59.4029 109.13 59.5296 108.823 59.6363 108.556L60.4763 109.196C60.3029 109.676 60.1163 110.203 59.9163 110.776C59.7163 111.35 59.5363 111.903 59.3763 112.436C59.2296 112.956 59.1229 113.37 59.0563 113.676C59.0296 113.823 59.0029 113.983 58.9763 114.156C58.9496 114.33 58.9429 114.47 58.9563 114.576C58.9696 114.683 58.9763 114.796 58.9763 114.916C58.9896 115.05 59.0029 115.17 59.0163 115.276L57.5763 115.376C57.3763 114.67 57.2029 113.763 57.0563 112.656C56.9096 111.536 56.8363 110.303 56.8363 108.956C56.8363 108.223 56.8696 107.476 56.9363 106.716C57.0029 105.943 57.0896 105.196 57.1963 104.476C57.3029 103.743 57.4029 103.076 57.4963 102.476C57.6029 101.863 57.6829 101.35 57.7363 100.936C57.7763 100.696 57.8096 100.456 57.8363 100.216C57.8629 99.9631 57.8763 99.7298 57.8763 99.5165L59.6563 99.6765ZM83.7963 98.8765C83.7429 98.9965 83.6963 99.1431 83.6563 99.3165C83.6296 99.4765 83.5963 99.6298 83.5563 99.7765C83.4496 100.323 83.3429 101.016 83.2363 101.856C83.1296 102.696 83.0429 103.596 82.9763 104.556C82.9096 105.503 82.8763 106.436 82.8763 107.356C82.8763 108.21 82.9296 109.043 83.0363 109.856C83.1563 110.67 83.3029 111.45 83.4763 112.196C83.6629 112.93 83.8563 113.61 84.0563 114.236L82.6163 114.676C82.4163 114.076 82.2296 113.383 82.0563 112.596C81.8829 111.796 81.7429 110.963 81.6363 110.096C81.5296 109.216 81.4763 108.356 81.4763 107.516C81.4763 106.823 81.4963 106.116 81.5363 105.396C81.5896 104.676 81.6496 103.976 81.7163 103.296C81.7829 102.603 81.8429 101.956 81.8963 101.356C81.9629 100.756 82.0229 100.236 82.0763 99.7965C82.0896 99.6231 82.1029 99.4498 82.1163 99.2765C82.1296 99.1031 82.1296 98.9565 82.1163 98.8365L83.7963 98.8765ZM80.5563 101.356C81.7296 101.356 82.8896 101.323 84.0363 101.256C85.1829 101.19 86.2829 101.09 87.3363 100.956C88.4029 100.823 89.4029 100.65 90.3363 100.436L90.3563 101.916C89.6363 102.036 88.8563 102.15 88.0163 102.256C87.1896 102.35 86.3429 102.436 85.4763 102.516C84.6096 102.583 83.7563 102.636 82.9163 102.676C82.0763 102.716 81.2829 102.736 80.5363 102.736C80.2563 102.736 79.9163 102.73 79.5163 102.716C79.1163 102.69 78.7163 102.67 78.3163 102.656C77.9163 102.63 77.5763 102.61 77.2963 102.596L77.2563 101.096C77.4963 101.136 77.8229 101.176 78.2363 101.216C78.6496 101.256 79.0696 101.29 79.4963 101.316C79.9229 101.343 80.2763 101.356 80.5563 101.356ZM88.8963 103.696C88.8563 103.776 88.8096 103.89 88.7563 104.036C88.7163 104.17 88.6696 104.31 88.6163 104.456C88.5763 104.59 88.5363 104.716 88.4963 104.836C88.0963 106.063 87.6163 107.19 87.0563 108.216C86.4963 109.23 85.8896 110.136 85.2363 110.936C84.5829 111.723 83.9096 112.383 83.2163 112.916C82.5629 113.41 81.8563 113.823 81.0963 114.156C80.3363 114.49 79.6029 114.656 78.8963 114.656C78.4696 114.656 78.0763 114.563 77.7163 114.376C77.3563 114.19 77.0696 113.91 76.8563 113.536C76.6429 113.163 76.5363 112.696 76.5363 112.136C76.5363 111.456 76.6829 110.783 76.9763 110.116C77.2696 109.436 77.6696 108.796 78.1763 108.196C78.6963 107.596 79.2829 107.063 79.9363 106.596C80.6029 106.116 81.3096 105.73 82.0563 105.436C82.7096 105.196 83.4163 105.003 84.1763 104.856C84.9496 104.71 85.6563 104.636 86.2963 104.636C87.5629 104.636 88.6563 104.856 89.5763 105.296C90.4963 105.736 91.2029 106.336 91.6963 107.096C92.2029 107.843 92.4563 108.683 92.4563 109.616C92.4563 110.336 92.3296 111.023 92.0763 111.676C91.8363 112.33 91.4496 112.93 90.9163 113.476C90.3963 114.01 89.7229 114.47 88.8963 114.856C88.0696 115.243 87.0763 115.53 85.9163 115.716L85.0563 114.376C86.2696 114.256 87.3096 113.976 88.1763 113.536C89.0429 113.096 89.7163 112.536 90.1963 111.856C90.6763 111.176 90.9163 110.403 90.9163 109.536C90.9163 108.883 90.7363 108.283 90.3763 107.736C90.0163 107.19 89.4896 106.75 88.7963 106.416C88.1163 106.07 87.2763 105.896 86.2763 105.896C85.4363 105.896 84.6563 105.996 83.9363 106.196C83.2296 106.396 82.6229 106.61 82.1163 106.836C81.3696 107.17 80.6829 107.616 80.0563 108.176C79.4429 108.736 78.9563 109.343 78.5963 109.996C78.2363 110.636 78.0563 111.263 78.0563 111.876C78.0563 112.29 78.1496 112.603 78.3363 112.816C78.5363 113.016 78.8229 113.116 79.1963 113.116C79.6896 113.116 80.2429 112.976 80.8563 112.696C81.4829 112.416 82.1229 111.99 82.7763 111.416C83.6696 110.643 84.4963 109.696 85.2563 108.576C86.0296 107.456 86.6429 106.083 87.0963 104.456C87.1229 104.35 87.1496 104.23 87.1763 104.096C87.2029 103.963 87.2296 103.823 87.2563 103.676C87.2963 103.53 87.3163 103.403 87.3163 103.296L88.8963 103.696ZM97.5563 106.736C97.8629 106.67 98.1696 106.596 98.4763 106.516C98.7963 106.423 99.1163 106.33 99.4363 106.236C99.7829 106.13 100.236 105.983 100.796 105.796C101.356 105.61 101.963 105.43 102.616 105.256C103.27 105.083 103.93 104.93 104.596 104.796C105.276 104.663 105.91 104.596 106.496 104.596C107.443 104.596 108.283 104.776 109.016 105.136C109.75 105.496 110.323 106.01 110.736 106.676C111.163 107.33 111.376 108.116 111.376 109.036C111.376 109.996 111.156 110.843 110.716 111.576C110.276 112.296 109.65 112.91 108.836 113.416C108.036 113.923 107.076 114.323 105.956 114.616C104.85 114.91 103.623 115.096 102.276 115.176L101.636 113.636C102.716 113.596 103.743 113.49 104.716 113.316C105.69 113.13 106.556 112.856 107.316 112.496C108.076 112.136 108.67 111.67 109.096 111.096C109.536 110.51 109.756 109.81 109.756 108.996C109.756 108.423 109.616 107.916 109.336 107.476C109.056 107.036 108.663 106.69 108.156 106.436C107.663 106.17 107.07 106.036 106.376 106.036C105.883 106.036 105.33 106.103 104.716 106.236C104.103 106.356 103.47 106.516 102.816 106.716C102.163 106.916 101.536 107.13 100.936 107.356C100.336 107.57 99.8029 107.77 99.3363 107.956C98.8696 108.13 98.5029 108.27 98.2363 108.376L97.5563 106.736ZM123.216 98.9765C123.15 99.2031 123.083 99.4765 123.016 99.7965C122.95 100.116 122.896 100.376 122.856 100.576C122.763 101.056 122.65 101.616 122.516 102.256C122.396 102.883 122.256 103.543 122.096 104.236C121.95 104.93 121.783 105.61 121.596 106.276C121.423 106.983 121.21 107.756 120.956 108.596C120.703 109.423 120.436 110.256 120.156 111.096C119.876 111.936 119.59 112.73 119.296 113.476C119.003 114.223 118.73 114.876 118.476 115.436L116.716 114.836C117.023 114.316 117.33 113.696 117.636 112.976C117.956 112.243 118.263 111.463 118.556 110.636C118.863 109.81 119.143 108.99 119.396 108.176C119.663 107.35 119.89 106.59 120.076 105.896C120.21 105.43 120.336 104.936 120.456 104.416C120.576 103.896 120.69 103.39 120.796 102.896C120.903 102.39 120.99 101.93 121.056 101.516C121.136 101.09 121.196 100.743 121.236 100.476C121.276 100.196 121.303 99.9031 121.316 99.5965C121.33 99.2898 121.323 99.0298 121.296 98.8165L123.216 98.9765ZM118.776 102.316C119.523 102.316 120.323 102.283 121.176 102.216C122.043 102.136 122.923 102.023 123.816 101.876C124.71 101.73 125.57 101.55 126.396 101.336V102.916C125.57 103.103 124.703 103.263 123.796 103.396C122.89 103.53 121.996 103.636 121.116 103.716C120.25 103.783 119.463 103.816 118.756 103.816C118.316 103.816 117.91 103.81 117.536 103.796C117.163 103.77 116.796 103.75 116.436 103.736L116.376 102.176C116.856 102.23 117.283 102.27 117.656 102.296C118.043 102.31 118.416 102.316 118.776 102.316ZM125.096 105.076C125.63 105.023 126.21 104.983 126.836 104.956C127.476 104.916 128.116 104.896 128.756 104.896C129.343 104.896 129.93 104.91 130.516 104.936C131.116 104.963 131.683 105.01 132.216 105.076L132.176 106.596C131.67 106.53 131.13 106.476 130.556 106.436C129.983 106.383 129.403 106.356 128.816 106.356C128.19 106.356 127.563 106.376 126.936 106.416C126.323 106.443 125.71 106.49 125.096 106.556V105.076ZM125.516 109.936C125.436 110.256 125.37 110.57 125.316 110.876C125.263 111.183 125.236 111.47 125.236 111.736C125.236 111.976 125.276 112.21 125.356 112.436C125.45 112.65 125.616 112.843 125.856 113.016C126.096 113.19 126.436 113.33 126.876 113.436C127.33 113.543 127.91 113.596 128.616 113.596C129.27 113.596 129.93 113.563 130.596 113.496C131.263 113.43 131.903 113.33 132.516 113.196L132.456 114.816C131.923 114.896 131.33 114.963 130.676 115.016C130.023 115.07 129.33 115.096 128.596 115.096C127.023 115.096 125.816 114.856 124.976 114.376C124.136 113.883 123.716 113.143 123.716 112.156C123.716 111.77 123.743 111.383 123.796 110.996C123.863 110.61 123.936 110.21 124.016 109.796L125.516 109.936ZM145.176 99.0165C145.163 99.1498 145.143 99.3365 145.116 99.5765C145.103 99.8165 145.083 100.063 145.056 100.316C145.043 100.57 145.036 100.796 145.036 100.996C145.036 101.45 145.036 102.003 145.036 102.656C145.036 103.31 145.036 103.976 145.036 104.656C145.036 105.203 145.05 105.843 145.076 106.576C145.116 107.296 145.15 108.036 145.176 108.796C145.216 109.556 145.25 110.276 145.276 110.956C145.316 111.623 145.336 112.17 145.336 112.596C145.336 113.01 145.27 113.403 145.136 113.776C145.003 114.136 144.79 114.456 144.496 114.736C144.216 115.016 143.843 115.236 143.376 115.396C142.91 115.556 142.343 115.636 141.676 115.636C140.756 115.636 139.936 115.53 139.216 115.316C138.496 115.103 137.923 114.77 137.496 114.316C137.083 113.85 136.876 113.236 136.876 112.476C136.876 111.876 137.056 111.33 137.416 110.836C137.776 110.343 138.33 109.95 139.076 109.656C139.823 109.35 140.77 109.196 141.916 109.196C142.903 109.196 143.856 109.31 144.776 109.536C145.71 109.763 146.583 110.063 147.396 110.436C148.223 110.81 148.976 111.23 149.656 111.696C150.35 112.15 150.95 112.603 151.456 113.056L150.496 114.576C150.003 114.07 149.43 113.583 148.776 113.116C148.136 112.636 147.436 112.21 146.676 111.836C145.916 111.45 145.116 111.15 144.276 110.936C143.45 110.71 142.596 110.596 141.716 110.596C140.676 110.596 139.876 110.763 139.316 111.096C138.756 111.43 138.476 111.87 138.476 112.416C138.476 112.963 138.743 113.39 139.276 113.696C139.81 113.99 140.556 114.136 141.516 114.136C142.25 114.136 142.796 113.97 143.156 113.636C143.516 113.29 143.696 112.77 143.696 112.076C143.696 111.703 143.683 111.21 143.656 110.596C143.63 109.97 143.603 109.296 143.576 108.576C143.55 107.856 143.523 107.156 143.496 106.476C143.47 105.783 143.456 105.176 143.456 104.656C143.456 104.27 143.456 103.85 143.456 103.396C143.456 102.943 143.456 102.503 143.456 102.076C143.456 101.636 143.45 101.276 143.436 100.996C143.436 100.756 143.43 100.51 143.416 100.256C143.403 99.9898 143.383 99.7498 143.356 99.5365C143.343 99.3098 143.316 99.1365 143.276 99.0165H145.176ZM144.156 103.036C144.49 103.036 144.93 103.03 145.476 103.016C146.023 103.003 146.616 102.983 147.256 102.956C147.896 102.93 148.536 102.896 149.176 102.856C149.816 102.803 150.41 102.743 150.956 102.676L151.016 104.176C150.47 104.23 149.87 104.276 149.216 104.316C148.576 104.356 147.936 104.396 147.296 104.436C146.656 104.463 146.056 104.483 145.496 104.496C144.95 104.51 144.503 104.516 144.156 104.516V103.036ZM172.956 113.996C172.343 113.29 171.73 112.69 171.116 112.196C170.503 111.69 169.863 111.303 169.196 111.036C168.543 110.756 167.85 110.616 167.116 110.616C166.77 110.616 166.443 110.676 166.136 110.796C165.843 110.903 165.603 111.063 165.416 111.276C165.23 111.49 165.136 111.743 165.136 112.036C165.136 112.543 165.336 112.923 165.736 113.176C166.15 113.416 166.636 113.536 167.196 113.536C167.85 113.536 168.376 113.37 168.776 113.036C169.19 112.703 169.503 112.25 169.716 111.676C169.943 111.09 170.096 110.416 170.176 109.656C170.27 108.883 170.316 108.056 170.316 107.176C170.316 106.336 170.19 105.61 169.936 104.996C169.696 104.383 169.363 103.91 168.936 103.576C168.51 103.243 168.01 103.076 167.436 103.076C166.93 103.076 166.37 103.21 165.756 103.476C165.156 103.73 164.55 104.076 163.936 104.516C163.323 104.943 162.73 105.416 162.156 105.936C161.596 106.456 161.096 106.97 160.656 107.476L160.696 105.556C161.11 105.156 161.59 104.736 162.136 104.296C162.683 103.843 163.27 103.423 163.896 103.036C164.523 102.636 165.156 102.31 165.796 102.056C166.45 101.803 167.09 101.676 167.716 101.676C168.61 101.676 169.363 101.923 169.976 102.416C170.59 102.91 171.05 103.59 171.356 104.456C171.676 105.31 171.836 106.29 171.836 107.396C171.836 108.543 171.763 109.583 171.616 110.516C171.483 111.45 171.243 112.243 170.896 112.896C170.55 113.55 170.083 114.05 169.496 114.396C168.91 114.743 168.183 114.916 167.316 114.916C166.676 114.916 166.083 114.823 165.536 114.636C165.003 114.45 164.576 114.15 164.256 113.736C163.936 113.323 163.776 112.776 163.776 112.096C163.776 111.563 163.923 111.09 164.216 110.676C164.51 110.263 164.916 109.943 165.436 109.716C165.97 109.476 166.57 109.356 167.236 109.356C168.45 109.356 169.576 109.63 170.616 110.176C171.67 110.71 172.736 111.55 173.816 112.696L172.956 113.996ZM160.396 103.656C160.236 103.67 159.99 103.703 159.656 103.756C159.336 103.796 158.97 103.843 158.556 103.896C158.143 103.95 157.723 104.003 157.296 104.056C156.87 104.11 156.47 104.17 156.096 104.236L155.936 102.596C156.15 102.61 156.356 102.616 156.556 102.616C156.77 102.603 156.996 102.59 157.236 102.576C157.516 102.55 157.856 102.516 158.256 102.476C158.67 102.423 159.096 102.37 159.536 102.316C159.99 102.25 160.41 102.183 160.796 102.116C161.196 102.036 161.51 101.956 161.736 101.876L162.316 102.576C162.21 102.75 162.076 102.956 161.916 103.196C161.77 103.423 161.623 103.656 161.476 103.896C161.33 104.123 161.203 104.33 161.096 104.516L160.476 107.236C160.25 107.596 159.97 108.023 159.636 108.516C159.303 108.996 158.95 109.51 158.576 110.056C158.203 110.59 157.83 111.123 157.456 111.656C157.096 112.19 156.756 112.67 156.436 113.096L155.456 111.736C155.696 111.43 155.99 111.05 156.336 110.596C156.683 110.143 157.043 109.663 157.416 109.156C157.803 108.636 158.176 108.123 158.536 107.616C158.896 107.11 159.216 106.643 159.496 106.216C159.79 105.79 160.01 105.45 160.156 105.196L160.236 104.176L160.396 103.656ZM160.216 100.316C160.216 100.09 160.216 99.8498 160.216 99.5965C160.216 99.3431 160.196 99.0898 160.156 98.8365L162.016 98.8965C161.963 99.1631 161.896 99.5831 161.816 100.156C161.75 100.716 161.676 101.383 161.596 102.156C161.516 102.93 161.436 103.743 161.356 104.596C161.29 105.45 161.236 106.296 161.196 107.136C161.156 107.963 161.136 108.73 161.136 109.436C161.136 110.036 161.136 110.596 161.136 111.116C161.136 111.623 161.143 112.13 161.156 112.636C161.17 113.13 161.19 113.67 161.216 114.256C161.23 114.43 161.243 114.63 161.256 114.856C161.27 115.083 161.29 115.29 161.316 115.476H159.576C159.603 115.343 159.616 115.15 159.616 114.896C159.63 114.656 159.636 114.456 159.636 114.296C159.65 113.656 159.656 113.09 159.656 112.596C159.656 112.103 159.656 111.596 159.656 111.076C159.67 110.543 159.683 109.91 159.696 109.176C159.696 108.883 159.71 108.483 159.736 107.976C159.763 107.456 159.796 106.89 159.836 106.276C159.876 105.65 159.916 105.016 159.956 104.376C159.996 103.736 160.036 103.136 160.076 102.576C160.116 102.003 160.15 101.516 160.176 101.116C160.203 100.716 160.216 100.45 160.216 100.316Z" fill="black"/>
</svg>
