<svg width="211" height="150" viewBox="0 0 211 150" fill="none" xmlns="http://www.w3.org/2000/svg">
<rect width="210" height="148.5" transform="matrix(-1 0 0 -1 210.65 149.269)" fill="white"/>
<path d="M149.293 40.3002C149.032 40.3002 148.902 40.2247 148.902 40.0737C148.902 39.9227 149.015 39.8403 149.241 39.8266L150.415 39.6824C150.763 39.6412 150.998 39.5726 151.12 39.4764C151.242 39.3666 151.303 39.1675 151.303 38.8792V26.5224C151.303 26.3302 151.25 26.1929 151.146 26.1105C151.042 26.0281 150.824 25.9869 150.494 25.9869C149.85 25.9869 149.215 26.2066 148.589 26.646C147.962 27.0853 147.554 27.7924 147.362 28.7672L147.232 29.4468C147.197 29.6253 147.075 29.7146 146.866 29.7146C146.606 29.7146 146.492 29.5979 146.527 29.3645L146.762 25.6368C146.797 25.321 146.953 25.1631 147.232 25.1631C147.354 25.1631 147.467 25.1906 147.571 25.2455C147.675 25.2867 147.849 25.3348 148.093 25.3897C148.354 25.4446 148.763 25.4721 149.319 25.4721H155.138C155.695 25.4721 156.095 25.4446 156.339 25.3897C156.6 25.3348 156.782 25.2867 156.887 25.2455C157.009 25.1906 157.122 25.1631 157.226 25.1631C157.504 25.1631 157.661 25.321 157.696 25.6368L157.931 29.3645C157.965 29.5979 157.852 29.7146 157.591 29.7146C157.383 29.7146 157.261 29.6253 157.226 29.4468L157.096 28.7672C156.922 27.7924 156.521 27.0853 155.895 26.646C155.269 26.2066 154.625 25.9869 153.964 25.9869C153.634 25.9869 153.416 26.0281 153.312 26.1105C153.207 26.1929 153.155 26.3302 153.155 26.5224V38.8792C153.155 39.1675 153.216 39.3666 153.338 39.4764C153.477 39.5726 153.712 39.6412 154.043 39.6824L155.217 39.8266C155.443 39.8403 155.556 39.9227 155.556 40.0737C155.556 40.2247 155.426 40.3002 155.165 40.3002H149.293Z" fill="black"/>
<path d="M140.593 40.4856C140.245 40.4856 139.854 40.4581 139.419 40.4032C139.001 40.3483 138.601 40.2796 138.218 40.1973C137.853 40.1149 137.566 40.0256 137.357 39.9295C137.235 39.8746 137.14 39.8197 137.07 39.7648C137.018 39.6961 136.992 39.5863 136.992 39.4353L136.861 36.2019C136.861 35.9273 136.975 35.79 137.201 35.79C137.392 35.79 137.523 35.9136 137.592 36.1607L137.827 36.9433C138.418 38.9067 139.523 39.8883 141.141 39.8883C142.011 39.8883 142.698 39.6618 143.202 39.2087C143.724 38.7419 143.985 38.0897 143.985 37.2522C143.985 36.4422 143.716 35.687 143.176 34.9868C142.654 34.2866 141.811 33.5932 140.645 32.9067C139.358 32.1791 138.418 31.4788 137.827 30.8061C137.235 30.1196 136.94 29.3919 136.94 28.6231C136.94 27.607 137.383 26.797 138.271 26.1929C139.175 25.575 140.323 25.2661 141.715 25.2661C142.237 25.2661 142.741 25.3142 143.229 25.4103C143.716 25.5064 144.116 25.6437 144.429 25.8222C144.533 25.8771 144.612 25.9389 144.664 26.0075C144.733 26.0762 144.768 26.1654 144.768 26.2753L144.846 29.3851C144.846 29.6185 144.733 29.7352 144.507 29.7352C144.351 29.7352 144.238 29.6391 144.168 29.4468L143.985 28.932C143.603 27.8748 143.202 27.1059 142.785 26.6254C142.385 26.1311 141.802 25.884 141.037 25.884C140.289 25.884 139.688 26.0762 139.236 26.4606C138.801 26.845 138.584 27.3874 138.584 28.0876C138.584 28.678 138.827 29.2409 139.314 29.7764C139.801 30.3118 140.654 30.964 141.872 31.7329C143.176 32.5704 144.124 33.3804 144.716 34.163C145.325 34.9319 145.629 35.7557 145.629 36.6344C145.629 37.4033 145.412 38.076 144.977 38.6527C144.542 39.2293 143.942 39.6824 143.176 40.0119C142.428 40.3277 141.567 40.4856 140.593 40.4856Z" fill="black"/>
<path d="M124.855 40.3002C124.594 40.3002 124.463 40.2247 124.463 40.0737C124.463 39.9501 124.576 39.8678 124.802 39.8266L125.403 39.7442C125.768 39.6893 126.003 39.6137 126.107 39.5176C126.229 39.4215 126.29 39.2293 126.29 38.941V26.8313C126.29 26.543 126.229 26.3508 126.107 26.2547C126.003 26.1586 125.768 26.083 125.403 26.0281L124.802 25.9457C124.576 25.9046 124.463 25.8222 124.463 25.6986C124.463 25.5476 124.594 25.4721 124.855 25.4721H133.622C134.023 25.4721 134.24 25.63 134.275 25.9457L134.484 29.3645C134.518 29.5979 134.405 29.7146 134.144 29.7146C133.936 29.7146 133.814 29.6253 133.779 29.4468L133.622 28.6848C133.431 27.7512 133.04 27.0716 132.448 26.646C131.857 26.2066 131.039 25.9869 129.995 25.9869C129.299 25.9869 128.812 26.0693 128.534 26.2341C128.273 26.3851 128.143 26.6597 128.143 27.0579V32.0212C128.143 32.2134 128.264 32.3095 128.508 32.3095H129.813C130.578 32.3095 131.048 31.9869 131.222 31.3416L131.483 30.3118C131.552 30.1059 131.7 30.0166 131.926 30.0441C132.118 30.0715 132.213 30.1883 132.213 30.3942V35.028C132.213 35.2339 132.118 35.3506 131.926 35.3781C131.7 35.4056 131.552 35.3163 131.483 35.1104L131.222 34.1012C131.1 33.6207 130.926 33.3049 130.7 33.1539C130.491 33.0029 130.187 32.9273 129.787 32.9273H128.508C128.264 32.9273 128.143 33.0235 128.143 33.2157V38.3849C128.143 38.8792 128.299 39.2362 128.612 39.4559C128.943 39.6755 129.534 39.7854 130.387 39.7854C131.257 39.7854 131.996 39.6137 132.605 39.2705C133.231 38.9135 133.666 38.2545 133.909 37.2934L134.223 36.0783C134.275 35.8998 134.405 35.8106 134.614 35.8106C134.858 35.8106 134.962 35.9273 134.927 36.1607L134.666 39.8266C134.631 40.1423 134.414 40.3002 134.014 40.3002H124.855Z" fill="black"/>
<path d="M117.153 40.4856C116.214 40.4856 115.379 40.314 114.648 39.9707C113.935 39.6137 113.378 39.1263 112.978 38.5085C112.578 37.8769 112.378 37.1561 112.378 36.3461V26.8313C112.378 26.543 112.317 26.3508 112.195 26.2547C112.091 26.1586 111.856 26.083 111.491 26.0281L110.891 25.9457C110.664 25.9046 110.551 25.8222 110.551 25.6986C110.551 25.5476 110.682 25.4721 110.943 25.4721H115.718C115.979 25.4721 116.11 25.5544 116.11 25.7192C116.11 25.8428 116.014 25.9183 115.822 25.9457L115.118 26.0281C114.77 26.0693 114.535 26.1448 114.413 26.2547C114.292 26.3645 114.231 26.5636 114.231 26.8519V36.3667C114.231 37.4101 114.526 38.2202 115.118 38.7968C115.709 39.3735 116.536 39.6618 117.597 39.6618C118.675 39.6618 119.511 39.3735 120.102 38.7968C120.693 38.2202 120.989 37.4101 120.989 36.3667V27.2638C120.989 26.5224 120.693 26.1105 120.102 26.0281L119.397 25.9457C119.206 25.9183 119.11 25.8428 119.11 25.7192C119.11 25.5544 119.241 25.4721 119.502 25.4721H123.259C123.52 25.4721 123.651 25.5476 123.651 25.6986C123.651 25.8222 123.538 25.9046 123.312 25.9457L122.711 26.0281C122.12 26.1105 121.824 26.5155 121.824 27.2432V36.3461C121.824 37.5955 121.398 38.5977 120.546 39.3529C119.693 40.108 118.562 40.4856 117.153 40.4856Z" fill="black"/>
<path d="M93.1332 10.3143C94.0275 9.30319 95.0997 9.00331 96.0487 9.21296C96.888 9.39843 97.6001 9.97831 97.9631 10.7445C98.7823 10.0136 99.5764 9.80922 100.308 9.99406C100.981 10.164 101.532 10.6488 101.953 11.189C103.146 9.96241 104.383 9.68895 105.453 9.96465C106.473 10.2276 107.287 10.9769 107.723 11.7317C108.966 11.5091 109.767 11.7394 110.189 12.3044C110.562 12.8049 110.554 13.4653 110.434 13.9953C110.962 14.3952 111.307 14.7878 111.492 15.1749C111.702 15.6157 111.696 16.0363 111.533 16.4055C111.376 16.7617 111.084 17.0439 110.767 17.2557C110.539 17.4074 110.288 17.5298 110.037 17.623C110.211 18.2495 110.22 18.7872 110.081 19.2375C109.919 19.7652 109.567 20.1356 109.129 20.3708C108.362 20.7835 107.323 20.79 106.453 20.5684C106.227 21.1086 105.946 21.5283 105.604 21.8285C105.203 22.1816 104.737 22.3549 104.231 22.3785C103.298 22.4221 102.248 21.9575 101.177 21.2553C98.7282 23.1379 95.8567 23.6224 93.8183 23.6224C91.9521 23.6224 90.3854 23.6319 88.6704 23.6368C86.9344 23.6417 85.0488 23.6419 82.553 23.6224L82.5581 22.9995C85.0511 23.0189 86.9343 23.0187 88.6686 23.0138C89.6686 23.011 90.6201 23.0067 91.6105 23.0035C91.9896 23.3859 92.5152 23.6227 93.0963 23.6227C93.6918 23.6227 94.2286 23.3734 94.6097 22.9741C96.5198 22.8539 98.922 22.2733 100.967 20.6285L101.146 20.484L101.337 20.6134C102.456 21.3736 103.43 21.7924 104.201 21.7563C104.575 21.7389 104.904 21.6148 105.193 21.3606C105.487 21.1021 105.755 20.6945 105.972 20.086L106.074 19.8004L106.362 19.8947C107.185 20.1637 108.183 20.1723 108.834 19.822C109.149 19.6528 109.378 19.4036 109.486 19.0545C109.595 18.6986 109.589 18.202 109.355 17.5247L109.247 17.2128L109.565 17.1233C109.857 17.041 110.163 16.9093 110.421 16.7376C110.681 16.5643 110.87 16.3642 110.963 16.1539C111.05 15.9564 111.064 15.7256 110.929 15.4429C110.789 15.1477 110.481 14.7872 109.9 14.3755L109.718 14.2462L109.781 14.0323C109.93 13.5335 109.935 13.0058 109.69 12.6773C109.466 12.3774 108.921 12.1079 107.623 12.3864L107.384 12.4377L107.277 12.2177C106.945 11.5312 106.209 10.8026 105.297 10.5678C104.418 10.3412 103.308 10.5581 102.16 11.8841L101.894 12.1923L101.666 11.8539C101.255 11.2405 100.735 10.7444 100.156 10.5979C99.6095 10.46 98.9107 10.6106 98.0644 11.5175L97.6763 11.9336L97.535 11.3823C97.3375 10.6116 96.6953 9.99393 95.9144 9.82135C95.1535 9.65321 94.2155 9.9011 93.4085 10.9597L93.1805 11.2591L92.9291 10.979C92.5753 10.585 92.0074 10.305 91.4765 10.3684C90.9807 10.4276 90.4073 10.8029 90.0508 11.9547L89.9902 12.1511L89.7861 12.1724C88.99 12.2564 88.5831 12.5876 88.4496 12.938C88.3154 13.2905 88.4053 13.7987 88.9011 14.3501L89.0771 14.5457L88.9137 14.7518C88.6218 15.1205 88.3181 15.6706 88.2819 16.1456C88.2646 16.3731 88.3097 16.5632 88.4257 16.7155C88.5432 16.8694 88.7632 17.0242 89.1714 17.12L89.0291 17.7264C88.5268 17.6085 88.1607 17.3952 87.9305 17.0933C87.6991 16.7899 87.635 16.4363 87.6607 16.0983C87.7031 15.5424 87.9905 14.9774 88.2739 14.5695C87.81 13.9661 87.6451 13.3006 87.8676 12.7162C88.0973 12.1135 88.6945 11.7135 89.5191 11.5799C89.9325 10.4064 90.6273 9.84251 91.4028 9.74995C92.0498 9.67276 92.6789 9.93558 93.1332 10.3143Z" fill="black"/>
<path d="M69.3749 40.0737C69.3749 40.2247 69.5053 40.3002 69.7663 40.3002H75.6376C75.8985 40.3002 76.029 40.2247 76.029 40.0737C76.029 39.9227 75.9159 39.8403 75.6898 39.8266L74.5155 39.6824C74.185 39.6412 73.9501 39.5726 73.8109 39.4764C73.6892 39.3666 73.6283 39.1675 73.6283 38.8792V33.8541C73.6283 33.6344 73.6544 33.4422 73.7066 33.2774C73.7588 33.099 73.8457 32.9136 73.9675 32.7214L77.3859 27.305C77.6816 26.8519 77.9165 26.5293 78.0905 26.337C79.2598 25.045 80.9527 23.6972 82.553 23.6224L82.5581 22.9995C78.9664 22.6564 77.4155 25.8137 76.5248 27.2844L73.4456 32.2477C73.376 32.3438 73.2891 32.3919 73.1847 32.3919C73.0803 32.3919 72.9933 32.3438 72.9237 32.2477L69.7141 26.8519C69.5401 26.5636 69.514 26.3508 69.6358 26.2135C69.7576 26.0762 69.9663 26.0007 70.2621 25.9869L70.7579 25.9457C71.0536 25.932 71.2015 25.8496 71.2015 25.6986C71.2015 25.5476 71.0797 25.4721 70.8362 25.4721H66.374C66.113 25.4721 65.9826 25.5407 65.9826 25.678C65.9826 25.8153 66.1043 25.9046 66.3479 25.9457L66.5827 25.9869C66.8785 26.0419 67.1046 26.1311 67.2612 26.2547C67.4178 26.3782 67.5569 26.5567 67.6787 26.7901L71.5146 33.1333C71.6886 33.4216 71.7756 33.7168 71.7756 34.0189V38.8792C71.7756 39.1675 71.7147 39.3666 71.5929 39.4764C71.4711 39.5726 71.2363 39.6412 70.8883 39.6824L69.7141 39.8266C69.4879 39.8403 69.3749 39.9227 69.3749 40.0737Z" fill="black"/>
<path d="M64.1409 40.4856C63.8625 40.4856 63.6277 40.3208 63.4363 39.9913L56.3647 27.8816C56.3125 27.7855 56.2429 27.7443 56.1559 27.7581C56.0863 27.7718 56.0515 27.8336 56.0515 27.9434V38.5291C56.0515 38.9135 56.1298 39.2087 56.2864 39.4147C56.4603 39.6069 56.7648 39.7305 57.1997 39.7854L57.5389 39.8266C57.7651 39.8403 57.8782 39.9227 57.8782 40.0737C57.8782 40.2247 57.7477 40.3002 57.4867 40.3002H53.7552C53.4943 40.3002 53.3638 40.2247 53.3638 40.0737C53.3638 39.9227 53.4769 39.8403 53.703 39.8266L54.0422 39.7854C54.4946 39.7305 54.8077 39.6069 54.9817 39.4147C55.1556 39.2087 55.2426 38.9135 55.2426 38.5291V26.8313C55.2426 26.543 55.1817 26.3508 55.0599 26.2547C54.9556 26.1586 54.7033 26.083 54.3032 26.0281L53.703 25.9457C53.4769 25.9046 53.3638 25.8222 53.3638 25.6986C53.3638 25.5476 53.4943 25.4721 53.7552 25.4721H56.5473C56.9822 25.4721 57.2867 25.6231 57.4606 25.9252L63.619 36.6138C63.6712 36.6962 63.732 36.7305 63.8016 36.7168C63.8886 36.703 63.9321 36.655 63.9321 36.5726V27.2432C63.9321 26.8039 63.8364 26.5018 63.6451 26.337C63.4537 26.1586 63.2102 26.0487 62.9144 26.0075L62.4447 25.9457C62.2186 25.9046 62.1055 25.8222 62.1055 25.6986C62.1055 25.5476 62.236 25.4721 62.4969 25.4721H66.2284C66.4894 25.4721 66.6199 25.5476 66.6199 25.6986C66.6199 25.8496 66.5068 25.932 66.2806 25.9457L65.9414 25.9869C65.4891 26.0419 65.1759 26.1586 65.002 26.337C64.828 26.5018 64.741 26.8039 64.741 27.2432V39.8266C64.741 40.0737 64.6802 40.2453 64.5584 40.3414C64.454 40.4375 64.3148 40.4856 64.1409 40.4856Z" fill="black"/>
<path fill-rule="evenodd" clip-rule="evenodd" d="M82.0656 39.5382C83.0398 40.1698 84.2315 40.4856 85.6406 40.4856C86.3538 40.4856 86.9801 40.4307 87.5194 40.3208C88.0587 40.2247 88.5371 40.0943 88.9546 39.9295C89.2155 39.8197 89.3982 39.7236 89.5026 39.6412C89.607 39.5451 89.6591 39.4215 89.6591 39.2705V33.6893C89.6591 33.401 89.6939 33.1951 89.7635 33.0715C89.435 33.0715 88.891 32.9605 88.3732 32.8549C88.0898 32.7971 87.8144 32.7409 87.5864 32.7054C86.8397 32.589 86.5276 32.6484 86.9192 32.8656C87.2845 32.893 87.5194 32.9617 87.6238 33.0715C87.7455 33.1813 87.8064 33.3804 87.8064 33.6687V38.179C87.8064 38.8517 87.6238 39.3117 87.2584 39.5588C86.8931 39.806 86.3538 39.9295 85.6406 39.9295C84.3184 39.9295 83.2312 39.3254 82.3787 38.1172C81.5437 36.8952 81.1262 35.1241 81.1262 32.8038C81.1262 30.5521 81.535 28.8359 82.3526 27.6551C83.1877 26.4606 84.2402 25.8634 85.5101 25.8634C86.3625 25.8634 87.0323 26.0762 87.5194 26.5018C88.0065 26.9274 88.4414 27.71 88.8241 28.8496L89.0329 29.4674C89.0851 29.6459 89.2068 29.7352 89.3982 29.7352C89.607 29.7352 89.7113 29.6185 89.7113 29.3851L89.633 26.2547C89.633 26.0624 89.52 25.9183 89.2938 25.8222C88.8763 25.6574 88.3892 25.527 87.8325 25.4309C87.2758 25.321 86.6583 25.2661 85.9798 25.2661C84.6403 25.2661 83.4486 25.5819 82.4048 26.2135C81.3784 26.8313 80.5695 27.71 79.978 28.8496C79.3866 29.9754 79.0908 31.2935 79.0908 32.8038C79.0908 34.369 79.3431 35.7282 79.8476 36.8815C80.3521 38.0211 81.0914 38.9067 82.0656 39.5382Z" fill="black"/>
<path fill-rule="evenodd" clip-rule="evenodd" d="M100.342 38.342C100.938 39.2405 101.699 39.7575 102.625 39.8933C102.716 40.1051 103.08 40.5434 103.078 40.6118C102.879 40.5452 102.467 40.4842 102.254 40.426C102.118 40.3886 101.989 40.3534 101.882 40.3208C100.977 40.0874 100.16 39.6206 99.4291 38.9204C99.1388 38.6298 98.8731 38.312 98.6318 37.9668C99.1194 38.1142 100.144 38.3956 100.342 38.342ZM99.1943 32.8656C99.1943 34.7878 99.4221 36.3144 99.8779 37.4453C99.7347 37.437 98.5322 36.9992 97.9489 36.7814C97.873 36.62 97.801 36.4543 97.733 36.2843C97.3329 35.2408 97.1328 34.1012 97.1328 32.8656C97.1328 31.7946 97.2807 30.7992 97.5764 29.8793C97.8895 28.9594 98.3158 28.1562 98.855 27.4698C99.4117 26.7695 100.055 26.2272 100.786 25.8428C101.517 25.4583 102.3 25.2661 103.135 25.2661C103.97 25.2661 104.744 25.4583 105.457 25.8428C106.188 26.2272 106.831 26.7695 107.388 27.4698C107.945 28.1562 108.371 28.9594 108.667 29.8793C108.98 30.7992 109.136 31.7946 109.136 32.8656C109.136 34.1287 108.919 35.2957 108.484 36.3667C108.066 37.4238 107.484 38.3026 106.736 39.0028C106.145 39.5688 105.486 39.9733 104.759 40.2164C104.618 40.0828 104.331 39.7972 104.31 39.7238C105 39.4608 105.574 38.9459 106.031 38.179C106.727 37.012 107.075 35.2408 107.075 32.8656C107.075 30.4903 106.727 28.726 106.031 27.5727C105.335 26.4057 104.37 25.8222 103.135 25.8222C101.917 25.8222 100.951 26.4057 100.238 27.5727C99.5422 28.726 99.1943 30.4903 99.1943 32.8656Z" fill="black"/>
<path d="M84.5915 33.6893C85.0245 33.2225 86.3889 32.2666 88.1044 32.4644C90.2488 32.7115 95.7633 36.2688 97.4747 37.2233C97.7139 37.3567 98.031 37.4912 98.4005 37.6156C98.9098 37.787 99.5185 37.939 100.159 38.042C100.656 38.1217 101.172 38.172 101.676 38.179C101.738 38.1798 101.8 38.1802 101.861 38.1801C101.774 38.0769 101.684 37.9733 101.592 37.8685C101.026 37.8705 100.485 37.8 99.9828 37.6899C99.2535 37.53 98.6069 37.2868 98.0868 37.0613C97.8568 36.9616 97.6515 36.8654 97.4747 36.7814C96.1455 36.1498 90.9659 32.6939 88.6344 32.3095C86.7692 32.002 84.9621 33.0486 84.5915 33.6893Z" fill="black"/>
<path d="M102.536 38.1566C102.455 38.0537 102.369 37.9437 102.279 37.8296C102.047 37.8555 101.818 37.8677 101.592 37.8685C101.684 37.9733 101.774 38.0769 101.861 38.1801C102.095 38.1797 102.32 38.172 102.536 38.1566Z" fill="black"/>
<path d="M103.949 39.8358C103.692 39.8983 103.42 39.9295 103.135 39.9295C103.097 39.9295 103.059 39.929 103.022 39.9278C103.084 40.0919 103.134 40.1149 103.27 40.3493C103.406 40.5836 103.838 41.1459 104.014 41.5287C104.358 42.2755 104.799 42.8275 105.338 43.1847C105.877 43.5419 106.448 43.7623 107.049 43.8458C107.671 43.9405 108.239 43.9521 108.753 43.8806C109.352 43.7972 109.836 43.6672 110.202 43.4907C110.589 43.3253 110.902 43.1424 111.14 42.942C111.256 42.8283 111.303 42.7241 111.282 42.6294C111.258 42.5212 111.183 42.462 111.057 42.4516C110.931 42.4413 110.807 42.4794 110.685 42.5661C110.211 42.8969 109.76 43.0479 109.203 43.1696C108.606 43.3001 108.173 43.4148 107.323 43.1696C106.473 42.9245 106.106 42.603 105.623 41.8617C105.217 41.2402 104.569 40.5052 103.949 39.8358Z" fill="black"/>
<path fill-rule="evenodd" clip-rule="evenodd" d="M106.752 32.6494C107.147 33.7392 107.109 34.7062 106.151 36.213C106.05 36.3718 105.925 36.5236 105.795 36.6596C105.565 36.9008 105.32 37.0922 105.17 37.1847C104.644 37.5091 104.475 37.5906 104.143 37.7323C103.519 37.9993 102.951 38.1272 102.536 38.1566C102.455 38.0537 102.369 37.9437 102.279 37.8296C102.561 37.7983 102.846 37.7472 103.135 37.6724C103.645 37.5402 104.257 37.2018 104.644 36.9339C104.918 36.7441 105.197 36.3961 105.218 36.3667C105.914 35.4157 106.333 34.4018 106.124 33.4679C106.055 33.1614 105.781 32.7548 105.346 32.7028C104.858 32.6447 104.085 32.8941 103.437 33.6687C102.848 32.7054 101.882 32.2427 100.905 32.536C100.675 32.6049 100.348 33.0532 100.238 33.5336C100.11 34.0961 100.222 35.1414 100.905 36.1583C101.054 36.3805 101.33 36.7017 101.622 37.0422C101.811 37.2621 102.007 37.4902 102.18 37.7049C102.141 37.7169 101.693 37.7301 101.475 37.7353C101.426 37.6804 101.375 37.6233 101.322 37.5647C101.061 37.2721 100.765 36.9411 100.543 36.6596C100.502 36.6078 100.462 36.5571 100.422 36.507C99.7305 35.6377 99.2071 34.9796 99.4291 33.1383C99.5285 32.3147 100.177 31.8026 100.967 31.6888C101.927 31.5504 103.062 31.9914 103.54 33.0715C103.819 32.4504 104.645 31.8679 105.482 31.8767C105.946 31.8817 106.576 32.1623 106.752 32.6494Z" fill="black"/>
<path fill-rule="evenodd" clip-rule="evenodd" d="M103.949 39.8358C103.692 39.8983 103.42 39.9295 103.135 39.9295C103.097 39.9295 103.059 39.929 103.022 39.9278C102.901 39.6101 102.779 39.4355 102.55 39.1099C102.483 39.0131 102.406 38.903 102.316 38.7718C102.219 38.6281 102.11 38.4853 101.994 38.342C102.193 38.334 102.602 38.3137 102.647 38.2967C102.719 38.3888 102.786 38.473 102.844 38.5466C102.919 38.6411 102.98 38.7181 103.022 38.7718C103.368 39.2128 103.693 39.5614 103.882 39.7645C103.907 39.7907 103.929 39.8145 103.949 39.8358Z" fill="black"/>
<circle cx="90.6827" cy="25.0272" r="1" stroke="black" stroke-width="0.505019"/>
<circle cx="90.6827" cy="25.0272" r="1" stroke="black" stroke-width="0.505019"/>
<path d="M94.4526 21.5304C94.4526 20.7812 93.8454 20.1738 93.0963 20.1738C92.3472 20.1738 91.7398 20.7812 91.7398 21.5304C91.7398 22.2795 92.3472 22.8867 93.0963 22.8867V23.4015L93 23.3993C92.0431 23.3508 91.2759 22.5835 91.2274 21.6266L91.2249 21.5304C91.2249 20.4968 92.0628 19.6589 93.0963 19.6589L93.1926 19.6614C94.1813 19.7116 94.9675 20.5292 94.9675 21.5304L94.9652 21.6266C94.9151 22.6153 94.0975 23.4015 93.0963 23.4015V22.8867C93.8454 22.8866 94.4526 22.2795 94.4526 21.5304Z" fill="black"/>
<path d="M94.4526 21.5304C94.4526 20.7812 93.8454 20.1738 93.0963 20.1738C92.3472 20.1738 91.7398 20.7812 91.7398 21.5304C91.7398 22.2795 92.3472 22.8867 93.0963 22.8867V23.4015L93 23.3993C92.0431 23.3508 91.2759 22.5835 91.2274 21.6266L91.2249 21.5304C91.2249 20.4968 92.0628 19.6589 93.0963 19.6589L93.1926 19.6614C94.1813 19.7116 94.9675 20.5292 94.9675 21.5304L94.9652 21.6266C94.9151 22.6153 94.0975 23.4015 93.0963 23.4015V22.8867C93.8454 22.8866 94.4526 22.2795 94.4526 21.5304Z" fill="black"/>
<path d="M34.5175 66.9475V65.6691L39.3186 60.4134C39.8821 59.7978 40.3461 59.2628 40.7107 58.8083C41.0753 58.349 41.3452 57.9181 41.5204 57.5156C41.7003 57.1084 41.7902 56.6823 41.7902 56.2372C41.7902 55.7259 41.6671 55.2832 41.4209 54.9091C41.1794 54.5351 40.848 54.2462 40.4266 54.0426C40.0052 53.839 39.5317 53.7372 39.0061 53.7372C38.4474 53.7372 37.9597 53.8532 37.5431 54.0852C37.1311 54.3125 36.8115 54.6321 36.5843 55.0441C36.3617 55.456 36.2505 55.9389 36.2505 56.4929H34.5743C34.5743 55.6406 34.7708 54.8925 35.1638 54.2486C35.5568 53.6047 36.0918 53.1028 36.7689 52.7429C37.4507 52.3831 38.2154 52.2031 39.063 52.2031C39.9152 52.2031 40.6704 52.3831 41.3286 52.7429C41.9867 53.1028 42.5028 53.5881 42.8769 54.1989C43.2509 54.8097 43.438 55.4891 43.438 56.2372C43.438 56.7723 43.3409 57.2955 43.1468 57.8068C42.9574 58.3135 42.6259 58.8793 42.1525 59.5043C41.6837 60.1245 41.0327 60.8821 40.1993 61.777L36.9323 65.2713V65.385H43.6936V66.9475H34.5175ZM39.1056 73.3395C37.5952 73.3395 36.1558 73.1099 34.7874 72.6506C33.4238 72.1913 32.1714 71.5426 31.0303 70.7046C29.8939 69.8712 28.9067 68.884 28.0686 67.7429C27.2353 66.6066 26.589 65.3566 26.1297 63.9929C25.6704 62.6245 25.4408 61.1852 25.4408 59.6747C25.4408 58.1643 25.6704 56.7273 26.1297 55.3637C26.589 53.9953 27.2353 52.7429 28.0686 51.6066C28.9067 50.4655 29.8939 49.4782 31.0303 48.6449C32.1714 47.8068 33.4238 47.1582 34.7874 46.6989C36.1558 46.2396 37.5952 46.01 39.1056 46.01C40.616 46.01 42.053 46.2396 43.4167 46.6989C44.785 47.1582 46.0374 47.8068 47.1738 48.6449C48.3149 49.4782 49.3021 50.4655 50.1354 51.6066C50.9735 52.7429 51.6221 53.9953 52.0814 55.3637C52.5407 56.7273 52.7704 58.1643 52.7704 59.6747C52.7704 61.1852 52.5407 62.6245 52.0814 63.9929C51.6221 65.3566 50.9735 66.6066 50.1354 67.7429C49.3021 68.884 48.3149 69.8712 47.1738 70.7046C46.0374 71.5426 44.785 72.1913 43.4167 72.6506C42.053 73.1099 40.616 73.3395 39.1056 73.3395ZM39.1056 71.6918C40.4361 71.6918 41.7003 71.4882 42.8982 71.081C44.1008 70.6785 45.2017 70.108 46.2007 69.3693C47.2045 68.6354 48.0734 67.769 48.8073 66.7699C49.5459 65.7661 50.1165 64.6653 50.5189 63.4674C50.9214 62.2647 51.1226 61.0005 51.1226 59.6747C51.1226 58.3442 50.9214 57.08 50.5189 55.8821C50.1165 54.6795 49.5459 53.5786 48.8073 52.5796C48.0734 51.5758 47.2045 50.7069 46.2007 49.973C45.2017 49.2344 44.1008 48.6638 42.8982 48.2614C41.7003 47.8589 40.4361 47.6577 39.1056 47.6577C37.7751 47.6577 36.5085 47.8589 35.3059 48.2614C34.1079 48.6638 33.0071 49.2344 32.0033 49.973C31.0043 50.7069 30.1354 51.5758 29.3968 52.5796C28.6629 53.5786 28.0947 54.6795 27.6922 55.8821C27.2898 57.08 27.0885 58.3442 27.0885 59.6747C27.0885 61.0005 27.2898 62.2647 27.6922 63.4674C28.0947 64.6653 28.6629 65.7661 29.3968 66.7699C30.1354 67.769 31.0043 68.6354 32.0033 69.3693C33.0071 70.108 34.1079 70.6785 35.3059 71.081C36.5085 71.4882 37.7751 71.6918 39.1056 71.6918ZM59.3865 51.5675C59.3598 51.7941 59.3332 52.0541 59.3065 52.3475C59.2798 52.6275 59.2665 52.9075 59.2665 53.1875C59.2665 53.3608 59.2665 53.7075 59.2665 54.2275C59.2665 54.7341 59.2665 55.3475 59.2665 56.0675C59.2665 56.7741 59.2665 57.5275 59.2665 58.3275C59.2665 59.1141 59.2665 59.8741 59.2665 60.6075C59.2665 61.3408 59.2665 61.9875 59.2665 62.5475C59.2665 63.0941 59.2665 63.4941 59.2665 63.7475C59.2665 64.2541 59.3798 64.6075 59.6065 64.8075C59.8332 64.9941 60.1865 65.1341 60.6665 65.2275C60.9865 65.2808 61.3865 65.3208 61.8665 65.3475C62.3465 65.3741 62.8332 65.3875 63.3265 65.3875C63.8465 65.3875 64.4132 65.3741 65.0265 65.3475C65.6532 65.3208 66.2798 65.2808 66.9065 65.2275C67.5332 65.1741 68.1265 65.1075 68.6865 65.0275C69.2598 64.9475 69.7532 64.8541 70.1665 64.7475V66.5675C69.5932 66.6608 68.8998 66.7408 68.0865 66.8075C67.2865 66.8608 66.4598 66.9075 65.6065 66.9475C64.7532 66.9741 63.9665 66.9875 63.2465 66.9875C62.6465 66.9875 62.0665 66.9741 61.5065 66.9475C60.9465 66.9075 60.4532 66.8541 60.0265 66.7875C59.2665 66.6541 58.6798 66.3941 58.2665 66.0075C57.8532 65.6075 57.6465 65.0008 57.6465 64.1875C57.6465 63.8675 57.6465 63.4075 57.6465 62.8075C57.6465 62.1941 57.6465 61.5008 57.6465 60.7275C57.6465 59.9541 57.6465 59.1675 57.6465 58.3675C57.6465 57.5541 57.6465 56.7875 57.6465 56.0675C57.6465 55.3475 57.6465 54.7341 57.6465 54.2275C57.6465 53.7075 57.6465 53.3608 57.6465 53.1875C57.6465 53.0008 57.6398 52.8141 57.6265 52.6275C57.6132 52.4275 57.5998 52.2341 57.5865 52.0475C57.5732 51.8608 57.5532 51.7008 57.5265 51.5675H59.3865ZM58.5465 57.8675C59.1465 57.7341 59.8132 57.5675 60.5465 57.3675C61.2932 57.1675 62.0598 56.9475 62.8465 56.7075C63.6332 56.4675 64.3932 56.2208 65.1265 55.9675C65.8732 55.7008 66.5332 55.4408 67.1065 55.1875C67.4132 55.0541 67.7065 54.9141 67.9865 54.7675C68.2798 54.6208 68.5732 54.4541 68.8665 54.2675L69.5665 55.8875C69.2865 55.9941 68.9732 56.1208 68.6265 56.2675C68.2932 56.4141 67.9732 56.5475 67.6665 56.6675C67.0532 56.9208 66.3465 57.1875 65.5465 57.4675C64.7598 57.7341 63.9465 58.0008 63.1065 58.2675C62.2665 58.5208 61.4532 58.7608 60.6665 58.9875C59.8798 59.2008 59.1732 59.3808 58.5465 59.5275V57.8675ZM77.5465 52.2875C77.9065 52.5275 78.3198 52.8275 78.7865 53.1875C79.2532 53.5341 79.7265 53.9075 80.2065 54.3075C80.6998 54.6941 81.1598 55.0741 81.5865 55.4475C82.0132 55.8208 82.3665 56.1475 82.6465 56.4275L81.3865 57.6875C81.1332 57.4341 80.8065 57.1208 80.4065 56.7475C80.0065 56.3741 79.5665 55.9875 79.0865 55.5875C78.6065 55.1741 78.1332 54.7875 77.6665 54.4275C77.1998 54.0541 76.7798 53.7475 76.4065 53.5075L77.5465 52.2875ZM75.8265 65.6875C76.9998 65.5141 78.0665 65.2741 79.0265 64.9675C79.9998 64.6608 80.8865 64.3141 81.6865 63.9275C82.4865 63.5408 83.1998 63.1541 83.8265 62.7675C84.8532 62.1275 85.7998 61.3941 86.6665 60.5675C87.5332 59.7275 88.2932 58.8608 88.9465 57.9675C89.5998 57.0741 90.1198 56.2208 90.5065 55.4075L91.4665 57.1075C91.0132 57.9341 90.4532 58.7741 89.7865 59.6275C89.1198 60.4808 88.3665 61.3008 87.5265 62.0875C86.6865 62.8741 85.7598 63.5875 84.7465 64.2275C84.0798 64.6408 83.3465 65.0475 82.5465 65.4475C81.7598 65.8475 80.8932 66.2141 79.9465 66.5475C79.0132 66.8675 77.9932 67.1275 76.8865 67.3275L75.8265 65.6875ZM99.7465 65.1875C99.7465 65.0008 99.7465 64.6275 99.7465 64.0675C99.7465 63.4941 99.7465 62.8208 99.7465 62.0475C99.7465 61.2608 99.7465 60.4408 99.7465 59.5875C99.7465 58.7208 99.7465 57.8808 99.7465 57.0675C99.7465 56.2541 99.7465 55.5341 99.7465 54.9075C99.7465 54.2808 99.7465 53.8275 99.7465 53.5475C99.7465 53.2675 99.7332 52.9275 99.7065 52.5275C99.6798 52.1275 99.6398 51.7741 99.5865 51.4675H101.547C101.52 51.7608 101.487 52.1075 101.447 52.5075C101.42 52.9075 101.407 53.2541 101.407 53.5475C101.407 54.0675 101.407 54.6941 101.407 55.4275C101.407 56.1475 101.407 56.9208 101.407 57.7475C101.407 58.5608 101.407 59.3741 101.407 60.1875C101.42 60.9875 101.427 61.7408 101.427 62.4475C101.427 63.1408 101.427 63.7341 101.427 64.2275C101.427 64.7075 101.427 65.0275 101.427 65.1875C101.427 65.4008 101.427 65.6475 101.427 65.9275C101.44 66.2075 101.46 66.4941 101.487 66.7875C101.513 67.0675 101.533 67.3208 101.547 67.5475H99.6065C99.6598 67.2275 99.6932 66.8475 99.7065 66.4075C99.7332 65.9675 99.7465 65.5608 99.7465 65.1875ZM101.067 56.7075C101.72 56.9075 102.44 57.1475 103.227 57.4275C104.027 57.6941 104.84 57.9808 105.667 58.2875C106.493 58.5941 107.273 58.9075 108.007 59.2275C108.753 59.5341 109.4 59.8275 109.947 60.1075L109.267 61.8075C108.693 61.4875 108.047 61.1741 107.327 60.8675C106.607 60.5475 105.867 60.2341 105.107 59.9275C104.36 59.6208 103.633 59.3475 102.927 59.1075C102.233 58.8541 101.613 58.6475 101.067 58.4875V56.7075ZM114.512 66.9475V65.6691L119.313 60.4134C119.877 59.7978 120.341 59.2628 120.705 58.8083C121.07 58.349 121.34 57.9181 121.515 57.5156C121.695 57.1084 121.785 56.6823 121.785 56.2372C121.785 55.7259 121.662 55.2832 121.416 54.9091C121.174 54.5351 120.843 54.2462 120.421 54.0426C120 53.839 119.526 53.7372 119.001 53.7372C118.442 53.7372 117.954 53.8532 117.538 54.0852C117.126 54.3125 116.806 54.6321 116.579 55.0441C116.356 55.456 116.245 55.9389 116.245 56.4929H114.569C114.569 55.6406 114.765 54.8925 115.158 54.2486C115.551 53.6047 116.087 53.1028 116.764 52.7429C117.445 52.3831 118.21 52.2031 119.058 52.2031C119.91 52.2031 120.665 52.3831 121.323 52.7429C121.981 53.1028 122.498 53.5881 122.872 54.1989C123.246 54.8097 123.433 55.4891 123.433 56.2372C123.433 56.7723 123.336 57.2955 123.141 57.8068C122.952 58.3135 122.621 58.8793 122.147 59.5043C121.678 60.1245 121.027 60.8821 120.194 61.777L116.927 65.2713V65.385H123.688V66.9475H114.512Z" fill="black"/>
<path d="M18.6503 77.099H24.9703V78.479H20.1303V90.039H18.6503V77.099ZM38.1903 78.179C38.1903 78.2457 38.1769 78.3657 38.1503 78.539C38.1369 78.7123 38.1236 78.8857 38.1103 79.059C38.1103 79.219 38.1036 79.3457 38.0903 79.439C38.0769 79.6923 38.0703 80.039 38.0703 80.479C38.0703 80.919 38.0703 81.399 38.0703 81.919C38.0703 82.439 38.0703 82.9657 38.0703 83.499C38.0836 84.0323 38.0903 84.5323 38.0903 84.999C38.1036 85.4657 38.1103 85.859 38.1103 86.179L36.5703 85.419C36.5703 85.2323 36.5703 84.9523 36.5703 84.579C36.5703 84.1923 36.5703 83.7523 36.5703 83.259C36.5703 82.7523 36.5636 82.2523 36.5503 81.759C36.5503 81.2657 36.5436 80.8123 36.5303 80.399C36.5169 79.9857 36.5036 79.6657 36.4903 79.439C36.4769 79.1723 36.4569 78.919 36.4303 78.679C36.4036 78.4257 36.3836 78.259 36.3703 78.179H38.1903ZM27.5703 80.959C28.1169 80.959 28.7369 80.9523 29.4303 80.939C30.1236 80.9123 30.8569 80.8857 31.6303 80.859C32.4169 80.8323 33.2103 80.8123 34.0103 80.799C34.8103 80.7857 35.5769 80.7723 36.3103 80.759C37.0569 80.7457 37.7436 80.739 38.3703 80.739C38.9703 80.739 39.5703 80.739 40.1703 80.739C40.7703 80.739 41.3303 80.739 41.8503 80.739C42.3836 80.739 42.8503 80.7457 43.2503 80.759C43.6636 80.759 43.9903 80.759 44.2303 80.759L44.2103 82.239C43.6503 82.2123 42.8969 82.1923 41.9503 82.179C41.0169 82.1523 39.8169 82.139 38.3503 82.139C37.4836 82.139 36.5769 82.1523 35.6303 82.179C34.6969 82.1923 33.7569 82.2123 32.8103 82.239C31.8636 82.2657 30.9436 82.3057 30.0503 82.359C29.1703 82.399 28.3569 82.4457 27.6103 82.499L27.5703 80.959ZM38.0703 86.779C38.0703 87.659 37.9369 88.399 37.6703 88.999C37.4169 89.599 37.0569 90.0457 36.5903 90.339C36.1369 90.6323 35.6036 90.779 34.9903 90.779C34.5769 90.779 34.1703 90.7123 33.7703 90.579C33.3836 90.4323 33.0303 90.219 32.7103 89.939C32.4036 89.6457 32.1569 89.2923 31.9703 88.879C31.7969 88.4523 31.7103 87.9723 31.7103 87.439C31.7103 86.7723 31.8703 86.179 32.1903 85.659C32.5103 85.139 32.9369 84.7257 33.4703 84.419C34.0169 84.1123 34.6036 83.959 35.2303 83.959C36.0169 83.959 36.6636 84.139 37.1703 84.499C37.6903 84.8457 38.0836 85.3257 38.3503 85.939C38.6169 86.539 38.7503 87.2257 38.7503 87.999C38.7503 88.6657 38.6503 89.3457 38.4503 90.039C38.2636 90.7323 37.9436 91.399 37.4903 92.039C37.0503 92.679 36.4436 93.2657 35.6703 93.799C34.9103 94.319 33.9436 94.7523 32.7703 95.099L31.4303 93.779C32.3369 93.5657 33.1503 93.2923 33.8703 92.959C34.5903 92.6257 35.1969 92.219 35.6903 91.739C36.1836 91.259 36.5569 90.699 36.8103 90.059C37.0769 89.419 37.2103 88.6857 37.2103 87.859C37.2103 86.9523 37.0169 86.299 36.6303 85.899C36.2436 85.499 35.7769 85.299 35.2303 85.299C34.8836 85.299 34.5569 85.3857 34.2503 85.559C33.9436 85.719 33.6903 85.959 33.4903 86.279C33.3036 86.599 33.2103 86.979 33.2103 87.419C33.2103 88.0457 33.4103 88.5323 33.8103 88.879C34.2236 89.2257 34.7036 89.399 35.2503 89.399C35.6636 89.399 36.0169 89.2857 36.3103 89.059C36.6036 88.819 36.8103 88.4657 36.9303 87.999C37.0636 87.519 37.0769 86.9257 36.9703 86.219L38.0703 86.779ZM50.1103 79.359C50.3636 79.3723 50.6236 79.3857 50.8903 79.399C51.1703 79.4123 51.4103 79.419 51.6103 79.419C51.8769 79.419 52.2169 79.4123 52.6303 79.399C53.0569 79.3857 53.4969 79.3657 53.9503 79.339C54.4036 79.3123 54.8303 79.2923 55.2303 79.279C55.6303 79.2523 55.9303 79.2323 56.1303 79.219C56.3303 79.1923 56.5103 79.1657 56.6703 79.139C56.8436 79.099 56.9969 79.0523 57.1303 78.999L58.1303 79.819C58.0369 79.9257 57.9436 80.0323 57.8503 80.139C57.7703 80.2457 57.6903 80.359 57.6103 80.479C57.3969 80.8257 57.1436 81.319 56.8503 81.959C56.5569 82.5857 56.2436 83.2723 55.9103 84.019C55.5903 84.7523 55.2703 85.459 54.9503 86.139C54.7503 86.5923 54.5303 87.0857 54.2903 87.619C54.0636 88.139 53.8303 88.6723 53.5903 89.219C53.3503 89.7523 53.1103 90.2523 52.8703 90.719C52.6436 91.1857 52.4236 91.5723 52.2103 91.879C51.8503 92.3857 51.4703 92.7457 51.0703 92.959C50.6703 93.159 50.2103 93.259 49.6903 93.259C48.9436 93.259 48.3236 93.0123 47.8303 92.519C47.3369 92.0257 47.0903 91.359 47.0903 90.519C47.0903 89.7723 47.2569 89.079 47.5903 88.439C47.9369 87.7857 48.4103 87.219 49.0103 86.739C49.6236 86.259 50.3503 85.8857 51.1903 85.619C52.0436 85.3523 52.9769 85.219 53.9903 85.219C55.1103 85.219 56.1903 85.3523 57.2303 85.619C58.2836 85.8723 59.2636 86.2057 60.1703 86.619C61.0903 87.019 61.9236 87.4457 62.6703 87.899C63.4303 88.339 64.0769 88.7523 64.6103 89.139L63.8703 90.859C63.2836 90.3523 62.6236 89.8523 61.8903 89.359C61.1569 88.8523 60.3569 88.3923 59.4903 87.979C58.6236 87.5657 57.7036 87.2323 56.7303 86.979C55.7703 86.7257 54.7769 86.599 53.7503 86.599C52.6569 86.599 51.7169 86.7857 50.9303 87.159C50.1569 87.519 49.5636 87.9857 49.1503 88.559C48.7503 89.119 48.5503 89.7057 48.5503 90.319C48.5503 90.759 48.6703 91.099 48.9103 91.339C49.1636 91.5657 49.4436 91.679 49.7503 91.679C49.9769 91.679 50.1836 91.6257 50.3703 91.519C50.5569 91.4123 50.7503 91.2323 50.9503 90.979C51.1636 90.699 51.3769 90.359 51.5903 89.959C51.8036 89.559 52.0169 89.1257 52.2303 88.659C52.4436 88.1923 52.6503 87.719 52.8503 87.239C53.0503 86.759 53.2503 86.3123 53.4503 85.899C53.7169 85.3123 53.9836 84.7057 54.2503 84.079C54.5303 83.4523 54.8036 82.8457 55.0703 82.259C55.3503 81.6723 55.6036 81.139 55.8303 80.659C55.6303 80.6723 55.3436 80.6857 54.9703 80.699C54.6103 80.7123 54.2169 80.7323 53.7903 80.759C53.3636 80.7723 52.9569 80.7923 52.5703 80.819C52.1969 80.8323 51.8969 80.8457 51.6703 80.859C51.4569 80.8723 51.2169 80.8923 50.9503 80.919C50.6836 80.9323 50.4303 80.9523 50.1903 80.979L50.1103 79.359ZM62.6103 83.739C62.5436 85.1523 62.4036 86.439 62.1903 87.599C61.9769 88.759 61.6503 89.8057 61.2103 90.739C60.7703 91.6723 60.1703 92.5123 59.4103 93.259C58.6503 93.9923 57.6903 94.6457 56.5303 95.219L55.2103 94.119C56.3836 93.6257 57.3369 93.039 58.0703 92.359C58.8036 91.6657 59.3703 90.9257 59.7703 90.139C60.1836 89.339 60.4703 88.5323 60.6303 87.719C60.8036 86.9057 60.9236 86.1323 60.9903 85.399C61.0036 85.0923 61.0103 84.779 61.0103 84.459C61.0236 84.139 61.0169 83.839 60.9903 83.559L62.6103 83.739ZM72.6503 95.739H66.3303V94.359H71.1703V82.799H72.6503V95.739ZM91.1103 95.139C90.6836 94.6057 90.2169 94.0723 89.7103 93.539C89.2036 93.0057 88.6903 92.4923 88.1703 91.999C87.6636 91.5057 87.1703 91.0657 86.6903 90.679L87.9903 89.539C88.4703 89.9257 88.9769 90.3723 89.5103 90.879C90.0436 91.3857 90.5636 91.9057 91.0703 92.439C91.5903 92.9723 92.0569 93.4857 92.4703 93.979L91.1103 95.139ZM118.65 77.099H124.97V78.479H120.13V90.039H118.65V77.099ZM140.05 87.359C140.05 86.799 139.904 86.3057 139.61 85.879C139.33 85.439 138.93 85.099 138.41 84.859C137.904 84.6057 137.31 84.479 136.63 84.479C135.857 84.479 135.13 84.539 134.45 84.659C133.77 84.779 133.15 84.919 132.59 85.079C132.044 85.239 131.57 85.3723 131.17 85.479C130.864 85.5723 130.564 85.6723 130.27 85.779C129.99 85.8857 129.73 85.9923 129.49 86.099L128.97 84.239C129.25 84.2123 129.55 84.1723 129.87 84.119C130.204 84.0657 130.517 84.0057 130.81 83.939C131.29 83.8323 131.844 83.7057 132.47 83.559C133.11 83.4123 133.797 83.279 134.53 83.159C135.277 83.039 136.03 82.979 136.79 82.979C137.737 82.979 138.584 83.1523 139.33 83.499C140.077 83.8457 140.664 84.3523 141.09 85.019C141.53 85.6723 141.75 86.4723 141.75 87.419C141.75 88.5123 141.524 89.4857 141.07 90.339C140.617 91.179 139.977 91.9123 139.15 92.539C138.337 93.1523 137.377 93.6657 136.27 94.079C135.164 94.4923 133.964 94.7923 132.67 94.979L131.77 93.459C132.97 93.3123 134.077 93.079 135.09 92.759C136.104 92.4257 136.977 92.0123 137.71 91.519C138.457 91.0257 139.03 90.4323 139.43 89.739C139.844 89.0457 140.05 88.2523 140.05 87.359ZM131.65 78.359C132.197 78.479 132.85 78.5923 133.61 78.699C134.384 78.8057 135.177 78.9057 135.99 78.999C136.817 79.079 137.59 79.1457 138.31 79.199C139.044 79.2523 139.657 79.279 140.15 79.279L139.91 80.819C139.35 80.779 138.697 80.7323 137.95 80.679C137.217 80.6123 136.45 80.539 135.65 80.459C134.864 80.3657 134.097 80.2723 133.35 80.179C132.617 80.0723 131.964 79.9723 131.39 79.879L131.65 78.359ZM150.11 79.359C150.364 79.3723 150.624 79.3857 150.89 79.399C151.17 79.4123 151.41 79.419 151.61 79.419C151.877 79.419 152.217 79.4123 152.63 79.399C153.057 79.3857 153.497 79.3657 153.95 79.339C154.404 79.3123 154.83 79.2923 155.23 79.279C155.63 79.2523 155.93 79.2323 156.13 79.219C156.33 79.1923 156.51 79.1657 156.67 79.139C156.844 79.099 156.997 79.0523 157.13 78.999L158.13 79.819C158.037 79.9257 157.944 80.0323 157.85 80.139C157.77 80.2457 157.69 80.359 157.61 80.479C157.397 80.8257 157.144 81.319 156.85 81.959C156.557 82.5857 156.244 83.2723 155.91 84.019C155.59 84.7523 155.27 85.459 154.95 86.139C154.75 86.5923 154.53 87.0857 154.29 87.619C154.064 88.139 153.83 88.6723 153.59 89.219C153.35 89.7523 153.11 90.2523 152.87 90.719C152.644 91.1857 152.424 91.5723 152.21 91.879C151.85 92.3857 151.47 92.7457 151.07 92.959C150.67 93.159 150.21 93.259 149.69 93.259C148.944 93.259 148.324 93.0123 147.83 92.519C147.337 92.0257 147.09 91.359 147.09 90.519C147.09 89.7723 147.257 89.079 147.59 88.439C147.937 87.7857 148.41 87.219 149.01 86.739C149.624 86.259 150.35 85.8857 151.19 85.619C152.044 85.3523 152.977 85.219 153.99 85.219C155.11 85.219 156.19 85.3523 157.23 85.619C158.284 85.8723 159.264 86.2057 160.17 86.619C161.09 87.019 161.924 87.4457 162.67 87.899C163.43 88.339 164.077 88.7523 164.61 89.139L163.87 90.859C163.284 90.3523 162.624 89.8523 161.89 89.359C161.157 88.8523 160.357 88.3923 159.49 87.979C158.624 87.5657 157.704 87.2323 156.73 86.979C155.77 86.7257 154.777 86.599 153.75 86.599C152.657 86.599 151.717 86.7857 150.93 87.159C150.157 87.519 149.564 87.9857 149.15 88.559C148.75 89.119 148.55 89.7057 148.55 90.319C148.55 90.759 148.67 91.099 148.91 91.339C149.164 91.5657 149.444 91.679 149.75 91.679C149.977 91.679 150.184 91.6257 150.37 91.519C150.557 91.4123 150.75 91.2323 150.95 90.979C151.164 90.699 151.377 90.359 151.59 89.959C151.804 89.559 152.017 89.1257 152.23 88.659C152.444 88.1923 152.65 87.719 152.85 87.239C153.05 86.759 153.25 86.3123 153.45 85.899C153.717 85.3123 153.984 84.7057 154.25 84.079C154.53 83.4523 154.804 82.8457 155.07 82.259C155.35 81.6723 155.604 81.139 155.83 80.659C155.63 80.6723 155.344 80.6857 154.97 80.699C154.61 80.7123 154.217 80.7323 153.79 80.759C153.364 80.7723 152.957 80.7923 152.57 80.819C152.197 80.8323 151.897 80.8457 151.67 80.859C151.457 80.8723 151.217 80.8923 150.95 80.919C150.684 80.9323 150.43 80.9523 150.19 80.979L150.11 79.359ZM162.61 83.739C162.544 85.1523 162.404 86.439 162.19 87.599C161.977 88.759 161.65 89.8057 161.21 90.739C160.77 91.6723 160.17 92.5123 159.41 93.259C158.65 93.9923 157.69 94.6457 156.53 95.219L155.21 94.119C156.384 93.6257 157.337 93.039 158.07 92.359C158.804 91.6657 159.37 90.9257 159.77 90.139C160.184 89.339 160.47 88.5323 160.63 87.719C160.804 86.9057 160.924 86.1323 160.99 85.399C161.004 85.0923 161.01 84.779 161.01 84.459C161.024 84.139 161.017 83.839 160.99 83.559L162.61 83.739ZM172.65 95.739H166.33V94.359H171.17V82.799H172.65V95.739ZM194.13 78.479C194.104 78.6657 194.07 78.8657 194.03 79.079C193.99 79.279 193.95 79.479 193.91 79.679C193.857 79.9057 193.797 80.2257 193.73 80.639C193.664 81.0523 193.584 81.4923 193.49 81.959C193.41 82.4123 193.324 82.8523 193.23 83.279C193.084 83.839 192.91 84.479 192.71 85.199C192.524 85.9057 192.297 86.6657 192.03 87.479C191.777 88.279 191.49 89.099 191.17 89.939C190.85 90.7657 190.497 91.5857 190.11 92.399C189.724 93.2123 189.304 93.9857 188.85 94.719L187.23 94.059C187.684 93.459 188.11 92.779 188.51 92.019C188.91 91.259 189.277 90.4723 189.61 89.659C189.944 88.8323 190.244 88.019 190.51 87.219C190.777 86.419 191.004 85.679 191.19 84.999C191.39 84.3057 191.544 83.7123 191.65 83.219C191.837 82.4323 191.99 81.6057 192.11 80.739C192.23 79.8723 192.29 79.059 192.29 78.299L194.13 78.479ZM201.01 80.799C201.33 81.199 201.664 81.7057 202.01 82.319C202.37 82.9323 202.717 83.579 203.05 84.259C203.397 84.939 203.71 85.599 203.99 86.239C204.284 86.879 204.51 87.4323 204.67 87.899L203.13 88.639C202.984 88.119 202.777 87.5323 202.51 86.879C202.257 86.2257 201.964 85.5657 201.63 84.899C201.31 84.219 200.97 83.579 200.61 82.979C200.264 82.3657 199.91 81.859 199.55 81.459L201.01 80.799ZM186.93 82.879C187.25 82.8923 187.55 82.899 187.83 82.899C188.11 82.899 188.41 82.8923 188.73 82.879C189.024 82.8657 189.404 82.8457 189.87 82.819C190.35 82.779 190.864 82.739 191.41 82.699C191.957 82.6457 192.504 82.599 193.05 82.559C193.597 82.5057 194.097 82.4657 194.55 82.439C195.004 82.399 195.364 82.379 195.63 82.379C196.23 82.379 196.77 82.479 197.25 82.679C197.744 82.8657 198.137 83.2057 198.43 83.699C198.737 84.179 198.89 84.8723 198.89 85.779C198.89 86.5657 198.85 87.419 198.77 88.339C198.69 89.2457 198.564 90.1123 198.39 90.939C198.23 91.7523 198.01 92.439 197.73 92.999C197.424 93.6657 197.024 94.1057 196.53 94.319C196.037 94.5457 195.464 94.659 194.81 94.659C194.424 94.659 194.01 94.6257 193.57 94.559C193.144 94.5057 192.77 94.4457 192.45 94.379L192.19 92.699C192.47 92.7923 192.764 92.8723 193.07 92.939C193.377 92.9923 193.67 93.039 193.95 93.079C194.23 93.1057 194.457 93.119 194.63 93.119C195.004 93.119 195.337 93.059 195.63 92.939C195.924 92.8057 196.177 92.519 196.39 92.079C196.604 91.6257 196.777 91.059 196.91 90.379C197.057 89.699 197.164 88.9723 197.23 88.199C197.297 87.4257 197.33 86.679 197.33 85.959C197.33 85.3457 197.244 84.8857 197.07 84.579C196.897 84.2723 196.65 84.0657 196.33 83.959C196.01 83.8523 195.637 83.799 195.21 83.799C194.877 83.799 194.424 83.8257 193.85 83.879C193.277 83.919 192.664 83.9723 192.01 84.039C191.357 84.0923 190.75 84.1523 190.19 84.219C189.644 84.2857 189.217 84.3323 188.91 84.359C188.67 84.3857 188.37 84.4257 188.01 84.479C187.664 84.519 187.364 84.559 187.11 84.599L186.93 82.879ZM201.25 77.899C201.424 78.1257 201.604 78.4057 201.79 78.739C201.99 79.059 202.19 79.3923 202.39 79.739C202.59 80.0723 202.757 80.3723 202.89 80.639L201.79 81.119C201.67 80.8523 201.517 80.5523 201.33 80.219C201.144 79.8857 200.95 79.5523 200.75 79.219C200.55 78.8857 200.357 78.5923 200.17 78.339L201.25 77.899ZM203.45 77.079C203.624 77.3323 203.817 77.6257 204.03 77.959C204.244 78.2923 204.45 78.6257 204.65 78.959C204.85 79.279 205.01 79.5657 205.13 79.819L204.05 80.299C203.837 79.859 203.577 79.3857 203.27 78.879C202.964 78.359 202.67 77.9123 202.39 77.539L203.45 77.079ZM18.6503 101.099H24.9703V102.479H20.1303V114.039H18.6503V101.099ZM39.7303 103.259C39.5169 103.419 39.2769 103.619 39.0103 103.859C38.7436 104.086 38.5236 104.266 38.3503 104.399C38.0036 104.706 37.5836 105.066 37.0903 105.479C36.5969 105.879 36.0769 106.306 35.5303 106.759C34.9836 107.199 34.4569 107.626 33.9503 108.039C33.4436 108.439 33.0036 108.799 32.6303 109.119C32.2303 109.466 31.9636 109.752 31.8303 109.979C31.6969 110.192 31.6969 110.412 31.8303 110.639C31.9769 110.866 32.2636 111.166 32.6903 111.539C33.0636 111.832 33.4903 112.179 33.9703 112.579C34.4503 112.966 34.9569 113.386 35.4903 113.839C36.0369 114.292 36.5903 114.759 37.1503 115.239C37.7103 115.719 38.2503 116.192 38.7703 116.659C39.2903 117.126 39.7569 117.572 40.1703 117.999L38.7503 119.319C38.3369 118.839 37.8769 118.352 37.3703 117.859C37.0236 117.499 36.5903 117.079 36.0703 116.599C35.5503 116.119 34.9903 115.619 34.3903 115.099C33.8036 114.579 33.2169 114.079 32.6303 113.599C32.0569 113.106 31.5369 112.666 31.0703 112.279C30.4303 111.746 30.0236 111.279 29.8503 110.879C29.6769 110.466 29.7103 110.059 29.9503 109.659C30.1903 109.259 30.6103 108.812 31.2103 108.319C31.5836 107.999 32.0303 107.626 32.5503 107.199C33.0836 106.772 33.6369 106.326 34.2103 105.859C34.7836 105.379 35.3236 104.919 35.8303 104.479C36.3503 104.026 36.7769 103.626 37.1103 103.279C37.3103 103.079 37.5169 102.852 37.7303 102.599C37.9569 102.346 38.1303 102.126 38.2503 101.939L39.7303 103.259ZM50.911 103.359C51.1644 103.372 51.4244 103.386 51.6911 103.399C51.9711 103.412 52.2111 103.419 52.411 103.419C52.6777 103.419 53.0177 103.412 53.431 103.399C53.8577 103.386 54.2977 103.366 54.7511 103.339C55.2044 103.312 55.6311 103.292 56.0311 103.279C56.4311 103.252 56.7311 103.232 56.9311 103.219C57.1311 103.192 57.3111 103.166 57.471 103.139C57.6444 103.099 57.7977 103.052 57.931 102.999L58.9311 103.819C58.8377 103.926 58.7444 104.032 58.6511 104.139C58.5711 104.246 58.4911 104.359 58.4111 104.479C58.1977 104.826 57.9444 105.319 57.651 105.959C57.3577 106.586 57.0444 107.272 56.7111 108.019C56.3911 108.752 56.0711 109.459 55.7511 110.139C55.5511 110.592 55.3311 111.086 55.0911 111.619C54.8644 112.139 54.6311 112.672 54.3911 113.219C54.1511 113.752 53.9111 114.252 53.6711 114.719C53.4444 115.186 53.2244 115.572 53.011 115.879C52.6511 116.386 52.2711 116.746 51.8711 116.959C51.4711 117.159 51.0111 117.259 50.491 117.259C49.7444 117.259 49.1244 117.012 48.631 116.519C48.1377 116.026 47.891 115.359 47.891 114.519C47.891 113.772 48.0577 113.079 48.391 112.439C48.7377 111.786 49.211 111.219 49.8111 110.739C50.4244 110.259 51.1511 109.886 51.9911 109.619C52.8444 109.352 53.7777 109.219 54.7911 109.219C55.9111 109.219 56.9911 109.352 58.0311 109.619C59.0844 109.872 60.0644 110.206 60.9711 110.619C61.8911 111.019 62.7244 111.446 63.4711 111.899C64.2311 112.339 64.8777 112.752 65.4111 113.139L64.6711 114.859C64.0844 114.352 63.4244 113.852 62.6911 113.359C61.9577 112.852 61.1577 112.392 60.2911 111.979C59.4244 111.566 58.5044 111.232 57.5311 110.979C56.5711 110.726 55.5777 110.599 54.5511 110.599C53.4577 110.599 52.5177 110.786 51.731 111.159C50.9577 111.519 50.3644 111.986 49.9511 112.559C49.5511 113.119 49.3511 113.706 49.3511 114.319C49.3511 114.759 49.471 115.099 49.711 115.339C49.9644 115.566 50.2444 115.679 50.5511 115.679C50.7777 115.679 50.9844 115.626 51.1711 115.519C51.3577 115.412 51.551 115.232 51.7511 114.979C51.9644 114.699 52.1777 114.359 52.3911 113.959C52.6044 113.559 52.8177 113.126 53.0311 112.659C53.2444 112.192 53.4511 111.719 53.6511 111.239C53.8511 110.759 54.0511 110.312 54.2511 109.899C54.5177 109.312 54.7844 108.706 55.051 108.079C55.3311 107.452 55.6044 106.846 55.8711 106.259C56.1511 105.672 56.4044 105.139 56.631 104.659C56.4311 104.672 56.1444 104.686 55.7711 104.699C55.4111 104.712 55.0177 104.732 54.591 104.759C54.1644 104.772 53.7577 104.792 53.3711 104.819C52.9977 104.832 52.6977 104.846 52.4711 104.859C52.2577 104.872 52.0177 104.892 51.7511 104.919C51.4844 104.932 51.231 104.952 50.9911 104.979L50.911 103.359ZM63.4111 107.739C63.3444 109.152 63.2044 110.439 62.9911 111.599C62.7777 112.759 62.4511 113.806 62.0111 114.739C61.5711 115.672 60.9711 116.512 60.2111 117.259C59.4511 117.992 58.4911 118.646 57.3311 119.219L56.0111 118.119C57.1844 117.626 58.1377 117.039 58.8711 116.359C59.6044 115.666 60.1711 114.926 60.5711 114.139C60.9844 113.339 61.2711 112.532 61.4311 111.719C61.6044 110.906 61.7244 110.132 61.7911 109.399C61.8044 109.092 61.811 108.779 61.811 108.459C61.8244 108.139 61.8177 107.839 61.7911 107.559L63.4111 107.739ZM73.4511 119.739H67.131V118.359H71.9711V106.799H73.4511V119.739ZM95.5711 104.519C96.1177 104.599 96.751 104.666 97.471 104.719C98.2044 104.759 98.9577 104.779 99.7311 104.779C100.518 104.766 101.264 104.739 101.971 104.699C102.691 104.646 103.298 104.579 103.791 104.499V106.119C103.258 106.172 102.631 106.219 101.911 106.259C101.204 106.286 100.464 106.299 99.6911 106.299C98.9311 106.299 98.1911 106.286 97.471 106.259C96.751 106.219 96.1177 106.172 95.5711 106.119V104.519ZM96.3511 112.659C96.2577 113.019 96.1844 113.346 96.1311 113.639C96.0777 113.932 96.0511 114.219 96.0511 114.499C96.0511 114.726 96.0977 114.952 96.1911 115.179C96.2977 115.392 96.4711 115.586 96.7111 115.759C96.9644 115.919 97.311 116.052 97.751 116.159C98.1911 116.252 98.7511 116.299 99.4311 116.299C100.338 116.299 101.191 116.259 101.991 116.179C102.791 116.086 103.591 115.952 104.391 115.779L104.431 117.459C103.804 117.592 103.071 117.699 102.231 117.779C101.404 117.846 100.471 117.879 99.4311 117.879C97.7511 117.879 96.5177 117.612 95.7311 117.079C94.9577 116.546 94.5711 115.812 94.5711 114.879C94.5711 114.546 94.5977 114.192 94.6511 113.819C94.7177 113.432 94.8044 112.999 94.911 112.519L96.3511 112.659ZM91.7511 102.979C91.7244 103.086 91.6844 103.226 91.631 103.399C91.591 103.559 91.5444 103.726 91.491 103.899C91.4511 104.059 91.4177 104.199 91.391 104.319C91.3244 104.692 91.2444 105.126 91.1511 105.619C91.0577 106.099 90.9644 106.619 90.8711 107.179C90.791 107.726 90.711 108.286 90.631 108.859C90.5644 109.419 90.5044 109.966 90.451 110.499C90.411 111.032 90.3911 111.526 90.3911 111.979C90.3911 112.472 90.4044 112.939 90.4311 113.379C90.4711 113.819 90.5177 114.286 90.5711 114.779C90.691 114.472 90.8177 114.146 90.951 113.799C91.0844 113.452 91.2177 113.112 91.351 112.779C91.4977 112.432 91.6244 112.126 91.731 111.859L92.5711 112.499C92.3977 112.979 92.2111 113.506 92.0111 114.079C91.8111 114.652 91.6311 115.206 91.4711 115.739C91.3244 116.259 91.2177 116.672 91.1511 116.979C91.1244 117.126 91.0977 117.286 91.071 117.459C91.0444 117.632 91.0377 117.772 91.051 117.879C91.0644 117.986 91.071 118.099 91.071 118.219C91.0844 118.352 91.0977 118.472 91.1111 118.579L89.6711 118.679C89.4711 117.972 89.2977 117.066 89.151 115.959C89.0044 114.839 88.931 113.606 88.931 112.259C88.931 111.526 88.9644 110.779 89.031 110.019C89.0977 109.246 89.1844 108.499 89.291 107.779C89.3977 107.046 89.4977 106.379 89.591 105.779C89.6977 105.166 89.7777 104.652 89.8311 104.239C89.871 103.999 89.9044 103.759 89.9311 103.519C89.9577 103.266 89.9711 103.032 89.9711 102.819L91.7511 102.979ZM108.391 105.399C108.764 105.452 109.158 105.492 109.571 105.519C109.984 105.532 110.404 105.539 110.831 105.539C111.564 105.539 112.318 105.506 113.091 105.439C113.878 105.372 114.671 105.266 115.471 105.119C116.271 104.959 117.058 104.752 117.831 104.499L117.871 105.999C117.218 106.172 116.498 106.332 115.711 106.479C114.938 106.626 114.131 106.746 113.291 106.839C112.464 106.919 111.644 106.959 110.831 106.959C110.471 106.959 110.084 106.959 109.671 106.959C109.271 106.946 108.878 106.926 108.491 106.899L108.391 105.399ZM115.471 102.139C115.391 102.459 115.291 102.866 115.171 103.359C115.051 103.852 114.918 104.372 114.771 104.919C114.638 105.452 114.491 105.959 114.331 106.439C114.011 107.399 113.604 108.412 113.111 109.479C112.618 110.532 112.091 111.559 111.531 112.559C110.971 113.559 110.418 114.432 109.871 115.179L108.331 114.379C108.771 113.859 109.211 113.266 109.651 112.599C110.104 111.932 110.524 111.232 110.911 110.499C111.311 109.766 111.671 109.046 111.991 108.339C112.311 107.632 112.578 106.986 112.791 106.399C113.004 105.759 113.204 105.039 113.391 104.239C113.578 103.426 113.684 102.672 113.711 101.979L115.471 102.139ZM120.191 108.319C120.178 108.732 120.164 109.106 120.151 109.439C120.151 109.759 120.158 110.106 120.171 110.479C120.184 110.799 120.198 111.212 120.211 111.719C120.238 112.212 120.264 112.739 120.291 113.299C120.318 113.846 120.338 114.372 120.351 114.879C120.378 115.386 120.391 115.806 120.391 116.139C120.391 116.672 120.271 117.159 120.031 117.599C119.791 118.039 119.411 118.386 118.891 118.639C118.384 118.906 117.718 119.039 116.891 119.039C116.158 119.039 115.491 118.932 114.891 118.719C114.291 118.519 113.804 118.206 113.431 117.779C113.071 117.352 112.891 116.812 112.891 116.159C112.891 115.532 113.064 114.999 113.411 114.559C113.771 114.106 114.251 113.759 114.851 113.519C115.464 113.279 116.144 113.159 116.891 113.159C118.011 113.159 119.038 113.319 119.971 113.639C120.918 113.946 121.764 114.339 122.511 114.819C123.271 115.299 123.924 115.772 124.471 116.239L123.611 117.599C123.224 117.252 122.791 116.892 122.311 116.519C121.844 116.146 121.324 115.806 120.751 115.499C120.178 115.179 119.564 114.919 118.911 114.719C118.258 114.519 117.564 114.419 116.831 114.419C116.098 114.419 115.504 114.572 115.051 114.879C114.598 115.186 114.371 115.566 114.371 116.019C114.371 116.486 114.564 116.866 114.951 117.159C115.338 117.452 115.918 117.599 116.691 117.599C117.251 117.599 117.691 117.512 118.011 117.339C118.331 117.152 118.558 116.912 118.691 116.619C118.838 116.312 118.911 115.979 118.911 115.619C118.911 115.246 118.898 114.759 118.871 114.159C118.858 113.559 118.831 112.919 118.791 112.239C118.764 111.546 118.731 110.859 118.691 110.179C118.664 109.486 118.644 108.866 118.631 108.319H120.191ZM124.191 108.859C123.831 108.539 123.378 108.206 122.831 107.859C122.284 107.512 121.718 107.186 121.131 106.879C120.558 106.559 120.051 106.299 119.611 106.099L120.431 104.879C120.791 105.039 121.191 105.232 121.631 105.459C122.071 105.686 122.511 105.926 122.951 106.179C123.391 106.432 123.798 106.679 124.171 106.919C124.558 107.146 124.864 107.352 125.091 107.539L124.191 108.859ZM129.651 110.039C129.958 109.972 130.264 109.899 130.571 109.819C130.891 109.726 131.211 109.632 131.531 109.539C131.878 109.432 132.331 109.286 132.891 109.099C133.451 108.912 134.058 108.732 134.711 108.559C135.364 108.386 136.024 108.232 136.691 108.099C137.371 107.966 138.004 107.899 138.591 107.899C139.538 107.899 140.378 108.079 141.111 108.439C141.844 108.799 142.418 109.312 142.831 109.979C143.258 110.632 143.471 111.419 143.471 112.339C143.471 113.299 143.251 114.146 142.811 114.879C142.371 115.599 141.744 116.212 140.931 116.719C140.131 117.226 139.171 117.626 138.051 117.919C136.944 118.212 135.718 118.399 134.371 118.479L133.731 116.939C134.811 116.899 135.838 116.792 136.811 116.619C137.784 116.432 138.651 116.159 139.411 115.799C140.171 115.439 140.764 114.972 141.191 114.399C141.631 113.812 141.851 113.112 141.851 112.299C141.851 111.726 141.711 111.219 141.431 110.779C141.151 110.339 140.758 109.992 140.251 109.739C139.758 109.472 139.164 109.339 138.471 109.339C137.978 109.339 137.424 109.406 136.811 109.539C136.198 109.659 135.564 109.819 134.911 110.019C134.258 110.219 133.631 110.432 133.031 110.659C132.431 110.872 131.898 111.072 131.431 111.259C130.964 111.432 130.598 111.572 130.331 111.679L129.651 110.039ZM147.155 104.739C147.542 104.726 147.888 104.712 148.195 104.699C148.502 104.672 148.748 104.652 148.935 104.639C149.255 104.599 149.715 104.552 150.315 104.499C150.928 104.432 151.628 104.366 152.415 104.299C153.202 104.219 154.048 104.139 154.955 104.059C155.862 103.979 156.775 103.899 157.695 103.819C158.428 103.752 159.122 103.699 159.775 103.659C160.428 103.606 161.035 103.566 161.595 103.539C162.155 103.499 162.655 103.472 163.095 103.459V105.059C162.722 105.046 162.295 105.046 161.815 105.059C161.335 105.072 160.862 105.106 160.395 105.159C159.928 105.199 159.522 105.272 159.175 105.379C158.468 105.606 157.828 105.952 157.255 106.419C156.695 106.872 156.215 107.399 155.815 107.999C155.415 108.586 155.108 109.206 154.895 109.859C154.695 110.499 154.595 111.112 154.595 111.699C154.595 112.486 154.728 113.172 154.995 113.759C155.262 114.332 155.622 114.819 156.075 115.219C156.542 115.619 157.068 115.946 157.655 116.199C158.255 116.452 158.882 116.639 159.535 116.759C160.188 116.879 160.842 116.952 161.495 116.979L160.915 118.639C160.182 118.612 159.435 118.506 158.675 118.319C157.928 118.146 157.215 117.892 156.535 117.559C155.855 117.212 155.248 116.779 154.715 116.259C154.182 115.739 153.762 115.132 153.455 114.439C153.148 113.746 152.995 112.952 152.995 112.059C152.995 111.019 153.175 110.059 153.535 109.179C153.908 108.286 154.382 107.506 154.955 106.839C155.528 106.172 156.122 105.659 156.735 105.299C156.308 105.352 155.782 105.412 155.155 105.479C154.528 105.546 153.848 105.619 153.115 105.699C152.395 105.766 151.675 105.846 150.955 105.939C150.235 106.032 149.555 106.126 148.915 106.219C148.288 106.299 147.762 106.386 147.335 106.479L147.155 104.739ZM169.915 104.059C169.888 104.219 169.862 104.419 169.835 104.659C169.822 104.899 169.802 105.139 169.775 105.379C169.762 105.619 169.755 105.826 169.755 105.999C169.742 106.412 169.735 106.886 169.735 107.419C169.748 107.939 169.762 108.486 169.775 109.059C169.802 109.619 169.842 110.179 169.895 110.739C170.002 111.846 170.182 112.819 170.435 113.659C170.688 114.486 170.995 115.132 171.355 115.599C171.728 116.066 172.148 116.299 172.615 116.299C172.868 116.299 173.115 116.186 173.355 115.959C173.595 115.719 173.822 115.406 174.035 115.019C174.262 114.619 174.462 114.179 174.635 113.699C174.822 113.206 174.975 112.712 175.095 112.219L176.355 113.639C175.955 114.772 175.548 115.672 175.135 116.339C174.735 116.992 174.322 117.466 173.895 117.759C173.482 118.052 173.048 118.199 172.595 118.199C171.968 118.199 171.362 117.972 170.775 117.519C170.188 117.052 169.682 116.306 169.255 115.279C168.828 114.239 168.522 112.859 168.335 111.139C168.268 110.552 168.215 109.919 168.175 109.239C168.148 108.559 168.128 107.912 168.115 107.299C168.115 106.686 168.115 106.186 168.115 105.799C168.115 105.572 168.108 105.279 168.095 104.919C168.082 104.559 168.042 104.259 167.975 104.019L169.915 104.059ZM180.335 104.619C180.695 105.072 181.035 105.606 181.355 106.219C181.688 106.819 181.988 107.466 182.255 108.159C182.535 108.839 182.782 109.546 182.995 110.279C183.222 111.012 183.402 111.746 183.535 112.479C183.682 113.199 183.788 113.892 183.855 114.559L182.255 115.219C182.175 114.312 182.035 113.392 181.835 112.459C181.635 111.512 181.388 110.599 181.095 109.719C180.802 108.826 180.462 107.986 180.075 107.199C179.688 106.412 179.255 105.732 178.775 105.159L180.335 104.619ZM190.215 103.279C190.442 103.306 190.682 103.326 190.935 103.339C191.202 103.352 191.435 103.359 191.635 103.359C191.835 103.359 192.162 103.352 192.615 103.339C193.082 103.326 193.602 103.312 194.175 103.299C194.762 103.272 195.342 103.252 195.915 103.239C196.502 103.212 197.022 103.186 197.475 103.159C197.942 103.132 198.282 103.112 198.495 103.099C198.788 103.072 199.015 103.046 199.175 103.019C199.335 102.992 199.468 102.966 199.575 102.939L200.495 104.099C200.322 104.219 200.135 104.346 199.935 104.479C199.748 104.612 199.562 104.759 199.375 104.919C199.122 105.106 198.782 105.379 198.355 105.739C197.928 106.086 197.455 106.479 196.935 106.919C196.428 107.346 195.928 107.766 195.435 108.179C194.942 108.592 194.495 108.966 194.095 109.299C194.562 109.139 195.028 109.032 195.495 108.979C195.975 108.912 196.435 108.879 196.875 108.879C197.982 108.879 198.962 109.086 199.815 109.499C200.682 109.899 201.355 110.452 201.835 111.159C202.328 111.866 202.575 112.672 202.575 113.579C202.575 114.646 202.295 115.579 201.735 116.379C201.175 117.179 200.382 117.792 199.355 118.219C198.328 118.659 197.108 118.879 195.695 118.879C194.788 118.879 194.008 118.759 193.355 118.519C192.702 118.279 192.195 117.946 191.835 117.519C191.488 117.092 191.315 116.599 191.315 116.039C191.315 115.586 191.442 115.159 191.695 114.759C191.948 114.359 192.308 114.039 192.775 113.799C193.242 113.559 193.782 113.439 194.395 113.439C195.288 113.439 196.028 113.626 196.615 113.999C197.202 114.359 197.655 114.839 197.975 115.439C198.295 116.026 198.475 116.659 198.515 117.339L197.075 117.579C197.022 116.726 196.755 116.026 196.275 115.479C195.808 114.919 195.175 114.639 194.375 114.639C193.922 114.639 193.542 114.766 193.235 115.019C192.928 115.272 192.775 115.572 192.775 115.919C192.775 116.399 193.022 116.779 193.515 117.059C194.008 117.339 194.648 117.479 195.435 117.479C196.568 117.479 197.548 117.326 198.375 117.019C199.215 116.712 199.855 116.266 200.295 115.679C200.748 115.092 200.975 114.386 200.975 113.559C200.975 112.906 200.782 112.319 200.395 111.799C200.008 111.279 199.475 110.872 198.795 110.579C198.128 110.272 197.362 110.119 196.495 110.119C195.655 110.119 194.902 110.212 194.235 110.399C193.568 110.572 192.942 110.826 192.355 111.159C191.782 111.492 191.208 111.912 190.635 112.419C190.075 112.912 189.475 113.479 188.835 114.119L187.695 112.939C188.108 112.606 188.562 112.232 189.055 111.819C189.562 111.392 190.068 110.972 190.575 110.559C191.082 110.132 191.548 109.739 191.975 109.379C192.415 109.006 192.782 108.699 193.075 108.459C193.355 108.232 193.702 107.946 194.115 107.599C194.542 107.239 194.982 106.866 195.435 106.479C195.888 106.092 196.315 105.726 196.715 105.379C197.128 105.032 197.462 104.752 197.715 104.539C197.502 104.539 197.188 104.552 196.775 104.579C196.362 104.592 195.902 104.612 195.395 104.639C194.888 104.652 194.382 104.672 193.875 104.699C193.382 104.726 192.928 104.752 192.515 104.779C192.115 104.792 191.808 104.806 191.595 104.819C191.382 104.832 191.162 104.846 190.935 104.859C190.708 104.872 190.488 104.899 190.275 104.939L190.215 103.279Z" fill="black"/>
</svg>
