<svg width="105" height="36" viewBox="0 0 105 36" fill="none" xmlns="http://www.w3.org/2000/svg">
<path d="M96.2933 31.7619C96.0323 31.7619 95.9019 31.6864 95.9019 31.5354C95.9019 31.3843 96.0149 31.302 96.2411 31.2882L97.4154 31.1441C97.7633 31.1029 97.9981 31.0342 98.1199 30.9381C98.2417 30.8283 98.3026 30.6292 98.3026 30.3409V17.9841C98.3026 17.7918 98.2504 17.6546 98.146 17.5722C98.0416 17.4898 97.8242 17.4486 97.4936 17.4486C96.85 17.4486 96.215 17.6683 95.5887 18.1076C94.9625 18.547 94.5536 19.2541 94.3623 20.2289L94.2318 20.9085C94.197 21.087 94.0752 21.1762 93.8665 21.1762C93.6055 21.1762 93.4925 21.0595 93.5273 20.8261L93.7621 17.0985C93.7969 16.7827 93.9535 16.6248 94.2318 16.6248C94.3536 16.6248 94.4667 16.6523 94.571 16.7072C94.6754 16.7484 94.8494 16.7964 95.0929 16.8514C95.3539 16.9063 95.7627 16.9337 96.3194 16.9337H102.138C102.695 16.9337 103.095 16.9063 103.339 16.8514C103.6 16.7964 103.782 16.7484 103.887 16.7072C104.009 16.6523 104.122 16.6248 104.226 16.6248C104.504 16.6248 104.661 16.7827 104.696 17.0985L104.931 20.8261C104.965 21.0595 104.852 21.1762 104.591 21.1762C104.383 21.1762 104.261 21.087 104.226 20.9085L104.096 20.2289C103.922 19.2541 103.521 18.547 102.895 18.1076C102.269 17.6683 101.625 17.4486 100.964 17.4486C100.634 17.4486 100.416 17.4898 100.312 17.5722C100.207 17.6546 100.155 17.7918 100.155 17.9841V30.3409C100.155 30.6292 100.216 30.8283 100.338 30.9381C100.477 31.0342 100.712 31.1029 101.043 31.1441L102.217 31.2882C102.443 31.302 102.556 31.3843 102.556 31.5354C102.556 31.6864 102.426 31.7619 102.165 31.7619H96.2933Z" fill="black"/>
<path d="M87.593 31.9473C87.2451 31.9473 86.8536 31.9198 86.4187 31.8649C86.0012 31.81 85.6011 31.7413 85.2184 31.6589C84.853 31.5765 84.566 31.4873 84.3572 31.3912C84.2355 31.3363 84.1398 31.2814 84.0702 31.2264C84.018 31.1578 83.9919 31.0479 83.9919 30.8969L83.8615 27.6636C83.8615 27.389 83.9745 27.2517 84.2007 27.2517C84.392 27.2517 84.5225 27.3752 84.5921 27.6224L84.8269 28.405C85.4184 30.3683 86.5231 31.35 88.141 31.35C89.0108 31.35 89.6979 31.1235 90.2024 30.6704C90.7243 30.2036 90.9853 29.5514 90.9853 28.7139C90.9853 27.9038 90.7156 27.1487 90.1764 26.4485C89.6545 25.7483 88.8107 25.0549 87.6452 24.3684C86.3578 23.6407 85.4184 22.9405 84.8269 22.2678C84.2355 21.5813 83.9397 20.8536 83.9397 20.0847C83.9397 19.0687 84.3833 18.2587 85.2706 17.6545C86.1752 17.0367 87.3233 16.7278 88.7151 16.7278C89.2369 16.7278 89.7414 16.7758 90.2285 16.8719C90.7156 16.9681 91.1158 17.1054 91.4289 17.2838C91.5333 17.3388 91.6116 17.4005 91.6637 17.4692C91.7333 17.5378 91.7681 17.6271 91.7681 17.7369L91.8464 20.8467C91.8464 21.0801 91.7333 21.1968 91.5072 21.1968C91.3506 21.1968 91.2375 21.1007 91.1679 20.9085L90.9853 20.3936C90.6026 19.3364 90.2024 18.5676 89.7849 18.087C89.3848 17.5928 88.802 17.3456 88.0366 17.3456C87.2885 17.3456 86.6884 17.5378 86.2361 17.9223C85.8011 18.3067 85.5837 18.849 85.5837 19.5493C85.5837 20.1396 85.8272 20.7026 86.3143 21.238C86.8014 21.7735 87.6539 22.4256 88.8716 23.1945C90.1764 24.032 91.1244 24.8421 91.7159 25.6247C92.3248 26.3936 92.6292 27.2173 92.6292 28.096C92.6292 28.8649 92.4118 29.5377 91.9769 30.1143C91.542 30.691 90.9418 31.1441 90.1764 31.4736C89.4283 31.7894 88.5672 31.9473 87.593 31.9473Z" fill="black"/>
<path d="M71.8546 31.7619C71.5937 31.7619 71.4632 31.6864 71.4632 31.5353C71.4632 31.4118 71.5763 31.3294 71.8025 31.2882L72.4026 31.2058C72.768 31.1509 73.0028 31.0754 73.1072 30.9793C73.229 30.8832 73.2898 30.691 73.2898 30.4026V18.293C73.2898 18.0046 73.229 17.8124 73.1072 17.7163C73.0028 17.6202 72.768 17.5447 72.4026 17.4898L71.8025 17.4074C71.5763 17.3662 71.4632 17.2838 71.4632 17.1603C71.4632 17.0092 71.5937 16.9337 71.8546 16.9337H80.6224C81.0226 16.9337 81.24 17.0916 81.2748 17.4074L81.4836 20.8261C81.5184 21.0595 81.4053 21.1762 81.1443 21.1762C80.9356 21.1762 80.8138 21.087 80.779 20.9085L80.6224 20.1465C80.4311 19.2129 80.0397 18.5332 79.4482 18.1076C78.8567 17.6683 78.0391 17.4486 76.9953 17.4486C76.2994 17.4486 75.8123 17.531 75.534 17.6957C75.273 17.8467 75.1426 18.1213 75.1426 18.5195V23.4828C75.1426 23.675 75.2643 23.7711 75.5079 23.7711H76.8126C77.5781 23.7711 78.0478 23.4485 78.2217 22.8032L78.4827 21.7735C78.5523 21.5675 78.7001 21.4783 78.9263 21.5057C79.1176 21.5332 79.2133 21.6499 79.2133 21.8558V26.4896C79.2133 26.6956 79.1176 26.8123 78.9263 26.8398C78.7001 26.8672 78.5523 26.778 78.4827 26.572L78.2217 25.5629C78.1 25.0823 77.926 24.7666 77.6998 24.6155C77.4911 24.4645 77.1866 24.389 76.7865 24.389H75.5079C75.2643 24.389 75.1426 24.4851 75.1426 24.6773V29.8466C75.1426 30.3409 75.2991 30.6978 75.6123 30.9175C75.9428 31.1372 76.5343 31.247 77.3867 31.247C78.2565 31.247 78.9959 31.0754 79.6047 30.7322C80.231 30.3752 80.6659 29.7161 80.9095 28.7551L81.2226 27.54C81.2748 27.3615 81.4053 27.2722 81.614 27.2722C81.8576 27.2722 81.962 27.3889 81.9272 27.6224L81.6662 31.2882C81.6314 31.604 81.414 31.7619 81.0139 31.7619H71.8546Z" fill="black"/>
<path d="M64.1533 31.9472C63.2139 31.9472 62.3788 31.7756 61.6482 31.4324C60.9349 31.0754 60.3782 30.588 59.9781 29.9701C59.578 29.3386 59.378 28.6178 59.378 27.8077V18.293C59.378 18.0046 59.3171 17.8124 59.1953 17.7163C59.0909 17.6202 58.8561 17.5447 58.4907 17.4898L57.8906 17.4074C57.6644 17.3662 57.5513 17.2838 57.5513 17.1603C57.5513 17.0092 57.6818 16.9337 57.9428 16.9337H62.7181C62.979 16.9337 63.1095 17.0161 63.1095 17.1809C63.1095 17.3044 63.0138 17.3799 62.8224 17.4074L62.1179 17.4898C61.77 17.531 61.5351 17.6065 61.4133 17.7163C61.2916 17.8262 61.2307 18.0252 61.2307 18.3136V27.8283C61.2307 28.8718 61.5264 29.6818 62.1179 30.2585C62.7094 30.8351 63.5357 31.1234 64.5969 31.1234C65.6755 31.1234 66.5105 30.8351 67.102 30.2585C67.6934 29.6818 67.9892 28.8718 67.9892 27.8283V18.7255C67.9892 17.984 67.6934 17.5722 67.102 17.4898L66.3974 17.4074C66.206 17.3799 66.1104 17.3044 66.1104 17.1809C66.1104 17.0161 66.2408 16.9337 66.5018 16.9337H70.2594C70.5204 16.9337 70.6508 17.0092 70.6508 17.1603C70.6508 17.2838 70.5378 17.3662 70.3116 17.4074L69.7114 17.4898C69.1199 17.5722 68.8242 17.9772 68.8242 18.7049V27.8077C68.8242 29.0571 68.398 30.0594 67.5456 30.8145C66.6931 31.5697 65.5624 31.9472 64.1533 31.9472Z" fill="black"/>
<path d="M40.1332 1.776C41.0275 0.764841 42.0997 0.46496 43.0487 0.674613C43.888 0.860076 44.6001 1.43996 44.9631 2.20614C45.7823 1.47524 46.5764 1.27087 47.3081 1.45571C47.981 1.62568 48.532 2.11047 48.9533 2.65062C50.1464 1.42406 51.3829 1.1506 52.4528 1.4263C53.473 1.6892 54.2866 2.43854 54.7234 3.19339C55.9658 2.97078 56.7667 3.20102 57.1887 3.76608C57.5624 4.26654 57.5538 4.92692 57.4343 5.45699C57.9616 5.85687 58.3072 6.24944 58.4917 6.63656C58.7017 7.07737 58.6959 7.49798 58.5329 7.86716C58.3756 8.22336 58.0842 8.50553 57.7666 8.7174C57.5393 8.86901 57.2875 8.99142 57.0373 9.08469C57.2109 9.71118 57.2195 10.2488 57.0811 10.6992C56.9189 11.2268 56.5667 11.5972 56.1293 11.8325C55.3619 12.2452 54.3228 12.2517 53.4529 12.0301C53.2274 12.5703 52.9455 12.99 52.6044 13.2901C52.203 13.6432 51.7366 13.8165 51.2305 13.8402C50.2983 13.8838 49.248 13.4191 48.1767 12.7169C45.7282 14.5996 42.8567 15.0841 40.8183 15.0841C38.952 15.0841 37.3854 15.0936 35.6703 15.0984C33.9344 15.1033 32.0488 15.1035 29.553 15.0841L29.5581 14.4611C32.0511 14.4805 33.9342 14.4804 35.6686 14.4755C36.6686 14.4726 37.6201 14.4683 38.6105 14.4652C38.9896 14.8475 39.5152 15.0844 40.0962 15.0844C40.6918 15.0843 41.2286 14.8351 41.6097 14.4357C43.5198 14.3156 45.922 13.7349 47.9668 12.0902L48.1463 11.9456L48.3371 12.0751C49.4559 12.8353 50.4297 13.254 51.2013 13.218C51.5746 13.2005 51.9039 13.0765 52.1928 12.8223C52.4866 12.5638 52.7546 12.1561 52.9719 11.5477L53.074 11.2621L53.3624 11.3563C54.1847 11.6253 55.1828 11.634 55.8341 11.2837C56.1487 11.1145 56.3782 10.8653 56.4855 10.5162C56.5949 10.1603 56.5886 9.66361 56.3548 8.9864L56.2469 8.67441L56.5649 8.58491C56.8572 8.50267 57.1633 8.37092 57.4207 8.19926C57.6806 8.02593 57.8701 7.8259 57.963 7.61551C58.0502 7.41806 58.064 7.18724 57.9293 6.90455C57.7886 6.60935 57.4806 6.24885 56.8998 5.83711L56.7175 5.70789L56.7814 5.49395C56.9301 4.99517 56.9349 4.46743 56.6896 4.1389C56.4657 3.83905 55.9209 3.56951 54.6226 3.84803L54.3835 3.89932L54.277 3.67934C53.9447 2.99283 53.2087 2.26425 52.2974 2.02941C51.418 1.80281 50.3082 2.01975 49.1605 3.34574L48.8937 3.65395L48.6665 3.31557C48.2545 2.70219 47.7354 2.20606 47.1555 2.05957C46.6095 1.92167 45.9107 2.0722 45.0644 2.9792L44.6762 3.39526L44.535 2.84394C44.3375 2.07325 43.6953 1.45558 42.9144 1.283C42.1535 1.11486 41.2155 1.36275 40.4085 2.42134L40.1805 2.72076L39.9291 2.4407C39.5753 2.04662 39.0074 1.76668 38.4765 1.83005C37.9807 1.88926 37.4072 2.26453 37.0508 3.41638L36.9902 3.61272L36.7861 3.63409C35.99 3.71806 35.5831 4.0492 35.4496 4.39961C35.3154 4.75211 35.4053 5.26034 35.9011 5.81172L36.0771 6.00731L35.9137 6.21345C35.6217 6.58216 35.3181 7.13223 35.2819 7.60722C35.2646 7.83474 35.3097 8.02489 35.4257 8.17714C35.5431 8.33109 35.7632 8.48586 36.1714 8.58164L36.0291 9.18802C35.5268 9.07016 35.1607 8.85683 34.9305 8.55499C34.6991 8.25153 34.635 7.89792 34.6607 7.55995C34.703 7.004 34.9905 6.43906 35.2739 6.03119C34.81 5.42778 34.6451 4.76221 34.8676 4.17787C35.0972 3.57518 35.6945 3.17516 36.5191 3.04154C36.9325 1.86803 37.6273 1.30416 38.4028 1.2116C39.0497 1.13441 39.6789 1.39723 40.1332 1.776Z" fill="black"/>
<path d="M16.3748 31.5353C16.3748 31.6864 16.5053 31.7619 16.7663 31.7619H22.6376C22.8985 31.7619 23.029 31.6864 23.029 31.5353C23.029 31.3843 22.9159 31.3019 22.6897 31.2882L21.5155 31.144C21.185 31.1029 20.9501 31.0342 20.8109 30.9381C20.6892 30.8283 20.6283 30.6292 20.6283 30.3409V25.3158C20.6283 25.0961 20.6544 24.9039 20.7066 24.7391C20.7587 24.5606 20.8457 24.3753 20.9675 24.183L24.3859 18.7666C24.6816 18.3136 24.9165 17.9909 25.0904 17.7987C26.2598 16.5067 27.9527 15.1589 29.553 15.0841L29.5581 14.4611C25.9664 14.1181 24.4155 17.2753 23.5248 18.746L20.4456 23.7094C20.376 23.8055 20.289 23.8535 20.1847 23.8535C20.0803 23.8535 19.9933 23.8055 19.9237 23.7094L16.7141 18.3136C16.5401 18.0252 16.514 17.8124 16.6358 17.6751C16.7576 17.5378 16.9663 17.4623 17.2621 17.4486L17.7579 17.4074C18.0536 17.3937 18.2015 17.3113 18.2015 17.1603C18.2015 17.0092 18.0797 16.9337 17.8361 16.9337H13.374C13.113 16.9337 12.9825 17.0024 12.9825 17.1397C12.9825 17.277 13.1043 17.3662 13.3479 17.4074L13.5827 17.4486C13.8785 17.5035 14.1046 17.5927 14.2612 17.7163C14.4177 17.8399 14.5569 18.0184 14.6787 18.2518L18.5146 24.5949C18.6886 24.8833 18.7755 25.1785 18.7755 25.4805V30.3409C18.7755 30.6292 18.7147 30.8283 18.5929 30.9381C18.4711 31.0342 18.2363 31.1029 17.8883 31.144L16.7141 31.2882C16.4879 31.3019 16.3748 31.3843 16.3748 31.5353Z" fill="black"/>
<path d="M11.1408 31.9472C10.8625 31.9472 10.6277 31.7825 10.4363 31.453L3.36465 19.3433C3.31246 19.2472 3.24288 19.206 3.15589 19.2197C3.08631 19.2335 3.05152 19.2952 3.05152 19.4051V29.9907C3.05152 30.3752 3.1298 30.6704 3.28637 30.8763C3.46033 31.0685 3.76477 31.1921 4.19968 31.247L4.53891 31.2882C4.76506 31.3019 4.87814 31.3843 4.87814 31.5353C4.87814 31.6864 4.74767 31.7619 4.48672 31.7619H0.755189C0.494243 31.7619 0.36377 31.6864 0.36377 31.5353C0.36377 31.3843 0.476846 31.3019 0.703 31.2882L1.04223 31.247C1.49454 31.1921 1.80767 31.0685 1.98164 30.8763C2.1556 30.6704 2.24258 30.3752 2.24258 29.9907V18.293C2.24258 18.0046 2.18169 17.8124 2.05992 17.7163C1.95554 17.6202 1.70329 17.5447 1.30318 17.4898L0.703 17.4074C0.476846 17.3662 0.36377 17.2838 0.36377 17.1603C0.36377 17.0092 0.494243 16.9337 0.755189 16.9337H3.54731C3.98222 16.9337 4.28666 17.0847 4.46062 17.3868L10.619 28.0754C10.6711 28.1578 10.732 28.1921 10.8016 28.1784C10.8886 28.1647 10.9321 28.1166 10.9321 28.0342V18.7049C10.9321 18.2655 10.8364 17.9635 10.645 17.7987C10.4537 17.6202 10.2101 17.5104 9.9144 17.4692L9.4447 17.4074C9.21854 17.3662 9.10547 17.2838 9.10547 17.1603C9.10547 17.0092 9.23594 16.9337 9.49689 16.9337H13.2284C13.4894 16.9337 13.6198 17.0092 13.6198 17.1603C13.6198 17.3113 13.5068 17.3937 13.2806 17.4074L12.9414 17.4486C12.4891 17.5035 12.1759 17.6202 12.002 17.7987C11.828 17.9635 11.741 18.2655 11.741 18.7049V31.2882C11.741 31.5353 11.6801 31.707 11.5584 31.8031C11.454 31.8992 11.3148 31.9472 11.1408 31.9472Z" fill="black"/>
<path fill-rule="evenodd" clip-rule="evenodd" d="M29.0656 30.9999C30.0398 31.6315 31.2315 31.9473 32.6406 31.9473C33.3538 31.9473 33.9801 31.8923 34.5194 31.7825C35.0587 31.6864 35.5371 31.556 35.9546 31.3912C36.2155 31.2814 36.3982 31.1852 36.5026 31.1029C36.607 31.0068 36.6591 30.8832 36.6591 30.7322V25.151C36.6591 24.8627 36.6939 24.6567 36.7635 24.5332C36.435 24.5332 35.891 24.4222 35.3732 24.3166C35.0898 24.2588 34.8144 24.2026 34.5864 24.1671C33.8397 24.0507 33.5276 24.1101 33.9192 24.3272C34.2845 24.3547 34.5194 24.4233 34.6238 24.5332C34.7455 24.643 34.8064 24.8421 34.8064 25.1304V29.6406C34.8064 30.3134 34.6238 30.7734 34.2584 31.0205C33.8931 31.2676 33.3538 31.3912 32.6406 31.3912C31.3184 31.3912 30.2312 30.7871 29.3787 29.5789C28.5437 28.3569 28.1262 26.5858 28.1262 24.2654C28.1262 22.0138 28.535 20.2975 29.3526 19.1168C30.1877 17.9223 31.2402 17.325 32.5101 17.325C33.3625 17.325 34.0323 17.5378 34.5194 17.9635C35.0065 18.3891 35.4414 19.1717 35.8241 20.3113L36.0329 20.9291C36.0851 21.1076 36.2068 21.1968 36.3982 21.1968C36.607 21.1968 36.7113 21.0801 36.7113 20.8467L36.633 17.7163C36.633 17.5241 36.52 17.3799 36.2938 17.2838C35.8763 17.1191 35.3892 16.9886 34.8325 16.8925C34.2758 16.7827 33.6583 16.7278 32.9798 16.7278C31.6403 16.7278 30.4486 17.0436 29.4048 17.6751C28.3784 18.293 27.5695 19.1717 26.978 20.3113C26.3866 21.4371 26.0908 22.7552 26.0908 24.2654C26.0908 25.8306 26.3431 27.1899 26.8476 28.3432C27.3521 29.4828 28.0914 30.3683 29.0656 30.9999Z" fill="black"/>
<path fill-rule="evenodd" clip-rule="evenodd" d="M47.3419 29.8037C47.9379 30.7021 48.6988 31.2192 49.6246 31.355C49.7163 31.5667 50.0801 32.0051 50.0785 32.0735C49.8794 32.0069 49.467 31.9458 49.2544 31.8876C49.1179 31.8502 48.9892 31.815 48.882 31.7825C47.9774 31.5491 47.1598 31.0823 46.4291 30.3821C46.1388 30.0915 45.8731 29.7736 45.6318 29.4285C46.1194 29.5759 47.1442 29.8573 47.3419 29.8037ZM46.1943 24.3272C46.1943 26.2494 46.4221 27.776 46.8779 28.907C46.7347 28.8986 45.5322 28.4609 44.9489 28.243C44.873 28.0817 44.801 27.916 44.733 27.7459C44.3329 26.7025 44.1328 25.5629 44.1328 24.3272C44.1328 23.2563 44.2807 22.2609 44.5764 21.341C44.8895 20.4211 45.3158 19.6179 45.855 18.9314C46.4117 18.2312 47.0554 17.6889 47.786 17.3044C48.5167 16.92 49.2995 16.7278 50.1346 16.7278C50.9696 16.7278 51.7437 16.92 52.457 17.3044C53.1876 17.6889 53.8313 18.2312 54.388 18.9314C54.9447 19.6179 55.3709 20.4211 55.6666 21.341C55.9798 22.2609 56.1363 23.2563 56.1363 24.3272C56.1363 25.5904 55.9189 26.7574 55.484 27.8283C55.0664 28.8855 54.4837 29.7642 53.7356 30.4644C53.145 31.0305 52.4862 31.435 51.7591 31.678C51.6183 31.5445 51.3313 31.2589 51.3099 31.1854C52.0001 30.9225 52.5738 30.4076 53.0311 29.6406C53.7269 28.4736 54.0749 26.7025 54.0749 24.3272C54.0749 21.952 53.7269 20.1877 53.0311 19.0344C52.3352 17.8674 51.3697 17.2838 50.1346 17.2838C48.9168 17.2838 47.9513 17.8674 47.2381 19.0344C46.5422 20.1877 46.1943 21.952 46.1943 24.3272Z" fill="black"/>
<path d="M31.5915 25.151C32.0245 24.6842 33.3889 23.7283 35.1044 23.926C37.2488 24.1732 42.7633 27.7305 44.4747 28.685C44.7139 28.8183 45.031 28.9529 45.4005 29.0772C45.9098 29.2486 46.5185 29.4007 47.1595 29.5036C47.6561 29.5834 48.172 29.6337 48.6761 29.6406C48.7383 29.6415 48.7999 29.6419 48.8608 29.6418C48.7742 29.5386 48.6843 29.4349 48.5924 29.3302C48.0261 29.3322 47.4849 29.2617 46.9828 29.1516C46.2535 28.9917 45.6069 28.7484 45.0868 28.523C44.8568 28.4233 44.6515 28.327 44.4747 28.243C43.1455 27.6115 37.9659 24.1556 35.6344 23.7712C33.7692 23.4636 31.9621 24.5103 31.5915 25.151Z" fill="black"/>
<path d="M49.5361 29.6183C49.455 29.5153 49.3686 29.4053 49.2794 29.2913C49.0471 29.3171 48.8177 29.3294 48.5924 29.3302C48.6843 29.4349 48.7742 29.5386 48.8608 29.6418C49.0946 29.6413 49.3196 29.6336 49.5361 29.6183Z" fill="black"/>
<path d="M50.9486 31.2975C50.6917 31.36 50.4204 31.3912 50.1346 31.3912C50.0967 31.3912 50.059 31.3906 50.0216 31.3895C50.084 31.5536 50.1342 31.5766 50.2703 31.8109C50.4064 32.0452 50.8382 32.6076 51.0142 32.9903C51.3577 33.7372 51.799 34.2892 52.3381 34.6464C52.8772 35.0035 53.4475 35.2239 54.0491 35.3075C54.6709 35.4022 55.2388 35.4138 55.7527 35.3423C56.3523 35.2588 56.8356 35.1288 57.2024 34.9523C57.5894 34.7869 57.9019 34.604 58.1397 34.4036C58.2556 34.2899 58.303 34.1857 58.2819 34.0911C58.2577 33.9829 58.1826 33.9236 58.0567 33.9133C57.9307 33.9029 57.8068 33.9411 57.6848 34.0278C57.2111 34.3586 56.7602 34.5096 56.2033 34.6313C55.6061 34.7618 55.1731 34.8764 54.323 34.6313C53.4729 34.3861 53.1063 34.0647 52.6228 33.3234C52.2173 32.7018 51.5686 31.9669 50.9486 31.2975Z" fill="black"/>
<path fill-rule="evenodd" clip-rule="evenodd" d="M53.7523 24.111C54.1474 25.2009 54.1087 26.1679 53.151 27.6746C53.0501 27.8334 52.925 27.9852 52.7952 28.1212C52.5651 28.3624 52.3203 28.5539 52.1701 28.6464C51.6436 28.9708 51.4748 29.0522 51.1434 29.194C50.5194 29.461 49.9508 29.5888 49.5361 29.6183C49.455 29.5153 49.3686 29.4053 49.2794 29.2913C49.5605 29.26 49.8461 29.2088 50.1346 29.1341C50.6453 29.0018 51.2568 28.6634 51.6436 28.3955C51.9176 28.2058 52.1966 27.8578 52.2181 27.8283C52.9136 26.8773 53.3329 25.8635 53.1239 24.9295C53.0553 24.623 52.7814 24.2164 52.3456 24.1645C51.8584 24.1064 51.0847 24.3558 50.4373 25.1304C49.8475 24.1671 48.882 23.7044 47.9045 23.9977C47.675 24.0666 47.3476 24.5148 47.2381 24.9952C47.1098 25.5578 47.2224 26.6031 47.9045 27.62C48.0536 27.8422 48.3295 28.1633 48.6222 28.5039C48.8112 28.7238 49.0071 28.9519 49.1803 29.1666C49.1407 29.1786 48.6933 29.1918 48.4745 29.1969C48.4258 29.1421 48.3748 29.085 48.3224 29.0264C48.0609 28.7338 47.7651 28.4027 47.543 28.1212C47.5022 28.0695 47.4618 28.0187 47.4219 27.9687C46.7305 27.0994 46.2071 26.4413 46.4291 24.5999C46.5285 23.7763 47.1774 23.2642 47.9667 23.1505C48.9269 23.0121 50.0618 23.4531 50.5403 24.5332C50.819 23.912 51.6455 23.3295 52.4823 23.3384C52.9456 23.3433 53.5757 23.6239 53.7523 24.111Z" fill="black"/>
<path fill-rule="evenodd" clip-rule="evenodd" d="M50.9486 31.2975C50.6917 31.36 50.4204 31.3912 50.1346 31.3912C50.0967 31.3912 50.059 31.3906 50.0216 31.3895C49.9009 31.0718 49.7786 30.8972 49.5505 30.5716C49.4827 30.4748 49.4055 30.3646 49.3162 30.2334C49.2186 30.0898 49.1102 29.947 48.9944 29.8037C49.1931 29.7957 49.6017 29.7754 49.6465 29.7584C49.7192 29.8505 49.7858 29.9347 49.8439 30.0083C49.9187 30.1028 49.9795 30.1798 50.0216 30.2334C50.3678 30.6745 50.6928 31.023 50.8823 31.2261C50.9067 31.2524 50.9289 31.2762 50.9486 31.2975Z" fill="black"/>
<circle cx="37.6826" cy="16.4888" r="1" stroke="black" stroke-width="0.505019"/>
<circle cx="37.6826" cy="16.4888" r="1" stroke="black" stroke-width="0.505019"/>
<path d="M41.4526 12.992C41.4526 12.2429 40.8454 11.6355 40.0963 11.6355C39.3471 11.6355 38.7397 12.2429 38.7397 12.992C38.7398 13.7412 39.3471 14.3483 40.0963 14.3483V14.8632L40 14.8609C39.0431 14.8125 38.2759 14.0452 38.2274 13.0883L38.2249 12.992C38.2249 11.9585 39.0628 11.1206 40.0963 11.1206L40.1926 11.1231C41.1813 11.1733 41.9674 11.9908 41.9674 12.992L41.9652 13.0883C41.915 14.077 41.0974 14.8632 40.0963 14.8632V14.3483C40.8454 14.3483 41.4525 13.7411 41.4526 12.992Z" fill="black"/>
<path d="M41.4526 12.992C41.4526 12.2429 40.8454 11.6355 40.0963 11.6355C39.3471 11.6355 38.7397 12.2429 38.7397 12.992C38.7398 13.7412 39.3471 14.3483 40.0963 14.3483V14.8632L40 14.8609C39.0431 14.8125 38.2759 14.0452 38.2274 13.0883L38.2249 12.992C38.2249 11.9585 39.0628 11.1206 40.0963 11.1206L40.1926 11.1231C41.1813 11.1733 41.9674 11.9908 41.9674 12.992L41.9652 13.0883C41.915 14.077 41.0974 14.8632 40.0963 14.8632V14.3483C40.8454 14.3483 41.4525 13.7411 41.4526 12.992Z" fill="black"/>
</svg>
