<svg width="211" height="149" viewBox="0 0 211 149" fill="none" xmlns="http://www.w3.org/2000/svg">
<rect width="210" height="148.5" transform="matrix(-1 0 0 -1 210.5 148.5)" fill="white"/>
<rect x="65.8618" y="57.8613" width="9.43413" height="13.7553" stroke="#BBBBBB"/>
<rect x="79.7098" y="57.8613" width="9.43413" height="13.7553" stroke="#BBBBBB"/>
<rect x="93.5581" y="57.8613" width="9.43413" height="13.7553" stroke="#BBBBBB"/>
<rect x="107.406" y="57.8613" width="9.43413" height="13.7553" stroke="#BBBBBB"/>
<rect x="121.255" y="57.8613" width="9.43413" height="13.7553" stroke="#BBBBBB"/>
<rect x="135.103" y="57.8613" width="9.43413" height="13.7553" stroke="#BBBBBB"/>
<rect x="148.951" y="57.8613" width="9.43413" height="13.7553" stroke="#BBBBBB"/>
<rect x="162.799" y="57.8613" width="9.43413" height="13.7553" stroke="#BBBBBB"/>
<rect x="176.647" y="57.8613" width="9.43413" height="13.7553" stroke="#BBBBBB"/>
<rect x="190.496" y="57.8613" width="9.43413" height="13.7553" stroke="#BBBBBB"/>
<rect x="79.7098" y="92.3167" width="9.43413" height="13.7553" stroke="#BBBBBB"/>
<rect x="93.5581" y="92.3167" width="9.43413" height="13.7553" stroke="#BBBBBB"/>
<rect x="107.406" y="92.3167" width="9.43413" height="13.7553" stroke="#BBBBBB"/>
<rect x="121.255" y="92.3167" width="9.43413" height="13.7553" stroke="#BBBBBB"/>
<rect x="135.103" y="92.3167" width="9.43413" height="13.7553" stroke="#BBBBBB"/>
<rect x="148.951" y="92.3167" width="9.43413" height="13.7553" stroke="#BBBBBB"/>
<rect x="162.799" y="92.3167" width="9.43413" height="13.7553" stroke="black"/>
<path d="M169.339 93.2345L170.4 95.4255M170.4 93.2345L171.371 95.4255" stroke="#FF0000" stroke-width="0.5"/>
<rect x="176.647" y="92.3167" width="9.43413" height="13.7553" stroke="black"/>
<rect x="190.496" y="92.3167" width="9.43413" height="13.7553" stroke="#BBBBBB"/>
<rect x="65.8617" y="92.1657" width="9.43413" height="13.7553" stroke="#FF0000"/>
<rect x="79.7098" y="109.544" width="9.43413" height="13.7553" stroke="#BBBBBB"/>
<rect x="93.117" y="109.675" width="9.43413" height="13.7553" stroke="#FF0000"/>
<rect x="107.406" y="109.544" width="9.43413" height="13.7553" stroke="#BBBBBB"/>
<rect x="121.255" y="109.544" width="9.43413" height="13.7553" stroke="#BBBBBB"/>
<rect x="135.103" y="109.544" width="9.43413" height="13.7553" stroke="#BBBBBB"/>
<rect x="148.951" y="109.544" width="9.43413" height="13.7553" stroke="#BBBBBB"/>
<rect x="162.799" y="109.544" width="9.43413" height="13.7553" stroke="#BBBBBB"/>
<rect x="176.647" y="109.544" width="9.43413" height="13.7553" stroke="#BBBBBB"/>
<rect x="190.496" y="109.544" width="9.43413" height="13.7553" stroke="#BBBBBB"/>
<rect x="65.8617" y="109.675" width="9.43413" height="13.7553" stroke="#FF0000"/>
<rect x="79.7098" y="126.772" width="9.43413" height="13.7553" stroke="#BBBBBB"/>
<rect x="93.5581" y="126.772" width="9.43413" height="13.7553" stroke="#BBBBBB"/>
<rect x="107.406" y="126.772" width="9.43413" height="13.7553" stroke="#BBBBBB"/>
<rect x="121.255" y="126.772" width="9.43413" height="13.7553" stroke="#BBBBBB"/>
<rect x="135.103" y="126.772" width="9.43413" height="13.7553" stroke="#BBBBBB"/>
<rect x="148.951" y="126.772" width="9.43413" height="13.7553" stroke="#BBBBBB"/>
<rect x="162.799" y="126.772" width="9.43413" height="13.7553" stroke="#BBBBBB"/>
<rect x="176.647" y="126.772" width="9.43413" height="13.7553" stroke="#BBBBBB"/>
<rect x="190.496" y="126.772" width="9.43413" height="13.7553" stroke="#BBBBBB"/>
<rect x="65.8617" y="126.828" width="9.43413" height="13.7553" stroke="#FF0000"/>
<rect x="79.7098" y="75.0889" width="9.43413" height="13.7553" stroke="#BBBBBB"/>
<rect x="107.406" y="75.0889" width="9.43413" height="13.7553" stroke="#BBBBBB"/>
<rect x="121.255" y="75.0889" width="9.43413" height="13.7553" stroke="#BBBBBB"/>
<rect x="135.103" y="75.0889" width="9.43413" height="13.7553" stroke="#BBBBBB"/>
<rect x="148.951" y="75.0889" width="9.43413" height="13.7553" stroke="#BBBBBB"/>
<rect x="162.799" y="75.0889" width="9.43413" height="13.7553" stroke="#BBBBBB"/>
<rect x="176.647" y="75.0889" width="9.43413" height="13.7553" stroke="#BBBBBB"/>
<rect x="190.496" y="75.0889" width="9.43413" height="13.7553" stroke="black"/>
<rect x="65.8618" y="75.0135" width="9.43413" height="13.7553" stroke="#FF0000"/>
<rect x="93.5582" y="75.0135" width="9.43413" height="13.7553" stroke="#FF0000"/>
<path d="M149.784 40.2619C149.523 40.2619 149.392 40.1864 149.392 40.0354C149.392 39.8843 149.505 39.802 149.731 39.7882L150.906 39.6441C151.254 39.6029 151.488 39.5342 151.61 39.4381C151.732 39.3283 151.793 39.1292 151.793 38.8409V26.4841C151.793 26.2918 151.741 26.1546 151.636 26.0722C151.532 25.9898 151.314 25.9486 150.984 25.9486C150.34 25.9486 149.705 26.1683 149.079 26.6076C148.453 27.047 148.044 27.7541 147.853 28.7289L147.722 29.4085C147.687 29.587 147.566 29.6762 147.357 29.6762C147.096 29.6762 146.983 29.5595 147.018 29.3261L147.252 25.5985C147.287 25.2827 147.444 25.1248 147.722 25.1248C147.844 25.1248 147.957 25.1523 148.061 25.2072C148.166 25.2484 148.34 25.2964 148.583 25.3514C148.844 25.4063 149.253 25.4337 149.81 25.4337H155.629C156.185 25.4337 156.586 25.4063 156.829 25.3514C157.09 25.2964 157.273 25.2484 157.377 25.2072C157.499 25.1523 157.612 25.1248 157.716 25.1248C157.995 25.1248 158.151 25.2827 158.186 25.5985L158.421 29.3261C158.456 29.5595 158.343 29.6762 158.082 29.6762C157.873 29.6762 157.751 29.587 157.716 29.4085L157.586 28.7289C157.412 27.7541 157.012 27.047 156.386 26.6076C155.759 26.1683 155.116 25.9486 154.455 25.9486C154.124 25.9486 153.907 25.9898 153.802 26.0722C153.698 26.1546 153.646 26.2918 153.646 26.4841V38.8409C153.646 39.1292 153.706 39.3283 153.828 39.4381C153.967 39.5342 154.202 39.6029 154.533 39.6441L155.707 39.7882C155.933 39.802 156.046 39.8843 156.046 40.0354C156.046 40.1864 155.916 40.2619 155.655 40.2619H149.784Z" fill="black"/>
<path d="M141.083 40.4473C140.735 40.4473 140.344 40.4198 139.909 40.3649C139.491 40.31 139.091 40.2413 138.709 40.1589C138.343 40.0765 138.056 39.9873 137.848 39.8912C137.726 39.8363 137.63 39.7814 137.56 39.7264C137.508 39.6578 137.482 39.5479 137.482 39.3969L137.352 36.1636C137.352 35.889 137.465 35.7517 137.691 35.7517C137.882 35.7517 138.013 35.8752 138.082 36.1224L138.317 36.905C138.909 38.8683 140.013 39.85 141.631 39.85C142.501 39.85 143.188 39.6235 143.693 39.1704C144.215 38.7036 144.476 38.0514 144.476 37.2139C144.476 36.4038 144.206 35.6487 143.667 34.9485C143.145 34.2483 142.301 33.5549 141.135 32.8684C139.848 32.1407 138.909 31.4405 138.317 30.7678C137.726 30.0813 137.43 29.3536 137.43 28.5847C137.43 27.5687 137.874 26.7587 138.761 26.1545C139.665 25.5367 140.814 25.2278 142.205 25.2278C142.727 25.2278 143.232 25.2758 143.719 25.3719C144.206 25.4681 144.606 25.6054 144.919 25.7838C145.024 25.8388 145.102 25.9005 145.154 25.9692C145.224 26.0378 145.258 26.1271 145.258 26.2369L145.337 29.3467C145.337 29.5801 145.224 29.6968 144.997 29.6968C144.841 29.6968 144.728 29.6007 144.658 29.4085L144.476 28.8936C144.093 27.8364 143.693 27.0676 143.275 26.587C142.875 26.0928 142.292 25.8456 141.527 25.8456C140.779 25.8456 140.179 26.0378 139.726 26.4223C139.291 26.8067 139.074 27.349 139.074 28.0493C139.074 28.6396 139.318 29.2026 139.805 29.738C140.292 30.2735 141.144 30.9256 142.362 31.6945C143.667 32.532 144.615 33.3421 145.206 34.1247C145.815 34.8936 146.12 35.7173 146.12 36.596C146.12 37.3649 145.902 38.0377 145.467 38.6143C145.032 39.191 144.432 39.6441 143.667 39.9736C142.919 40.2894 142.057 40.4473 141.083 40.4473Z" fill="black"/>
<path d="M125.345 40.2619C125.084 40.2619 124.954 40.1864 124.954 40.0353C124.954 39.9118 125.067 39.8294 125.293 39.7882L125.893 39.7058C126.258 39.6509 126.493 39.5754 126.597 39.4793C126.719 39.3832 126.78 39.191 126.78 38.9026V26.793C126.78 26.5046 126.719 26.3124 126.597 26.2163C126.493 26.1202 126.258 26.0447 125.893 25.9898L125.293 25.9074C125.067 25.8662 124.954 25.7838 124.954 25.6603C124.954 25.5092 125.084 25.4337 125.345 25.4337H134.113C134.513 25.4337 134.73 25.5916 134.765 25.9074L134.974 29.3261C135.009 29.5595 134.896 29.6762 134.635 29.6762C134.426 29.6762 134.304 29.587 134.269 29.4085L134.113 28.6465C133.921 27.7129 133.53 27.0332 132.938 26.6076C132.347 26.1683 131.529 25.9486 130.486 25.9486C129.79 25.9486 129.303 26.031 129.024 26.1957C128.763 26.3467 128.633 26.6213 128.633 27.0195V31.9828C128.633 32.175 128.755 32.2711 128.998 32.2711H130.303C131.068 32.2711 131.538 31.9485 131.712 31.3032L131.973 30.2735C132.043 30.0675 132.19 29.9783 132.417 30.0057C132.608 30.0332 132.704 30.1499 132.704 30.3558V34.9896C132.704 35.1956 132.608 35.3123 132.417 35.3398C132.19 35.3672 132.043 35.278 131.973 35.072L131.712 34.0629C131.59 33.5823 131.416 33.2666 131.19 33.1155C130.981 32.9645 130.677 32.889 130.277 32.889H128.998C128.755 32.889 128.633 32.9851 128.633 33.1773V38.3466C128.633 38.8409 128.789 39.1978 129.103 39.4175C129.433 39.6372 130.025 39.747 130.877 39.747C131.747 39.747 132.486 39.5754 133.095 39.2322C133.721 38.8752 134.156 38.2161 134.4 37.2551L134.713 36.04C134.765 35.8615 134.896 35.7722 135.104 35.7722C135.348 35.7722 135.452 35.8889 135.417 36.1224L135.157 39.7882C135.122 40.104 134.904 40.2619 134.504 40.2619H125.345Z" fill="black"/>
<path d="M117.644 40.4472C116.704 40.4472 115.869 40.2756 115.138 39.9324C114.425 39.5754 113.869 39.088 113.468 38.4701C113.068 37.8386 112.868 37.1178 112.868 36.3077V26.793C112.868 26.5046 112.807 26.3124 112.686 26.2163C112.581 26.1202 112.346 26.0447 111.981 25.9898L111.381 25.9074C111.155 25.8662 111.042 25.7838 111.042 25.6603C111.042 25.5092 111.172 25.4337 111.433 25.4337H116.208C116.469 25.4337 116.6 25.5161 116.6 25.6809C116.6 25.8044 116.504 25.8799 116.313 25.9074L115.608 25.9898C115.26 26.031 115.025 26.1065 114.904 26.2163C114.782 26.3262 114.721 26.5252 114.721 26.8136V36.3283C114.721 37.3718 115.017 38.1818 115.608 38.7585C116.2 39.3351 117.026 39.6234 118.087 39.6234C119.166 39.6234 120.001 39.3351 120.592 38.7585C121.184 38.1818 121.479 37.3718 121.479 36.3283V27.2255C121.479 26.484 121.184 26.0722 120.592 25.9898L119.888 25.9074C119.696 25.8799 119.601 25.8044 119.601 25.6809C119.601 25.5161 119.731 25.4337 119.992 25.4337H123.75C124.011 25.4337 124.141 25.5092 124.141 25.6603C124.141 25.7838 124.028 25.8662 123.802 25.9074L123.202 25.9898C122.61 26.0722 122.315 26.4772 122.315 27.2049V36.3077C122.315 37.5571 121.888 38.5594 121.036 39.3145C120.183 40.0697 119.053 40.4472 117.644 40.4472Z" fill="black"/>
<path d="M93.6235 10.276C94.5177 9.26484 95.59 8.96496 96.539 9.17461C97.3783 9.36008 98.0904 9.93996 98.4534 10.7061C99.2726 9.97524 100.067 9.77087 100.798 9.95571C101.471 10.1257 102.022 10.6105 102.444 11.1506C103.637 9.92406 104.873 9.6506 105.943 9.9263C106.963 10.1892 107.777 10.9385 108.214 11.6934C109.456 11.4708 110.257 11.701 110.679 12.2661C111.053 12.7665 111.044 13.4269 110.925 13.957C111.452 14.3569 111.798 14.7494 111.982 15.1366C112.192 15.5774 112.186 15.998 112.023 16.3672C111.866 16.7234 111.575 17.0055 111.257 17.2174C111.03 17.369 110.778 17.4914 110.528 17.5847C110.701 18.2112 110.71 18.7488 110.571 19.1992C110.409 19.7268 110.057 20.0972 109.62 20.3325C108.852 20.7452 107.813 20.7517 106.943 20.5301C106.718 21.0703 106.436 21.49 106.095 21.7901C105.693 22.1432 105.227 22.3165 104.721 22.3402C103.789 22.3838 102.738 21.9191 101.667 21.2169C99.2185 23.0996 96.347 23.5841 94.3086 23.5841C92.4423 23.5841 90.8757 23.5936 89.1606 23.5984C87.4247 23.6033 85.5391 23.6035 83.0433 23.5841L83.0483 22.9611C85.5414 22.9805 87.4245 22.9804 89.1589 22.9755C90.1589 22.9726 91.1103 22.9683 92.1008 22.9652C92.4799 23.3475 93.0055 23.5844 93.5865 23.5844C94.1821 23.5843 94.7189 23.3351 95.1 22.9357C97.01 22.8156 99.4123 22.2349 101.457 20.5902L101.637 20.4456L101.827 20.5751C102.946 21.3353 103.92 21.754 104.692 21.718C105.065 21.7005 105.394 21.5765 105.683 21.3223C105.977 21.0638 106.245 20.6561 106.462 20.0477L106.564 19.7621L106.853 19.8563C107.675 20.1253 108.673 20.134 109.324 19.7837C109.639 19.6145 109.868 19.3653 109.976 19.0162C110.085 18.6603 110.079 18.1636 109.845 17.4864L109.737 17.1744L110.055 17.0849C110.347 17.0027 110.654 16.8709 110.911 16.6993C111.171 16.5259 111.36 16.3259 111.453 16.1155C111.54 15.9181 111.554 15.6872 111.42 15.4046C111.279 15.1094 110.971 14.7488 110.39 14.3371L110.208 14.2079L110.272 13.9939C110.42 13.4952 110.425 12.9674 110.18 12.6389C109.956 12.339 109.411 12.0695 108.113 12.348L107.874 12.3993L107.767 12.1793C107.435 11.4928 106.699 10.7643 105.788 10.5294C104.908 10.3028 103.798 10.5197 102.651 11.8457L102.384 12.154L102.157 11.8156C101.745 11.2022 101.226 10.7061 100.646 10.5596C100.1 10.4217 99.401 10.5722 98.5547 11.4792L98.1665 11.8953L98.0252 11.3439C97.8278 10.5733 97.1856 9.95558 96.4047 9.783C95.6438 9.61486 94.7058 9.86275 93.8988 10.9213L93.6708 11.2208L93.4194 10.9407C93.0656 10.5466 92.4977 10.2667 91.9668 10.33C91.471 10.3893 90.8975 10.7645 90.5411 11.9164L90.4805 12.1127L90.2763 12.1341C89.4803 12.2181 89.0734 12.5492 88.9399 12.8996C88.8057 13.2521 88.8956 13.7603 89.3914 14.3117L89.5674 14.5073L89.404 14.7135C89.112 15.0822 88.8084 15.6322 88.7722 16.1072C88.7549 16.3347 88.8 16.5249 88.916 16.6771C89.0334 16.8311 89.2535 16.9859 89.6617 17.0816L89.5194 17.688C89.0171 17.5702 88.651 17.3568 88.4208 17.055C88.1894 16.7515 88.1253 16.3979 88.151 16.06C88.1933 15.504 88.4808 14.9391 88.7642 14.5312C88.3003 13.9278 88.1354 13.2622 88.3579 12.6779C88.5875 12.0752 89.1848 11.6752 90.0094 11.5415C90.4228 10.368 91.1176 9.80416 91.8931 9.7116C92.54 9.63441 93.1692 9.89723 93.6235 10.276Z" fill="black"/>
<path d="M69.8651 40.0353C69.8651 40.1864 69.9956 40.2619 70.2566 40.2619H76.1278C76.3888 40.2619 76.5193 40.1864 76.5193 40.0353C76.5193 39.8843 76.4062 39.8019 76.18 39.7882L75.0058 39.644C74.6752 39.6029 74.4404 39.5342 74.3012 39.4381C74.1795 39.3283 74.1186 39.1292 74.1186 38.8409V33.8158C74.1186 33.5961 74.1447 33.4039 74.1968 33.2391C74.249 33.0606 74.336 32.8753 74.4578 32.683L77.8762 27.2666C78.1719 26.8136 78.4068 26.4909 78.5807 26.2987C79.7501 25.0067 81.443 23.6589 83.0433 23.5841L83.0483 22.9611C79.4567 22.6181 77.9058 25.7753 77.0151 27.246L73.9359 32.2094C73.8663 32.3055 73.7793 32.3535 73.675 32.3535C73.5706 32.3535 73.4836 32.3055 73.414 32.2094L70.2044 26.8136C70.0304 26.5252 70.0043 26.3124 70.1261 26.1751C70.2479 26.0378 70.4566 25.9623 70.7524 25.9486L71.2482 25.9074C71.5439 25.8937 71.6918 25.8113 71.6918 25.6603C71.6918 25.5092 71.57 25.4337 71.3264 25.4337H66.8643C66.6033 25.4337 66.4728 25.5024 66.4728 25.6397C66.4728 25.777 66.5946 25.8662 66.8382 25.9074L67.073 25.9486C67.3688 26.0035 67.5949 26.0927 67.7515 26.2163C67.908 26.3399 68.0472 26.5184 68.169 26.7518L72.0049 33.0949C72.1789 33.3833 72.2658 33.6785 72.2658 33.9805V38.8409C72.2658 39.1292 72.205 39.3283 72.0832 39.4381C71.9614 39.5342 71.7266 39.6029 71.3786 39.644L70.2044 39.7882C69.9782 39.8019 69.8651 39.8843 69.8651 40.0353Z" fill="black"/>
<path d="M64.6311 40.4472C64.3528 40.4472 64.1179 40.2825 63.9266 39.953L56.8549 27.8433C56.8028 27.7472 56.7332 27.706 56.6462 27.7197C56.5766 27.7335 56.5418 27.7952 56.5418 27.9051V38.4907C56.5418 38.8752 56.6201 39.1704 56.7767 39.3763C56.9506 39.5685 57.2551 39.6921 57.69 39.747L58.0292 39.7882C58.2554 39.8019 58.3684 39.8843 58.3684 40.0353C58.3684 40.1864 58.238 40.2619 57.977 40.2619H54.2455C53.9845 40.2619 53.8541 40.1864 53.8541 40.0353C53.8541 39.8843 53.9671 39.8019 54.1933 39.7882L54.5325 39.747C54.9848 39.6921 55.298 39.5685 55.4719 39.3763C55.6459 39.1704 55.7329 38.8752 55.7329 38.4907V26.793C55.7329 26.5046 55.672 26.3124 55.5502 26.2163C55.4458 26.1202 55.1936 26.0447 54.7935 25.9898L54.1933 25.9074C53.9671 25.8662 53.8541 25.7838 53.8541 25.6603C53.8541 25.5092 53.9845 25.4337 54.2455 25.4337H57.0376C57.4725 25.4337 57.777 25.5847 57.9509 25.8868L64.1092 36.5754C64.1614 36.6578 64.2223 36.6921 64.2919 36.6784C64.3789 36.6647 64.4224 36.6166 64.4224 36.5342V27.2049C64.4224 26.7655 64.3267 26.4635 64.1353 26.2987C63.944 26.1202 63.7004 26.0104 63.4047 25.9692L62.935 25.9074C62.7088 25.8662 62.5958 25.7838 62.5958 25.6603C62.5958 25.5092 62.7262 25.4337 62.9872 25.4337H66.7187C66.9797 25.4337 67.1101 25.5092 67.1101 25.6603C67.1101 25.8113 66.9971 25.8937 66.7709 25.9074L66.4317 25.9486C65.9794 26.0035 65.6662 26.1202 65.4923 26.2987C65.3183 26.4635 65.2313 26.7655 65.2313 27.2049V39.7882C65.2313 40.0353 65.1704 40.207 65.0487 40.3031C64.9443 40.3992 64.8051 40.4472 64.6311 40.4472Z" fill="black"/>
<path fill-rule="evenodd" clip-rule="evenodd" d="M82.5559 39.4999C83.5301 40.1315 84.7218 40.4473 86.1309 40.4473C86.8441 40.4473 87.4704 40.3923 88.0097 40.2825C88.549 40.1864 89.0274 40.056 89.4449 39.8912C89.7058 39.7814 89.8885 39.6852 89.9929 39.6029C90.0972 39.5068 90.1494 39.3832 90.1494 39.2322V33.651C90.1494 33.3627 90.1842 33.1567 90.2538 33.0332C89.9253 33.0332 89.3812 32.9222 88.8635 32.8166C88.5801 32.7588 88.3047 32.7026 88.0767 32.6671C87.33 32.5507 87.0179 32.6101 87.4095 32.8272C87.7748 32.8547 88.0097 32.9233 88.1141 33.0332C88.2358 33.143 88.2967 33.3421 88.2967 33.6304V38.1406C88.2967 38.8134 88.1141 39.2734 87.7487 39.5205C87.3834 39.7676 86.8441 39.8912 86.1309 39.8912C84.8087 39.8912 83.7215 39.2871 82.869 38.0789C82.034 36.8569 81.6165 35.0858 81.6165 32.7654C81.6165 30.5138 82.0253 28.7975 82.8429 27.6168C83.678 26.4223 84.7305 25.825 86.0004 25.825C86.8528 25.825 87.5226 26.0378 88.0097 26.4635C88.4968 26.8891 88.9317 27.6717 89.3144 28.8113L89.5232 29.4291C89.5754 29.6076 89.6971 29.6968 89.8885 29.6968C90.0972 29.6968 90.2016 29.5801 90.2016 29.3467L90.1233 26.2163C90.1233 26.0241 90.0103 25.8799 89.7841 25.7838C89.3666 25.6191 88.8795 25.4886 88.3228 25.3925C87.7661 25.2827 87.1486 25.2278 86.4701 25.2278C85.1306 25.2278 83.9389 25.5436 82.8951 26.1751C81.8687 26.793 81.0598 27.6717 80.4683 28.8113C79.8769 29.9371 79.5811 31.2552 79.5811 32.7654C79.5811 34.3306 79.8334 35.6899 80.3379 36.8432C80.8424 37.9828 81.5817 38.8683 82.5559 39.4999Z" fill="black"/>
<path fill-rule="evenodd" clip-rule="evenodd" d="M100.832 38.3037C101.428 39.2021 102.189 39.7192 103.115 39.855C103.207 40.0667 103.57 40.5051 103.569 40.5735C103.37 40.5069 102.957 40.4458 102.745 40.3876C102.608 40.3502 102.479 40.315 102.372 40.2825C101.468 40.0491 100.65 39.5823 99.9194 38.8821C99.6291 38.5915 99.3633 38.2736 99.122 37.9285C99.6097 38.0759 100.635 38.3573 100.832 38.3037ZM99.6846 32.8272C99.6846 34.7494 99.9124 36.276 100.368 37.407C100.225 37.3986 99.0225 36.9609 98.4392 36.743C98.3633 36.5817 98.2913 36.416 98.2233 36.2459C97.8232 35.2025 97.6231 34.0629 97.6231 32.8272C97.6231 31.7563 97.771 30.7609 98.0667 29.841C98.3798 28.9211 98.8061 28.1179 99.3453 27.4314C99.902 26.7312 100.546 26.1889 101.276 25.8044C102.007 25.42 102.79 25.2278 103.625 25.2278C104.46 25.2278 105.234 25.42 105.947 25.8044C106.678 26.1889 107.322 26.7312 107.878 27.4314C108.435 28.1179 108.861 28.9211 109.157 29.841C109.47 30.7609 109.627 31.7563 109.627 32.8272C109.627 34.0904 109.409 35.2574 108.974 36.3283C108.557 37.3855 107.974 38.2642 107.226 38.9644C106.635 39.5305 105.976 39.935 105.249 40.178C105.109 40.0445 104.822 39.7589 104.8 39.6854C105.49 39.4225 106.064 38.9076 106.521 38.1406C107.217 36.9736 107.565 35.2025 107.565 32.8272C107.565 30.452 107.217 28.6877 106.521 27.5344C105.826 26.3674 104.86 25.7838 103.625 25.7838C102.407 25.7838 101.442 26.3674 100.728 27.5344C100.032 28.6877 99.6846 30.452 99.6846 32.8272Z" fill="black"/>
<path d="M85.0818 33.651C85.5148 33.1842 86.8792 32.2283 88.5947 32.426C90.7391 32.6732 96.2536 36.2305 97.965 37.185C98.2042 37.3183 98.5213 37.4529 98.8908 37.5772C99.4001 37.7486 100.009 37.9007 100.65 38.0036C101.146 38.0834 101.662 38.1337 102.166 38.1406C102.229 38.1415 102.29 38.1419 102.351 38.1418C102.264 38.0386 102.175 37.9349 102.083 37.8302C101.516 37.8322 100.975 37.7617 100.473 37.6516C99.7438 37.4917 99.0972 37.2484 98.5771 37.023C98.3471 36.9233 98.1418 36.827 97.965 36.743C96.6357 36.1115 91.4562 32.6556 89.1247 32.2712C87.2595 31.9636 85.4524 33.0103 85.0818 33.651Z" fill="black"/>
<path d="M103.026 38.1183C102.945 38.0153 102.859 37.9053 102.77 37.7913C102.537 37.8171 102.308 37.8294 102.083 37.8302C102.175 37.9349 102.264 38.0386 102.351 38.1418C102.585 38.1413 102.81 38.1336 103.026 38.1183Z" fill="black"/>
<path d="M104.439 39.7975C104.182 39.86 103.911 39.8912 103.625 39.8912C103.587 39.8912 103.549 39.8906 103.512 39.8895C103.574 40.0536 103.624 40.0766 103.761 40.3109C103.897 40.5452 104.328 41.1076 104.504 41.4903C104.848 42.2372 105.289 42.7892 105.828 43.1464C106.367 43.5035 106.938 43.7239 107.539 43.8075C108.161 43.9022 108.729 43.9138 109.243 43.8423C109.843 43.7588 110.326 43.6288 110.693 43.4523C111.08 43.2869 111.392 43.104 111.63 42.9036C111.746 42.7899 111.793 42.6857 111.772 42.5911C111.748 42.4829 111.673 42.4236 111.547 42.4133C111.421 42.4029 111.297 42.4411 111.175 42.5278C110.701 42.8586 110.251 43.0096 109.694 43.1313C109.096 43.2618 108.663 43.3764 107.813 43.1313C106.963 42.8861 106.597 42.5647 106.113 41.8234C105.708 41.2018 105.059 40.4669 104.439 39.7975Z" fill="black"/>
<path fill-rule="evenodd" clip-rule="evenodd" d="M107.243 32.611C107.638 33.7009 107.599 34.6679 106.641 36.1746C106.54 36.3334 106.415 36.4852 106.286 36.6212C106.055 36.8624 105.811 37.0539 105.66 37.1464C105.134 37.4708 104.965 37.5522 104.634 37.694C104.01 37.961 103.441 38.0888 103.026 38.1183C102.945 38.0153 102.859 37.9053 102.77 37.7913C103.051 37.76 103.336 37.7088 103.625 37.6341C104.136 37.5018 104.747 37.1634 105.134 36.8955C105.408 36.7058 105.687 36.3578 105.708 36.3283C106.404 35.3773 106.823 34.3635 106.614 33.4295C106.546 33.123 106.272 32.7164 105.836 32.6645C105.349 32.6064 104.575 32.8558 103.928 33.6304C103.338 32.6671 102.372 32.2044 101.395 32.4977C101.165 32.5666 100.838 33.0148 100.728 33.4952C100.6 34.0578 100.713 35.1031 101.395 36.12C101.544 36.3422 101.82 36.6633 102.112 37.0039C102.301 37.2238 102.497 37.4519 102.671 37.6666C102.631 37.6786 102.184 37.6918 101.965 37.6969C101.916 37.6421 101.865 37.585 101.813 37.5264C101.551 37.2338 101.255 36.9027 101.033 36.6212C100.992 36.5695 100.952 36.5187 100.912 36.4687C100.221 35.5994 99.6974 34.9413 99.9194 33.0999C100.019 32.2763 100.668 31.7642 101.457 31.6505C102.417 31.5121 103.552 31.9531 104.031 33.0332C104.309 32.412 105.136 31.8295 105.973 31.8384C106.436 31.8433 107.066 32.1239 107.243 32.611Z" fill="black"/>
<path fill-rule="evenodd" clip-rule="evenodd" d="M104.439 39.7975C104.182 39.86 103.911 39.8912 103.625 39.8912C103.587 39.8912 103.549 39.8906 103.512 39.8895C103.391 39.5718 103.269 39.3972 103.041 39.0716C102.973 38.9748 102.896 38.8646 102.807 38.7334C102.709 38.5898 102.601 38.447 102.485 38.3037C102.683 38.2957 103.092 38.2754 103.137 38.2584C103.209 38.3505 103.276 38.4347 103.334 38.5083C103.409 38.6028 103.47 38.6798 103.512 38.7334C103.858 39.1745 104.183 39.523 104.373 39.7261C104.397 39.7524 104.419 39.7762 104.439 39.7975Z" fill="black"/>
<circle cx="91.1729" cy="24.9888" r="1" stroke="black" stroke-width="0.505019"/>
<circle cx="91.1729" cy="24.9888" r="1" stroke="black" stroke-width="0.505019"/>
<path d="M94.9429 21.492C94.9429 20.7429 94.3357 20.1355 93.5866 20.1355C92.8374 20.1355 92.23 20.7429 92.23 21.492C92.2301 22.2412 92.8374 22.8483 93.5866 22.8483V23.3632L93.4903 23.3609C92.5334 23.3125 91.7662 22.5452 91.7177 21.5883L91.7151 21.492C91.7151 20.4585 92.5531 19.6206 93.5866 19.6206L93.6829 19.6231C94.6716 19.6733 95.4577 20.4908 95.4577 21.492L95.4555 21.5883C95.4053 22.577 94.5877 23.3632 93.5866 23.3632V22.8483C94.3357 22.8483 94.9428 22.2411 94.9429 21.492Z" fill="black"/>
<path d="M94.9429 21.492C94.9429 20.7429 94.3357 20.1355 93.5866 20.1355C92.8374 20.1355 92.23 20.7429 92.23 21.492C92.2301 22.2412 92.8374 22.8483 93.5866 22.8483V23.3632L93.4903 23.3609C92.5334 23.3125 91.7662 22.5452 91.7177 21.5883L91.7151 21.492C91.7151 20.4585 92.5531 19.6206 93.5866 19.6206L93.6829 19.6231C94.6716 19.6733 95.4577 20.4908 95.4577 21.492L95.4555 21.5883C95.4053 22.577 94.5877 23.3632 93.5866 23.3632V22.8483C94.3357 22.8483 94.9428 22.2411 94.9429 21.492Z" fill="black"/>
<path d="M21.2901 59.2265L22.0941 58.8785C22.3421 59.1825 22.5981 59.5185 22.8621 59.8865C23.1261 60.2545 23.3661 60.6145 23.5821 60.9665C23.8061 61.3185 23.9821 61.6305 24.1101 61.9025L23.2341 62.3225C23.1221 62.0505 22.9621 61.7385 22.7541 61.3865C22.5461 61.0265 22.3141 60.6585 22.0581 60.2825C21.8021 59.8985 21.5461 59.5465 21.2901 59.2265ZM18.0021 53.1665H18.9261V57.4625H18.0021V53.1665ZM13.1781 57.1745H23.8341V58.0385H13.1781V57.1745ZM14.3661 54.6065H22.8741V55.4585H14.3661V54.6065ZM19.5141 57.6425H20.4501V63.0785C20.4501 63.3425 20.4141 63.5465 20.3421 63.6905C20.2781 63.8345 20.1541 63.9465 19.9701 64.0265C19.7781 64.0985 19.5301 64.1425 19.2261 64.1585C18.9301 64.1745 18.5541 64.1825 18.0981 64.1825C18.0821 64.0545 18.0421 63.9025 17.9781 63.7265C17.9141 63.5505 17.8501 63.4025 17.7861 63.2825C18.1301 63.2905 18.4381 63.2945 18.7101 63.2945C18.9901 63.2945 19.1741 63.2905 19.2621 63.2825C19.3661 63.2745 19.4341 63.2585 19.4661 63.2345C19.4981 63.2025 19.5141 63.1465 19.5141 63.0665V57.6425ZM14.7981 58.9385L15.6981 59.1785C15.5461 59.5385 15.3581 59.9105 15.1341 60.2945C14.9181 60.6705 14.6781 61.0305 14.4141 61.3745C14.1501 61.7185 13.8741 62.0225 13.5861 62.2865C13.4981 62.1985 13.3821 62.1065 13.2381 62.0105C13.0941 61.9065 12.9701 61.8265 12.8661 61.7705C13.1461 61.5225 13.4101 61.2385 13.6581 60.9185C13.9061 60.5985 14.1301 60.2665 14.3301 59.9225C14.5301 59.5785 14.6861 59.2505 14.7981 58.9385ZM16.8141 57.5345H17.7141V58.7585C17.7141 59.1825 17.6861 59.6345 17.6301 60.1145C17.5821 60.5865 17.4701 61.0665 17.2941 61.5545C17.1181 62.0345 16.8501 62.5065 16.4901 62.9705C16.1381 63.4345 15.6621 63.8665 15.0621 64.2665C15.0221 64.1945 14.9621 64.1185 14.8821 64.0385C14.8021 63.9585 14.7181 63.8785 14.6301 63.7985C14.5501 63.7265 14.4701 63.6665 14.3901 63.6185C14.9421 63.2505 15.3821 62.8585 15.7101 62.4425C16.0381 62.0265 16.2781 61.6065 16.4301 61.1825C16.5901 60.7505 16.6941 60.3265 16.7421 59.9105C16.7901 59.4945 16.8141 59.1025 16.8141 58.7345V57.5345ZM27.1581 54.8585C27.1421 54.9545 27.1261 55.0745 27.1101 55.2185C27.1021 55.3625 27.0901 55.5065 27.0741 55.6505C27.0661 55.7945 27.0621 55.9185 27.0621 56.0225C27.0541 56.2705 27.0501 56.5545 27.0501 56.8745C27.0581 57.1865 27.0661 57.5145 27.0741 57.8585C27.0901 58.1945 27.1141 58.5305 27.1461 58.8665C27.2101 59.5305 27.3181 60.1145 27.4701 60.6185C27.6221 61.1145 27.8061 61.5025 28.0221 61.7825C28.2461 62.0625 28.4981 62.2025 28.7781 62.2025C28.9301 62.2025 29.0781 62.1345 29.2221 61.9985C29.3661 61.8545 29.5021 61.6665 29.6301 61.4345C29.7661 61.1945 29.8861 60.9305 29.9901 60.6425C30.1021 60.3465 30.1941 60.0505 30.2661 59.7545L31.0221 60.6065C30.7821 61.2865 30.5381 61.8265 30.2901 62.2265C30.0501 62.6185 29.8021 62.9025 29.5461 63.0785C29.2981 63.2545 29.0381 63.3425 28.7661 63.3425C28.3901 63.3425 28.0261 63.2065 27.6741 62.9345C27.3221 62.6545 27.0181 62.2065 26.7621 61.5905C26.5061 60.9665 26.3221 60.1385 26.2101 59.1065C26.1701 58.7545 26.1381 58.3745 26.1141 57.9665C26.0981 57.5585 26.0861 57.1705 26.0781 56.8025C26.0781 56.4345 26.0781 56.1345 26.0781 55.9025C26.0781 55.7665 26.0741 55.5905 26.0661 55.3745C26.0581 55.1585 26.0341 54.9785 25.9941 54.8345L27.1581 54.8585ZM33.4101 55.1945C33.6261 55.4665 33.8301 55.7865 34.0221 56.1545C34.2221 56.5145 34.4021 56.9025 34.5621 57.3185C34.7301 57.7265 34.8781 58.1505 35.0061 58.5905C35.1421 59.0305 35.2501 59.4705 35.3301 59.9105C35.4181 60.3425 35.4821 60.7585 35.5221 61.1585L34.5621 61.5545C34.5141 61.0105 34.4301 60.4585 34.3101 59.8985C34.1901 59.3305 34.0421 58.7825 33.8661 58.2545C33.6901 57.7185 33.4861 57.2145 33.2541 56.7425C33.0221 56.2705 32.7621 55.8625 32.4741 55.5185L33.4101 55.1945ZM18.5781 68.7905C18.5621 68.9265 18.5461 69.0905 18.5301 69.2825C18.5221 69.4665 18.5141 69.6305 18.5061 69.7745C18.4741 70.9985 18.3661 72.0705 18.1821 72.9905C17.9981 73.9025 17.7421 74.7025 17.4141 75.3905C17.0941 76.0705 16.7021 76.6665 16.2381 77.1785C15.7821 77.6905 15.2581 78.1505 14.6661 78.5585L13.7901 77.8505C13.9821 77.7465 14.1901 77.6145 14.4141 77.4545C14.6381 77.2945 14.8421 77.1305 15.0261 76.9625C15.4021 76.6265 15.7381 76.2385 16.0341 75.7985C16.3381 75.3585 16.5981 74.8545 16.8141 74.2865C17.0381 73.7185 17.2101 73.0665 17.3301 72.3305C17.4581 71.5865 17.5261 70.7385 17.5341 69.7865C17.5341 69.6985 17.5301 69.5945 17.5221 69.4745C17.5141 69.3545 17.5021 69.2345 17.4861 69.1145C17.4781 68.9945 17.4661 68.8865 17.4501 68.7905H18.5781ZM22.7421 71.2865C22.7261 71.3905 22.7101 71.4945 22.6941 71.5985C22.6861 71.7025 22.6821 71.7945 22.6821 71.8745C22.6741 72.0985 22.6581 72.4065 22.6341 72.7985C22.6181 73.1905 22.5901 73.6185 22.5501 74.0825C22.5181 74.5385 22.4741 74.9985 22.4181 75.4625C22.3701 75.9265 22.3061 76.3545 22.2261 76.7465C22.1461 77.1305 22.0541 77.4385 21.9501 77.6705C21.8301 77.9185 21.6661 78.1025 21.4581 78.2225C21.2581 78.3425 20.9941 78.4025 20.6661 78.4025C20.3621 78.4025 20.0421 78.3905 19.7061 78.3665C19.3701 78.3505 19.0461 78.3345 18.7341 78.3185L18.6141 77.3225C18.9421 77.3625 19.2581 77.3945 19.5621 77.4185C19.8741 77.4425 20.1541 77.4545 20.4021 77.4545C20.5781 77.4545 20.7221 77.4265 20.8341 77.3705C20.9461 77.3145 21.0341 77.2105 21.0981 77.0585C21.1941 76.8745 21.2741 76.6225 21.3381 76.3025C21.4021 75.9825 21.4581 75.6225 21.5061 75.2225C21.5541 74.8225 21.5941 74.4185 21.6261 74.0105C21.6581 73.6025 21.6781 73.2145 21.6861 72.8465C21.7021 72.4785 21.7101 72.1665 21.7101 71.9105H15.3861C15.1461 71.9105 14.9101 71.9145 14.6781 71.9225C14.4461 71.9225 14.2221 71.9345 14.0061 71.9585V70.9385C14.2141 70.9625 14.4381 70.9825 14.6781 70.9985C14.9181 71.0065 15.1501 71.0105 15.3741 71.0105H21.3021C21.4621 71.0105 21.6021 71.0065 21.7221 70.9985C21.8501 70.9825 21.9661 70.9665 22.0701 70.9505L22.7421 71.2865ZM30.7701 77.9825C30.7941 77.8865 30.8101 77.7825 30.8181 77.6705C30.8341 77.5505 30.8421 77.4305 30.8421 77.3105C30.8421 77.2305 30.8421 77.0545 30.8421 76.7825C30.8421 76.5105 30.8421 76.1785 30.8421 75.7865C30.8421 75.3865 30.8421 74.9545 30.8421 74.4905C30.8421 74.0265 30.8421 73.5625 30.8421 73.0985C30.8421 72.6265 30.8421 72.1865 30.8421 71.7785C30.8421 71.3705 30.8421 71.0185 30.8421 70.7225C30.8421 70.4265 30.8421 70.2265 30.8421 70.1225C30.8421 69.8905 30.8341 69.6985 30.8181 69.5465C30.8021 69.3865 30.7901 69.2825 30.7821 69.2345H31.8861C31.8861 69.2825 31.8781 69.3865 31.8621 69.5465C31.8461 69.7065 31.8381 69.8985 31.8381 70.1225C31.8381 70.2345 31.8381 70.4345 31.8381 70.7225C31.8381 71.0025 31.8381 71.3465 31.8381 71.7545C31.8381 72.1545 31.8381 72.5865 31.8381 73.0505C31.8381 73.5065 31.8381 73.9585 31.8381 74.4065C31.8381 74.8545 31.8381 75.2705 31.8381 75.6545C31.8381 76.0305 31.8381 76.3425 31.8381 76.5905C31.8381 76.8385 31.8381 76.9905 31.8381 77.0465C32.2141 76.8705 32.6141 76.6385 33.0381 76.3505C33.4621 76.0625 33.8741 75.7265 34.2741 75.3425C34.6821 74.9585 35.0381 74.5425 35.3421 74.0945L35.9061 74.9105C35.5621 75.3745 35.1581 75.8185 34.6941 76.2425C34.2381 76.6665 33.7621 77.0465 33.2661 77.3825C32.7701 77.7185 32.2861 78.0025 31.8141 78.2345C31.7181 78.2905 31.6341 78.3425 31.5621 78.3905C31.4981 78.4385 31.4461 78.4785 31.4061 78.5105L30.7701 77.9825ZM25.2741 77.9225C25.7781 77.5625 26.2061 77.1265 26.5581 76.6145C26.9101 76.1025 27.1781 75.5545 27.3621 74.9705C27.4501 74.6985 27.5181 74.3585 27.5661 73.9505C27.6141 73.5425 27.6501 73.1105 27.6741 72.6545C27.6981 72.1905 27.7101 71.7425 27.7101 71.3105C27.7181 70.8705 27.7221 70.4825 27.7221 70.1465C27.7221 69.9705 27.7141 69.8145 27.6981 69.6785C27.6821 69.5345 27.6621 69.3985 27.6381 69.2705H28.7421C28.7341 69.3185 28.7261 69.3905 28.7181 69.4865C28.7101 69.5745 28.7021 69.6745 28.6941 69.7865C28.6861 69.8985 28.6821 70.0145 28.6821 70.1345C28.6821 70.4705 28.6781 70.8665 28.6701 71.3225C28.6621 71.7705 28.6421 72.2425 28.6101 72.7385C28.5861 73.2265 28.5501 73.6905 28.5021 74.1305C28.4621 74.5705 28.3981 74.9385 28.3101 75.2345C28.1341 75.8745 27.8581 76.4785 27.4821 77.0465C27.1141 77.6145 26.6781 78.1105 26.1741 78.5345L25.2741 77.9225ZM41.4621 72.7385C41.8461 72.9625 42.2501 73.2105 42.6741 73.4825C43.0981 73.7545 43.5181 74.0385 43.9341 74.3345C44.3581 74.6225 44.7621 74.9065 45.1461 75.1865C45.5301 75.4665 45.8701 75.7305 46.1661 75.9785L45.4581 76.8065C45.1861 76.5585 44.8581 76.2865 44.4741 75.9905C44.0981 75.6865 43.6981 75.3825 43.2741 75.0785C42.8501 74.7665 42.4261 74.4665 42.0021 74.1785C41.5781 73.8905 41.1821 73.6305 40.8141 73.3985L41.4621 72.7385ZM46.9581 70.5425C46.9021 70.6305 46.8501 70.7385 46.8021 70.8665C46.7541 70.9865 46.7101 71.0945 46.6701 71.1905C46.5581 71.5985 46.3981 72.0385 46.1901 72.5105C45.9821 72.9825 45.7381 73.4585 45.4581 73.9385C45.1781 74.4105 44.8581 74.8665 44.4981 75.3065C43.9621 75.9705 43.2901 76.6105 42.4821 77.2265C41.6821 77.8345 40.7141 78.3465 39.5781 78.7625L38.7141 78.0185C39.4581 77.7865 40.1341 77.5025 40.7421 77.1665C41.3581 76.8225 41.9101 76.4465 42.3981 76.0385C42.8861 75.6305 43.3101 75.2105 43.6701 74.7785C43.9821 74.4105 44.2661 74.0065 44.5221 73.5665C44.7861 73.1265 45.0141 72.6905 45.2061 72.2585C45.3981 71.8185 45.5381 71.4105 45.6261 71.0345H41.1741L41.5581 70.1825H45.3741C45.5341 70.1825 45.6821 70.1745 45.8181 70.1585C45.9541 70.1345 46.0701 70.1025 46.1661 70.0625L46.9581 70.5425ZM42.9141 68.8145C42.8101 68.9745 42.7101 69.1425 42.6141 69.3185C42.5181 69.4945 42.4381 69.6385 42.3741 69.7505C42.1341 70.1905 41.8221 70.6745 41.4381 71.2025C41.0621 71.7225 40.6181 72.2425 40.1061 72.7625C39.6021 73.2825 39.0301 73.7665 38.3901 74.2145L37.5861 73.5905C38.2741 73.1665 38.8701 72.6985 39.3741 72.1865C39.8781 71.6745 40.3021 71.1745 40.6461 70.6865C40.9901 70.1985 41.2541 69.7745 41.4381 69.4145C41.5021 69.3105 41.5741 69.1665 41.6541 68.9825C41.7341 68.7905 41.7901 68.6185 41.8221 68.4665L42.9141 68.8145ZM54.0021 68.7425C53.9541 68.9825 53.8901 69.2665 53.8101 69.5945C53.7381 69.9145 53.6181 70.2785 53.4501 70.6865C53.3061 71.0465 53.1261 71.4185 52.9101 71.8025C52.7021 72.1865 52.4781 72.5345 52.2381 72.8465C52.3901 72.7505 52.5621 72.6705 52.7541 72.6065C52.9461 72.5345 53.1421 72.4825 53.3421 72.4505C53.5501 72.4185 53.7381 72.4025 53.9061 72.4025C54.3701 72.4025 54.7621 72.5345 55.0821 72.7985C55.4021 73.0545 55.5621 73.4305 55.5621 73.9265C55.5621 74.0785 55.5621 74.2745 55.5621 74.5145C55.5621 74.7465 55.5621 74.9945 55.5621 75.2585C55.5701 75.5145 55.5781 75.7665 55.5861 76.0145C55.5941 76.2625 55.5981 76.4785 55.5981 76.6625H54.6741C54.6821 76.5025 54.6901 76.3145 54.6981 76.0985C54.7061 75.8825 54.7101 75.6545 54.7101 75.4145C54.7181 75.1745 54.7181 74.9465 54.7101 74.7305C54.7101 74.5145 54.7101 74.3305 54.7101 74.1785C54.7101 73.8265 54.6021 73.5705 54.3861 73.4105C54.1781 73.2425 53.9141 73.1585 53.5941 73.1585C53.2181 73.1585 52.8461 73.2425 52.4781 73.4105C52.1181 73.5705 51.8021 73.7785 51.5301 74.0345C51.3541 74.2025 51.1781 74.3945 51.0021 74.6105C50.8341 74.8185 50.6461 75.0425 50.4381 75.2825L49.6221 74.6825C50.1981 74.1225 50.6781 73.5985 51.0621 73.1105C51.4461 72.6225 51.7581 72.1705 51.9981 71.7545C52.2381 71.3305 52.4261 70.9505 52.5621 70.6145C52.6901 70.2785 52.7941 69.9425 52.8741 69.6065C52.9541 69.2625 53.0021 68.9465 53.0181 68.6585L54.0021 68.7425ZM49.8981 70.0385C50.2181 70.0785 50.5661 70.1105 50.9421 70.1345C51.3181 70.1585 51.6461 70.1705 51.9261 70.1705C52.4621 70.1705 53.0381 70.1585 53.6541 70.1345C54.2701 70.1025 54.8901 70.0585 55.5141 70.0025C56.1461 69.9465 56.7461 69.8665 57.3141 69.7625L57.3021 70.6505C56.8861 70.7225 56.4421 70.7825 55.9701 70.8305C55.4981 70.8705 55.0181 70.9065 54.5301 70.9385C54.0421 70.9625 53.5701 70.9825 53.1141 70.9985C52.6661 71.0065 52.2501 71.0105 51.8661 71.0105C51.6981 71.0105 51.5021 71.0105 51.2781 71.0105C51.0621 71.0025 50.8341 70.9945 50.5941 70.9865C50.3541 70.9705 50.1221 70.9545 49.8981 70.9385V70.0385ZM59.0661 72.9425C58.9621 72.9665 58.8461 73.0025 58.7181 73.0505C58.5981 73.0905 58.4741 73.1345 58.3461 73.1825C58.2261 73.2305 58.1101 73.2785 57.9981 73.3265C57.5821 73.4865 57.0981 73.6825 56.5461 73.9145C55.9941 74.1465 55.4301 74.4145 54.8541 74.7185C54.4541 74.9185 54.1021 75.1305 53.7981 75.3545C53.4941 75.5705 53.2541 75.7985 53.0781 76.0385C52.9021 76.2705 52.8141 76.5265 52.8141 76.8065C52.8141 77.0385 52.8661 77.2265 52.9701 77.3705C53.0821 77.5145 53.2381 77.6265 53.4381 77.7065C53.6381 77.7785 53.8661 77.8265 54.1221 77.8505C54.3861 77.8745 54.6741 77.8865 54.9861 77.8865C55.4501 77.8865 55.9781 77.8625 56.5701 77.8145C57.1701 77.7585 57.7341 77.6865 58.2621 77.5985L58.2381 78.5585C57.9341 78.5985 57.5901 78.6345 57.2061 78.6665C56.8301 78.6985 56.4461 78.7225 56.0541 78.7385C55.6701 78.7625 55.3021 78.7745 54.9501 78.7745C54.3821 78.7745 53.8621 78.7225 53.3901 78.6185C52.9261 78.5145 52.5541 78.3305 52.2741 78.0665C51.9941 77.8025 51.8541 77.4265 51.8541 76.9385C51.8541 76.5785 51.9381 76.2505 52.1061 75.9545C52.2741 75.6505 52.4981 75.3745 52.7781 75.1265C53.0661 74.8785 53.3821 74.6505 53.7261 74.4425C54.0701 74.2265 54.4221 74.0305 54.7821 73.8545C55.1661 73.6465 55.5261 73.4665 55.8621 73.3145C56.2061 73.1625 56.5301 73.0225 56.8341 72.8945C57.1381 72.7665 57.4221 72.6385 57.6861 72.5105C57.8621 72.4305 58.0301 72.3545 58.1901 72.2825C58.3501 72.2105 58.5101 72.1305 58.6701 72.0425L59.0661 72.9425ZM18.6141 84.8105H23.0541V85.6865H18.6141V84.8105ZM13.0581 83.8985H18.9141V84.7505H13.0581V83.8985ZM14.4621 86.3465H17.5701V87.1625H14.4621V86.3465ZM14.4621 88.8425H17.5701V89.6585H14.4621V88.8425ZM22.7781 84.8105H22.9461L23.1021 84.7745L23.6781 84.9305C23.4861 86.5305 23.1621 87.9185 22.7061 89.0945C22.2501 90.2625 21.6821 91.2545 21.0021 92.0705C20.3301 92.8785 19.5621 93.5305 18.6981 94.0265C18.6261 93.9145 18.5341 93.7825 18.4221 93.6305C18.3101 93.4865 18.2061 93.3705 18.1101 93.2825C18.9021 92.8745 19.6181 92.2905 20.2581 91.5305C20.8981 90.7705 21.4341 89.8465 21.8661 88.7585C22.3061 87.6705 22.6101 86.4225 22.7781 85.0145V84.8105ZM19.7061 85.7345C19.9221 86.8865 20.2261 87.9585 20.6181 88.9505C21.0101 89.9425 21.4981 90.8145 22.0821 91.5665C22.6741 92.3105 23.3821 92.8945 24.2061 93.3185C24.1421 93.3745 24.0701 93.4465 23.9901 93.5345C23.9101 93.6225 23.8341 93.7105 23.7621 93.7985C23.6901 93.8945 23.6301 93.9825 23.5821 94.0625C22.7101 93.5745 21.9661 92.9345 21.3501 92.1425C20.7421 91.3425 20.2341 90.4185 19.8261 89.3705C19.4261 88.3145 19.0981 87.1585 18.8421 85.9025L19.7061 85.7345ZM13.9821 84.2225H14.8461V92.0105H13.9821V84.2225ZM17.1981 84.2225H18.0741V94.1705H17.1981V84.2225ZM12.8061 91.7585C13.2061 91.7025 13.6621 91.6425 14.1741 91.5785C14.6861 91.5065 15.2301 91.4305 15.8061 91.3505C16.3901 91.2625 16.9741 91.1745 17.5581 91.0865L17.6061 91.9145C16.7821 92.0505 15.9581 92.1865 15.1341 92.3225C14.3181 92.4505 13.5981 92.5585 12.9741 92.6465L12.8061 91.7585ZM36.1701 92.3225C35.8501 92.6425 35.5061 92.8905 35.1381 93.0665C34.7701 93.2345 34.3781 93.3185 33.9621 93.3185C33.5701 93.3185 33.2501 93.1905 33.0021 92.9345C32.7541 92.6785 32.6301 92.3025 32.6301 91.8065C32.6301 91.4705 32.6541 91.1065 32.7021 90.7145C32.7501 90.3225 32.8021 89.9225 32.8581 89.5145C32.9141 89.0985 32.9661 88.7065 33.0141 88.3385C33.0621 87.9625 33.0861 87.6265 33.0861 87.3305C33.0861 86.9865 33.0021 86.7385 32.8341 86.5865C32.6661 86.4265 32.4261 86.3465 32.1141 86.3465C31.8341 86.3465 31.5221 86.4305 31.1781 86.5985C30.8341 86.7585 30.4821 86.9785 30.1221 87.2585C29.7621 87.5305 29.4101 87.8385 29.0661 88.1825C28.7221 88.5185 28.4061 88.8545 28.1181 89.1905L28.1421 88.0025C28.2941 87.8425 28.4861 87.6545 28.7181 87.4385C28.9581 87.2225 29.2221 86.9985 29.5101 86.7665C29.8061 86.5345 30.1181 86.3185 30.4461 86.1185C30.7741 85.9185 31.0981 85.7585 31.4181 85.6385C31.7461 85.5185 32.0581 85.4585 32.3541 85.4585C32.7301 85.4585 33.0421 85.5265 33.2901 85.6625C33.5381 85.7905 33.7221 85.9785 33.8421 86.2265C33.9621 86.4665 34.0221 86.7465 34.0221 87.0665C34.0221 87.3625 33.9981 87.7065 33.9501 88.0985C33.9101 88.4825 33.8581 88.8825 33.7941 89.2985C33.7381 89.7145 33.6861 90.1185 33.6381 90.5105C33.5981 90.9025 33.5781 91.2505 33.5781 91.5545C33.5781 91.7545 33.6261 91.9265 33.7221 92.0705C33.8261 92.2145 33.9861 92.2865 34.2021 92.2865C34.4901 92.2865 34.7861 92.2025 35.0901 92.0345C35.4021 91.8585 35.7101 91.6105 36.0141 91.2905L36.1701 92.3225ZM28.1061 86.5865C28.0101 86.5945 27.8621 86.6145 27.6621 86.6465C27.4701 86.6705 27.2501 86.6985 27.0021 86.7305C26.7541 86.7625 26.5021 86.7985 26.2461 86.8385C25.9901 86.8705 25.7501 86.9025 25.5261 86.9345L25.4301 85.9505C25.5581 85.9585 25.6821 85.9625 25.8021 85.9625C25.9301 85.9545 26.0661 85.9465 26.2101 85.9385C26.3781 85.9305 26.5821 85.9145 26.8221 85.8905C27.0701 85.8585 27.3261 85.8265 27.5901 85.7945C27.8621 85.7545 28.1141 85.7145 28.3461 85.6745C28.5861 85.6265 28.7741 85.5785 28.9101 85.5305L29.2581 85.9505C29.1861 86.0465 29.1061 86.1665 29.0181 86.3105C28.9301 86.4465 28.8421 86.5865 28.7541 86.7305C28.6661 86.8745 28.5901 87.0025 28.5261 87.1145L28.1541 88.7465C28.0181 88.9625 27.8501 89.2185 27.6501 89.5145C27.4501 89.8105 27.2381 90.1225 27.0141 90.4505C26.7981 90.7705 26.5781 91.0905 26.3541 91.4105C26.1301 91.7225 25.9261 92.0105 25.7421 92.2745L25.1301 91.4465C25.2821 91.2625 25.4581 91.0385 25.6581 90.7745C25.8661 90.5025 26.0821 90.2105 26.3061 89.8985C26.5381 89.5865 26.7621 89.2825 26.9781 88.9865C27.2021 88.6825 27.3981 88.4025 27.5661 88.1465C27.7421 87.8905 27.8741 87.6825 27.9621 87.5225L28.0101 86.9105L28.1061 86.5865ZM27.9981 84.5945C27.9981 84.4585 27.9941 84.3145 27.9861 84.1625C27.9861 84.0105 27.9741 83.8585 27.9501 83.7065L29.0781 83.7425C29.0461 83.9025 29.0061 84.1545 28.9581 84.4985C28.9101 84.8345 28.8621 85.2345 28.8141 85.6985C28.7741 86.1625 28.7301 86.6505 28.6821 87.1625C28.6421 87.6745 28.6101 88.1825 28.5861 88.6865C28.5621 89.1825 28.5501 89.6425 28.5501 90.0665C28.5501 90.4265 28.5501 90.7625 28.5501 91.0745C28.5501 91.3785 28.5541 91.6825 28.5621 91.9865C28.5701 92.2825 28.5821 92.6065 28.5981 92.9585C28.6061 93.0625 28.6141 93.1825 28.6221 93.3185C28.6301 93.4545 28.6421 93.5785 28.6581 93.6905H27.6141C27.6301 93.5785 27.6381 93.4545 27.6381 93.3185C27.6461 93.1905 27.6501 93.0785 27.6501 92.9825C27.6581 92.5985 27.6621 92.2585 27.6621 91.9625C27.6621 91.6665 27.6621 91.3625 27.6621 91.0505C27.6701 90.7305 27.6781 90.3505 27.6861 89.9105C27.6861 89.7345 27.6941 89.4945 27.7101 89.1905C27.7261 88.8785 27.7461 88.5385 27.7701 88.1705C27.7941 87.7945 27.8181 87.4145 27.8421 87.0305C27.8661 86.6465 27.8901 86.2865 27.9141 85.9505C27.9381 85.6065 27.9581 85.3145 27.9741 85.0745C27.9901 84.8345 27.9981 84.6745 27.9981 84.5945ZM17.9421 113.154H18.8421V117.246H17.9421V113.154ZM15.3261 117.654V119.802H21.6021V117.654H15.3261ZM14.4741 116.802H22.5021V120.642H14.4741V116.802ZM18.3621 114.426H23.4021V115.278H18.3621V114.426ZM16.5621 121.698L17.4141 121.626C17.4781 121.874 17.5301 122.146 17.5701 122.442C17.6181 122.73 17.6541 123.006 17.6781 123.27C17.7101 123.542 17.7261 123.774 17.7261 123.966L16.8141 124.086C16.8141 123.886 16.8021 123.65 16.7781 123.378C16.7621 123.106 16.7341 122.822 16.6941 122.526C16.6541 122.23 16.6101 121.954 16.5621 121.698ZM19.0461 121.71L19.8621 121.53C19.9901 121.77 20.1101 122.034 20.2221 122.322C20.3421 122.602 20.4501 122.874 20.5461 123.138C20.6501 123.402 20.7221 123.634 20.7621 123.834L19.8861 124.062C19.8461 123.862 19.7821 123.626 19.6941 123.354C19.6061 123.082 19.5061 122.802 19.3941 122.514C19.2821 122.226 19.1661 121.958 19.0461 121.71ZM21.4941 121.614L22.2981 121.302C22.5061 121.558 22.7101 121.83 22.9101 122.118C23.1181 122.406 23.3101 122.694 23.4861 122.982C23.6621 123.262 23.7981 123.514 23.8941 123.738L23.0421 124.098C22.9541 123.874 22.8261 123.618 22.6581 123.33C22.4901 123.042 22.3021 122.75 22.0941 122.454C21.8941 122.15 21.6941 121.87 21.4941 121.614ZM14.6061 121.374L15.4581 121.602C15.2661 122.066 15.0221 122.534 14.7261 123.006C14.4381 123.478 14.1301 123.87 13.8021 124.182L12.9861 123.786C13.3061 123.514 13.6101 123.158 13.8981 122.718C14.1861 122.27 14.4221 121.822 14.6061 121.374ZM28.8381 116.19H33.8661V117.09H28.8381V116.19ZM28.4181 120.33L28.9941 119.61C29.4101 119.802 29.8381 120.022 30.2781 120.27C30.7261 120.51 31.1581 120.766 31.5741 121.038C31.9981 121.31 32.3861 121.582 32.7381 121.854C33.0901 122.126 33.3901 122.39 33.6381 122.646L33.0021 123.462C32.7701 123.214 32.4821 122.95 32.1381 122.67C31.7941 122.39 31.4141 122.11 30.9981 121.83C30.5901 121.55 30.1621 121.282 29.7141 121.026C29.2741 120.77 28.8421 120.538 28.4181 120.33ZM29.4861 113.766L30.4821 113.994C30.2101 114.794 29.8821 115.61 29.4981 116.442C29.1141 117.274 28.6741 118.066 28.1781 118.818C27.6901 119.57 27.1501 120.238 26.5581 120.822C26.4861 120.766 26.3981 120.706 26.2941 120.642C26.1981 120.57 26.0981 120.506 25.9941 120.45C25.8901 120.386 25.7981 120.334 25.7181 120.294C26.1661 119.878 26.5821 119.41 26.9661 118.89C27.3501 118.37 27.7021 117.822 28.0221 117.246C28.3421 116.662 28.6221 116.074 28.8621 115.482C29.1101 114.89 29.3181 114.318 29.4861 113.766ZM33.4941 116.19H33.6981L33.8781 116.154L34.5501 116.514C34.3421 117.09 34.0781 117.69 33.7581 118.314C33.4461 118.93 33.1061 119.53 32.7381 120.114C32.3701 120.698 32.0021 121.218 31.6341 121.674C31.5381 121.586 31.4101 121.49 31.2501 121.386C31.0901 121.282 30.9501 121.202 30.8301 121.146C31.0941 120.826 31.3581 120.47 31.6221 120.078C31.8861 119.678 32.1381 119.266 32.3781 118.842C32.6181 118.418 32.8301 117.998 33.0141 117.582C33.2061 117.166 33.3661 116.782 33.4941 116.43V116.19ZM42.0021 113.742C41.9541 113.982 41.8901 114.266 41.8101 114.594C41.7381 114.914 41.6181 115.278 41.4501 115.686C41.3061 116.046 41.1261 116.418 40.9101 116.802C40.7021 117.186 40.4781 117.534 40.2381 117.846C40.3901 117.75 40.5621 117.67 40.7541 117.606C40.9461 117.534 41.1421 117.482 41.3421 117.45C41.5501 117.418 41.7381 117.402 41.9061 117.402C42.3701 117.402 42.7621 117.534 43.0821 117.798C43.4021 118.054 43.5621 118.43 43.5621 118.926C43.5621 119.078 43.5621 119.274 43.5621 119.514C43.5621 119.746 43.5621 119.994 43.5621 120.258C43.5701 120.514 43.5781 120.766 43.5861 121.014C43.5941 121.262 43.5981 121.478 43.5981 121.662H42.6741C42.6821 121.502 42.6901 121.314 42.6981 121.098C42.7061 120.882 42.7101 120.654 42.7101 120.414C42.7181 120.174 42.7181 119.946 42.7101 119.73C42.7101 119.514 42.7101 119.33 42.7101 119.178C42.7101 118.826 42.6021 118.57 42.3861 118.41C42.1781 118.242 41.9141 118.158 41.5941 118.158C41.2181 118.158 40.8461 118.242 40.4781 118.41C40.1181 118.57 39.8021 118.778 39.5301 119.034C39.3541 119.202 39.1781 119.394 39.0021 119.61C38.8341 119.818 38.6461 120.042 38.4381 120.282L37.6221 119.682C38.1981 119.122 38.6781 118.598 39.0621 118.11C39.4461 117.622 39.7581 117.17 39.9981 116.754C40.2381 116.33 40.4261 115.95 40.5621 115.614C40.6901 115.278 40.7941 114.942 40.8741 114.606C40.9541 114.262 41.0021 113.946 41.0181 113.658L42.0021 113.742ZM37.8981 115.038C38.2181 115.078 38.5661 115.11 38.9421 115.134C39.3181 115.158 39.6461 115.17 39.9261 115.17C40.4621 115.17 41.0381 115.158 41.6541 115.134C42.2701 115.102 42.8901 115.058 43.5141 115.002C44.1461 114.946 44.7461 114.866 45.3141 114.762L45.3021 115.65C44.8861 115.722 44.4421 115.782 43.9701 115.83C43.4981 115.87 43.0181 115.906 42.5301 115.938C42.0421 115.962 41.5701 115.982 41.1141 115.998C40.6661 116.006 40.2501 116.01 39.8661 116.01C39.6981 116.01 39.5021 116.01 39.2781 116.01C39.0621 116.002 38.8341 115.994 38.5941 115.986C38.3541 115.97 38.1221 115.954 37.8981 115.938V115.038ZM47.0661 117.942C46.9621 117.966 46.8461 118.002 46.7181 118.05C46.5981 118.09 46.4741 118.134 46.3461 118.182C46.2261 118.23 46.1101 118.278 45.9981 118.326C45.5821 118.486 45.0981 118.682 44.5461 118.914C43.9941 119.146 43.4301 119.414 42.8541 119.718C42.4541 119.918 42.1021 120.13 41.7981 120.354C41.4941 120.57 41.2541 120.798 41.0781 121.038C40.9021 121.27 40.8141 121.526 40.8141 121.806C40.8141 122.038 40.8661 122.226 40.9701 122.37C41.0821 122.514 41.2381 122.626 41.4381 122.706C41.6381 122.778 41.8661 122.826 42.1221 122.85C42.3861 122.874 42.6741 122.886 42.9861 122.886C43.4501 122.886 43.9781 122.862 44.5701 122.814C45.1701 122.758 45.7341 122.686 46.2621 122.598L46.2381 123.558C45.9341 123.598 45.5901 123.634 45.2061 123.666C44.8301 123.698 44.4461 123.722 44.0541 123.738C43.6701 123.762 43.3021 123.774 42.9501 123.774C42.3821 123.774 41.8621 123.722 41.3901 123.618C40.9261 123.514 40.5541 123.33 40.2741 123.066C39.9941 122.802 39.8541 122.426 39.8541 121.938C39.8541 121.578 39.9381 121.25 40.1061 120.954C40.2741 120.65 40.4981 120.374 40.7781 120.126C41.0661 119.878 41.3821 119.65 41.7261 119.442C42.0701 119.226 42.4221 119.03 42.7821 118.854C43.1661 118.646 43.5261 118.466 43.8621 118.314C44.2061 118.162 44.5301 118.022 44.8341 117.894C45.1381 117.766 45.4221 117.638 45.6861 117.51C45.8621 117.43 46.0301 117.354 46.1901 117.282C46.3501 117.21 46.5101 117.13 46.6701 117.042L47.0661 117.942ZM13.3581 131.97C13.5741 131.93 13.7901 131.882 14.0061 131.826C14.2301 131.762 14.4541 131.694 14.6781 131.622C14.9341 131.542 15.2621 131.438 15.6621 131.31C16.0621 131.174 16.4981 131.042 16.9701 130.914C17.4421 130.778 17.9221 130.666 18.4101 130.578C18.9061 130.482 19.3701 130.434 19.8021 130.434C20.4741 130.434 21.0781 130.558 21.6141 130.806C22.1501 131.054 22.5781 131.414 22.8981 131.886C23.2181 132.358 23.3781 132.93 23.3781 133.602C23.3781 134.178 23.2661 134.694 23.0421 135.15C22.8261 135.606 22.5181 136.01 22.1181 136.362C21.7261 136.706 21.2581 136.998 20.7141 137.238C20.1701 137.47 19.5661 137.658 18.9021 137.802C18.2461 137.938 17.5501 138.026 16.8141 138.066L16.3821 137.07C17.1741 137.054 17.9261 136.978 18.6381 136.842C19.3501 136.698 19.9821 136.49 20.5341 136.218C21.0941 135.946 21.5341 135.594 21.8541 135.162C22.1741 134.722 22.3341 134.194 22.3341 133.578C22.3341 133.162 22.2341 132.786 22.0341 132.45C21.8341 132.106 21.5421 131.834 21.1581 131.634C20.7821 131.434 20.3221 131.334 19.7781 131.334C19.3861 131.334 18.9581 131.382 18.4941 131.478C18.0301 131.566 17.5621 131.682 17.0901 131.826C16.6181 131.962 16.1661 132.11 15.7341 132.27C15.3101 132.43 14.9301 132.578 14.5941 132.714C14.2581 132.85 13.9941 132.954 13.8021 133.026L13.3581 131.97ZM33.6141 128.874C33.5981 128.978 33.5861 129.09 33.5781 129.21C33.5781 129.322 33.5781 129.446 33.5781 129.582C33.5701 129.67 33.5661 129.814 33.5661 130.014C33.5741 130.214 33.5781 130.442 33.5781 130.698C33.5861 130.946 33.5901 131.202 33.5901 131.466C33.5981 131.73 33.6021 131.974 33.6021 132.198C33.6021 132.414 33.6021 132.59 33.6021 132.726C33.6021 133.414 33.5861 134.054 33.5541 134.646C33.5301 135.238 33.4421 135.79 33.2901 136.302C33.1381 136.814 32.8861 137.29 32.5341 137.73C32.1901 138.162 31.6981 138.566 31.0581 138.942L30.1821 138.258C30.3741 138.178 30.5781 138.07 30.7941 137.934C31.0181 137.798 31.2021 137.658 31.3461 137.514C31.6661 137.234 31.9181 136.934 32.1021 136.614C32.2861 136.294 32.4181 135.942 32.4981 135.558C32.5861 135.174 32.6421 134.75 32.6661 134.286C32.6901 133.822 32.7021 133.302 32.7021 132.726C32.7021 132.534 32.6981 132.29 32.6901 131.994C32.6821 131.69 32.6741 131.378 32.6661 131.058C32.6581 130.73 32.6501 130.434 32.6421 130.17C32.6341 129.906 32.6221 129.714 32.6061 129.594C32.5981 129.458 32.5821 129.33 32.5581 129.21C32.5341 129.082 32.5141 128.97 32.4981 128.874H33.6141ZM29.2341 131.358C29.4101 131.382 29.6061 131.406 29.8221 131.43C30.0381 131.454 30.2621 131.47 30.4941 131.478C30.7341 131.486 30.9581 131.49 31.1661 131.49C31.6621 131.49 32.1701 131.478 32.6901 131.454C33.2181 131.43 33.7261 131.39 34.2141 131.334C34.7101 131.278 35.1541 131.206 35.5461 131.118V132.102C35.1621 132.158 34.7261 132.21 34.2381 132.258C33.7581 132.306 33.2541 132.342 32.7261 132.366C32.2061 132.382 31.6901 132.39 31.1781 132.39C30.9861 132.39 30.7701 132.386 30.5301 132.378C30.2981 132.37 30.0661 132.362 29.8341 132.354C29.6101 132.346 29.4101 132.334 29.2341 132.318V131.358ZM27.5421 129.054C27.5101 129.166 27.4741 129.298 27.4341 129.45C27.4021 129.594 27.3701 129.722 27.3381 129.834C27.2421 130.266 27.1501 130.746 27.0621 131.274C26.9741 131.802 26.9061 132.35 26.8581 132.918C26.8101 133.486 26.7941 134.046 26.8101 134.598C26.8261 135.15 26.8901 135.674 27.0021 136.17C27.0901 135.914 27.1901 135.618 27.3021 135.282C27.4221 134.946 27.5381 134.63 27.6501 134.334L28.1661 134.646C28.0701 134.918 27.9701 135.226 27.8661 135.57C27.7621 135.906 27.6661 136.23 27.5781 136.542C27.4901 136.846 27.4261 137.098 27.3861 137.298C27.3621 137.386 27.3421 137.482 27.3261 137.586C27.3181 137.69 27.3181 137.774 27.3261 137.838C27.3341 137.902 27.3381 137.97 27.3381 138.042C27.3461 138.114 27.3541 138.182 27.3621 138.246L26.5461 138.342C26.4661 138.102 26.3741 137.778 26.2701 137.37C26.1741 136.962 26.0901 136.514 26.0181 136.026C25.9461 135.53 25.9101 135.034 25.9101 134.538C25.9101 133.882 25.9381 133.254 25.9941 132.654C26.0581 132.054 26.1261 131.502 26.1981 130.998C26.2701 130.494 26.3261 130.078 26.3661 129.75C26.3901 129.606 26.4061 129.462 26.4141 129.318C26.4221 129.174 26.4261 129.05 26.4261 128.946L27.5421 129.054ZM39.2661 129.474C39.3781 129.482 39.5021 129.49 39.6381 129.498C39.7821 129.506 39.9381 129.51 40.1061 129.51C40.2341 129.51 40.4301 129.51 40.6941 129.51C40.9661 129.502 41.2701 129.494 41.6061 129.486C41.9501 129.478 42.2941 129.47 42.6381 129.462C42.9821 129.446 43.2941 129.434 43.5741 129.426C43.8621 129.418 44.0821 129.41 44.2341 129.402C44.3381 129.386 44.4541 129.37 44.5821 129.354C44.7101 129.338 44.8181 129.318 44.9061 129.294L45.4821 129.99C45.4021 130.03 45.3101 130.086 45.2061 130.158C45.1021 130.23 45.0181 130.29 44.9541 130.338C44.7301 130.522 44.4781 130.73 44.1981 130.962C43.9261 131.194 43.6381 131.434 43.3341 131.682C43.0301 131.93 42.7301 132.174 42.4341 132.414C42.1461 132.646 41.8781 132.866 41.6301 133.074C41.9581 132.946 42.2661 132.862 42.5541 132.822C42.8421 132.774 43.1061 132.75 43.3461 132.75C44.0181 132.75 44.6021 132.866 45.0981 133.098C45.6021 133.33 45.9941 133.654 46.2741 134.07C46.5621 134.478 46.7061 134.954 46.7061 135.498C46.7061 136.266 46.4621 136.91 45.9741 137.43C45.4861 137.942 44.7781 138.31 43.8501 138.534C42.9221 138.758 41.7941 138.818 40.4661 138.714L40.2021 137.742C41.0341 137.846 41.7861 137.87 42.4581 137.814C43.1381 137.758 43.7181 137.63 44.1981 137.43C44.6781 137.23 45.0461 136.966 45.3021 136.638C45.5661 136.31 45.6981 135.926 45.6981 135.486C45.6981 134.91 45.4701 134.442 45.0141 134.082C44.5581 133.722 43.9461 133.542 43.1781 133.542C42.6581 133.542 42.1901 133.606 41.7741 133.734C41.3661 133.854 40.9821 134.026 40.6221 134.25C40.2701 134.474 39.9221 134.738 39.5781 135.042C39.2421 135.346 38.8861 135.678 38.5101 136.038L37.7781 135.294C38.1301 135.014 38.5261 134.698 38.9661 134.346C39.4061 133.986 39.8581 133.61 40.3221 133.218C40.7941 132.826 41.2501 132.442 41.6901 132.066C42.1381 131.69 42.5381 131.342 42.8901 131.022C43.2421 130.702 43.5181 130.438 43.7181 130.23C43.5741 130.238 43.3781 130.25 43.1301 130.266C42.8821 130.274 42.6101 130.286 42.3141 130.302C42.0181 130.31 41.7261 130.322 41.4381 130.338C41.1501 130.346 40.8901 130.358 40.6581 130.374C40.4341 130.382 40.2621 130.39 40.1421 130.398C40.0061 130.406 39.8581 130.418 39.6981 130.434C39.5461 130.442 39.4101 130.458 39.2901 130.482L39.2661 129.474Z" fill="black"/>
</svg>
