<svg width="211" height="149" viewBox="0 0 211 149" fill="none" xmlns="http://www.w3.org/2000/svg">
<rect width="210" height="148.5" transform="matrix(-1 0 0 -1 210.65 148.5)" fill="white"/>
<path d="M149.293 39.5312C149.032 39.5312 148.902 39.4557 148.902 39.3047C148.902 39.1537 149.015 39.0713 149.241 39.0576L150.415 38.9134C150.763 38.8722 150.998 38.8036 151.12 38.7075C151.242 38.5976 151.303 38.3985 151.303 38.1102V25.7534C151.303 25.5612 151.25 25.4239 151.146 25.3415C151.042 25.2591 150.824 25.2179 150.494 25.2179C149.85 25.2179 149.215 25.4376 148.589 25.877C147.963 26.3163 147.554 27.0234 147.362 27.9982L147.232 28.6778C147.197 28.8563 147.075 28.9456 146.867 28.9456C146.606 28.9456 146.493 28.8289 146.527 28.5955L146.762 24.8678C146.797 24.552 146.954 24.3941 147.232 24.3941C147.354 24.3941 147.467 24.4216 147.571 24.4765C147.675 24.5177 147.849 24.5658 148.093 24.6207C148.354 24.6756 148.763 24.7031 149.319 24.7031H155.139C155.695 24.7031 156.095 24.6756 156.339 24.6207C156.6 24.5658 156.783 24.5177 156.887 24.4765C157.009 24.4216 157.122 24.3941 157.226 24.3941C157.504 24.3941 157.661 24.552 157.696 24.8678L157.931 28.5955C157.965 28.8289 157.852 28.9456 157.591 28.9456C157.383 28.9456 157.261 28.8563 157.226 28.6778L157.096 27.9982C156.922 27.0234 156.522 26.3163 155.895 25.877C155.269 25.4376 154.625 25.2179 153.964 25.2179C153.634 25.2179 153.416 25.2591 153.312 25.3415C153.208 25.4239 153.155 25.5612 153.155 25.7534V38.1102C153.155 38.3985 153.216 38.5976 153.338 38.7075C153.477 38.8036 153.712 38.8722 154.043 38.9134L155.217 39.0576C155.443 39.0713 155.556 39.1537 155.556 39.3047C155.556 39.4557 155.426 39.5312 155.165 39.5312H149.293Z" fill="black"/>
<path d="M140.593 39.7166C140.245 39.7166 139.854 39.6891 139.419 39.6342C139.001 39.5793 138.601 39.5107 138.218 39.4283C137.853 39.3459 137.566 39.2566 137.357 39.1605C137.236 39.1056 137.14 39.0507 137.07 38.9958C137.018 38.9271 136.992 38.8173 136.992 38.6663L136.862 35.4329C136.862 35.1583 136.975 35.021 137.201 35.021C137.392 35.021 137.523 35.1446 137.592 35.3917L137.827 36.1743C138.418 38.1377 139.523 39.1194 141.141 39.1194C142.011 39.1194 142.698 38.8928 143.203 38.4397C143.724 37.9729 143.985 37.3208 143.985 36.4832C143.985 35.6732 143.716 34.918 143.176 34.2178C142.655 33.5176 141.811 32.8242 140.645 32.1378C139.358 31.4101 138.418 30.7099 137.827 30.0371C137.236 29.3506 136.94 28.6229 136.94 27.8541C136.94 26.8381 137.383 26.028 138.271 25.4239C139.175 24.8061 140.323 24.4971 141.715 24.4971C142.237 24.4971 142.741 24.5452 143.229 24.6413C143.716 24.7374 144.116 24.8747 144.429 25.0532C144.533 25.1081 144.612 25.1699 144.664 25.2385C144.733 25.3072 144.768 25.3964 144.768 25.5063L144.846 28.6161C144.846 28.8495 144.733 28.9662 144.507 28.9662C144.351 28.9662 144.238 28.8701 144.168 28.6779L143.985 28.163C143.603 27.1058 143.203 26.3369 142.785 25.8564C142.385 25.3621 141.802 25.115 141.037 25.115C140.289 25.115 139.688 25.3072 139.236 25.6916C138.801 26.0761 138.584 26.6184 138.584 27.3186C138.584 27.909 138.827 28.4719 139.314 29.0074C139.802 29.5428 140.654 30.195 141.872 30.9639C143.176 31.8014 144.125 32.6114 144.716 33.394C145.325 34.1629 145.629 34.9867 145.629 35.8654C145.629 36.6343 145.412 37.307 144.977 37.8837C144.542 38.4603 143.942 38.9134 143.176 39.2429C142.428 39.5587 141.567 39.7166 140.593 39.7166Z" fill="black"/>
<path d="M124.855 39.5312C124.594 39.5312 124.463 39.4557 124.463 39.3047C124.463 39.1811 124.576 39.0987 124.803 39.0576L125.403 38.9752C125.768 38.9203 126.003 38.8447 126.107 38.7486C126.229 38.6525 126.29 38.4603 126.29 38.172V26.0623C126.29 25.774 126.229 25.5818 126.107 25.4857C126.003 25.3896 125.768 25.314 125.403 25.2591L124.803 25.1767C124.576 25.1356 124.463 25.0532 124.463 24.9296C124.463 24.7786 124.594 24.7031 124.855 24.7031H133.623C134.023 24.7031 134.24 24.861 134.275 25.1767L134.484 28.5955C134.518 28.8289 134.405 28.9456 134.144 28.9456C133.936 28.9456 133.814 28.8563 133.779 28.6778L133.623 27.9158C133.431 26.9822 133.04 26.3026 132.448 25.877C131.857 25.4376 131.039 25.2179 129.995 25.2179C129.3 25.2179 128.812 25.3003 128.534 25.4651C128.273 25.6161 128.143 25.8907 128.143 26.2889V31.2522C128.143 31.4444 128.264 31.5405 128.508 31.5405H129.813C130.578 31.5405 131.048 31.2178 131.222 30.5725L131.483 29.5428C131.552 29.3369 131.7 29.2476 131.926 29.2751C132.118 29.3025 132.213 29.4192 132.213 29.6252V34.259C132.213 34.4649 132.118 34.5816 131.926 34.6091C131.7 34.6366 131.552 34.5473 131.483 34.3414L131.222 33.3322C131.1 32.8517 130.926 32.5359 130.7 32.3849C130.491 32.2339 130.187 32.1583 129.787 32.1583H128.508C128.264 32.1583 128.143 32.2544 128.143 32.4467V37.6159C128.143 38.1102 128.299 38.4672 128.612 38.6869C128.943 38.9065 129.534 39.0164 130.387 39.0164C131.257 39.0164 131.996 38.8447 132.605 38.5015C133.231 38.1445 133.666 37.4855 133.91 36.5244L134.223 35.3093C134.275 35.1308 134.405 35.0416 134.614 35.0416C134.858 35.0416 134.962 35.1583 134.927 35.3917L134.666 39.0576C134.632 39.3733 134.414 39.5312 134.014 39.5312H124.855Z" fill="black"/>
<path d="M117.153 39.7166C116.214 39.7166 115.379 39.545 114.648 39.2017C113.935 38.8447 113.378 38.3573 112.978 37.7395C112.578 37.1079 112.378 36.3871 112.378 35.5771V26.0623C112.378 25.774 112.317 25.5818 112.195 25.4857C112.091 25.3896 111.856 25.314 111.491 25.2591L110.891 25.1767C110.664 25.1356 110.551 25.0532 110.551 24.9296C110.551 24.7786 110.682 24.7031 110.943 24.7031H115.718C115.979 24.7031 116.11 24.7854 116.11 24.9502C116.11 25.0738 116.014 25.1493 115.823 25.1767L115.118 25.2591C114.77 25.3003 114.535 25.3758 114.413 25.4857C114.292 25.5955 114.231 25.7946 114.231 26.0829V35.5976C114.231 36.6411 114.526 37.4512 115.118 38.0278C115.709 38.6045 116.536 38.8928 117.597 38.8928C118.676 38.8928 119.511 38.6045 120.102 38.0278C120.694 37.4512 120.989 36.6411 120.989 35.5976V26.4948C120.989 25.7534 120.694 25.3415 120.102 25.2591L119.397 25.1767C119.206 25.1493 119.11 25.0738 119.11 24.9502C119.11 24.7854 119.241 24.7031 119.502 24.7031H123.259C123.52 24.7031 123.651 24.7786 123.651 24.9296C123.651 25.0532 123.538 25.1356 123.312 25.1767L122.711 25.2591C122.12 25.3415 121.824 25.7465 121.824 26.4742V35.5771C121.824 36.8265 121.398 37.8287 120.546 38.5839C119.693 39.339 118.562 39.7166 117.153 39.7166Z" fill="black"/>
<path d="M93.1333 9.54534C94.0275 8.53419 95.0997 8.23431 96.0487 8.44396C96.888 8.62942 97.6001 9.20931 97.9632 9.97549C98.7823 9.24459 99.5764 9.04022 100.308 9.22506C100.981 9.39502 101.532 9.87982 101.953 10.42C103.146 9.19341 104.383 8.91995 105.453 9.19565C106.473 9.45855 107.287 10.2079 107.723 10.9627C108.966 10.7401 109.767 10.9704 110.189 11.5354C110.562 12.0359 110.554 12.6963 110.434 13.2263C110.962 13.6262 111.307 14.0188 111.492 14.4059C111.702 14.8467 111.696 15.2673 111.533 15.6365C111.376 15.9927 111.084 16.2749 110.767 16.4867C110.539 16.6384 110.288 16.7608 110.037 16.854C110.211 17.4805 110.22 18.0182 110.081 18.4685C109.919 18.9962 109.567 19.3666 109.129 19.6018C108.362 20.0145 107.323 20.021 106.453 19.7994C106.227 20.3396 105.946 20.7593 105.604 21.0595C105.203 21.4126 104.737 21.5859 104.231 21.6095C103.298 21.6531 102.248 21.1885 101.177 20.4863C98.7282 22.3689 95.8567 22.8534 93.8183 22.8534C91.9521 22.8534 90.3854 22.8629 88.6704 22.8678C86.9345 22.8727 85.0489 22.8729 82.5531 22.8534L82.5581 22.2305C85.0511 22.2499 86.9343 22.2497 88.6686 22.2448C89.6687 22.242 90.6201 22.2377 91.6105 22.2345C91.9897 22.6169 92.5153 22.8537 93.0963 22.8537C93.6918 22.8537 94.2287 22.6044 94.6097 22.2051C96.5198 22.0849 98.9221 21.5043 100.967 19.8595L101.146 19.715L101.337 19.8444C102.456 20.6046 103.43 21.0234 104.201 20.9873C104.575 20.9699 104.904 20.8458 105.193 20.5916C105.487 20.3331 105.755 19.9255 105.972 19.317L106.074 19.0314L106.362 19.1257C107.185 19.3947 108.183 19.4033 108.834 19.053C109.149 18.8838 109.378 18.6346 109.486 18.2855C109.595 17.9296 109.589 17.433 109.355 16.7557L109.247 16.4438L109.565 16.3543C109.857 16.272 110.163 16.1403 110.421 15.9686C110.681 15.7953 110.87 15.5952 110.963 15.3849C111.05 15.1874 111.064 14.9566 110.929 14.6739C110.789 14.3787 110.481 14.0182 109.9 13.6065L109.718 13.4772L109.781 13.2633C109.93 12.7645 109.935 12.2368 109.69 11.9083C109.466 11.6084 108.921 11.3389 107.623 11.6174L107.384 11.6687L107.277 11.4487C106.945 10.7622 106.209 10.0336 105.297 9.79876C104.418 9.57215 103.308 9.78909 102.161 11.1151L101.894 11.4233L101.667 11.0849C101.255 10.4715 100.736 9.97541 100.156 9.82892C99.6095 9.69102 98.9108 9.84155 98.0645 10.7485L97.6763 11.1646L97.535 10.6133C97.3375 9.8426 96.6954 9.22493 95.9145 9.05235C95.1536 8.88421 94.2156 9.1321 93.4085 10.1907L93.1805 10.4901L92.9291 10.21C92.5754 9.81597 92.0074 9.53603 91.4765 9.59939C90.9808 9.6586 90.4073 10.0339 90.0508 11.1857L89.9902 11.3821L89.7861 11.4034C88.9901 11.4874 88.5832 11.8186 88.4497 12.169C88.3154 12.5215 88.4054 13.0297 88.9012 13.5811L89.0772 13.7767L88.9138 13.9828C88.6218 14.3515 88.3181 14.9016 88.282 15.3766C88.2647 15.6041 88.3097 15.7942 88.4258 15.9465C88.5432 16.1004 88.7632 16.2552 89.1714 16.351L89.0291 16.9574C88.5269 16.8395 88.1607 16.6262 87.9305 16.3243C87.6991 16.0209 87.6351 15.6673 87.6608 15.3293C87.7031 14.7734 87.9906 14.2084 88.2739 13.8005C87.81 13.1971 87.6451 12.5316 87.8677 11.9472C88.0973 11.3445 88.6945 10.9445 89.5191 10.8109C89.9326 9.63738 90.6274 9.07351 91.4029 8.98095C92.0498 8.90376 92.6789 9.16658 93.1333 9.54534Z" fill="black"/>
<path d="M69.3749 39.3047C69.3749 39.4557 69.5054 39.5312 69.7663 39.5312H75.6376C75.8986 39.5312 76.029 39.4557 76.029 39.3047C76.029 39.1537 75.916 39.0713 75.6898 39.0576L74.5155 38.9134C74.185 38.8722 73.9502 38.8036 73.811 38.7074C73.6892 38.5976 73.6283 38.3985 73.6283 38.1102V33.0851C73.6283 32.8654 73.6544 32.6732 73.7066 32.5084C73.7588 32.33 73.8458 32.1446 73.9676 31.9524L77.386 26.536C77.6817 26.0829 77.9165 25.7603 78.0905 25.568C79.2599 24.276 80.9527 22.9282 82.5531 22.8534L82.5581 22.2305C78.9664 21.8874 77.4156 25.0447 76.5248 26.5154L73.4457 31.4787C73.3761 31.5748 73.2891 31.6229 73.1847 31.6229C73.0803 31.6229 72.9934 31.5748 72.9238 31.4787L69.7141 26.0829C69.5402 25.7946 69.5141 25.5818 69.6359 25.4445C69.7576 25.3072 69.9664 25.2317 70.2621 25.2179L70.7579 25.1767C71.0537 25.163 71.2015 25.0806 71.2015 24.9296C71.2015 24.7786 71.0798 24.7031 70.8362 24.7031H66.374C66.1131 24.7031 65.9826 24.7717 65.9826 24.909C65.9826 25.0463 66.1044 25.1355 66.3479 25.1767L66.5828 25.2179C66.8785 25.2729 67.1047 25.3621 67.2612 25.4857C67.4178 25.6092 67.557 25.7877 67.6788 26.0211L71.5147 32.3643C71.6886 32.6526 71.7756 32.9478 71.7756 33.2499V38.1102C71.7756 38.3985 71.7147 38.5976 71.5929 38.7074C71.4712 38.8036 71.2363 38.8722 70.8884 38.9134L69.7141 39.0576C69.488 39.0713 69.3749 39.1537 69.3749 39.3047Z" fill="black"/>
<path d="M64.1409 39.7166C63.8626 39.7166 63.6277 39.5518 63.4364 39.2223L56.3647 27.1126C56.3125 27.0165 56.2429 26.9753 56.156 26.9891C56.0864 27.0028 56.0516 27.0646 56.0516 27.1744V37.7601C56.0516 38.1445 56.1299 38.4397 56.2864 38.6457C56.4604 38.8379 56.7648 38.9614 57.1997 39.0164L57.539 39.0576C57.7651 39.0713 57.8782 39.1537 57.8782 39.3047C57.8782 39.4557 57.7477 39.5312 57.4868 39.5312H53.7552C53.4943 39.5312 53.3638 39.4557 53.3638 39.3047C53.3638 39.1537 53.4769 39.0713 53.7031 39.0576L54.0423 39.0164C54.4946 38.9614 54.8077 38.8379 54.9817 38.6457C55.1557 38.4397 55.2426 38.1445 55.2426 37.7601V26.0623C55.2426 25.774 55.1818 25.5818 55.06 25.4857C54.9556 25.3896 54.7034 25.314 54.3032 25.2591L53.7031 25.1767C53.4769 25.1356 53.3638 25.0532 53.3638 24.9296C53.3638 24.7786 53.4943 24.7031 53.7552 24.7031H56.5474C56.9823 24.7031 57.2867 24.8541 57.4607 25.1561L63.619 35.8448C63.6712 35.9272 63.7321 35.9615 63.8017 35.9478C63.8887 35.934 63.9322 35.886 63.9322 35.8036V26.4742C63.9322 26.0349 63.8365 25.7328 63.6451 25.568C63.4537 25.3896 63.2102 25.2797 62.9145 25.2385L62.4448 25.1767C62.2186 25.1356 62.1055 25.0532 62.1055 24.9296C62.1055 24.7786 62.236 24.7031 62.4969 24.7031H66.2285C66.4894 24.7031 66.6199 24.7786 66.6199 24.9296C66.6199 25.0806 66.5068 25.163 66.2807 25.1767L65.9414 25.2179C65.4891 25.2728 65.176 25.3896 65.002 25.568C64.8281 25.7328 64.7411 26.0349 64.7411 26.4742V39.0576C64.7411 39.3047 64.6802 39.4763 64.5584 39.5724C64.454 39.6685 64.3149 39.7166 64.1409 39.7166Z" fill="black"/>
<path fill-rule="evenodd" clip-rule="evenodd" d="M82.0657 38.7692C83.0399 39.4008 84.2315 39.7166 85.6406 39.7166C86.3539 39.7166 86.9802 39.6617 87.5194 39.5518C88.0587 39.4557 88.5371 39.3253 88.9546 39.1605C89.2156 39.0507 89.3983 38.9546 89.5026 38.8722C89.607 38.7761 89.6592 38.6525 89.6592 38.5015V32.9204C89.6592 32.632 89.694 32.4261 89.7636 32.3025C89.4351 32.3025 88.891 32.1915 88.3732 32.0859C88.0899 32.0281 87.8144 31.9719 87.5865 31.9364C86.8398 31.8201 86.5277 31.8795 86.9193 32.0966C87.2846 32.124 87.5194 32.1927 87.6238 32.3025C87.7456 32.4124 87.8065 32.6114 87.8065 32.8998V37.41C87.8065 38.0828 87.6238 38.5427 87.2585 38.7898C86.8932 39.037 86.3539 39.1605 85.6406 39.1605C84.3185 39.1605 83.2312 38.5564 82.3788 37.3482C81.5438 36.1263 81.1263 34.3551 81.1263 32.0348C81.1263 29.7831 81.5351 28.0669 82.3527 26.8861C83.1877 25.6916 84.2402 25.0944 85.5102 25.0944C86.3626 25.0944 87.0323 25.3072 87.5194 25.7328C88.0065 26.1584 88.4415 26.941 88.8242 28.0806L89.0329 28.6984C89.0851 28.8769 89.2069 28.9662 89.3983 28.9662C89.607 28.9662 89.7114 28.8495 89.7114 28.6161L89.6331 25.4857C89.6331 25.2935 89.52 25.1493 89.2939 25.0532C88.8764 24.8884 88.3893 24.758 87.8326 24.6619C87.2759 24.552 86.6583 24.4971 85.9799 24.4971C84.6403 24.4971 83.4487 24.8129 82.4049 25.4445C81.3785 26.0623 80.5696 26.941 79.9781 28.0806C79.3866 29.2064 79.0909 30.5245 79.0909 32.0348C79.0909 33.6 79.3431 34.9592 79.8476 36.1125C80.3521 37.2521 81.0915 38.1377 82.0657 38.7692Z" fill="black"/>
<path fill-rule="evenodd" clip-rule="evenodd" d="M100.342 37.573C100.938 38.4715 101.699 38.9886 102.625 39.1243C102.716 39.3361 103.08 39.7744 103.079 39.8428C102.879 39.7763 102.467 39.7152 102.254 39.657C102.118 39.6196 101.989 39.5844 101.882 39.5518C100.977 39.3184 100.16 38.8516 99.4292 38.1514C99.1389 37.8608 98.8731 37.543 98.6318 37.1978C99.1195 37.3452 100.144 37.6266 100.342 37.573ZM99.1943 32.0966C99.1943 34.0188 99.4222 35.5454 99.8779 36.6763C99.7347 36.668 98.5323 36.2302 97.949 36.0124C97.8731 35.8511 97.8011 35.6854 97.733 35.5153C97.3329 34.4718 97.1329 33.3322 97.1329 32.0966C97.1329 31.0256 97.2807 30.0302 97.5765 29.1103C97.8896 28.1904 98.3158 27.3873 98.8551 26.7008C99.4118 26.0005 100.055 25.4582 100.786 25.0738C101.517 24.6893 102.3 24.4971 103.135 24.4971C103.97 24.4971 104.744 24.6893 105.457 25.0738C106.188 25.4582 106.831 26.0005 107.388 26.7008C107.945 27.3873 108.371 28.1904 108.667 29.1103C108.98 30.0302 109.136 31.0256 109.136 32.0966C109.136 33.3597 108.919 34.5267 108.484 35.5977C108.067 36.6549 107.484 37.5336 106.736 38.2338C106.145 38.7998 105.486 39.2043 104.759 39.4474C104.618 39.3138 104.331 39.0283 104.31 38.9548C105 38.6918 105.574 38.1769 106.031 37.41C106.727 36.243 107.075 34.4718 107.075 32.0966C107.075 29.7213 106.727 27.957 106.031 26.8037C105.335 25.6367 104.37 25.0532 103.135 25.0532C101.917 25.0532 100.951 25.6367 100.238 26.8037C99.5423 27.957 99.1943 29.7213 99.1943 32.0966Z" fill="black"/>
<path d="M84.5915 32.9204C85.0245 32.4535 86.3889 31.4977 88.1045 31.6954C90.2489 31.9425 95.7634 35.4998 97.4748 36.4543C97.7139 36.5877 98.0311 36.7222 98.4005 36.8466C98.9098 37.018 99.5186 37.17 100.16 37.273C100.656 37.3527 101.172 37.403 101.676 37.41C101.738 37.4109 101.8 37.4112 101.861 37.4111C101.774 37.308 101.684 37.2043 101.592 37.0996C101.026 37.1015 100.485 37.031 99.9829 36.9209C99.2536 36.7611 98.607 36.5178 98.0869 36.2923C97.8569 36.1926 97.6516 36.0964 97.4748 36.0124C96.1455 35.3808 90.9659 31.9249 88.6345 31.5405C86.7693 31.233 84.9622 32.2796 84.5915 32.9204Z" fill="black"/>
<path d="M102.536 37.3876C102.455 37.2847 102.369 37.1747 102.28 37.0606C102.047 37.0865 101.818 37.0988 101.592 37.0996C101.684 37.2043 101.774 37.308 101.861 37.4111C102.095 37.4107 102.32 37.403 102.536 37.3876Z" fill="black"/>
<path d="M103.949 39.0668C103.692 39.1293 103.42 39.1605 103.135 39.1605C103.097 39.1605 103.059 39.16 103.022 39.1588C103.084 39.3229 103.134 39.346 103.27 39.5803C103.406 39.8146 103.838 40.3769 104.014 40.7597C104.358 41.5065 104.799 42.0586 105.338 42.4157C105.877 42.7729 106.448 42.9933 107.049 43.0768C107.671 43.1716 108.239 43.1831 108.753 43.1116C109.352 43.0282 109.836 42.8982 110.202 42.7217C110.589 42.5563 110.902 42.3734 111.14 42.173C111.256 42.0593 111.303 41.9551 111.282 41.8604C111.258 41.7523 111.183 41.693 111.057 41.6826C110.931 41.6723 110.807 41.7105 110.685 41.7971C110.211 42.1279 109.76 42.2789 109.203 42.4006C108.606 42.5312 108.173 42.6458 107.323 42.4006C106.473 42.1555 106.106 41.834 105.623 41.0927C105.217 40.4712 104.569 39.7362 103.949 39.0668Z" fill="black"/>
<path fill-rule="evenodd" clip-rule="evenodd" d="M106.752 31.8804C107.147 32.9702 107.109 33.9372 106.151 35.444C106.05 35.6028 105.925 35.7546 105.795 35.8906C105.565 36.1318 105.32 36.3232 105.17 36.4158C104.644 36.7401 104.475 36.8216 104.143 36.9634C103.52 37.2304 102.951 37.3582 102.536 37.3876C102.455 37.2847 102.369 37.1747 102.28 37.0606C102.561 37.0293 102.846 36.9782 103.135 36.9035C103.645 36.7712 104.257 36.4328 104.644 36.1649C104.918 35.9751 105.197 35.6271 105.218 35.5977C105.914 34.6467 106.333 33.6328 106.124 32.6989C106.055 32.3924 105.781 31.9858 105.346 31.9338C104.858 31.8757 104.085 32.1251 103.437 32.8998C102.848 31.9364 101.882 31.4737 100.905 31.7671C100.675 31.8359 100.348 32.2842 100.238 32.7646C100.11 33.3272 100.222 34.3724 100.905 35.3893C101.054 35.6115 101.33 35.9327 101.622 36.2732C101.811 36.4932 102.007 36.7212 102.18 36.9359C102.141 36.9479 101.693 36.9612 101.475 36.9663C101.426 36.9114 101.375 36.8544 101.322 36.7957C101.061 36.5031 100.765 36.1721 100.543 35.8906C100.502 35.8388 100.462 35.7881 100.422 35.738C99.7306 34.8687 99.2071 34.2106 99.4292 32.3693C99.5285 31.5457 100.177 31.0336 100.967 30.9198C101.927 30.7814 103.062 31.2224 103.54 32.3025C103.819 31.6814 104.646 31.0989 105.482 31.1078C105.946 31.1127 106.576 31.3933 106.752 31.8804Z" fill="black"/>
<path fill-rule="evenodd" clip-rule="evenodd" d="M103.949 39.0668C103.692 39.1293 103.42 39.1605 103.135 39.1605C103.097 39.1605 103.059 39.16 103.022 39.1588C102.901 38.8411 102.779 38.6665 102.551 38.341C102.483 38.2442 102.406 38.134 102.316 38.0028C102.219 37.8592 102.11 37.7164 101.994 37.573C102.193 37.565 102.602 37.5447 102.647 37.5277C102.719 37.6199 102.786 37.7041 102.844 37.7776C102.919 37.8722 102.98 37.9491 103.022 38.0028C103.368 38.4439 103.693 38.7924 103.882 38.9955C103.907 39.0217 103.929 39.0455 103.949 39.0668Z" fill="black"/>
<circle cx="90.6827" cy="24.2582" r="1" stroke="black" stroke-width="0.505019"/>
<circle cx="90.6827" cy="24.2582" r="1" stroke="black" stroke-width="0.505019"/>
<path d="M94.4526 20.7614C94.4526 20.0122 93.8455 19.4048 93.0963 19.4048C92.3472 19.4048 91.7398 20.0122 91.7398 20.7614C91.7398 21.5105 92.3472 22.1177 93.0963 22.1177V22.6325L93 22.6303C92.0432 22.5818 91.276 21.8145 91.2274 20.8576L91.2249 20.7614C91.2249 19.7278 92.0628 18.8899 93.0963 18.8899L93.1926 18.8925C94.1814 18.9426 94.9675 19.7602 94.9675 20.7614L94.9652 20.8576C94.9151 21.8464 94.0975 22.6325 93.0963 22.6325V22.1177C93.8454 22.1176 94.4526 21.5105 94.4526 20.7614Z" fill="black"/>
<path d="M94.4526 20.7614C94.4526 20.0122 93.8455 19.4048 93.0963 19.4048C92.3472 19.4048 91.7398 20.0122 91.7398 20.7614C91.7398 21.5105 92.3472 22.1177 93.0963 22.1177V22.6325L93 22.6303C92.0432 22.5818 91.276 21.8145 91.2274 20.8576L91.2249 20.7614C91.2249 19.7278 92.0628 18.8899 93.0963 18.8899L93.1926 18.8925C94.1814 18.9426 94.9675 19.7602 94.9675 20.7614L94.9652 20.8576C94.9151 21.8464 94.0975 22.6325 93.0963 22.6325V22.1177C93.8454 22.1176 94.4526 21.5105 94.4526 20.7614Z" fill="black"/>
<path d="M8.55027 78.4014H22.8103V79.8614H8.55027V78.4014ZM8.55027 72.5414H22.9903V73.9814H8.55027V72.5414ZM7.61027 66.7414H23.7703V81.0614H22.3103V68.2014H9.03027V81.1414H7.61027V66.7414ZM12.4103 62.9414H13.8903V79.3614H12.4103V62.9414ZM17.2703 62.9414H18.7303V79.3014H17.2703V62.9414ZM34.8503 63.7214C34.7703 64.1214 34.6636 64.5948 34.5303 65.1414C34.4103 65.6748 34.2103 66.2814 33.9303 66.9614C33.6903 67.5614 33.3903 68.1814 33.0303 68.8214C32.6836 69.4614 32.3103 70.0414 31.9103 70.5614C32.1636 70.4014 32.4503 70.2681 32.7703 70.1614C33.0903 70.0414 33.4169 69.9548 33.7503 69.9014C34.0969 69.8481 34.4103 69.8214 34.6903 69.8214C35.4636 69.8214 36.1169 70.0414 36.6503 70.4814C37.1836 70.9081 37.4503 71.5348 37.4503 72.3614C37.4503 72.6148 37.4503 72.9414 37.4503 73.3414C37.4503 73.7281 37.4503 74.1414 37.4503 74.5814C37.4636 75.0081 37.4769 75.4281 37.4903 75.8414C37.5036 76.2548 37.5103 76.6148 37.5103 76.9214H35.9703C35.9836 76.6548 35.9969 76.3414 36.0103 75.9814C36.0236 75.6214 36.0303 75.2414 36.0303 74.8414C36.0436 74.4414 36.0436 74.0614 36.0303 73.7014C36.0303 73.3414 36.0303 73.0348 36.0303 72.7814C36.0303 72.1948 35.8503 71.7681 35.4903 71.5014C35.1436 71.2214 34.7036 71.0814 34.1703 71.0814C33.5436 71.0814 32.9236 71.2214 32.3103 71.5014C31.7103 71.7681 31.1836 72.1148 30.7303 72.5414C30.4369 72.8214 30.1436 73.1414 29.8503 73.5014C29.5703 73.8481 29.2569 74.2214 28.9103 74.6214L27.5503 73.6214C28.5103 72.6881 29.3103 71.8148 29.9503 71.0014C30.5903 70.1881 31.1103 69.4348 31.5103 68.7414C31.9103 68.0348 32.2236 67.4014 32.4503 66.8414C32.6636 66.2814 32.8369 65.7214 32.9703 65.1614C33.1036 64.5881 33.1836 64.0614 33.2103 63.5814L34.8503 63.7214ZM28.0103 65.8814C28.5436 65.9481 29.1236 66.0014 29.7503 66.0414C30.3769 66.0814 30.9236 66.1014 31.3903 66.1014C32.2836 66.1014 33.2436 66.0814 34.2703 66.0414C35.2969 65.9881 36.3303 65.9148 37.3703 65.8214C38.4236 65.7281 39.4236 65.5948 40.3703 65.4214L40.3503 66.9014C39.6569 67.0214 38.9169 67.1214 38.1303 67.2014C37.3436 67.2681 36.5436 67.3281 35.7303 67.3814C34.9169 67.4214 34.1303 67.4548 33.3703 67.4814C32.6236 67.4948 31.9303 67.5014 31.2903 67.5014C31.0103 67.5014 30.6836 67.5014 30.3103 67.5014C29.9503 67.4881 29.5703 67.4748 29.1703 67.4614C28.7703 67.4348 28.3836 67.4081 28.0103 67.3814V65.8814ZM43.2903 70.7214C43.1169 70.7614 42.9236 70.8214 42.7103 70.9014C42.5103 70.9681 42.3036 71.0414 42.0903 71.1214C41.8903 71.2014 41.6969 71.2814 41.5103 71.3614C40.8169 71.6281 40.0103 71.9548 39.0903 72.3414C38.1703 72.7281 37.2303 73.1748 36.2703 73.6814C35.6036 74.0148 35.0169 74.3681 34.5103 74.7414C34.0036 75.1014 33.6036 75.4814 33.3103 75.8814C33.0169 76.2681 32.8703 76.6948 32.8703 77.1614C32.8703 77.5481 32.9569 77.8614 33.1303 78.1014C33.3169 78.3414 33.5769 78.5281 33.9103 78.6614C34.2436 78.7814 34.6236 78.8614 35.0503 78.9014C35.4903 78.9414 35.9703 78.9614 36.4903 78.9614C37.2636 78.9614 38.1436 78.9214 39.1303 78.8414C40.1303 78.7481 41.0703 78.6281 41.9503 78.4814L41.9103 80.0814C41.4036 80.1481 40.8303 80.2081 40.1903 80.2614C39.5636 80.3148 38.9236 80.3548 38.2703 80.3814C37.6303 80.4214 37.0169 80.4414 36.4303 80.4414C35.4836 80.4414 34.6169 80.3548 33.8303 80.1814C33.0569 80.0081 32.4369 79.7014 31.9703 79.2614C31.5036 78.8214 31.2703 78.1948 31.2703 77.3814C31.2703 76.7814 31.4103 76.2348 31.6903 75.7414C31.9703 75.2348 32.3436 74.7748 32.8103 74.3614C33.2903 73.9481 33.8169 73.5681 34.3903 73.2214C34.9636 72.8614 35.5503 72.5348 36.1503 72.2414C36.7903 71.8948 37.3903 71.5948 37.9503 71.3414C38.5236 71.0881 39.0636 70.8548 39.5703 70.6414C40.0769 70.4281 40.5503 70.2148 40.9903 70.0014C41.2836 69.8681 41.5636 69.7414 41.8303 69.6214C42.0969 69.5014 42.3636 69.3681 42.6303 69.2214L43.2903 70.7214ZM50.6303 70.6414V77.7214H49.1703V72.0414H46.6303V70.6414H50.6303ZM50.6303 77.0614C51.1236 77.7948 51.8103 78.3414 52.6903 78.7014C53.5836 79.0614 54.6303 79.2614 55.8303 79.3014C56.3769 79.3281 57.0436 79.3481 57.8303 79.3614C58.6169 79.3614 59.4369 79.3548 60.2903 79.3414C61.1569 79.3281 61.9969 79.3081 62.8103 79.2814C63.6236 79.2548 64.3236 79.2214 64.9103 79.1814C64.8569 79.2881 64.7969 79.4348 64.7303 79.6214C64.6636 79.8081 64.6036 79.9948 64.5503 80.1814C64.4969 80.3814 64.4569 80.5548 64.4303 80.7014C63.8836 80.7281 63.2303 80.7481 62.4703 80.7614C61.7236 80.7748 60.9436 80.7814 60.1303 80.7814C59.3169 80.7948 58.5303 80.7948 57.7703 80.7814C57.0236 80.7814 56.3769 80.7748 55.8303 80.7614C54.4836 80.7081 53.3369 80.4948 52.3903 80.1214C51.4436 79.7481 50.6436 79.1614 49.9903 78.3614C49.5236 78.7881 49.0569 79.2148 48.5903 79.6414C48.1236 80.0814 47.6303 80.5281 47.1103 80.9814L46.3103 79.4414C46.7769 79.1214 47.2703 78.7548 47.7903 78.3414C48.3103 77.9148 48.8036 77.4881 49.2703 77.0614H50.6303ZM46.7903 64.1014L47.9103 63.2214C48.3236 63.5148 48.7436 63.8548 49.1703 64.2414C49.6103 64.6148 50.0103 64.9948 50.3703 65.3814C50.7303 65.7548 51.0169 66.1081 51.2303 66.4414L50.0303 67.4014C49.8303 67.0814 49.5503 66.7281 49.1903 66.3414C48.8436 65.9414 48.4636 65.5481 48.0503 65.1614C47.6369 64.7614 47.2169 64.4081 46.7903 64.1014ZM53.6703 73.1614H62.6303V74.5814H53.6703V73.1614ZM51.7703 66.1214H64.5503V67.5014H51.7703V66.1214ZM52.9503 68.7214H54.3103V74.5814H52.9503V68.7214ZM62.0503 68.7214H63.4503V74.5814H62.0503V68.7214ZM61.2303 62.7414L62.7903 63.1614C62.4836 63.6948 62.1503 64.2348 61.7903 64.7814C61.4436 65.3148 61.1169 65.7681 60.8103 66.1414L59.5503 65.7414C59.7503 65.4614 59.9503 65.1481 60.1503 64.8014C60.3636 64.4414 60.5636 64.0814 60.7503 63.7214C60.9503 63.3614 61.1103 63.0348 61.2303 62.7414ZM53.5503 63.3414L54.7903 62.8214C55.1503 63.2481 55.4903 63.7281 55.8103 64.2614C56.1436 64.7948 56.3769 65.2681 56.5103 65.6814L55.2103 66.2614C55.0903 65.8481 54.8703 65.3681 54.5503 64.8214C54.2303 64.2748 53.8969 63.7814 53.5503 63.3414ZM57.3703 66.7014H58.8303V72.5414C58.8303 73.1814 58.7769 73.8214 58.6703 74.4614C58.5636 75.1014 58.3703 75.7148 58.0903 76.3014C57.8103 76.8748 57.3969 77.4014 56.8503 77.8814C56.3036 78.3614 55.5836 78.7681 54.6903 79.1014C54.6503 78.9948 54.5769 78.8681 54.4703 78.7214C54.3636 78.5748 54.2503 78.4348 54.1303 78.3014C54.0236 78.1681 53.9169 78.0548 53.8103 77.9614C54.6103 77.7214 55.2436 77.4014 55.7103 77.0014C56.1903 76.5881 56.5436 76.1348 56.7703 75.6414C57.0103 75.1481 57.1703 74.6348 57.2503 74.1014C57.3303 73.5681 57.3703 73.0481 57.3703 72.5414V66.7014ZM74.4103 63.9414C74.3703 64.1148 74.3303 64.3081 74.2903 64.5214C74.2503 64.7214 74.2103 64.9214 74.1703 65.1214C74.1303 65.3614 74.0703 65.6881 73.9903 66.1014C73.9236 66.5148 73.8503 66.9548 73.7703 67.4214C73.6903 67.8748 73.5969 68.3081 73.4903 68.7214C73.3569 69.2948 73.1903 69.9414 72.9903 70.6614C72.7903 71.3681 72.5636 72.1214 72.3103 72.9214C72.0569 73.7214 71.7703 74.5414 71.4503 75.3814C71.1303 76.2081 70.7769 77.0348 70.3903 77.8614C70.0036 78.6748 69.5836 79.4414 69.1303 80.1614L67.4903 79.5214C67.9569 78.9081 68.3836 78.2214 68.7703 77.4614C69.1703 76.7014 69.5369 75.9148 69.8703 75.1014C70.2036 74.2748 70.5036 73.4614 70.7703 72.6614C71.0503 71.8614 71.2836 71.1214 71.4703 70.4414C71.6569 69.7614 71.8036 69.1748 71.9103 68.6814C72.0969 67.8814 72.2503 67.0548 72.3703 66.2014C72.4903 65.3348 72.5503 64.5148 72.5503 63.7414L74.4103 63.9414ZM81.2903 66.0614C81.6103 66.4748 81.9436 66.9881 82.2903 67.6014C82.6503 68.2148 82.9969 68.8681 83.3303 69.5614C83.6769 70.2548 83.9903 70.9214 84.2703 71.5614C84.5503 72.2014 84.7769 72.7548 84.9503 73.2214L83.3903 73.9614C83.2436 73.4548 83.0436 72.8748 82.7903 72.2214C82.5369 71.5548 82.2436 70.8814 81.9103 70.2014C81.5903 69.5081 81.2503 68.8614 80.8903 68.2614C80.5436 67.6481 80.1903 67.1348 79.8303 66.7214L81.2903 66.0614ZM67.2103 68.3214C67.5169 68.3481 67.8103 68.3614 68.0903 68.3614C68.3703 68.3481 68.6703 68.3348 68.9903 68.3214C69.2969 68.3081 69.6836 68.2881 70.1503 68.2614C70.6169 68.2214 71.1236 68.1814 71.6703 68.1414C72.2303 68.1014 72.7769 68.0614 73.3103 68.0214C73.8569 67.9681 74.3569 67.9281 74.8103 67.9014C75.2769 67.8614 75.6436 67.8414 75.9103 67.8414C76.5103 67.8414 77.0503 67.9348 77.5303 68.1214C78.0236 68.3081 78.4169 68.6481 78.7103 69.1414C79.0036 69.6348 79.1503 70.3281 79.1503 71.2214C79.1503 72.0081 79.1103 72.8614 79.0303 73.7814C78.9636 74.6881 78.8436 75.5548 78.6703 76.3814C78.4969 77.2081 78.2703 77.8948 77.9903 78.4414C77.6836 79.1214 77.2836 79.5681 76.7903 79.7814C76.2969 80.0081 75.7236 80.1214 75.0703 80.1214C74.6969 80.1214 74.2903 80.0881 73.8503 80.0214C73.4103 79.9681 73.0303 79.9014 72.7103 79.8214L72.4503 78.1614C72.7436 78.2414 73.0369 78.3148 73.3303 78.3814C73.6369 78.4481 73.9303 78.4948 74.2103 78.5214C74.4903 78.5481 74.7236 78.5614 74.9103 78.5614C75.2703 78.5614 75.5969 78.5014 75.8903 78.3814C76.1969 78.2481 76.4503 77.9681 76.6503 77.5414C76.8636 77.0881 77.0369 76.5214 77.1703 75.8414C77.3169 75.1481 77.4236 74.4148 77.4903 73.6414C77.5703 72.8681 77.6103 72.1281 77.6103 71.4214C77.6103 70.7948 77.5236 70.3348 77.3503 70.0414C77.1769 69.7348 76.9303 69.5281 76.6103 69.4214C76.2903 69.3014 75.9169 69.2414 75.4903 69.2414C75.1436 69.2414 74.6836 69.2681 74.1103 69.3214C73.5369 69.3614 72.9236 69.4148 72.2703 69.4814C71.6303 69.5481 71.0303 69.6148 70.4703 69.6814C69.9103 69.7348 69.4769 69.7814 69.1703 69.8214C68.9436 69.8481 68.6503 69.8881 68.2903 69.9414C67.9436 69.9814 67.6369 70.0214 67.3703 70.0614L67.2103 68.3214ZM92.3503 63.8614C92.7769 63.9948 93.3303 64.1414 94.0103 64.3014C94.7036 64.4614 95.4303 64.6214 96.1903 64.7814C96.9636 64.9281 97.6969 65.0614 98.3903 65.1814C99.0836 65.2881 99.6503 65.3614 100.09 65.4014L99.7103 66.9414C99.3369 66.8881 98.8769 66.8148 98.3303 66.7214C97.7969 66.6281 97.2236 66.5214 96.6103 66.4014C95.9969 66.2814 95.3903 66.1614 94.7903 66.0414C94.1903 65.9081 93.6436 65.7881 93.1503 65.6814C92.6569 65.5614 92.2569 65.4614 91.9503 65.3814L92.3503 63.8614ZM91.9103 67.5014C91.8436 67.8481 91.7703 68.2748 91.6903 68.7814C91.6236 69.2748 91.5503 69.7948 91.4703 70.3414C91.3903 70.8881 91.3169 71.4081 91.2503 71.9014C91.1836 72.3948 91.1236 72.8014 91.0703 73.1214C92.0436 72.2814 93.0703 71.6681 94.1503 71.2814C95.2436 70.8814 96.3903 70.6814 97.5903 70.6814C98.6169 70.6814 99.5103 70.8681 100.27 71.2414C101.03 71.6014 101.624 72.1014 102.05 72.7414C102.477 73.3681 102.69 74.0748 102.69 74.8614C102.69 75.7548 102.484 76.5681 102.07 77.3014C101.67 78.0214 101.037 78.6281 100.17 79.1214C99.3169 79.6148 98.2236 79.9614 96.8903 80.1614C95.5569 80.3748 93.9569 80.4014 92.0903 80.2414L91.6103 78.6014C93.7303 78.8548 95.4836 78.8481 96.8703 78.5814C98.2569 78.3014 99.2903 77.8348 99.9703 77.1814C100.664 76.5148 101.01 75.7281 101.01 74.8214C101.01 74.2881 100.857 73.8148 100.55 73.4014C100.244 72.9881 99.8236 72.6681 99.2903 72.4414C98.7703 72.2014 98.1703 72.0814 97.4903 72.0814C96.1836 72.0814 94.9969 72.3214 93.9303 72.8014C92.8769 73.2681 91.9969 73.9214 91.2903 74.7614C91.1436 74.9348 91.0236 75.1081 90.9303 75.2814C90.8369 75.4414 90.7569 75.6014 90.6903 75.7614L89.2103 75.4014C89.2903 75.0281 89.3703 74.5814 89.4503 74.0614C89.5303 73.5281 89.6103 72.9614 89.6903 72.3614C89.7703 71.7481 89.8436 71.1348 89.9103 70.5214C89.9903 69.9081 90.0569 69.3214 90.1103 68.7614C90.1636 68.1881 90.2036 67.6948 90.2303 67.2814L91.9103 67.5014ZM11.3303 96.5614H19.8903V97.7414H11.3303V96.5614ZM9.13027 99.4414H22.0903V100.661H9.13027V99.4414ZM14.7703 97.0814H16.1503V98.4614C16.1503 98.9281 16.1036 99.4081 16.0103 99.9014C15.9303 100.381 15.7503 100.868 15.4703 101.361C15.2036 101.855 14.8036 102.335 14.2703 102.801C13.7369 103.255 13.0236 103.688 12.1303 104.101C11.2503 104.515 10.1369 104.888 8.79027 105.221C8.73694 105.115 8.65694 104.995 8.55027 104.861C8.45694 104.728 8.35027 104.595 8.23027 104.461C8.1236 104.328 8.01694 104.215 7.91027 104.121C9.1636 103.828 10.2036 103.501 11.0303 103.141C11.8703 102.781 12.5369 102.408 13.0303 102.021C13.5369 101.621 13.9103 101.221 14.1503 100.821C14.4036 100.408 14.5703 100.001 14.6503 99.6014C14.7303 99.1881 14.7703 98.7948 14.7703 98.4214V97.0814ZM16.3903 99.8214C16.9103 100.955 17.7569 101.875 18.9303 102.581C20.1036 103.275 21.5369 103.735 23.2303 103.961C23.0836 104.108 22.9303 104.301 22.7703 104.541C22.6103 104.781 22.4836 104.995 22.3903 105.181C21.2036 104.955 20.1369 104.615 19.1903 104.161C18.2569 103.721 17.4503 103.161 16.7703 102.481C16.1036 101.788 15.5703 100.981 15.1703 100.061L16.3903 99.8214ZM6.69027 93.8814H24.6303V95.1414H6.69027V93.8814ZM8.85027 91.0814H22.5503V92.3214H8.85027V91.0814ZM8.15027 88.3214H23.3903V89.5414H8.15027V88.3214ZM17.9303 91.4014C18.3436 92.4814 18.8903 93.4881 19.5703 94.4214C20.2636 95.3548 21.0703 96.1748 21.9903 96.8814C22.9103 97.5748 23.9103 98.1214 24.9903 98.5214C24.8703 98.6148 24.7436 98.7414 24.6103 98.9014C24.4903 99.0481 24.3769 99.2014 24.2703 99.3614C24.1636 99.5081 24.0703 99.6481 23.9903 99.7814C22.8703 99.3014 21.8369 98.6681 20.8903 97.8814C19.9569 97.0948 19.1303 96.1814 18.4103 95.1414C17.7036 94.1014 17.1169 92.9681 16.6503 91.7414L17.9303 91.4014ZM14.4303 86.7414L15.9503 86.8414C15.8303 88.0948 15.5769 89.3548 15.1903 90.6214C14.8036 91.8748 14.2703 93.0881 13.5903 94.2614C12.9103 95.4214 12.0503 96.4948 11.0103 97.4814C9.97027 98.4681 8.73694 99.3148 7.31027 100.021C7.25694 99.8881 7.17027 99.7548 7.05027 99.6214C6.93027 99.4748 6.8036 99.3348 6.67027 99.2014C6.53694 99.0681 6.41027 98.9681 6.29027 98.9014C7.67694 98.2614 8.8636 97.4881 9.85027 96.5814C10.8503 95.6614 11.6703 94.6614 12.3103 93.5814C12.9636 92.4881 13.4569 91.3614 13.7903 90.2014C14.1236 89.0281 14.3369 87.8748 14.4303 86.7414ZM27.2303 90.3814C27.6036 90.3681 27.9436 90.3548 28.2503 90.3414C28.5703 90.3148 28.8236 90.2948 29.0103 90.2814C29.3303 90.2414 29.7903 90.1948 30.3903 90.1414C31.0036 90.0748 31.7036 90.0081 32.4903 89.9414C33.2769 89.8614 34.1236 89.7814 35.0303 89.7014C35.9369 89.6214 36.8503 89.5414 37.7703 89.4614C38.5036 89.3948 39.1969 89.3414 39.8503 89.3014C40.5036 89.2481 41.1103 89.2081 41.6703 89.1814C42.2303 89.1414 42.7303 89.1148 43.1703 89.1014V90.7014C42.7969 90.7014 42.3703 90.7081 41.8903 90.7214C41.4103 90.7348 40.9369 90.7614 40.4703 90.8014C40.0036 90.8414 39.5969 90.9148 39.2503 91.0214C38.5436 91.2481 37.9036 91.5948 37.3303 92.0614C36.7703 92.5148 36.2903 93.0414 35.8903 93.6414C35.4903 94.2414 35.1836 94.8614 34.9703 95.5014C34.7703 96.1414 34.6703 96.7614 34.6703 97.3614C34.6703 98.1348 34.8036 98.8148 35.0703 99.4014C35.3369 99.9748 35.6969 100.461 36.1503 100.861C36.6169 101.261 37.1436 101.588 37.7303 101.841C38.3169 102.095 38.9369 102.288 39.5903 102.421C40.2569 102.541 40.9169 102.608 41.5703 102.621L40.9903 104.281C40.2436 104.255 39.4969 104.148 38.7503 103.961C38.0036 103.788 37.2903 103.535 36.6103 103.201C35.9303 102.855 35.3236 102.421 34.7903 101.901C34.2569 101.381 33.8369 100.775 33.5303 100.081C33.2236 99.3881 33.0703 98.5948 33.0703 97.7014C33.0703 96.6614 33.2503 95.7014 33.6103 94.8214C33.9836 93.9281 34.4569 93.1481 35.0303 92.4814C35.6036 91.8148 36.1969 91.3014 36.8103 90.9414C36.3836 90.9948 35.8503 91.0548 35.2103 91.1214C34.5836 91.1881 33.9103 91.2614 33.1903 91.3414C32.4703 91.4081 31.7436 91.4881 31.0103 91.5814C30.2903 91.6748 29.6169 91.7681 28.9903 91.8614C28.3636 91.9414 27.8369 92.0281 27.4103 92.1214L27.2303 90.3814ZM40.2903 93.1614C40.4369 93.3748 40.6103 93.6481 40.8103 93.9814C41.0236 94.3014 41.2303 94.6348 41.4303 94.9814C41.6303 95.3148 41.7969 95.6348 41.9303 95.9414L40.9103 96.4214C40.6836 95.9281 40.4303 95.4414 40.1503 94.9614C39.8703 94.4681 39.5769 94.0148 39.2703 93.6014L40.2903 93.1614ZM42.4703 92.3214C42.6303 92.5348 42.8169 92.8014 43.0303 93.1214C43.2436 93.4414 43.4503 93.7748 43.6503 94.1214C43.8636 94.4548 44.0503 94.7748 44.2103 95.0814L43.1703 95.5814C42.9303 95.0881 42.6636 94.6014 42.3703 94.1214C42.0903 93.6414 41.7969 93.1948 41.4903 92.7814L42.4703 92.3214ZM50.2903 88.9414C50.4769 88.9548 50.6836 88.9681 50.9103 88.9814C51.1503 88.9948 51.4103 89.0014 51.6903 89.0014C51.9036 89.0014 52.2303 89.0014 52.6703 89.0014C53.1236 88.9881 53.6303 88.9748 54.1903 88.9614C54.7636 88.9481 55.3369 88.9348 55.9103 88.9214C56.4836 88.8948 57.0036 88.8748 57.4703 88.8614C57.9503 88.8481 58.3169 88.8348 58.5703 88.8214C58.7436 88.7948 58.9369 88.7681 59.1503 88.7414C59.3636 88.7148 59.5436 88.6814 59.6903 88.6414L60.6503 89.8014C60.5169 89.8681 60.3636 89.9614 60.1903 90.0814C60.0169 90.2014 59.8769 90.3014 59.7703 90.3814C59.3969 90.6881 58.9769 91.0348 58.5103 91.4214C58.0569 91.8081 57.5769 92.2081 57.0703 92.6214C56.5636 93.0348 56.0636 93.4414 55.5703 93.8414C55.0903 94.2281 54.6436 94.5948 54.2303 94.9414C54.7769 94.7281 55.2903 94.5881 55.7703 94.5214C56.2503 94.4414 56.6903 94.4014 57.0903 94.4014C58.2103 94.4014 59.1836 94.5948 60.0103 94.9814C60.8503 95.3681 61.5036 95.9081 61.9703 96.6014C62.4503 97.2814 62.6903 98.0748 62.6903 98.9814C62.6903 100.261 62.2836 101.335 61.4703 102.201C60.6569 103.055 59.4769 103.668 57.9303 104.041C56.3836 104.415 54.5036 104.515 52.2903 104.341L51.8503 102.721C53.2369 102.895 54.4903 102.935 55.6103 102.841C56.7436 102.748 57.7103 102.535 58.5103 102.201C59.3103 101.868 59.9236 101.428 60.3503 100.881C60.7903 100.335 61.0103 99.6948 61.0103 98.9614C61.0103 98.0014 60.6303 97.2214 59.8703 96.6214C59.1103 96.0214 58.0903 95.7214 56.8103 95.7214C55.9436 95.7214 55.1636 95.8281 54.4703 96.0414C53.7903 96.2414 53.1503 96.5281 52.5503 96.9014C51.9636 97.2748 51.3836 97.7148 50.8103 98.2214C50.2503 98.7281 49.6569 99.2814 49.0303 99.8814L47.8103 98.6414C48.3969 98.1748 49.0569 97.6481 49.7903 97.0614C50.5236 96.4614 51.2769 95.8348 52.0503 95.1814C52.8369 94.5281 53.5969 93.8881 54.3303 93.2614C55.0769 92.6348 55.7436 92.0548 56.3303 91.5214C56.9169 90.9881 57.3769 90.5481 57.7103 90.2014C57.4703 90.2148 57.1436 90.2348 56.7303 90.2614C56.3169 90.2748 55.8636 90.2948 55.3703 90.3214C54.8769 90.3348 54.3903 90.3548 53.9103 90.3814C53.4303 90.3948 52.9969 90.4148 52.6103 90.4414C52.2369 90.4548 51.9503 90.4681 51.7503 90.4814C51.5236 90.4948 51.2769 90.5148 51.0103 90.5414C50.7569 90.5548 50.5303 90.5814 50.3303 90.6214L50.2903 88.9414Z" fill="black"/>
<path d="M109.302 56.9939V52.7678H132.871M109.302 56.9939V69.6724H132.871M109.302 56.9939H132.871M132.871 52.7678H162.797M132.871 52.7678V56.9939M109.302 65.4462H132.871M132.871 69.6724V65.4462M132.871 69.6724H162.797M162.797 69.6724V65.4462M162.797 69.6724L192.724 69.6723M162.797 52.7678V56.9939M162.797 52.7678L192.724 52.7678M162.797 56.9939V61.2201M162.797 56.9939H132.871M162.797 56.9939L192.724 56.9939L195.156 56.9939M162.797 61.2201V65.4462M162.797 61.2201L132.871 61.2201M162.797 61.2201L192.724 61.2201L195.156 61.2201M162.797 65.4462H132.871M162.797 65.4462L192.724 65.4462L195.156 65.4462M132.871 56.9939V61.2201M132.871 65.4462V61.2201M132.871 61.2201H109.302M192.724 69.6723V52.7678M192.724 69.6723L195.156 69.6723M192.724 52.7678L195.156 52.7678M140.814 73.8985H146.41M139.354 73.8985H134.002" stroke="black" stroke-width="0.5"/>
<path d="M169.156 100.417V96.1911L139.229 96.1911M169.156 100.417V104.643M169.156 100.417L139.229 100.417L109.302 100.417M169.156 104.643V108.869M169.156 104.643L139.229 104.643L109.302 104.643M169.156 108.869V113.096L164.93 113.096L139.229 113.096M169.156 108.869L139.229 108.869L109.302 108.869M139.229 113.096V96.1911M139.229 113.096L109.302 113.096M139.229 96.1911L109.302 96.1909M154.739 117.322H160.399" stroke="black" stroke-width="0.5"/>
<path d="M128.378 53.7538C128.083 54.9037 126.721 56.8825 125.211 57.9989H127.369V56.1058C127.705 55.7461 128.109 55.2565 128.378 54.5811V57.9989H128.893V58.3612H128.378V59.6242H128.893V60.2341H126.876V59.6242H127.369V58.3612H124.662L124.704 57.9989C125.996 57.2529 127.213 54.7433 127.189 53.7538H128.378Z" fill="black"/>
<path d="M128.236 62.2061C127.941 63.3559 126.58 65.3347 125.07 66.4512H127.227V64.558C127.564 64.1984 127.967 63.7088 128.236 63.0334V66.4512H128.752V66.8135H128.236V68.0764H128.752V68.6863H126.735V68.0764H127.227V66.8135H124.521L124.563 66.4512C125.855 65.7052 127.072 63.1955 127.047 62.2061H128.236Z" fill="black"/>
<path d="M118.507 47.8386C118.142 47.9553 117.657 48.3868 117.312 48.8997C117.129 49.1705 116.788 49.8442 116.62 50.2691C116.253 51.2047 116.079 52.0787 116.052 53.1465C116.033 53.917 116.081 54.5753 116.246 55.8081C116.332 56.4532 116.334 56.4796 116.295 56.5148C116.273 56.5346 116.048 56.7262 115.793 56.9375C113.968 58.461 113.021 59.4913 112.327 60.7132C111.925 61.4243 111.654 62.2476 111.552 63.0644C111.517 63.3418 111.517 63.9825 111.552 64.2863C111.649 65.1471 111.944 66.0233 112.376 66.741C112.68 67.2473 113.201 67.8417 113.668 68.2138C114.549 68.9139 115.559 69.3586 116.513 69.4621C116.792 69.4929 117.587 69.4731 117.851 69.4313C117.955 69.4136 118.043 69.4026 118.045 69.407C118.049 69.4092 118.137 70.0345 118.241 70.7962L118.428 72.1788L118.432 72.6961C118.434 73.2443 118.421 73.3808 118.32 73.7419C118.087 74.5873 117.488 75.142 116.634 75.305C116.407 75.349 115.916 75.3468 115.667 75.305C115.247 75.2301 114.903 75.076 114.692 74.8669L114.56 74.7348L114.791 74.7172C115.484 74.6621 115.912 74.4177 116.145 73.9444C116.259 73.711 116.295 73.5129 116.281 73.1695C116.262 72.6697 116.125 72.3329 115.815 72.0247C115.619 71.8287 115.469 71.7319 115.227 71.6438C115.082 71.591 115.038 71.5844 114.758 71.5844C114.514 71.5844 114.425 71.5932 114.329 71.6262C113.796 71.8089 113.406 72.1986 113.23 72.7292C113.135 73.011 113.109 73.2113 113.124 73.5217C113.171 74.4199 113.692 75.2213 114.505 75.6418C114.749 75.7695 114.974 75.8487 115.284 75.9148C115.575 75.9764 116.275 75.983 116.583 75.9258C117.488 75.7541 118.135 75.3622 118.549 74.7304C118.994 74.0523 119.099 73.2862 118.921 72.0027C118.732 70.6223 118.553 69.2794 118.56 69.275C118.564 69.2705 118.646 69.2419 118.743 69.2089C119.399 68.9777 120.059 68.5308 120.482 68.0267C121.171 67.2055 121.484 66.1796 121.398 65.0194C121.347 64.3325 121.224 63.8526 120.964 63.3286C120.715 62.8244 120.37 62.4084 119.932 62.0781C119.709 61.9108 119.253 61.6752 118.985 61.5894C118.582 61.4573 118.067 61.389 117.704 61.4155C117.503 61.4287 117.501 61.4287 117.49 61.378C117.483 61.3494 117.442 61.0566 117.4 60.7308C117.356 60.4028 117.272 59.7709 117.21 59.3218L117.1 58.5072L117.162 58.4544C117.362 58.2849 118.018 57.6618 118.294 57.3822C119.408 56.2418 119.949 55.097 120.13 53.4987C120.255 52.3715 120.262 51.6296 120.149 50.8239C120 49.7385 119.692 48.8337 119.267 48.2326C118.974 47.8166 118.822 47.7373 118.507 47.8386ZM119.132 50.3241C119.353 50.421 119.511 50.6367 119.581 50.9383C119.623 51.1189 119.628 51.5438 119.59 51.7925C119.502 52.3958 119.183 53.2522 118.833 53.829C118.509 54.3573 117.878 55.1191 117.376 55.5792C117.014 55.9116 116.794 56.1031 116.786 56.0943C116.777 56.0855 116.73 55.7707 116.684 55.4075C116.572 54.5136 116.629 53.7277 116.869 52.8999C117.16 51.907 117.549 51.1563 118.027 50.6808C118.265 50.4452 118.404 50.3527 118.622 50.2911C118.754 50.2537 119.002 50.2691 119.132 50.3241ZM116.836 60.2597L117.006 61.5299L116.882 61.5674C116.378 61.7237 115.766 62.1332 115.403 62.5559C114.85 63.2009 114.544 63.9538 114.511 64.7486C114.478 65.5918 114.78 66.4063 115.33 66.9633C115.645 67.2848 116.004 67.4873 116.38 67.5622C116.537 67.593 116.554 67.593 116.605 67.5578C116.671 67.5159 116.68 67.4345 116.627 67.3794C116.607 67.3596 116.53 67.3134 116.455 67.276C115.907 67.0008 115.55 66.5076 115.438 65.8648C115.277 64.9511 115.834 63.9318 116.713 63.5267C116.86 63.4585 117.228 63.3462 117.246 63.366C117.248 63.3682 117.415 64.6055 117.616 66.1135C117.864 67.9804 117.972 68.8589 117.957 68.8677C117.944 68.8765 117.833 68.8985 117.71 68.9183C117.085 69.013 116.431 69.0196 115.993 68.9315C115.095 68.7532 114.126 68.1918 113.573 67.5247C112.902 66.719 112.587 65.8846 112.587 64.9203C112.587 64.3985 112.655 63.9847 112.821 63.4827C113.127 62.5493 113.626 61.7897 114.571 60.8232C115.154 60.2244 116.645 58.8903 116.66 58.9541C116.664 58.974 116.744 59.5618 116.836 60.2597ZM118.148 63.3748C118.514 63.4453 118.93 63.6258 119.22 63.846C119.43 64.0045 119.738 64.3391 119.861 64.5438C120.158 65.0392 120.266 65.4883 120.244 66.1466C120.218 67.0074 119.954 67.6612 119.436 68.1478C119.201 68.3701 118.747 68.6453 118.531 68.7003L118.476 68.7136L118.417 68.2666C118.384 68.0201 118.298 67.3838 118.225 66.8511C117.844 64.0243 117.763 63.4123 117.763 63.3682C117.763 63.322 117.77 63.3198 117.869 63.3308C117.926 63.3374 118.051 63.3572 118.148 63.3748Z" fill="black"/>
<path d="M159.082 55V64.0072C158.826 63.7602 158.127 63.6357 157.053 64.2483C155.547 65.1077 155.226 67.3112 156.439 67.8494C157.453 68.2996 158.49 67.7132 159.328 66.4581C159.573 66.0898 159.696 65.476 159.696 65.2304V55H159.082Z" fill="black"/>
<path d="M152.082 55V64.0072C151.826 63.7602 151.127 63.6357 150.053 64.2483C148.547 65.1077 148.226 67.3112 149.439 67.8494C150.453 68.2996 151.49 67.7132 152.328 66.4581C152.573 66.0898 152.696 65.476 152.696 65.2304V55H152.082Z" fill="black"/>
<path d="M121.354 100.096V109.103C121.098 108.856 120.399 108.731 119.326 109.344C117.82 110.203 117.498 112.407 118.711 112.945C119.725 113.395 120.762 112.809 121.6 111.554C121.846 111.185 121.969 110.572 121.969 110.326V100.096H121.354Z" fill="black"/>
<path d="M114.354 100.096V109.103C114.098 108.856 113.399 108.731 112.326 109.344C110.82 110.203 110.498 112.407 111.711 112.945C112.725 113.395 113.762 112.809 114.6 111.554C114.846 111.185 114.969 110.572 114.969 110.326V100.096H114.354Z" fill="black"/>
<path d="M135.354 102.595V111.602C135.098 111.355 134.399 111.231 133.326 111.843C131.82 112.703 131.498 114.906 132.711 115.444C133.725 115.895 134.762 115.308 135.6 114.053C135.846 113.685 135.969 113.071 135.969 112.825V102.595H135.354Z" fill="black"/>
<path d="M128.354 102.595V111.602C128.098 111.355 127.399 111.231 126.326 111.843C124.82 112.703 124.498 114.906 125.711 115.444C126.725 115.895 127.762 115.308 128.6 114.053C128.846 113.685 128.969 113.071 128.969 112.825V102.595H128.354Z" fill="black"/>
<path d="M152.082 104.643V113.651C151.826 113.403 151.127 113.279 150.053 113.892C148.547 114.751 148.226 116.954 149.439 117.493C150.453 117.943 151.49 117.356 152.328 116.101C152.573 115.733 152.696 115.119 152.696 114.874V104.643H152.082Z" fill="black"/>
<path d="M145.082 104.643V113.651C144.826 113.403 144.127 113.279 143.053 113.892C141.547 114.751 141.226 116.954 142.439 117.493C143.453 117.943 144.49 117.356 145.328 116.101C145.573 115.733 145.696 115.119 145.696 114.874V104.643H145.082Z" fill="black"/>
<path d="M175.169 52.3945V61.4017C174.913 61.1547 174.215 61.0301 173.141 61.6428C171.635 62.5021 171.313 64.7056 172.526 65.2439C173.54 65.694 174.577 65.1076 175.415 63.8525C175.661 63.4842 175.784 62.8704 175.784 62.6249V52.3945H175.169Z" fill="black"/>
<path d="M168.169 52.3945V61.4017C167.913 61.1547 167.215 61.0301 166.141 61.6428C164.635 62.5021 164.313 64.7056 165.526 65.2439C166.54 65.694 167.577 65.1076 168.415 63.8525C168.661 63.4842 168.784 62.8704 168.784 62.6249V52.3945H168.169Z" fill="black"/>
<path d="M145.082 63V72.0072C144.826 71.7602 144.127 71.6357 143.053 72.2483C141.547 73.1077 141.226 75.3112 142.439 75.8494C143.453 76.2996 144.49 75.7132 145.328 74.4581C145.573 74.0898 145.696 73.476 145.696 73.2304V63H145.082Z" fill="black"/>
<path d="M138.082 63V72.0072C137.826 71.7602 137.127 71.6357 136.053 72.2483C134.547 73.1077 134.226 75.3112 135.439 75.8494C136.453 76.2996 137.49 75.7132 138.328 74.4581C138.573 74.0898 138.696 73.476 138.696 73.2304V63H138.082Z" fill="black"/>
<path fill-rule="evenodd" clip-rule="evenodd" d="M182.169 56.382V64.0035C181.913 63.7945 181.215 63.6891 180.141 64.2075C178.635 64.9347 178.313 66.7992 179.526 67.2546C180.54 67.6355 181.577 67.1393 182.415 66.0773C182.661 65.7657 182.784 65.2463 182.784 65.0385V56.382H182.169ZM180.259 66.4928C179.718 66.7144 179.577 66.4467 179.526 66.2851C179.416 65.9388 180.935 64.623 181.458 64.5884C181.98 64.5538 182.042 64.6577 181.98 65.0385C181.919 65.4194 180.935 66.2158 180.259 66.4928Z" fill="black"/>
<path fill-rule="evenodd" clip-rule="evenodd" d="M159.018 107.958V115.579C158.762 115.37 158.064 115.265 156.99 115.783C155.484 116.511 155.162 118.375 156.375 118.831C157.389 119.211 158.426 118.715 159.264 117.653C159.51 117.342 159.633 116.822 159.633 116.614V107.958H159.018ZM157.108 118.069C156.567 118.29 156.426 118.023 156.375 117.861C156.265 117.515 157.784 116.199 158.307 116.164C158.829 116.13 158.891 116.234 158.829 116.614C158.768 116.995 157.784 117.792 157.108 118.069Z" fill="black"/>
<path d="M137.889 128.65C137.862 128.523 137.832 128.403 137.799 128.29C137.772 128.176 137.739 128.07 137.699 127.97L138.599 127.81C138.606 127.903 138.619 128.016 138.639 128.15C138.659 128.276 138.676 128.393 138.689 128.5C138.702 128.566 138.732 128.723 138.779 128.97C138.826 129.21 138.882 129.513 138.949 129.88C139.022 130.246 139.102 130.643 139.189 131.07C139.276 131.496 139.362 131.926 139.449 132.36C139.536 132.793 139.616 133.2 139.689 133.58C139.762 133.96 139.826 134.283 139.879 134.55C139.939 134.816 139.979 134.996 139.999 135.09C140.032 135.236 140.069 135.39 140.109 135.55C140.149 135.71 140.192 135.86 140.239 136L139.329 136.17C139.302 136.003 139.279 135.843 139.259 135.69C139.239 135.53 139.212 135.376 139.179 135.23C139.166 135.143 139.132 134.97 139.079 134.71C139.032 134.443 138.972 134.123 138.899 133.75C138.826 133.376 138.746 132.976 138.659 132.55C138.572 132.116 138.486 131.686 138.399 131.26C138.319 130.833 138.242 130.436 138.169 130.07C138.096 129.703 138.032 129.393 137.979 129.14C137.932 128.886 137.902 128.723 137.889 128.65ZM135.069 130.09C135.189 130.083 135.316 130.076 135.449 130.07C135.589 130.056 135.739 130.04 135.899 130.02C136.052 130 136.266 129.973 136.539 129.94C136.812 129.9 137.119 129.856 137.459 129.81C137.806 129.756 138.162 129.7 138.529 129.64C138.902 129.58 139.262 129.523 139.609 129.47C139.956 129.41 140.269 129.356 140.549 129.31C140.829 129.263 141.049 129.223 141.209 129.19C141.356 129.163 141.489 129.136 141.609 129.11C141.736 129.076 141.839 129.046 141.919 129.02L142.089 129.87C142.016 129.876 141.909 129.89 141.769 129.91C141.636 129.923 141.502 129.94 141.369 129.96C141.196 129.986 140.966 130.023 140.679 130.07C140.392 130.116 140.072 130.17 139.719 130.23C139.372 130.283 139.016 130.34 138.649 130.4C138.282 130.453 137.926 130.51 137.579 130.57C137.239 130.623 136.936 130.673 136.669 130.72C136.402 130.76 136.196 130.793 136.049 130.82C135.909 130.84 135.776 130.863 135.649 130.89C135.529 130.916 135.392 130.95 135.239 130.99L135.069 130.09ZM135.039 132.98C135.159 132.973 135.302 132.963 135.469 132.95C135.636 132.93 135.786 132.91 135.919 132.89C136.099 132.87 136.339 132.836 136.639 132.79C136.946 132.743 137.289 132.69 137.669 132.63C138.056 132.563 138.452 132.496 138.859 132.43C139.272 132.363 139.672 132.296 140.059 132.23C140.446 132.163 140.799 132.103 141.119 132.05C141.446 131.99 141.706 131.943 141.899 131.91C142.092 131.876 142.262 131.843 142.409 131.81C142.556 131.776 142.682 131.746 142.789 131.72L142.949 132.56C142.849 132.566 142.719 132.583 142.559 132.61C142.406 132.63 142.236 132.656 142.049 132.69C141.829 132.723 141.552 132.766 141.219 132.82C140.892 132.873 140.536 132.933 140.149 133C139.762 133.06 139.366 133.123 138.959 133.19C138.559 133.25 138.172 133.313 137.799 133.38C137.426 133.44 137.092 133.496 136.799 133.55C136.506 133.596 136.272 133.636 136.099 133.67C135.906 133.703 135.736 133.733 135.589 133.76C135.449 133.786 135.326 133.816 135.219 133.85L135.039 132.98ZM146.279 128.27C146.412 128.29 146.556 128.303 146.709 128.31C146.862 128.316 147.019 128.32 147.179 128.32C147.279 128.32 147.459 128.32 147.719 128.32C147.986 128.32 148.286 128.32 148.619 128.32C148.959 128.32 149.296 128.32 149.629 128.32C149.969 128.32 150.272 128.32 150.539 128.32C150.806 128.32 150.996 128.32 151.109 128.32C151.269 128.32 151.429 128.316 151.589 128.31C151.749 128.303 151.892 128.29 152.019 128.27V129.1C151.899 129.086 151.756 129.08 151.589 129.08C151.429 129.073 151.266 129.07 151.099 129.07C150.986 129.07 150.796 129.07 150.529 129.07C150.269 129.07 149.972 129.07 149.639 129.07C149.306 129.07 148.969 129.07 148.629 129.07C148.296 129.07 147.996 129.07 147.729 129.07C147.469 129.07 147.286 129.07 147.179 129.07C147.026 129.07 146.872 129.073 146.719 129.08C146.566 129.086 146.419 129.093 146.279 129.1V128.27ZM152.749 130.91C152.729 130.95 152.702 131 152.669 131.06C152.642 131.113 152.626 131.16 152.619 131.2C152.486 131.693 152.302 132.19 152.069 132.69C151.836 133.183 151.532 133.633 151.159 134.04C150.632 134.613 150.062 135.06 149.449 135.38C148.842 135.7 148.219 135.95 147.579 136.13L146.959 135.42C147.666 135.273 148.322 135.043 148.929 134.73C149.536 134.416 150.052 134.036 150.479 133.59C150.786 133.27 151.036 132.913 151.229 132.52C151.429 132.12 151.576 131.74 151.669 131.38C151.596 131.38 151.456 131.38 151.249 131.38C151.049 131.38 150.802 131.38 150.509 131.38C150.216 131.38 149.899 131.38 149.559 131.38C149.226 131.38 148.886 131.38 148.539 131.38C148.199 131.38 147.879 131.38 147.579 131.38C147.286 131.38 147.029 131.38 146.809 131.38C146.596 131.38 146.446 131.38 146.359 131.38C146.239 131.38 146.092 131.383 145.919 131.39C145.746 131.39 145.566 131.396 145.379 131.41V130.57C145.566 130.59 145.742 130.606 145.909 130.62C146.076 130.626 146.226 130.63 146.359 130.63C146.432 130.63 146.572 130.63 146.779 130.63C146.986 130.63 147.236 130.63 147.529 130.63C147.822 130.63 148.139 130.63 148.479 130.63C148.819 130.63 149.159 130.63 149.499 130.63C149.839 130.63 150.156 130.63 150.449 130.63C150.742 130.63 150.992 130.63 151.199 130.63C151.412 130.63 151.556 130.63 151.629 130.63C151.742 130.63 151.849 130.623 151.949 130.61C152.049 130.596 152.126 130.576 152.179 130.55L152.749 130.91ZM157.889 128.65C157.862 128.523 157.832 128.403 157.799 128.29C157.772 128.176 157.739 128.07 157.699 127.97L158.599 127.81C158.606 127.903 158.619 128.016 158.639 128.15C158.659 128.276 158.676 128.393 158.689 128.5C158.702 128.566 158.732 128.723 158.779 128.97C158.826 129.21 158.882 129.513 158.949 129.88C159.022 130.246 159.102 130.643 159.189 131.07C159.276 131.496 159.362 131.926 159.449 132.36C159.536 132.793 159.616 133.2 159.689 133.58C159.762 133.96 159.826 134.283 159.879 134.55C159.939 134.816 159.979 134.996 159.999 135.09C160.032 135.236 160.069 135.39 160.109 135.55C160.149 135.71 160.192 135.86 160.239 136L159.329 136.17C159.302 136.003 159.279 135.843 159.259 135.69C159.239 135.53 159.212 135.376 159.179 135.23C159.166 135.143 159.132 134.97 159.079 134.71C159.032 134.443 158.972 134.123 158.899 133.75C158.826 133.376 158.746 132.976 158.659 132.55C158.572 132.116 158.486 131.686 158.399 131.26C158.319 130.833 158.242 130.436 158.169 130.07C158.096 129.703 158.032 129.393 157.979 129.14C157.932 128.886 157.902 128.723 157.889 128.65ZM155.069 130.09C155.189 130.083 155.316 130.076 155.449 130.07C155.589 130.056 155.739 130.04 155.899 130.02C156.052 130 156.266 129.973 156.539 129.94C156.812 129.9 157.119 129.856 157.459 129.81C157.806 129.756 158.162 129.7 158.529 129.64C158.902 129.58 159.262 129.523 159.609 129.47C159.956 129.41 160.269 129.356 160.549 129.31C160.829 129.263 161.049 129.223 161.209 129.19C161.356 129.163 161.489 129.136 161.609 129.11C161.736 129.076 161.839 129.046 161.919 129.02L162.089 129.87C162.016 129.876 161.909 129.89 161.769 129.91C161.636 129.923 161.502 129.94 161.369 129.96C161.196 129.986 160.966 130.023 160.679 130.07C160.392 130.116 160.072 130.17 159.719 130.23C159.372 130.283 159.016 130.34 158.649 130.4C158.282 130.453 157.926 130.51 157.579 130.57C157.239 130.623 156.936 130.673 156.669 130.72C156.402 130.76 156.196 130.793 156.049 130.82C155.909 130.84 155.776 130.863 155.649 130.89C155.529 130.916 155.392 130.95 155.239 130.99L155.069 130.09ZM155.039 132.98C155.159 132.973 155.302 132.963 155.469 132.95C155.636 132.93 155.786 132.91 155.919 132.89C156.099 132.87 156.339 132.836 156.639 132.79C156.946 132.743 157.289 132.69 157.669 132.63C158.056 132.563 158.452 132.496 158.859 132.43C159.272 132.363 159.672 132.296 160.059 132.23C160.446 132.163 160.799 132.103 161.119 132.05C161.446 131.99 161.706 131.943 161.899 131.91C162.092 131.876 162.262 131.843 162.409 131.81C162.556 131.776 162.682 131.746 162.789 131.72L162.949 132.56C162.849 132.566 162.719 132.583 162.559 132.61C162.406 132.63 162.236 132.656 162.049 132.69C161.829 132.723 161.552 132.766 161.219 132.82C160.892 132.873 160.536 132.933 160.149 133C159.762 133.06 159.366 133.123 158.959 133.19C158.559 133.25 158.172 133.313 157.799 133.38C157.426 133.44 157.092 133.496 156.799 133.55C156.506 133.596 156.272 133.636 156.099 133.67C155.906 133.703 155.736 133.733 155.589 133.76C155.449 133.786 155.326 133.816 155.219 133.85L155.039 132.98ZM166.279 128.27C166.412 128.29 166.556 128.303 166.709 128.31C166.862 128.316 167.019 128.32 167.179 128.32C167.279 128.32 167.459 128.32 167.719 128.32C167.986 128.32 168.286 128.32 168.619 128.32C168.959 128.32 169.296 128.32 169.629 128.32C169.969 128.32 170.272 128.32 170.539 128.32C170.806 128.32 170.996 128.32 171.109 128.32C171.269 128.32 171.429 128.316 171.589 128.31C171.749 128.303 171.892 128.29 172.019 128.27V129.1C171.899 129.086 171.756 129.08 171.589 129.08C171.429 129.073 171.266 129.07 171.099 129.07C170.986 129.07 170.796 129.07 170.529 129.07C170.269 129.07 169.972 129.07 169.639 129.07C169.306 129.07 168.969 129.07 168.629 129.07C168.296 129.07 167.996 129.07 167.729 129.07C167.469 129.07 167.286 129.07 167.179 129.07C167.026 129.07 166.872 129.073 166.719 129.08C166.566 129.086 166.419 129.093 166.279 129.1V128.27ZM172.749 130.91C172.729 130.95 172.702 131 172.669 131.06C172.642 131.113 172.626 131.16 172.619 131.2C172.486 131.693 172.302 132.19 172.069 132.69C171.836 133.183 171.532 133.633 171.159 134.04C170.632 134.613 170.062 135.06 169.449 135.38C168.842 135.7 168.219 135.95 167.579 136.13L166.959 135.42C167.666 135.273 168.322 135.043 168.929 134.73C169.536 134.416 170.052 134.036 170.479 133.59C170.786 133.27 171.036 132.913 171.229 132.52C171.429 132.12 171.576 131.74 171.669 131.38C171.596 131.38 171.456 131.38 171.249 131.38C171.049 131.38 170.802 131.38 170.509 131.38C170.216 131.38 169.899 131.38 169.559 131.38C169.226 131.38 168.886 131.38 168.539 131.38C168.199 131.38 167.879 131.38 167.579 131.38C167.286 131.38 167.029 131.38 166.809 131.38C166.596 131.38 166.446 131.38 166.359 131.38C166.239 131.38 166.092 131.383 165.919 131.39C165.746 131.39 165.566 131.396 165.379 131.41V130.57C165.566 130.59 165.742 130.606 165.909 130.62C166.076 130.626 166.226 130.63 166.359 130.63C166.432 130.63 166.572 130.63 166.779 130.63C166.986 130.63 167.236 130.63 167.529 130.63C167.822 130.63 168.139 130.63 168.479 130.63C168.819 130.63 169.159 130.63 169.499 130.63C169.839 130.63 170.156 130.63 170.449 130.63C170.742 130.63 170.992 130.63 171.199 130.63C171.412 130.63 171.556 130.63 171.629 130.63C171.742 130.63 171.849 130.623 171.949 130.61C172.049 130.596 172.126 130.576 172.179 130.55L172.749 130.91ZM175.789 133.9H182.289V134.51H175.789V133.9ZM175.999 132.31H182.709V132.95H175.999V132.31ZM174.619 135.6H183.339V136.26H174.619V135.6ZM178.589 131.5H179.369V136.05H178.589V131.5ZM176.389 129.78V130.68H181.549V129.78H176.389ZM176.389 128.33V129.21H181.549V128.33H176.389ZM175.659 127.73H182.319V131.28H175.659V127.73ZM176.299 131.29L177.039 131.5C176.886 131.826 176.702 132.146 176.489 132.46C176.276 132.773 176.049 133.066 175.809 133.34C175.576 133.613 175.339 133.856 175.099 134.07C175.052 134.023 174.989 133.97 174.909 133.91C174.836 133.85 174.759 133.793 174.679 133.74C174.599 133.68 174.529 133.633 174.469 133.6C174.836 133.313 175.182 132.966 175.509 132.56C175.836 132.153 176.099 131.73 176.299 131.29Z" fill="black"/>
</svg>
