<svg width="211" height="149" viewBox="0 0 211 149" fill="none" xmlns="http://www.w3.org/2000/svg">
<rect width="210" height="148.5" transform="matrix(-1 0 0 -1 210.65 148.731)" fill="white"/>
<path d="M36.5302 57.7891H54.8502V59.4291H36.5302V57.7891ZM56.8702 55.1891H74.4702V56.4691H56.8702V55.1891ZM64.8502 51.3491H66.3302V59.9291H64.8502V51.3491ZM71.6502 49.8491L72.6502 50.9691C71.7302 51.1558 70.6902 51.3291 69.5302 51.4891C68.3836 51.6491 67.1769 51.7891 65.9102 51.9091C64.6436 52.0158 63.3636 52.1091 62.0702 52.1891C60.7769 52.2558 59.5236 52.3091 58.3102 52.3491C58.2969 52.1891 58.2569 51.9958 58.1902 51.7691C58.1236 51.5425 58.0502 51.3491 57.9702 51.1891C59.1702 51.1491 60.4036 51.0891 61.6702 51.0091C62.9502 50.9158 64.2036 50.8158 65.4302 50.7091C66.6569 50.5891 67.8036 50.4558 68.8702 50.3091C69.9369 50.1625 70.8636 50.0091 71.6502 49.8491ZM64.1702 55.5891L65.3902 56.1491C64.9236 56.7091 64.3702 57.2558 63.7302 57.7891C63.1036 58.3225 62.4236 58.8291 61.6902 59.3091C60.9702 59.7758 60.2369 60.2025 59.4902 60.5891C58.7436 60.9625 58.0169 61.2825 57.3102 61.5491C57.2436 61.4291 57.1502 61.2958 57.0302 61.1491C56.9236 61.0025 56.8102 60.8558 56.6902 60.7091C56.5702 60.5625 56.4569 60.4491 56.3502 60.3691C57.0436 60.1425 57.7569 59.8625 58.4902 59.5291C59.2369 59.1825 59.9636 58.8025 60.6702 58.3891C61.3769 57.9625 62.0302 57.5158 62.6302 57.0491C63.2302 56.5691 63.7436 56.0825 64.1702 55.5891ZM67.0302 55.6291C67.4569 56.1091 67.9769 56.5758 68.5902 57.0291C69.2036 57.4691 69.8636 57.8891 70.5702 58.2891C71.2902 58.6891 72.0236 59.0491 72.7702 59.3691C73.5302 59.6758 74.2769 59.9291 75.0102 60.1291C74.9036 60.2225 74.7836 60.3491 74.6502 60.5091C74.5302 60.6558 74.4102 60.8091 74.2902 60.9691C74.1702 61.1158 74.0702 61.2558 73.9902 61.3891C73.2702 61.1491 72.5302 60.8491 71.7702 60.4891C71.0102 60.1158 70.2636 59.7025 69.5302 59.2491C68.8102 58.7825 68.1369 58.2891 67.5102 57.7691C66.8836 57.2491 66.3369 56.7158 65.8702 56.1691L67.0302 55.6291ZM70.1502 51.8491L71.7702 52.3091C71.4369 52.8558 71.0902 53.4158 70.7302 53.9891C70.3702 54.5491 70.0369 55.0225 69.7302 55.4091L68.4902 54.9691C68.6769 54.6891 68.8769 54.3691 69.0902 54.0091C69.3036 53.6358 69.5036 53.2625 69.6902 52.8891C69.8769 52.5158 70.0302 52.1691 70.1502 51.8491ZM59.7702 52.6891L61.0702 52.2091C61.3902 52.6091 61.7036 53.0625 62.0102 53.5691C62.3169 54.0625 62.5302 54.4958 62.6502 54.8691L61.3102 55.4291C61.1769 55.0558 60.9636 54.6091 60.6702 54.0891C60.3902 53.5691 60.0902 53.1025 59.7702 52.6891ZM59.4302 60.2891H72.1702V67.9491H70.6702V61.4891H60.8702V68.0291H59.4302V60.2891ZM60.0902 63.2291H71.4902V64.2891H60.0902V63.2291ZM60.0902 66.1491H71.4902V67.3291H60.0902V66.1491ZM64.8902 60.9291H66.3302V66.9091H64.8902V60.9291ZM92.7302 50.2691L93.8902 51.4291C92.9969 51.6958 91.9836 51.9491 90.8502 52.1891C89.7169 52.4158 88.5436 52.6225 87.3302 52.8091C86.1169 52.9825 84.9369 53.1291 83.7902 53.2491C83.7636 53.0891 83.7036 52.8891 83.6102 52.6491C83.5169 52.4091 83.4302 52.2091 83.3502 52.0491C84.1902 51.9558 85.0436 51.8491 85.9102 51.7291C86.7769 51.5958 87.6302 51.4491 88.4702 51.2891C89.3102 51.1291 90.0969 50.9691 90.8302 50.8091C91.5636 50.6358 92.1969 50.4558 92.7302 50.2691ZM82.9502 51.6291L84.4102 52.1091V63.8491H82.9502V51.6291ZM81.5902 63.5891C82.5502 63.4425 83.6902 63.2558 85.0102 63.0291C86.3302 62.8025 87.6702 62.5625 89.0302 62.3091L89.1102 63.6491C87.8569 63.9025 86.5969 64.1491 85.3302 64.3891C84.0636 64.6158 82.9302 64.8225 81.9302 65.0091L81.5902 63.5891ZM83.7702 56.6091H94.8302V57.9891H83.7702V56.6091ZM88.4102 52.0691H89.9102C89.9236 53.5758 89.9902 55.0158 90.1102 56.3891C90.2436 57.7491 90.4169 59.0025 90.6302 60.1491C90.8569 61.2958 91.1102 62.2891 91.3902 63.1291C91.6836 63.9558 91.9969 64.6025 92.3302 65.0691C92.6636 65.5358 92.9969 65.7691 93.3302 65.7691C93.5436 65.7691 93.6969 65.5491 93.7902 65.1091C93.8969 64.6691 93.9702 63.9625 94.0102 62.9891C94.1702 63.1491 94.3636 63.3025 94.5902 63.4491C94.8302 63.5825 95.0369 63.6891 95.2102 63.7691C95.1436 64.6625 95.0302 65.3625 94.8702 65.8691C94.7236 66.3758 94.5169 66.7291 94.2502 66.9291C93.9836 67.1291 93.6369 67.2291 93.2102 67.2291C92.6102 67.2291 92.0569 66.9625 91.5502 66.4291C91.0569 65.8958 90.6236 65.1558 90.2502 64.2091C89.8769 63.2625 89.5569 62.1491 89.2902 60.8691C89.0236 59.5891 88.8169 58.2025 88.6702 56.7091C88.5236 55.2158 88.4369 53.6691 88.4102 52.0691ZM82.1902 66.1491H90.7102V67.4891H82.1902V66.1491ZM80.9302 49.6891L82.3502 50.1091C81.9236 51.2425 81.4169 52.3625 80.8302 53.4691C80.2436 54.5625 79.6102 55.5958 78.9302 56.5691C78.2502 57.5425 77.5436 58.4025 76.8102 59.1491C76.7702 59.0291 76.6969 58.8758 76.5902 58.6891C76.4969 58.5025 76.3902 58.3158 76.2702 58.1291C76.1636 57.9291 76.0636 57.7758 75.9702 57.6691C76.6369 57.0158 77.2769 56.2625 77.8902 55.4091C78.5036 54.5558 79.0702 53.6425 79.5902 52.6691C80.1102 51.6825 80.5569 50.6891 80.9302 49.6891ZM78.8502 54.8291L80.2702 53.4091L80.2902 53.4291V67.9691H78.8502V54.8291ZM100.11 52.4491C100.084 52.6091 100.057 52.8091 100.03 53.0491C100.017 53.2891 99.9969 53.5291 99.9702 53.7691C99.9569 54.0091 99.9502 54.2158 99.9502 54.3891C99.9369 54.8025 99.9302 55.2758 99.9302 55.8091C99.9436 56.3291 99.9569 56.8758 99.9702 57.4491C99.9969 58.0091 100.037 58.5691 100.09 59.1291C100.197 60.2358 100.377 61.2091 100.63 62.0491C100.884 62.8758 101.19 63.5225 101.55 63.9891C101.924 64.4558 102.344 64.6891 102.81 64.6891C103.064 64.6891 103.31 64.5758 103.55 64.3491C103.79 64.1091 104.017 63.7958 104.23 63.4091C104.457 63.0091 104.657 62.5691 104.83 62.0891C105.017 61.5958 105.17 61.1025 105.29 60.6091L106.55 62.0291C106.15 63.1625 105.744 64.0625 105.33 64.7291C104.93 65.3825 104.517 65.8558 104.09 66.1491C103.677 66.4425 103.244 66.5891 102.79 66.5891C102.164 66.5891 101.557 66.3625 100.97 65.9091C100.384 65.4425 99.8769 64.6958 99.4502 63.6691C99.0236 62.6291 98.7169 61.2491 98.5302 59.5291C98.4636 58.9425 98.4102 58.3091 98.3702 57.6291C98.3436 56.9491 98.3236 56.3025 98.3102 55.6891C98.3102 55.0758 98.3102 54.5758 98.3102 54.1891C98.3102 53.9625 98.3036 53.6691 98.2902 53.3091C98.2769 52.9491 98.2369 52.6491 98.1702 52.4091L100.11 52.4491ZM110.53 53.0091C110.89 53.4625 111.23 53.9958 111.55 54.6091C111.884 55.2091 112.184 55.8558 112.45 56.5491C112.73 57.2291 112.977 57.9358 113.19 58.6691C113.417 59.4025 113.597 60.1358 113.73 60.8691C113.877 61.5891 113.984 62.2825 114.05 62.9491L112.45 63.6091C112.37 62.7025 112.23 61.7825 112.03 60.8491C111.83 59.9025 111.584 58.9891 111.29 58.1091C110.997 57.2158 110.657 56.3758 110.27 55.5891C109.884 54.8025 109.45 54.1225 108.97 53.5491L110.53 53.0091ZM117.89 51.4291H133.59V52.7891H117.89V51.4291ZM116.75 56.1291H134.57V57.4891H116.75V56.1291ZM120.43 62.6091H131.01V63.8091H120.43V62.6091ZM120.45 65.9891H131.03V67.2691H120.45V65.9891ZM124.83 49.6091H126.39V52.1891H124.83V49.6091ZM119.69 59.2291H131.89V67.9691H130.33V60.5091H121.17V68.0291H119.69V59.2291ZM129.35 52.7291L130.97 53.1291C130.704 53.6625 130.424 54.2158 130.13 54.7891C129.85 55.3491 129.584 55.8291 129.33 56.2291L127.95 55.8491C128.11 55.5691 128.277 55.2491 128.45 54.8891C128.624 54.5158 128.79 54.1425 128.95 53.7691C129.11 53.3825 129.244 53.0358 129.35 52.7291ZM120.65 53.1291L122.07 52.8091C122.39 53.2758 122.67 53.7958 122.91 54.3691C123.15 54.9291 123.31 55.4158 123.39 55.8291L121.85 56.2291C121.77 55.7891 121.617 55.2825 121.39 54.7091C121.177 54.1225 120.93 53.5958 120.65 53.1291ZM144.41 50.8091C144.37 50.9825 144.33 51.1758 144.29 51.3891C144.25 51.5891 144.21 51.7891 144.17 51.9891C144.13 52.2291 144.07 52.5558 143.99 52.9691C143.924 53.3825 143.85 53.8225 143.77 54.2891C143.69 54.7425 143.597 55.1758 143.49 55.5891C143.357 56.1625 143.19 56.8091 142.99 57.5291C142.79 58.2358 142.564 58.9891 142.31 59.7891C142.057 60.5891 141.77 61.4091 141.45 62.2491C141.13 63.0758 140.777 63.9025 140.39 64.7291C140.004 65.5425 139.584 66.3091 139.13 67.0291L137.49 66.3891C137.957 65.7758 138.384 65.0891 138.77 64.3291C139.17 63.5691 139.537 62.7825 139.87 61.9691C140.204 61.1425 140.504 60.3291 140.77 59.5291C141.05 58.7291 141.284 57.9891 141.47 57.3091C141.657 56.6291 141.804 56.0425 141.91 55.5491C142.097 54.7491 142.25 53.9225 142.37 53.0691C142.49 52.2025 142.55 51.3825 142.55 50.6091L144.41 50.8091ZM151.29 52.9291C151.61 53.3425 151.944 53.8558 152.29 54.4691C152.65 55.0825 152.997 55.7358 153.33 56.4291C153.677 57.1225 153.99 57.7891 154.27 58.4291C154.55 59.0691 154.777 59.6225 154.95 60.0891L153.39 60.8291C153.244 60.3225 153.044 59.7425 152.79 59.0891C152.537 58.4225 152.244 57.7491 151.91 57.0691C151.59 56.3758 151.25 55.7291 150.89 55.1291C150.544 54.5158 150.19 54.0025 149.83 53.5891L151.29 52.9291ZM137.21 55.1891C137.517 55.2158 137.81 55.2291 138.09 55.2291C138.37 55.2158 138.67 55.2025 138.99 55.1891C139.297 55.1758 139.684 55.1558 140.15 55.1291C140.617 55.0891 141.124 55.0491 141.67 55.0091C142.23 54.9691 142.777 54.9291 143.31 54.8891C143.857 54.8358 144.357 54.7958 144.81 54.7691C145.277 54.7291 145.644 54.7091 145.91 54.7091C146.51 54.7091 147.05 54.8025 147.53 54.9891C148.024 55.1758 148.417 55.5158 148.71 56.0091C149.004 56.5025 149.15 57.1958 149.15 58.0891C149.15 58.8758 149.11 59.7291 149.03 60.6491C148.964 61.5558 148.844 62.4225 148.67 63.2491C148.497 64.0758 148.27 64.7625 147.99 65.3091C147.684 65.9891 147.284 66.4358 146.79 66.6491C146.297 66.8758 145.724 66.9891 145.07 66.9891C144.697 66.9891 144.29 66.9558 143.85 66.8891C143.41 66.8358 143.03 66.7691 142.71 66.6891L142.45 65.0291C142.744 65.1091 143.037 65.1825 143.33 65.2491C143.637 65.3158 143.93 65.3625 144.21 65.3891C144.49 65.4158 144.724 65.4291 144.91 65.4291C145.27 65.4291 145.597 65.3691 145.89 65.2491C146.197 65.1158 146.45 64.8358 146.65 64.4091C146.864 63.9558 147.037 63.3891 147.17 62.7091C147.317 62.0158 147.424 61.2825 147.49 60.5091C147.57 59.7358 147.61 58.9958 147.61 58.2891C147.61 57.6625 147.524 57.2025 147.35 56.9091C147.177 56.6025 146.93 56.3958 146.61 56.2891C146.29 56.1691 145.917 56.1091 145.49 56.1091C145.144 56.1091 144.684 56.1358 144.11 56.1891C143.537 56.2291 142.924 56.2825 142.27 56.3491C141.63 56.4158 141.03 56.4825 140.47 56.5491C139.91 56.6025 139.477 56.6491 139.17 56.6891C138.944 56.7158 138.65 56.7558 138.29 56.8091C137.944 56.8491 137.637 56.8891 137.37 56.9291L137.21 55.1891ZM162.35 50.7291C162.777 50.8625 163.33 51.0091 164.01 51.1691C164.704 51.3291 165.43 51.4891 166.19 51.6491C166.964 51.7958 167.697 51.9291 168.39 52.0491C169.084 52.1558 169.65 52.2291 170.09 52.2691L169.71 53.8091C169.337 53.7558 168.877 53.6825 168.33 53.5891C167.797 53.4958 167.224 53.3891 166.61 53.2691C165.997 53.1491 165.39 53.0291 164.79 52.9091C164.19 52.7758 163.644 52.6558 163.15 52.5491C162.657 52.4291 162.257 52.3291 161.95 52.2491L162.35 50.7291ZM161.91 54.3691C161.844 54.7158 161.77 55.1425 161.69 55.6491C161.624 56.1425 161.55 56.6625 161.47 57.2091C161.39 57.7558 161.317 58.2758 161.25 58.7691C161.184 59.2625 161.124 59.6691 161.07 59.9891C162.044 59.1491 163.07 58.5358 164.15 58.1491C165.244 57.7491 166.39 57.5491 167.59 57.5491C168.617 57.5491 169.51 57.7358 170.27 58.1091C171.03 58.4691 171.624 58.9691 172.05 59.6091C172.477 60.2358 172.69 60.9425 172.69 61.7291C172.69 62.6225 172.484 63.4358 172.07 64.1691C171.67 64.8891 171.037 65.4958 170.17 65.9891C169.317 66.4825 168.224 66.8291 166.89 67.0291C165.557 67.2425 163.957 67.2691 162.09 67.1091L161.61 65.4691C163.73 65.7225 165.484 65.7158 166.87 65.4491C168.257 65.1691 169.29 64.7025 169.97 64.0491C170.664 63.3825 171.01 62.5958 171.01 61.6891C171.01 61.1558 170.857 60.6825 170.55 60.2691C170.244 59.8558 169.824 59.5358 169.29 59.3091C168.77 59.0691 168.17 58.9491 167.49 58.9491C166.184 58.9491 164.997 59.1891 163.93 59.6691C162.877 60.1358 161.997 60.7891 161.29 61.6291C161.144 61.8025 161.024 61.9758 160.93 62.1491C160.837 62.3091 160.757 62.4691 160.69 62.6291L159.21 62.2691C159.29 61.8958 159.37 61.4491 159.45 60.9291C159.53 60.3958 159.61 59.8291 159.69 59.2291C159.77 58.6158 159.844 58.0025 159.91 57.3891C159.99 56.7758 160.057 56.1891 160.11 55.6291C160.164 55.0558 160.204 54.5625 160.23 54.1491L161.91 54.3691ZM36.5302 81.7891H54.8502V83.4291H36.5302V81.7891ZM57.8902 75.4291H73.5902V76.7891H57.8902V75.4291ZM56.7502 80.1291H74.5702V81.4891H56.7502V80.1291ZM60.4302 86.6091H71.0102V87.8091H60.4302V86.6091ZM60.4502 89.9891H71.0302V91.2691H60.4502V89.9891ZM64.8302 73.6091H66.3902V76.1891H64.8302V73.6091ZM59.6902 83.2291H71.8902V91.9691H70.3302V84.5091H61.1702V92.0291H59.6902V83.2291ZM69.3502 76.7291L70.9702 77.1291C70.7036 77.6625 70.4236 78.2158 70.1302 78.7891C69.8502 79.3491 69.5836 79.8291 69.3302 80.2291L67.9502 79.8491C68.1102 79.5691 68.2769 79.2491 68.4502 78.8891C68.6236 78.5158 68.7902 78.1425 68.9502 77.7691C69.1102 77.3825 69.2436 77.0358 69.3502 76.7291ZM60.6502 77.1291L62.0702 76.8091C62.3902 77.2758 62.6702 77.7958 62.9102 78.3691C63.1502 78.9291 63.3102 79.4158 63.3902 79.8291L61.8502 80.2291C61.7702 79.7891 61.6169 79.2825 61.3902 78.7091C61.1769 78.1225 60.9302 77.5958 60.6502 77.1291ZM87.6102 74.7891C87.6102 74.8558 87.5969 74.9758 87.5702 75.1491C87.5569 75.3225 87.5436 75.4958 87.5302 75.6691C87.5302 75.8425 87.5236 75.9691 87.5102 76.0491C87.4969 76.3025 87.4902 76.6491 87.4902 77.0891C87.4902 77.5291 87.4902 78.0091 87.4902 78.5291C87.4902 79.0491 87.4902 79.5758 87.4902 80.1091C87.5036 80.6425 87.5102 81.1491 87.5102 81.6291C87.5236 82.0958 87.5302 82.4891 87.5302 82.8091L86.0102 82.0291C86.0102 81.8425 86.0102 81.5625 86.0102 81.1891C86.0102 80.8025 86.0036 80.3625 85.9902 79.8691C85.9902 79.3758 85.9836 78.8825 85.9702 78.3891C85.9702 77.8825 85.9636 77.4225 85.9502 77.0091C85.9502 76.5958 85.9436 76.2758 85.9302 76.0491C85.9169 75.7825 85.8969 75.5291 85.8702 75.2891C85.8436 75.0358 85.8169 74.8691 85.7902 74.7891H87.6102ZM76.9902 77.5691C77.5369 77.5691 78.1569 77.5625 78.8502 77.5491C79.5569 77.5225 80.2969 77.5025 81.0702 77.4891C81.8569 77.4625 82.6502 77.4425 83.4502 77.4291C84.2502 77.4025 85.0169 77.3825 85.7502 77.3691C86.4969 77.3558 87.1769 77.3491 87.7902 77.3491C88.4036 77.3491 89.0036 77.3558 89.5902 77.3691C90.1902 77.3691 90.7502 77.3691 91.2702 77.3691C91.8036 77.3691 92.2702 77.3691 92.6702 77.3691C93.0836 77.3691 93.4102 77.3691 93.6502 77.3691L93.6302 78.8691C93.0702 78.8425 92.3169 78.8225 91.3702 78.8091C90.4369 78.7825 89.2369 78.7691 87.7702 78.7691C86.9169 78.7691 86.0169 78.7758 85.0702 78.7891C84.1369 78.8025 83.1969 78.8291 82.2502 78.8691C81.3036 78.8958 80.3836 78.9358 79.4902 78.9891C78.6102 79.0291 77.7969 79.0758 77.0502 79.1291L76.9902 77.5691ZM87.4902 83.3891C87.4902 84.2825 87.3569 85.0291 87.0902 85.6291C86.8369 86.2158 86.4769 86.6558 86.0102 86.9491C85.5569 87.2425 85.0302 87.3891 84.4302 87.3891C84.0036 87.3891 83.5902 87.3225 83.1902 87.1891C82.8036 87.0425 82.4502 86.8291 82.1302 86.5491C81.8236 86.2558 81.5769 85.9025 81.3902 85.4891C81.2169 85.0625 81.1302 84.5825 81.1302 84.0491C81.1302 83.3825 81.2902 82.7891 81.6102 82.2691C81.9302 81.7491 82.3569 81.3358 82.8902 81.0291C83.4369 80.7225 84.0302 80.5691 84.6702 80.5691C85.4436 80.5691 86.0902 80.7491 86.6102 81.1091C87.1302 81.4558 87.5169 81.9358 87.7702 82.5491C88.0369 83.1491 88.1702 83.8358 88.1702 84.6091C88.1702 85.2758 88.0769 85.9558 87.8902 86.6491C87.7036 87.3425 87.3836 88.0091 86.9302 88.6491C86.4769 89.2891 85.8636 89.8758 85.0902 90.4091C84.3302 90.9291 83.3702 91.3625 82.2102 91.7091L80.8702 90.3891C81.7769 90.1891 82.5836 89.9225 83.2902 89.5891C84.0102 89.2425 84.6169 88.8291 85.1102 88.3491C85.6169 87.8691 85.9969 87.3091 86.2502 86.6691C86.5036 86.0291 86.6302 85.2958 86.6302 84.4691C86.6302 83.5625 86.4369 82.9091 86.0502 82.5091C85.6769 82.1091 85.2102 81.9091 84.6502 81.9091C84.3036 81.9091 83.9769 81.9958 83.6702 82.1691C83.3636 82.3425 83.1102 82.5891 82.9102 82.9091C82.7236 83.2158 82.6302 83.5891 82.6302 84.0291C82.6302 84.6558 82.8302 85.1425 83.2302 85.4891C83.6436 85.8358 84.1236 86.0091 84.6702 86.0091C85.0836 86.0091 85.4369 85.8958 85.7302 85.6691C86.0369 85.4291 86.2502 85.0758 86.3702 84.6091C86.4902 84.1291 86.5036 83.5358 86.4102 82.8291L87.4902 83.3891ZM90.3702 74.3891C90.6102 74.7225 90.8702 75.1158 91.1502 75.5691C91.4302 76.0225 91.6702 76.4358 91.8702 76.8091L90.7302 77.3091C90.5302 76.9091 90.2969 76.4891 90.0302 76.0491C89.7769 75.5958 89.5236 75.1958 89.2702 74.8491L90.3702 74.3891ZM92.8102 73.8691C93.0369 74.2025 93.2902 74.5891 93.5702 75.0291C93.8502 75.4691 94.0969 75.8825 94.3102 76.2691L93.1702 76.7691C92.9569 76.3558 92.7169 75.9358 92.4502 75.5091C92.1969 75.0691 91.9436 74.6825 91.6902 74.3491L92.8102 73.8691ZM97.1102 79.9691C97.4702 79.9025 97.8302 79.8225 98.1902 79.7291C98.5636 79.6225 98.9369 79.5091 99.3102 79.3891C99.7369 79.2558 100.284 79.0825 100.95 78.8691C101.617 78.6425 102.344 78.4225 103.13 78.2091C103.917 77.9825 104.717 77.7958 105.53 77.6491C106.357 77.4891 107.13 77.4091 107.85 77.4091C108.97 77.4091 109.977 77.6158 110.87 78.0291C111.764 78.4425 112.477 79.0425 113.01 79.8291C113.544 80.6158 113.81 81.5691 113.81 82.6891C113.81 83.6491 113.624 84.5091 113.25 85.2691C112.89 86.0291 112.377 86.7025 111.71 87.2891C111.057 87.8625 110.277 88.3491 109.37 88.7491C108.464 89.1358 107.457 89.4491 106.35 89.6891C105.257 89.9158 104.097 90.0625 102.87 90.1291L102.15 88.4691C103.47 88.4425 104.724 88.3158 105.91 88.0891C107.097 87.8491 108.15 87.5025 109.07 87.0491C110.004 86.5958 110.737 86.0091 111.27 85.2891C111.804 84.5558 112.07 83.6758 112.07 82.6491C112.07 81.9558 111.904 81.3291 111.57 80.7691C111.237 80.1958 110.75 79.7425 110.11 79.4091C109.484 79.0758 108.717 78.9091 107.81 78.9091C107.157 78.9091 106.444 78.9891 105.67 79.1491C104.897 79.2958 104.117 79.4891 103.33 79.7291C102.544 79.9558 101.79 80.2025 101.07 80.4691C100.364 80.7358 99.7302 80.9825 99.1702 81.2091C98.6102 81.4358 98.1702 81.6091 97.8502 81.7291L97.1102 79.9691ZM121.33 83.4291H129.89V84.6091H121.33V83.4291ZM119.13 86.3091H132.09V87.5291H119.13V86.3091ZM124.77 83.9491H126.15V85.3291C126.15 85.7958 126.104 86.2758 126.01 86.7691C125.93 87.2491 125.75 87.7358 125.47 88.2291C125.204 88.7225 124.804 89.2025 124.27 89.6691C123.737 90.1225 123.024 90.5558 122.13 90.9691C121.25 91.3825 120.137 91.7558 118.79 92.0891C118.737 91.9825 118.657 91.8625 118.55 91.7291C118.457 91.5958 118.35 91.4625 118.23 91.3291C118.124 91.1958 118.017 91.0825 117.91 90.9891C119.164 90.6958 120.204 90.3691 121.03 90.0091C121.87 89.6491 122.537 89.2758 123.03 88.8891C123.537 88.4891 123.91 88.0891 124.15 87.6891C124.404 87.2758 124.57 86.8691 124.65 86.4691C124.73 86.0558 124.77 85.6625 124.77 85.2891V83.9491ZM126.39 86.6891C126.91 87.8225 127.757 88.7425 128.93 89.4491C130.104 90.1425 131.537 90.6025 133.23 90.8291C133.084 90.9758 132.93 91.1691 132.77 91.4091C132.61 91.6491 132.484 91.8625 132.39 92.0491C131.204 91.8225 130.137 91.4825 129.19 91.0291C128.257 90.5891 127.45 90.0291 126.77 89.3491C126.104 88.6558 125.57 87.8491 125.17 86.9291L126.39 86.6891ZM116.69 80.7491H134.63V82.0091H116.69V80.7491ZM118.85 77.9491H132.55V79.1891H118.85V77.9491ZM118.15 75.1891H133.39V76.4091H118.15V75.1891ZM127.93 78.2691C128.344 79.3491 128.89 80.3558 129.57 81.2891C130.264 82.2225 131.07 83.0425 131.99 83.7491C132.91 84.4425 133.91 84.9891 134.99 85.3891C134.87 85.4825 134.744 85.6091 134.61 85.7691C134.49 85.9158 134.377 86.0691 134.27 86.2291C134.164 86.3758 134.07 86.5158 133.99 86.6491C132.87 86.1691 131.837 85.5358 130.89 84.7491C129.957 83.9625 129.13 83.0491 128.41 82.0091C127.704 80.9691 127.117 79.8358 126.65 78.6091L127.93 78.2691ZM124.43 73.6091L125.95 73.7091C125.83 74.9625 125.577 76.2225 125.19 77.4891C124.804 78.7425 124.27 79.9558 123.59 81.1291C122.91 82.2891 122.05 83.3625 121.01 84.3491C119.97 85.3358 118.737 86.1825 117.31 86.8891C117.257 86.7558 117.17 86.6225 117.05 86.4891C116.93 86.3425 116.804 86.2025 116.67 86.0691C116.537 85.9358 116.41 85.8358 116.29 85.7691C117.677 85.1291 118.864 84.3558 119.85 83.4491C120.85 82.5291 121.67 81.5291 122.31 80.4491C122.964 79.3558 123.457 78.2291 123.79 77.0691C124.124 75.8958 124.337 74.7425 124.43 73.6091ZM137.23 77.2491C137.604 77.2358 137.944 77.2225 138.25 77.2091C138.57 77.1825 138.824 77.1625 139.01 77.1491C139.33 77.1091 139.79 77.0625 140.39 77.0091C141.004 76.9425 141.704 76.8758 142.49 76.8091C143.277 76.7291 144.124 76.6491 145.03 76.5691C145.937 76.4891 146.85 76.4091 147.77 76.3291C148.504 76.2625 149.197 76.2091 149.85 76.1691C150.504 76.1158 151.11 76.0758 151.67 76.0491C152.23 76.0091 152.73 75.9825 153.17 75.9691V77.5691C152.797 77.5691 152.37 77.5758 151.89 77.5891C151.41 77.6025 150.937 77.6291 150.47 77.6691C150.004 77.7091 149.597 77.7825 149.25 77.8891C148.544 78.1158 147.904 78.4625 147.33 78.9291C146.77 79.3825 146.29 79.9091 145.89 80.5091C145.49 81.1091 145.184 81.7291 144.97 82.3691C144.77 83.0091 144.67 83.6291 144.67 84.2291C144.67 85.0025 144.804 85.6825 145.07 86.2691C145.337 86.8425 145.697 87.3291 146.15 87.7291C146.617 88.1291 147.144 88.4558 147.73 88.7091C148.317 88.9625 148.937 89.1558 149.59 89.2891C150.257 89.4091 150.917 89.4758 151.57 89.4891L150.99 91.1491C150.244 91.1225 149.497 91.0158 148.75 90.8291C148.004 90.6558 147.29 90.4025 146.61 90.0691C145.93 89.7225 145.324 89.2891 144.79 88.7691C144.257 88.2491 143.837 87.6425 143.53 86.9491C143.224 86.2558 143.07 85.4625 143.07 84.5691C143.07 83.5291 143.25 82.5691 143.61 81.6891C143.984 80.7958 144.457 80.0158 145.03 79.3491C145.604 78.6825 146.197 78.1691 146.81 77.8091C146.384 77.8625 145.85 77.9225 145.21 77.9891C144.584 78.0558 143.91 78.1291 143.19 78.2091C142.47 78.2758 141.744 78.3558 141.01 78.4491C140.29 78.5425 139.617 78.6358 138.99 78.7291C138.364 78.8091 137.837 78.8958 137.41 78.9891L137.23 77.2491ZM150.29 80.0291C150.437 80.2425 150.61 80.5158 150.81 80.8491C151.024 81.1691 151.23 81.5025 151.43 81.8491C151.63 82.1825 151.797 82.5025 151.93 82.8091L150.91 83.2891C150.684 82.7958 150.43 82.3091 150.15 81.8291C149.87 81.3358 149.577 80.8825 149.27 80.4691L150.29 80.0291ZM152.47 79.1891C152.63 79.4025 152.817 79.6691 153.03 79.9891C153.244 80.3091 153.45 80.6425 153.65 80.9891C153.864 81.3225 154.05 81.6425 154.21 81.9491L153.17 82.4491C152.93 81.9558 152.664 81.4691 152.37 80.9891C152.09 80.5091 151.797 80.0625 151.49 79.6491L152.47 79.1891ZM160.29 75.8091C160.477 75.8225 160.684 75.8358 160.91 75.8491C161.15 75.8625 161.41 75.8691 161.69 75.8691C161.904 75.8691 162.23 75.8691 162.67 75.8691C163.124 75.8558 163.63 75.8425 164.19 75.8291C164.764 75.8158 165.337 75.8025 165.91 75.7891C166.484 75.7625 167.004 75.7425 167.47 75.7291C167.95 75.7158 168.317 75.7025 168.57 75.6891C168.744 75.6625 168.937 75.6358 169.15 75.6091C169.364 75.5825 169.544 75.5491 169.69 75.5091L170.65 76.6691C170.517 76.7358 170.364 76.8291 170.19 76.9491C170.017 77.0691 169.877 77.1691 169.77 77.2491C169.397 77.5558 168.977 77.9025 168.51 78.2891C168.057 78.6758 167.577 79.0758 167.07 79.4891C166.564 79.9025 166.064 80.3091 165.57 80.7091C165.09 81.0958 164.644 81.4625 164.23 81.8091C164.777 81.5958 165.29 81.4558 165.77 81.3891C166.25 81.3091 166.69 81.2691 167.09 81.2691C168.21 81.2691 169.184 81.4625 170.01 81.8491C170.85 82.2358 171.504 82.7758 171.97 83.4691C172.45 84.1491 172.69 84.9425 172.69 85.8491C172.69 87.1291 172.284 88.2025 171.47 89.0691C170.657 89.9225 169.477 90.5358 167.93 90.9091C166.384 91.2825 164.504 91.3825 162.29 91.2091L161.85 89.5891C163.237 89.7625 164.49 89.8025 165.61 89.7091C166.744 89.6158 167.71 89.4025 168.51 89.0691C169.31 88.7358 169.924 88.2958 170.35 87.7491C170.79 87.2025 171.01 86.5625 171.01 85.8291C171.01 84.8691 170.63 84.0891 169.87 83.4891C169.11 82.8891 168.09 82.5891 166.81 82.5891C165.944 82.5891 165.164 82.6958 164.47 82.9091C163.79 83.1091 163.15 83.3958 162.55 83.7691C161.964 84.1425 161.384 84.5825 160.81 85.0891C160.25 85.5958 159.657 86.1491 159.03 86.7491L157.81 85.5091C158.397 85.0425 159.057 84.5158 159.79 83.9291C160.524 83.3291 161.277 82.7025 162.05 82.0491C162.837 81.3958 163.597 80.7558 164.33 80.1291C165.077 79.5025 165.744 78.9225 166.33 78.3891C166.917 77.8558 167.377 77.4158 167.71 77.0691C167.47 77.0825 167.144 77.1025 166.73 77.1291C166.317 77.1425 165.864 77.1625 165.37 77.1891C164.877 77.2025 164.39 77.2225 163.91 77.2491C163.43 77.2625 162.997 77.2825 162.61 77.3091C162.237 77.3225 161.95 77.3358 161.75 77.3491C161.524 77.3625 161.277 77.3825 161.01 77.4091C160.757 77.4225 160.53 77.4491 160.33 77.4891L160.29 75.8091Z" fill="black"/>
<path d="M149.293 39.7619C149.032 39.7619 148.902 39.6864 148.902 39.5354C148.902 39.3843 149.015 39.302 149.241 39.2882L150.415 39.1441C150.763 39.1029 150.998 39.0342 151.12 38.9381C151.242 38.8283 151.303 38.6292 151.303 38.3409V25.9841C151.303 25.7918 151.25 25.6546 151.146 25.5722C151.042 25.4898 150.824 25.4486 150.494 25.4486C149.85 25.4486 149.215 25.6683 148.589 26.1076C147.962 26.547 147.554 27.2541 147.362 28.2289L147.232 28.9085C147.197 29.087 147.075 29.1762 146.866 29.1762C146.606 29.1762 146.492 29.0595 146.527 28.8261L146.762 25.0985C146.797 24.7827 146.953 24.6248 147.232 24.6248C147.354 24.6248 147.467 24.6523 147.571 24.7072C147.675 24.7484 147.849 24.7964 148.093 24.8514C148.354 24.9063 148.763 24.9337 149.319 24.9337H155.138C155.695 24.9337 156.095 24.9063 156.339 24.8514C156.6 24.7964 156.782 24.7484 156.887 24.7072C157.009 24.6523 157.122 24.6248 157.226 24.6248C157.504 24.6248 157.661 24.7827 157.696 25.0985L157.931 28.8261C157.965 29.0595 157.852 29.1762 157.591 29.1762C157.383 29.1762 157.261 29.087 157.226 28.9085L157.096 28.2289C156.922 27.2541 156.521 26.547 155.895 26.1076C155.269 25.6683 154.625 25.4486 153.964 25.4486C153.634 25.4486 153.416 25.4898 153.312 25.5722C153.207 25.6546 153.155 25.7918 153.155 25.9841V38.3409C153.155 38.6292 153.216 38.8283 153.338 38.9381C153.477 39.0342 153.712 39.1029 154.043 39.1441L155.217 39.2882C155.443 39.302 155.556 39.3843 155.556 39.5354C155.556 39.6864 155.426 39.7619 155.165 39.7619H149.293Z" fill="black"/>
<path d="M140.593 39.9473C140.245 39.9473 139.854 39.9198 139.419 39.8649C139.001 39.81 138.601 39.7413 138.218 39.6589C137.853 39.5765 137.566 39.4873 137.357 39.3912C137.235 39.3363 137.14 39.2814 137.07 39.2264C137.018 39.1578 136.992 39.0479 136.992 38.8969L136.861 35.6636C136.861 35.389 136.975 35.2517 137.201 35.2517C137.392 35.2517 137.523 35.3752 137.592 35.6224L137.827 36.405C138.418 38.3683 139.523 39.35 141.141 39.35C142.011 39.35 142.698 39.1235 143.202 38.6704C143.724 38.2036 143.985 37.5514 143.985 36.7139C143.985 35.9038 143.716 35.1487 143.176 34.4485C142.654 33.7483 141.811 33.0549 140.645 32.3684C139.358 31.6407 138.418 30.9405 137.827 30.2678C137.235 29.5813 136.94 28.8536 136.94 28.0847C136.94 27.0687 137.383 26.2587 138.271 25.6545C139.175 25.0367 140.323 24.7278 141.715 24.7278C142.237 24.7278 142.741 24.7758 143.229 24.8719C143.716 24.9681 144.116 25.1054 144.429 25.2838C144.533 25.3388 144.612 25.4005 144.664 25.4692C144.733 25.5378 144.768 25.6271 144.768 25.7369L144.846 28.8467C144.846 29.0801 144.733 29.1968 144.507 29.1968C144.351 29.1968 144.238 29.1007 144.168 28.9085L143.985 28.3936C143.603 27.3364 143.202 26.5676 142.785 26.087C142.385 25.5928 141.802 25.3456 141.037 25.3456C140.289 25.3456 139.688 25.5378 139.236 25.9223C138.801 26.3067 138.584 26.849 138.584 27.5493C138.584 28.1396 138.827 28.7026 139.314 29.238C139.801 29.7735 140.654 30.4256 141.872 31.1945C143.176 32.032 144.124 32.8421 144.716 33.6247C145.325 34.3936 145.629 35.2173 145.629 36.096C145.629 36.8649 145.412 37.5377 144.977 38.1143C144.542 38.691 143.942 39.1441 143.176 39.4736C142.428 39.7894 141.567 39.9473 140.593 39.9473Z" fill="black"/>
<path d="M124.855 39.7619C124.594 39.7619 124.463 39.6864 124.463 39.5353C124.463 39.4118 124.576 39.3294 124.802 39.2882L125.403 39.2058C125.768 39.1509 126.003 39.0754 126.107 38.9793C126.229 38.8832 126.29 38.691 126.29 38.4026V26.293C126.29 26.0046 126.229 25.8124 126.107 25.7163C126.003 25.6202 125.768 25.5447 125.403 25.4898L124.802 25.4074C124.576 25.3662 124.463 25.2838 124.463 25.1603C124.463 25.0092 124.594 24.9337 124.855 24.9337H133.622C134.023 24.9337 134.24 25.0916 134.275 25.4074L134.484 28.8261C134.518 29.0595 134.405 29.1762 134.144 29.1762C133.936 29.1762 133.814 29.087 133.779 28.9085L133.622 28.1465C133.431 27.2129 133.04 26.5332 132.448 26.1076C131.857 25.6683 131.039 25.4486 129.995 25.4486C129.299 25.4486 128.812 25.531 128.534 25.6957C128.273 25.8467 128.143 26.1213 128.143 26.5195V31.4828C128.143 31.675 128.264 31.7711 128.508 31.7711H129.813C130.578 31.7711 131.048 31.4485 131.222 30.8032L131.483 29.7735C131.552 29.5675 131.7 29.4783 131.926 29.5057C132.118 29.5332 132.213 29.6499 132.213 29.8558V34.4896C132.213 34.6956 132.118 34.8123 131.926 34.8398C131.7 34.8672 131.552 34.778 131.483 34.572L131.222 33.5629C131.1 33.0823 130.926 32.7666 130.7 32.6155C130.491 32.4645 130.187 32.389 129.787 32.389H128.508C128.264 32.389 128.143 32.4851 128.143 32.6773V37.8466C128.143 38.3409 128.299 38.6978 128.612 38.9175C128.943 39.1372 129.534 39.247 130.387 39.247C131.257 39.247 131.996 39.0754 132.605 38.7322C133.231 38.3752 133.666 37.7161 133.91 36.7551L134.223 35.54C134.275 35.3615 134.405 35.2722 134.614 35.2722C134.858 35.2722 134.962 35.3889 134.927 35.6224L134.666 39.2882C134.631 39.604 134.414 39.7619 134.014 39.7619H124.855Z" fill="black"/>
<path d="M117.153 39.9472C116.214 39.9472 115.379 39.7756 114.648 39.4324C113.935 39.0754 113.378 38.588 112.978 37.9701C112.578 37.3386 112.378 36.6178 112.378 35.8077V26.293C112.378 26.0046 112.317 25.8124 112.195 25.7163C112.091 25.6202 111.856 25.5447 111.491 25.4898L110.891 25.4074C110.664 25.3662 110.551 25.2838 110.551 25.1603C110.551 25.0092 110.682 24.9337 110.943 24.9337H115.718C115.979 24.9337 116.109 25.0161 116.109 25.1809C116.109 25.3044 116.014 25.3799 115.822 25.4074L115.118 25.4898C114.77 25.531 114.535 25.6065 114.413 25.7163C114.292 25.8262 114.231 26.0252 114.231 26.3136V35.8283C114.231 36.8718 114.526 37.6818 115.118 38.2585C115.709 38.8351 116.536 39.1234 117.597 39.1234C118.675 39.1234 119.51 38.8351 120.102 38.2585C120.693 37.6818 120.989 36.8718 120.989 35.8283V26.7255C120.989 25.984 120.693 25.5722 120.102 25.4898L119.397 25.4074C119.206 25.3799 119.11 25.3044 119.11 25.1809C119.11 25.0161 119.241 24.9337 119.502 24.9337H123.259C123.52 24.9337 123.651 25.0092 123.651 25.1603C123.651 25.2838 123.538 25.3662 123.312 25.4074L122.711 25.4898C122.12 25.5722 121.824 25.9772 121.824 26.7049V35.8077C121.824 37.0571 121.398 38.0594 120.546 38.8145C119.693 39.5697 118.562 39.9472 117.153 39.9472Z" fill="black"/>
<path d="M93.1332 9.776C94.0275 8.76484 95.0997 8.46496 96.0487 8.67461C96.888 8.86008 97.6001 9.43996 97.9631 10.2061C98.7823 9.47524 99.5764 9.27087 100.308 9.45571C100.981 9.62568 101.532 10.1105 101.953 10.6506C103.146 9.42406 104.383 9.1506 105.453 9.4263C106.473 9.6892 107.287 10.4385 107.723 11.1934C108.966 10.9708 109.767 11.201 110.189 11.7661C110.562 12.2665 110.554 12.9269 110.434 13.457C110.962 13.8569 111.307 14.2494 111.492 14.6366C111.702 15.0774 111.696 15.498 111.533 15.8672C111.376 16.2234 111.084 16.5055 110.767 16.7174C110.539 16.869 110.287 16.9914 110.037 17.0847C110.211 17.7112 110.219 18.2488 110.081 18.6992C109.919 19.2268 109.567 19.5972 109.129 19.8325C108.362 20.2452 107.323 20.2517 106.453 20.0301C106.227 20.5703 105.946 20.99 105.604 21.2901C105.203 21.6432 104.737 21.8165 104.23 21.8402C103.298 21.8838 102.248 21.4191 101.177 20.7169C98.7282 22.5996 95.8567 23.0841 93.8183 23.0841C91.952 23.0841 90.3854 23.0936 88.6703 23.0984C86.9344 23.1033 85.0488 23.1035 82.553 23.0841L82.5581 22.4611C85.0511 22.4805 86.9342 22.4804 88.6686 22.4755C89.6686 22.4726 90.6201 22.4683 91.6105 22.4652C91.9896 22.8475 92.5152 23.0844 93.0962 23.0844C93.6918 23.0843 94.2286 22.8351 94.6097 22.4357C96.5198 22.3156 98.922 21.7349 100.967 20.0902L101.146 19.9456L101.337 20.0751C102.456 20.8353 103.43 21.254 104.201 21.218C104.575 21.2005 104.904 21.0765 105.193 20.8223C105.487 20.5638 105.755 20.1561 105.972 19.5477L106.074 19.2621L106.362 19.3563C107.185 19.6253 108.183 19.634 108.834 19.2837C109.149 19.1145 109.378 18.8653 109.486 18.5162C109.595 18.1603 109.589 17.6636 109.355 16.9864L109.247 16.6744L109.565 16.5849C109.857 16.5027 110.163 16.3709 110.421 16.1993C110.681 16.0259 110.87 15.8259 110.963 15.6155C111.05 15.4181 111.064 15.1872 110.929 14.9046C110.789 14.6094 110.481 14.2488 109.9 13.8371L109.718 13.7079L109.781 13.4939C109.93 12.9952 109.935 12.4674 109.69 12.1389C109.466 11.839 108.921 11.5695 107.623 11.848L107.384 11.8993L107.277 11.6793C106.945 10.9928 106.209 10.2643 105.297 10.0294C104.418 9.80281 103.308 10.0197 102.16 11.3457L101.894 11.654L101.666 11.3156C101.255 10.7022 100.735 10.2061 100.156 10.0596C99.6095 9.92167 98.9107 10.0722 98.0644 10.9792L97.6762 11.3953L97.535 10.8439C97.3375 10.0733 96.6953 9.45558 95.9144 9.283C95.1535 9.11486 94.2155 9.36275 93.4085 10.4213L93.1805 10.7208L92.9291 10.4407C92.5753 10.0466 92.0074 9.76668 91.4765 9.83005C90.9807 9.88926 90.4072 10.2645 90.0508 11.4164L89.9902 11.6127L89.7861 11.6341C88.99 11.7181 88.5831 12.0492 88.4496 12.3996C88.3154 12.7521 88.4053 13.2603 88.9011 13.8117L89.0771 14.0073L88.9137 14.2135C88.6217 14.5822 88.3181 15.1322 88.2819 15.6072C88.2646 15.8347 88.3097 16.0249 88.4257 16.1771C88.5431 16.3311 88.7632 16.4859 89.1714 16.5816L89.0291 17.188C88.5268 17.0702 88.1607 16.8568 87.9305 16.555C87.6991 16.2515 87.635 15.8979 87.6607 15.56C87.703 15.004 87.9905 14.4391 88.2739 14.0312C87.81 13.4278 87.6451 12.7622 87.8676 12.1779C88.0972 11.5752 88.6945 11.1752 89.5191 11.0415C89.9325 9.86803 90.6273 9.30416 91.4028 9.2116C92.0497 9.13441 92.6789 9.39723 93.1332 9.776Z" fill="black"/>
<path d="M69.3748 39.5353C69.3748 39.6864 69.5053 39.7619 69.7663 39.7619H75.6376C75.8985 39.7619 76.029 39.6864 76.029 39.5353C76.029 39.3843 75.9159 39.3019 75.6897 39.2882L74.5155 39.144C74.185 39.1029 73.9501 39.0342 73.8109 38.9381C73.6892 38.8283 73.6283 38.6292 73.6283 38.3409V33.3158C73.6283 33.0961 73.6544 32.9039 73.7066 32.7391C73.7587 32.5606 73.8457 32.3753 73.9675 32.183L77.3859 26.7666C77.6816 26.3136 77.9165 25.9909 78.0904 25.7987C79.2598 24.5067 80.9527 23.1589 82.553 23.0841L82.5581 22.4611C78.9664 22.1181 77.4155 25.2753 76.5248 26.746L73.4456 31.7094C73.376 31.8055 73.289 31.8535 73.1847 31.8535C73.0803 31.8535 72.9933 31.8055 72.9237 31.7094L69.7141 26.3136C69.5401 26.0252 69.514 25.8124 69.6358 25.6751C69.7576 25.5378 69.9663 25.4623 70.2621 25.4486L70.7579 25.4074C71.0536 25.3937 71.2015 25.3113 71.2015 25.1603C71.2015 25.0092 71.0797 24.9337 70.8361 24.9337H66.374C66.113 24.9337 65.9825 25.0024 65.9825 25.1397C65.9825 25.277 66.1043 25.3662 66.3479 25.4074L66.5827 25.4486C66.8785 25.5035 67.1046 25.5927 67.2612 25.7163C67.4177 25.8399 67.5569 26.0184 67.6787 26.2518L71.5146 32.5949C71.6886 32.8833 71.7755 33.1785 71.7755 33.4805V38.3409C71.7755 38.6292 71.7147 38.8283 71.5929 38.9381C71.4711 39.0342 71.2363 39.1029 70.8883 39.144L69.7141 39.2882C69.4879 39.3019 69.3748 39.3843 69.3748 39.5353Z" fill="black"/>
<path d="M64.1408 39.9472C63.8625 39.9472 63.6277 39.7825 63.4363 39.453L56.3647 27.3433C56.3125 27.2472 56.2429 27.206 56.1559 27.2197C56.0863 27.2335 56.0515 27.2952 56.0515 27.4051V37.9907C56.0515 38.3752 56.1298 38.6704 56.2864 38.8763C56.4603 39.0685 56.7648 39.1921 57.1997 39.247L57.5389 39.2882C57.7651 39.3019 57.8781 39.3843 57.8781 39.5353C57.8781 39.6864 57.7477 39.7619 57.4867 39.7619H53.7552C53.4942 39.7619 53.3638 39.6864 53.3638 39.5353C53.3638 39.3843 53.4768 39.3019 53.703 39.2882L54.0422 39.247C54.4945 39.1921 54.8077 39.0685 54.9816 38.8763C55.1556 38.6704 55.2426 38.3752 55.2426 37.9907V26.293C55.2426 26.0046 55.1817 25.8124 55.0599 25.7163C54.9555 25.6202 54.7033 25.5447 54.3032 25.4898L53.703 25.4074C53.4768 25.3662 53.3638 25.2838 53.3638 25.1603C53.3638 25.0092 53.4942 24.9337 53.7552 24.9337H56.5473C56.9822 24.9337 57.2867 25.0847 57.4606 25.3868L63.619 36.0754C63.6711 36.1578 63.732 36.1921 63.8016 36.1784C63.8886 36.1647 63.9321 36.1166 63.9321 36.0342V26.7049C63.9321 26.2655 63.8364 25.9635 63.645 25.7987C63.4537 25.6202 63.2101 25.5104 62.9144 25.4692L62.4447 25.4074C62.2185 25.3662 62.1055 25.2838 62.1055 25.1603C62.1055 25.0092 62.2359 24.9337 62.4969 24.9337H66.2284C66.4894 24.9337 66.6198 25.0092 66.6198 25.1603C66.6198 25.3113 66.5068 25.3937 66.2806 25.4074L65.9414 25.4486C65.4891 25.5035 65.1759 25.6202 65.002 25.7987C64.828 25.9635 64.741 26.2655 64.741 26.7049V39.2882C64.741 39.5353 64.6801 39.707 64.5584 39.8031C64.454 39.8992 64.3148 39.9472 64.1408 39.9472Z" fill="black"/>
<path fill-rule="evenodd" clip-rule="evenodd" d="M82.0656 38.9999C83.0398 39.6315 84.2315 39.9473 85.6406 39.9473C86.3538 39.9473 86.9801 39.8923 87.5194 39.7825C88.0587 39.6864 88.5371 39.556 88.9546 39.3912C89.2155 39.2814 89.3982 39.1852 89.5026 39.1029C89.607 39.0068 89.6591 38.8832 89.6591 38.7322V33.151C89.6591 32.8627 89.6939 32.6567 89.7635 32.5332C89.435 32.5332 88.891 32.4222 88.3732 32.3166C88.0898 32.2588 87.8144 32.2026 87.5864 32.1671C86.8397 32.0507 86.5276 32.1101 86.9192 32.3272C87.2845 32.3547 87.5194 32.4233 87.6238 32.5332C87.7455 32.643 87.8064 32.8421 87.8064 33.1304V37.6406C87.8064 38.3134 87.6238 38.7734 87.2584 39.0205C86.8931 39.2676 86.3538 39.3912 85.6406 39.3912C84.3184 39.3912 83.2312 38.7871 82.3787 37.5789C81.5437 36.3569 81.1262 34.5858 81.1262 32.2654C81.1262 30.0138 81.535 28.2975 82.3526 27.1168C83.1877 25.9223 84.2402 25.325 85.5101 25.325C86.3625 25.325 87.0323 25.5378 87.5194 25.9635C88.0065 26.3891 88.4414 27.1717 88.8241 28.3113L89.0329 28.9291C89.0851 29.1076 89.2068 29.1968 89.3982 29.1968C89.607 29.1968 89.7113 29.0801 89.7113 28.8467L89.633 25.7163C89.633 25.5241 89.52 25.3799 89.2938 25.2838C88.8763 25.1191 88.3892 24.9886 87.8325 24.8925C87.2758 24.7827 86.6583 24.7278 85.9798 24.7278C84.6403 24.7278 83.4486 25.0436 82.4048 25.6751C81.3784 26.293 80.5695 27.1717 79.978 28.3113C79.3866 29.4371 79.0908 30.7552 79.0908 32.2654C79.0908 33.8306 79.3431 35.1899 79.8476 36.3432C80.3521 37.4828 81.0914 38.3683 82.0656 38.9999Z" fill="black"/>
<path fill-rule="evenodd" clip-rule="evenodd" d="M100.342 37.8037C100.938 38.7021 101.699 39.2192 102.625 39.355C102.716 39.5667 103.08 40.0051 103.078 40.0735C102.879 40.0069 102.467 39.9458 102.254 39.8876C102.118 39.8502 101.989 39.815 101.882 39.7825C100.977 39.5491 100.16 39.0823 99.4291 38.3821C99.1388 38.0915 98.8731 37.7736 98.6318 37.4285C99.1194 37.5759 100.144 37.8573 100.342 37.8037ZM99.1943 32.3272C99.1943 34.2494 99.4221 35.776 99.8779 36.907C99.7347 36.8986 98.5322 36.4609 97.9489 36.243C97.873 36.0817 97.801 35.916 97.733 35.7459C97.3329 34.7025 97.1328 33.5629 97.1328 32.3272C97.1328 31.2563 97.2807 30.2609 97.5764 29.341C97.8895 28.4211 98.3158 27.6179 98.855 26.9314C99.4117 26.2312 100.055 25.6889 100.786 25.3044C101.517 24.92 102.3 24.7278 103.135 24.7278C103.97 24.7278 104.744 24.92 105.457 25.3044C106.188 25.6889 106.831 26.2312 107.388 26.9314C107.945 27.6179 108.371 28.4211 108.667 29.341C108.98 30.2609 109.136 31.2563 109.136 32.3272C109.136 33.5904 108.919 34.7574 108.484 35.8283C108.066 36.8855 107.484 37.7642 106.736 38.4644C106.145 39.0305 105.486 39.435 104.759 39.678C104.618 39.5445 104.331 39.2589 104.31 39.1854C105 38.9225 105.574 38.4076 106.031 37.6406C106.727 36.4736 107.075 34.7025 107.075 32.3272C107.075 29.952 106.727 28.1877 106.031 27.0344C105.335 25.8674 104.37 25.2838 103.135 25.2838C101.917 25.2838 100.951 25.8674 100.238 27.0344C99.5422 28.1877 99.1943 29.952 99.1943 32.3272Z" fill="black"/>
<path d="M84.5915 33.151C85.0245 32.6842 86.3889 31.7283 88.1044 31.926C90.2488 32.1732 95.7633 35.7305 97.4747 36.685C97.7139 36.8183 98.031 36.9529 98.4005 37.0772C98.9098 37.2486 99.5185 37.4007 100.159 37.5036C100.656 37.5834 101.172 37.6337 101.676 37.6406C101.738 37.6415 101.8 37.6419 101.861 37.6418C101.774 37.5386 101.684 37.4349 101.592 37.3302C101.026 37.3322 100.485 37.2617 99.9828 37.1516C99.2535 36.9917 98.6069 36.7484 98.0868 36.523C97.8568 36.4233 97.6515 36.327 97.4747 36.243C96.1455 35.6115 90.9659 32.1556 88.6344 31.7712C86.7692 31.4636 84.9621 32.5103 84.5915 33.151Z" fill="black"/>
<path d="M102.536 37.6183C102.455 37.5153 102.369 37.4053 102.279 37.2913C102.047 37.3171 101.818 37.3294 101.592 37.3302C101.684 37.4349 101.774 37.5386 101.861 37.6418C102.095 37.6413 102.32 37.6336 102.536 37.6183Z" fill="black"/>
<path d="M103.949 39.2975C103.692 39.36 103.42 39.3912 103.135 39.3912C103.097 39.3912 103.059 39.3906 103.022 39.3895C103.084 39.5536 103.134 39.5766 103.27 39.8109C103.406 40.0452 103.838 40.6076 104.014 40.9903C104.358 41.7372 104.799 42.2892 105.338 42.6464C105.877 43.0035 106.448 43.2239 107.049 43.3075C107.671 43.4022 108.239 43.4138 108.753 43.3423C109.352 43.2588 109.836 43.1288 110.202 42.9523C110.589 42.7869 110.902 42.604 111.14 42.4036C111.256 42.2899 111.303 42.1857 111.282 42.0911C111.258 41.9829 111.183 41.9236 111.057 41.9133C110.931 41.9029 110.807 41.9411 110.685 42.0278C110.211 42.3586 109.76 42.5096 109.203 42.6313C108.606 42.7618 108.173 42.8764 107.323 42.6313C106.473 42.3861 106.106 42.0647 105.623 41.3234C105.217 40.7018 104.569 39.9669 103.949 39.2975Z" fill="black"/>
<path fill-rule="evenodd" clip-rule="evenodd" d="M106.752 32.111C107.147 33.2009 107.109 34.1679 106.151 35.6746C106.05 35.8334 105.925 35.9852 105.795 36.1212C105.565 36.3624 105.32 36.5539 105.17 36.6464C104.644 36.9708 104.475 37.0522 104.143 37.194C103.519 37.461 102.951 37.5888 102.536 37.6183C102.455 37.5153 102.369 37.4053 102.279 37.2913C102.561 37.26 102.846 37.2088 103.135 37.1341C103.645 37.0018 104.257 36.6634 104.644 36.3955C104.918 36.2058 105.197 35.8578 105.218 35.8283C105.914 34.8773 106.333 33.8635 106.124 32.9295C106.055 32.623 105.781 32.2164 105.346 32.1645C104.858 32.1064 104.085 32.3558 103.437 33.1304C102.848 32.1671 101.882 31.7044 100.905 31.9977C100.675 32.0666 100.348 32.5148 100.238 32.9952C100.11 33.5578 100.222 34.6031 100.905 35.62C101.054 35.8422 101.33 36.1633 101.622 36.5039C101.811 36.7238 102.007 36.9519 102.18 37.1666C102.141 37.1786 101.693 37.1918 101.475 37.1969C101.426 37.1421 101.375 37.085 101.322 37.0264C101.061 36.7338 100.765 36.4027 100.543 36.1212C100.502 36.0695 100.462 36.0187 100.422 35.9687C99.7305 35.0994 99.2071 34.4413 99.4291 32.5999C99.5285 31.7763 100.177 31.2642 100.967 31.1505C101.927 31.0121 103.062 31.4531 103.54 32.5332C103.819 31.912 104.645 31.3295 105.482 31.3384C105.946 31.3433 106.576 31.6239 106.752 32.111Z" fill="black"/>
<path fill-rule="evenodd" clip-rule="evenodd" d="M103.949 39.2975C103.692 39.36 103.42 39.3912 103.135 39.3912C103.097 39.3912 103.059 39.3906 103.022 39.3895C102.901 39.0718 102.779 38.8972 102.55 38.5716C102.483 38.4748 102.406 38.3646 102.316 38.2334C102.219 38.0898 102.11 37.947 101.994 37.8037C102.193 37.7957 102.602 37.7754 102.647 37.7584C102.719 37.8505 102.786 37.9347 102.844 38.0083C102.919 38.1028 102.98 38.1798 103.022 38.2334C103.368 38.6745 103.693 39.023 103.882 39.2261C103.907 39.2524 103.929 39.2762 103.949 39.2975Z" fill="black"/>
<circle cx="90.6826" cy="24.4888" r="1" stroke="black" stroke-width="0.505019"/>
<circle cx="90.6826" cy="24.4888" r="1" stroke="black" stroke-width="0.505019"/>
<path d="M94.4526 20.992C94.4526 20.2429 93.8454 19.6355 93.0963 19.6355C92.3471 19.6355 91.7397 20.2429 91.7397 20.992C91.7398 21.7412 92.3471 22.3483 93.0963 22.3483V22.8632L93 22.8609C92.0431 22.8125 91.2759 22.0452 91.2274 21.0883L91.2249 20.992C91.2249 19.9585 92.0628 19.1206 93.0963 19.1206L93.1926 19.1231C94.1813 19.1733 94.9674 19.9908 94.9674 20.992L94.9652 21.0883C94.915 22.077 94.0974 22.8632 93.0963 22.8632V22.3483C93.8454 22.3483 94.4525 21.7411 94.4526 20.992Z" fill="black"/>
<path d="M94.4526 20.992C94.4526 20.2429 93.8454 19.6355 93.0963 19.6355C92.3471 19.6355 91.7397 20.2429 91.7397 20.992C91.7398 21.7412 92.3471 22.3483 93.0963 22.3483V22.8632L93 22.8609C92.0431 22.8125 91.2759 22.0452 91.2274 21.0883L91.2249 20.992C91.2249 19.9585 92.0628 19.1206 93.0963 19.1206L93.1926 19.1231C94.1813 19.1733 94.9674 19.9908 94.9674 20.992L94.9652 21.0883C94.915 22.077 94.0974 22.8632 93.0963 22.8632V22.3483C93.8454 22.3483 94.4525 21.7411 94.4526 20.992Z" fill="black"/>
</svg>
