<svg width="211" height="149" viewBox="0 0 211 149" fill="none" xmlns="http://www.w3.org/2000/svg">
<rect width="210" height="148.5" transform="matrix(-1 0 0 -1 210.65 148.5)" fill="white"/>
<path d="M149.293 39.5312C149.032 39.5312 148.902 39.4557 148.902 39.3047C148.902 39.1537 149.015 39.0713 149.241 39.0576L150.415 38.9134C150.763 38.8722 150.998 38.8036 151.12 38.7075C151.242 38.5976 151.303 38.3985 151.303 38.1102V25.7534C151.303 25.5612 151.25 25.4239 151.146 25.3415C151.042 25.2591 150.824 25.2179 150.494 25.2179C149.85 25.2179 149.215 25.4376 148.589 25.877C147.962 26.3163 147.554 27.0234 147.362 27.9982L147.232 28.6778C147.197 28.8563 147.075 28.9456 146.866 28.9456C146.606 28.9456 146.492 28.8289 146.527 28.5955L146.762 24.8678C146.797 24.552 146.953 24.3941 147.232 24.3941C147.354 24.3941 147.467 24.4216 147.571 24.4765C147.675 24.5177 147.849 24.5658 148.093 24.6207C148.354 24.6756 148.763 24.7031 149.319 24.7031H155.138C155.695 24.7031 156.095 24.6756 156.339 24.6207C156.6 24.5658 156.782 24.5177 156.887 24.4765C157.009 24.4216 157.122 24.3941 157.226 24.3941C157.504 24.3941 157.661 24.552 157.696 24.8678L157.931 28.5955C157.965 28.8289 157.852 28.9456 157.591 28.9456C157.383 28.9456 157.261 28.8563 157.226 28.6778L157.096 27.9982C156.922 27.0234 156.521 26.3163 155.895 25.877C155.269 25.4376 154.625 25.2179 153.964 25.2179C153.634 25.2179 153.416 25.2591 153.312 25.3415C153.207 25.4239 153.155 25.5612 153.155 25.7534V38.1102C153.155 38.3985 153.216 38.5976 153.338 38.7075C153.477 38.8036 153.712 38.8722 154.043 38.9134L155.217 39.0576C155.443 39.0713 155.556 39.1537 155.556 39.3047C155.556 39.4557 155.426 39.5312 155.165 39.5312H149.293Z" fill="black"/>
<path d="M140.593 39.7166C140.245 39.7166 139.854 39.6891 139.419 39.6342C139.001 39.5793 138.601 39.5107 138.218 39.4283C137.853 39.3459 137.566 39.2566 137.357 39.1605C137.235 39.1056 137.14 39.0507 137.07 38.9958C137.018 38.9271 136.992 38.8173 136.992 38.6663L136.861 35.4329C136.861 35.1583 136.975 35.021 137.201 35.021C137.392 35.021 137.523 35.1446 137.592 35.3917L137.827 36.1743C138.418 38.1377 139.523 39.1194 141.141 39.1194C142.011 39.1194 142.698 38.8928 143.202 38.4397C143.724 37.9729 143.985 37.3208 143.985 36.4832C143.985 35.6732 143.716 34.918 143.176 34.2178C142.654 33.5176 141.811 32.8242 140.645 32.1378C139.358 31.4101 138.418 30.7099 137.827 30.0371C137.235 29.3506 136.94 28.6229 136.94 27.8541C136.94 26.8381 137.383 26.028 138.271 25.4239C139.175 24.8061 140.323 24.4971 141.715 24.4971C142.237 24.4971 142.741 24.5452 143.229 24.6413C143.716 24.7374 144.116 24.8747 144.429 25.0532C144.533 25.1081 144.612 25.1699 144.664 25.2385C144.733 25.3072 144.768 25.3964 144.768 25.5063L144.846 28.6161C144.846 28.8495 144.733 28.9662 144.507 28.9662C144.351 28.9662 144.238 28.8701 144.168 28.6779L143.985 28.163C143.603 27.1058 143.202 26.3369 142.785 25.8564C142.385 25.3621 141.802 25.115 141.037 25.115C140.289 25.115 139.688 25.3072 139.236 25.6916C138.801 26.0761 138.584 26.6184 138.584 27.3186C138.584 27.909 138.827 28.4719 139.314 29.0074C139.801 29.5428 140.654 30.195 141.872 30.9639C143.176 31.8014 144.124 32.6114 144.716 33.394C145.325 34.1629 145.629 34.9867 145.629 35.8654C145.629 36.6343 145.412 37.307 144.977 37.8837C144.542 38.4603 143.942 38.9134 143.176 39.2429C142.428 39.5587 141.567 39.7166 140.593 39.7166Z" fill="black"/>
<path d="M124.855 39.5312C124.594 39.5312 124.463 39.4557 124.463 39.3047C124.463 39.1811 124.576 39.0987 124.802 39.0576L125.403 38.9752C125.768 38.9203 126.003 38.8447 126.107 38.7486C126.229 38.6525 126.29 38.4603 126.29 38.172V26.0623C126.29 25.774 126.229 25.5818 126.107 25.4857C126.003 25.3896 125.768 25.314 125.403 25.2591L124.802 25.1767C124.576 25.1356 124.463 25.0532 124.463 24.9296C124.463 24.7786 124.594 24.7031 124.855 24.7031H133.622C134.023 24.7031 134.24 24.861 134.275 25.1767L134.484 28.5955C134.518 28.8289 134.405 28.9456 134.144 28.9456C133.936 28.9456 133.814 28.8563 133.779 28.6778L133.622 27.9158C133.431 26.9822 133.04 26.3026 132.448 25.877C131.857 25.4376 131.039 25.2179 129.995 25.2179C129.299 25.2179 128.812 25.3003 128.534 25.4651C128.273 25.6161 128.143 25.8907 128.143 26.2889V31.2522C128.143 31.4444 128.264 31.5405 128.508 31.5405H129.813C130.578 31.5405 131.048 31.2178 131.222 30.5725L131.483 29.5428C131.552 29.3369 131.7 29.2476 131.926 29.2751C132.118 29.3025 132.213 29.4192 132.213 29.6252V34.259C132.213 34.4649 132.118 34.5816 131.926 34.6091C131.7 34.6366 131.552 34.5473 131.483 34.3414L131.222 33.3322C131.1 32.8517 130.926 32.5359 130.7 32.3849C130.491 32.2339 130.187 32.1583 129.787 32.1583H128.508C128.264 32.1583 128.143 32.2544 128.143 32.4467V37.6159C128.143 38.1102 128.299 38.4672 128.612 38.6869C128.943 38.9065 129.534 39.0164 130.387 39.0164C131.257 39.0164 131.996 38.8447 132.605 38.5015C133.231 38.1445 133.666 37.4855 133.909 36.5244L134.223 35.3093C134.275 35.1308 134.405 35.0416 134.614 35.0416C134.858 35.0416 134.962 35.1583 134.927 35.3917L134.666 39.0576C134.631 39.3733 134.414 39.5312 134.014 39.5312H124.855Z" fill="black"/>
<path d="M117.153 39.7166C116.214 39.7166 115.379 39.545 114.648 39.2017C113.935 38.8447 113.378 38.3573 112.978 37.7395C112.578 37.1079 112.378 36.3871 112.378 35.5771V26.0623C112.378 25.774 112.317 25.5818 112.195 25.4857C112.091 25.3896 111.856 25.314 111.491 25.2591L110.891 25.1767C110.664 25.1356 110.551 25.0532 110.551 24.9296C110.551 24.7786 110.682 24.7031 110.943 24.7031H115.718C115.979 24.7031 116.109 24.7854 116.109 24.9502C116.109 25.0738 116.014 25.1493 115.822 25.1767L115.118 25.2591C114.77 25.3003 114.535 25.3758 114.413 25.4857C114.292 25.5955 114.231 25.7946 114.231 26.0829V35.5976C114.231 36.6411 114.526 37.4512 115.118 38.0278C115.709 38.6045 116.536 38.8928 117.597 38.8928C118.675 38.8928 119.51 38.6045 120.102 38.0278C120.693 37.4512 120.989 36.6411 120.989 35.5976V26.4948C120.989 25.7534 120.693 25.3415 120.102 25.2591L119.397 25.1767C119.206 25.1493 119.11 25.0738 119.11 24.9502C119.11 24.7854 119.241 24.7031 119.502 24.7031H123.259C123.52 24.7031 123.651 24.7786 123.651 24.9296C123.651 25.0532 123.538 25.1356 123.312 25.1767L122.711 25.2591C122.12 25.3415 121.824 25.7465 121.824 26.4742V35.5771C121.824 36.8265 121.398 37.8287 120.546 38.5839C119.693 39.339 118.562 39.7166 117.153 39.7166Z" fill="black"/>
<path d="M93.1332 9.54534C94.0275 8.53419 95.0997 8.23431 96.0487 8.44396C96.888 8.62942 97.6001 9.20931 97.9631 9.97549C98.7823 9.24459 99.5764 9.04022 100.308 9.22506C100.981 9.39502 101.532 9.87982 101.953 10.42C103.146 9.19341 104.383 8.91995 105.453 9.19565C106.473 9.45855 107.287 10.2079 107.723 10.9627C108.966 10.7401 109.767 10.9704 110.189 11.5354C110.562 12.0359 110.554 12.6963 110.434 13.2263C110.962 13.6262 111.307 14.0188 111.492 14.4059C111.702 14.8467 111.696 15.2673 111.533 15.6365C111.376 15.9927 111.084 16.2749 110.767 16.4867C110.539 16.6384 110.287 16.7608 110.037 16.854C110.211 17.4805 110.219 18.0182 110.081 18.4685C109.919 18.9962 109.567 19.3666 109.129 19.6018C108.362 20.0145 107.323 20.021 106.453 19.7994C106.227 20.3396 105.946 20.7593 105.604 21.0595C105.203 21.4126 104.737 21.5859 104.23 21.6095C103.298 21.6531 102.248 21.1885 101.177 20.4863C98.7282 22.3689 95.8567 22.8534 93.8183 22.8534C91.952 22.8534 90.3854 22.8629 88.6703 22.8678C86.9344 22.8727 85.0488 22.8729 82.553 22.8534L82.5581 22.2305C85.0511 22.2499 86.9342 22.2497 88.6686 22.2448C89.6686 22.242 90.6201 22.2377 91.6105 22.2345C91.9896 22.6169 92.5152 22.8537 93.0962 22.8537C93.6918 22.8537 94.2286 22.6044 94.6097 22.2051C96.5198 22.0849 98.922 21.5043 100.967 19.8595L101.146 19.715L101.337 19.8444C102.456 20.6046 103.43 21.0234 104.201 20.9873C104.575 20.9699 104.904 20.8458 105.193 20.5916C105.487 20.3331 105.755 19.9255 105.972 19.317L106.074 19.0314L106.362 19.1257C107.185 19.3947 108.183 19.4033 108.834 19.053C109.149 18.8838 109.378 18.6346 109.486 18.2855C109.595 17.9296 109.589 17.433 109.355 16.7557L109.247 16.4438L109.565 16.3543C109.857 16.272 110.163 16.1403 110.421 15.9686C110.681 15.7953 110.87 15.5952 110.963 15.3849C111.05 15.1874 111.064 14.9566 110.929 14.6739C110.789 14.3787 110.481 14.0182 109.9 13.6065L109.718 13.4772L109.781 13.2633C109.93 12.7645 109.935 12.2368 109.69 11.9083C109.466 11.6084 108.921 11.3389 107.623 11.6174L107.384 11.6687L107.277 11.4487C106.945 10.7622 106.209 10.0336 105.297 9.79876C104.418 9.57215 103.308 9.78909 102.16 11.1151L101.894 11.4233L101.666 11.0849C101.255 10.4715 100.735 9.97541 100.156 9.82892C99.6095 9.69102 98.9107 9.84155 98.0644 10.7485L97.6762 11.1646L97.535 10.6133C97.3375 9.8426 96.6953 9.22493 95.9144 9.05235C95.1535 8.88421 94.2155 9.1321 93.4085 10.1907L93.1805 10.4901L92.9291 10.21C92.5753 9.81597 92.0074 9.53603 91.4765 9.59939C90.9807 9.6586 90.4072 10.0339 90.0508 11.1857L89.9902 11.3821L89.7861 11.4034C88.99 11.4874 88.5831 11.8186 88.4496 12.169C88.3154 12.5215 88.4053 13.0297 88.9011 13.5811L89.0771 13.7767L88.9137 13.9828C88.6217 14.3515 88.3181 14.9016 88.2819 15.3766C88.2646 15.6041 88.3097 15.7942 88.4257 15.9465C88.5431 16.1004 88.7632 16.2552 89.1714 16.351L89.0291 16.9574C88.5268 16.8395 88.1607 16.6262 87.9305 16.3243C87.6991 16.0209 87.635 15.6673 87.6607 15.3293C87.703 14.7734 87.9905 14.2084 88.2739 13.8005C87.81 13.1971 87.6451 12.5316 87.8676 11.9472C88.0972 11.3445 88.6945 10.9445 89.5191 10.8109C89.9325 9.63738 90.6273 9.07351 91.4028 8.98095C92.0497 8.90376 92.6789 9.16658 93.1332 9.54534Z" fill="black"/>
<path d="M69.3748 39.3047C69.3748 39.4557 69.5053 39.5312 69.7663 39.5312H75.6376C75.8985 39.5312 76.029 39.4557 76.029 39.3047C76.029 39.1537 75.9159 39.0713 75.6897 39.0576L74.5155 38.9134C74.185 38.8722 73.9501 38.8036 73.8109 38.7074C73.6892 38.5976 73.6283 38.3985 73.6283 38.1102V33.0851C73.6283 32.8654 73.6544 32.6732 73.7066 32.5084C73.7587 32.33 73.8457 32.1446 73.9675 31.9524L77.3859 26.536C77.6816 26.0829 77.9165 25.7603 78.0904 25.568C79.2598 24.276 80.9527 22.9282 82.553 22.8534L82.5581 22.2305C78.9664 21.8874 77.4155 25.0447 76.5248 26.5154L73.4456 31.4787C73.376 31.5748 73.289 31.6229 73.1847 31.6229C73.0803 31.6229 72.9933 31.5748 72.9237 31.4787L69.7141 26.0829C69.5401 25.7946 69.514 25.5818 69.6358 25.4445C69.7576 25.3072 69.9663 25.2317 70.2621 25.2179L70.7579 25.1767C71.0536 25.163 71.2015 25.0806 71.2015 24.9296C71.2015 24.7786 71.0797 24.7031 70.8361 24.7031H66.374C66.113 24.7031 65.9825 24.7717 65.9825 24.909C65.9825 25.0463 66.1043 25.1355 66.3479 25.1767L66.5827 25.2179C66.8785 25.2729 67.1046 25.3621 67.2612 25.4857C67.4177 25.6092 67.5569 25.7877 67.6787 26.0211L71.5146 32.3643C71.6886 32.6526 71.7755 32.9478 71.7755 33.2499V38.1102C71.7755 38.3985 71.7147 38.5976 71.5929 38.7074C71.4711 38.8036 71.2363 38.8722 70.8883 38.9134L69.7141 39.0576C69.4879 39.0713 69.3748 39.1537 69.3748 39.3047Z" fill="black"/>
<path d="M64.1408 39.7166C63.8625 39.7166 63.6277 39.5518 63.4363 39.2223L56.3647 27.1126C56.3125 27.0165 56.2429 26.9753 56.1559 26.9891C56.0863 27.0028 56.0515 27.0646 56.0515 27.1744V37.7601C56.0515 38.1445 56.1298 38.4397 56.2864 38.6457C56.4603 38.8379 56.7648 38.9614 57.1997 39.0164L57.5389 39.0576C57.7651 39.0713 57.8781 39.1537 57.8781 39.3047C57.8781 39.4557 57.7477 39.5312 57.4867 39.5312H53.7552C53.4942 39.5312 53.3638 39.4557 53.3638 39.3047C53.3638 39.1537 53.4768 39.0713 53.703 39.0576L54.0422 39.0164C54.4945 38.9614 54.8077 38.8379 54.9816 38.6457C55.1556 38.4397 55.2426 38.1445 55.2426 37.7601V26.0623C55.2426 25.774 55.1817 25.5818 55.0599 25.4857C54.9555 25.3896 54.7033 25.314 54.3032 25.2591L53.703 25.1767C53.4768 25.1356 53.3638 25.0532 53.3638 24.9296C53.3638 24.7786 53.4942 24.7031 53.7552 24.7031H56.5473C56.9822 24.7031 57.2867 24.8541 57.4606 25.1561L63.619 35.8448C63.6711 35.9272 63.732 35.9615 63.8016 35.9478C63.8886 35.934 63.9321 35.886 63.9321 35.8036V26.4742C63.9321 26.0349 63.8364 25.7328 63.645 25.568C63.4537 25.3896 63.2101 25.2797 62.9144 25.2385L62.4447 25.1767C62.2185 25.1356 62.1055 25.0532 62.1055 24.9296C62.1055 24.7786 62.2359 24.7031 62.4969 24.7031H66.2284C66.4894 24.7031 66.6198 24.7786 66.6198 24.9296C66.6198 25.0806 66.5068 25.163 66.2806 25.1767L65.9414 25.2179C65.4891 25.2728 65.1759 25.3896 65.002 25.568C64.828 25.7328 64.741 26.0349 64.741 26.4742V39.0576C64.741 39.3047 64.6801 39.4763 64.5584 39.5724C64.454 39.6685 64.3148 39.7166 64.1408 39.7166Z" fill="black"/>
<path fill-rule="evenodd" clip-rule="evenodd" d="M82.0656 38.7692C83.0398 39.4008 84.2315 39.7166 85.6406 39.7166C86.3538 39.7166 86.9801 39.6617 87.5194 39.5518C88.0587 39.4557 88.5371 39.3253 88.9546 39.1605C89.2155 39.0507 89.3982 38.9546 89.5026 38.8722C89.607 38.7761 89.6591 38.6525 89.6591 38.5015V32.9204C89.6591 32.632 89.6939 32.4261 89.7635 32.3025C89.435 32.3025 88.891 32.1915 88.3732 32.0859C88.0898 32.0281 87.8144 31.9719 87.5864 31.9364C86.8397 31.8201 86.5276 31.8795 86.9192 32.0966C87.2845 32.124 87.5194 32.1927 87.6238 32.3025C87.7455 32.4124 87.8064 32.6114 87.8064 32.8998V37.41C87.8064 38.0828 87.6238 38.5427 87.2584 38.7898C86.8931 39.037 86.3538 39.1605 85.6406 39.1605C84.3184 39.1605 83.2312 38.5564 82.3787 37.3482C81.5437 36.1263 81.1262 34.3551 81.1262 32.0348C81.1262 29.7831 81.535 28.0669 82.3526 26.8861C83.1877 25.6916 84.2402 25.0944 85.5101 25.0944C86.3625 25.0944 87.0323 25.3072 87.5194 25.7328C88.0065 26.1584 88.4414 26.941 88.8241 28.0806L89.0329 28.6984C89.0851 28.8769 89.2068 28.9662 89.3982 28.9662C89.607 28.9662 89.7113 28.8495 89.7113 28.6161L89.633 25.4857C89.633 25.2935 89.52 25.1493 89.2938 25.0532C88.8763 24.8884 88.3892 24.758 87.8325 24.6619C87.2758 24.552 86.6583 24.4971 85.9798 24.4971C84.6403 24.4971 83.4486 24.8129 82.4048 25.4445C81.3784 26.0623 80.5695 26.941 79.978 28.0806C79.3866 29.2064 79.0908 30.5245 79.0908 32.0348C79.0908 33.6 79.3431 34.9592 79.8476 36.1125C80.3521 37.2521 81.0914 38.1377 82.0656 38.7692Z" fill="black"/>
<path fill-rule="evenodd" clip-rule="evenodd" d="M100.342 37.573C100.938 38.4715 101.699 38.9886 102.625 39.1243C102.716 39.3361 103.08 39.7744 103.078 39.8428C102.879 39.7763 102.467 39.7152 102.254 39.657C102.118 39.6196 101.989 39.5844 101.882 39.5518C100.977 39.3184 100.16 38.8516 99.4291 38.1514C99.1388 37.8608 98.8731 37.543 98.6318 37.1978C99.1194 37.3452 100.144 37.6266 100.342 37.573ZM99.1943 32.0966C99.1943 34.0188 99.4221 35.5454 99.8779 36.6763C99.7347 36.668 98.5322 36.2302 97.9489 36.0124C97.873 35.8511 97.801 35.6854 97.733 35.5153C97.3329 34.4718 97.1328 33.3322 97.1328 32.0966C97.1328 31.0256 97.2807 30.0302 97.5764 29.1103C97.8895 28.1904 98.3158 27.3873 98.855 26.7008C99.4117 26.0005 100.055 25.4582 100.786 25.0738C101.517 24.6893 102.3 24.4971 103.135 24.4971C103.97 24.4971 104.744 24.6893 105.457 25.0738C106.188 25.4582 106.831 26.0005 107.388 26.7008C107.945 27.3873 108.371 28.1904 108.667 29.1103C108.98 30.0302 109.136 31.0256 109.136 32.0966C109.136 33.3597 108.919 34.5267 108.484 35.5977C108.066 36.6549 107.484 37.5336 106.736 38.2338C106.145 38.7998 105.486 39.2043 104.759 39.4474C104.618 39.3138 104.331 39.0283 104.31 38.9548C105 38.6918 105.574 38.1769 106.031 37.41C106.727 36.243 107.075 34.4718 107.075 32.0966C107.075 29.7213 106.727 27.957 106.031 26.8037C105.335 25.6367 104.37 25.0532 103.135 25.0532C101.917 25.0532 100.951 25.6367 100.238 26.8037C99.5422 27.957 99.1943 29.7213 99.1943 32.0966Z" fill="black"/>
<path d="M84.5915 32.9204C85.0245 32.4535 86.3889 31.4977 88.1044 31.6954C90.2488 31.9425 95.7633 35.4998 97.4747 36.4543C97.7139 36.5877 98.031 36.7222 98.4005 36.8466C98.9098 37.018 99.5185 37.17 100.159 37.273C100.656 37.3527 101.172 37.403 101.676 37.41C101.738 37.4109 101.8 37.4112 101.861 37.4111C101.774 37.308 101.684 37.2043 101.592 37.0996C101.026 37.1015 100.485 37.031 99.9828 36.9209C99.2535 36.7611 98.6069 36.5178 98.0868 36.2923C97.8568 36.1926 97.6515 36.0964 97.4747 36.0124C96.1455 35.3808 90.9659 31.9249 88.6344 31.5405C86.7692 31.233 84.9621 32.2796 84.5915 32.9204Z" fill="black"/>
<path d="M102.536 37.3876C102.455 37.2847 102.369 37.1747 102.279 37.0606C102.047 37.0865 101.818 37.0988 101.592 37.0996C101.684 37.2043 101.774 37.308 101.861 37.4111C102.095 37.4107 102.32 37.403 102.536 37.3876Z" fill="black"/>
<path d="M103.949 39.0668C103.692 39.1293 103.42 39.1605 103.135 39.1605C103.097 39.1605 103.059 39.16 103.022 39.1588C103.084 39.3229 103.134 39.346 103.27 39.5803C103.406 39.8146 103.838 40.3769 104.014 40.7597C104.358 41.5065 104.799 42.0586 105.338 42.4157C105.877 42.7729 106.448 42.9933 107.049 43.0768C107.671 43.1716 108.239 43.1831 108.753 43.1116C109.352 43.0282 109.836 42.8982 110.202 42.7217C110.589 42.5563 110.902 42.3734 111.14 42.173C111.256 42.0593 111.303 41.9551 111.282 41.8604C111.258 41.7523 111.183 41.693 111.057 41.6826C110.931 41.6723 110.807 41.7105 110.685 41.7971C110.211 42.1279 109.76 42.2789 109.203 42.4006C108.606 42.5312 108.173 42.6458 107.323 42.4006C106.473 42.1555 106.106 41.834 105.623 41.0927C105.217 40.4712 104.569 39.7362 103.949 39.0668Z" fill="black"/>
<path fill-rule="evenodd" clip-rule="evenodd" d="M106.752 31.8804C107.147 32.9702 107.109 33.9372 106.151 35.444C106.05 35.6028 105.925 35.7546 105.795 35.8906C105.565 36.1318 105.32 36.3232 105.17 36.4158C104.644 36.7401 104.475 36.8216 104.143 36.9634C103.519 37.2304 102.951 37.3582 102.536 37.3876C102.455 37.2847 102.369 37.1747 102.279 37.0606C102.561 37.0293 102.846 36.9782 103.135 36.9035C103.645 36.7712 104.257 36.4328 104.644 36.1649C104.918 35.9751 105.197 35.6271 105.218 35.5977C105.914 34.6467 106.333 33.6328 106.124 32.6989C106.055 32.3924 105.781 31.9858 105.346 31.9338C104.858 31.8757 104.085 32.1251 103.437 32.8998C102.848 31.9364 101.882 31.4737 100.905 31.7671C100.675 31.8359 100.348 32.2842 100.238 32.7646C100.11 33.3272 100.222 34.3724 100.905 35.3893C101.054 35.6115 101.33 35.9327 101.622 36.2732C101.811 36.4932 102.007 36.7212 102.18 36.9359C102.141 36.9479 101.693 36.9612 101.475 36.9663C101.426 36.9114 101.375 36.8544 101.322 36.7957C101.061 36.5031 100.765 36.1721 100.543 35.8906C100.502 35.8388 100.462 35.7881 100.422 35.738C99.7305 34.8687 99.2071 34.2106 99.4291 32.3693C99.5285 31.5457 100.177 31.0336 100.967 30.9198C101.927 30.7814 103.062 31.2224 103.54 32.3025C103.819 31.6814 104.645 31.0989 105.482 31.1078C105.946 31.1127 106.576 31.3933 106.752 31.8804Z" fill="black"/>
<path fill-rule="evenodd" clip-rule="evenodd" d="M103.949 39.0668C103.692 39.1293 103.42 39.1605 103.135 39.1605C103.097 39.1605 103.059 39.16 103.022 39.1588C102.901 38.8411 102.779 38.6665 102.55 38.341C102.483 38.2442 102.406 38.134 102.316 38.0028C102.219 37.8592 102.11 37.7164 101.994 37.573C102.193 37.565 102.602 37.5447 102.647 37.5277C102.719 37.6199 102.786 37.7041 102.844 37.7776C102.919 37.8722 102.98 37.9491 103.022 38.0028C103.368 38.4439 103.693 38.7924 103.882 38.9955C103.907 39.0217 103.929 39.0455 103.949 39.0668Z" fill="black"/>
<circle cx="90.6826" cy="24.2582" r="1" stroke="black" stroke-width="0.505019"/>
<circle cx="90.6826" cy="24.2582" r="1" stroke="black" stroke-width="0.505019"/>
<path d="M94.4526 20.7614C94.4526 20.0122 93.8454 19.4048 93.0963 19.4048C92.3471 19.4048 91.7397 20.0122 91.7397 20.7614C91.7398 21.5105 92.3471 22.1177 93.0963 22.1177V22.6325L93 22.6303C92.0431 22.5818 91.2759 21.8145 91.2274 20.8576L91.2249 20.7614C91.2249 19.7278 92.0628 18.8899 93.0963 18.8899L93.1926 18.8925C94.1813 18.9426 94.9674 19.7602 94.9674 20.7614L94.9652 20.8576C94.915 21.8464 94.0974 22.6325 93.0963 22.6325V22.1177C93.8454 22.1176 94.4525 21.5105 94.4526 20.7614Z" fill="black"/>
<path d="M94.4526 20.7614C94.4526 20.0122 93.8454 19.4048 93.0963 19.4048C92.3471 19.4048 91.7397 20.0122 91.7397 20.7614C91.7398 21.5105 92.3471 22.1177 93.0963 22.1177V22.6325L93 22.6303C92.0431 22.5818 91.2759 21.8145 91.2274 20.8576L91.2249 20.7614C91.2249 19.7278 92.0628 18.8899 93.0963 18.8899L93.1926 18.8925C94.1813 18.9426 94.9674 19.7602 94.9674 20.7614L94.9652 20.8576C94.915 21.8464 94.0974 22.6325 93.0963 22.6325V22.1177C93.8454 22.1176 94.4525 21.5105 94.4526 20.7614Z" fill="black"/>
<path d="M35.5503 79.753C35.1503 80.3663 34.6503 81.013 34.0503 81.693C33.4636 82.373 32.8103 83.053 32.0903 83.733C31.3703 84.413 30.6036 85.0663 29.7903 85.693C28.9769 86.3196 28.1436 86.8863 27.2903 87.393C27.2236 87.273 27.1369 87.1463 27.0303 87.013C26.9236 86.8663 26.8103 86.7196 26.6903 86.573C26.5703 86.4263 26.4569 86.3063 26.3503 86.213C27.2169 85.7196 28.0636 85.153 28.8903 84.513C29.7169 83.873 30.4969 83.1996 31.2303 82.493C31.9769 81.773 32.6503 81.053 33.2503 80.333C33.8503 79.613 34.3436 78.9196 34.7303 78.253H36.2303C36.7503 78.9996 37.3503 79.7463 38.0303 80.493C38.7103 81.2263 39.4369 81.933 40.2103 82.613C40.9969 83.293 41.7969 83.9263 42.6103 84.513C43.4369 85.0863 44.2369 85.5796 45.0103 85.993C44.8236 86.1663 44.6436 86.373 44.4703 86.613C44.2969 86.8396 44.1436 87.0663 44.0103 87.293C43.2369 86.8263 42.4436 86.293 41.6303 85.693C40.8303 85.093 40.0503 84.4596 39.2903 83.793C38.5303 83.113 37.8303 82.433 37.1903 81.753C36.5503 81.0596 36.0036 80.393 35.5503 79.753ZM31.2703 84.633H40.0303V86.033H31.2703V84.633ZM28.6903 88.553H40.8303V89.993H28.6903V88.553ZM40.5303 88.553H40.7503L41.0303 88.473L42.2103 88.833C41.8903 89.5663 41.5169 90.3996 41.0903 91.333C40.6769 92.253 40.2369 93.1863 39.7703 94.133C39.3169 95.0663 38.8769 95.953 38.4503 96.793L36.8903 96.353C37.2103 95.7396 37.5436 95.0863 37.8903 94.393C38.2369 93.6863 38.5769 92.9863 38.9103 92.293C39.2436 91.5996 39.5503 90.9463 39.8303 90.333C40.1103 89.7196 40.3436 89.193 40.5303 88.753V88.553ZM57.1103 79.233C57.0836 79.4063 57.0569 79.5996 57.0303 79.813C57.0169 80.0263 57.0036 80.2796 56.9903 80.573C56.9903 80.773 56.9836 81.073 56.9703 81.473C56.9703 81.873 56.9703 82.3263 56.9703 82.833C56.9703 83.3263 56.9703 83.8263 56.9703 84.333C56.9703 84.8396 56.9703 85.3063 56.9703 85.733C56.9703 86.3996 56.9836 87.0996 57.0103 87.833C57.0369 88.5663 57.0703 89.2796 57.1103 89.973C57.1503 90.6663 57.1836 91.2996 57.2103 91.873C57.2369 92.4463 57.2503 92.8996 57.2503 93.233C57.2503 93.6996 57.1369 94.1463 56.9103 94.573C56.6969 94.9996 56.3303 95.3463 55.8103 95.613C55.3036 95.893 54.6103 96.033 53.7303 96.033C52.2903 96.033 51.1903 95.7796 50.4303 95.273C49.6703 94.7796 49.2903 94.053 49.2903 93.093C49.2903 92.4796 49.4703 91.9463 49.8303 91.493C50.2036 91.0396 50.7369 90.6863 51.4303 90.433C52.1236 90.1663 52.9503 90.033 53.9103 90.033C54.9636 90.033 55.9503 90.1596 56.8703 90.413C57.8036 90.653 58.6569 90.9596 59.4303 91.333C60.2036 91.7063 60.8903 92.0996 61.4903 92.513C62.0903 92.913 62.5836 93.273 62.9703 93.593L62.0503 95.013C61.5969 94.5863 61.0703 94.1596 60.4703 93.733C59.8836 93.3063 59.2369 92.913 58.5303 92.553C57.8369 92.193 57.0836 91.9063 56.2703 91.693C55.4703 91.4663 54.6169 91.353 53.7103 91.353C52.7503 91.353 52.0169 91.513 51.5103 91.833C51.0169 92.153 50.7703 92.5463 50.7703 93.013C50.7703 93.3063 50.8636 93.5796 51.0503 93.833C51.2369 94.073 51.5369 94.2663 51.9503 94.413C52.3636 94.5596 52.8969 94.633 53.5503 94.633C53.9369 94.633 54.2903 94.5863 54.6103 94.493C54.9303 94.3863 55.1836 94.2063 55.3703 93.953C55.5703 93.6996 55.6703 93.3463 55.6703 92.893C55.6703 92.5063 55.6569 92.0063 55.6303 91.393C55.6169 90.7663 55.5969 90.1063 55.5703 89.413C55.5436 88.7063 55.5169 88.0263 55.4903 87.373C55.4769 86.7196 55.4703 86.173 55.4703 85.733C55.4703 85.2796 55.4703 84.8196 55.4703 84.353C55.4703 83.873 55.4703 83.3996 55.4703 82.933C55.4703 82.4663 55.4703 82.0196 55.4703 81.593C55.4836 81.1663 55.4903 80.7796 55.4903 80.433C55.4903 80.273 55.4836 80.0663 55.4703 79.813C55.4569 79.5596 55.4369 79.3663 55.4103 79.233H57.1103ZM49.4503 81.413C49.7836 81.4663 50.1703 81.5196 50.6103 81.573C51.0503 81.6263 51.5103 81.6796 51.9903 81.733C52.4836 81.773 52.9503 81.8063 53.3903 81.833C53.8436 81.8463 54.2369 81.853 54.5703 81.853C55.8369 81.853 57.1303 81.8063 58.4503 81.713C59.7836 81.6196 61.0969 81.4663 62.3903 81.253L62.3703 82.713C61.6369 82.793 60.8369 82.873 59.9703 82.953C59.1036 83.033 58.2103 83.0996 57.2903 83.153C56.3836 83.2063 55.4836 83.233 54.5903 83.233C54.1236 83.233 53.5703 83.213 52.9303 83.173C52.2903 83.133 51.6569 83.0863 51.0303 83.033C50.4169 82.9796 49.8969 82.933 49.4703 82.893L49.4503 81.413ZM49.3503 85.653C49.7103 85.7063 50.1103 85.7596 50.5503 85.813C50.9903 85.8663 51.4436 85.9063 51.9103 85.933C52.3769 85.9596 52.8236 85.9863 53.2503 86.013C53.6769 86.0263 54.0569 86.033 54.3903 86.033C55.3636 86.033 56.3036 86.013 57.2103 85.973C58.1303 85.9196 59.0303 85.853 59.9103 85.773C60.8036 85.6796 61.6836 85.5663 62.5503 85.433L62.5303 86.933C61.8636 87.0263 61.1969 87.1063 60.5303 87.173C59.8769 87.2263 59.2169 87.273 58.5503 87.313C57.8969 87.353 57.2236 87.3863 56.5303 87.413C55.8503 87.4263 55.1303 87.433 54.3703 87.433C53.9169 87.433 53.3903 87.4196 52.7903 87.393C52.2036 87.3663 51.6036 87.333 50.9903 87.293C50.3903 87.253 49.8503 87.2063 49.3703 87.153L49.3503 85.653ZM67.2303 81.953C67.6036 81.9396 67.9436 81.9263 68.2503 81.913C68.5703 81.8863 68.8236 81.8663 69.0103 81.853C69.3303 81.813 69.7903 81.7663 70.3903 81.713C71.0036 81.6463 71.7036 81.5796 72.4903 81.513C73.2769 81.433 74.1236 81.353 75.0303 81.273C75.9369 81.193 76.8503 81.113 77.7703 81.033C78.5036 80.9663 79.1969 80.913 79.8503 80.873C80.5036 80.8196 81.1103 80.7796 81.6703 80.753C82.2303 80.713 82.7303 80.6863 83.1703 80.673V82.273C82.7969 82.273 82.3703 82.2796 81.8903 82.293C81.4103 82.3063 80.9369 82.333 80.4703 82.373C80.0036 82.413 79.5969 82.4863 79.2503 82.593C78.5436 82.8196 77.9036 83.1663 77.3303 83.633C76.7703 84.0863 76.2903 84.613 75.8903 85.213C75.4903 85.813 75.1836 86.433 74.9703 87.073C74.7703 87.713 74.6703 88.333 74.6703 88.933C74.6703 89.7063 74.8036 90.3863 75.0703 90.973C75.3369 91.5463 75.6969 92.033 76.1503 92.433C76.6169 92.833 77.1436 93.1596 77.7303 93.413C78.3169 93.6663 78.9369 93.8596 79.5903 93.993C80.2569 94.113 80.9169 94.1796 81.5703 94.193L80.9903 95.853C80.2436 95.8263 79.4969 95.7196 78.7503 95.533C78.0036 95.3596 77.2903 95.1063 76.6103 94.773C75.9303 94.4263 75.3236 93.993 74.7903 93.473C74.2569 92.953 73.8369 92.3463 73.5303 91.653C73.2236 90.9596 73.0703 90.1663 73.0703 89.273C73.0703 88.233 73.2503 87.273 73.6103 86.393C73.9836 85.4996 74.4569 84.7196 75.0303 84.053C75.6036 83.3863 76.1969 82.873 76.8103 82.513C76.3836 82.5663 75.8503 82.6263 75.2103 82.693C74.5836 82.7596 73.9103 82.833 73.1903 82.913C72.4703 82.9796 71.7436 83.0596 71.0103 83.153C70.2903 83.2463 69.6169 83.3396 68.9903 83.433C68.3636 83.513 67.8369 83.5996 67.4103 83.693L67.2303 81.953ZM80.2903 84.733C80.4369 84.9463 80.6103 85.2196 80.8103 85.553C81.0236 85.873 81.2303 86.2063 81.4303 86.553C81.6303 86.8863 81.7969 87.2063 81.9303 87.513L80.9103 87.993C80.6836 87.4996 80.4303 87.013 80.1503 86.533C79.8703 86.0396 79.5769 85.5863 79.2703 85.173L80.2903 84.733ZM82.4703 83.893C82.6303 84.1063 82.8169 84.373 83.0303 84.693C83.2436 85.013 83.4503 85.3463 83.6503 85.693C83.8636 86.0263 84.0503 86.3463 84.2103 86.653L83.1703 87.153C82.9303 86.6596 82.6636 86.173 82.3703 85.693C82.0903 85.213 81.7969 84.7663 81.4903 84.353L82.4703 83.893ZM98.5703 78.313H100.09V86.153H98.5703V78.313ZM95.9703 94.333H103.11V95.693H95.9703V94.333ZM93.9303 81.153H104.87V82.513H93.9303V81.153ZM94.5703 85.513H104.41V86.913H94.5703V85.513ZM95.2103 89.073H103.85V96.633H102.41V90.433H96.6103V96.693H95.2103V89.073ZM89.5503 78.313L90.8903 78.833C90.6503 79.313 90.3836 79.8196 90.0903 80.353C89.7969 80.8863 89.5103 81.3996 89.2303 81.893C88.9503 82.373 88.6769 82.7996 88.4103 83.173L87.3703 82.713C87.6236 82.3263 87.8836 81.8796 88.1503 81.373C88.4169 80.853 88.6769 80.3263 88.9303 79.793C89.1836 79.2463 89.3903 78.753 89.5503 78.313ZM91.9703 80.593L93.2903 81.153C92.8236 81.913 92.3036 82.713 91.7303 83.553C91.1703 84.3796 90.6036 85.1863 90.0303 85.973C89.4569 86.7596 88.9169 87.4396 88.4103 88.013L87.4503 87.513C87.8369 87.0596 88.2369 86.5463 88.6503 85.973C89.0636 85.3996 89.4703 84.7996 89.8703 84.173C90.2836 83.5463 90.6703 82.9263 91.0303 82.313C91.3903 81.6996 91.7036 81.1263 91.9703 80.593ZM86.4103 82.533L87.1503 81.533C87.5236 81.8396 87.9036 82.1796 88.2903 82.553C88.6769 82.9263 89.0303 83.2996 89.3503 83.673C89.6703 84.033 89.9169 84.3596 90.0903 84.653L89.2903 85.813C89.1036 85.493 88.8503 85.1396 88.5303 84.753C88.2236 84.3663 87.8836 83.9796 87.5103 83.593C87.1369 83.2063 86.7703 82.853 86.4103 82.533ZM91.3303 85.233L92.4503 84.753C92.7436 85.193 93.0236 85.6596 93.2903 86.153C93.5569 86.6463 93.7903 87.1263 93.9903 87.593C94.2036 88.0596 94.3569 88.4796 94.4503 88.853L93.2703 89.413C93.1636 89.0396 93.0103 88.613 92.8103 88.133C92.6103 87.653 92.3836 87.1596 92.1303 86.653C91.8769 86.1463 91.6103 85.673 91.3303 85.233ZM86.3703 87.253C87.2636 87.2263 88.3236 87.193 89.5503 87.153C90.7903 87.0996 92.0636 87.0396 93.3703 86.973L93.3503 88.213C92.1103 88.293 90.8903 88.373 89.6903 88.453C88.4903 88.5196 87.4236 88.573 86.4903 88.613L86.3703 87.253ZM91.8503 90.033L92.9703 89.653C93.2636 90.2663 93.5369 90.933 93.7903 91.653C94.0569 92.373 94.2436 92.993 94.3503 93.513L93.1103 93.933C93.0169 93.3996 92.8503 92.773 92.6103 92.053C92.3703 91.3196 92.1169 90.6463 91.8503 90.033ZM87.4703 89.753L88.7503 89.973C88.6169 90.9196 88.4303 91.853 88.1903 92.773C87.9503 93.6796 87.6703 94.453 87.3503 95.093C87.2569 95.0263 87.1369 94.9596 86.9903 94.893C86.8569 94.8263 86.7103 94.7596 86.5503 94.693C86.4036 94.613 86.2703 94.553 86.1503 94.513C86.4969 93.8996 86.7703 93.173 86.9703 92.333C87.1836 91.4796 87.3503 90.6196 87.4703 89.753ZM89.7703 87.833H91.1303V96.753H89.7703V87.833ZM116.59 80.273C116.51 80.3796 116.41 80.5263 116.29 80.713C116.184 80.8863 116.07 81.0663 115.95 81.253C115.724 81.5863 115.45 82.033 115.13 82.593C114.824 83.1396 114.49 83.733 114.13 84.373C113.77 84.9996 113.417 85.6196 113.07 86.233C112.737 86.8463 112.444 87.3996 112.19 87.893C112.67 87.453 113.164 87.1396 113.67 86.953C114.19 86.753 114.69 86.653 115.17 86.653C115.837 86.653 116.384 86.8596 116.81 87.273C117.25 87.6863 117.484 88.2863 117.51 89.073C117.524 89.473 117.53 89.8996 117.53 90.353C117.544 90.793 117.55 91.2263 117.55 91.653C117.55 92.0663 117.564 92.4396 117.59 92.773C117.63 93.2796 117.804 93.6463 118.11 93.873C118.417 94.0863 118.784 94.193 119.21 94.193C119.757 94.193 120.25 94.0463 120.69 93.753C121.144 93.4463 121.537 93.0463 121.87 92.553C122.217 92.0596 122.504 91.5263 122.73 90.953C122.957 90.3796 123.137 89.833 123.27 89.313L124.59 90.393C124.244 91.4596 123.817 92.4063 123.31 93.233C122.804 94.0463 122.19 94.6863 121.47 95.153C120.764 95.6196 119.924 95.853 118.95 95.853C118.244 95.853 117.677 95.7196 117.25 95.453C116.837 95.1996 116.537 94.8796 116.35 94.493C116.177 94.1063 116.077 93.713 116.05 93.313C116.037 92.9263 116.024 92.5063 116.01 92.053C116.01 91.5996 116.01 91.153 116.01 90.713C116.01 90.273 115.997 89.873 115.97 89.513C115.944 89.073 115.804 88.733 115.55 88.493C115.31 88.2396 114.964 88.113 114.51 88.113C113.977 88.113 113.457 88.273 112.95 88.593C112.457 88.8996 112.004 89.2996 111.59 89.793C111.19 90.2863 110.864 90.7996 110.61 91.333C110.464 91.6263 110.297 91.9796 110.11 92.393C109.937 92.8063 109.77 93.233 109.61 93.673C109.45 94.113 109.304 94.5263 109.17 94.913C109.05 95.2996 108.957 95.6196 108.89 95.873L107.17 95.273C107.41 94.593 107.724 93.8196 108.11 92.953C108.497 92.0863 108.917 91.1796 109.37 90.233C109.824 89.273 110.29 88.3263 110.77 87.393C111.25 86.4463 111.704 85.5596 112.13 84.733C112.57 83.893 112.964 83.1596 113.31 82.533C113.657 81.893 113.917 81.413 114.09 81.093C114.21 80.853 114.33 80.613 114.45 80.373C114.584 80.1196 114.71 79.8463 114.83 79.553L116.59 80.273ZM133.91 79.673C133.844 79.8863 133.777 80.153 133.71 80.473C133.644 80.793 133.59 81.053 133.55 81.253C133.457 81.733 133.344 82.293 133.21 82.933C133.09 83.5596 132.95 84.2196 132.79 84.913C132.644 85.6063 132.477 86.2863 132.29 86.953C132.117 87.6596 131.904 88.433 131.65 89.273C131.397 90.0996 131.13 90.933 130.85 91.773C130.57 92.613 130.284 93.4063 129.99 94.153C129.697 94.8996 129.424 95.553 129.17 96.113L127.41 95.513C127.717 94.993 128.024 94.373 128.33 93.653C128.65 92.933 128.957 92.1596 129.25 91.333C129.557 90.5063 129.837 89.6863 130.09 88.873C130.357 88.0463 130.584 87.2796 130.77 86.573C130.89 86.1063 131.01 85.613 131.13 85.093C131.25 84.573 131.364 84.0663 131.47 83.573C131.59 83.0663 131.684 82.6063 131.75 82.193C131.83 81.7663 131.89 81.4196 131.93 81.153C131.97 80.873 131.997 80.5796 132.01 80.273C132.024 79.9663 132.017 79.713 131.99 79.513L133.91 79.673ZM129.47 82.993C130.217 82.993 131.017 82.9596 131.87 82.893C132.737 82.813 133.617 82.6996 134.51 82.553C135.404 82.4063 136.264 82.233 137.09 82.033V83.593C136.264 83.7796 135.397 83.9396 134.49 84.073C133.584 84.2063 132.69 84.313 131.81 84.393C130.944 84.4596 130.157 84.493 129.45 84.493C129.01 84.493 128.604 84.4863 128.23 84.473C127.857 84.4463 127.49 84.4263 127.13 84.413L127.07 82.853C127.55 82.9063 127.977 82.9463 128.35 82.973C128.737 82.9863 129.11 82.993 129.47 82.993ZM135.79 85.753C136.324 85.6996 136.904 85.6596 137.53 85.633C138.17 85.593 138.81 85.573 139.45 85.573C140.037 85.573 140.624 85.5863 141.21 85.613C141.81 85.6396 142.377 85.6863 142.91 85.753L142.87 87.273C142.364 87.2063 141.824 87.153 141.25 87.113C140.677 87.0596 140.097 87.033 139.51 87.033C138.87 87.033 138.244 87.053 137.63 87.093C137.017 87.1196 136.404 87.173 135.79 87.253V85.753ZM136.21 90.613C136.13 90.9463 136.064 91.2663 136.01 91.573C135.957 91.8663 135.93 92.1463 135.93 92.413C135.93 92.653 135.97 92.8863 136.05 93.113C136.144 93.3263 136.31 93.5196 136.55 93.693C136.79 93.8663 137.13 94.0063 137.57 94.113C138.024 94.2196 138.604 94.273 139.31 94.273C139.95 94.273 140.604 94.2396 141.27 94.173C141.95 94.1063 142.597 94.0063 143.21 93.873L143.15 95.493C142.617 95.573 142.024 95.6396 141.37 95.693C140.717 95.7596 140.024 95.793 139.29 95.793C137.717 95.793 136.51 95.5463 135.67 95.053C134.83 94.5596 134.41 93.8196 134.41 92.833C134.41 92.4463 134.437 92.0663 134.49 91.693C134.544 91.3063 134.617 90.8996 134.71 90.473L136.21 90.613ZM140.75 80.273C140.924 80.4996 141.11 80.7796 141.31 81.113C141.51 81.4463 141.704 81.7796 141.89 82.113C142.09 82.4463 142.257 82.753 142.39 83.033L141.31 83.513C141.19 83.233 141.03 82.9263 140.83 82.593C140.644 82.2596 140.45 81.9263 140.25 81.593C140.064 81.2596 139.877 80.973 139.69 80.733L140.75 80.273ZM142.95 79.453C143.137 79.7063 143.337 79.9996 143.55 80.333C143.764 80.6663 143.964 80.9996 144.15 81.333C144.35 81.6663 144.517 81.9596 144.65 82.213L143.57 82.693C143.357 82.2396 143.097 81.7596 142.79 81.253C142.484 80.733 142.19 80.2863 141.91 79.913L142.95 79.453ZM163.51 88.313L164.73 89.193C164.184 89.6863 163.597 90.193 162.97 90.713C162.344 91.2196 161.764 91.6463 161.23 91.993L160.31 91.293C160.657 91.0263 161.024 90.7196 161.41 90.373C161.81 90.0263 162.197 89.673 162.57 89.313C162.944 88.953 163.257 88.6196 163.51 88.313ZM158.55 78.293L160.21 78.613C159.984 79.093 159.737 79.573 159.47 80.053C159.204 80.5196 158.957 80.9263 158.73 81.273L157.47 80.953C157.657 80.5796 157.857 80.1396 158.07 79.633C158.284 79.1263 158.444 78.6796 158.55 78.293ZM155.83 84.473V86.213H162.57V84.473H155.83ZM155.83 81.593V83.333H162.57V81.593H155.83ZM154.45 80.373H164.01V87.453H154.45V80.373ZM158.49 86.793H159.85V95.093C159.85 95.4796 159.804 95.773 159.71 95.973C159.63 96.1863 159.464 96.353 159.21 96.473C158.957 96.5796 158.624 96.6396 158.21 96.653C157.797 96.6796 157.277 96.693 156.65 96.693C156.624 96.5063 156.57 96.2863 156.49 96.033C156.41 95.793 156.324 95.573 156.23 95.373C156.684 95.3863 157.09 95.393 157.45 95.393C157.81 95.393 158.05 95.393 158.17 95.393C158.304 95.3796 158.39 95.353 158.43 95.313C158.47 95.273 158.49 95.1996 158.49 95.093V86.793ZM153.69 89.173H157.03V90.453H153.69V89.173ZM156.69 89.173H156.97L157.21 89.133L158.03 89.473C157.684 91.073 157.13 92.3996 156.37 93.453C155.624 94.5063 154.75 95.3196 153.75 95.893C153.697 95.7863 153.61 95.6663 153.49 95.533C153.384 95.3996 153.264 95.273 153.13 95.153C153.01 95.033 152.904 94.9396 152.81 94.873C153.744 94.3663 154.55 93.6596 155.23 92.753C155.91 91.8463 156.397 90.733 156.69 89.413V89.173ZM159.69 86.893C159.824 87.5996 160.024 88.3263 160.29 89.073C160.557 89.8196 160.904 90.5463 161.33 91.253C161.757 91.9596 162.284 92.613 162.91 93.213C163.55 93.7996 164.304 94.2863 165.17 94.673C165.077 94.7663 164.97 94.8863 164.85 95.033C164.744 95.1663 164.637 95.3063 164.53 95.453C164.424 95.613 164.33 95.7596 164.25 95.893C163.397 95.453 162.657 94.913 162.03 94.273C161.417 93.633 160.897 92.9463 160.47 92.213C160.057 91.4663 159.717 90.7263 159.45 89.993C159.197 89.2463 158.997 88.5463 158.85 87.893L159.69 86.893ZM149.57 78.313L150.89 78.813C150.65 79.3063 150.384 79.8196 150.09 80.353C149.81 80.8863 149.524 81.4063 149.23 81.913C148.95 82.4063 148.684 82.8396 148.43 83.213L147.39 82.753C147.644 82.3663 147.904 81.913 148.17 81.393C148.45 80.873 148.71 80.3396 148.95 79.793C149.204 79.2463 149.41 78.753 149.57 78.313ZM151.81 80.593L153.07 81.193C152.617 81.9263 152.11 82.713 151.55 83.553C150.99 84.3796 150.424 85.1796 149.85 85.953C149.29 86.7263 148.757 87.3996 148.25 87.973L147.33 87.453C147.704 87.013 148.097 86.513 148.51 85.953C148.924 85.3796 149.33 84.7863 149.73 84.173C150.13 83.5463 150.51 82.9263 150.87 82.313C151.23 81.6996 151.544 81.1263 151.81 80.593ZM146.39 82.493L147.17 81.533C147.53 81.853 147.89 82.2063 148.25 82.593C148.624 82.9796 148.964 83.3596 149.27 83.733C149.577 84.1063 149.817 84.4463 149.99 84.753L149.15 85.873C148.977 85.553 148.737 85.193 148.43 84.793C148.137 84.393 147.81 83.993 147.45 83.593C147.09 83.193 146.737 82.8263 146.39 82.493ZM151.03 85.173L152.13 84.733C152.41 85.1596 152.677 85.6263 152.93 86.133C153.184 86.6396 153.41 87.133 153.61 87.613C153.824 88.0796 153.977 88.493 154.07 88.853L152.87 89.413C152.79 89.0263 152.65 88.593 152.45 88.113C152.264 87.6196 152.05 87.1196 151.81 86.613C151.57 86.093 151.31 85.613 151.03 85.173ZM146.21 87.153C147.077 87.113 148.104 87.0663 149.29 87.013C150.49 86.9463 151.717 86.8796 152.97 86.813V88.073C151.797 88.153 150.63 88.233 149.47 88.313C148.324 88.3796 147.297 88.4396 146.39 88.493L146.21 87.153ZM151.57 90.013L152.67 89.693C152.924 90.253 153.144 90.8663 153.33 91.533C153.53 92.1996 153.664 92.7796 153.73 93.273L152.55 93.633C152.51 93.1396 152.397 92.5596 152.21 91.893C152.024 91.213 151.81 90.5863 151.57 90.013ZM147.43 89.753L148.69 89.953C148.557 90.8996 148.37 91.833 148.13 92.753C147.904 93.6596 147.637 94.433 147.33 95.073C147.25 95.0196 147.137 94.9596 146.99 94.893C146.844 94.813 146.697 94.7396 146.55 94.673C146.404 94.6063 146.277 94.553 146.17 94.513C146.504 93.8996 146.77 93.173 146.97 92.333C147.17 91.4796 147.324 90.6196 147.43 89.753ZM149.55 87.753H150.87V96.713H149.55V87.753ZM174.13 79.573C174.104 79.7596 174.07 79.9596 174.03 80.173C173.99 80.373 173.95 80.573 173.91 80.773C173.857 80.9996 173.797 81.3196 173.73 81.733C173.664 82.1463 173.584 82.5863 173.49 83.053C173.41 83.5063 173.324 83.9463 173.23 84.373C173.084 84.933 172.91 85.573 172.71 86.293C172.524 86.9996 172.297 87.7596 172.03 88.573C171.777 89.373 171.49 90.193 171.17 91.033C170.85 91.8596 170.497 92.6796 170.11 93.493C169.724 94.3063 169.304 95.0796 168.85 95.813L167.23 95.153C167.684 94.553 168.11 93.873 168.51 93.113C168.91 92.353 169.277 91.5663 169.61 90.753C169.944 89.9263 170.244 89.113 170.51 88.313C170.777 87.513 171.004 86.773 171.19 86.093C171.39 85.3996 171.544 84.8063 171.65 84.313C171.837 83.5263 171.99 82.6996 172.11 81.833C172.23 80.9663 172.29 80.153 172.29 79.393L174.13 79.573ZM181.01 81.893C181.33 82.293 181.664 82.7996 182.01 83.413C182.37 84.0263 182.717 84.673 183.05 85.353C183.397 86.033 183.71 86.693 183.99 87.333C184.284 87.973 184.51 88.5263 184.67 88.993L183.13 89.733C182.984 89.213 182.777 88.6263 182.51 87.973C182.257 87.3196 181.964 86.6596 181.63 85.993C181.31 85.313 180.97 84.673 180.61 84.073C180.264 83.4596 179.91 82.953 179.55 82.553L181.01 81.893ZM166.93 83.973C167.25 83.9863 167.55 83.993 167.83 83.993C168.11 83.993 168.41 83.9863 168.73 83.973C169.024 83.9596 169.404 83.9396 169.87 83.913C170.35 83.873 170.864 83.833 171.41 83.793C171.957 83.7396 172.504 83.693 173.05 83.653C173.597 83.5996 174.097 83.5596 174.55 83.533C175.004 83.493 175.364 83.473 175.63 83.473C176.23 83.473 176.77 83.573 177.25 83.773C177.744 83.9596 178.137 84.2996 178.43 84.793C178.737 85.273 178.89 85.9663 178.89 86.873C178.89 87.6596 178.85 88.513 178.77 89.433C178.69 90.3396 178.564 91.2063 178.39 92.033C178.23 92.8463 178.01 93.533 177.73 94.093C177.424 94.7596 177.024 95.1996 176.53 95.413C176.037 95.6396 175.464 95.753 174.81 95.753C174.424 95.753 174.01 95.7196 173.57 95.653C173.144 95.5996 172.77 95.5396 172.45 95.473L172.19 93.793C172.47 93.8863 172.764 93.9663 173.07 94.033C173.377 94.0863 173.67 94.133 173.95 94.173C174.23 94.1996 174.457 94.213 174.63 94.213C175.004 94.213 175.337 94.153 175.63 94.033C175.924 93.8996 176.177 93.613 176.39 93.173C176.604 92.7196 176.777 92.153 176.91 91.473C177.057 90.793 177.164 90.0663 177.23 89.293C177.297 88.5196 177.33 87.773 177.33 87.053C177.33 86.4396 177.244 85.9796 177.07 85.673C176.897 85.3663 176.65 85.1596 176.33 85.053C176.01 84.9463 175.637 84.893 175.21 84.893C174.877 84.893 174.424 84.9196 173.85 84.973C173.277 85.013 172.664 85.0663 172.01 85.133C171.357 85.1863 170.75 85.2463 170.19 85.313C169.644 85.3796 169.217 85.4263 168.91 85.453C168.67 85.4796 168.37 85.5196 168.01 85.573C167.664 85.613 167.364 85.653 167.11 85.693L166.93 83.973ZM181.25 78.993C181.424 79.2196 181.604 79.4996 181.79 79.833C181.99 80.153 182.19 80.4863 182.39 80.833C182.59 81.1663 182.757 81.4663 182.89 81.733L181.79 82.213C181.67 81.9463 181.517 81.6463 181.33 81.313C181.144 80.9796 180.95 80.6463 180.75 80.313C180.55 79.9796 180.357 79.6863 180.17 79.433L181.25 78.993ZM183.45 78.173C183.624 78.4263 183.817 78.7196 184.03 79.053C184.244 79.3863 184.45 79.7196 184.65 80.053C184.85 80.373 185.01 80.6596 185.13 80.913L184.05 81.393C183.837 80.953 183.577 80.4796 183.27 79.973C182.964 79.453 182.67 79.0063 182.39 78.633L183.45 78.173Z" fill="black"/>
<path d="M40.3414 51.633V66.1785H38.58V53.4796H38.4948L34.9436 55.8376V54.0478L38.58 51.633H40.3414ZM39.1056 72.5705C37.5952 72.5705 36.1558 72.3409 34.7874 71.8816C33.4238 71.4223 32.1714 70.7736 31.0303 69.9356C29.8939 69.1022 28.9067 68.115 28.0686 66.9739C27.2353 65.8376 26.589 64.5876 26.1297 63.2239C25.6704 61.8555 25.4408 60.4162 25.4408 58.9057C25.4408 57.3953 25.6704 55.9583 26.1297 54.5947C26.589 53.2263 27.2353 51.9739 28.0686 50.8376C28.9067 49.6965 29.8939 48.7092 31.0303 47.8759C32.1714 47.0378 33.4238 46.3892 34.7874 45.9299C36.1558 45.4706 37.5952 45.241 39.1056 45.241C40.616 45.241 42.053 45.4706 43.4167 45.9299C44.785 46.3892 46.0374 47.0378 47.1738 47.8759C48.3149 48.7092 49.3021 49.6965 50.1354 50.8376C50.9735 51.9739 51.6221 53.2263 52.0814 54.5947C52.5407 55.9583 52.7704 57.3953 52.7704 58.9057C52.7704 60.4162 52.5407 61.8555 52.0814 63.2239C51.6221 64.5876 50.9735 65.8376 50.1354 66.9739C49.3021 68.115 48.3149 69.1022 47.1738 69.9356C46.0374 70.7736 44.785 71.4223 43.4167 71.8816C42.053 72.3409 40.616 72.5705 39.1056 72.5705ZM39.1056 70.9228C40.4361 70.9228 41.7003 70.7192 42.8982 70.312C44.1008 69.9095 45.2017 69.339 46.2007 68.6003C47.2045 67.8664 48.0734 67 48.8073 66.0009C49.5459 64.9971 50.1165 63.8963 50.5189 62.6984C50.9214 61.4957 51.1226 60.2315 51.1226 58.9057C51.1226 57.5752 50.9214 56.311 50.5189 55.1131C50.1165 53.9105 49.5459 52.8096 48.8073 51.8106C48.0734 50.8068 47.2045 49.9379 46.2007 49.204C45.2017 48.4654 44.1008 47.8948 42.8982 47.4924C41.7003 47.0899 40.4361 46.8887 39.1056 46.8887C37.7751 46.8887 36.5085 47.0899 35.3059 47.4924C34.1079 47.8948 33.0071 48.4654 32.0033 49.204C31.0043 49.9379 30.1354 50.8068 29.3968 51.8106C28.6629 52.8096 28.0947 53.9105 27.6922 55.1131C27.2898 56.311 27.0885 57.5752 27.0885 58.9057C27.0885 60.2315 27.2898 61.4957 27.6922 62.6984C28.0947 63.8963 28.6629 64.9971 29.3968 66.0009C30.1354 67 31.0043 67.8664 32.0033 68.6003C33.0071 69.339 34.1079 69.9095 35.3059 70.312C36.5085 70.7192 37.7751 70.9228 39.1056 70.9228ZM59.3865 50.7985C59.3598 51.0251 59.3332 51.2851 59.3065 51.5785C59.2798 51.8585 59.2665 52.1385 59.2665 52.4185C59.2665 52.5918 59.2665 52.9385 59.2665 53.4585C59.2665 53.9651 59.2665 54.5785 59.2665 55.2985C59.2665 56.0051 59.2665 56.7585 59.2665 57.5585C59.2665 58.3451 59.2665 59.1051 59.2665 59.8385C59.2665 60.5718 59.2665 61.2185 59.2665 61.7785C59.2665 62.3251 59.2665 62.7251 59.2665 62.9785C59.2665 63.4851 59.3798 63.8385 59.6065 64.0385C59.8332 64.2251 60.1865 64.3651 60.6665 64.4585C60.9865 64.5118 61.3865 64.5518 61.8665 64.5785C62.3465 64.6051 62.8332 64.6185 63.3265 64.6185C63.8465 64.6185 64.4132 64.6051 65.0265 64.5785C65.6532 64.5518 66.2798 64.5118 66.9065 64.4585C67.5332 64.4051 68.1265 64.3385 68.6865 64.2585C69.2598 64.1785 69.7532 64.0851 70.1665 63.9785V65.7985C69.5932 65.8918 68.8998 65.9718 68.0865 66.0385C67.2865 66.0918 66.4598 66.1385 65.6065 66.1785C64.7532 66.2051 63.9665 66.2185 63.2465 66.2185C62.6465 66.2185 62.0665 66.2051 61.5065 66.1785C60.9465 66.1385 60.4532 66.0851 60.0265 66.0185C59.2665 65.8851 58.6798 65.6251 58.2665 65.2385C57.8532 64.8385 57.6465 64.2318 57.6465 63.4185C57.6465 63.0985 57.6465 62.6385 57.6465 62.0385C57.6465 61.4251 57.6465 60.7318 57.6465 59.9585C57.6465 59.1851 57.6465 58.3985 57.6465 57.5985C57.6465 56.7851 57.6465 56.0185 57.6465 55.2985C57.6465 54.5785 57.6465 53.9651 57.6465 53.4585C57.6465 52.9385 57.6465 52.5918 57.6465 52.4185C57.6465 52.2318 57.6398 52.0451 57.6265 51.8585C57.6132 51.6585 57.5998 51.4651 57.5865 51.2785C57.5732 51.0918 57.5532 50.9318 57.5265 50.7985H59.3865ZM58.5465 57.0985C59.1465 56.9651 59.8132 56.7985 60.5465 56.5985C61.2932 56.3985 62.0598 56.1785 62.8465 55.9385C63.6332 55.6985 64.3932 55.4518 65.1265 55.1985C65.8732 54.9318 66.5332 54.6718 67.1065 54.4185C67.4132 54.2851 67.7065 54.1451 67.9865 53.9985C68.2798 53.8518 68.5732 53.6851 68.8665 53.4985L69.5665 55.1185C69.2865 55.2251 68.9732 55.3518 68.6265 55.4985C68.2932 55.6451 67.9732 55.7785 67.6665 55.8985C67.0532 56.1518 66.3465 56.4185 65.5465 56.6985C64.7598 56.9651 63.9465 57.2318 63.1065 57.4985C62.2665 57.7518 61.4532 57.9918 60.6665 58.2185C59.8798 58.4318 59.1732 58.6118 58.5465 58.7585V57.0985ZM77.5465 51.5185C77.9065 51.7585 78.3198 52.0585 78.7865 52.4185C79.2532 52.7651 79.7265 53.1385 80.2065 53.5385C80.6998 53.9251 81.1598 54.3051 81.5865 54.6785C82.0132 55.0518 82.3665 55.3785 82.6465 55.6585L81.3865 56.9185C81.1332 56.6651 80.8065 56.3518 80.4065 55.9785C80.0065 55.6051 79.5665 55.2185 79.0865 54.8185C78.6065 54.4051 78.1332 54.0185 77.6665 53.6585C77.1998 53.2851 76.7798 52.9785 76.4065 52.7385L77.5465 51.5185ZM75.8265 64.9185C76.9998 64.7451 78.0665 64.5051 79.0265 64.1985C79.9998 63.8918 80.8865 63.5451 81.6865 63.1585C82.4865 62.7718 83.1998 62.3851 83.8265 61.9985C84.8532 61.3585 85.7998 60.6251 86.6665 59.7985C87.5332 58.9585 88.2932 58.0918 88.9465 57.1985C89.5998 56.3051 90.1198 55.4518 90.5065 54.6385L91.4665 56.3385C91.0132 57.1651 90.4532 58.0051 89.7865 58.8585C89.1198 59.7118 88.3665 60.5318 87.5265 61.3185C86.6865 62.1051 85.7598 62.8185 84.7465 63.4585C84.0798 63.8718 83.3465 64.2785 82.5465 64.6785C81.7598 65.0785 80.8932 65.4451 79.9465 65.7785C79.0132 66.0985 77.9932 66.3585 76.8865 66.5585L75.8265 64.9185ZM99.7465 64.4185C99.7465 64.2318 99.7465 63.8585 99.7465 63.2985C99.7465 62.7251 99.7465 62.0518 99.7465 61.2785C99.7465 60.4918 99.7465 59.6718 99.7465 58.8185C99.7465 57.9518 99.7465 57.1118 99.7465 56.2985C99.7465 55.4851 99.7465 54.7651 99.7465 54.1385C99.7465 53.5118 99.7465 53.0585 99.7465 52.7785C99.7465 52.4985 99.7332 52.1585 99.7065 51.7585C99.6798 51.3585 99.6398 51.0051 99.5865 50.6985H101.547C101.52 50.9918 101.487 51.3385 101.447 51.7385C101.42 52.1385 101.407 52.4851 101.407 52.7785C101.407 53.2985 101.407 53.9251 101.407 54.6585C101.407 55.3785 101.407 56.1518 101.407 56.9785C101.407 57.7918 101.407 58.6051 101.407 59.4185C101.42 60.2185 101.427 60.9718 101.427 61.6785C101.427 62.3718 101.427 62.9651 101.427 63.4585C101.427 63.9385 101.427 64.2585 101.427 64.4185C101.427 64.6318 101.427 64.8785 101.427 65.1585C101.44 65.4385 101.46 65.7251 101.487 66.0185C101.513 66.2985 101.533 66.5518 101.547 66.7785H99.6065C99.6598 66.4585 99.6932 66.0785 99.7065 65.6385C99.7332 65.1985 99.7465 64.7918 99.7465 64.4185ZM101.067 55.9385C101.72 56.1385 102.44 56.3785 103.227 56.6585C104.027 56.9251 104.84 57.2118 105.667 57.5185C106.493 57.8251 107.273 58.1385 108.007 58.4585C108.753 58.7651 109.4 59.0585 109.947 59.3385L109.267 61.0385C108.693 60.7185 108.047 60.4051 107.327 60.0985C106.607 59.7785 105.867 59.4651 105.107 59.1585C104.36 58.8518 103.633 58.5785 102.927 58.3385C102.233 58.0851 101.613 57.8785 101.067 57.7185V55.9385ZM119.427 66.3773C118.489 66.3773 117.654 66.2163 116.92 65.8944C116.191 65.5724 115.611 65.125 115.18 64.552C114.754 63.9744 114.522 63.3044 114.484 62.5421H116.274C116.311 63.0109 116.472 63.4157 116.757 63.7566C117.041 64.0928 117.412 64.3532 117.872 64.5378C118.331 64.7225 118.84 64.8148 119.399 64.8148C120.024 64.8148 120.578 64.7059 121.06 64.4881C121.543 64.2703 121.922 63.9673 122.197 63.579C122.471 63.1908 122.609 62.741 122.609 62.2296C122.609 61.6946 122.476 61.2234 122.211 60.8163C121.946 60.4043 121.558 60.0823 121.046 59.8503C120.535 59.6183 119.91 59.5023 119.171 59.5023H118.007V57.9398H119.171C119.749 57.9398 120.256 57.8357 120.691 57.6273C121.132 57.419 121.475 57.1254 121.721 56.7466C121.972 56.3679 122.097 55.9228 122.097 55.4114C122.097 54.919 121.989 54.4905 121.771 54.1259C121.553 53.7613 121.245 53.4772 120.847 53.2736C120.454 53.07 119.99 52.9682 119.455 52.9682C118.953 52.9682 118.48 53.0606 118.035 53.2452C117.595 53.4252 117.235 53.6879 116.955 54.0336C116.676 54.3745 116.524 54.7864 116.501 55.2694H114.796C114.825 54.5071 115.054 53.8395 115.485 53.2665C115.916 52.6889 116.48 52.2391 117.176 51.9171C117.876 51.5951 118.646 51.4341 119.484 51.4341C120.383 51.4341 121.155 51.6164 121.799 51.981C122.443 52.3409 122.938 52.8167 123.283 53.4086C123.629 54.0004 123.802 54.6396 123.802 55.3262C123.802 56.1453 123.587 56.8437 123.156 57.4214C122.73 57.999 122.149 58.3991 121.416 58.6216V58.7353C122.334 58.8868 123.051 59.2774 123.568 59.9072C124.084 60.5322 124.342 61.3063 124.342 62.2296C124.342 63.0203 124.126 63.7306 123.695 64.3603C123.269 64.9853 122.687 65.4777 121.948 65.8376C121.21 66.1974 120.369 66.3773 119.427 66.3773Z" fill="black"/>
</svg>
