<svg width="211" height="149" viewBox="0 0 211 149" fill="none" xmlns="http://www.w3.org/2000/svg">
<rect width="210" height="148.5" transform="matrix(-1 0 0 -1 210.65 148.731)" fill="white"/>
<path d="M149.293 39.7619C149.032 39.7619 148.902 39.6864 148.902 39.5354C148.902 39.3843 149.015 39.302 149.241 39.2882L150.415 39.1441C150.763 39.1029 150.998 39.0342 151.12 38.9381C151.242 38.8283 151.303 38.6292 151.303 38.3409V25.9841C151.303 25.7918 151.25 25.6546 151.146 25.5722C151.042 25.4898 150.824 25.4486 150.494 25.4486C149.85 25.4486 149.215 25.6683 148.589 26.1076C147.962 26.547 147.554 27.2541 147.362 28.2289L147.232 28.9085C147.197 29.087 147.075 29.1762 146.866 29.1762C146.606 29.1762 146.492 29.0595 146.527 28.8261L146.762 25.0985C146.797 24.7827 146.953 24.6248 147.232 24.6248C147.354 24.6248 147.467 24.6523 147.571 24.7072C147.675 24.7484 147.849 24.7964 148.093 24.8514C148.354 24.9063 148.763 24.9337 149.319 24.9337H155.138C155.695 24.9337 156.095 24.9063 156.339 24.8514C156.6 24.7964 156.782 24.7484 156.887 24.7072C157.009 24.6523 157.122 24.6248 157.226 24.6248C157.504 24.6248 157.661 24.7827 157.696 25.0985L157.931 28.8261C157.965 29.0595 157.852 29.1762 157.591 29.1762C157.383 29.1762 157.261 29.087 157.226 28.9085L157.096 28.2289C156.922 27.2541 156.521 26.547 155.895 26.1076C155.269 25.6683 154.625 25.4486 153.964 25.4486C153.634 25.4486 153.416 25.4898 153.312 25.5722C153.207 25.6546 153.155 25.7918 153.155 25.9841V38.3409C153.155 38.6292 153.216 38.8283 153.338 38.9381C153.477 39.0342 153.712 39.1029 154.043 39.1441L155.217 39.2882C155.443 39.302 155.556 39.3843 155.556 39.5354C155.556 39.6864 155.426 39.7619 155.165 39.7619H149.293Z" fill="black"/>
<path d="M140.593 39.9473C140.245 39.9473 139.854 39.9198 139.419 39.8649C139.001 39.81 138.601 39.7413 138.218 39.6589C137.853 39.5765 137.566 39.4873 137.357 39.3912C137.235 39.3363 137.14 39.2814 137.07 39.2264C137.018 39.1578 136.992 39.0479 136.992 38.8969L136.861 35.6636C136.861 35.389 136.975 35.2517 137.201 35.2517C137.392 35.2517 137.523 35.3752 137.592 35.6224L137.827 36.405C138.418 38.3683 139.523 39.35 141.141 39.35C142.011 39.35 142.698 39.1235 143.202 38.6704C143.724 38.2036 143.985 37.5514 143.985 36.7139C143.985 35.9038 143.716 35.1487 143.176 34.4485C142.654 33.7483 141.811 33.0549 140.645 32.3684C139.358 31.6407 138.418 30.9405 137.827 30.2678C137.235 29.5813 136.94 28.8536 136.94 28.0847C136.94 27.0687 137.383 26.2587 138.271 25.6545C139.175 25.0367 140.323 24.7278 141.715 24.7278C142.237 24.7278 142.741 24.7758 143.229 24.8719C143.716 24.9681 144.116 25.1054 144.429 25.2838C144.533 25.3388 144.612 25.4005 144.664 25.4692C144.733 25.5378 144.768 25.6271 144.768 25.7369L144.846 28.8467C144.846 29.0801 144.733 29.1968 144.507 29.1968C144.351 29.1968 144.238 29.1007 144.168 28.9085L143.985 28.3936C143.603 27.3364 143.202 26.5676 142.785 26.087C142.385 25.5928 141.802 25.3456 141.037 25.3456C140.289 25.3456 139.688 25.5378 139.236 25.9223C138.801 26.3067 138.584 26.849 138.584 27.5493C138.584 28.1396 138.827 28.7026 139.314 29.238C139.801 29.7735 140.654 30.4256 141.872 31.1945C143.176 32.032 144.124 32.8421 144.716 33.6247C145.325 34.3936 145.629 35.2173 145.629 36.096C145.629 36.8649 145.412 37.5377 144.977 38.1143C144.542 38.691 143.942 39.1441 143.176 39.4736C142.428 39.7894 141.567 39.9473 140.593 39.9473Z" fill="black"/>
<path d="M124.855 39.7619C124.594 39.7619 124.463 39.6864 124.463 39.5353C124.463 39.4118 124.576 39.3294 124.802 39.2882L125.403 39.2058C125.768 39.1509 126.003 39.0754 126.107 38.9793C126.229 38.8832 126.29 38.691 126.29 38.4026V26.293C126.29 26.0046 126.229 25.8124 126.107 25.7163C126.003 25.6202 125.768 25.5447 125.403 25.4898L124.802 25.4074C124.576 25.3662 124.463 25.2838 124.463 25.1603C124.463 25.0092 124.594 24.9337 124.855 24.9337H133.622C134.023 24.9337 134.24 25.0916 134.275 25.4074L134.484 28.8261C134.518 29.0595 134.405 29.1762 134.144 29.1762C133.936 29.1762 133.814 29.087 133.779 28.9085L133.622 28.1465C133.431 27.2129 133.04 26.5332 132.448 26.1076C131.857 25.6683 131.039 25.4486 129.995 25.4486C129.299 25.4486 128.812 25.531 128.534 25.6957C128.273 25.8467 128.143 26.1213 128.143 26.5195V31.4828C128.143 31.675 128.264 31.7711 128.508 31.7711H129.813C130.578 31.7711 131.048 31.4485 131.222 30.8032L131.483 29.7735C131.552 29.5675 131.7 29.4783 131.926 29.5057C132.118 29.5332 132.213 29.6499 132.213 29.8558V34.4896C132.213 34.6956 132.118 34.8123 131.926 34.8398C131.7 34.8672 131.552 34.778 131.483 34.572L131.222 33.5629C131.1 33.0823 130.926 32.7666 130.7 32.6155C130.491 32.4645 130.187 32.389 129.787 32.389H128.508C128.264 32.389 128.143 32.4851 128.143 32.6773V37.8466C128.143 38.3409 128.299 38.6978 128.612 38.9175C128.943 39.1372 129.534 39.247 130.387 39.247C131.257 39.247 131.996 39.0754 132.605 38.7322C133.231 38.3752 133.666 37.7161 133.909 36.7551L134.223 35.54C134.275 35.3615 134.405 35.2722 134.614 35.2722C134.858 35.2722 134.962 35.3889 134.927 35.6224L134.666 39.2882C134.631 39.604 134.414 39.7619 134.014 39.7619H124.855Z" fill="black"/>
<path d="M117.153 39.9472C116.214 39.9472 115.379 39.7756 114.648 39.4324C113.935 39.0754 113.378 38.588 112.978 37.9701C112.578 37.3386 112.378 36.6178 112.378 35.8077V26.293C112.378 26.0046 112.317 25.8124 112.195 25.7163C112.091 25.6202 111.856 25.5447 111.491 25.4898L110.891 25.4074C110.664 25.3662 110.551 25.2838 110.551 25.1603C110.551 25.0092 110.682 24.9337 110.943 24.9337H115.718C115.979 24.9337 116.109 25.0161 116.109 25.1809C116.109 25.3044 116.014 25.3799 115.822 25.4074L115.118 25.4898C114.77 25.531 114.535 25.6065 114.413 25.7163C114.292 25.8262 114.231 26.0252 114.231 26.3136V35.8283C114.231 36.8718 114.526 37.6818 115.118 38.2585C115.709 38.8351 116.536 39.1234 117.597 39.1234C118.675 39.1234 119.51 38.8351 120.102 38.2585C120.693 37.6818 120.989 36.8718 120.989 35.8283V26.7255C120.989 25.984 120.693 25.5722 120.102 25.4898L119.397 25.4074C119.206 25.3799 119.11 25.3044 119.11 25.1809C119.11 25.0161 119.241 24.9337 119.502 24.9337H123.259C123.52 24.9337 123.651 25.0092 123.651 25.1603C123.651 25.2838 123.538 25.3662 123.312 25.4074L122.711 25.4898C122.12 25.5722 121.824 25.9772 121.824 26.7049V35.8077C121.824 37.0571 121.398 38.0594 120.546 38.8145C119.693 39.5697 118.562 39.9472 117.153 39.9472Z" fill="black"/>
<path d="M93.1332 9.776C94.0275 8.76484 95.0997 8.46496 96.0487 8.67461C96.888 8.86008 97.6001 9.43996 97.9631 10.2061C98.7823 9.47524 99.5764 9.27087 100.308 9.45571C100.981 9.62568 101.532 10.1105 101.953 10.6506C103.146 9.42406 104.383 9.1506 105.453 9.4263C106.473 9.6892 107.287 10.4385 107.723 11.1934C108.966 10.9708 109.767 11.201 110.189 11.7661C110.562 12.2665 110.554 12.9269 110.434 13.457C110.962 13.8569 111.307 14.2494 111.492 14.6366C111.702 15.0774 111.696 15.498 111.533 15.8672C111.376 16.2234 111.084 16.5055 110.767 16.7174C110.539 16.869 110.287 16.9914 110.037 17.0847C110.211 17.7112 110.219 18.2488 110.081 18.6992C109.919 19.2268 109.567 19.5972 109.129 19.8325C108.362 20.2452 107.323 20.2517 106.453 20.0301C106.227 20.5703 105.946 20.99 105.604 21.2901C105.203 21.6432 104.737 21.8165 104.23 21.8402C103.298 21.8838 102.248 21.4191 101.177 20.7169C98.7282 22.5996 95.8567 23.0841 93.8183 23.0841C91.952 23.0841 90.3854 23.0936 88.6703 23.0984C86.9344 23.1033 85.0488 23.1035 82.553 23.0841L82.5581 22.4611C85.0511 22.4805 86.9342 22.4804 88.6686 22.4755C89.6686 22.4726 90.6201 22.4683 91.6105 22.4652C91.9896 22.8475 92.5152 23.0844 93.0962 23.0844C93.6918 23.0843 94.2286 22.8351 94.6097 22.4357C96.5198 22.3156 98.922 21.7349 100.967 20.0902L101.146 19.9456L101.337 20.0751C102.456 20.8353 103.43 21.254 104.201 21.218C104.575 21.2005 104.904 21.0765 105.193 20.8223C105.487 20.5638 105.755 20.1561 105.972 19.5477L106.074 19.2621L106.362 19.3563C107.185 19.6253 108.183 19.634 108.834 19.2837C109.149 19.1145 109.378 18.8653 109.486 18.5162C109.595 18.1603 109.589 17.6636 109.355 16.9864L109.247 16.6744L109.565 16.5849C109.857 16.5027 110.163 16.3709 110.421 16.1993C110.681 16.0259 110.87 15.8259 110.963 15.6155C111.05 15.4181 111.064 15.1872 110.929 14.9046C110.789 14.6094 110.481 14.2488 109.9 13.8371L109.718 13.7079L109.781 13.4939C109.93 12.9952 109.935 12.4674 109.69 12.1389C109.466 11.839 108.921 11.5695 107.623 11.848L107.384 11.8993L107.277 11.6793C106.945 10.9928 106.209 10.2643 105.297 10.0294C104.418 9.80281 103.308 10.0197 102.16 11.3457L101.894 11.654L101.666 11.3156C101.255 10.7022 100.735 10.2061 100.156 10.0596C99.6095 9.92167 98.9107 10.0722 98.0644 10.9792L97.6762 11.3953L97.535 10.8439C97.3375 10.0733 96.6953 9.45558 95.9144 9.283C95.1535 9.11486 94.2155 9.36275 93.4085 10.4213L93.1805 10.7208L92.9291 10.4407C92.5753 10.0466 92.0074 9.76668 91.4765 9.83005C90.9807 9.88926 90.4072 10.2645 90.0508 11.4164L89.9902 11.6127L89.7861 11.6341C88.99 11.7181 88.5831 12.0492 88.4496 12.3996C88.3154 12.7521 88.4053 13.2603 88.9011 13.8117L89.0771 14.0073L88.9137 14.2135C88.6217 14.5822 88.3181 15.1322 88.2819 15.6072C88.2646 15.8347 88.3097 16.0249 88.4257 16.1771C88.5431 16.3311 88.7632 16.4859 89.1714 16.5816L89.0291 17.188C88.5268 17.0702 88.1607 16.8568 87.9305 16.555C87.6991 16.2515 87.635 15.8979 87.6607 15.56C87.703 15.004 87.9905 14.4391 88.2739 14.0312C87.81 13.4278 87.6451 12.7622 87.8676 12.1779C88.0972 11.5752 88.6945 11.1752 89.5191 11.0415C89.9325 9.86803 90.6273 9.30416 91.4028 9.2116C92.0497 9.13441 92.6789 9.39723 93.1332 9.776Z" fill="black"/>
<path d="M69.3748 39.5353C69.3748 39.6864 69.5053 39.7619 69.7663 39.7619H75.6376C75.8985 39.7619 76.029 39.6864 76.029 39.5353C76.029 39.3843 75.9159 39.3019 75.6897 39.2882L74.5155 39.144C74.185 39.1029 73.9501 39.0342 73.8109 38.9381C73.6892 38.8283 73.6283 38.6292 73.6283 38.3409V33.3158C73.6283 33.0961 73.6544 32.9039 73.7066 32.7391C73.7587 32.5606 73.8457 32.3753 73.9675 32.183L77.3859 26.7666C77.6816 26.3136 77.9165 25.9909 78.0904 25.7987C79.2598 24.5067 80.9527 23.1589 82.553 23.0841L82.5581 22.4611C78.9664 22.1181 77.4155 25.2753 76.5248 26.746L73.4456 31.7094C73.376 31.8055 73.289 31.8535 73.1847 31.8535C73.0803 31.8535 72.9933 31.8055 72.9237 31.7094L69.7141 26.3136C69.5401 26.0252 69.514 25.8124 69.6358 25.6751C69.7576 25.5378 69.9663 25.4623 70.2621 25.4486L70.7579 25.4074C71.0536 25.3937 71.2015 25.3113 71.2015 25.1603C71.2015 25.0092 71.0797 24.9337 70.8361 24.9337H66.374C66.113 24.9337 65.9825 25.0024 65.9825 25.1397C65.9825 25.277 66.1043 25.3662 66.3479 25.4074L66.5827 25.4486C66.8785 25.5035 67.1046 25.5927 67.2612 25.7163C67.4177 25.8399 67.5569 26.0184 67.6787 26.2518L71.5146 32.5949C71.6886 32.8833 71.7755 33.1785 71.7755 33.4805V38.3409C71.7755 38.6292 71.7147 38.8283 71.5929 38.9381C71.4711 39.0342 71.2363 39.1029 70.8883 39.144L69.7141 39.2882C69.4879 39.3019 69.3748 39.3843 69.3748 39.5353Z" fill="black"/>
<path d="M64.1408 39.9472C63.8625 39.9472 63.6277 39.7825 63.4363 39.453L56.3647 27.3433C56.3125 27.2472 56.2429 27.206 56.1559 27.2197C56.0863 27.2335 56.0515 27.2952 56.0515 27.4051V37.9907C56.0515 38.3752 56.1298 38.6704 56.2864 38.8763C56.4603 39.0685 56.7648 39.1921 57.1997 39.247L57.5389 39.2882C57.7651 39.3019 57.8781 39.3843 57.8781 39.5353C57.8781 39.6864 57.7477 39.7619 57.4867 39.7619H53.7552C53.4942 39.7619 53.3638 39.6864 53.3638 39.5353C53.3638 39.3843 53.4768 39.3019 53.703 39.2882L54.0422 39.247C54.4945 39.1921 54.8077 39.0685 54.9816 38.8763C55.1556 38.6704 55.2426 38.3752 55.2426 37.9907V26.293C55.2426 26.0046 55.1817 25.8124 55.0599 25.7163C54.9555 25.6202 54.7033 25.5447 54.3032 25.4898L53.703 25.4074C53.4768 25.3662 53.3638 25.2838 53.3638 25.1603C53.3638 25.0092 53.4942 24.9337 53.7552 24.9337H56.5473C56.9822 24.9337 57.2867 25.0847 57.4606 25.3868L63.619 36.0754C63.6711 36.1578 63.732 36.1921 63.8016 36.1784C63.8886 36.1647 63.9321 36.1166 63.9321 36.0342V26.7049C63.9321 26.2655 63.8364 25.9635 63.645 25.7987C63.4537 25.6202 63.2101 25.5104 62.9144 25.4692L62.4447 25.4074C62.2185 25.3662 62.1055 25.2838 62.1055 25.1603C62.1055 25.0092 62.2359 24.9337 62.4969 24.9337H66.2284C66.4894 24.9337 66.6198 25.0092 66.6198 25.1603C66.6198 25.3113 66.5068 25.3937 66.2806 25.4074L65.9414 25.4486C65.4891 25.5035 65.1759 25.6202 65.002 25.7987C64.828 25.9635 64.741 26.2655 64.741 26.7049V39.2882C64.741 39.5353 64.6801 39.707 64.5584 39.8031C64.454 39.8992 64.3148 39.9472 64.1408 39.9472Z" fill="black"/>
<path fill-rule="evenodd" clip-rule="evenodd" d="M82.0656 38.9999C83.0398 39.6315 84.2315 39.9473 85.6406 39.9473C86.3538 39.9473 86.9801 39.8923 87.5194 39.7825C88.0587 39.6864 88.5371 39.556 88.9546 39.3912C89.2155 39.2814 89.3982 39.1852 89.5026 39.1029C89.607 39.0068 89.6591 38.8832 89.6591 38.7322V33.151C89.6591 32.8627 89.6939 32.6567 89.7635 32.5332C89.435 32.5332 88.891 32.4222 88.3732 32.3166C88.0898 32.2588 87.8144 32.2026 87.5864 32.1671C86.8397 32.0507 86.5276 32.1101 86.9192 32.3272C87.2845 32.3547 87.5194 32.4233 87.6238 32.5332C87.7455 32.643 87.8064 32.8421 87.8064 33.1304V37.6406C87.8064 38.3134 87.6238 38.7734 87.2584 39.0205C86.8931 39.2676 86.3538 39.3912 85.6406 39.3912C84.3184 39.3912 83.2312 38.7871 82.3787 37.5789C81.5437 36.3569 81.1262 34.5858 81.1262 32.2654C81.1262 30.0138 81.535 28.2975 82.3526 27.1168C83.1877 25.9223 84.2402 25.325 85.5101 25.325C86.3625 25.325 87.0323 25.5378 87.5194 25.9635C88.0065 26.3891 88.4414 27.1717 88.8241 28.3113L89.0329 28.9291C89.0851 29.1076 89.2068 29.1968 89.3982 29.1968C89.607 29.1968 89.7113 29.0801 89.7113 28.8467L89.633 25.7163C89.633 25.5241 89.52 25.3799 89.2938 25.2838C88.8763 25.1191 88.3892 24.9886 87.8325 24.8925C87.2758 24.7827 86.6583 24.7278 85.9798 24.7278C84.6403 24.7278 83.4486 25.0436 82.4048 25.6751C81.3784 26.293 80.5695 27.1717 79.978 28.3113C79.3866 29.4371 79.0908 30.7552 79.0908 32.2654C79.0908 33.8306 79.3431 35.1899 79.8476 36.3432C80.3521 37.4828 81.0914 38.3683 82.0656 38.9999Z" fill="black"/>
<path fill-rule="evenodd" clip-rule="evenodd" d="M100.342 37.8037C100.938 38.7021 101.699 39.2192 102.625 39.355C102.716 39.5667 103.08 40.0051 103.078 40.0735C102.879 40.0069 102.467 39.9458 102.254 39.8876C102.118 39.8502 101.989 39.815 101.882 39.7825C100.977 39.5491 100.16 39.0823 99.4291 38.3821C99.1388 38.0915 98.8731 37.7736 98.6318 37.4285C99.1194 37.5759 100.144 37.8573 100.342 37.8037ZM99.1943 32.3272C99.1943 34.2494 99.4221 35.776 99.8779 36.907C99.7347 36.8986 98.5322 36.4609 97.9489 36.243C97.873 36.0817 97.801 35.916 97.733 35.7459C97.3329 34.7025 97.1328 33.5629 97.1328 32.3272C97.1328 31.2563 97.2807 30.2609 97.5764 29.341C97.8895 28.4211 98.3158 27.6179 98.855 26.9314C99.4117 26.2312 100.055 25.6889 100.786 25.3044C101.517 24.92 102.3 24.7278 103.135 24.7278C103.97 24.7278 104.744 24.92 105.457 25.3044C106.188 25.6889 106.831 26.2312 107.388 26.9314C107.945 27.6179 108.371 28.4211 108.667 29.341C108.98 30.2609 109.136 31.2563 109.136 32.3272C109.136 33.5904 108.919 34.7574 108.484 35.8283C108.066 36.8855 107.484 37.7642 106.736 38.4644C106.145 39.0305 105.486 39.435 104.759 39.678C104.618 39.5445 104.331 39.2589 104.31 39.1854C105 38.9225 105.574 38.4076 106.031 37.6406C106.727 36.4736 107.075 34.7025 107.075 32.3272C107.075 29.952 106.727 28.1877 106.031 27.0344C105.335 25.8674 104.37 25.2838 103.135 25.2838C101.917 25.2838 100.951 25.8674 100.238 27.0344C99.5422 28.1877 99.1943 29.952 99.1943 32.3272Z" fill="black"/>
<path d="M84.5915 33.151C85.0245 32.6842 86.3889 31.7283 88.1044 31.926C90.2488 32.1732 95.7633 35.7305 97.4747 36.685C97.7139 36.8183 98.031 36.9529 98.4005 37.0772C98.9098 37.2486 99.5185 37.4007 100.159 37.5036C100.656 37.5834 101.172 37.6337 101.676 37.6406C101.738 37.6415 101.8 37.6419 101.861 37.6418C101.774 37.5386 101.684 37.4349 101.592 37.3302C101.026 37.3322 100.485 37.2617 99.9828 37.1516C99.2535 36.9917 98.6069 36.7484 98.0868 36.523C97.8568 36.4233 97.6515 36.327 97.4747 36.243C96.1455 35.6115 90.9659 32.1556 88.6344 31.7712C86.7692 31.4636 84.9621 32.5103 84.5915 33.151Z" fill="black"/>
<path d="M102.536 37.6183C102.455 37.5153 102.369 37.4053 102.279 37.2913C102.047 37.3171 101.818 37.3294 101.592 37.3302C101.684 37.4349 101.774 37.5386 101.861 37.6418C102.095 37.6413 102.32 37.6336 102.536 37.6183Z" fill="black"/>
<path d="M103.949 39.2975C103.692 39.36 103.42 39.3912 103.135 39.3912C103.097 39.3912 103.059 39.3906 103.022 39.3895C103.084 39.5536 103.134 39.5766 103.27 39.8109C103.406 40.0452 103.838 40.6076 104.014 40.9903C104.358 41.7372 104.799 42.2892 105.338 42.6464C105.877 43.0035 106.448 43.2239 107.049 43.3075C107.671 43.4022 108.239 43.4138 108.753 43.3423C109.352 43.2588 109.836 43.1288 110.202 42.9523C110.589 42.7869 110.902 42.604 111.14 42.4036C111.256 42.2899 111.303 42.1857 111.282 42.0911C111.258 41.9829 111.183 41.9236 111.057 41.9133C110.931 41.9029 110.807 41.9411 110.685 42.0278C110.211 42.3586 109.76 42.5096 109.203 42.6313C108.606 42.7618 108.173 42.8764 107.323 42.6313C106.473 42.3861 106.106 42.0647 105.623 41.3234C105.217 40.7018 104.569 39.9669 103.949 39.2975Z" fill="black"/>
<path fill-rule="evenodd" clip-rule="evenodd" d="M106.752 32.111C107.147 33.2009 107.109 34.1679 106.151 35.6746C106.05 35.8334 105.925 35.9852 105.795 36.1212C105.565 36.3624 105.32 36.5539 105.17 36.6464C104.644 36.9708 104.475 37.0522 104.143 37.194C103.519 37.461 102.951 37.5888 102.536 37.6183C102.455 37.5153 102.369 37.4053 102.279 37.2913C102.561 37.26 102.846 37.2088 103.135 37.1341C103.645 37.0018 104.257 36.6634 104.644 36.3955C104.918 36.2058 105.197 35.8578 105.218 35.8283C105.914 34.8773 106.333 33.8635 106.124 32.9295C106.055 32.623 105.781 32.2164 105.346 32.1645C104.858 32.1064 104.085 32.3558 103.437 33.1304C102.848 32.1671 101.882 31.7044 100.905 31.9977C100.675 32.0666 100.348 32.5148 100.238 32.9952C100.11 33.5578 100.222 34.6031 100.905 35.62C101.054 35.8422 101.33 36.1633 101.622 36.5039C101.811 36.7238 102.007 36.9519 102.18 37.1666C102.141 37.1786 101.693 37.1918 101.475 37.1969C101.426 37.1421 101.375 37.085 101.322 37.0264C101.061 36.7338 100.765 36.4027 100.543 36.1212C100.502 36.0695 100.462 36.0187 100.422 35.9687C99.7305 35.0994 99.2071 34.4413 99.4291 32.5999C99.5285 31.7763 100.177 31.2642 100.967 31.1505C101.927 31.0121 103.062 31.4531 103.54 32.5332C103.819 31.912 104.645 31.3295 105.482 31.3384C105.946 31.3433 106.576 31.6239 106.752 32.111Z" fill="black"/>
<path fill-rule="evenodd" clip-rule="evenodd" d="M103.949 39.2975C103.692 39.36 103.42 39.3912 103.135 39.3912C103.097 39.3912 103.059 39.3906 103.022 39.3895C102.901 39.0718 102.779 38.8972 102.55 38.5716C102.483 38.4748 102.406 38.3646 102.316 38.2334C102.219 38.0898 102.11 37.947 101.994 37.8037C102.193 37.7957 102.602 37.7754 102.647 37.7584C102.719 37.8505 102.786 37.9347 102.844 38.0083C102.919 38.1028 102.98 38.1798 103.022 38.2334C103.368 38.6745 103.693 39.023 103.882 39.2261C103.907 39.2524 103.929 39.2762 103.949 39.2975Z" fill="black"/>
<circle cx="90.6826" cy="24.4888" r="1" stroke="black" stroke-width="0.505019"/>
<circle cx="90.6826" cy="24.4888" r="1" stroke="black" stroke-width="0.505019"/>
<path d="M94.4526 20.992C94.4526 20.2429 93.8454 19.6355 93.0963 19.6355C92.3471 19.6355 91.7397 20.2429 91.7397 20.992C91.7398 21.7412 92.3471 22.3483 93.0963 22.3483V22.8632L93 22.8609C92.0431 22.8125 91.2759 22.0452 91.2274 21.0883L91.2249 20.992C91.2249 19.9585 92.0628 19.1206 93.0963 19.1206L93.1926 19.1231C94.1813 19.1733 94.9674 19.9908 94.9674 20.992L94.9652 21.0883C94.915 22.077 94.0974 22.8632 93.0963 22.8632V22.3483C93.8454 22.3483 94.4525 21.7411 94.4526 20.992Z" fill="black"/>
<path d="M94.4526 20.992C94.4526 20.2429 93.8454 19.6355 93.0963 19.6355C92.3471 19.6355 91.7397 20.2429 91.7397 20.992C91.7398 21.7412 92.3471 22.3483 93.0963 22.3483V22.8632L93 22.8609C92.0431 22.8125 91.2759 22.0452 91.2274 21.0883L91.2249 20.992C91.2249 19.9585 92.0628 19.1206 93.0963 19.1206L93.1926 19.1231C94.1813 19.1733 94.9674 19.9908 94.9674 20.992L94.9652 21.0883C94.915 22.077 94.0974 22.8632 93.0963 22.8632V22.3483C93.8454 22.3483 94.4525 21.7411 94.4526 20.992Z" fill="black"/>
<path d="M64.6612 46.2684C64.8345 46.4951 65.0212 46.7751 65.2212 47.1084C65.4212 47.4284 65.6145 47.7551 65.8012 48.0884C65.9879 48.4218 66.1545 48.7284 66.3012 49.0084L65.2212 49.4884C65.0212 49.0884 64.7679 48.6218 64.4612 48.0884C64.1545 47.5551 63.8679 47.1018 63.6012 46.7284L64.6612 46.2684ZM66.8612 45.4684C67.0345 45.7084 67.2212 45.9951 67.4212 46.3284C67.6345 46.6618 67.8412 46.9951 68.0412 47.3284C68.2412 47.6484 68.4079 47.9351 68.5412 48.1884L67.4612 48.6684C67.2479 48.2284 66.9879 47.7551 66.6812 47.2484C66.3745 46.7284 66.0812 46.2818 65.8012 45.9084L66.8612 45.4684ZM57.0212 53.6884C57.6745 54.0618 58.3479 54.4751 59.0412 54.9284C59.7479 55.3818 60.4545 55.8551 61.1612 56.3484C61.8679 56.8418 62.5345 57.3218 63.1612 57.7884C63.8012 58.2551 64.3679 58.6884 64.8612 59.0884L63.6812 60.4684C63.2279 60.0551 62.6879 59.6018 62.0612 59.1084C61.4345 58.6018 60.7612 58.0951 60.0412 57.5884C59.3345 57.0684 58.6279 56.5751 57.9212 56.1084C57.2145 55.6284 56.5545 55.1951 55.9412 54.8084L57.0212 53.6884ZM66.1812 50.0484C66.0879 50.1818 66.0012 50.3551 65.9212 50.5684C65.8412 50.7684 65.7745 50.9484 65.7212 51.1084C65.5212 51.7884 65.2479 52.5218 64.9012 53.3084C64.5679 54.0951 64.1612 54.8884 63.6812 55.6884C63.2145 56.4884 62.6879 57.2484 62.1012 57.9684C61.1945 59.0884 60.0679 60.1551 58.7212 61.1684C57.3879 62.1818 55.7745 63.0418 53.8812 63.7484L52.4412 62.4884C53.6945 62.1151 54.8279 61.6418 55.8412 61.0684C56.8545 60.4951 57.7679 59.8684 58.5812 59.1884C59.3945 58.5084 60.1012 57.8151 60.7012 57.1084C61.2212 56.4818 61.6945 55.8084 62.1212 55.0884C62.5612 54.3551 62.9412 53.6218 63.2612 52.8884C63.5812 52.1551 63.8145 51.4818 63.9612 50.8684H56.5412L57.2012 49.4284H63.5412C63.8079 49.4284 64.0545 49.4151 64.2812 49.3884C64.5079 49.3484 64.7012 49.3018 64.8612 49.2484L66.1812 50.0484ZM59.4412 47.1484C59.2679 47.4151 59.1012 47.7018 58.9412 48.0084C58.7812 48.3018 58.6479 48.5418 58.5412 48.7284C58.1412 49.4484 57.6279 50.2484 57.0012 51.1284C56.3745 52.0084 55.6345 52.8818 54.7812 53.7484C53.9279 54.6151 52.9679 55.4151 51.9012 56.1484L50.5612 55.1284C51.7079 54.4084 52.7012 53.6284 53.5412 52.7884C54.3945 51.9351 55.1012 51.1018 55.6612 50.2884C56.2345 49.4751 56.6745 48.7618 56.9812 48.1484C57.0879 47.9751 57.2079 47.7351 57.3412 47.4284C57.4745 47.1218 57.5679 46.8351 57.6212 46.5684L59.4412 47.1484ZM71.0812 55.1684C72.8145 54.7018 74.4279 54.1351 75.9212 53.4684C77.4145 52.8018 78.7145 52.1218 79.8212 51.4284C80.5145 50.9884 81.1879 50.5151 81.8412 50.0084C82.5079 49.4884 83.1345 48.9484 83.7212 48.3884C84.3079 47.8284 84.8279 47.2751 85.2812 46.7284L86.6212 47.9684C86.0612 48.5684 85.4545 49.1551 84.8012 49.7284C84.1479 50.3018 83.4545 50.8551 82.7212 51.3884C82.0012 51.9084 81.2479 52.4151 80.4612 52.9084C79.7279 53.3484 78.9012 53.8018 77.9812 54.2684C77.0612 54.7351 76.0812 55.1751 75.0412 55.5884C74.0012 56.0018 72.9479 56.3818 71.8812 56.7284L71.0812 55.1684ZM79.5012 52.2684L81.2212 51.7484V60.8684C81.2212 61.1218 81.2212 61.3884 81.2212 61.6684C81.2345 61.9484 81.2479 62.2084 81.2612 62.4484C81.2879 62.6884 81.3145 62.8751 81.3412 63.0084H79.3812C79.3945 62.8751 79.4079 62.6884 79.4212 62.4484C79.4479 62.2084 79.4679 61.9484 79.4812 61.6684C79.4945 61.3884 79.5012 61.1218 79.5012 60.8684V52.2684ZM95.5157 46.5084C95.5424 46.7218 95.5824 46.9551 95.6357 47.2084C95.7024 47.4618 95.7757 47.7418 95.8557 48.0484C96.0024 48.5818 96.1824 49.2351 96.3957 50.0084C96.6091 50.7818 96.8357 51.6218 97.0757 52.5284C97.3291 53.4218 97.5824 54.3218 97.8357 55.2284C98.1024 56.1351 98.3424 56.9951 98.5557 57.8084C98.7824 58.6218 98.9824 59.3351 99.1557 59.9484C99.3291 60.5484 99.4557 60.9884 99.5357 61.2684C99.5757 61.4018 99.6224 61.5618 99.6757 61.7484C99.7424 61.9351 99.8091 62.1284 99.8757 62.3284C99.9424 62.5151 100.002 62.6818 100.056 62.8284L98.1957 63.2684C98.1557 63.0418 98.1024 62.7751 98.0357 62.4684C97.9824 62.1751 97.9157 61.8951 97.8357 61.6284C97.7691 61.3884 97.6624 61.0018 97.5157 60.4684C97.3691 59.9351 97.1957 59.3018 96.9957 58.5684C96.8091 57.8351 96.6024 57.0551 96.3757 56.2284C96.1491 55.4018 95.9224 54.5818 95.6957 53.7684C95.4824 52.9418 95.2757 52.1684 95.0757 51.4484C94.8757 50.7151 94.7024 50.0884 94.5557 49.5684C94.4091 49.0351 94.3024 48.6618 94.2357 48.4484C94.1291 48.0751 94.0291 47.7751 93.9357 47.5484C93.8424 47.3084 93.7557 47.1084 93.6757 46.9484L95.5157 46.5084ZM107.076 49.7684C106.836 50.2751 106.516 50.8418 106.116 51.4684C105.729 52.0818 105.296 52.7084 104.816 53.3484C104.336 53.9884 103.849 54.6018 103.356 55.1884C102.876 55.7618 102.429 56.2484 102.016 56.6484L100.396 55.8684C100.809 55.5484 101.229 55.1684 101.656 54.7284C102.082 54.2884 102.489 53.8284 102.876 53.3484C103.276 52.8684 103.629 52.4084 103.936 51.9684C104.256 51.5284 104.509 51.1484 104.696 50.8284C104.536 50.8551 104.189 50.9218 103.656 51.0284C103.136 51.1218 102.482 51.2484 101.696 51.4084C100.922 51.5684 100.082 51.7418 99.1757 51.9284C98.2691 52.1018 97.3557 52.2818 96.4357 52.4684C95.5291 52.6418 94.6691 52.8151 93.8557 52.9884C93.0424 53.1484 92.3357 53.2951 91.7357 53.4284C91.1491 53.5484 90.7291 53.6351 90.4757 53.6884L90.0357 51.9884C90.3824 51.9618 90.7091 51.9284 91.0157 51.8884C91.3357 51.8484 91.6757 51.8018 92.0357 51.7484C92.1957 51.7218 92.5291 51.6618 93.0357 51.5684C93.5557 51.4751 94.1757 51.3618 94.8957 51.2284C95.6291 51.0818 96.4091 50.9284 97.2357 50.7684C98.0757 50.6084 98.9157 50.4484 99.7557 50.2884C100.596 50.1284 101.382 49.9818 102.116 49.8484C102.862 49.7018 103.496 49.5751 104.016 49.4684C104.536 49.3618 104.882 49.2884 105.056 49.2484C105.216 49.2218 105.376 49.1884 105.536 49.1484C105.696 49.0951 105.836 49.0351 105.956 48.9684L107.076 49.7684ZM110.972 55.3714V53.8373H119.722V55.3714H110.972ZM110.972 59.5759V58.0418H119.722V59.5759H110.972ZM128.859 54.8684L130.179 55.1684C129.939 55.9551 129.599 56.7084 129.159 57.4284C128.733 58.1351 128.199 58.7151 127.559 59.1684L126.399 58.4284C126.973 58.0684 127.473 57.5684 127.899 56.9284C128.326 56.2884 128.646 55.6018 128.859 54.8684ZM138.339 54.7884L139.819 55.2884C139.406 55.9151 138.959 56.5551 138.479 57.2084C138.013 57.8484 137.573 58.4018 137.159 58.8684L135.939 58.3684C136.206 58.0484 136.486 57.6818 136.779 57.2684C137.086 56.8418 137.373 56.4151 137.639 55.9884C137.919 55.5484 138.153 55.1484 138.339 54.7884ZM125.159 51.9684H140.739V53.3484H125.159V51.9684ZM132.359 53.6084H133.879C133.826 54.7284 133.726 55.7618 133.579 56.7084C133.446 57.6418 133.233 58.4951 132.939 59.2684C132.646 60.0418 132.233 60.7284 131.699 61.3284C131.166 61.9284 130.473 62.4484 129.619 62.8884C128.779 63.3418 127.739 63.7218 126.499 64.0284C126.459 63.8951 126.386 63.7484 126.279 63.5884C126.186 63.4418 126.086 63.2884 125.979 63.1284C125.873 62.9818 125.766 62.8618 125.659 62.7684C126.833 62.5151 127.806 62.1951 128.579 61.8084C129.366 61.4218 129.999 60.9684 130.479 60.4484C130.959 59.9151 131.326 59.3151 131.579 58.6484C131.833 57.9684 132.013 57.2151 132.119 56.3884C132.239 55.5484 132.319 54.6218 132.359 53.6084ZM133.799 54.5284C133.853 55.2484 133.939 55.9484 134.059 56.6284C134.193 57.3084 134.399 57.9551 134.679 58.5684C134.959 59.1818 135.359 59.7484 135.879 60.2684C136.413 60.7751 137.099 61.2284 137.939 61.6284C138.779 62.0151 139.826 62.3351 141.079 62.5884C140.973 62.6951 140.859 62.8351 140.739 63.0084C140.619 63.1818 140.513 63.3551 140.419 63.5284C140.326 63.7018 140.253 63.8551 140.199 63.9884C138.893 63.7084 137.799 63.3351 136.919 62.8684C136.039 62.4018 135.326 61.8618 134.779 61.2484C134.233 60.6351 133.806 59.9751 133.499 59.2684C133.206 58.5484 132.986 57.8018 132.839 57.0284C132.693 56.2418 132.579 55.4418 132.499 54.6284L133.799 54.5284ZM124.439 51.9684H125.919V55.8084C125.919 56.3951 125.886 57.0418 125.819 57.7484C125.766 58.4551 125.666 59.1751 125.519 59.9084C125.373 60.6284 125.153 61.3284 124.859 62.0084C124.579 62.6884 124.213 63.3151 123.759 63.8884C123.693 63.7951 123.579 63.6818 123.419 63.5484C123.273 63.4151 123.119 63.2884 122.959 63.1684C122.813 63.0484 122.686 62.9551 122.579 62.8884C123.126 62.1951 123.533 61.4351 123.799 60.6084C124.066 59.7818 124.239 58.9484 124.319 58.1084C124.399 57.2684 124.439 56.4951 124.439 55.7884V51.9684ZM124.419 46.3084H125.939V49.0684H138.119V46.3084H139.679V50.4284H124.419V46.3084ZM131.139 45.5684H132.679V49.7284H131.139V45.5684ZM151.159 58.5284H152.639V63.9684H151.159V58.5284ZM150.199 52.3884L151.559 53.0484C151.013 53.5551 150.419 54.0684 149.779 54.5884C149.153 55.1084 148.573 55.5418 148.039 55.8884L146.979 55.3084C147.339 55.0551 147.713 54.7618 148.099 54.4284C148.499 54.0818 148.886 53.7284 149.259 53.3684C149.633 53.0084 149.946 52.6818 150.199 52.3884ZM154.279 53.4484L155.619 54.1884C154.939 54.7351 154.186 55.3084 153.359 55.9084C152.546 56.4951 151.719 57.0551 150.879 57.5884C150.053 58.1218 149.266 58.5884 148.519 58.9884L147.539 58.3084C148.273 57.8951 149.053 57.4084 149.879 56.8484C150.706 56.2884 151.506 55.7084 152.279 55.1084C153.053 54.5084 153.719 53.9551 154.279 53.4484ZM145.019 55.2884L145.999 54.4284C146.506 54.6551 147.039 54.9284 147.599 55.2484C148.159 55.5551 148.693 55.8684 149.199 56.1884C149.706 56.4951 150.126 56.7884 150.459 57.0684L149.399 58.0284C149.093 57.7484 148.693 57.4484 148.199 57.1284C147.706 56.7951 147.179 56.4684 146.619 56.1484C146.073 55.8151 145.539 55.5284 145.019 55.2884ZM154.999 56.5484L156.039 55.7484C156.626 56.0551 157.226 56.4151 157.839 56.8284C158.453 57.2284 159.033 57.6418 159.579 58.0684C160.126 58.4818 160.573 58.8684 160.919 59.2284L159.819 60.1084C159.486 59.7618 159.053 59.3751 158.519 58.9484C157.986 58.5218 157.413 58.1018 156.799 57.6884C156.186 57.2618 155.586 56.8818 154.999 56.5484ZM154.619 60.5684L155.739 59.7684C156.299 60.0218 156.893 60.3151 157.519 60.6484C158.146 60.9818 158.739 61.3218 159.299 61.6684C159.859 62.0151 160.326 62.3418 160.699 62.6484L159.519 63.5484C159.173 63.2551 158.726 62.9284 158.179 62.5684C157.633 62.2084 157.046 61.8551 156.419 61.5084C155.793 61.1484 155.193 60.8351 154.619 60.5684ZM143.239 58.1284C144.173 58.1284 145.239 58.1218 146.439 58.1084C147.653 58.0818 148.946 58.0618 150.319 58.0484C151.706 58.0218 153.126 57.9951 154.579 57.9684C156.046 57.9418 157.499 57.9084 158.939 57.8684L158.859 59.0484C157.446 59.0751 156.026 59.1084 154.599 59.1484C153.186 59.1884 151.799 59.2218 150.439 59.2484C149.093 59.2751 147.813 59.3018 146.599 59.3284C145.399 59.3551 144.319 59.3751 143.359 59.3884L143.239 58.1284ZM147.759 59.7884L149.139 60.3084C148.686 60.7351 148.166 61.1551 147.579 61.5684C147.006 61.9818 146.406 62.3684 145.779 62.7284C145.166 63.0884 144.566 63.3951 143.979 63.6484C143.899 63.5551 143.786 63.4418 143.639 63.3084C143.506 63.1884 143.366 63.0618 143.219 62.9284C143.073 62.8084 142.939 62.7084 142.819 62.6284C143.713 62.2818 144.606 61.8618 145.499 61.3684C146.393 60.8618 147.146 60.3351 147.759 59.7884ZM151.159 45.5684H152.659V52.6684H151.159V45.5684ZM144.239 47.0484H159.859V48.2084H144.239V47.0484ZM145.339 49.4884H158.679V50.6284H145.339V49.4884ZM143.179 51.9284H160.759V53.1284H143.179V51.9284ZM69.0738 77.4793V88.3884H67.7528V78.8643H67.6888L65.0255 80.6327V79.2904L67.7528 77.4793H69.0738ZM68.1469 93.1825C67.0141 93.1825 65.9346 93.0102 64.9083 92.6658C63.8856 92.3213 62.9463 91.8348 62.0905 91.2063C61.2382 90.5813 60.4978 89.8408 59.8692 88.985C59.2442 88.1327 58.7595 87.1952 58.4151 86.1725C58.0706 85.1462 57.8984 84.0667 57.8984 82.9339C57.8984 81.8011 58.0706 80.7233 58.4151 79.7006C58.7595 78.6743 59.2442 77.735 59.8692 76.8827C60.4978 76.0269 61.2382 75.2865 62.0905 74.6615C62.9463 74.033 63.8856 73.5465 64.9083 73.202C65.9346 72.8575 67.0141 72.6853 68.1469 72.6853C69.2798 72.6853 70.3575 72.8575 71.3802 73.202C72.4065 73.5465 73.3458 74.033 74.1981 74.6615C75.0539 75.2865 75.7943 76.0269 76.4193 76.8827C77.0479 77.735 77.5344 78.6743 77.8788 79.7006C78.2233 80.7233 78.3955 81.8011 78.3955 82.9339C78.3955 84.0667 78.2233 85.1462 77.8788 86.1725C77.5344 87.1952 77.0479 88.1327 76.4193 88.985C75.7943 89.8408 75.0539 90.5813 74.1981 91.2063C73.3458 91.8348 72.4065 92.3213 71.3802 92.6658C70.3575 93.0102 69.2798 93.1825 68.1469 93.1825ZM68.1469 91.9467C69.1448 91.9467 70.093 91.794 70.9914 91.4886C71.8934 91.1867 72.719 90.7588 73.4683 90.2048C74.2212 89.6544 74.8728 89.0045 75.4232 88.2553C75.9772 87.5024 76.4051 86.6768 76.707 85.7783C77.0088 84.8764 77.1597 83.9282 77.1597 82.9339C77.1597 81.936 77.0088 80.9879 76.707 80.0894C76.4051 79.1874 75.9772 78.3618 75.4232 77.6125C74.8728 76.8597 74.2212 76.208 73.4683 75.6576C72.719 75.1036 71.8934 74.6757 70.9914 74.3739C70.093 74.072 69.1448 73.9211 68.1469 73.9211C67.1491 73.9211 66.1991 74.072 65.2972 74.3739C64.3987 74.6757 63.5731 75.1036 62.8202 75.6576C62.0709 76.208 61.4193 76.8597 60.8653 77.6125C60.3149 78.3618 59.8888 79.1874 59.5869 80.0894C59.2851 80.9879 59.1342 81.936 59.1342 82.9339C59.1342 83.9282 59.2851 84.8764 59.5869 85.7783C59.8888 86.6768 60.3149 87.5024 60.8653 88.2553C61.4193 89.0045 62.0709 89.6544 62.8202 90.2048C63.5731 90.7588 64.3987 91.1867 65.2972 91.4886C66.1991 91.794 67.1491 91.9467 68.1469 91.9467ZM87.0326 78.1434C86.9326 78.9234 86.8026 79.7384 86.6426 80.5884C86.4926 81.4384 86.2976 82.2634 86.0576 83.0634C85.7576 84.0934 85.4226 84.9534 85.0526 85.6434C84.6926 86.3334 84.3026 86.8534 83.8826 87.2034C83.4626 87.5534 83.0226 87.7284 82.5626 87.7284C82.1226 87.7284 81.6976 87.5684 81.2876 87.2484C80.8776 86.9284 80.5426 86.4684 80.2826 85.8684C80.0226 85.2584 79.8926 84.5434 79.8926 83.7234C79.8926 82.9034 80.0576 82.1284 80.3876 81.3984C80.7276 80.6684 81.1926 80.0234 81.7826 79.4634C82.3826 78.8934 83.0826 78.4434 83.8826 78.1134C84.6826 77.7834 85.5376 77.6184 86.4476 77.6184C87.3276 77.6184 88.1176 77.7634 88.8176 78.0534C89.5276 78.3434 90.1326 78.7434 90.6326 79.2534C91.1326 79.7534 91.5176 80.3384 91.7876 81.0084C92.0576 81.6684 92.1926 82.3784 92.1926 83.1384C92.1926 84.1884 91.9676 85.1134 91.5176 85.9134C91.0776 86.7134 90.4376 87.3634 89.5976 87.8634C88.7676 88.3634 87.7576 88.6934 86.5676 88.8534L85.8626 87.7434C86.1026 87.7134 86.3326 87.6834 86.5526 87.6534C86.7726 87.6234 86.9726 87.5884 87.1526 87.5484C87.6326 87.4384 88.0976 87.2684 88.5476 87.0384C89.0076 86.7984 89.4176 86.4984 89.7776 86.1384C90.1376 85.7684 90.4226 85.3334 90.6326 84.8334C90.8526 84.3234 90.9626 83.7434 90.9626 83.0934C90.9626 82.4834 90.8626 81.9184 90.6626 81.3984C90.4626 80.8684 90.1676 80.4034 89.7776 80.0034C89.3876 79.6034 88.9126 79.2884 88.3526 79.0584C87.7926 78.8284 87.1526 78.7134 86.4326 78.7134C85.6126 78.7134 84.8676 78.8634 84.1976 79.1634C83.5376 79.4634 82.9726 79.8584 82.5026 80.3484C82.0426 80.8284 81.6876 81.3584 81.4376 81.9384C81.1876 82.5084 81.0626 83.0684 81.0626 83.6184C81.0626 84.2484 81.1426 84.7684 81.3026 85.1784C81.4726 85.5784 81.6726 85.8734 81.9026 86.0634C82.1426 86.2534 82.3776 86.3484 82.6076 86.3484C82.8476 86.3484 83.0926 86.2334 83.3426 86.0034C83.5926 85.7634 83.8476 85.3834 84.1076 84.8634C84.3676 84.3334 84.6226 83.6484 84.8726 82.8084C85.0926 82.0884 85.2776 81.3234 85.4276 80.5134C85.5876 79.7034 85.7026 78.9084 85.7726 78.1284L87.0326 78.1434ZM94.9526 76.3284H98.3276V77.2284H94.9526V76.3284ZM94.8026 80.3934H98.4476V81.2934H94.8026V80.3934ZM94.8026 82.3884H98.4476V83.2884H94.8026V82.3884ZM94.1726 78.3084H99.1526V79.2684H94.1726V78.3084ZM95.2226 84.3984H98.5226V88.6284H95.2226V87.7284H97.5626V85.2984H95.2226V84.3984ZM94.7126 84.3984H95.6426V89.3634H94.7126V84.3984ZM99.0326 76.5084L99.7976 76.0284C100.078 76.2984 100.353 76.6084 100.623 76.9584C100.903 77.2984 101.108 77.5984 101.238 77.8584L100.428 78.4134C100.308 78.1334 100.113 77.8184 99.8426 77.4684C99.5826 77.1084 99.3126 76.7884 99.0326 76.5084ZM98.9126 79.8384L99.6476 79.3134C99.9576 79.5734 100.268 79.8734 100.578 80.2134C100.888 80.5534 101.113 80.8534 101.253 81.1134L100.488 81.7134C100.338 81.4434 100.113 81.1334 99.8126 80.7834C99.5126 80.4334 99.2126 80.1184 98.9126 79.8384ZM101.133 82.8834V87.3684H100.143V83.8584H98.8376V82.8834H101.133ZM101.133 86.8434C101.373 87.2834 101.723 87.6384 102.183 87.9084C102.643 88.1684 103.173 88.3134 103.773 88.3434C104.033 88.3534 104.348 88.3584 104.718 88.3584C105.098 88.3584 105.493 88.3584 105.903 88.3584C106.323 88.3484 106.728 88.3334 107.118 88.3134C107.508 88.2934 107.853 88.2784 108.153 88.2684C108.113 88.3384 108.068 88.4334 108.018 88.5534C107.968 88.6834 107.928 88.8134 107.898 88.9434C107.868 89.0734 107.843 89.1934 107.823 89.3034C107.553 89.3134 107.238 89.3234 106.878 89.3334C106.528 89.3434 106.158 89.3484 105.768 89.3484C105.388 89.3484 105.018 89.3484 104.658 89.3484C104.308 89.3484 103.998 89.3434 103.728 89.3334C103.038 89.2934 102.443 89.1384 101.943 88.8684C101.443 88.5984 101.023 88.2184 100.683 87.7284C100.433 88.0184 100.173 88.3034 99.9026 88.5834C99.6426 88.8634 99.3626 89.1634 99.0626 89.4834L98.5226 88.4784C98.7926 88.2484 99.0776 87.9934 99.3776 87.7134C99.6876 87.4234 99.9776 87.1334 100.248 86.8434H101.133ZM101.538 80.8884H107.853V81.8934H101.538V80.8884ZM104.178 75.8334H105.168V87.7134H104.178V75.8334ZM101.643 77.0034L102.513 76.7484C102.673 77.0884 102.823 77.4534 102.963 77.8434C103.113 78.2334 103.238 78.6134 103.338 78.9834C103.448 79.3434 103.528 79.6634 103.578 79.9434L102.648 80.2434C102.608 79.9634 102.538 79.6384 102.438 79.2684C102.338 78.8884 102.218 78.5034 102.078 78.1134C101.938 77.7134 101.793 77.3434 101.643 77.0034ZM106.653 76.6584L107.658 76.9734C107.558 77.3334 107.448 77.7134 107.328 78.1134C107.208 78.5134 107.083 78.8984 106.953 79.2684C106.833 79.6384 106.718 79.9684 106.608 80.2584L105.753 79.9734C105.863 79.6834 105.973 79.3434 106.083 78.9534C106.203 78.5634 106.313 78.1684 106.413 77.7684C106.513 77.3584 106.593 76.9884 106.653 76.6584ZM104.028 81.3084L104.763 81.6084C104.573 82.2184 104.333 82.8434 104.043 83.4834C103.753 84.1234 103.428 84.7234 103.068 85.2834C102.718 85.8434 102.353 86.3084 101.973 86.6784C101.923 86.5184 101.843 86.3384 101.733 86.1384C101.633 85.9384 101.538 85.7684 101.448 85.6284C101.788 85.3084 102.123 84.9134 102.453 84.4434C102.783 83.9734 103.088 83.4634 103.368 82.9134C103.648 82.3634 103.868 81.8284 104.028 81.3084ZM105.333 81.3684C105.543 81.8884 105.798 82.4234 106.098 82.9734C106.408 83.5234 106.733 84.0384 107.073 84.5184C107.423 84.9884 107.758 85.3784 108.078 85.6884C107.948 85.7784 107.803 85.9034 107.643 86.0634C107.493 86.2134 107.368 86.3534 107.268 86.4834C106.968 86.1234 106.653 85.6734 106.323 85.1334C105.993 84.5934 105.683 84.0184 105.393 83.4084C105.103 82.7984 104.853 82.2084 104.643 81.6384L105.333 81.3684ZM115.473 76.5234C115.413 76.8234 115.333 77.1784 115.233 77.5884C115.143 77.9884 114.993 78.4434 114.783 78.9534C114.603 79.4034 114.378 79.8684 114.108 80.3484C113.848 80.8284 113.568 81.2634 113.268 81.6534C113.458 81.5334 113.673 81.4334 113.913 81.3534C114.153 81.2634 114.398 81.1984 114.648 81.1584C114.908 81.1184 115.143 81.0984 115.353 81.0984C115.933 81.0984 116.423 81.2634 116.823 81.5934C117.223 81.9134 117.423 82.3834 117.423 83.0034C117.423 83.1934 117.423 83.4384 117.423 83.7384C117.423 84.0284 117.423 84.3384 117.423 84.6684C117.433 84.9884 117.443 85.3034 117.453 85.6134C117.463 85.9234 117.468 86.1934 117.468 86.4234H116.313C116.323 86.2234 116.333 85.9884 116.343 85.7184C116.353 85.4484 116.358 85.1634 116.358 84.8634C116.368 84.5634 116.368 84.2784 116.358 84.0084C116.358 83.7384 116.358 83.5084 116.358 83.3184C116.358 82.8784 116.223 82.5584 115.953 82.3584C115.693 82.1484 115.363 82.0434 114.963 82.0434C114.493 82.0434 114.028 82.1484 113.568 82.3584C113.118 82.5584 112.723 82.8184 112.383 83.1384C112.163 83.3484 111.943 83.5884 111.723 83.8584C111.513 84.1184 111.278 84.3984 111.018 84.6984L109.998 83.9484C110.718 83.2484 111.318 82.5934 111.798 81.9834C112.278 81.3734 112.668 80.8084 112.968 80.2884C113.268 79.7584 113.503 79.2834 113.673 78.8634C113.833 78.4434 113.963 78.0234 114.063 77.6034C114.163 77.1734 114.223 76.7784 114.243 76.4184L115.473 76.5234ZM110.343 78.1434C110.743 78.1934 111.178 78.2334 111.648 78.2634C112.118 78.2934 112.528 78.3084 112.878 78.3084C113.548 78.3084 114.268 78.2934 115.038 78.2634C115.808 78.2234 116.583 78.1684 117.363 78.0984C118.153 78.0284 118.903 77.9284 119.613 77.7984L119.598 78.9084C119.078 78.9984 118.523 79.0734 117.933 79.1334C117.343 79.1834 116.743 79.2284 116.133 79.2684C115.523 79.2984 114.933 79.3234 114.363 79.3434C113.803 79.3534 113.283 79.3584 112.803 79.3584C112.593 79.3584 112.348 79.3584 112.068 79.3584C111.798 79.3484 111.513 79.3384 111.213 79.3284C110.913 79.3084 110.623 79.2884 110.343 79.2684V78.1434ZM121.803 81.7734C121.673 81.8034 121.528 81.8484 121.368 81.9084C121.218 81.9584 121.063 82.0134 120.903 82.0734C120.753 82.1334 120.608 82.1934 120.468 82.2534C119.948 82.4534 119.343 82.6984 118.653 82.9884C117.963 83.2784 117.258 83.6134 116.538 83.9934C116.038 84.2434 115.598 84.5084 115.218 84.7884C114.838 85.0584 114.538 85.3434 114.318 85.6434C114.098 85.9334 113.988 86.2534 113.988 86.6034C113.988 86.8934 114.053 87.1284 114.183 87.3084C114.323 87.4884 114.518 87.6284 114.768 87.7284C115.018 87.8184 115.303 87.8784 115.623 87.9084C115.953 87.9384 116.313 87.9534 116.703 87.9534C117.283 87.9534 117.943 87.9234 118.683 87.8634C119.433 87.7934 120.138 87.7034 120.798 87.5934L120.768 88.7934C120.388 88.8434 119.958 88.8884 119.478 88.9284C119.008 88.9684 118.528 88.9984 118.038 89.0184C117.558 89.0484 117.098 89.0634 116.658 89.0634C115.948 89.0634 115.298 88.9984 114.708 88.8684C114.128 88.7384 113.663 88.5084 113.313 88.1784C112.963 87.8484 112.788 87.3784 112.788 86.7684C112.788 86.3184 112.893 85.9084 113.103 85.5384C113.313 85.1584 113.593 84.8134 113.943 84.5034C114.303 84.1934 114.698 83.9084 115.128 83.6484C115.558 83.3784 115.998 83.1334 116.448 82.9134C116.928 82.6534 117.378 82.4284 117.798 82.2384C118.228 82.0484 118.633 81.8734 119.013 81.7134C119.393 81.5534 119.748 81.3934 120.078 81.2334C120.298 81.1334 120.508 81.0384 120.708 80.9484C120.908 80.8584 121.108 80.7584 121.308 80.6484L121.803 81.7734ZM125.658 79.5984H129.993V80.4684H125.658V79.5984ZM125.658 82.1484H129.993V83.0034H125.658V82.1484ZM125.658 84.7434H129.993V85.6434H125.658V84.7434ZM132.048 82.8834H137.748V83.8734H132.048V82.8834ZM126.438 77.1234H128.913V78.0234H126.438V77.1234ZM131.073 76.5534H136.938V77.4984H131.073V76.5534ZM130.893 85.6884H138.018V86.6934H130.893V85.6884ZM134.073 81.3534H135.138V89.5284H134.073V81.3534ZM127.503 80.0184H128.328V85.1184H127.503V80.0184ZM136.593 76.5534H137.613C137.613 76.5534 137.608 76.6034 137.598 76.7034C137.598 76.8034 137.593 76.8934 137.583 76.9734C137.553 77.8034 137.513 78.4784 137.463 78.9984C137.413 79.5184 137.353 79.9184 137.283 80.1984C137.213 80.4784 137.123 80.6784 137.013 80.7984C136.923 80.9184 136.813 81.0084 136.683 81.0684C136.553 81.1184 136.393 81.1534 136.203 81.1734C136.053 81.1934 135.833 81.2034 135.543 81.2034C135.253 81.1934 134.953 81.1784 134.643 81.1584C134.633 81.0184 134.603 80.8584 134.553 80.6784C134.513 80.4984 134.453 80.3484 134.373 80.2284C134.673 80.2484 134.948 80.2634 135.198 80.2734C135.448 80.2834 135.623 80.2884 135.723 80.2884C135.833 80.2884 135.923 80.2834 135.993 80.2734C136.063 80.2534 136.123 80.2134 136.173 80.1534C136.233 80.0734 136.288 79.9134 136.338 79.6734C136.388 79.4334 136.433 79.0734 136.473 78.5934C136.513 78.1134 136.553 77.4834 136.593 76.7034V76.5534ZM132.108 81.4884L133.083 81.6684C132.923 82.3684 132.718 83.0434 132.468 83.6934C132.218 84.3334 131.933 84.8784 131.613 85.3284C131.553 85.2784 131.468 85.2284 131.358 85.1784C131.248 85.1184 131.138 85.0634 131.028 85.0134C130.918 84.9534 130.818 84.9034 130.728 84.8634C131.058 84.4334 131.338 83.9234 131.568 83.3334C131.798 82.7334 131.978 82.1184 132.108 81.4884ZM126.408 75.7734L127.443 75.9984C127.253 76.6784 127.028 77.3384 126.768 77.9784C126.508 78.6184 126.218 79.2184 125.898 79.7784C125.588 80.3284 125.253 80.8134 124.893 81.2334C124.843 81.1734 124.763 81.1034 124.653 81.0234C124.553 80.9334 124.448 80.8484 124.338 80.7684C124.228 80.6784 124.133 80.6084 124.053 80.5584C124.583 79.9884 125.048 79.2834 125.448 78.4434C125.858 77.5934 126.178 76.7034 126.408 75.7734ZM125.208 79.5984H126.153V83.5884C126.153 84.0384 126.133 84.5284 126.093 85.0584C126.063 85.5884 126.003 86.1234 125.913 86.6634C125.833 87.2034 125.708 87.7284 125.538 88.2384C125.378 88.7384 125.168 89.1984 124.908 89.6184C124.848 89.5584 124.768 89.4934 124.668 89.4234C124.568 89.3634 124.463 89.3034 124.353 89.2434C124.253 89.1834 124.163 89.1384 124.083 89.1084C124.423 88.5684 124.673 87.9834 124.833 87.3534C124.993 86.7134 125.093 86.0684 125.133 85.4184C125.183 84.7584 125.208 84.1484 125.208 83.5884V79.5984ZM129.678 79.5984H130.638V88.3584C130.638 88.6284 130.598 88.8434 130.518 89.0034C130.448 89.1734 130.318 89.3034 130.128 89.3934C129.938 89.4734 129.683 89.5234 129.363 89.5434C129.043 89.5634 128.618 89.5734 128.088 89.5734C128.068 89.4434 128.023 89.2834 127.953 89.0934C127.883 88.9034 127.813 88.7434 127.743 88.6134C128.133 88.6234 128.478 88.6284 128.778 88.6284C129.088 88.6284 129.293 88.6234 129.393 88.6134C129.493 88.6134 129.563 88.5934 129.603 88.5534C129.653 88.5134 129.678 88.4434 129.678 88.3434V79.5984ZM133.218 76.8534H134.253C134.163 77.5434 134.018 78.1884 133.818 78.7884C133.618 79.3884 133.313 79.9284 132.903 80.4084C132.503 80.8784 131.948 81.2684 131.238 81.5784C131.178 81.4584 131.088 81.3234 130.968 81.1734C130.848 81.0234 130.728 80.9034 130.608 80.8134C131.228 80.5534 131.713 80.2234 132.063 79.8234C132.413 79.4134 132.673 78.9584 132.843 78.4584C133.023 77.9484 133.148 77.4134 133.218 76.8534ZM128.643 77.1234H128.868L129.033 77.0784L129.693 77.4984C129.533 77.9684 129.328 78.4584 129.078 78.9684C128.828 79.4684 128.588 79.8934 128.358 80.2434C128.268 80.1734 128.148 80.0984 127.998 80.0184C127.858 79.9284 127.733 79.8584 127.623 79.8084C127.753 79.5884 127.883 79.3334 128.013 79.0434C128.143 78.7434 128.263 78.4434 128.373 78.1434C128.483 77.8334 128.573 77.5584 128.643 77.3184V77.1234ZM149.988 76.6884C149.968 76.8184 149.953 76.9584 149.943 77.1084C149.943 77.2484 149.943 77.4034 149.943 77.5734C149.933 77.6834 149.928 77.8634 149.928 78.1134C149.938 78.3634 149.943 78.6484 149.943 78.9684C149.953 79.2784 149.958 79.5984 149.958 79.9284C149.968 80.2584 149.973 80.5634 149.973 80.8434C149.973 81.1134 149.973 81.3334 149.973 81.5034C149.973 82.3634 149.953 83.1634 149.913 83.9034C149.883 84.6434 149.773 85.3334 149.583 85.9734C149.393 86.6134 149.078 87.2084 148.638 87.7584C148.208 88.2984 147.593 88.8034 146.793 89.2734L145.698 88.4184C145.938 88.3184 146.193 88.1834 146.463 88.0134C146.743 87.8434 146.973 87.6684 147.153 87.4884C147.553 87.1384 147.868 86.7634 148.098 86.3634C148.328 85.9634 148.493 85.5234 148.593 85.0434C148.703 84.5634 148.773 84.0334 148.803 83.4534C148.833 82.8734 148.848 82.2234 148.848 81.5034C148.848 81.2634 148.843 80.9584 148.833 80.5884C148.823 80.2084 148.813 79.8184 148.803 79.4184C148.793 79.0084 148.783 78.6384 148.773 78.3084C148.763 77.9784 148.748 77.7384 148.728 77.5884C148.718 77.4184 148.698 77.2584 148.668 77.1084C148.638 76.9484 148.613 76.8084 148.593 76.6884H149.988ZM144.513 79.7934C144.733 79.8234 144.978 79.8534 145.248 79.8834C145.518 79.9134 145.798 79.9334 146.088 79.9434C146.388 79.9534 146.668 79.9584 146.928 79.9584C147.548 79.9584 148.183 79.9434 148.833 79.9134C149.493 79.8834 150.128 79.8334 150.738 79.7634C151.358 79.6934 151.913 79.6034 152.403 79.4934V80.7234C151.923 80.7934 151.378 80.8584 150.768 80.9184C150.168 80.9784 149.538 81.0234 148.878 81.0534C148.228 81.0734 147.583 81.0834 146.943 81.0834C146.703 81.0834 146.433 81.0784 146.133 81.0684C145.843 81.0584 145.553 81.0484 145.263 81.0384C144.983 81.0284 144.733 81.0134 144.513 80.9934V79.7934ZM142.398 76.9134C142.358 77.0534 142.313 77.2184 142.263 77.4084C142.223 77.5884 142.183 77.7484 142.143 77.8884C142.023 78.4284 141.908 79.0284 141.798 79.6884C141.688 80.3484 141.603 81.0334 141.543 81.7434C141.483 82.4534 141.463 83.1534 141.483 83.8434C141.503 84.5334 141.583 85.1884 141.723 85.8084C141.833 85.4884 141.958 85.1184 142.098 84.6984C142.248 84.2784 142.393 83.8834 142.533 83.5134L143.178 83.9034C143.058 84.2434 142.933 84.6284 142.803 85.0584C142.673 85.4784 142.553 85.8834 142.443 86.2734C142.333 86.6534 142.253 86.9684 142.203 87.2184C142.173 87.3284 142.148 87.4484 142.128 87.5784C142.118 87.7084 142.118 87.8134 142.128 87.8934C142.138 87.9734 142.143 88.0584 142.143 88.1484C142.153 88.2384 142.163 88.3234 142.173 88.4034L141.153 88.5234C141.053 88.2234 140.938 87.8184 140.808 87.3084C140.688 86.7984 140.583 86.2384 140.493 85.6284C140.403 85.0084 140.358 84.3884 140.358 83.7684C140.358 82.9484 140.393 82.1634 140.463 81.4134C140.543 80.6634 140.628 79.9734 140.718 79.3434C140.808 78.7134 140.878 78.1934 140.928 77.7834C140.958 77.6034 140.978 77.4234 140.988 77.2434C140.998 77.0634 141.003 76.9084 141.003 76.7784L142.398 76.9134ZM59.0453 109.288L59.9603 109.948C59.5503 110.318 59.1103 110.698 58.6403 111.088C58.1703 111.468 57.7353 111.788 57.3353 112.048L56.6453 111.523C56.9053 111.323 57.1803 111.093 57.4703 110.833C57.7703 110.573 58.0603 110.308 58.3403 110.038C58.6203 109.768 58.8553 109.518 59.0453 109.288ZM55.3253 101.773L56.5703 102.013C56.4003 102.373 56.2153 102.733 56.0153 103.093C55.8153 103.443 55.6303 103.748 55.4603 104.008L54.5153 103.768C54.6553 103.488 54.8053 103.158 54.9653 102.778C55.1253 102.398 55.2453 102.063 55.3253 101.773ZM53.2853 106.408V107.713H58.3403V106.408H53.2853ZM53.2853 104.248V105.553H58.3403V104.248H53.2853ZM52.2503 103.333H59.4203V108.643H52.2503V103.333ZM55.2803 108.148H56.3003V114.373C56.3003 114.663 56.2653 114.883 56.1953 115.033C56.1353 115.193 56.0103 115.318 55.8203 115.408C55.6303 115.488 55.3803 115.533 55.0703 115.543C54.7603 115.563 54.3703 115.573 53.9003 115.573C53.8803 115.433 53.8403 115.268 53.7803 115.078C53.7203 114.898 53.6553 114.733 53.5853 114.583C53.9253 114.593 54.2303 114.598 54.5003 114.598C54.7703 114.598 54.9503 114.598 55.0403 114.598C55.1403 114.588 55.2053 114.568 55.2353 114.538C55.2653 114.508 55.2803 114.453 55.2803 114.373V108.148ZM51.6803 109.933H54.1853V110.893H51.6803V109.933ZM53.9303 109.933H54.1403L54.3203 109.903L54.9353 110.158C54.6753 111.358 54.2603 112.353 53.6903 113.143C53.1303 113.933 52.4753 114.543 51.7253 114.973C51.6853 114.893 51.6203 114.803 51.5303 114.703C51.4503 114.603 51.3603 114.508 51.2603 114.418C51.1703 114.328 51.0903 114.258 51.0203 114.208C51.7203 113.828 52.3253 113.298 52.8353 112.618C53.3453 111.938 53.7103 111.103 53.9303 110.113V109.933ZM56.1803 108.223C56.2803 108.753 56.4303 109.298 56.6303 109.858C56.8303 110.418 57.0903 110.963 57.4103 111.493C57.7303 112.023 58.1253 112.513 58.5953 112.963C59.0753 113.403 59.6403 113.768 60.2903 114.058C60.2203 114.128 60.1403 114.218 60.0503 114.328C59.9703 114.428 59.8903 114.533 59.8103 114.643C59.7303 114.763 59.6603 114.873 59.6003 114.973C58.9603 114.643 58.4053 114.238 57.9353 113.758C57.4753 113.278 57.0853 112.763 56.7653 112.213C56.4553 111.653 56.2003 111.098 56.0003 110.548C55.8103 109.988 55.6603 109.463 55.5503 108.973L56.1803 108.223ZM48.5903 101.788L49.5803 102.163C49.4003 102.533 49.2003 102.918 48.9803 103.318C48.7703 103.718 48.5553 104.108 48.3353 104.488C48.1253 104.858 47.9253 105.183 47.7353 105.463L46.9553 105.118C47.1453 104.828 47.3403 104.488 47.5403 104.098C47.7503 103.708 47.9453 103.308 48.1253 102.898C48.3153 102.488 48.4703 102.118 48.5903 101.788ZM50.2703 103.498L51.2153 103.948C50.8753 104.498 50.4953 105.088 50.0753 105.718C49.6553 106.338 49.2303 106.938 48.8003 107.518C48.3803 108.098 47.9803 108.603 47.6003 109.033L46.9103 108.643C47.1903 108.313 47.4853 107.938 47.7953 107.518C48.1053 107.088 48.4103 106.643 48.7103 106.183C49.0103 105.713 49.2953 105.248 49.5653 104.788C49.8353 104.328 50.0703 103.898 50.2703 103.498ZM46.2053 104.923L46.7903 104.203C47.0603 104.443 47.3303 104.708 47.6003 104.998C47.8803 105.288 48.1353 105.573 48.3653 105.853C48.5953 106.133 48.7753 106.388 48.9053 106.618L48.2753 107.458C48.1453 107.218 47.9653 106.948 47.7353 106.648C47.5153 106.348 47.2703 106.048 47.0003 105.748C46.7303 105.448 46.4653 105.173 46.2053 104.923ZM49.6853 106.933L50.5103 106.603C50.7203 106.923 50.9203 107.273 51.1103 107.653C51.3003 108.033 51.4703 108.403 51.6203 108.763C51.7803 109.113 51.8953 109.423 51.9653 109.693L51.0653 110.113C51.0053 109.823 50.9003 109.498 50.7503 109.138C50.6103 108.768 50.4503 108.393 50.2703 108.013C50.0903 107.623 49.8953 107.263 49.6853 106.933ZM46.0703 108.418C46.7203 108.388 47.4903 108.353 48.3803 108.313C49.2803 108.263 50.2003 108.213 51.1403 108.163V109.108C50.2603 109.168 49.3853 109.228 48.5153 109.288C47.6553 109.338 46.8853 109.383 46.2053 109.423L46.0703 108.418ZM50.0903 110.563L50.9153 110.323C51.1053 110.743 51.2703 111.203 51.4103 111.703C51.5603 112.203 51.6603 112.638 51.7103 113.008L50.8253 113.278C50.7953 112.908 50.7103 112.473 50.5703 111.973C50.4303 111.463 50.2703 110.993 50.0903 110.563ZM46.9853 110.368L47.9303 110.518C47.8303 111.228 47.6903 111.928 47.5103 112.618C47.3403 113.298 47.1403 113.878 46.9103 114.358C46.8503 114.318 46.7653 114.273 46.6553 114.223C46.5453 114.163 46.4353 114.108 46.3253 114.058C46.2153 114.008 46.1203 113.968 46.0403 113.938C46.2903 113.478 46.4903 112.933 46.6403 112.303C46.7903 111.663 46.9053 111.018 46.9853 110.368ZM48.5753 108.868H49.5653V115.588H48.5753V108.868ZM69.1103 104.143C69.0103 104.923 68.8803 105.738 68.7203 106.588C68.5703 107.438 68.3753 108.263 68.1353 109.063C67.8353 110.093 67.5003 110.953 67.1303 111.643C66.7703 112.333 66.3803 112.853 65.9603 113.203C65.5403 113.553 65.1003 113.728 64.6403 113.728C64.2003 113.728 63.7753 113.568 63.3653 113.248C62.9553 112.928 62.6203 112.468 62.3603 111.868C62.1003 111.258 61.9703 110.543 61.9703 109.723C61.9703 108.903 62.1353 108.128 62.4653 107.398C62.8053 106.668 63.2703 106.023 63.8603 105.463C64.4603 104.893 65.1603 104.443 65.9603 104.113C66.7603 103.783 67.6153 103.618 68.5253 103.618C69.4053 103.618 70.1953 103.763 70.8953 104.053C71.6053 104.343 72.2103 104.743 72.7103 105.253C73.2103 105.753 73.5953 106.338 73.8653 107.008C74.1353 107.668 74.2703 108.378 74.2703 109.138C74.2703 110.188 74.0453 111.113 73.5953 111.913C73.1553 112.713 72.5153 113.363 71.6753 113.863C70.8453 114.363 69.8353 114.693 68.6453 114.853L67.9403 113.743C68.1803 113.713 68.4103 113.683 68.6303 113.653C68.8503 113.623 69.0503 113.588 69.2303 113.548C69.7103 113.438 70.1753 113.268 70.6253 113.038C71.0853 112.798 71.4953 112.498 71.8553 112.138C72.2153 111.768 72.5003 111.333 72.7103 110.833C72.9303 110.323 73.0403 109.743 73.0403 109.093C73.0403 108.483 72.9403 107.918 72.7403 107.398C72.5403 106.868 72.2453 106.403 71.8553 106.003C71.4653 105.603 70.9903 105.288 70.4303 105.058C69.8703 104.828 69.2303 104.713 68.5103 104.713C67.6903 104.713 66.9453 104.863 66.2753 105.163C65.6153 105.463 65.0503 105.858 64.5803 106.348C64.1203 106.828 63.7653 107.358 63.5153 107.938C63.2653 108.508 63.1403 109.068 63.1403 109.618C63.1403 110.248 63.2203 110.768 63.3803 111.178C63.5503 111.578 63.7503 111.873 63.9803 112.063C64.2203 112.253 64.4553 112.348 64.6853 112.348C64.9253 112.348 65.1703 112.233 65.4203 112.003C65.6703 111.763 65.9253 111.383 66.1853 110.863C66.4453 110.333 66.7003 109.648 66.9503 108.808C67.1703 108.088 67.3553 107.323 67.5053 106.513C67.6653 105.703 67.7803 104.908 67.8503 104.128L69.1103 104.143ZM87.8603 105.433C87.6903 105.543 87.5103 105.648 87.3203 105.748C87.1303 105.848 86.9253 105.953 86.7053 106.063C86.4553 106.203 86.1453 106.363 85.7753 106.543C85.4053 106.723 85.0103 106.923 84.5903 107.143C84.1703 107.363 83.7503 107.593 83.3303 107.833C82.9103 108.073 82.5153 108.313 82.1453 108.553C81.4453 109.003 80.8953 109.478 80.4953 109.978C80.1053 110.478 79.9103 111.013 79.9103 111.583C79.9103 112.203 80.2053 112.698 80.7953 113.068C81.3953 113.428 82.2853 113.608 83.4653 113.608C84.0153 113.608 84.5853 113.588 85.1753 113.548C85.7653 113.498 86.3303 113.433 86.8703 113.353C87.4203 113.273 87.8853 113.188 88.2653 113.098V114.433C87.8953 114.503 87.4553 114.563 86.9453 114.613C86.4453 114.673 85.9053 114.718 85.3253 114.748C84.7453 114.788 84.1453 114.808 83.5253 114.808C82.8153 114.808 82.1653 114.748 81.5753 114.628C80.9853 114.518 80.4703 114.343 80.0303 114.103C79.6003 113.863 79.2653 113.548 79.0253 113.158C78.7853 112.758 78.6653 112.278 78.6653 111.718C78.6653 111.168 78.7803 110.663 79.0103 110.203C79.2403 109.733 79.5703 109.288 80.0003 108.868C80.4303 108.448 80.9403 108.043 81.5303 107.653C81.9103 107.393 82.3153 107.143 82.7453 106.903C83.1853 106.653 83.6153 106.413 84.0353 106.183C84.4553 105.953 84.8453 105.743 85.2053 105.553C85.5753 105.363 85.8853 105.203 86.1353 105.073C86.3453 104.943 86.5353 104.828 86.7053 104.728C86.8753 104.618 87.0403 104.498 87.2003 104.368L87.8603 105.433ZM80.2703 102.718C80.5003 103.358 80.7453 103.983 81.0053 104.593C81.2753 105.203 81.5453 105.773 81.8153 106.303C82.0953 106.833 82.3503 107.303 82.5803 107.713L81.5453 108.328C81.2953 107.918 81.0303 107.433 80.7503 106.873C80.4703 106.313 80.1903 105.718 79.9103 105.088C79.6303 104.458 79.3553 103.833 79.0853 103.213L80.2703 102.718ZM94.1753 103.858C94.7153 103.928 95.3203 103.978 95.9903 104.008C96.6703 104.038 97.3853 104.053 98.1353 104.053C98.6153 104.053 99.0953 104.043 99.5753 104.023C100.065 104.003 100.53 103.978 100.97 103.948C101.42 103.908 101.825 103.873 102.185 103.843V105.073C101.845 105.093 101.45 105.118 101 105.148C100.55 105.178 100.075 105.203 99.5753 105.223C99.0853 105.243 98.6053 105.253 98.1353 105.253C97.3853 105.253 96.6853 105.238 96.0353 105.208C95.3853 105.168 94.7653 105.128 94.1753 105.088V103.858ZM94.7753 109.903C94.6753 110.203 94.5953 110.493 94.5353 110.773C94.4853 111.053 94.4603 111.333 94.4603 111.613C94.4603 112.183 94.7553 112.648 95.3453 113.008C95.9353 113.368 96.8303 113.548 98.0303 113.548C98.7203 113.548 99.3853 113.523 100.025 113.473C100.665 113.423 101.25 113.353 101.78 113.263C102.32 113.173 102.78 113.068 103.16 112.948L103.175 114.238C102.815 114.338 102.37 114.428 101.84 114.508C101.32 114.588 100.74 114.648 100.1 114.688C99.4603 114.738 98.7803 114.763 98.0603 114.763C97.0503 114.763 96.1853 114.653 95.4653 114.433C94.7453 114.213 94.1953 113.888 93.8153 113.458C93.4353 113.028 93.2453 112.498 93.2453 111.868C93.2453 111.478 93.2803 111.108 93.3503 110.758C93.4203 110.408 93.4903 110.083 93.5603 109.783L94.7753 109.903ZM109.13 103.438C109.27 103.448 109.425 103.458 109.595 103.468C109.775 103.478 109.97 103.483 110.18 103.483C110.34 103.483 110.585 103.483 110.915 103.483C111.255 103.473 111.635 103.463 112.055 103.453C112.485 103.443 112.915 103.433 113.345 103.423C113.775 103.403 114.165 103.388 114.515 103.378C114.875 103.368 115.15 103.358 115.34 103.348C115.47 103.328 115.615 103.308 115.775 103.288C115.935 103.268 116.07 103.243 116.18 103.213L116.9 104.083C116.8 104.133 116.685 104.203 116.555 104.293C116.425 104.383 116.32 104.458 116.24 104.518C115.96 104.748 115.645 105.008 115.295 105.298C114.955 105.588 114.595 105.888 114.215 106.198C113.835 106.508 113.46 106.813 113.09 107.113C112.73 107.403 112.395 107.678 112.085 107.938C112.495 107.778 112.88 107.673 113.24 107.623C113.6 107.563 113.93 107.533 114.23 107.533C115.07 107.533 115.8 107.678 116.42 107.968C117.05 108.258 117.54 108.663 117.89 109.183C118.25 109.693 118.43 110.288 118.43 110.968C118.43 111.928 118.125 112.733 117.515 113.383C116.905 114.023 116.02 114.483 114.86 114.763C113.7 115.043 112.29 115.118 110.63 114.988L110.3 113.773C111.34 113.903 112.28 113.933 113.12 113.863C113.97 113.793 114.695 113.633 115.295 113.383C115.895 113.133 116.355 112.803 116.675 112.393C117.005 111.983 117.17 111.503 117.17 110.953C117.17 110.233 116.885 109.648 116.315 109.198C115.745 108.748 114.98 108.523 114.02 108.523C113.37 108.523 112.785 108.603 112.265 108.763C111.755 108.913 111.275 109.128 110.825 109.408C110.385 109.688 109.95 110.018 109.52 110.398C109.1 110.778 108.655 111.193 108.185 111.643L107.27 110.713C107.71 110.363 108.205 109.968 108.755 109.528C109.305 109.078 109.87 108.608 110.45 108.118C111.04 107.628 111.61 107.148 112.16 106.678C112.72 106.208 113.22 105.773 113.66 105.373C114.1 104.973 114.445 104.643 114.695 104.383C114.515 104.393 114.27 104.408 113.96 104.428C113.65 104.438 113.31 104.453 112.94 104.473C112.57 104.483 112.205 104.498 111.845 104.518C111.485 104.528 111.16 104.543 110.87 104.563C110.59 104.573 110.375 104.583 110.225 104.593C110.055 104.603 109.87 104.618 109.67 104.638C109.48 104.648 109.31 104.668 109.16 104.698L109.13 103.438ZM127.49 104.263C127.9 104.323 128.375 104.373 128.915 104.413C129.465 104.443 130.03 104.458 130.61 104.458C131.2 104.448 131.76 104.428 132.29 104.398C132.83 104.358 133.285 104.308 133.655 104.248V105.463C133.255 105.503 132.785 105.538 132.245 105.568C131.715 105.588 131.16 105.598 130.58 105.598C130.01 105.598 129.455 105.588 128.915 105.568C128.375 105.538 127.9 105.503 127.49 105.463V104.263ZM128.075 110.368C128.005 110.638 127.95 110.883 127.91 111.103C127.87 111.323 127.85 111.538 127.85 111.748C127.85 111.918 127.885 112.088 127.955 112.258C128.035 112.418 128.165 112.563 128.345 112.693C128.535 112.813 128.795 112.913 129.125 112.993C129.455 113.063 129.875 113.098 130.385 113.098C131.065 113.098 131.705 113.068 132.305 113.008C132.905 112.938 133.505 112.838 134.105 112.708L134.135 113.968C133.665 114.068 133.115 114.148 132.485 114.208C131.865 114.258 131.165 114.283 130.385 114.283C129.125 114.283 128.2 114.083 127.61 113.683C127.03 113.283 126.74 112.733 126.74 112.033C126.74 111.783 126.76 111.518 126.8 111.238C126.85 110.948 126.915 110.623 126.995 110.263L128.075 110.368ZM124.625 103.108C124.605 103.188 124.575 103.293 124.535 103.423C124.505 103.543 124.47 103.668 124.43 103.798C124.4 103.918 124.375 104.023 124.355 104.113C124.305 104.393 124.245 104.718 124.175 105.088C124.105 105.448 124.035 105.838 123.965 106.258C123.905 106.668 123.845 107.088 123.785 107.518C123.735 107.938 123.69 108.348 123.65 108.748C123.62 109.148 123.605 109.518 123.605 109.858C123.605 110.228 123.615 110.578 123.635 110.908C123.665 111.238 123.7 111.588 123.74 111.958C123.83 111.728 123.925 111.483 124.025 111.223C124.125 110.963 124.225 110.708 124.325 110.458C124.435 110.198 124.53 109.968 124.61 109.768L125.24 110.248C125.11 110.608 124.97 111.003 124.82 111.433C124.67 111.863 124.535 112.278 124.415 112.678C124.305 113.068 124.225 113.378 124.175 113.608C124.155 113.718 124.135 113.838 124.115 113.968C124.095 114.098 124.09 114.203 124.1 114.283C124.11 114.363 124.115 114.448 124.115 114.538C124.125 114.638 124.135 114.728 124.145 114.808L123.065 114.883C122.915 114.353 122.785 113.673 122.675 112.843C122.565 112.003 122.51 111.078 122.51 110.068C122.51 109.518 122.535 108.958 122.585 108.388C122.635 107.808 122.7 107.248 122.78 106.708C122.86 106.158 122.935 105.658 123.005 105.208C123.085 104.748 123.145 104.363 123.185 104.053C123.215 103.873 123.24 103.693 123.26 103.513C123.28 103.323 123.29 103.148 123.29 102.988L124.625 103.108ZM142.175 102.688H149.555V103.768H142.175V102.688ZM146.57 107.158H147.71V114.148C147.71 114.498 147.66 114.763 147.56 114.943C147.46 115.133 147.285 115.278 147.035 115.378C146.775 115.458 146.42 115.503 145.97 115.513C145.53 115.533 144.94 115.543 144.2 115.543C144.18 115.393 144.135 115.213 144.065 115.003C143.995 114.793 143.915 114.603 143.825 114.433C144.185 114.443 144.525 114.453 144.845 114.463C145.165 114.473 145.445 114.473 145.685 114.463C145.925 114.463 146.09 114.463 146.18 114.463C146.32 114.453 146.42 114.428 146.48 114.388C146.54 114.338 146.57 114.253 146.57 114.133V107.158ZM141.515 106.828H149.975V107.908H141.515V106.828ZM138.53 107.998L139.52 107.008L139.64 107.068V115.633H138.53V107.998ZM140.255 104.998L141.32 105.388C140.94 106.018 140.5 106.648 140 107.278C139.5 107.908 138.975 108.498 138.425 109.048C137.885 109.588 137.35 110.073 136.82 110.503C136.76 110.423 136.68 110.323 136.58 110.203C136.49 110.083 136.395 109.963 136.295 109.843C136.195 109.723 136.105 109.628 136.025 109.558C136.545 109.188 137.06 108.758 137.57 108.268C138.09 107.778 138.58 107.253 139.04 106.693C139.51 106.133 139.915 105.568 140.255 104.998ZM139.655 101.773L140.735 102.223C140.405 102.653 140.02 103.098 139.58 103.558C139.15 104.008 138.695 104.443 138.215 104.863C137.745 105.273 137.285 105.638 136.835 105.958C136.785 105.878 136.72 105.783 136.64 105.673C136.57 105.553 136.49 105.438 136.4 105.328C136.32 105.208 136.245 105.118 136.175 105.058C136.595 104.768 137.02 104.438 137.45 104.068C137.89 103.698 138.3 103.313 138.68 102.913C139.07 102.513 139.395 102.133 139.655 101.773ZM153.335 104.113C154.385 104.233 155.385 104.303 156.335 104.323C157.295 104.343 158.16 104.318 158.93 104.248C159.54 104.188 160.145 104.098 160.745 103.978C161.355 103.848 161.93 103.698 162.47 103.528L162.635 104.608C162.145 104.748 161.595 104.878 160.985 104.998C160.385 105.118 159.785 105.208 159.185 105.268C158.425 105.338 157.54 105.373 156.53 105.373C155.53 105.363 154.49 105.308 153.41 105.208L153.335 104.113ZM153.05 107.188C153.9 107.278 154.74 107.338 155.57 107.368C156.4 107.388 157.185 107.383 157.925 107.353C158.665 107.323 159.325 107.273 159.905 107.203C160.625 107.123 161.28 107.018 161.87 106.888C162.46 106.758 162.955 106.628 163.355 106.498L163.535 107.623C163.125 107.733 162.645 107.843 162.095 107.953C161.545 108.053 160.955 108.143 160.325 108.223C159.705 108.293 159 108.348 158.21 108.388C157.42 108.418 156.585 108.428 155.705 108.418C154.835 108.398 153.97 108.363 153.11 108.313L153.05 107.188ZM158.18 103.918C158.12 103.688 158.05 103.463 157.97 103.243C157.9 103.013 157.83 102.793 157.76 102.583L159.035 102.418C159.085 102.838 159.165 103.278 159.275 103.738C159.385 104.188 159.505 104.633 159.635 105.073C159.765 105.503 159.89 105.893 160.01 106.243C160.15 106.633 160.315 107.048 160.505 107.488C160.695 107.928 160.905 108.363 161.135 108.793C161.365 109.223 161.61 109.633 161.87 110.023C161.95 110.133 162.035 110.243 162.125 110.353C162.225 110.453 162.325 110.558 162.425 110.668L161.81 111.583C161.53 111.503 161.2 111.438 160.82 111.388C160.44 111.328 160.05 111.278 159.65 111.238C159.25 111.188 158.875 111.143 158.525 111.103L158.63 110.188C159.03 110.228 159.445 110.273 159.875 110.323C160.305 110.373 160.64 110.413 160.88 110.443C160.46 109.793 160.09 109.123 159.77 108.433C159.46 107.743 159.195 107.093 158.975 106.483C158.855 106.143 158.745 105.828 158.645 105.538C158.555 105.238 158.47 104.953 158.39 104.683C158.32 104.413 158.25 104.158 158.18 103.918ZM155.225 110.413C155.045 110.673 154.895 110.938 154.775 111.208C154.655 111.478 154.595 111.778 154.595 112.108C154.595 112.728 154.875 113.193 155.435 113.503C156.005 113.813 156.88 113.968 158.06 113.968C158.76 113.968 159.395 113.943 159.965 113.893C160.535 113.843 161.09 113.763 161.63 113.653L161.585 114.853C161.065 114.933 160.51 114.993 159.92 115.033C159.33 115.083 158.715 115.108 158.075 115.108C157.095 115.108 156.26 115.008 155.57 114.808C154.89 114.608 154.37 114.303 154.01 113.893C153.66 113.483 153.48 112.958 153.47 112.318C153.46 111.888 153.51 111.508 153.62 111.178C153.74 110.838 153.885 110.503 154.055 110.173L155.225 110.413ZM56.8583 130.151V129.065L61.6524 121.479H62.4407V123.163H61.908L58.2859 128.894V128.979H64.7418V130.151H56.8583ZM61.9933 132.388V129.821V129.315V121.479H63.2504V132.388H61.9933ZM76.1688 123.388C76.1688 123.688 76.2738 123.948 76.4838 124.168C76.7038 124.378 76.9688 124.483 77.2788 124.483C77.5788 124.483 77.8338 124.378 78.0438 124.168C78.2638 123.948 78.3738 123.688 78.3738 123.388C78.3738 123.078 78.2638 122.818 78.0438 122.608C77.8338 122.398 77.5788 122.293 77.2788 122.293C76.9688 122.293 76.7038 122.398 76.4838 122.608C76.2738 122.818 76.1688 123.078 76.1688 123.388ZM75.4488 123.388C75.4488 123.048 75.5288 122.743 75.6888 122.473C75.8588 122.193 76.0788 121.973 76.3488 121.813C76.6288 121.643 76.9388 121.558 77.2788 121.558C77.6088 121.558 77.9088 121.643 78.1788 121.813C78.4588 121.973 78.6788 122.193 78.8388 122.473C79.0088 122.743 79.0938 123.048 79.0938 123.388C79.0938 123.718 79.0088 124.023 78.8388 124.303C78.6788 124.573 78.4588 124.793 78.1788 124.963C77.9088 125.123 77.6088 125.203 77.2788 125.203C76.9388 125.203 76.6288 125.123 76.3488 124.963C76.0788 124.793 75.8588 124.573 75.6888 124.303C75.5288 124.023 75.4488 123.718 75.4488 123.388ZM66.4038 128.443C66.6038 128.273 66.7788 128.113 66.9288 127.963C67.0888 127.813 67.2688 127.638 67.4688 127.438C67.6488 127.258 67.8538 127.028 68.0838 126.748C68.3238 126.468 68.5788 126.168 68.8488 125.848C69.1288 125.518 69.4038 125.188 69.6738 124.858C69.9438 124.518 70.1938 124.213 70.4238 123.943C70.8238 123.473 71.2188 123.213 71.6088 123.163C71.9988 123.103 72.4488 123.313 72.9588 123.793C73.2688 124.073 73.6038 124.403 73.9638 124.783C74.3338 125.153 74.6988 125.528 75.0588 125.908C75.4188 126.288 75.7438 126.633 76.0338 126.943C76.3738 127.293 76.7538 127.698 77.1738 128.158C77.5938 128.608 78.0238 129.073 78.4638 129.553C78.9038 130.023 79.3138 130.463 79.6938 130.873L78.6588 131.968C78.3088 131.538 77.9338 131.093 77.5338 130.633C77.1438 130.163 76.7538 129.708 76.3638 129.268C75.9838 128.818 75.6338 128.413 75.3138 128.053C75.0938 127.803 74.8488 127.533 74.5788 127.243C74.3088 126.953 74.0388 126.663 73.7688 126.373C73.4988 126.083 73.2438 125.813 73.0038 125.563C72.7738 125.313 72.5788 125.113 72.4188 124.963C72.1288 124.683 71.8888 124.553 71.6988 124.573C71.5188 124.593 71.2988 124.758 71.0388 125.068C70.8588 125.288 70.6538 125.548 70.4238 125.848C70.1938 126.138 69.9538 126.443 69.7038 126.763C69.4538 127.083 69.2138 127.388 68.9838 127.678C68.7538 127.968 68.5538 128.218 68.3838 128.428C68.2338 128.618 68.0788 128.818 67.9188 129.028C67.7688 129.238 67.6388 129.423 67.5288 129.583L66.4038 128.443ZM82.1388 125.893C82.2888 125.903 82.4738 125.918 82.6938 125.938C82.9138 125.948 83.1538 125.958 83.4138 125.968C83.6838 125.968 83.9538 125.968 84.2238 125.968C84.3838 125.968 84.6288 125.968 84.9588 125.968C85.2988 125.968 85.6938 125.968 86.1438 125.968C86.5938 125.968 87.0688 125.968 87.5688 125.968C88.0788 125.968 88.5838 125.968 89.0838 125.968C89.5938 125.968 90.0738 125.968 90.5238 125.968C90.9838 125.968 91.3788 125.968 91.7088 125.968C92.0388 125.968 92.2838 125.968 92.4438 125.968C92.8238 125.968 93.1488 125.958 93.4188 125.938C93.6888 125.918 93.9038 125.903 94.0638 125.893V127.363C93.9138 127.353 93.6888 127.338 93.3888 127.318C93.0988 127.298 92.7888 127.288 92.4588 127.288C92.2988 127.288 92.0488 127.288 91.7088 127.288C91.3688 127.288 90.9738 127.288 90.5238 127.288C90.0838 127.288 89.6088 127.288 89.0988 127.288C88.5888 127.288 88.0788 127.288 87.5688 127.288C87.0688 127.288 86.5938 127.288 86.1438 127.288C85.7038 127.288 85.3138 127.288 84.9738 127.288C84.6338 127.288 84.3838 127.288 84.2238 127.288C83.8138 127.288 83.4238 127.298 83.0538 127.318C82.6838 127.328 82.3788 127.343 82.1388 127.363V125.893ZM106.056 121.198C106.186 121.368 106.336 121.593 106.506 121.873C106.686 122.153 106.861 122.438 107.031 122.728C107.201 123.018 107.341 123.283 107.451 123.523L106.596 123.913C106.476 123.653 106.341 123.388 106.191 123.118C106.041 122.838 105.886 122.563 105.726 122.293C105.566 122.023 105.401 121.773 105.231 121.543L106.056 121.198ZM108.021 120.478C108.161 120.648 108.316 120.868 108.486 121.138C108.656 121.408 108.831 121.688 109.011 121.978C109.191 122.268 109.341 122.533 109.461 122.773L108.606 123.163C108.476 122.893 108.331 122.623 108.171 122.353C108.011 122.083 107.846 121.818 107.676 121.558C107.516 121.298 107.351 121.058 107.181 120.838L108.021 120.478ZM99.6508 120.973C99.8708 121.093 100.131 121.253 100.431 121.453C100.731 121.643 101.041 121.843 101.361 122.053C101.681 122.253 101.976 122.448 102.246 122.638C102.526 122.818 102.746 122.968 102.906 123.088L102.201 124.123C102.021 123.983 101.791 123.818 101.511 123.628C101.241 123.438 100.951 123.243 100.641 123.043C100.341 122.833 100.041 122.638 99.7408 122.458C99.4508 122.268 99.1958 122.108 98.9758 121.978L99.6508 120.973ZM97.4008 131.698C97.9508 131.598 98.5158 131.468 99.0958 131.308C99.6758 131.148 100.251 130.953 100.821 130.723C101.391 130.493 101.926 130.238 102.426 129.958C103.256 129.478 104.026 128.948 104.736 128.368C105.446 127.778 106.086 127.153 106.656 126.493C107.226 125.833 107.711 125.153 108.111 124.453L108.831 125.698C108.181 126.698 107.356 127.668 106.356 128.608C105.356 129.538 104.256 130.353 103.056 131.053C102.556 131.343 102.006 131.613 101.406 131.863C100.816 132.103 100.231 132.313 99.6508 132.493C99.0808 132.683 98.5608 132.823 98.0908 132.913L97.4008 131.698ZM97.3858 124.348C97.6058 124.468 97.8708 124.618 98.1808 124.798C98.4908 124.978 98.8058 125.168 99.1258 125.368C99.4458 125.568 99.7408 125.758 100.011 125.938C100.291 126.108 100.511 126.253 100.671 126.373L99.9958 127.423C99.8058 127.283 99.5708 127.123 99.2908 126.943C99.0208 126.763 98.7308 126.573 98.4208 126.373C98.1108 126.173 97.8058 125.988 97.5058 125.818C97.2058 125.638 96.9408 125.488 96.7108 125.368L97.3858 124.348ZM111.156 128.278C111.346 128.128 111.521 127.978 111.681 127.828C111.851 127.668 112.036 127.488 112.236 127.288C112.436 127.078 112.656 126.828 112.896 126.538C113.146 126.238 113.401 125.923 113.661 125.593C113.931 125.253 114.196 124.918 114.456 124.588C114.716 124.258 114.956 123.963 115.176 123.703C115.616 123.193 116.041 122.913 116.451 122.863C116.871 122.813 117.326 123.038 117.816 123.538C118.126 123.848 118.451 124.208 118.791 124.618C119.131 125.018 119.476 125.423 119.826 125.833C120.186 126.243 120.521 126.623 120.831 126.973C121.061 127.223 121.321 127.503 121.611 127.813C121.901 128.123 122.211 128.448 122.541 128.788C122.871 129.118 123.206 129.453 123.546 129.793C123.896 130.133 124.241 130.448 124.581 130.738L123.621 131.833C123.251 131.473 122.856 131.078 122.436 130.648C122.026 130.208 121.621 129.763 121.221 129.313C120.821 128.863 120.446 128.448 120.096 128.068C119.776 127.698 119.441 127.308 119.091 126.898C118.751 126.478 118.421 126.078 118.101 125.698C117.791 125.318 117.521 124.998 117.291 124.738C117.071 124.508 116.886 124.363 116.736 124.303C116.586 124.243 116.441 124.258 116.301 124.348C116.171 124.428 116.016 124.573 115.836 124.783C115.666 125.003 115.466 125.263 115.236 125.563C115.006 125.863 114.766 126.173 114.516 126.493C114.266 126.813 114.021 127.128 113.781 127.438C113.551 127.748 113.341 128.018 113.151 128.248C113.001 128.448 112.841 128.653 112.671 128.863C112.511 129.063 112.376 129.243 112.266 129.403L111.156 128.278ZM129.006 125.713V131.023H127.911V126.763H126.006V125.713H129.006ZM129.006 130.558C129.356 131.108 129.856 131.518 130.506 131.788C131.156 132.058 131.921 132.213 132.801 132.253C133.221 132.263 133.731 132.273 134.331 132.283C134.931 132.283 135.561 132.283 136.221 132.283C136.881 132.273 137.521 132.258 138.141 132.238C138.761 132.218 139.296 132.193 139.746 132.163C139.706 132.243 139.661 132.348 139.611 132.478C139.561 132.608 139.516 132.743 139.476 132.883C139.436 133.023 139.406 133.153 139.386 133.273C138.966 133.283 138.466 133.293 137.886 133.303C137.316 133.323 136.721 133.333 136.101 133.333C135.481 133.343 134.881 133.343 134.301 133.333C133.721 133.323 133.226 133.313 132.816 133.303C131.826 133.263 130.981 133.103 130.281 132.823C129.581 132.543 128.996 132.108 128.526 131.518C128.196 131.838 127.856 132.158 127.506 132.478C127.166 132.808 126.811 133.138 126.441 133.468L125.856 132.358C126.186 132.118 126.541 131.843 126.921 131.533C127.311 131.213 127.676 130.888 128.016 130.558H129.006ZM126.156 120.793L127.011 120.163C127.321 120.393 127.631 120.653 127.941 120.943C128.261 121.233 128.551 121.523 128.811 121.813C129.081 122.103 129.291 122.373 129.441 122.623L128.526 123.328C128.386 123.078 128.186 122.803 127.926 122.503C127.666 122.193 127.381 121.893 127.071 121.603C126.771 121.303 126.466 121.033 126.156 120.793ZM135.696 119.938L136.896 120.193C136.686 120.673 136.456 121.168 136.206 121.678C135.956 122.188 135.721 122.618 135.501 122.968L134.586 122.683C134.716 122.433 134.851 122.148 134.991 121.828C135.131 121.508 135.261 121.183 135.381 120.853C135.511 120.513 135.616 120.208 135.696 119.938ZM132.111 122.128H139.176V123.118H132.111V130.258H131.016V122.983L131.856 122.128H132.111ZM131.616 124.678H138.786V125.623H131.616V124.678ZM131.616 127.213H138.756V128.158H131.616V127.213ZM131.016 129.793H139.416V130.768H131.016V129.793ZM134.736 122.578H135.816V130.183H134.736V122.578ZM132.336 119.818L133.461 120.148C133.171 120.848 132.826 121.528 132.426 122.188C132.026 122.848 131.596 123.463 131.136 124.033C130.676 124.603 130.196 125.103 129.696 125.533C129.636 125.453 129.551 125.363 129.441 125.263C129.341 125.153 129.236 125.043 129.126 124.933C129.016 124.823 128.916 124.733 128.826 124.663C129.566 124.093 130.241 123.383 130.851 122.533C131.471 121.673 131.966 120.768 132.336 119.818ZM150.351 120.778C150.321 120.898 150.291 121.033 150.261 121.183C150.231 121.323 150.201 121.463 150.171 121.603C150.151 121.743 150.126 121.858 150.096 121.948C149.956 122.578 149.786 123.228 149.586 123.898C149.396 124.568 149.181 125.233 148.941 125.893C148.701 126.553 148.441 127.168 148.161 127.738C147.891 128.308 147.606 128.803 147.306 129.223C146.926 129.743 146.541 130.213 146.151 130.633C145.771 131.043 145.381 131.363 144.981 131.593C144.581 131.823 144.151 131.938 143.691 131.938C143.321 131.938 142.976 131.833 142.656 131.623C142.336 131.413 142.081 131.108 141.891 130.708C141.701 130.308 141.606 129.818 141.606 129.238C141.606 128.608 141.721 127.978 141.951 127.348C142.191 126.718 142.516 126.138 142.926 125.608C143.346 125.078 143.816 124.638 144.336 124.288C145.076 123.778 145.821 123.418 146.571 123.208C147.321 122.998 148.076 122.893 148.836 122.893C149.816 122.893 150.686 123.098 151.446 123.508C152.216 123.918 152.816 124.493 153.246 125.233C153.686 125.963 153.906 126.818 153.906 127.798C153.906 128.788 153.681 129.653 153.231 130.393C152.791 131.123 152.166 131.713 151.356 132.163C150.556 132.603 149.621 132.898 148.551 133.048L147.846 131.983C148.636 131.913 149.331 131.763 149.931 131.533C150.541 131.303 151.051 131.003 151.461 130.633C151.871 130.263 152.181 129.833 152.391 129.343C152.611 128.853 152.721 128.323 152.721 127.753C152.721 127.013 152.556 126.358 152.226 125.788C151.896 125.208 151.426 124.753 150.816 124.423C150.216 124.093 149.516 123.928 148.716 123.928C147.986 123.928 147.291 124.048 146.631 124.288C145.981 124.518 145.361 124.848 144.771 125.278C144.351 125.578 143.986 125.948 143.676 126.388C143.366 126.828 143.121 127.288 142.941 127.768C142.771 128.238 142.686 128.698 142.686 129.148C142.686 129.648 142.786 130.043 142.986 130.333C143.196 130.613 143.471 130.753 143.811 130.753C144.051 130.753 144.296 130.683 144.546 130.543C144.796 130.393 145.041 130.198 145.281 129.958C145.521 129.718 145.751 129.453 145.971 129.163C146.201 128.863 146.406 128.563 146.586 128.263C146.836 127.873 147.081 127.423 147.321 126.913C147.561 126.403 147.786 125.858 147.996 125.278C148.216 124.688 148.406 124.098 148.566 123.508C148.736 122.908 148.871 122.338 148.971 121.798C149.001 121.648 149.021 121.463 149.031 121.243C149.051 121.023 149.061 120.828 149.061 120.658L150.351 120.778ZM144.216 121.453C144.256 121.663 144.301 121.888 144.351 122.128C144.411 122.358 144.466 122.578 144.516 122.788C144.616 123.148 144.741 123.553 144.891 124.003C145.041 124.453 145.196 124.903 145.356 125.353C145.526 125.803 145.701 126.228 145.881 126.628C146.061 127.018 146.231 127.343 146.391 127.603C146.651 128.043 146.946 128.493 147.276 128.953C147.606 129.413 147.951 129.813 148.311 130.153L147.366 130.933C147.066 130.593 146.776 130.233 146.496 129.853C146.216 129.473 145.936 129.038 145.656 128.548C145.466 128.258 145.276 127.908 145.086 127.498C144.896 127.078 144.701 126.628 144.501 126.148C144.311 125.668 144.126 125.178 143.946 124.678C143.766 124.168 143.606 123.678 143.466 123.208C143.396 122.968 143.316 122.733 143.226 122.503C143.146 122.263 143.061 122.048 142.971 121.858L144.216 121.453Z" fill="black"/>
</svg>
