<svg width="211" height="149" viewBox="0 0 211 149" fill="none" xmlns="http://www.w3.org/2000/svg">
<rect width="210" height="148.5" transform="matrix(-1 0 0 -1 210.65 148.5)" fill="white"/>
<path d="M149.293 39.5312C149.032 39.5312 148.902 39.4557 148.902 39.3047C148.902 39.1537 149.015 39.0713 149.241 39.0576L150.415 38.9134C150.763 38.8722 150.998 38.8036 151.12 38.7075C151.242 38.5976 151.303 38.3985 151.303 38.1102V25.7534C151.303 25.5612 151.25 25.4239 151.146 25.3415C151.042 25.2591 150.824 25.2179 150.494 25.2179C149.85 25.2179 149.215 25.4376 148.589 25.877C147.962 26.3163 147.554 27.0234 147.362 27.9982L147.232 28.6778C147.197 28.8563 147.075 28.9456 146.866 28.9456C146.606 28.9456 146.492 28.8289 146.527 28.5955L146.762 24.8678C146.797 24.552 146.953 24.3941 147.232 24.3941C147.354 24.3941 147.467 24.4216 147.571 24.4765C147.675 24.5177 147.849 24.5658 148.093 24.6207C148.354 24.6756 148.763 24.7031 149.319 24.7031H155.138C155.695 24.7031 156.095 24.6756 156.339 24.6207C156.6 24.5658 156.782 24.5177 156.887 24.4765C157.009 24.4216 157.122 24.3941 157.226 24.3941C157.504 24.3941 157.661 24.552 157.696 24.8678L157.931 28.5955C157.965 28.8289 157.852 28.9456 157.591 28.9456C157.383 28.9456 157.261 28.8563 157.226 28.6778L157.096 27.9982C156.922 27.0234 156.521 26.3163 155.895 25.877C155.269 25.4376 154.625 25.2179 153.964 25.2179C153.634 25.2179 153.416 25.2591 153.312 25.3415C153.207 25.4239 153.155 25.5612 153.155 25.7534V38.1102C153.155 38.3985 153.216 38.5976 153.338 38.7075C153.477 38.8036 153.712 38.8722 154.043 38.9134L155.217 39.0576C155.443 39.0713 155.556 39.1537 155.556 39.3047C155.556 39.4557 155.426 39.5312 155.165 39.5312H149.293Z" fill="black"/>
<path d="M140.593 39.7166C140.245 39.7166 139.854 39.6891 139.419 39.6342C139.001 39.5793 138.601 39.5107 138.218 39.4283C137.853 39.3459 137.566 39.2566 137.357 39.1605C137.235 39.1056 137.14 39.0507 137.07 38.9958C137.018 38.9271 136.992 38.8173 136.992 38.6663L136.861 35.4329C136.861 35.1583 136.975 35.021 137.201 35.021C137.392 35.021 137.523 35.1446 137.592 35.3917L137.827 36.1743C138.418 38.1377 139.523 39.1194 141.141 39.1194C142.011 39.1194 142.698 38.8928 143.202 38.4397C143.724 37.9729 143.985 37.3208 143.985 36.4832C143.985 35.6732 143.716 34.918 143.176 34.2178C142.654 33.5176 141.811 32.8242 140.645 32.1378C139.358 31.4101 138.418 30.7099 137.827 30.0371C137.235 29.3506 136.94 28.6229 136.94 27.8541C136.94 26.8381 137.383 26.028 138.271 25.4239C139.175 24.8061 140.323 24.4971 141.715 24.4971C142.237 24.4971 142.741 24.5452 143.229 24.6413C143.716 24.7374 144.116 24.8747 144.429 25.0532C144.533 25.1081 144.612 25.1699 144.664 25.2385C144.733 25.3072 144.768 25.3964 144.768 25.5063L144.846 28.6161C144.846 28.8495 144.733 28.9662 144.507 28.9662C144.351 28.9662 144.238 28.8701 144.168 28.6779L143.985 28.163C143.603 27.1058 143.202 26.3369 142.785 25.8564C142.385 25.3621 141.802 25.115 141.037 25.115C140.289 25.115 139.688 25.3072 139.236 25.6916C138.801 26.0761 138.584 26.6184 138.584 27.3186C138.584 27.909 138.827 28.4719 139.314 29.0074C139.801 29.5428 140.654 30.195 141.872 30.9639C143.176 31.8014 144.124 32.6114 144.716 33.394C145.325 34.1629 145.629 34.9867 145.629 35.8654C145.629 36.6343 145.412 37.307 144.977 37.8837C144.542 38.4603 143.942 38.9134 143.176 39.2429C142.428 39.5587 141.567 39.7166 140.593 39.7166Z" fill="black"/>
<path d="M124.855 39.5312C124.594 39.5312 124.463 39.4557 124.463 39.3047C124.463 39.1811 124.576 39.0987 124.802 39.0576L125.403 38.9752C125.768 38.9203 126.003 38.8447 126.107 38.7486C126.229 38.6525 126.29 38.4603 126.29 38.172V26.0623C126.29 25.774 126.229 25.5818 126.107 25.4857C126.003 25.3896 125.768 25.314 125.403 25.2591L124.802 25.1767C124.576 25.1356 124.463 25.0532 124.463 24.9296C124.463 24.7786 124.594 24.7031 124.855 24.7031H133.622C134.023 24.7031 134.24 24.861 134.275 25.1767L134.484 28.5955C134.518 28.8289 134.405 28.9456 134.144 28.9456C133.936 28.9456 133.814 28.8563 133.779 28.6778L133.622 27.9158C133.431 26.9822 133.04 26.3026 132.448 25.877C131.857 25.4376 131.039 25.2179 129.995 25.2179C129.299 25.2179 128.812 25.3003 128.534 25.4651C128.273 25.6161 128.143 25.8907 128.143 26.2889V31.2522C128.143 31.4444 128.264 31.5405 128.508 31.5405H129.813C130.578 31.5405 131.048 31.2178 131.222 30.5725L131.483 29.5428C131.552 29.3369 131.7 29.2476 131.926 29.2751C132.118 29.3025 132.213 29.4192 132.213 29.6252V34.259C132.213 34.4649 132.118 34.5816 131.926 34.6091C131.7 34.6366 131.552 34.5473 131.483 34.3414L131.222 33.3322C131.1 32.8517 130.926 32.5359 130.7 32.3849C130.491 32.2339 130.187 32.1583 129.787 32.1583H128.508C128.264 32.1583 128.143 32.2544 128.143 32.4467V37.6159C128.143 38.1102 128.299 38.4672 128.612 38.6869C128.943 38.9065 129.534 39.0164 130.387 39.0164C131.257 39.0164 131.996 38.8447 132.605 38.5015C133.231 38.1445 133.666 37.4855 133.91 36.5244L134.223 35.3093C134.275 35.1308 134.405 35.0416 134.614 35.0416C134.858 35.0416 134.962 35.1583 134.927 35.3917L134.666 39.0576C134.631 39.3733 134.414 39.5312 134.014 39.5312H124.855Z" fill="black"/>
<path d="M117.153 39.7166C116.214 39.7166 115.379 39.545 114.648 39.2017C113.935 38.8447 113.378 38.3573 112.978 37.7395C112.578 37.1079 112.378 36.3871 112.378 35.5771V26.0623C112.378 25.774 112.317 25.5818 112.195 25.4857C112.091 25.3896 111.856 25.314 111.491 25.2591L110.891 25.1767C110.664 25.1356 110.551 25.0532 110.551 24.9296C110.551 24.7786 110.682 24.7031 110.943 24.7031H115.718C115.979 24.7031 116.109 24.7854 116.109 24.9502C116.109 25.0738 116.014 25.1493 115.822 25.1767L115.118 25.2591C114.77 25.3003 114.535 25.3758 114.413 25.4857C114.292 25.5955 114.231 25.7946 114.231 26.0829V35.5976C114.231 36.6411 114.526 37.4512 115.118 38.0278C115.709 38.6045 116.536 38.8928 117.597 38.8928C118.675 38.8928 119.51 38.6045 120.102 38.0278C120.693 37.4512 120.989 36.6411 120.989 35.5976V26.4948C120.989 25.7534 120.693 25.3415 120.102 25.2591L119.397 25.1767C119.206 25.1493 119.11 25.0738 119.11 24.9502C119.11 24.7854 119.241 24.7031 119.502 24.7031H123.259C123.52 24.7031 123.651 24.7786 123.651 24.9296C123.651 25.0532 123.538 25.1356 123.312 25.1767L122.711 25.2591C122.12 25.3415 121.824 25.7465 121.824 26.4742V35.5771C121.824 36.8265 121.398 37.8287 120.546 38.5839C119.693 39.339 118.562 39.7166 117.153 39.7166Z" fill="black"/>
<path d="M93.1332 9.54534C94.0275 8.53419 95.0997 8.23431 96.0487 8.44396C96.888 8.62942 97.6001 9.20931 97.9631 9.97549C98.7823 9.24459 99.5764 9.04022 100.308 9.22506C100.981 9.39502 101.532 9.87982 101.953 10.42C103.146 9.19341 104.383 8.91995 105.453 9.19565C106.473 9.45855 107.287 10.2079 107.723 10.9627C108.966 10.7401 109.767 10.9704 110.189 11.5354C110.562 12.0359 110.554 12.6963 110.434 13.2263C110.962 13.6262 111.307 14.0188 111.492 14.4059C111.702 14.8467 111.696 15.2673 111.533 15.6365C111.376 15.9927 111.084 16.2749 110.767 16.4867C110.539 16.6384 110.287 16.7608 110.037 16.854C110.211 17.4805 110.219 18.0182 110.081 18.4685C109.919 18.9962 109.567 19.3666 109.129 19.6018C108.362 20.0145 107.323 20.021 106.453 19.7994C106.227 20.3396 105.946 20.7593 105.604 21.0595C105.203 21.4126 104.737 21.5859 104.23 21.6095C103.298 21.6531 102.248 21.1885 101.177 20.4863C98.7282 22.3689 95.8567 22.8534 93.8183 22.8534C91.952 22.8534 90.3854 22.8629 88.6703 22.8678C86.9344 22.8727 85.0488 22.8729 82.553 22.8534L82.5581 22.2305C85.0511 22.2499 86.9342 22.2497 88.6686 22.2448C89.6686 22.242 90.6201 22.2377 91.6105 22.2345C91.9896 22.6169 92.5152 22.8537 93.0962 22.8537C93.6918 22.8537 94.2286 22.6044 94.6097 22.2051C96.5198 22.0849 98.922 21.5043 100.967 19.8595L101.146 19.715L101.337 19.8444C102.456 20.6046 103.43 21.0234 104.201 20.9873C104.575 20.9699 104.904 20.8458 105.193 20.5916C105.487 20.3331 105.755 19.9255 105.972 19.317L106.074 19.0314L106.362 19.1257C107.185 19.3947 108.183 19.4033 108.834 19.053C109.149 18.8838 109.378 18.6346 109.486 18.2855C109.595 17.9296 109.589 17.433 109.355 16.7557L109.247 16.4438L109.565 16.3543C109.857 16.272 110.163 16.1403 110.421 15.9686C110.681 15.7953 110.87 15.5952 110.963 15.3849C111.05 15.1874 111.064 14.9566 110.929 14.6739C110.789 14.3787 110.481 14.0182 109.9 13.6065L109.718 13.4772L109.781 13.2633C109.93 12.7645 109.935 12.2368 109.69 11.9083C109.466 11.6084 108.921 11.3389 107.623 11.6174L107.384 11.6687L107.277 11.4487C106.945 10.7622 106.209 10.0336 105.297 9.79876C104.418 9.57215 103.308 9.78909 102.16 11.1151L101.894 11.4233L101.666 11.0849C101.255 10.4715 100.735 9.97541 100.156 9.82892C99.6095 9.69102 98.9107 9.84155 98.0644 10.7485L97.6762 11.1646L97.535 10.6133C97.3375 9.8426 96.6953 9.22493 95.9144 9.05235C95.1535 8.88421 94.2155 9.1321 93.4085 10.1907L93.1805 10.4901L92.9291 10.21C92.5753 9.81597 92.0074 9.53603 91.4765 9.59939C90.9807 9.6586 90.4072 10.0339 90.0508 11.1857L89.9902 11.3821L89.7861 11.4034C88.99 11.4874 88.5831 11.8186 88.4496 12.169C88.3154 12.5215 88.4053 13.0297 88.9011 13.5811L89.0771 13.7767L88.9137 13.9828C88.6217 14.3515 88.3181 14.9016 88.2819 15.3766C88.2646 15.6041 88.3097 15.7942 88.4257 15.9465C88.5431 16.1004 88.7632 16.2552 89.1714 16.351L89.0291 16.9574C88.5268 16.8395 88.1607 16.6262 87.9305 16.3243C87.6991 16.0209 87.635 15.6673 87.6607 15.3293C87.703 14.7734 87.9905 14.2084 88.2739 13.8005C87.81 13.1971 87.6451 12.5316 87.8676 11.9472C88.0972 11.3445 88.6945 10.9445 89.5191 10.8109C89.9325 9.63738 90.6273 9.07351 91.4028 8.98095C92.0497 8.90376 92.6789 9.16658 93.1332 9.54534Z" fill="black"/>
<path d="M69.3748 39.3047C69.3748 39.4557 69.5053 39.5312 69.7663 39.5312H75.6376C75.8985 39.5312 76.029 39.4557 76.029 39.3047C76.029 39.1537 75.9159 39.0713 75.6897 39.0576L74.5155 38.9134C74.185 38.8722 73.9501 38.8036 73.8109 38.7074C73.6892 38.5976 73.6283 38.3985 73.6283 38.1102V33.0851C73.6283 32.8654 73.6544 32.6732 73.7066 32.5084C73.7587 32.33 73.8457 32.1446 73.9675 31.9524L77.3859 26.536C77.6816 26.0829 77.9165 25.7603 78.0904 25.568C79.2598 24.276 80.9527 22.9282 82.553 22.8534L82.5581 22.2305C78.9664 21.8874 77.4155 25.0447 76.5248 26.5154L73.4456 31.4787C73.376 31.5748 73.289 31.6229 73.1847 31.6229C73.0803 31.6229 72.9933 31.5748 72.9237 31.4787L69.7141 26.0829C69.5401 25.7946 69.514 25.5818 69.6358 25.4445C69.7576 25.3072 69.9663 25.2317 70.2621 25.2179L70.7579 25.1767C71.0536 25.163 71.2015 25.0806 71.2015 24.9296C71.2015 24.7786 71.0797 24.7031 70.8361 24.7031H66.374C66.113 24.7031 65.9825 24.7717 65.9825 24.909C65.9825 25.0463 66.1043 25.1356 66.3479 25.1767L66.5827 25.2179C66.8785 25.2729 67.1046 25.3621 67.2612 25.4857C67.4177 25.6092 67.5569 25.7877 67.6787 26.0211L71.5146 32.3643C71.6886 32.6526 71.7755 32.9478 71.7755 33.2499V38.1102C71.7755 38.3985 71.7147 38.5976 71.5929 38.7074C71.4711 38.8036 71.2363 38.8722 70.8883 38.9134L69.7141 39.0576C69.4879 39.0713 69.3748 39.1537 69.3748 39.3047Z" fill="black"/>
<path d="M64.1408 39.7166C63.8625 39.7166 63.6277 39.5518 63.4363 39.2223L56.3647 27.1126C56.3125 27.0165 56.2429 26.9753 56.1559 26.9891C56.0863 27.0028 56.0515 27.0646 56.0515 27.1744V37.7601C56.0515 38.1445 56.1298 38.4397 56.2864 38.6457C56.4603 38.8379 56.7648 38.9614 57.1997 39.0164L57.5389 39.0576C57.7651 39.0713 57.8781 39.1537 57.8781 39.3047C57.8781 39.4557 57.7477 39.5312 57.4867 39.5312H53.7552C53.4942 39.5312 53.3638 39.4557 53.3638 39.3047C53.3638 39.1537 53.4768 39.0713 53.703 39.0576L54.0422 39.0164C54.4945 38.9614 54.8077 38.8379 54.9816 38.6457C55.1556 38.4397 55.2426 38.1445 55.2426 37.7601V26.0623C55.2426 25.774 55.1817 25.5818 55.0599 25.4857C54.9555 25.3896 54.7033 25.314 54.3032 25.2591L53.703 25.1767C53.4768 25.1356 53.3638 25.0532 53.3638 24.9296C53.3638 24.7786 53.4942 24.7031 53.7552 24.7031H56.5473C56.9822 24.7031 57.2867 24.8541 57.4606 25.1561L63.619 35.8448C63.6711 35.9272 63.732 35.9615 63.8016 35.9478C63.8886 35.934 63.9321 35.886 63.9321 35.8036V26.4742C63.9321 26.0349 63.8364 25.7328 63.645 25.568C63.4537 25.3896 63.2101 25.2797 62.9144 25.2385L62.4447 25.1767C62.2185 25.1356 62.1055 25.0532 62.1055 24.9296C62.1055 24.7786 62.2359 24.7031 62.4969 24.7031H66.2284C66.4894 24.7031 66.6198 24.7786 66.6198 24.9296C66.6198 25.0806 66.5068 25.163 66.2806 25.1767L65.9414 25.2179C65.4891 25.2728 65.1759 25.3896 65.002 25.568C64.828 25.7328 64.741 26.0349 64.741 26.4742V39.0576C64.741 39.3047 64.6801 39.4763 64.5584 39.5724C64.454 39.6685 64.3148 39.7166 64.1408 39.7166Z" fill="black"/>
<path fill-rule="evenodd" clip-rule="evenodd" d="M82.0656 38.7692C83.0398 39.4008 84.2315 39.7166 85.6406 39.7166C86.3538 39.7166 86.9801 39.6617 87.5194 39.5518C88.0587 39.4557 88.5371 39.3253 88.9546 39.1605C89.2155 39.0507 89.3982 38.9546 89.5026 38.8722C89.607 38.7761 89.6591 38.6525 89.6591 38.5015V32.9204C89.6591 32.632 89.6939 32.4261 89.7635 32.3025C89.435 32.3025 88.891 32.1915 88.3732 32.0859C88.0898 32.0281 87.8144 31.9719 87.5864 31.9364C86.8397 31.8201 86.5276 31.8795 86.9192 32.0966C87.2845 32.124 87.5194 32.1927 87.6238 32.3025C87.7455 32.4124 87.8064 32.6114 87.8064 32.8998V37.41C87.8064 38.0828 87.6238 38.5427 87.2584 38.7898C86.8931 39.037 86.3538 39.1605 85.6406 39.1605C84.3184 39.1605 83.2312 38.5564 82.3787 37.3482C81.5437 36.1263 81.1262 34.3551 81.1262 32.0348C81.1262 29.7831 81.535 28.0669 82.3526 26.8861C83.1877 25.6916 84.2402 25.0944 85.5101 25.0944C86.3625 25.0944 87.0323 25.3072 87.5194 25.7328C88.0065 26.1584 88.4414 26.941 88.8241 28.0806L89.0329 28.6984C89.0851 28.8769 89.2068 28.9662 89.3982 28.9662C89.607 28.9662 89.7113 28.8495 89.7113 28.6161L89.633 25.4857C89.633 25.2935 89.52 25.1493 89.2938 25.0532C88.8763 24.8884 88.3892 24.758 87.8325 24.6619C87.2758 24.552 86.6583 24.4971 85.9798 24.4971C84.6403 24.4971 83.4486 24.8129 82.4048 25.4445C81.3784 26.0623 80.5695 26.941 79.978 28.0806C79.3866 29.2064 79.0908 30.5245 79.0908 32.0348C79.0908 33.6 79.3431 34.9592 79.8476 36.1125C80.3521 37.2521 81.0914 38.1377 82.0656 38.7692Z" fill="black"/>
<path fill-rule="evenodd" clip-rule="evenodd" d="M100.342 37.573C100.938 38.4715 101.699 38.9886 102.625 39.1243C102.716 39.3361 103.08 39.7744 103.078 39.8428C102.879 39.7763 102.467 39.7152 102.254 39.657C102.118 39.6196 101.989 39.5844 101.882 39.5518C100.977 39.3184 100.16 38.8516 99.4291 38.1514C99.1388 37.8608 98.8731 37.543 98.6318 37.1978C99.1194 37.3452 100.144 37.6266 100.342 37.573ZM99.1943 32.0966C99.1943 34.0188 99.4221 35.5454 99.8779 36.6763C99.7347 36.668 98.5322 36.2302 97.9489 36.0124C97.873 35.8511 97.801 35.6854 97.733 35.5153C97.3329 34.4718 97.1328 33.3322 97.1328 32.0966C97.1328 31.0256 97.2807 30.0302 97.5764 29.1103C97.8895 28.1904 98.3158 27.3873 98.855 26.7008C99.4117 26.0005 100.055 25.4582 100.786 25.0738C101.517 24.6893 102.3 24.4971 103.135 24.4971C103.97 24.4971 104.744 24.6893 105.457 25.0738C106.188 25.4582 106.831 26.0005 107.388 26.7008C107.945 27.3873 108.371 28.1904 108.667 29.1103C108.98 30.0302 109.136 31.0256 109.136 32.0966C109.136 33.3597 108.919 34.5267 108.484 35.5977C108.066 36.6549 107.484 37.5336 106.736 38.2338C106.145 38.7998 105.486 39.2043 104.759 39.4474C104.618 39.3138 104.331 39.0283 104.31 38.9548C105 38.6918 105.574 38.1769 106.031 37.41C106.727 36.243 107.075 34.4718 107.075 32.0966C107.075 29.7213 106.727 27.957 106.031 26.8037C105.335 25.6367 104.37 25.0532 103.135 25.0532C101.917 25.0532 100.951 25.6367 100.238 26.8037C99.5422 27.957 99.1943 29.7213 99.1943 32.0966Z" fill="black"/>
<path d="M84.5915 32.9204C85.0245 32.4535 86.3889 31.4977 88.1044 31.6954C90.2488 31.9425 95.7633 35.4998 97.4747 36.4543C97.7139 36.5877 98.031 36.7222 98.4005 36.8466C98.9098 37.018 99.5185 37.17 100.159 37.273C100.656 37.3527 101.172 37.403 101.676 37.41C101.738 37.4109 101.8 37.4112 101.861 37.4111C101.774 37.308 101.684 37.2043 101.592 37.0996C101.026 37.1015 100.485 37.031 99.9828 36.9209C99.2535 36.7611 98.6069 36.5178 98.0868 36.2923C97.8568 36.1926 97.6515 36.0964 97.4747 36.0124C96.1455 35.3808 90.9659 31.9249 88.6344 31.5405C86.7692 31.233 84.9621 32.2796 84.5915 32.9204Z" fill="black"/>
<path d="M102.536 37.3876C102.455 37.2847 102.369 37.1747 102.279 37.0606C102.047 37.0865 101.818 37.0988 101.592 37.0996C101.684 37.2043 101.774 37.308 101.861 37.4111C102.095 37.4107 102.32 37.403 102.536 37.3876Z" fill="black"/>
<path d="M103.949 39.0668C103.692 39.1293 103.42 39.1605 103.135 39.1605C103.097 39.1605 103.059 39.16 103.022 39.1588C103.084 39.3229 103.134 39.346 103.27 39.5803C103.406 39.8146 103.838 40.3769 104.014 40.7597C104.358 41.5065 104.799 42.0586 105.338 42.4157C105.877 42.7729 106.448 42.9933 107.049 43.0768C107.671 43.1716 108.239 43.1831 108.753 43.1116C109.352 43.0282 109.836 42.8982 110.202 42.7217C110.589 42.5563 110.902 42.3734 111.14 42.173C111.256 42.0593 111.303 41.9551 111.282 41.8604C111.258 41.7523 111.183 41.693 111.057 41.6826C110.931 41.6723 110.807 41.7105 110.685 41.7971C110.211 42.1279 109.76 42.2789 109.203 42.4006C108.606 42.5312 108.173 42.6458 107.323 42.4006C106.473 42.1555 106.106 41.834 105.623 41.0927C105.217 40.4712 104.569 39.7362 103.949 39.0668Z" fill="black"/>
<path fill-rule="evenodd" clip-rule="evenodd" d="M106.752 31.8804C107.147 32.9702 107.109 33.9372 106.151 35.444C106.05 35.6028 105.925 35.7546 105.795 35.8906C105.565 36.1318 105.32 36.3232 105.17 36.4158C104.644 36.7401 104.475 36.8216 104.143 36.9634C103.519 37.2304 102.951 37.3582 102.536 37.3876C102.455 37.2847 102.369 37.1747 102.279 37.0606C102.561 37.0293 102.846 36.9782 103.135 36.9035C103.645 36.7712 104.257 36.4328 104.644 36.1649C104.918 35.9751 105.197 35.6271 105.218 35.5977C105.914 34.6467 106.333 33.6328 106.124 32.6989C106.055 32.3924 105.781 31.9858 105.346 31.9338C104.858 31.8757 104.085 32.1251 103.437 32.8998C102.848 31.9364 101.882 31.4737 100.905 31.7671C100.675 31.8359 100.348 32.2842 100.238 32.7646C100.11 33.3272 100.222 34.3724 100.905 35.3893C101.054 35.6115 101.33 35.9327 101.622 36.2732C101.811 36.4932 102.007 36.7212 102.18 36.9359C102.141 36.9479 101.693 36.9612 101.475 36.9663C101.426 36.9114 101.375 36.8544 101.322 36.7957C101.061 36.5031 100.765 36.1721 100.543 35.8906C100.502 35.8388 100.462 35.7881 100.422 35.738C99.7305 34.8687 99.2071 34.2106 99.4291 32.3693C99.5285 31.5457 100.177 31.0336 100.967 30.9198C101.927 30.7814 103.062 31.2224 103.54 32.3025C103.819 31.6814 104.645 31.0989 105.482 31.1078C105.946 31.1127 106.576 31.3933 106.752 31.8804Z" fill="black"/>
<path fill-rule="evenodd" clip-rule="evenodd" d="M103.949 39.0668C103.692 39.1293 103.42 39.1605 103.135 39.1605C103.097 39.1605 103.059 39.16 103.022 39.1588C102.901 38.8411 102.779 38.6665 102.55 38.341C102.483 38.2442 102.406 38.134 102.316 38.0028C102.219 37.8592 102.11 37.7164 101.994 37.573C102.193 37.565 102.602 37.5447 102.647 37.5277C102.719 37.6199 102.786 37.7041 102.844 37.7776C102.919 37.8722 102.98 37.9491 103.022 38.0028C103.368 38.4439 103.693 38.7924 103.882 38.9955C103.907 39.0217 103.929 39.0455 103.949 39.0668Z" fill="black"/>
<circle cx="90.6826" cy="24.2582" r="1" stroke="black" stroke-width="0.505019"/>
<circle cx="90.6826" cy="24.2582" r="1" stroke="black" stroke-width="0.505019"/>
<path d="M94.4526 20.7614C94.4526 20.0122 93.8454 19.4048 93.0963 19.4048C92.3471 19.4048 91.7397 20.0122 91.7397 20.7614C91.7398 21.5105 92.3471 22.1177 93.0963 22.1177V22.6325L93 22.6303C92.0431 22.5818 91.2759 21.8145 91.2274 20.8576L91.2249 20.7614C91.2249 19.7278 92.0628 18.8899 93.0963 18.8899L93.1926 18.8925C94.1813 18.9426 94.9674 19.7602 94.9674 20.7614L94.9652 20.8576C94.915 21.8464 94.0974 22.6325 93.0963 22.6325V22.1177C93.8454 22.1176 94.4525 21.5105 94.4526 20.7614Z" fill="black"/>
<path d="M94.4526 20.7614C94.4526 20.0122 93.8454 19.4048 93.0963 19.4048C92.3471 19.4048 91.7397 20.0122 91.7397 20.7614C91.7398 21.5105 92.3471 22.1177 93.0963 22.1177V22.6325L93 22.6303C92.0431 22.5818 91.2759 21.8145 91.2274 20.8576L91.2249 20.7614C91.2249 19.7278 92.0628 18.8899 93.0963 18.8899L93.1926 18.8925C94.1813 18.9426 94.9674 19.7602 94.9674 20.7614L94.9652 20.8576C94.915 21.8464 94.0974 22.6325 93.0963 22.6325V22.1177C93.8454 22.1176 94.4525 21.5105 94.4526 20.7614Z" fill="black"/>
<path d="M68.6103 79.233C68.5836 79.4063 68.5569 79.5996 68.5303 79.813C68.5169 80.0263 68.5036 80.2796 68.4903 80.573C68.4903 80.773 68.4836 81.073 68.4703 81.473C68.4703 81.873 68.4703 82.3263 68.4703 82.833C68.4703 83.3263 68.4703 83.8263 68.4703 84.333C68.4703 84.8396 68.4703 85.3063 68.4703 85.733C68.4703 86.3996 68.4836 87.0996 68.5103 87.833C68.5369 88.5663 68.5703 89.2796 68.6103 89.973C68.6503 90.6663 68.6836 91.2996 68.7103 91.873C68.7369 92.4463 68.7503 92.8996 68.7503 93.233C68.7503 93.6996 68.6369 94.1463 68.4103 94.573C68.1969 94.9996 67.8303 95.3463 67.3103 95.613C66.8036 95.893 66.1103 96.033 65.2303 96.033C63.7903 96.033 62.6903 95.7796 61.9303 95.273C61.1703 94.7796 60.7903 94.053 60.7903 93.093C60.7903 92.4796 60.9703 91.9463 61.3303 91.493C61.7036 91.0396 62.2369 90.6863 62.9303 90.433C63.6236 90.1663 64.4503 90.033 65.4103 90.033C66.4636 90.033 67.4503 90.1596 68.3703 90.413C69.3036 90.653 70.1569 90.9596 70.9303 91.333C71.7036 91.7063 72.3903 92.0996 72.9903 92.513C73.5903 92.913 74.0836 93.273 74.4703 93.593L73.5503 95.013C73.0969 94.5863 72.5703 94.1596 71.9703 93.733C71.3836 93.3063 70.7369 92.913 70.0303 92.553C69.3369 92.193 68.5836 91.9063 67.7703 91.693C66.9703 91.4663 66.1169 91.353 65.2103 91.353C64.2503 91.353 63.5169 91.513 63.0103 91.833C62.5169 92.153 62.2703 92.5463 62.2703 93.013C62.2703 93.3063 62.3636 93.5796 62.5503 93.833C62.7369 94.073 63.0369 94.2663 63.4503 94.413C63.8636 94.5596 64.3969 94.633 65.0503 94.633C65.4369 94.633 65.7903 94.5863 66.1103 94.493C66.4303 94.3863 66.6836 94.2063 66.8703 93.953C67.0703 93.6996 67.1703 93.3463 67.1703 92.893C67.1703 92.5063 67.1569 92.0063 67.1303 91.393C67.1169 90.7663 67.0969 90.1063 67.0703 89.413C67.0436 88.7063 67.0169 88.0263 66.9903 87.373C66.9769 86.7196 66.9703 86.173 66.9703 85.733C66.9703 85.2796 66.9703 84.8196 66.9703 84.353C66.9703 83.873 66.9703 83.3996 66.9703 82.933C66.9703 82.4663 66.9703 82.0196 66.9703 81.593C66.9836 81.1663 66.9903 80.7796 66.9903 80.433C66.9903 80.273 66.9836 80.0663 66.9703 79.813C66.9569 79.5596 66.9369 79.3663 66.9103 79.233H68.6103ZM60.9503 81.413C61.2836 81.4663 61.6703 81.5196 62.1103 81.573C62.5503 81.6263 63.0103 81.6796 63.4903 81.733C63.9836 81.773 64.4503 81.8063 64.8903 81.833C65.3436 81.8463 65.7369 81.853 66.0703 81.853C67.3369 81.853 68.6303 81.8063 69.9503 81.713C71.2836 81.6196 72.5969 81.4663 73.8903 81.253L73.8703 82.713C73.1369 82.793 72.3369 82.873 71.4703 82.953C70.6036 83.033 69.7103 83.0996 68.7903 83.153C67.8836 83.2063 66.9836 83.233 66.0903 83.233C65.6236 83.233 65.0703 83.213 64.4303 83.173C63.7903 83.133 63.1569 83.0863 62.5303 83.033C61.9169 82.9796 61.3969 82.933 60.9703 82.893L60.9503 81.413ZM60.8503 85.653C61.2103 85.7063 61.6103 85.7596 62.0503 85.813C62.4903 85.8663 62.9436 85.9063 63.4103 85.933C63.8769 85.9596 64.3236 85.9863 64.7503 86.013C65.1769 86.0263 65.5569 86.033 65.8903 86.033C66.8636 86.033 67.8036 86.013 68.7103 85.973C69.6303 85.9196 70.5303 85.853 71.4103 85.773C72.3036 85.6796 73.1836 85.5663 74.0503 85.433L74.0303 86.933C73.3636 87.0263 72.6969 87.1063 72.0303 87.173C71.3769 87.2263 70.7169 87.273 70.0503 87.313C69.3969 87.353 68.7236 87.3863 68.0303 87.413C67.3503 87.4263 66.6303 87.433 65.8703 87.433C65.4169 87.433 64.8903 87.4196 64.2903 87.393C63.7036 87.3663 63.1036 87.333 62.4903 87.293C61.8903 87.253 61.3503 87.2063 60.8703 87.153L60.8503 85.653ZM81.1844 93.1243L81.0707 93.8914C80.9902 94.4312 80.8671 95.0088 80.7014 95.6243C80.5404 96.2399 80.3723 96.8199 80.1971 97.3644C80.022 97.9089 79.8775 98.3421 79.7639 98.6641H78.4855C78.547 98.3611 78.6275 97.961 78.727 97.4638C78.8264 96.9667 78.9258 96.4103 79.0253 95.7948C79.1294 95.184 79.2147 94.559 79.281 93.9198L79.3662 93.1243H81.1844ZM89.5557 79.533C89.5024 79.8663 89.4624 80.2063 89.4357 80.553C89.4091 80.8863 89.3891 81.2196 89.3757 81.553C89.3491 82.113 89.3224 82.8063 89.2957 83.633C89.2691 84.4596 89.2424 85.3396 89.2157 86.273C89.1891 87.193 89.1691 88.113 89.1557 89.033C89.1424 89.953 89.1357 90.7796 89.1357 91.513C89.1357 92.2463 89.2757 92.833 89.5557 93.273C89.8357 93.713 90.2224 94.0263 90.7157 94.213C91.2091 94.3996 91.7757 94.493 92.4157 94.493C93.3224 94.493 94.1424 94.3796 94.8757 94.153C95.6091 93.913 96.2624 93.5996 96.8357 93.213C97.4091 92.813 97.9157 92.3663 98.3557 91.873C98.8091 91.3796 99.2157 90.873 99.5757 90.353L100.716 91.713C100.369 92.193 99.9424 92.693 99.4357 93.213C98.9424 93.7196 98.3557 94.193 97.6757 94.633C96.9957 95.073 96.2091 95.433 95.3157 95.713C94.4357 95.993 93.4491 96.133 92.3557 96.133C91.4091 96.133 90.5691 95.9863 89.8357 95.693C89.1024 95.3996 88.5291 94.9263 88.1157 94.273C87.7024 93.6196 87.4957 92.753 87.4957 91.673C87.4957 91.073 87.5024 90.413 87.5157 89.693C87.5291 88.9596 87.5491 88.2063 87.5757 87.433C87.6024 86.6596 87.6224 85.9063 87.6357 85.173C87.6491 84.4263 87.6624 83.7396 87.6757 83.113C87.6891 82.4863 87.6957 81.9663 87.6957 81.553C87.6957 81.1796 87.6824 80.8196 87.6557 80.473C87.6291 80.1263 87.5891 79.8063 87.5357 79.513L89.5557 79.533ZM106.79 93.1243L106.676 93.8914C106.596 94.4312 106.473 95.0088 106.307 95.6243C106.146 96.2399 105.978 96.8199 105.803 97.3644C105.627 97.9089 105.483 98.3421 105.369 98.6641H104.091C104.153 98.3611 104.233 97.961 104.332 97.4638C104.432 96.9667 104.531 96.4103 104.631 95.7948C104.735 95.184 104.82 94.559 104.886 93.9198L104.972 93.1243H106.79ZM117.121 79.513C117.081 79.6863 117.041 79.8796 117.001 80.093C116.961 80.293 116.921 80.493 116.881 80.693C116.841 80.933 116.781 81.2596 116.701 81.673C116.635 82.0863 116.561 82.5263 116.481 82.993C116.401 83.4463 116.308 83.8796 116.201 84.293C116.068 84.8663 115.901 85.513 115.701 86.233C115.501 86.9396 115.275 87.693 115.021 88.493C114.768 89.293 114.481 90.113 114.161 90.953C113.841 91.7796 113.488 92.6063 113.101 93.433C112.715 94.2463 112.295 95.013 111.841 95.733L110.201 95.093C110.668 94.4796 111.095 93.793 111.481 93.033C111.881 92.273 112.248 91.4863 112.581 90.673C112.915 89.8463 113.215 89.033 113.481 88.233C113.761 87.433 113.995 86.693 114.181 86.013C114.368 85.333 114.515 84.7463 114.621 84.253C114.808 83.453 114.961 82.6263 115.081 81.773C115.201 80.9063 115.261 80.0863 115.261 79.313L117.121 79.513ZM124.001 81.633C124.321 82.0463 124.655 82.5596 125.001 83.173C125.361 83.7863 125.708 84.4396 126.041 85.133C126.388 85.8263 126.701 86.493 126.981 87.133C127.261 87.773 127.488 88.3263 127.661 88.793L126.101 89.533C125.955 89.0263 125.755 88.4463 125.501 87.793C125.248 87.1263 124.955 86.453 124.621 85.773C124.301 85.0796 123.961 84.433 123.601 83.833C123.255 83.2196 122.901 82.7063 122.541 82.293L124.001 81.633ZM109.921 83.893C110.228 83.9196 110.521 83.933 110.801 83.933C111.081 83.9196 111.381 83.9063 111.701 83.893C112.008 83.8796 112.395 83.8596 112.861 83.833C113.328 83.793 113.835 83.753 114.381 83.713C114.941 83.673 115.488 83.633 116.021 83.593C116.568 83.5396 117.068 83.4996 117.521 83.473C117.988 83.433 118.355 83.413 118.621 83.413C119.221 83.413 119.761 83.5063 120.241 83.693C120.735 83.8796 121.128 84.2196 121.421 84.713C121.715 85.2063 121.861 85.8996 121.861 86.793C121.861 87.5796 121.821 88.433 121.741 89.353C121.675 90.2596 121.555 91.1263 121.381 91.953C121.208 92.7796 120.981 93.4663 120.701 94.013C120.395 94.693 119.995 95.1396 119.501 95.353C119.008 95.5796 118.435 95.693 117.781 95.693C117.408 95.693 117.001 95.6596 116.561 95.593C116.121 95.5396 115.741 95.473 115.421 95.393L115.161 93.733C115.455 93.813 115.748 93.8863 116.041 93.953C116.348 94.0196 116.641 94.0663 116.921 94.093C117.201 94.1196 117.435 94.133 117.621 94.133C117.981 94.133 118.308 94.073 118.601 93.953C118.908 93.8196 119.161 93.5396 119.361 93.113C119.575 92.6596 119.748 92.093 119.881 91.413C120.028 90.7196 120.135 89.9863 120.201 89.213C120.281 88.4396 120.321 87.6996 120.321 86.993C120.321 86.3663 120.235 85.9063 120.061 85.613C119.888 85.3063 119.641 85.0996 119.321 84.993C119.001 84.873 118.628 84.813 118.201 84.813C117.855 84.813 117.395 84.8396 116.821 84.893C116.248 84.933 115.635 84.9863 114.981 85.053C114.341 85.1196 113.741 85.1863 113.181 85.253C112.621 85.3063 112.188 85.353 111.881 85.393C111.655 85.4196 111.361 85.4596 111.001 85.513C110.655 85.553 110.348 85.593 110.081 85.633L109.921 83.893ZM132.395 93.1243L132.282 93.8914C132.201 94.4312 132.078 95.0088 131.912 95.6243C131.751 96.2399 131.583 96.8199 131.408 97.3644C131.233 97.9089 131.088 98.3421 130.975 98.6641H129.696C129.758 98.3611 129.838 97.961 129.938 97.4638C130.037 96.9667 130.137 96.4103 130.236 95.7948C130.34 95.184 130.426 94.559 130.492 93.9198L130.577 93.1243H132.395ZM148.047 80.353C147.833 80.513 147.593 80.713 147.327 80.953C147.06 81.1796 146.84 81.3596 146.667 81.493C146.32 81.7996 145.9 82.1596 145.407 82.573C144.913 82.973 144.393 83.3996 143.847 83.853C143.3 84.293 142.773 84.7196 142.267 85.133C141.76 85.533 141.32 85.893 140.947 86.213C140.547 86.5596 140.28 86.8463 140.147 87.073C140.013 87.2863 140.013 87.5063 140.147 87.733C140.293 87.9596 140.58 88.2596 141.007 88.633C141.38 88.9263 141.807 89.273 142.287 89.673C142.767 90.0596 143.273 90.4796 143.807 90.933C144.353 91.3863 144.907 91.853 145.467 92.333C146.027 92.813 146.567 93.2863 147.087 93.753C147.607 94.2196 148.073 94.6663 148.487 95.093L147.067 96.413C146.653 95.933 146.193 95.4463 145.687 94.953C145.34 94.593 144.907 94.173 144.387 93.693C143.867 93.213 143.307 92.713 142.707 92.193C142.12 91.673 141.533 91.173 140.947 90.693C140.373 90.1996 139.853 89.7596 139.387 89.373C138.747 88.8396 138.34 88.373 138.167 87.973C137.993 87.5596 138.027 87.153 138.267 86.753C138.507 86.353 138.927 85.9063 139.527 85.413C139.9 85.093 140.347 84.7196 140.867 84.293C141.4 83.8663 141.953 83.4196 142.527 82.953C143.1 82.473 143.64 82.013 144.147 81.573C144.667 81.1196 145.093 80.7196 145.427 80.373C145.627 80.173 145.833 79.9463 146.047 79.693C146.273 79.4396 146.447 79.2196 146.567 79.033L148.047 80.353Z" fill="black"/>
<path d="M40.3413 51.633V66.1785H38.58V53.4796H38.4948L34.9436 55.8376V54.0478L38.58 51.633H40.3413ZM39.1055 72.5705C37.5951 72.5705 36.1557 72.3409 34.7874 71.8816C33.4237 71.4223 32.1714 70.7736 31.0303 69.9356C29.8939 69.1022 28.9067 68.115 28.0686 66.9739C27.2353 65.8376 26.589 64.5876 26.1297 63.2239C25.6704 61.8555 25.4408 60.4162 25.4408 58.9057C25.4408 57.3953 25.6704 55.9583 26.1297 54.5947C26.589 53.2263 27.2353 51.9739 28.0686 50.8376C28.9067 49.6965 29.8939 48.7092 31.0303 47.8759C32.1714 47.0378 33.4237 46.3892 34.7874 45.9299C36.1557 45.4706 37.5951 45.241 39.1055 45.241C40.616 45.241 42.053 45.4706 43.4166 45.9299C44.785 46.3892 46.0374 47.0378 47.1737 47.8759C48.3148 48.7092 49.302 49.6965 50.1354 50.8376C50.9734 51.9739 51.6221 53.2263 52.0814 54.5947C52.5407 55.9583 52.7703 57.3953 52.7703 58.9057C52.7703 60.4162 52.5407 61.8555 52.0814 63.2239C51.6221 64.5876 50.9734 65.8376 50.1354 66.9739C49.302 68.115 48.3148 69.1022 47.1737 69.9356C46.0374 70.7736 44.785 71.4223 43.4166 71.8816C42.053 72.3409 40.616 72.5705 39.1055 72.5705ZM39.1055 70.9228C40.436 70.9228 41.7002 70.7192 42.8982 70.312C44.1008 69.9095 45.2017 69.339 46.2007 68.6003C47.2045 67.8664 48.0733 67 48.8073 66.0009C49.5459 64.9971 50.1164 63.8963 50.5189 62.6984C50.9214 61.4957 51.1226 60.2315 51.1226 58.9057C51.1226 57.5752 50.9214 56.311 50.5189 55.1131C50.1164 53.9105 49.5459 52.8096 48.8073 51.8106C48.0733 50.8068 47.2045 49.9379 46.2007 49.204C45.2017 48.4654 44.1008 47.8948 42.8982 47.4924C41.7002 47.0899 40.436 46.8887 39.1055 46.8887C37.7751 46.8887 36.5085 47.0899 35.3058 47.4924C34.1079 47.8948 33.0071 48.4654 32.0033 49.204C31.0042 49.9379 30.1354 50.8068 29.3967 51.8106C28.6628 52.8096 28.0947 53.9105 27.6922 55.1131C27.2897 56.311 27.0885 57.5752 27.0885 58.9057C27.0885 60.2315 27.2897 61.4957 27.6922 62.6984C28.0947 63.8963 28.6628 64.9971 29.3967 66.0009C30.1354 67 31.0042 67.8664 32.0033 68.6003C33.0071 69.339 34.1079 69.9095 35.3058 70.312C36.5085 70.7192 37.7751 70.9228 39.1055 70.9228ZM59.3865 50.7985C59.3598 51.0251 59.3331 51.2851 59.3065 51.5785C59.2798 51.8585 59.2665 52.1385 59.2665 52.4185C59.2665 52.5918 59.2665 52.9385 59.2665 53.4585C59.2665 53.9651 59.2665 54.5785 59.2665 55.2985C59.2665 56.0051 59.2665 56.7585 59.2665 57.5585C59.2665 58.3451 59.2665 59.1051 59.2665 59.8385C59.2665 60.5718 59.2665 61.2185 59.2665 61.7785C59.2665 62.3251 59.2665 62.7251 59.2665 62.9785C59.2665 63.4851 59.3798 63.8385 59.6065 64.0385C59.8331 64.2251 60.1865 64.3651 60.6665 64.4585C60.9865 64.5118 61.3865 64.5518 61.8665 64.5785C62.3465 64.6051 62.8331 64.6185 63.3265 64.6185C63.8465 64.6185 64.4131 64.6051 65.0265 64.5785C65.6531 64.5518 66.2798 64.5118 66.9065 64.4585C67.5331 64.4051 68.1265 64.3385 68.6865 64.2585C69.2598 64.1785 69.7531 64.0851 70.1665 63.9785V65.7985C69.5931 65.8918 68.8998 65.9718 68.0865 66.0385C67.2865 66.0918 66.4598 66.1385 65.6065 66.1785C64.7531 66.2051 63.9665 66.2185 63.2465 66.2185C62.6465 66.2185 62.0665 66.2051 61.5065 66.1785C60.9465 66.1385 60.4531 66.0851 60.0265 66.0185C59.2665 65.8851 58.6798 65.6251 58.2665 65.2385C57.8531 64.8385 57.6465 64.2318 57.6465 63.4185C57.6465 63.0985 57.6465 62.6385 57.6465 62.0385C57.6465 61.4251 57.6465 60.7318 57.6465 59.9585C57.6465 59.1851 57.6465 58.3985 57.6465 57.5985C57.6465 56.7851 57.6465 56.0185 57.6465 55.2985C57.6465 54.5785 57.6465 53.9651 57.6465 53.4585C57.6465 52.9385 57.6465 52.5918 57.6465 52.4185C57.6465 52.2318 57.6398 52.0451 57.6265 51.8585C57.6131 51.6585 57.5998 51.4651 57.5865 51.2785C57.5731 51.0918 57.5531 50.9318 57.5265 50.7985H59.3865ZM58.5465 57.0985C59.1465 56.9651 59.8131 56.7985 60.5465 56.5985C61.2931 56.3985 62.0598 56.1785 62.8465 55.9385C63.6331 55.6985 64.3931 55.4518 65.1265 55.1985C65.8731 54.9318 66.5331 54.6718 67.1065 54.4185C67.4131 54.2851 67.7065 54.1451 67.9865 53.9985C68.2798 53.8518 68.5731 53.6851 68.8665 53.4985L69.5665 55.1185C69.2865 55.2251 68.9731 55.3518 68.6265 55.4985C68.2931 55.6451 67.9731 55.7785 67.6665 55.8985C67.0531 56.1518 66.3465 56.4185 65.5465 56.6985C64.7598 56.9651 63.9465 57.2318 63.1065 57.4985C62.2665 57.7518 61.4531 57.9918 60.6665 58.2185C59.8798 58.4318 59.1731 58.6118 58.5465 58.7585V57.0985ZM77.5465 51.5185C77.9065 51.7585 78.3198 52.0585 78.7865 52.4185C79.2531 52.7651 79.7265 53.1385 80.2065 53.5385C80.6998 53.9251 81.1598 54.3051 81.5865 54.6785C82.0131 55.0518 82.3665 55.3785 82.6465 55.6585L81.3865 56.9185C81.1331 56.6651 80.8065 56.3518 80.4065 55.9785C80.0065 55.6051 79.5665 55.2185 79.0865 54.8185C78.6065 54.4051 78.1331 54.0185 77.6665 53.6585C77.1998 53.2851 76.7798 52.9785 76.4065 52.7385L77.5465 51.5185ZM75.8265 64.9185C76.9998 64.7451 78.0665 64.5051 79.0265 64.1985C79.9998 63.8918 80.8865 63.5451 81.6865 63.1585C82.4865 62.7718 83.1998 62.3851 83.8265 61.9985C84.8531 61.3585 85.7998 60.6251 86.6665 59.7985C87.5331 58.9585 88.2931 58.0918 88.9465 57.1985C89.5998 56.3051 90.1198 55.4518 90.5065 54.6385L91.4665 56.3385C91.0131 57.1651 90.4531 58.0051 89.7865 58.8585C89.1198 59.7118 88.3665 60.5318 87.5265 61.3185C86.6865 62.1051 85.7598 62.8185 84.7465 63.4585C84.0798 63.8718 83.3465 64.2785 82.5465 64.6785C81.7598 65.0785 80.8931 65.4451 79.9465 65.7785C79.0131 66.0985 77.9931 66.3585 76.8865 66.5585L75.8265 64.9185ZM99.7465 64.4185C99.7465 64.2318 99.7465 63.8585 99.7465 63.2985C99.7465 62.7251 99.7465 62.0518 99.7465 61.2785C99.7465 60.4918 99.7465 59.6718 99.7465 58.8185C99.7465 57.9518 99.7465 57.1118 99.7465 56.2985C99.7465 55.4851 99.7465 54.7651 99.7465 54.1385C99.7465 53.5118 99.7465 53.0585 99.7465 52.7785C99.7465 52.4985 99.7331 52.1585 99.7065 51.7585C99.6798 51.3585 99.6398 51.0051 99.5865 50.6985H101.546C101.52 50.9918 101.486 51.3385 101.446 51.7385C101.42 52.1385 101.406 52.4851 101.406 52.7785C101.406 53.2985 101.406 53.9251 101.406 54.6585C101.406 55.3785 101.406 56.1518 101.406 56.9785C101.406 57.7918 101.406 58.6051 101.406 59.4185C101.42 60.2185 101.426 60.9718 101.426 61.6785C101.426 62.3718 101.426 62.9651 101.426 63.4585C101.426 63.9385 101.426 64.2585 101.426 64.4185C101.426 64.6318 101.426 64.8785 101.426 65.1585C101.44 65.4385 101.46 65.7251 101.486 66.0185C101.513 66.2985 101.533 66.5518 101.546 66.7785H99.6065C99.6598 66.4585 99.6931 66.0785 99.7065 65.6385C99.7331 65.1985 99.7465 64.7918 99.7465 64.4185ZM101.066 55.9385C101.72 56.1385 102.44 56.3785 103.226 56.6585C104.026 56.9251 104.84 57.2118 105.666 57.5185C106.493 57.8251 107.273 58.1385 108.006 58.4585C108.753 58.7651 109.4 59.0585 109.946 59.3385L109.266 61.0385C108.693 60.7185 108.046 60.4051 107.326 60.0985C106.606 59.7785 105.866 59.4651 105.106 59.1585C104.36 58.8518 103.633 58.5785 102.926 58.3385C102.233 58.0851 101.613 57.8785 101.066 57.7185V55.9385ZM119.626 51.633V66.1785H117.864V53.4796H117.779L114.228 55.8376V54.0478L117.864 51.633H119.626Z" fill="black"/>
</svg>
