<svg width="211" height="149" viewBox="0 0 211 149" fill="none" xmlns="http://www.w3.org/2000/svg">
<rect width="210" height="148.5" transform="matrix(-1 0 0 -1 210.65 148.5)" fill="white"/>
<path d="M99.2635 84.642V83.1079H108.014V84.642H99.2635ZM99.2635 88.8466V87.3125H108.014V88.8466H99.2635ZM125.572 82.3409C125.487 81.6212 125.141 81.0625 124.535 80.6647C123.929 80.267 123.186 80.0682 122.305 80.0682C121.661 80.0682 121.098 80.1723 120.615 80.3807C120.136 80.589 119.762 80.8754 119.493 81.24C119.227 81.6046 119.095 82.0189 119.095 82.4829C119.095 82.8712 119.187 83.205 119.372 83.4843C119.561 83.759 119.803 83.9886 120.096 84.1733C120.39 84.3532 120.698 84.5023 121.02 84.6207C121.342 84.7343 121.637 84.8267 121.907 84.8977L123.385 85.2954C123.763 85.3949 124.185 85.5322 124.649 85.7074C125.118 85.8825 125.565 86.1217 125.991 86.4247C126.422 86.723 126.777 87.1065 127.056 87.5753C127.336 88.044 127.476 88.6193 127.476 89.3011C127.476 90.0871 127.27 90.7973 126.858 91.4318C126.45 92.0663 125.854 92.5705 125.068 92.9446C124.287 93.3186 123.337 93.5057 122.22 93.5057C121.178 93.5057 120.276 93.3376 119.514 93.0014C118.756 92.6652 118.16 92.1965 117.724 91.5951C117.293 90.9938 117.049 90.2954 116.993 89.5H118.811C118.858 90.0492 119.043 90.5038 119.365 90.8636C119.691 91.2187 120.103 91.4839 120.601 91.6591C121.102 91.8295 121.642 91.9147 122.22 91.9147C122.892 91.9147 123.496 91.8058 124.031 91.588C124.566 91.3655 124.99 91.0577 125.302 90.6647C125.615 90.267 125.771 89.803 125.771 89.2727C125.771 88.7897 125.636 88.3967 125.366 88.0937C125.096 87.7907 124.741 87.5445 124.301 87.3551C123.86 87.1657 123.385 87 122.873 86.8579L121.083 86.3466C119.947 86.0199 119.047 85.5535 118.385 84.9474C117.722 84.3414 117.39 83.5483 117.39 82.5682C117.39 81.7538 117.61 81.0435 118.051 80.4375C118.496 79.8267 119.092 79.3532 119.841 79.017C120.593 78.6761 121.434 78.5057 122.362 78.5057C123.299 78.5057 124.133 78.6737 124.862 79.0099C125.591 79.3414 126.169 79.7959 126.595 80.3735C127.026 80.9512 127.253 81.607 127.277 82.3409H125.572ZM137.445 86.6875V93.25H135.769V78.7045H137.445V84.0454H137.587C137.843 83.482 138.227 83.0345 138.738 82.7031C139.254 82.3669 139.941 82.1988 140.798 82.1988C141.541 82.1988 142.192 82.348 142.751 82.6463C143.309 82.9398 143.743 83.392 144.05 84.0028C144.363 84.6089 144.519 85.3807 144.519 86.3182V93.25H142.843V86.4318C142.843 85.5653 142.618 84.8953 142.168 84.4218C141.723 83.9436 141.105 83.7045 140.315 83.7045C139.765 83.7045 139.273 83.8205 138.837 84.0525C138.406 84.2845 138.066 84.6231 137.815 85.0682C137.568 85.5132 137.445 86.053 137.445 86.6875ZM153.438 93.25V78.7045H162.216V80.267H155.199V85.1818H161.762V86.7443H155.199V91.6875H162.33V93.25H153.438Z" fill="black"/>
<path d="M48.8587 93.4488C47.9212 93.4488 47.0855 93.2878 46.3516 92.9659C45.6224 92.6439 45.0424 92.1965 44.6115 91.6235C44.1854 91.0459 43.9534 90.3759 43.9155 89.6136H45.7053C45.7431 90.0824 45.9041 90.4872 46.1882 90.8281C46.4723 91.1643 46.844 91.4247 47.3033 91.6093C47.7626 91.794 48.2716 91.8863 48.8303 91.8863C49.4553 91.8863 50.0092 91.7774 50.4922 91.5596C50.9751 91.3418 51.3539 91.0388 51.6286 90.6505C51.9032 90.2623 52.0405 89.8125 52.0405 89.3011C52.0405 88.7661 51.9079 88.295 51.6428 87.8878C51.3776 87.4758 50.9894 87.1539 50.478 86.9218C49.9666 86.6898 49.3416 86.5738 48.603 86.5738H47.4382V85.0113H48.603C49.1806 85.0113 49.6873 84.9072 50.1229 84.6988C50.5632 84.4905 50.9065 84.1969 51.1527 83.8182C51.4037 83.4394 51.5291 82.9943 51.5291 82.4829C51.5291 81.9905 51.4202 81.562 51.2024 81.1974C50.9846 80.8328 50.6769 80.5487 50.2791 80.3451C49.8861 80.1415 49.4221 80.0397 48.8871 80.0397C48.3852 80.0397 47.9117 80.1321 47.4666 80.3167C47.0263 80.4967 46.6664 80.7594 46.3871 81.1051C46.1077 81.446 45.9562 81.8579 45.9325 82.3409H44.228C44.2564 81.5786 44.486 80.911 44.9169 80.338C45.3478 79.7604 45.9112 79.3106 46.6073 78.9886C47.308 78.6666 48.0774 78.5057 48.9155 78.5057C49.8151 78.5057 50.5869 78.6879 51.2308 79.0525C51.8748 79.4124 52.3696 79.8882 52.7152 80.4801C53.0609 81.0719 53.2337 81.7111 53.2337 82.3977C53.2337 83.2168 53.0182 83.9152 52.5874 84.4929C52.1612 85.0705 51.5812 85.4706 50.8473 85.6932V85.8068C51.7659 85.9583 52.4832 86.3489 52.9993 86.9787C53.5154 87.6037 53.7734 88.3778 53.7734 89.3011C53.7734 90.0918 53.558 90.8021 53.1271 91.4318C52.701 92.0568 52.1186 92.5492 51.38 92.9091C50.6413 93.2689 49.8009 93.4488 48.8587 93.4488ZM61.9624 90.267V88.8182L68.3544 78.7045H69.4055V80.9488H68.6953L63.8658 88.5909V88.7045H72.4737V90.267H61.9624ZM68.809 93.25V89.8267V89.152V78.7045H70.4851V93.25H68.809ZM85.3058 93.4488C84.4724 93.4488 83.722 93.2831 83.0543 92.9517C82.3867 92.6202 81.8517 92.1657 81.4492 91.588C81.0468 91.0104 80.8266 90.3522 80.7887 89.6136H82.4933C82.5595 90.2717 82.8578 90.8163 83.3881 91.2471C83.9232 91.6733 84.5624 91.8863 85.3058 91.8863C85.9024 91.8863 86.4327 91.7467 86.8967 91.4673C87.3654 91.1879 87.7324 90.8044 87.9975 90.3167C88.2674 89.8243 88.4024 89.268 88.4024 88.6477C88.4024 88.0132 88.2627 87.4474 87.9833 86.9503C87.7087 86.4484 87.3299 86.053 86.847 85.7642C86.364 85.4753 85.8124 85.3286 85.1921 85.3238C84.747 85.3191 84.2901 85.3878 83.8214 85.5298C83.3526 85.6671 82.9667 85.8447 82.6637 86.0625L81.016 85.8636L81.8967 78.7045H89.4535V80.267H83.3739L82.8626 84.5568H82.9478C83.2461 84.32 83.6202 84.1235 84.07 83.9673C84.5198 83.811 84.9885 83.7329 85.4762 83.7329C86.3664 83.7329 87.1595 83.946 87.8555 84.3721C88.5562 84.7935 89.1055 85.3712 89.5032 86.1051C89.9057 86.839 90.1069 87.6771 90.1069 88.6193C90.1069 89.5473 89.8986 90.3759 89.4819 91.1051C89.07 91.8295 88.5018 92.4024 87.7774 92.8238C87.0529 93.2405 86.2291 93.4488 85.3058 93.4488Z" fill="#FF0000"/>
<path d="M149.293 39.5312C149.032 39.5312 148.902 39.4557 148.902 39.3047C148.902 39.1537 149.015 39.0713 149.241 39.0576L150.415 38.9134C150.763 38.8722 150.998 38.8036 151.12 38.7075C151.242 38.5976 151.303 38.3985 151.303 38.1102V25.7534C151.303 25.5612 151.25 25.4239 151.146 25.3415C151.042 25.2591 150.824 25.2179 150.494 25.2179C149.85 25.2179 149.215 25.4376 148.589 25.877C147.962 26.3163 147.554 27.0234 147.362 27.9982L147.232 28.6778C147.197 28.8563 147.075 28.9456 146.867 28.9456C146.606 28.9456 146.492 28.8289 146.527 28.5955L146.762 24.8678C146.797 24.552 146.954 24.3941 147.232 24.3941C147.354 24.3941 147.467 24.4216 147.571 24.4765C147.675 24.5177 147.849 24.5658 148.093 24.6207C148.354 24.6756 148.763 24.7031 149.319 24.7031H155.139C155.695 24.7031 156.095 24.6756 156.339 24.6207C156.6 24.5658 156.782 24.5177 156.887 24.4765C157.009 24.4216 157.122 24.3941 157.226 24.3941C157.504 24.3941 157.661 24.552 157.696 24.8678L157.931 28.5955C157.965 28.8289 157.852 28.9456 157.591 28.9456C157.383 28.9456 157.261 28.8563 157.226 28.6778L157.096 27.9982C156.922 27.0234 156.522 26.3163 155.895 25.877C155.269 25.4376 154.625 25.2179 153.964 25.2179C153.634 25.2179 153.416 25.2591 153.312 25.3415C153.208 25.4239 153.155 25.5612 153.155 25.7534V38.1102C153.155 38.3985 153.216 38.5976 153.338 38.7075C153.477 38.8036 153.712 38.8722 154.043 38.9134L155.217 39.0576C155.443 39.0713 155.556 39.1537 155.556 39.3047C155.556 39.4557 155.426 39.5312 155.165 39.5312H149.293Z" fill="black"/>
<path d="M140.593 39.7166C140.245 39.7166 139.854 39.6891 139.419 39.6342C139.001 39.5793 138.601 39.5107 138.218 39.4283C137.853 39.3459 137.566 39.2566 137.357 39.1605C137.235 39.1056 137.14 39.0507 137.07 38.9958C137.018 38.9271 136.992 38.8173 136.992 38.6663L136.861 35.4329C136.861 35.1583 136.975 35.021 137.201 35.021C137.392 35.021 137.523 35.1446 137.592 35.3917L137.827 36.1743C138.418 38.1377 139.523 39.1194 141.141 39.1194C142.011 39.1194 142.698 38.8928 143.202 38.4397C143.724 37.9729 143.985 37.3208 143.985 36.4832C143.985 35.6732 143.716 34.918 143.176 34.2178C142.654 33.5176 141.811 32.8242 140.645 32.1378C139.358 31.4101 138.418 30.7099 137.827 30.0371C137.236 29.3506 136.94 28.6229 136.94 27.8541C136.94 26.8381 137.383 26.028 138.271 25.4239C139.175 24.8061 140.323 24.4971 141.715 24.4971C142.237 24.4971 142.741 24.5452 143.229 24.6413C143.716 24.7374 144.116 24.8747 144.429 25.0532C144.533 25.1081 144.612 25.1699 144.664 25.2385C144.733 25.3072 144.768 25.3964 144.768 25.5063L144.846 28.6161C144.846 28.8495 144.733 28.9662 144.507 28.9662C144.351 28.9662 144.238 28.8701 144.168 28.6779L143.985 28.163C143.603 27.1058 143.202 26.3369 142.785 25.8564C142.385 25.3621 141.802 25.115 141.037 25.115C140.289 25.115 139.688 25.3072 139.236 25.6916C138.801 26.0761 138.584 26.6184 138.584 27.3186C138.584 27.909 138.827 28.4719 139.314 29.0074C139.801 29.5428 140.654 30.195 141.872 30.9639C143.176 31.8014 144.124 32.6114 144.716 33.394C145.325 34.1629 145.629 34.9867 145.629 35.8654C145.629 36.6343 145.412 37.307 144.977 37.8837C144.542 38.4603 143.942 38.9134 143.176 39.2429C142.428 39.5587 141.567 39.7166 140.593 39.7166Z" fill="black"/>
<path d="M124.855 39.5312C124.594 39.5312 124.463 39.4557 124.463 39.3047C124.463 39.1811 124.576 39.0987 124.803 39.0576L125.403 38.9752C125.768 38.9203 126.003 38.8447 126.107 38.7486C126.229 38.6525 126.29 38.4603 126.29 38.172V26.0623C126.29 25.774 126.229 25.5818 126.107 25.4857C126.003 25.3896 125.768 25.314 125.403 25.2591L124.803 25.1767C124.576 25.1356 124.463 25.0532 124.463 24.9296C124.463 24.7786 124.594 24.7031 124.855 24.7031H133.622C134.023 24.7031 134.24 24.861 134.275 25.1767L134.484 28.5955C134.518 28.8289 134.405 28.9456 134.144 28.9456C133.936 28.9456 133.814 28.8563 133.779 28.6778L133.622 27.9158C133.431 26.9822 133.04 26.3026 132.448 25.877C131.857 25.4376 131.039 25.2179 129.995 25.2179C129.299 25.2179 128.812 25.3003 128.534 25.4651C128.273 25.6161 128.143 25.8907 128.143 26.2889V31.2522C128.143 31.4444 128.264 31.5405 128.508 31.5405H129.813C130.578 31.5405 131.048 31.2178 131.222 30.5725L131.483 29.5428C131.552 29.3369 131.7 29.2476 131.926 29.2751C132.118 29.3025 132.213 29.4192 132.213 29.6252V34.259C132.213 34.4649 132.118 34.5816 131.926 34.6091C131.7 34.6366 131.552 34.5473 131.483 34.3414L131.222 33.3322C131.1 32.8517 130.926 32.5359 130.7 32.3849C130.491 32.2339 130.187 32.1583 129.787 32.1583H128.508C128.264 32.1583 128.143 32.2544 128.143 32.4467V37.6159C128.143 38.1102 128.299 38.4672 128.612 38.6869C128.943 38.9065 129.534 39.0164 130.387 39.0164C131.257 39.0164 131.996 38.8447 132.605 38.5015C133.231 38.1445 133.666 37.4855 133.91 36.5244L134.223 35.3093C134.275 35.1308 134.405 35.0416 134.614 35.0416C134.858 35.0416 134.962 35.1583 134.927 35.3917L134.666 39.0576C134.631 39.3733 134.414 39.5312 134.014 39.5312H124.855Z" fill="black"/>
<path d="M117.153 39.7166C116.214 39.7166 115.379 39.545 114.648 39.2017C113.935 38.8447 113.378 38.3573 112.978 37.7395C112.578 37.1079 112.378 36.3871 112.378 35.5771V26.0623C112.378 25.774 112.317 25.5818 112.195 25.4857C112.091 25.3896 111.856 25.314 111.491 25.2591L110.891 25.1767C110.664 25.1356 110.551 25.0532 110.551 24.9296C110.551 24.7786 110.682 24.7031 110.943 24.7031H115.718C115.979 24.7031 116.11 24.7854 116.11 24.9502C116.11 25.0738 116.014 25.1493 115.822 25.1767L115.118 25.2591C114.77 25.3003 114.535 25.3758 114.413 25.4857C114.292 25.5955 114.231 25.7946 114.231 26.0829V35.5976C114.231 36.6411 114.526 37.4512 115.118 38.0278C115.709 38.6045 116.536 38.8928 117.597 38.8928C118.676 38.8928 119.511 38.6045 120.102 38.0278C120.693 37.4512 120.989 36.6411 120.989 35.5976V26.4948C120.989 25.7534 120.693 25.3415 120.102 25.2591L119.397 25.1767C119.206 25.1493 119.11 25.0738 119.11 24.9502C119.11 24.7854 119.241 24.7031 119.502 24.7031H123.259C123.52 24.7031 123.651 24.7786 123.651 24.9296C123.651 25.0532 123.538 25.1356 123.312 25.1767L122.711 25.2591C122.12 25.3415 121.824 25.7465 121.824 26.4742V35.5771C121.824 36.8265 121.398 37.8287 120.546 38.5839C119.693 39.339 118.562 39.7166 117.153 39.7166Z" fill="black"/>
<path d="M93.1332 9.54534C94.0275 8.53419 95.0997 8.23431 96.0487 8.44396C96.888 8.62942 97.6001 9.20931 97.9631 9.97549C98.7823 9.24459 99.5764 9.04022 100.308 9.22506C100.981 9.39502 101.532 9.87982 101.953 10.42C103.146 9.19341 104.383 8.91995 105.453 9.19565C106.473 9.45855 107.287 10.2079 107.723 10.9627C108.966 10.7401 109.767 10.9704 110.189 11.5354C110.562 12.0359 110.554 12.6963 110.434 13.2263C110.962 13.6262 111.307 14.0188 111.492 14.4059C111.702 14.8467 111.696 15.2673 111.533 15.6365C111.376 15.9927 111.084 16.2749 110.767 16.4867C110.539 16.6384 110.288 16.7608 110.037 16.854C110.211 17.4805 110.22 18.0182 110.081 18.4685C109.919 18.9962 109.567 19.3666 109.129 19.6018C108.362 20.0145 107.323 20.021 106.453 19.7994C106.227 20.3396 105.946 20.7593 105.604 21.0595C105.203 21.4126 104.737 21.5859 104.231 21.6095C103.298 21.6531 102.248 21.1885 101.177 20.4863C98.7282 22.3689 95.8567 22.8534 93.8183 22.8534C91.9521 22.8534 90.3854 22.8629 88.6704 22.8678C86.9344 22.8727 85.0489 22.8729 82.5531 22.8534L82.5581 22.2305C85.0511 22.2499 86.9343 22.2497 88.6686 22.2448C89.6687 22.242 90.6201 22.2377 91.6105 22.2345C91.9897 22.6169 92.5153 22.8537 93.0963 22.8537C93.6918 22.8537 94.2286 22.6044 94.6097 22.2051C96.5198 22.0849 98.922 21.5043 100.967 19.8595L101.146 19.715L101.337 19.8444C102.456 20.6046 103.43 21.0234 104.201 20.9873C104.575 20.9699 104.904 20.8458 105.193 20.5916C105.487 20.3331 105.755 19.9255 105.972 19.317L106.074 19.0314L106.362 19.1257C107.185 19.3947 108.183 19.4033 108.834 19.053C109.149 18.8838 109.378 18.6346 109.486 18.2855C109.595 17.9296 109.589 17.433 109.355 16.7557L109.247 16.4438L109.565 16.3543C109.857 16.272 110.163 16.1403 110.421 15.9686C110.681 15.7953 110.87 15.5952 110.963 15.3849C111.05 15.1874 111.064 14.9566 110.929 14.6739C110.789 14.3787 110.481 14.0182 109.9 13.6065L109.718 13.4772L109.781 13.2633C109.93 12.7645 109.935 12.2368 109.69 11.9083C109.466 11.6084 108.921 11.3389 107.623 11.6174L107.384 11.6687L107.277 11.4487C106.945 10.7622 106.209 10.0336 105.297 9.79876C104.418 9.57215 103.308 9.78909 102.161 11.1151L101.894 11.4233L101.667 11.0849C101.255 10.4715 100.735 9.97541 100.156 9.82892C99.6095 9.69102 98.9107 9.84155 98.0644 10.7485L97.6763 11.1646L97.535 10.6133C97.3375 9.8426 96.6954 9.22493 95.9145 9.05235C95.1536 8.88421 94.2156 9.1321 93.4085 10.1907L93.1805 10.4901L92.9291 10.21C92.5754 9.81597 92.0074 9.53603 91.4765 9.59939C90.9808 9.6586 90.4073 10.0339 90.0508 11.1857L89.9902 11.3821L89.7861 11.4034C88.99 11.4874 88.5832 11.8186 88.4497 12.169C88.3154 12.5215 88.4054 13.0297 88.9012 13.5811L89.0772 13.7767L88.9137 13.9828C88.6218 14.3515 88.3181 14.9016 88.282 15.3766C88.2647 15.6041 88.3097 15.7942 88.4258 15.9465C88.5432 16.1004 88.7632 16.2552 89.1714 16.351L89.0291 16.9574C88.5268 16.8395 88.1607 16.6262 87.9305 16.3243C87.6991 16.0209 87.6351 15.6673 87.6608 15.3293C87.7031 14.7734 87.9906 14.2084 88.2739 13.8005C87.81 13.1971 87.6451 12.5316 87.8677 11.9472C88.0973 11.3445 88.6945 10.9445 89.5191 10.8109C89.9326 9.63738 90.6273 9.07351 91.4029 8.98095C92.0498 8.90376 92.6789 9.16658 93.1332 9.54534Z" fill="black"/>
<path d="M69.3749 39.3047C69.3749 39.4557 69.5054 39.5312 69.7663 39.5312H75.6376C75.8985 39.5312 76.029 39.4557 76.029 39.3047C76.029 39.1537 75.9159 39.0713 75.6898 39.0576L74.5155 38.9134C74.185 38.8722 73.9501 38.8036 73.811 38.7074C73.6892 38.5976 73.6283 38.3985 73.6283 38.1102V33.0851C73.6283 32.8654 73.6544 32.6732 73.7066 32.5084C73.7588 32.33 73.8458 32.1446 73.9675 31.9524L77.3859 26.536C77.6817 26.0829 77.9165 25.7603 78.0905 25.568C79.2598 24.276 80.9527 22.9282 82.5531 22.8534L82.5581 22.2305C78.9664 21.8874 77.4156 25.0447 76.5248 26.5154L73.4457 31.4787C73.3761 31.5748 73.2891 31.6229 73.1847 31.6229C73.0803 31.6229 72.9933 31.5748 72.9238 31.4787L69.7141 26.0829C69.5402 25.7946 69.5141 25.5818 69.6358 25.4445C69.7576 25.3072 69.9664 25.2317 70.2621 25.2179L70.7579 25.1767C71.0536 25.163 71.2015 25.0806 71.2015 24.9296C71.2015 24.7786 71.0797 24.7031 70.8362 24.7031H66.374C66.1131 24.7031 65.9826 24.7717 65.9826 24.909C65.9826 25.0463 66.1044 25.1355 66.3479 25.1767L66.5828 25.2179C66.8785 25.2729 67.1047 25.3621 67.2612 25.4857C67.4178 25.6092 67.557 25.7877 67.6787 26.0211L71.5146 32.3643C71.6886 32.6526 71.7756 32.9478 71.7756 33.2499V38.1102C71.7756 38.3985 71.7147 38.5976 71.5929 38.7074C71.4712 38.8036 71.2363 38.8722 70.8884 38.9134L69.7141 39.0576C69.488 39.0713 69.3749 39.1537 69.3749 39.3047Z" fill="black"/>
<path d="M64.1409 39.7166C63.8625 39.7166 63.6277 39.5518 63.4363 39.2223L56.3647 27.1126C56.3125 27.0165 56.2429 26.9753 56.1559 26.9891C56.0864 27.0028 56.0516 27.0646 56.0516 27.1744V37.7601C56.0516 38.1445 56.1298 38.4397 56.2864 38.6457C56.4604 38.8379 56.7648 38.9614 57.1997 39.0164L57.539 39.0576C57.7651 39.0713 57.8782 39.1537 57.8782 39.3047C57.8782 39.4557 57.7477 39.5312 57.4868 39.5312H53.7552C53.4943 39.5312 53.3638 39.4557 53.3638 39.3047C53.3638 39.1537 53.4769 39.0713 53.703 39.0576L54.0423 39.0164C54.4946 38.9614 54.8077 38.8379 54.9817 38.6457C55.1556 38.4397 55.2426 38.1445 55.2426 37.7601V26.0623C55.2426 25.774 55.1817 25.5818 55.06 25.4857C54.9556 25.3896 54.7033 25.314 54.3032 25.2591L53.703 25.1767C53.4769 25.1356 53.3638 25.0532 53.3638 24.9296C53.3638 24.7786 53.4943 24.7031 53.7552 24.7031H56.5474C56.9823 24.7031 57.2867 24.8541 57.4607 25.1561L63.619 35.8448C63.6712 35.9272 63.7321 35.9615 63.8017 35.9478C63.8886 35.934 63.9321 35.886 63.9321 35.8036V26.4742C63.9321 26.0349 63.8365 25.7328 63.6451 25.568C63.4537 25.3896 63.2102 25.2797 62.9144 25.2385L62.4447 25.1767C62.2186 25.1356 62.1055 25.0532 62.1055 24.9296C62.1055 24.7786 62.236 24.7031 62.4969 24.7031H66.2285C66.4894 24.7031 66.6199 24.7786 66.6199 24.9296C66.6199 25.0806 66.5068 25.163 66.2807 25.1767L65.9414 25.2179C65.4891 25.2728 65.176 25.3896 65.002 25.568C64.828 25.7328 64.7411 26.0349 64.7411 26.4742V39.0576C64.7411 39.3047 64.6802 39.4763 64.5584 39.5724C64.454 39.6685 64.3149 39.7166 64.1409 39.7166Z" fill="black"/>
<path fill-rule="evenodd" clip-rule="evenodd" d="M82.0656 38.7692C83.0398 39.4008 84.2315 39.7166 85.6406 39.7166C86.3539 39.7166 86.9801 39.6617 87.5194 39.5518C88.0587 39.4557 88.5371 39.3253 88.9546 39.1605C89.2156 39.0507 89.3982 38.9546 89.5026 38.8722C89.607 38.7761 89.6592 38.6525 89.6592 38.5015V32.9204C89.6592 32.632 89.694 32.4261 89.7636 32.3025C89.4351 32.3025 88.891 32.1915 88.3732 32.0859C88.0899 32.0281 87.8144 31.9719 87.5865 31.9364C86.8398 31.8201 86.5277 31.8795 86.9192 32.0966C87.2846 32.124 87.5194 32.1927 87.6238 32.3025C87.7456 32.4124 87.8065 32.6114 87.8065 32.8998V37.41C87.8065 38.0828 87.6238 38.5427 87.2585 38.7898C86.8931 39.037 86.3539 39.1605 85.6406 39.1605C84.3185 39.1605 83.2312 38.5564 82.3788 37.3482C81.5437 36.1263 81.1262 34.3551 81.1262 32.0348C81.1262 29.7831 81.535 28.0669 82.3527 26.8861C83.1877 25.6916 84.2402 25.0944 85.5101 25.0944C86.3626 25.0944 87.0323 25.3072 87.5194 25.7328C88.0065 26.1584 88.4414 26.941 88.8241 28.0806L89.0329 28.6984C89.0851 28.8769 89.2069 28.9662 89.3982 28.9662C89.607 28.9662 89.7114 28.8495 89.7114 28.6161L89.6331 25.4857C89.6331 25.2935 89.52 25.1493 89.2938 25.0532C88.8763 24.8884 88.3892 24.758 87.8325 24.6619C87.2759 24.552 86.6583 24.4971 85.9798 24.4971C84.6403 24.4971 83.4487 24.8129 82.4049 25.4445C81.3785 26.0623 80.5695 26.941 79.9781 28.0806C79.3866 29.2064 79.0909 30.5245 79.0909 32.0348C79.0909 33.6 79.3431 34.9592 79.8476 36.1125C80.3521 37.2521 81.0914 38.1377 82.0656 38.7692Z" fill="black"/>
<path fill-rule="evenodd" clip-rule="evenodd" d="M100.342 37.573C100.938 38.4715 101.699 38.9886 102.625 39.1243C102.716 39.3361 103.08 39.7744 103.079 39.8428C102.879 39.7763 102.467 39.7152 102.254 39.657C102.118 39.6196 101.989 39.5844 101.882 39.5518C100.977 39.3184 100.16 38.8516 99.4292 38.1514C99.1389 37.8608 98.8731 37.543 98.6318 37.1978C99.1195 37.3452 100.144 37.6266 100.342 37.573ZM99.1943 32.0966C99.1943 34.0188 99.4222 35.5454 99.8779 36.6763C99.7347 36.668 98.5323 36.2302 97.9489 36.0124C97.873 35.8511 97.8011 35.6854 97.733 35.5153C97.3329 34.4718 97.1328 33.3322 97.1328 32.0966C97.1328 31.0256 97.2807 30.0302 97.5764 29.1103C97.8896 28.1904 98.3158 27.3873 98.8551 26.7008C99.4118 26.0005 100.055 25.4582 100.786 25.0738C101.517 24.6893 102.3 24.4971 103.135 24.4971C103.97 24.4971 104.744 24.6893 105.457 25.0738C106.188 25.4582 106.831 26.0005 107.388 26.7008C107.945 27.3873 108.371 28.1904 108.667 29.1103C108.98 30.0302 109.136 31.0256 109.136 32.0966C109.136 33.3597 108.919 34.5267 108.484 35.5977C108.066 36.6549 107.484 37.5336 106.736 38.2338C106.145 38.7998 105.486 39.2043 104.759 39.4474C104.618 39.3138 104.331 39.0283 104.31 38.9548C105 38.6918 105.574 38.1769 106.031 37.41C106.727 36.243 107.075 34.4718 107.075 32.0966C107.075 29.7213 106.727 27.957 106.031 26.8037C105.335 25.6367 104.37 25.0532 103.135 25.0532C101.917 25.0532 100.951 25.6367 100.238 26.8037C99.5422 27.957 99.1943 29.7213 99.1943 32.0966Z" fill="black"/>
<path d="M84.5915 32.9204C85.0245 32.4535 86.3889 31.4977 88.1044 31.6954C90.2488 31.9425 95.7634 35.4998 97.4748 36.4543C97.7139 36.5877 98.031 36.7222 98.4005 36.8466C98.9098 37.018 99.5185 37.17 100.16 37.273C100.656 37.3527 101.172 37.403 101.676 37.41C101.738 37.4109 101.8 37.4112 101.861 37.4111C101.774 37.308 101.684 37.2043 101.592 37.0996C101.026 37.1015 100.485 37.031 99.9829 36.9209C99.2535 36.7611 98.607 36.5178 98.0869 36.2923C97.8568 36.1926 97.6515 36.0964 97.4748 36.0124C96.1455 35.3808 90.9659 31.9249 88.6344 31.5405C86.7693 31.233 84.9621 32.2796 84.5915 32.9204Z" fill="black"/>
<path d="M102.536 37.3876C102.455 37.2847 102.369 37.1747 102.279 37.0606C102.047 37.0865 101.818 37.0988 101.592 37.0996C101.684 37.2043 101.774 37.308 101.861 37.4111C102.095 37.4107 102.32 37.403 102.536 37.3876Z" fill="black"/>
<path d="M103.949 39.0668C103.692 39.1293 103.42 39.1605 103.135 39.1605C103.097 39.1605 103.059 39.16 103.022 39.1588C103.084 39.3229 103.134 39.346 103.27 39.5803C103.406 39.8146 103.838 40.3769 104.014 40.7597C104.358 41.5065 104.799 42.0586 105.338 42.4157C105.877 42.7729 106.448 42.9933 107.049 43.0768C107.671 43.1716 108.239 43.1831 108.753 43.1116C109.352 43.0282 109.836 42.8982 110.202 42.7217C110.589 42.5563 110.902 42.3734 111.14 42.173C111.256 42.0593 111.303 41.9551 111.282 41.8604C111.258 41.7523 111.183 41.693 111.057 41.6826C110.931 41.6723 110.807 41.7105 110.685 41.7971C110.211 42.1279 109.76 42.2789 109.203 42.4006C108.606 42.5312 108.173 42.6458 107.323 42.4006C106.473 42.1555 106.106 41.834 105.623 41.0927C105.217 40.4712 104.569 39.7362 103.949 39.0668Z" fill="black"/>
<path fill-rule="evenodd" clip-rule="evenodd" d="M106.752 31.8804C107.147 32.9702 107.109 33.9372 106.151 35.444C106.05 35.6028 105.925 35.7546 105.795 35.8906C105.565 36.1318 105.32 36.3232 105.17 36.4158C104.644 36.7401 104.475 36.8216 104.143 36.9634C103.519 37.2304 102.951 37.3582 102.536 37.3876C102.455 37.2847 102.369 37.1747 102.279 37.0606C102.561 37.0293 102.846 36.9782 103.135 36.9035C103.645 36.7712 104.257 36.4328 104.644 36.1649C104.918 35.9751 105.197 35.6271 105.218 35.5977C105.914 34.6467 106.333 33.6328 106.124 32.6989C106.055 32.3924 105.781 31.9858 105.346 31.9338C104.858 31.8757 104.085 32.1251 103.437 32.8998C102.848 31.9364 101.882 31.4737 100.905 31.7671C100.675 31.8359 100.348 32.2842 100.238 32.7646C100.11 33.3272 100.222 34.3724 100.905 35.3893C101.054 35.6115 101.33 35.9327 101.622 36.2732C101.811 36.4932 102.007 36.7212 102.18 36.9359C102.141 36.9479 101.693 36.9612 101.475 36.9663C101.426 36.9114 101.375 36.8544 101.322 36.7957C101.061 36.5031 100.765 36.1721 100.543 35.8906C100.502 35.8388 100.462 35.7881 100.422 35.738C99.7306 34.8687 99.2071 34.2106 99.4292 32.3693C99.5285 31.5457 100.177 31.0336 100.967 30.9198C101.927 30.7814 103.062 31.2224 103.54 32.3025C103.819 31.6814 104.646 31.0989 105.482 31.1078C105.946 31.1127 106.576 31.3933 106.752 31.8804Z" fill="black"/>
<path fill-rule="evenodd" clip-rule="evenodd" d="M103.949 39.0668C103.692 39.1293 103.42 39.1605 103.135 39.1605C103.097 39.1605 103.059 39.16 103.022 39.1588C102.901 38.8411 102.779 38.6665 102.551 38.341C102.483 38.2442 102.406 38.134 102.316 38.0028C102.219 37.8592 102.11 37.7164 101.994 37.573C102.193 37.565 102.602 37.5447 102.647 37.5277C102.719 37.6199 102.786 37.7041 102.844 37.7776C102.919 37.8722 102.98 37.9491 103.022 38.0028C103.368 38.4439 103.693 38.7924 103.882 38.9955C103.907 39.0217 103.929 39.0455 103.949 39.0668Z" fill="black"/>
<circle cx="90.6827" cy="24.2582" r="1" stroke="black" stroke-width="0.505019"/>
<circle cx="90.6827" cy="24.2582" r="1" stroke="black" stroke-width="0.505019"/>
<path d="M94.4527 20.7614C94.4527 20.0122 93.8455 19.4048 93.0964 19.4048C92.3472 19.4048 91.7398 20.0122 91.7398 20.7614C91.7398 21.5105 92.3472 22.1177 93.0964 22.1177V22.6325L93.0001 22.6303C92.0432 22.5818 91.276 21.8145 91.2274 20.8576L91.2249 20.7614C91.2249 19.7278 92.0628 18.8899 93.0964 18.8899L93.1926 18.8925C94.1814 18.9426 94.9675 19.7602 94.9675 20.7614L94.9653 20.8576C94.9151 21.8464 94.0975 22.6325 93.0964 22.6325V22.1177C93.8454 22.1176 94.4526 21.5105 94.4527 20.7614Z" fill="black"/>
<path d="M94.4527 20.7614C94.4527 20.0122 93.8455 19.4048 93.0964 19.4048C92.3472 19.4048 91.7398 20.0122 91.7398 20.7614C91.7398 21.5105 92.3472 22.1177 93.0964 22.1177V22.6325L93.0001 22.6303C92.0432 22.5818 91.276 21.8145 91.2274 20.8576L91.2249 20.7614C91.2249 19.7278 92.0628 18.8899 93.0964 18.8899L93.1926 18.8925C94.1814 18.9426 94.9675 19.7602 94.9675 20.7614L94.9653 20.8576C94.9151 21.8464 94.0975 22.6325 93.0964 22.6325V22.1177C93.8454 22.1176 94.4526 21.5105 94.4527 20.7614Z" fill="black"/>
</svg>
