<svg width="211" height="149" viewBox="0 0 211 149" fill="none" xmlns="http://www.w3.org/2000/svg">
<rect width="210" height="148.5" transform="matrix(-1 0 0 -1 210.65 148.731)" fill="white"/>
<path d="M149.293 39.7619C149.032 39.7619 148.902 39.6864 148.902 39.5354C148.902 39.3843 149.015 39.302 149.241 39.2882L150.415 39.1441C150.763 39.1029 150.998 39.0342 151.12 38.9381C151.242 38.8283 151.303 38.6292 151.303 38.3409V25.9841C151.303 25.7918 151.25 25.6546 151.146 25.5722C151.042 25.4898 150.824 25.4486 150.494 25.4486C149.85 25.4486 149.215 25.6683 148.589 26.1076C147.962 26.547 147.554 27.2541 147.362 28.2289L147.232 28.9085C147.197 29.087 147.075 29.1762 146.866 29.1762C146.606 29.1762 146.492 29.0595 146.527 28.8261L146.762 25.0985C146.797 24.7827 146.953 24.6248 147.232 24.6248C147.354 24.6248 147.467 24.6523 147.571 24.7072C147.675 24.7484 147.849 24.7964 148.093 24.8514C148.354 24.9063 148.763 24.9337 149.319 24.9337H155.138C155.695 24.9337 156.095 24.9063 156.339 24.8514C156.6 24.7964 156.782 24.7484 156.887 24.7072C157.009 24.6523 157.122 24.6248 157.226 24.6248C157.504 24.6248 157.661 24.7827 157.696 25.0985L157.931 28.8261C157.965 29.0595 157.852 29.1762 157.591 29.1762C157.383 29.1762 157.261 29.087 157.226 28.9085L157.096 28.2289C156.922 27.2541 156.521 26.547 155.895 26.1076C155.269 25.6683 154.625 25.4486 153.964 25.4486C153.634 25.4486 153.416 25.4898 153.312 25.5722C153.207 25.6546 153.155 25.7918 153.155 25.9841V38.3409C153.155 38.6292 153.216 38.8283 153.338 38.9381C153.477 39.0342 153.712 39.1029 154.043 39.1441L155.217 39.2882C155.443 39.302 155.556 39.3843 155.556 39.5354C155.556 39.6864 155.426 39.7619 155.165 39.7619H149.293Z" fill="black"/>
<path d="M140.593 39.9473C140.245 39.9473 139.854 39.9198 139.419 39.8649C139.001 39.81 138.601 39.7413 138.218 39.6589C137.853 39.5765 137.566 39.4873 137.357 39.3912C137.235 39.3363 137.14 39.2814 137.07 39.2264C137.018 39.1578 136.992 39.0479 136.992 38.8969L136.861 35.6636C136.861 35.389 136.975 35.2517 137.201 35.2517C137.392 35.2517 137.523 35.3752 137.592 35.6224L137.827 36.405C138.418 38.3683 139.523 39.35 141.141 39.35C142.011 39.35 142.698 39.1235 143.202 38.6704C143.724 38.2036 143.985 37.5514 143.985 36.7139C143.985 35.9038 143.716 35.1487 143.176 34.4485C142.654 33.7483 141.811 33.0549 140.645 32.3684C139.358 31.6407 138.418 30.9405 137.827 30.2678C137.235 29.5813 136.94 28.8536 136.94 28.0847C136.94 27.0687 137.383 26.2587 138.271 25.6545C139.175 25.0367 140.323 24.7278 141.715 24.7278C142.237 24.7278 142.741 24.7758 143.229 24.8719C143.716 24.9681 144.116 25.1054 144.429 25.2838C144.533 25.3388 144.612 25.4005 144.664 25.4692C144.733 25.5378 144.768 25.6271 144.768 25.7369L144.846 28.8467C144.846 29.0801 144.733 29.1968 144.507 29.1968C144.351 29.1968 144.238 29.1007 144.168 28.9085L143.985 28.3936C143.603 27.3364 143.202 26.5676 142.785 26.087C142.385 25.5928 141.802 25.3456 141.037 25.3456C140.289 25.3456 139.688 25.5378 139.236 25.9223C138.801 26.3067 138.584 26.849 138.584 27.5493C138.584 28.1396 138.827 28.7026 139.314 29.238C139.801 29.7735 140.654 30.4256 141.872 31.1945C143.176 32.032 144.124 32.8421 144.716 33.6247C145.325 34.3936 145.629 35.2173 145.629 36.096C145.629 36.8649 145.412 37.5377 144.977 38.1143C144.542 38.691 143.942 39.1441 143.176 39.4736C142.428 39.7894 141.567 39.9473 140.593 39.9473Z" fill="black"/>
<path d="M124.855 39.7619C124.594 39.7619 124.463 39.6864 124.463 39.5353C124.463 39.4118 124.576 39.3294 124.802 39.2882L125.403 39.2058C125.768 39.1509 126.003 39.0754 126.107 38.9793C126.229 38.8832 126.29 38.691 126.29 38.4026V26.293C126.29 26.0046 126.229 25.8124 126.107 25.7163C126.003 25.6202 125.768 25.5447 125.403 25.4898L124.802 25.4074C124.576 25.3662 124.463 25.2838 124.463 25.1603C124.463 25.0092 124.594 24.9337 124.855 24.9337H133.622C134.023 24.9337 134.24 25.0916 134.275 25.4074L134.484 28.8261C134.518 29.0595 134.405 29.1762 134.144 29.1762C133.936 29.1762 133.814 29.087 133.779 28.9085L133.622 28.1465C133.431 27.2129 133.04 26.5332 132.448 26.1076C131.857 25.6683 131.039 25.4486 129.995 25.4486C129.299 25.4486 128.812 25.531 128.534 25.6957C128.273 25.8467 128.143 26.1213 128.143 26.5195V31.4828C128.143 31.675 128.264 31.7711 128.508 31.7711H129.813C130.578 31.7711 131.048 31.4485 131.222 30.8032L131.483 29.7735C131.552 29.5675 131.7 29.4783 131.926 29.5057C132.118 29.5332 132.213 29.6499 132.213 29.8558V34.4896C132.213 34.6956 132.118 34.8123 131.926 34.8398C131.7 34.8672 131.552 34.778 131.483 34.572L131.222 33.5629C131.1 33.0823 130.926 32.7666 130.7 32.6155C130.491 32.4645 130.187 32.389 129.787 32.389H128.508C128.264 32.389 128.143 32.4851 128.143 32.6773V37.8466C128.143 38.3409 128.299 38.6978 128.612 38.9175C128.943 39.1372 129.534 39.247 130.387 39.247C131.257 39.247 131.996 39.0754 132.605 38.7322C133.231 38.3752 133.666 37.7161 133.909 36.7551L134.223 35.54C134.275 35.3615 134.405 35.2722 134.614 35.2722C134.858 35.2722 134.962 35.3889 134.927 35.6224L134.666 39.2882C134.631 39.604 134.414 39.7619 134.014 39.7619H124.855Z" fill="black"/>
<path d="M117.153 39.9472C116.214 39.9472 115.379 39.7756 114.648 39.4324C113.935 39.0754 113.378 38.588 112.978 37.9701C112.578 37.3386 112.378 36.6178 112.378 35.8077V26.293C112.378 26.0046 112.317 25.8124 112.195 25.7163C112.091 25.6202 111.856 25.5447 111.491 25.4898L110.891 25.4074C110.664 25.3662 110.551 25.2838 110.551 25.1603C110.551 25.0092 110.682 24.9337 110.943 24.9337H115.718C115.979 24.9337 116.11 25.0161 116.11 25.1809C116.11 25.3044 116.014 25.3799 115.822 25.4074L115.118 25.4898C114.77 25.531 114.535 25.6065 114.413 25.7163C114.292 25.8262 114.231 26.0252 114.231 26.3136V35.8283C114.231 36.8718 114.526 37.6818 115.118 38.2585C115.709 38.8351 116.536 39.1234 117.597 39.1234C118.675 39.1234 119.511 38.8351 120.102 38.2585C120.693 37.6818 120.989 36.8718 120.989 35.8283V26.7255C120.989 25.984 120.693 25.5722 120.102 25.4898L119.397 25.4074C119.206 25.3799 119.11 25.3044 119.11 25.1809C119.11 25.0161 119.241 24.9337 119.502 24.9337H123.259C123.52 24.9337 123.651 25.0092 123.651 25.1603C123.651 25.2838 123.538 25.3662 123.312 25.4074L122.711 25.4898C122.12 25.5722 121.824 25.9772 121.824 26.7049V35.8077C121.824 37.0571 121.398 38.0594 120.546 38.8145C119.693 39.5697 118.562 39.9472 117.153 39.9472Z" fill="black"/>
<path d="M93.1332 9.776C94.0275 8.76484 95.0997 8.46496 96.0487 8.67461C96.888 8.86008 97.6001 9.43996 97.9631 10.2061C98.7823 9.47524 99.5764 9.27087 100.308 9.45571C100.981 9.62568 101.532 10.1105 101.953 10.6506C103.146 9.42406 104.383 9.1506 105.453 9.4263C106.473 9.6892 107.287 10.4385 107.723 11.1934C108.966 10.9708 109.767 11.201 110.189 11.7661C110.562 12.2665 110.554 12.9269 110.434 13.457C110.962 13.8569 111.307 14.2494 111.492 14.6366C111.702 15.0774 111.696 15.498 111.533 15.8672C111.376 16.2234 111.084 16.5055 110.767 16.7174C110.539 16.869 110.288 16.9914 110.037 17.0847C110.211 17.7112 110.22 18.2488 110.081 18.6992C109.919 19.2268 109.567 19.5972 109.129 19.8325C108.362 20.2452 107.323 20.2517 106.453 20.0301C106.227 20.5703 105.946 20.99 105.604 21.2901C105.203 21.6432 104.737 21.8165 104.231 21.8402C103.298 21.8838 102.248 21.4191 101.177 20.7169C98.7282 22.5996 95.8567 23.0841 93.8183 23.0841C91.9521 23.0841 90.3854 23.0936 88.6704 23.0984C86.9344 23.1033 85.0488 23.1035 82.553 23.0841L82.5581 22.4611C85.0511 22.4805 86.9343 22.4804 88.6686 22.4755C89.6686 22.4726 90.6201 22.4683 91.6105 22.4652C91.9896 22.8475 92.5152 23.0844 93.0963 23.0844C93.6918 23.0843 94.2286 22.8351 94.6097 22.4357C96.5198 22.3156 98.922 21.7349 100.967 20.0902L101.146 19.9456L101.337 20.0751C102.456 20.8353 103.43 21.254 104.201 21.218C104.575 21.2005 104.904 21.0765 105.193 20.8223C105.487 20.5638 105.755 20.1561 105.972 19.5477L106.074 19.2621L106.362 19.3563C107.185 19.6253 108.183 19.634 108.834 19.2837C109.149 19.1145 109.378 18.8653 109.486 18.5162C109.595 18.1603 109.589 17.6636 109.355 16.9864L109.247 16.6744L109.565 16.5849C109.857 16.5027 110.163 16.3709 110.421 16.1993C110.681 16.0259 110.87 15.8259 110.963 15.6155C111.05 15.4181 111.064 15.1872 110.929 14.9046C110.789 14.6094 110.481 14.2488 109.9 13.8371L109.718 13.7079L109.781 13.4939C109.93 12.9952 109.935 12.4674 109.69 12.1389C109.466 11.839 108.921 11.5695 107.623 11.848L107.384 11.8993L107.277 11.6793C106.945 10.9928 106.209 10.2643 105.297 10.0294C104.418 9.80281 103.308 10.0197 102.16 11.3457L101.894 11.654L101.666 11.3156C101.255 10.7022 100.735 10.2061 100.156 10.0596C99.6095 9.92167 98.9107 10.0722 98.0644 10.9792L97.6763 11.3953L97.535 10.8439C97.3375 10.0733 96.6953 9.45558 95.9144 9.283C95.1535 9.11486 94.2155 9.36275 93.4085 10.4213L93.1805 10.7208L92.9291 10.4407C92.5753 10.0466 92.0074 9.76668 91.4765 9.83005C90.9807 9.88926 90.4073 10.2645 90.0508 11.4164L89.9902 11.6127L89.7861 11.6341C88.99 11.7181 88.5831 12.0492 88.4496 12.3996C88.3154 12.7521 88.4053 13.2603 88.9011 13.8117L89.0771 14.0073L88.9137 14.2135C88.6218 14.5822 88.3181 15.1322 88.2819 15.6072C88.2646 15.8347 88.3097 16.0249 88.4257 16.1771C88.5432 16.3311 88.7632 16.4859 89.1714 16.5816L89.0291 17.188C88.5268 17.0702 88.1607 16.8568 87.9305 16.555C87.6991 16.2515 87.635 15.8979 87.6607 15.56C87.7031 15.004 87.9905 14.4391 88.2739 14.0312C87.81 13.4278 87.6451 12.7622 87.8676 12.1779C88.0973 11.5752 88.6945 11.1752 89.5191 11.0415C89.9325 9.86803 90.6273 9.30416 91.4028 9.2116C92.0498 9.13441 92.6789 9.39723 93.1332 9.776Z" fill="black"/>
<path d="M69.3749 39.5353C69.3749 39.6864 69.5053 39.7619 69.7663 39.7619H75.6376C75.8985 39.7619 76.029 39.6864 76.029 39.5353C76.029 39.3843 75.9159 39.3019 75.6898 39.2882L74.5155 39.144C74.185 39.1029 73.9501 39.0342 73.8109 38.9381C73.6892 38.8283 73.6283 38.6292 73.6283 38.3409V33.3158C73.6283 33.0961 73.6544 32.9039 73.7066 32.7391C73.7588 32.5606 73.8457 32.3753 73.9675 32.183L77.3859 26.7666C77.6816 26.3136 77.9165 25.9909 78.0905 25.7987C79.2598 24.5067 80.9527 23.1589 82.553 23.0841L82.5581 22.4611C78.9664 22.1181 77.4155 25.2753 76.5248 26.746L73.4456 31.7094C73.376 31.8055 73.2891 31.8535 73.1847 31.8535C73.0803 31.8535 72.9933 31.8055 72.9237 31.7094L69.7141 26.3136C69.5401 26.0252 69.514 25.8124 69.6358 25.6751C69.7576 25.5378 69.9663 25.4623 70.2621 25.4486L70.7579 25.4074C71.0536 25.3937 71.2015 25.3113 71.2015 25.1603C71.2015 25.0092 71.0797 24.9337 70.8362 24.9337H66.374C66.113 24.9337 65.9826 25.0024 65.9826 25.1397C65.9826 25.277 66.1043 25.3662 66.3479 25.4074L66.5827 25.4486C66.8785 25.5035 67.1046 25.5927 67.2612 25.7163C67.4178 25.8399 67.5569 26.0184 67.6787 26.2518L71.5146 32.5949C71.6886 32.8833 71.7756 33.1785 71.7756 33.4805V38.3409C71.7756 38.6292 71.7147 38.8283 71.5929 38.9381C71.4711 39.0342 71.2363 39.1029 70.8883 39.144L69.7141 39.2882C69.4879 39.3019 69.3749 39.3843 69.3749 39.5353Z" fill="black"/>
<path d="M64.1409 39.9472C63.8625 39.9472 63.6277 39.7825 63.4363 39.453L56.3647 27.3433C56.3125 27.2472 56.2429 27.206 56.1559 27.2197C56.0863 27.2335 56.0515 27.2952 56.0515 27.4051V37.9907C56.0515 38.3752 56.1298 38.6704 56.2864 38.8763C56.4603 39.0685 56.7648 39.1921 57.1997 39.247L57.5389 39.2882C57.7651 39.3019 57.8782 39.3843 57.8782 39.5353C57.8782 39.6864 57.7477 39.7619 57.4867 39.7619H53.7552C53.4943 39.7619 53.3638 39.6864 53.3638 39.5353C53.3638 39.3843 53.4769 39.3019 53.703 39.2882L54.0422 39.247C54.4946 39.1921 54.8077 39.0685 54.9817 38.8763C55.1556 38.6704 55.2426 38.3752 55.2426 37.9907V26.293C55.2426 26.0046 55.1817 25.8124 55.0599 25.7163C54.9556 25.6202 54.7033 25.5447 54.3032 25.4898L53.703 25.4074C53.4769 25.3662 53.3638 25.2838 53.3638 25.1603C53.3638 25.0092 53.4943 24.9337 53.7552 24.9337H56.5473C56.9822 24.9337 57.2867 25.0847 57.4606 25.3868L63.619 36.0754C63.6712 36.1578 63.732 36.1921 63.8016 36.1784C63.8886 36.1647 63.9321 36.1166 63.9321 36.0342V26.7049C63.9321 26.2655 63.8364 25.9635 63.6451 25.7987C63.4537 25.6202 63.2102 25.5104 62.9144 25.4692L62.4447 25.4074C62.2186 25.3662 62.1055 25.2838 62.1055 25.1603C62.1055 25.0092 62.236 24.9337 62.4969 24.9337H66.2284C66.4894 24.9337 66.6199 25.0092 66.6199 25.1603C66.6199 25.3113 66.5068 25.3937 66.2806 25.4074L65.9414 25.4486C65.4891 25.5035 65.1759 25.6202 65.002 25.7987C64.828 25.9635 64.741 26.2655 64.741 26.7049V39.2882C64.741 39.5353 64.6802 39.707 64.5584 39.8031C64.454 39.8992 64.3148 39.9472 64.1409 39.9472Z" fill="black"/>
<path fill-rule="evenodd" clip-rule="evenodd" d="M82.0656 38.9999C83.0398 39.6315 84.2315 39.9473 85.6406 39.9473C86.3538 39.9473 86.9801 39.8923 87.5194 39.7825C88.0587 39.6864 88.5371 39.556 88.9546 39.3912C89.2155 39.2814 89.3982 39.1852 89.5026 39.1029C89.607 39.0068 89.6591 38.8832 89.6591 38.7322V33.151C89.6591 32.8627 89.6939 32.6567 89.7635 32.5332C89.435 32.5332 88.891 32.4222 88.3732 32.3166C88.0898 32.2588 87.8144 32.2026 87.5864 32.1671C86.8397 32.0507 86.5276 32.1101 86.9192 32.3272C87.2845 32.3547 87.5194 32.4233 87.6238 32.5332C87.7455 32.643 87.8064 32.8421 87.8064 33.1304V37.6406C87.8064 38.3134 87.6238 38.7734 87.2584 39.0205C86.8931 39.2676 86.3538 39.3912 85.6406 39.3912C84.3184 39.3912 83.2312 38.7871 82.3787 37.5789C81.5437 36.3569 81.1262 34.5858 81.1262 32.2654C81.1262 30.0138 81.535 28.2975 82.3526 27.1168C83.1877 25.9223 84.2402 25.325 85.5101 25.325C86.3625 25.325 87.0323 25.5378 87.5194 25.9635C88.0065 26.3891 88.4414 27.1717 88.8241 28.3113L89.0329 28.9291C89.0851 29.1076 89.2068 29.1968 89.3982 29.1968C89.607 29.1968 89.7113 29.0801 89.7113 28.8467L89.633 25.7163C89.633 25.5241 89.52 25.3799 89.2938 25.2838C88.8763 25.1191 88.3892 24.9886 87.8325 24.8925C87.2758 24.7827 86.6583 24.7278 85.9798 24.7278C84.6403 24.7278 83.4486 25.0436 82.4048 25.6751C81.3784 26.293 80.5695 27.1717 79.978 28.3113C79.3866 29.4371 79.0908 30.7552 79.0908 32.2654C79.0908 33.8306 79.3431 35.1899 79.8476 36.3432C80.3521 37.4828 81.0914 38.3683 82.0656 38.9999Z" fill="black"/>
<path fill-rule="evenodd" clip-rule="evenodd" d="M100.342 37.8037C100.938 38.7021 101.699 39.2192 102.625 39.355C102.716 39.5667 103.08 40.0051 103.078 40.0735C102.879 40.0069 102.467 39.9458 102.254 39.8876C102.118 39.8502 101.989 39.815 101.882 39.7825C100.977 39.5491 100.16 39.0823 99.4291 38.3821C99.1388 38.0915 98.8731 37.7736 98.6318 37.4285C99.1194 37.5759 100.144 37.8573 100.342 37.8037ZM99.1943 32.3272C99.1943 34.2494 99.4221 35.776 99.8779 36.907C99.7347 36.8986 98.5322 36.4609 97.9489 36.243C97.873 36.0817 97.801 35.916 97.733 35.7459C97.3329 34.7025 97.1328 33.5629 97.1328 32.3272C97.1328 31.2563 97.2807 30.2609 97.5764 29.341C97.8895 28.4211 98.3158 27.6179 98.855 26.9314C99.4117 26.2312 100.055 25.6889 100.786 25.3044C101.517 24.92 102.3 24.7278 103.135 24.7278C103.97 24.7278 104.744 24.92 105.457 25.3044C106.188 25.6889 106.831 26.2312 107.388 26.9314C107.945 27.6179 108.371 28.4211 108.667 29.341C108.98 30.2609 109.136 31.2563 109.136 32.3272C109.136 33.5904 108.919 34.7574 108.484 35.8283C108.066 36.8855 107.484 37.7642 106.736 38.4644C106.145 39.0305 105.486 39.435 104.759 39.678C104.618 39.5445 104.331 39.2589 104.31 39.1854C105 38.9225 105.574 38.4076 106.031 37.6406C106.727 36.4736 107.075 34.7025 107.075 32.3272C107.075 29.952 106.727 28.1877 106.031 27.0344C105.335 25.8674 104.37 25.2838 103.135 25.2838C101.917 25.2838 100.951 25.8674 100.238 27.0344C99.5422 28.1877 99.1943 29.952 99.1943 32.3272Z" fill="black"/>
<path d="M84.5915 33.151C85.0245 32.6842 86.3889 31.7283 88.1044 31.926C90.2488 32.1732 95.7633 35.7305 97.4747 36.685C97.7139 36.8183 98.031 36.9529 98.4005 37.0772C98.9098 37.2486 99.5185 37.4007 100.159 37.5036C100.656 37.5834 101.172 37.6337 101.676 37.6406C101.738 37.6415 101.8 37.6419 101.861 37.6418C101.774 37.5386 101.684 37.4349 101.592 37.3302C101.026 37.3322 100.485 37.2617 99.9828 37.1516C99.2535 36.9917 98.6069 36.7484 98.0868 36.523C97.8568 36.4233 97.6515 36.327 97.4747 36.243C96.1455 35.6115 90.9659 32.1556 88.6344 31.7712C86.7692 31.4636 84.9621 32.5103 84.5915 33.151Z" fill="black"/>
<path d="M102.536 37.6183C102.455 37.5153 102.369 37.4053 102.279 37.2913C102.047 37.3171 101.818 37.3294 101.592 37.3302C101.684 37.4349 101.774 37.5386 101.861 37.6418C102.095 37.6413 102.32 37.6336 102.536 37.6183Z" fill="black"/>
<path d="M103.949 39.2975C103.692 39.36 103.42 39.3912 103.135 39.3912C103.097 39.3912 103.059 39.3906 103.022 39.3895C103.084 39.5536 103.134 39.5766 103.27 39.8109C103.406 40.0452 103.838 40.6076 104.014 40.9903C104.358 41.7372 104.799 42.2892 105.338 42.6464C105.877 43.0035 106.448 43.2239 107.049 43.3075C107.671 43.4022 108.239 43.4138 108.753 43.3423C109.352 43.2588 109.836 43.1288 110.202 42.9523C110.589 42.7869 110.902 42.604 111.14 42.4036C111.256 42.2899 111.303 42.1857 111.282 42.0911C111.258 41.9829 111.183 41.9236 111.057 41.9133C110.931 41.9029 110.807 41.9411 110.685 42.0278C110.211 42.3586 109.76 42.5096 109.203 42.6313C108.606 42.7618 108.173 42.8764 107.323 42.6313C106.473 42.3861 106.106 42.0647 105.623 41.3234C105.217 40.7018 104.569 39.9669 103.949 39.2975Z" fill="black"/>
<path fill-rule="evenodd" clip-rule="evenodd" d="M106.752 32.111C107.147 33.2009 107.109 34.1679 106.151 35.6746C106.05 35.8334 105.925 35.9852 105.795 36.1212C105.565 36.3624 105.32 36.5539 105.17 36.6464C104.644 36.9708 104.475 37.0522 104.143 37.194C103.519 37.461 102.951 37.5888 102.536 37.6183C102.455 37.5153 102.369 37.4053 102.279 37.2913C102.561 37.26 102.846 37.2088 103.135 37.1341C103.645 37.0018 104.257 36.6634 104.644 36.3955C104.918 36.2058 105.197 35.8578 105.218 35.8283C105.914 34.8773 106.333 33.8635 106.124 32.9295C106.055 32.623 105.781 32.2164 105.346 32.1645C104.858 32.1064 104.085 32.3558 103.437 33.1304C102.848 32.1671 101.882 31.7044 100.905 31.9977C100.675 32.0666 100.348 32.5148 100.238 32.9952C100.11 33.5578 100.222 34.6031 100.905 35.62C101.054 35.8422 101.33 36.1633 101.622 36.5039C101.811 36.7238 102.007 36.9519 102.18 37.1666C102.141 37.1786 101.693 37.1918 101.475 37.1969C101.426 37.1421 101.375 37.085 101.322 37.0264C101.061 36.7338 100.765 36.4027 100.543 36.1212C100.502 36.0695 100.462 36.0187 100.422 35.9687C99.7305 35.0994 99.2071 34.4413 99.4291 32.5999C99.5285 31.7763 100.177 31.2642 100.967 31.1505C101.927 31.0121 103.062 31.4531 103.54 32.5332C103.819 31.912 104.645 31.3295 105.482 31.3384C105.946 31.3433 106.576 31.6239 106.752 32.111Z" fill="black"/>
<path fill-rule="evenodd" clip-rule="evenodd" d="M103.949 39.2975C103.692 39.36 103.42 39.3912 103.135 39.3912C103.097 39.3912 103.059 39.3906 103.022 39.3895C102.901 39.0718 102.779 38.8972 102.55 38.5716C102.483 38.4748 102.406 38.3646 102.316 38.2334C102.219 38.0898 102.11 37.947 101.994 37.8037C102.193 37.7957 102.602 37.7754 102.647 37.7584C102.719 37.8505 102.786 37.9347 102.844 38.0083C102.919 38.1028 102.98 38.1798 103.022 38.2334C103.368 38.6745 103.693 39.023 103.882 39.2261C103.907 39.2524 103.929 39.2762 103.949 39.2975Z" fill="black"/>
<circle cx="90.6827" cy="24.4888" r="1" stroke="black" stroke-width="0.505019"/>
<circle cx="90.6827" cy="24.4888" r="1" stroke="black" stroke-width="0.505019"/>
<path d="M94.4526 20.992C94.4526 20.2429 93.8454 19.6355 93.0963 19.6355C92.3472 19.6355 91.7398 20.2429 91.7398 20.992C91.7398 21.7412 92.3472 22.3483 93.0963 22.3483V22.8632L93 22.8609C92.0431 22.8125 91.2759 22.0452 91.2274 21.0883L91.2249 20.992C91.2249 19.9585 92.0628 19.1206 93.0963 19.1206L93.1926 19.1231C94.1813 19.1733 94.9675 19.9908 94.9675 20.992L94.9652 21.0883C94.9151 22.077 94.0975 22.8632 93.0963 22.8632V22.3483C93.8454 22.3483 94.4526 21.7411 94.4526 20.992Z" fill="black"/>
<path d="M94.4526 20.992C94.4526 20.2429 93.8454 19.6355 93.0963 19.6355C92.3472 19.6355 91.7398 20.2429 91.7398 20.992C91.7398 21.7412 92.3472 22.3483 93.0963 22.3483V22.8632L93 22.8609C92.0431 22.8125 91.2759 22.0452 91.2274 21.0883L91.2249 20.992C91.2249 19.9585 92.0628 19.1206 93.0963 19.1206L93.1926 19.1231C94.1813 19.1733 94.9675 19.9908 94.9675 20.992L94.9652 21.0883C94.9151 22.077 94.0975 22.8632 93.0963 22.8632V22.3483C93.8454 22.3483 94.4526 21.7411 94.4526 20.992Z" fill="black"/>
<path d="M71.2977 65.4867V88.4867H52.2977V65.4867H71.2977Z" stroke="black"/>
<path d="M69.7977 64.4867V58.4867H53.7977V64.4867H69.7977Z" stroke="black"/>
<path d="M80.9177 70.4867C81.4644 70.5667 82.0977 70.6333 82.8177 70.6867C83.5511 70.7267 84.3044 70.7467 85.0777 70.7467C85.8644 70.7333 86.6111 70.7067 87.3177 70.6667C88.0377 70.6133 88.6444 70.5467 89.1377 70.4667V72.0867C88.6044 72.14 87.9777 72.1867 87.2577 72.2267C86.5511 72.2533 85.8111 72.2667 85.0377 72.2667C84.2777 72.2667 83.5377 72.2533 82.8177 72.2267C82.0977 72.1867 81.4644 72.14 80.9177 72.0867V70.4867ZM81.6977 78.6267C81.6044 78.9867 81.5311 79.3133 81.4777 79.6067C81.4244 79.9 81.3977 80.1867 81.3977 80.4667C81.3977 80.6933 81.4444 80.92 81.5377 81.1467C81.6444 81.36 81.8177 81.5533 82.0577 81.7267C82.3111 81.8867 82.6577 82.02 83.0977 82.1267C83.5377 82.22 84.0977 82.2667 84.7777 82.2667C85.6844 82.2667 86.5377 82.2267 87.3377 82.1467C88.1377 82.0533 88.9377 81.92 89.7377 81.7467L89.7777 83.4267C89.1511 83.56 88.4177 83.6667 87.5777 83.7467C86.7511 83.8133 85.8177 83.8467 84.7777 83.8467C83.0977 83.8467 81.8644 83.58 81.0777 83.0467C80.3044 82.5133 79.9177 81.78 79.9177 80.8467C79.9177 80.5133 79.9444 80.16 79.9977 79.7867C80.0644 79.4 80.1511 78.9667 80.2577 78.4867L81.6977 78.6267ZM77.0977 68.9467C77.0711 69.0533 77.0311 69.1933 76.9777 69.3667C76.9377 69.5267 76.8911 69.6933 76.8377 69.8667C76.7977 70.0267 76.7644 70.1667 76.7377 70.2867C76.6711 70.66 76.5911 71.0933 76.4977 71.5867C76.4044 72.0667 76.3111 72.5867 76.2177 73.1467C76.1377 73.6933 76.0577 74.2533 75.9777 74.8267C75.9111 75.3867 75.8511 75.9333 75.7977 76.4667C75.7577 77 75.7377 77.4933 75.7377 77.9467C75.7377 78.44 75.7511 78.9067 75.7777 79.3467C75.8177 79.7867 75.8644 80.2533 75.9177 80.7467C76.0377 80.44 76.1644 80.1133 76.2977 79.7667C76.4311 79.42 76.5644 79.08 76.6977 78.7467C76.8444 78.4 76.9711 78.0933 77.0777 77.8267L77.9177 78.4667C77.7444 78.9467 77.5577 79.4733 77.3577 80.0467C77.1577 80.62 76.9777 81.1733 76.8177 81.7067C76.6711 82.2267 76.5644 82.64 76.4977 82.9467C76.4711 83.0933 76.4444 83.2533 76.4177 83.4267C76.3911 83.6 76.3844 83.74 76.3977 83.8467C76.4111 83.9533 76.4177 84.0667 76.4177 84.1867C76.4311 84.32 76.4444 84.44 76.4577 84.5467L75.0177 84.6467C74.8177 83.94 74.6444 83.0333 74.4977 81.9267C74.3511 80.8067 74.2777 79.5733 74.2777 78.2267C74.2777 77.4933 74.3111 76.7467 74.3777 75.9867C74.4444 75.2133 74.5311 74.4667 74.6377 73.7467C74.7444 73.0133 74.8444 72.3467 74.9377 71.7467C75.0444 71.1333 75.1244 70.62 75.1777 70.2067C75.2177 69.9667 75.2511 69.7267 75.2777 69.4867C75.3044 69.2333 75.3177 69 75.3177 68.7867L77.0977 68.9467ZM92.7177 83.8267H110.898V85.0467H92.7177V83.8267ZM94.8377 81.1067H108.758V82.3267H94.8377V81.1067ZM100.998 79.7467H102.478V84.6267H100.998V79.7467ZM94.5777 74.1467H109.178V75.2267H94.5777V74.1467ZM93.0777 76.3467H110.518V77.4667H93.0777V76.3467ZM106.558 78.0867L107.678 77.4667C108.038 77.7333 108.404 78.0267 108.778 78.3467C109.151 78.6533 109.498 78.9667 109.818 79.2867C110.151 79.5933 110.424 79.88 110.638 80.1467L109.458 80.8267C109.258 80.5733 108.998 80.2867 108.678 79.9667C108.358 79.6333 108.011 79.3067 107.638 78.9867C107.278 78.6533 106.918 78.3533 106.558 78.0867ZM101.018 68.5067H102.478V76.7867H101.018V68.5067ZM95.4577 77.5667L96.7177 77.9067C96.4511 78.48 96.0977 79.0467 95.6577 79.6067C95.2311 80.1667 94.7444 80.6267 94.1977 80.9867L93.0777 80.2067C93.5577 79.9267 94.0044 79.5467 94.4177 79.0667C94.8444 78.5867 95.1911 78.0867 95.4577 77.5667ZM98.5177 78.0467L99.7777 77.7867C99.9511 78.1333 100.111 78.52 100.258 78.9467C100.418 79.3733 100.524 79.74 100.578 80.0467L99.2377 80.3867C99.1977 80.0533 99.1044 79.6733 98.9577 79.2467C98.8244 78.8067 98.6777 78.4067 98.5177 78.0467ZM102.578 78.0867L103.738 77.6467C104.044 77.98 104.338 78.3533 104.618 78.7667C104.898 79.1667 105.118 79.52 105.278 79.8267L104.058 80.3467C103.924 80.0267 103.718 79.6533 103.438 79.2267C103.158 78.8 102.871 78.42 102.578 78.0867ZM96.3177 70.9667V72.1867H107.238V70.9667H96.3177ZM96.3177 68.8267V70.0467H107.238V68.8267H96.3177ZM94.8977 67.8667H108.718V73.1667H94.8977V67.8667ZM120.998 68.1667C120.918 68.5667 120.811 69.04 120.678 69.5867C120.558 70.12 120.358 70.7267 120.078 71.4067C119.838 72.0067 119.538 72.6267 119.178 73.2667C118.831 73.9067 118.458 74.4867 118.058 75.0067C118.311 74.8467 118.598 74.7133 118.918 74.6067C119.238 74.4867 119.564 74.4 119.898 74.3467C120.244 74.2933 120.558 74.2667 120.838 74.2667C121.611 74.2667 122.264 74.4867 122.798 74.9267C123.331 75.3533 123.598 75.98 123.598 76.8067C123.598 77.06 123.598 77.3867 123.598 77.7867C123.598 78.1733 123.598 78.5867 123.598 79.0267C123.611 79.4533 123.624 79.8733 123.638 80.2867C123.651 80.7 123.658 81.06 123.658 81.3667H122.118C122.131 81.1 122.144 80.7867 122.158 80.4267C122.171 80.0667 122.178 79.6867 122.178 79.2867C122.191 78.8867 122.191 78.5067 122.178 78.1467C122.178 77.7867 122.178 77.48 122.178 77.2267C122.178 76.64 121.998 76.2133 121.638 75.9467C121.291 75.6667 120.851 75.5267 120.318 75.5267C119.691 75.5267 119.071 75.6667 118.458 75.9467C117.858 76.2133 117.331 76.56 116.878 76.9867C116.584 77.2667 116.291 77.5867 115.998 77.9467C115.718 78.2933 115.404 78.6667 115.058 79.0667L113.698 78.0667C114.658 77.1333 115.458 76.26 116.098 75.4467C116.738 74.6333 117.258 73.88 117.658 73.1867C118.058 72.48 118.371 71.8467 118.598 71.2867C118.811 70.7267 118.984 70.1667 119.118 69.6067C119.251 69.0333 119.331 68.5067 119.358 68.0267L120.998 68.1667ZM114.158 70.3267C114.691 70.3933 115.271 70.4467 115.898 70.4867C116.524 70.5267 117.071 70.5467 117.538 70.5467C118.431 70.5467 119.391 70.5267 120.418 70.4867C121.444 70.4333 122.478 70.36 123.518 70.2667C124.571 70.1733 125.571 70.04 126.518 69.8667L126.498 71.3467C125.804 71.4667 125.064 71.5667 124.278 71.6467C123.491 71.7133 122.691 71.7733 121.878 71.8267C121.064 71.8667 120.278 71.9 119.518 71.9267C118.771 71.94 118.078 71.9467 117.438 71.9467C117.158 71.9467 116.831 71.9467 116.458 71.9467C116.098 71.9333 115.718 71.92 115.318 71.9067C114.918 71.88 114.531 71.8533 114.158 71.8267V70.3267ZM129.438 75.1667C129.264 75.2067 129.071 75.2667 128.858 75.3467C128.658 75.4133 128.451 75.4867 128.238 75.5667C128.038 75.6467 127.844 75.7267 127.658 75.8067C126.964 76.0733 126.158 76.4 125.238 76.7867C124.318 77.1733 123.378 77.62 122.418 78.1267C121.751 78.46 121.164 78.8133 120.658 79.1867C120.151 79.5467 119.751 79.9267 119.458 80.3267C119.164 80.7133 119.018 81.14 119.018 81.6067C119.018 81.9933 119.104 82.3067 119.278 82.5467C119.464 82.7867 119.724 82.9733 120.058 83.1067C120.391 83.2267 120.771 83.3067 121.198 83.3467C121.638 83.3867 122.118 83.4067 122.638 83.4067C123.411 83.4067 124.291 83.3667 125.278 83.2867C126.278 83.1933 127.218 83.0733 128.098 82.9267L128.058 84.5267C127.551 84.5933 126.978 84.6533 126.338 84.7067C125.711 84.76 125.071 84.8 124.418 84.8267C123.778 84.8667 123.164 84.8867 122.578 84.8867C121.631 84.8867 120.764 84.8 119.978 84.6267C119.204 84.4533 118.584 84.1467 118.118 83.7067C117.651 83.2667 117.418 82.64 117.418 81.8267C117.418 81.2267 117.558 80.68 117.838 80.1867C118.118 79.68 118.491 79.22 118.958 78.8067C119.438 78.3933 119.964 78.0133 120.538 77.6667C121.111 77.3067 121.698 76.98 122.298 76.6867C122.938 76.34 123.538 76.04 124.098 75.7867C124.671 75.5333 125.211 75.3 125.718 75.0867C126.224 74.8733 126.698 74.66 127.138 74.4467C127.431 74.3133 127.711 74.1867 127.978 74.0667C128.244 73.9467 128.511 73.8133 128.778 73.6667L129.438 75.1667ZM149.078 73.3467H150.498V84.0067C150.498 84.3533 150.451 84.6333 150.358 84.8467C150.278 85.06 150.124 85.2267 149.898 85.3467C149.658 85.4533 149.358 85.52 148.998 85.5467C148.651 85.5867 148.218 85.6067 147.698 85.6067C147.671 85.4333 147.604 85.2133 147.498 84.9467C147.404 84.68 147.304 84.4533 147.198 84.2667C147.571 84.28 147.904 84.2867 148.198 84.2867C148.491 84.2867 148.691 84.2867 148.798 84.2867C148.904 84.2867 148.978 84.2667 149.018 84.2267C149.058 84.1867 149.078 84.1133 149.078 84.0067V73.3467ZM146.918 68.1867L147.718 67.3667C148.224 67.5933 148.751 67.8733 149.298 68.2067C149.858 68.54 150.291 68.8533 150.598 69.1467L149.758 70.0667C149.451 69.7733 149.024 69.4533 148.478 69.1067C147.944 68.7467 147.424 68.44 146.918 68.1867ZM140.358 73.3467H149.538V74.6267H141.778V85.5867H140.358V73.3467ZM141.158 76.7667H149.618V77.9867H141.158V76.7667ZM141.158 80.1867H149.498V81.4467H141.158V80.1867ZM139.738 70.1067H150.918V71.4467H139.738V70.1067ZM144.678 67.2067H146.098V85.5067H144.678V67.2067ZM135.478 77.0067L136.878 75.3467V85.6067H135.478V77.0067ZM132.858 70.9667H138.398V72.3267H132.858V70.9667ZM135.438 67.2467H136.818V71.6667H135.438V67.2467ZM136.758 75.4467C136.904 75.5933 137.118 75.8333 137.398 76.1667C137.678 76.4867 137.971 76.84 138.278 77.2267C138.598 77.6 138.884 77.9533 139.138 78.2867C139.404 78.62 139.598 78.86 139.718 79.0067L138.798 80.0267C138.664 79.7867 138.471 79.4867 138.218 79.1267C137.978 78.7667 137.711 78.3933 137.418 78.0067C137.138 77.6067 136.864 77.24 136.598 76.9067C136.344 76.5733 136.131 76.3067 135.958 76.1067L136.758 75.4467ZM137.938 70.9667H138.218L138.498 70.9067L139.298 71.4067C138.884 72.6333 138.344 73.82 137.678 74.9667C137.024 76.1133 136.304 77.1733 135.518 78.1467C134.744 79.1067 133.964 79.92 133.178 80.5867C133.124 80.4667 133.051 80.32 132.958 80.1467C132.864 79.9733 132.764 79.8067 132.658 79.6467C132.564 79.4867 132.478 79.3667 132.398 79.2867C133.144 78.7133 133.878 77.9933 134.598 77.1267C135.318 76.26 135.971 75.3267 136.558 74.3267C137.144 73.3133 137.604 72.3 137.938 71.2867V70.9667ZM139.178 74.6467L140.098 75.3067C139.818 75.7333 139.511 76.1667 139.178 76.6067C138.858 77.0467 138.564 77.4267 138.298 77.7467L137.558 77.1867C137.811 76.84 138.098 76.4267 138.418 75.9467C138.738 75.4533 138.991 75.02 139.178 74.6467ZM158.038 68.2067C158.584 68.3267 159.211 68.4467 159.918 68.5667C160.624 68.6733 161.351 68.78 162.098 68.8867C162.844 68.98 163.551 69.06 164.218 69.1267C164.898 69.18 165.471 69.2267 165.938 69.2667L165.718 70.7467C165.224 70.7067 164.644 70.6467 163.978 70.5667C163.324 70.4867 162.638 70.4 161.918 70.3067C161.198 70.2133 160.478 70.1133 159.758 70.0067C159.051 69.8867 158.391 69.7733 157.778 69.6667L158.038 68.2067ZM166.338 73.9267C166.151 74.06 165.951 74.2133 165.738 74.3867C165.524 74.56 165.358 74.7067 165.238 74.8267C165.038 75 164.764 75.2467 164.418 75.5667C164.084 75.8733 163.724 76.2133 163.338 76.5867C162.964 76.9467 162.604 77.2867 162.258 77.6067C161.924 77.9267 161.664 78.1867 161.478 78.3867C161.584 78.3733 161.711 78.3733 161.858 78.3867C162.018 78.3867 162.151 78.4 162.258 78.4267C162.644 78.4667 162.958 78.6133 163.198 78.8667C163.451 79.12 163.644 79.4533 163.778 79.8667C163.844 80.0533 163.911 80.28 163.978 80.5467C164.058 80.8133 164.138 81.0867 164.218 81.3667C164.298 81.6333 164.371 81.88 164.438 82.1067C164.571 82.48 164.764 82.7533 165.018 82.9267C165.271 83.1 165.658 83.1867 166.178 83.1867C166.631 83.1867 167.084 83.1733 167.538 83.1467C168.004 83.1067 168.444 83.0533 168.858 82.9867C169.284 82.92 169.651 82.8533 169.958 82.7867L169.858 84.4667C169.578 84.5067 169.211 84.5467 168.758 84.5867C168.304 84.64 167.838 84.68 167.358 84.7067C166.891 84.7467 166.471 84.7667 166.098 84.7667C165.298 84.7667 164.644 84.6467 164.138 84.4067C163.644 84.1667 163.291 83.72 163.078 83.0667C163.011 82.8667 162.931 82.62 162.838 82.3267C162.758 82.02 162.678 81.72 162.598 81.4267C162.531 81.1333 162.464 80.8933 162.398 80.7067C162.278 80.36 162.111 80.1 161.898 79.9267C161.698 79.74 161.458 79.6467 161.178 79.6467C160.898 79.6467 160.638 79.7133 160.398 79.8467C160.158 79.9667 159.924 80.14 159.698 80.3667C159.551 80.5133 159.351 80.7133 159.098 80.9667C158.844 81.2067 158.564 81.4933 158.258 81.8267C157.964 82.1467 157.658 82.4867 157.338 82.8467C157.018 83.1933 156.711 83.54 156.418 83.8867C156.124 84.22 155.864 84.5333 155.638 84.8267L154.118 83.7667C154.238 83.66 154.384 83.5333 154.558 83.3867C154.731 83.2267 154.918 83.0533 155.118 82.8667C155.251 82.7333 155.498 82.4867 155.858 82.1267C156.218 81.7533 156.651 81.3133 157.158 80.8067C157.678 80.3 158.224 79.76 158.798 79.1867C159.371 78.6 159.944 78.0267 160.518 77.4667C161.091 76.8933 161.618 76.36 162.098 75.8667C162.591 75.3733 163.004 74.96 163.338 74.6267C163.031 74.64 162.658 74.6667 162.218 74.7067C161.778 74.7333 161.318 74.7667 160.838 74.8067C160.358 74.8467 159.884 74.8867 159.418 74.9267C158.951 74.9667 158.518 75 158.118 75.0267C157.731 75.0533 157.418 75.08 157.178 75.1067C156.844 75.1333 156.544 75.1667 156.278 75.2067C156.024 75.2333 155.784 75.2667 155.558 75.3067L155.418 73.5467C155.644 73.56 155.904 73.5733 156.198 73.5867C156.491 73.6 156.798 73.6 157.118 73.5867C157.344 73.5867 157.691 73.5733 158.158 73.5467C158.624 73.52 159.151 73.4867 159.738 73.4467C160.338 73.4067 160.938 73.3667 161.538 73.3267C162.138 73.2733 162.691 73.2267 163.198 73.1867C163.718 73.1467 164.124 73.1067 164.418 73.0667C164.591 73.04 164.771 73.0067 164.958 72.9667C165.144 72.9267 165.284 72.8867 165.378 72.8467L166.338 73.9267Z" fill="black"/>
<path d="M99.4305 59.4427C99.4305 59.466 99.4258 59.508 99.4165 59.5687C99.4118 59.6293 99.4071 59.69 99.4025 59.7507C99.4025 59.8067 99.4001 59.851 99.3955 59.8837C99.3908 59.9723 99.3885 60.0937 99.3885 60.2477C99.3885 60.4017 99.3885 60.5697 99.3885 60.7517C99.3885 60.9337 99.3885 61.118 99.3885 61.3047C99.3931 61.4913 99.3955 61.6663 99.3955 61.8297C99.4001 61.993 99.4025 62.1307 99.4025 62.2427L98.8635 61.9767C98.8635 61.9113 98.8635 61.8133 98.8635 61.6827C98.8635 61.5473 98.8635 61.3933 98.8635 61.2207C98.8635 61.0433 98.8611 60.8683 98.8565 60.6957C98.8565 60.523 98.8541 60.3643 98.8495 60.2197C98.8448 60.075 98.8401 59.963 98.8355 59.8837C98.8308 59.7903 98.8238 59.7017 98.8145 59.6177C98.8051 59.529 98.7981 59.4707 98.7935 59.4427H99.4305ZM95.7135 60.4157C95.9048 60.4157 96.1218 60.4133 96.3645 60.4087C96.6071 60.3993 96.8638 60.39 97.1345 60.3807C97.4098 60.3713 97.6875 60.3643 97.9675 60.3597C98.2475 60.355 98.5158 60.3503 98.7725 60.3457C99.0338 60.341 99.2741 60.3387 99.4935 60.3387C99.7035 60.3387 99.9135 60.3387 100.123 60.3387C100.333 60.3387 100.529 60.3387 100.711 60.3387C100.898 60.3387 101.061 60.341 101.201 60.3457C101.346 60.3457 101.46 60.3457 101.544 60.3457L101.537 60.8637C101.341 60.8543 101.078 60.8473 100.746 60.8427C100.42 60.8333 99.9998 60.8287 99.4865 60.8287C99.1831 60.8287 98.8658 60.8333 98.5345 60.8427C98.2078 60.8473 97.8788 60.8543 97.5475 60.8637C97.2161 60.873 96.8941 60.887 96.5815 60.9057C96.2735 60.9197 95.9888 60.936 95.7275 60.9547L95.7135 60.4157ZM99.3885 62.4527C99.3885 62.7607 99.3418 63.0197 99.2485 63.2297C99.1598 63.4397 99.0338 63.596 98.8705 63.6987C98.7118 63.8013 98.5251 63.8527 98.3105 63.8527C98.1658 63.8527 98.0235 63.8293 97.8835 63.7827C97.7481 63.7313 97.6245 63.6567 97.5125 63.5587C97.4051 63.456 97.3188 63.3323 97.2535 63.1877C97.1928 63.0383 97.1625 62.8703 97.1625 62.6837C97.1625 62.4503 97.2185 62.2427 97.3305 62.0607C97.4425 61.8787 97.5918 61.734 97.7785 61.6267C97.9698 61.5193 98.1751 61.4657 98.3945 61.4657C98.6698 61.4657 98.8961 61.5287 99.0735 61.6547C99.2555 61.776 99.3931 61.944 99.4865 62.1587C99.5798 62.3687 99.6265 62.609 99.6265 62.8797C99.6265 63.113 99.5915 63.351 99.5215 63.5937C99.4561 63.8363 99.3441 64.0697 99.1855 64.2937C99.0315 64.5177 98.8191 64.723 98.5485 64.9097C98.2825 65.0917 97.9441 65.2433 97.5335 65.3647L97.0645 64.9027C97.3818 64.828 97.6665 64.7323 97.9185 64.6157C98.1705 64.499 98.3828 64.3567 98.5555 64.1887C98.7281 64.0207 98.8588 63.8247 98.9475 63.6007C99.0408 63.3767 99.0875 63.12 99.0875 62.8307C99.0875 62.5133 99.0198 62.2847 98.8845 62.1447C98.7491 62.0047 98.5858 61.9347 98.3945 61.9347C98.2731 61.9347 98.1588 61.965 98.0515 62.0257C97.9441 62.0817 97.8555 62.1657 97.7855 62.2777C97.7201 62.3897 97.6875 62.5227 97.6875 62.6767C97.6875 62.896 97.7575 63.0663 97.8975 63.1877C98.0421 63.309 98.2101 63.3697 98.4015 63.3697C98.5461 63.3697 98.6698 63.33 98.7725 63.2507C98.8751 63.1667 98.9475 63.043 98.9895 62.8797C99.0361 62.7117 99.0408 62.504 99.0035 62.2567L99.3885 62.4527ZM103.602 59.8557C103.691 59.8603 103.782 59.865 103.875 59.8697C103.973 59.8743 104.057 59.8767 104.127 59.8767C104.221 59.8767 104.34 59.8743 104.484 59.8697C104.634 59.865 104.788 59.858 104.946 59.8487C105.105 59.8393 105.254 59.8323 105.394 59.8277C105.534 59.8183 105.639 59.8113 105.709 59.8067C105.779 59.7973 105.842 59.788 105.898 59.7787C105.959 59.7647 106.013 59.7483 106.059 59.7297L106.409 60.0167C106.377 60.054 106.344 60.0913 106.311 60.1287C106.283 60.166 106.255 60.2057 106.227 60.2477C106.153 60.369 106.064 60.5417 105.961 60.7657C105.859 60.985 105.749 61.2253 105.632 61.4867C105.52 61.7433 105.408 61.9907 105.296 62.2287C105.226 62.3873 105.149 62.56 105.065 62.7467C104.986 62.9287 104.904 63.1153 104.82 63.3067C104.736 63.4933 104.652 63.6683 104.568 63.8317C104.489 63.995 104.412 64.1303 104.337 64.2377C104.211 64.415 104.078 64.541 103.938 64.6157C103.798 64.6857 103.637 64.7207 103.455 64.7207C103.194 64.7207 102.977 64.6343 102.804 64.4617C102.632 64.289 102.545 64.0557 102.545 63.7617C102.545 63.5003 102.604 63.2577 102.72 63.0337C102.842 62.805 103.007 62.6067 103.217 62.4387C103.432 62.2707 103.686 62.14 103.98 62.0467C104.279 61.9533 104.606 61.9067 104.96 61.9067C105.352 61.9067 105.73 61.9533 106.094 62.0467C106.463 62.1353 106.806 62.252 107.123 62.3967C107.445 62.5367 107.737 62.686 107.998 62.8447C108.264 62.9987 108.491 63.1433 108.677 63.2787L108.418 63.8807C108.213 63.7033 107.982 63.5283 107.725 63.3557C107.469 63.1783 107.189 63.0173 106.885 62.8727C106.582 62.728 106.26 62.6113 105.919 62.5227C105.583 62.434 105.236 62.3897 104.876 62.3897C104.494 62.3897 104.165 62.455 103.889 62.5857C103.619 62.7117 103.411 62.875 103.266 63.0757C103.126 63.2717 103.056 63.477 103.056 63.6917C103.056 63.8457 103.098 63.9647 103.182 64.0487C103.271 64.128 103.369 64.1677 103.476 64.1677C103.556 64.1677 103.628 64.149 103.693 64.1117C103.759 64.0743 103.826 64.0113 103.896 63.9227C103.971 63.8247 104.046 63.7057 104.12 63.5657C104.195 63.4257 104.27 63.274 104.344 63.1107C104.419 62.9473 104.491 62.7817 104.561 62.6137C104.631 62.4457 104.701 62.2893 104.771 62.1447C104.865 61.9393 104.958 61.727 105.051 61.5077C105.149 61.2883 105.245 61.076 105.338 60.8707C105.436 60.6653 105.525 60.4787 105.604 60.3107C105.534 60.3153 105.434 60.32 105.303 60.3247C105.177 60.3293 105.04 60.3363 104.89 60.3457C104.741 60.3503 104.599 60.3573 104.463 60.3667C104.333 60.3713 104.228 60.376 104.148 60.3807C104.074 60.3853 103.99 60.3923 103.896 60.4017C103.803 60.4063 103.714 60.4133 103.63 60.4227L103.602 59.8557ZM107.977 61.3887C107.954 61.8833 107.905 62.3337 107.83 62.7397C107.756 63.1457 107.641 63.512 107.487 63.8387C107.333 64.1653 107.123 64.4593 106.857 64.7207C106.591 64.9773 106.255 65.206 105.849 65.4067L105.387 65.0217C105.798 64.849 106.132 64.6437 106.388 64.4057C106.645 64.163 106.843 63.904 106.983 63.6287C107.128 63.3487 107.228 63.0663 107.284 62.7817C107.345 62.497 107.387 62.2263 107.41 61.9697C107.415 61.8623 107.417 61.7527 107.417 61.6407C107.422 61.5287 107.42 61.4237 107.41 61.3257L107.977 61.3887Z" fill="black"/>
</svg>
