<svg width="211" height="149" viewBox="0 0 211 149" fill="none" xmlns="http://www.w3.org/2000/svg">
<rect width="210" height="148.5" transform="matrix(-1 0 0 -1 210.65 148.5)" fill="white"/>
<path d="M149.293 39.5312C149.032 39.5312 148.902 39.4557 148.902 39.3047C148.902 39.1537 149.015 39.0713 149.241 39.0576L150.415 38.9134C150.763 38.8722 150.998 38.8036 151.12 38.7075C151.242 38.5976 151.303 38.3985 151.303 38.1102V25.7534C151.303 25.5612 151.25 25.4239 151.146 25.3415C151.042 25.2591 150.824 25.2179 150.494 25.2179C149.85 25.2179 149.215 25.4376 148.589 25.877C147.962 26.3163 147.554 27.0234 147.362 27.9982L147.232 28.6778C147.197 28.8563 147.075 28.9456 146.866 28.9456C146.606 28.9456 146.492 28.8289 146.527 28.5955L146.762 24.8678C146.797 24.552 146.953 24.3941 147.232 24.3941C147.354 24.3941 147.467 24.4216 147.571 24.4765C147.675 24.5177 147.849 24.5658 148.093 24.6207C148.354 24.6756 148.763 24.7031 149.319 24.7031H155.138C155.695 24.7031 156.095 24.6756 156.339 24.6207C156.6 24.5658 156.782 24.5177 156.887 24.4765C157.009 24.4216 157.122 24.3941 157.226 24.3941C157.504 24.3941 157.661 24.552 157.696 24.8678L157.931 28.5955C157.965 28.8289 157.852 28.9456 157.591 28.9456C157.383 28.9456 157.261 28.8563 157.226 28.6778L157.096 27.9982C156.922 27.0234 156.521 26.3163 155.895 25.877C155.269 25.4376 154.625 25.2179 153.964 25.2179C153.634 25.2179 153.416 25.2591 153.312 25.3415C153.207 25.4239 153.155 25.5612 153.155 25.7534V38.1102C153.155 38.3985 153.216 38.5976 153.338 38.7075C153.477 38.8036 153.712 38.8722 154.043 38.9134L155.217 39.0576C155.443 39.0713 155.556 39.1537 155.556 39.3047C155.556 39.4557 155.426 39.5312 155.165 39.5312H149.293Z" fill="black"/>
<path d="M140.593 39.7166C140.245 39.7166 139.854 39.6891 139.419 39.6342C139.001 39.5793 138.601 39.5107 138.218 39.4283C137.853 39.3459 137.566 39.2566 137.357 39.1605C137.235 39.1056 137.14 39.0507 137.07 38.9958C137.018 38.9271 136.992 38.8173 136.992 38.6663L136.861 35.4329C136.861 35.1583 136.975 35.021 137.201 35.021C137.392 35.021 137.523 35.1446 137.592 35.3917L137.827 36.1743C138.418 38.1377 139.523 39.1194 141.141 39.1194C142.011 39.1194 142.698 38.8928 143.202 38.4397C143.724 37.9729 143.985 37.3208 143.985 36.4832C143.985 35.6732 143.716 34.918 143.176 34.2178C142.654 33.5176 141.811 32.8242 140.645 32.1378C139.358 31.4101 138.418 30.7099 137.827 30.0371C137.235 29.3506 136.94 28.6229 136.94 27.8541C136.94 26.8381 137.383 26.028 138.271 25.4239C139.175 24.8061 140.323 24.4971 141.715 24.4971C142.237 24.4971 142.741 24.5452 143.229 24.6413C143.716 24.7374 144.116 24.8747 144.429 25.0532C144.533 25.1081 144.612 25.1699 144.664 25.2385C144.733 25.3072 144.768 25.3964 144.768 25.5063L144.846 28.6161C144.846 28.8495 144.733 28.9662 144.507 28.9662C144.351 28.9662 144.238 28.8701 144.168 28.6779L143.985 28.163C143.603 27.1058 143.202 26.3369 142.785 25.8564C142.385 25.3621 141.802 25.115 141.037 25.115C140.289 25.115 139.688 25.3072 139.236 25.6916C138.801 26.0761 138.584 26.6184 138.584 27.3186C138.584 27.909 138.827 28.4719 139.314 29.0074C139.801 29.5428 140.654 30.195 141.872 30.9639C143.176 31.8014 144.124 32.6114 144.716 33.394C145.325 34.1629 145.629 34.9867 145.629 35.8654C145.629 36.6343 145.412 37.307 144.977 37.8837C144.542 38.4603 143.942 38.9134 143.176 39.2429C142.428 39.5587 141.567 39.7166 140.593 39.7166Z" fill="black"/>
<path d="M124.855 39.5312C124.594 39.5312 124.463 39.4557 124.463 39.3047C124.463 39.1811 124.576 39.0987 124.802 39.0576L125.403 38.9752C125.768 38.9203 126.003 38.8447 126.107 38.7486C126.229 38.6525 126.29 38.4603 126.29 38.172V26.0623C126.29 25.774 126.229 25.5818 126.107 25.4857C126.003 25.3896 125.768 25.314 125.403 25.2591L124.802 25.1767C124.576 25.1356 124.463 25.0532 124.463 24.9296C124.463 24.7786 124.594 24.7031 124.855 24.7031H133.622C134.023 24.7031 134.24 24.861 134.275 25.1767L134.484 28.5955C134.518 28.8289 134.405 28.9456 134.144 28.9456C133.936 28.9456 133.814 28.8563 133.779 28.6778L133.622 27.9158C133.431 26.9822 133.04 26.3026 132.448 25.877C131.857 25.4376 131.039 25.2179 129.995 25.2179C129.299 25.2179 128.812 25.3003 128.534 25.4651C128.273 25.6161 128.143 25.8907 128.143 26.2889V31.2522C128.143 31.4444 128.264 31.5405 128.508 31.5405H129.813C130.578 31.5405 131.048 31.2178 131.222 30.5725L131.483 29.5428C131.552 29.3369 131.7 29.2476 131.926 29.2751C132.118 29.3025 132.213 29.4192 132.213 29.6252V34.259C132.213 34.4649 132.118 34.5816 131.926 34.6091C131.7 34.6366 131.552 34.5473 131.483 34.3414L131.222 33.3322C131.1 32.8517 130.926 32.5359 130.7 32.3849C130.491 32.2339 130.187 32.1583 129.787 32.1583H128.508C128.264 32.1583 128.143 32.2544 128.143 32.4467V37.6159C128.143 38.1102 128.299 38.4672 128.612 38.6869C128.943 38.9065 129.534 39.0164 130.387 39.0164C131.257 39.0164 131.996 38.8447 132.605 38.5015C133.231 38.1445 133.666 37.4855 133.909 36.5244L134.223 35.3093C134.275 35.1308 134.405 35.0416 134.614 35.0416C134.858 35.0416 134.962 35.1583 134.927 35.3917L134.666 39.0576C134.631 39.3733 134.414 39.5312 134.014 39.5312H124.855Z" fill="black"/>
<path d="M117.153 39.7166C116.214 39.7166 115.379 39.545 114.648 39.2017C113.935 38.8447 113.378 38.3573 112.978 37.7395C112.578 37.1079 112.378 36.3871 112.378 35.5771V26.0623C112.378 25.774 112.317 25.5818 112.195 25.4857C112.091 25.3896 111.856 25.314 111.491 25.2591L110.891 25.1767C110.664 25.1356 110.551 25.0532 110.551 24.9296C110.551 24.7786 110.682 24.7031 110.943 24.7031H115.718C115.979 24.7031 116.11 24.7854 116.11 24.9502C116.11 25.0738 116.014 25.1493 115.822 25.1767L115.118 25.2591C114.77 25.3003 114.535 25.3758 114.413 25.4857C114.292 25.5955 114.231 25.7946 114.231 26.0829V35.5976C114.231 36.6411 114.526 37.4512 115.118 38.0278C115.709 38.6045 116.536 38.8928 117.597 38.8928C118.675 38.8928 119.511 38.6045 120.102 38.0278C120.693 37.4512 120.989 36.6411 120.989 35.5976V26.4948C120.989 25.7534 120.693 25.3415 120.102 25.2591L119.397 25.1767C119.206 25.1493 119.11 25.0738 119.11 24.9502C119.11 24.7854 119.241 24.7031 119.502 24.7031H123.259C123.52 24.7031 123.651 24.7786 123.651 24.9296C123.651 25.0532 123.538 25.1356 123.312 25.1767L122.711 25.2591C122.12 25.3415 121.824 25.7465 121.824 26.4742V35.5771C121.824 36.8265 121.398 37.8287 120.546 38.5839C119.693 39.339 118.562 39.7166 117.153 39.7166Z" fill="black"/>
<path d="M93.1332 9.54534C94.0275 8.53419 95.0997 8.23431 96.0487 8.44396C96.888 8.62942 97.6001 9.20931 97.9631 9.97549C98.7823 9.24459 99.5764 9.04022 100.308 9.22506C100.981 9.39502 101.532 9.87982 101.953 10.42C103.146 9.19341 104.383 8.91995 105.453 9.19565C106.473 9.45855 107.287 10.2079 107.723 10.9627C108.966 10.7401 109.767 10.9704 110.189 11.5354C110.562 12.0359 110.554 12.6963 110.434 13.2263C110.962 13.6262 111.307 14.0188 111.492 14.4059C111.702 14.8467 111.696 15.2673 111.533 15.6365C111.376 15.9927 111.084 16.2749 110.767 16.4867C110.539 16.6384 110.288 16.7608 110.037 16.854C110.211 17.4805 110.22 18.0182 110.081 18.4685C109.919 18.9962 109.567 19.3666 109.129 19.6018C108.362 20.0145 107.323 20.021 106.453 19.7994C106.227 20.3396 105.946 20.7593 105.604 21.0595C105.203 21.4126 104.737 21.5859 104.231 21.6095C103.298 21.6531 102.248 21.1885 101.177 20.4863C98.7282 22.3689 95.8567 22.8534 93.8183 22.8534C91.9521 22.8534 90.3854 22.8629 88.6704 22.8678C86.9344 22.8727 85.0488 22.8729 82.553 22.8534L82.5581 22.2305C85.0511 22.2499 86.9343 22.2497 88.6686 22.2448C89.6686 22.242 90.6201 22.2377 91.6105 22.2345C91.9896 22.6169 92.5152 22.8537 93.0963 22.8537C93.6918 22.8537 94.2286 22.6044 94.6097 22.2051C96.5198 22.0849 98.922 21.5043 100.967 19.8595L101.146 19.715L101.337 19.8444C102.456 20.6046 103.43 21.0234 104.201 20.9873C104.575 20.9699 104.904 20.8458 105.193 20.5916C105.487 20.3331 105.755 19.9255 105.972 19.317L106.074 19.0314L106.362 19.1257C107.185 19.3947 108.183 19.4033 108.834 19.053C109.149 18.8838 109.378 18.6346 109.486 18.2855C109.595 17.9296 109.589 17.433 109.355 16.7557L109.247 16.4438L109.565 16.3543C109.857 16.272 110.163 16.1403 110.421 15.9686C110.681 15.7953 110.87 15.5952 110.963 15.3849C111.05 15.1874 111.064 14.9566 110.929 14.6739C110.789 14.3787 110.481 14.0182 109.9 13.6065L109.718 13.4772L109.781 13.2633C109.93 12.7645 109.935 12.2368 109.69 11.9083C109.466 11.6084 108.921 11.3389 107.623 11.6174L107.384 11.6687L107.277 11.4487C106.945 10.7622 106.209 10.0336 105.297 9.79876C104.418 9.57215 103.308 9.78909 102.16 11.1151L101.894 11.4233L101.666 11.0849C101.255 10.4715 100.735 9.97541 100.156 9.82892C99.6095 9.69102 98.9107 9.84155 98.0644 10.7485L97.6763 11.1646L97.535 10.6133C97.3375 9.8426 96.6953 9.22493 95.9144 9.05235C95.1535 8.88421 94.2155 9.1321 93.4085 10.1907L93.1805 10.4901L92.9291 10.21C92.5753 9.81597 92.0074 9.53603 91.4765 9.59939C90.9807 9.6586 90.4073 10.0339 90.0508 11.1857L89.9902 11.3821L89.7861 11.4034C88.99 11.4874 88.5831 11.8186 88.4496 12.169C88.3154 12.5215 88.4053 13.0297 88.9011 13.5811L89.0771 13.7767L88.9137 13.9828C88.6218 14.3515 88.3181 14.9016 88.2819 15.3766C88.2646 15.6041 88.3097 15.7942 88.4257 15.9465C88.5432 16.1004 88.7632 16.2552 89.1714 16.351L89.0291 16.9574C88.5268 16.8395 88.1607 16.6262 87.9305 16.3243C87.6991 16.0209 87.635 15.6673 87.6607 15.3293C87.7031 14.7734 87.9905 14.2084 88.2739 13.8005C87.81 13.1971 87.6451 12.5316 87.8676 11.9472C88.0973 11.3445 88.6945 10.9445 89.5191 10.8109C89.9325 9.63738 90.6273 9.07351 91.4028 8.98095C92.0498 8.90376 92.6789 9.16658 93.1332 9.54534Z" fill="black"/>
<path d="M69.3749 39.3047C69.3749 39.4557 69.5053 39.5312 69.7663 39.5312H75.6376C75.8985 39.5312 76.029 39.4557 76.029 39.3047C76.029 39.1537 75.9159 39.0713 75.6898 39.0576L74.5155 38.9134C74.185 38.8722 73.9501 38.8036 73.8109 38.7074C73.6892 38.5976 73.6283 38.3985 73.6283 38.1102V33.0851C73.6283 32.8654 73.6544 32.6732 73.7066 32.5084C73.7588 32.33 73.8457 32.1446 73.9675 31.9524L77.3859 26.536C77.6816 26.0829 77.9165 25.7603 78.0905 25.568C79.2598 24.276 80.9527 22.9282 82.553 22.8534L82.5581 22.2305C78.9664 21.8874 77.4155 25.0447 76.5248 26.5154L73.4456 31.4787C73.376 31.5748 73.2891 31.6229 73.1847 31.6229C73.0803 31.6229 72.9933 31.5748 72.9237 31.4787L69.7141 26.0829C69.5401 25.7946 69.514 25.5818 69.6358 25.4445C69.7576 25.3072 69.9663 25.2317 70.2621 25.2179L70.7579 25.1767C71.0536 25.163 71.2015 25.0806 71.2015 24.9296C71.2015 24.7786 71.0797 24.7031 70.8362 24.7031H66.374C66.113 24.7031 65.9826 24.7717 65.9826 24.909C65.9826 25.0463 66.1043 25.1355 66.3479 25.1767L66.5827 25.2179C66.8785 25.2729 67.1046 25.3621 67.2612 25.4857C67.4178 25.6092 67.5569 25.7877 67.6787 26.0211L71.5146 32.3643C71.6886 32.6526 71.7756 32.9478 71.7756 33.2499V38.1102C71.7756 38.3985 71.7147 38.5976 71.5929 38.7074C71.4711 38.8036 71.2363 38.8722 70.8883 38.9134L69.7141 39.0576C69.4879 39.0713 69.3749 39.1537 69.3749 39.3047Z" fill="black"/>
<path d="M64.1409 39.7166C63.8625 39.7166 63.6277 39.5518 63.4363 39.2223L56.3647 27.1126C56.3125 27.0165 56.2429 26.9753 56.1559 26.9891C56.0863 27.0028 56.0515 27.0646 56.0515 27.1744V37.7601C56.0515 38.1445 56.1298 38.4397 56.2864 38.6457C56.4603 38.8379 56.7648 38.9614 57.1997 39.0164L57.5389 39.0576C57.7651 39.0713 57.8782 39.1537 57.8782 39.3047C57.8782 39.4557 57.7477 39.5312 57.4867 39.5312H53.7552C53.4943 39.5312 53.3638 39.4557 53.3638 39.3047C53.3638 39.1537 53.4769 39.0713 53.703 39.0576L54.0422 39.0164C54.4946 38.9614 54.8077 38.8379 54.9817 38.6457C55.1556 38.4397 55.2426 38.1445 55.2426 37.7601V26.0623C55.2426 25.774 55.1817 25.5818 55.0599 25.4857C54.9556 25.3896 54.7033 25.314 54.3032 25.2591L53.703 25.1767C53.4769 25.1356 53.3638 25.0532 53.3638 24.9296C53.3638 24.7786 53.4943 24.7031 53.7552 24.7031H56.5473C56.9822 24.7031 57.2867 24.8541 57.4606 25.1561L63.619 35.8448C63.6712 35.9272 63.732 35.9615 63.8016 35.9478C63.8886 35.934 63.9321 35.886 63.9321 35.8036V26.4742C63.9321 26.0349 63.8364 25.7328 63.6451 25.568C63.4537 25.3896 63.2102 25.2797 62.9144 25.2385L62.4447 25.1767C62.2186 25.1356 62.1055 25.0532 62.1055 24.9296C62.1055 24.7786 62.236 24.7031 62.4969 24.7031H66.2284C66.4894 24.7031 66.6199 24.7786 66.6199 24.9296C66.6199 25.0806 66.5068 25.163 66.2806 25.1767L65.9414 25.2179C65.4891 25.2728 65.1759 25.3896 65.002 25.568C64.828 25.7328 64.741 26.0349 64.741 26.4742V39.0576C64.741 39.3047 64.6802 39.4763 64.5584 39.5724C64.454 39.6685 64.3148 39.7166 64.1409 39.7166Z" fill="black"/>
<path fill-rule="evenodd" clip-rule="evenodd" d="M82.0656 38.7692C83.0398 39.4008 84.2315 39.7166 85.6406 39.7166C86.3538 39.7166 86.9801 39.6617 87.5194 39.5518C88.0587 39.4557 88.5371 39.3253 88.9546 39.1605C89.2155 39.0507 89.3982 38.9546 89.5026 38.8722C89.607 38.7761 89.6591 38.6525 89.6591 38.5015V32.9204C89.6591 32.632 89.6939 32.4261 89.7635 32.3025C89.435 32.3025 88.891 32.1915 88.3732 32.0859C88.0898 32.0281 87.8144 31.9719 87.5864 31.9364C86.8397 31.8201 86.5276 31.8795 86.9192 32.0966C87.2845 32.124 87.5194 32.1927 87.6238 32.3025C87.7455 32.4124 87.8064 32.6114 87.8064 32.8998V37.41C87.8064 38.0828 87.6238 38.5427 87.2584 38.7898C86.8931 39.037 86.3538 39.1605 85.6406 39.1605C84.3184 39.1605 83.2312 38.5564 82.3787 37.3482C81.5437 36.1263 81.1262 34.3551 81.1262 32.0348C81.1262 29.7831 81.535 28.0669 82.3526 26.8861C83.1877 25.6916 84.2402 25.0944 85.5101 25.0944C86.3625 25.0944 87.0323 25.3072 87.5194 25.7328C88.0065 26.1584 88.4414 26.941 88.8241 28.0806L89.0329 28.6984C89.0851 28.8769 89.2068 28.9662 89.3982 28.9662C89.607 28.9662 89.7113 28.8495 89.7113 28.6161L89.633 25.4857C89.633 25.2935 89.52 25.1493 89.2938 25.0532C88.8763 24.8884 88.3892 24.758 87.8325 24.6619C87.2758 24.552 86.6583 24.4971 85.9798 24.4971C84.6403 24.4971 83.4486 24.8129 82.4048 25.4445C81.3784 26.0623 80.5695 26.941 79.978 28.0806C79.3866 29.2064 79.0908 30.5245 79.0908 32.0348C79.0908 33.6 79.3431 34.9592 79.8476 36.1125C80.3521 37.2521 81.0914 38.1377 82.0656 38.7692Z" fill="black"/>
<path fill-rule="evenodd" clip-rule="evenodd" d="M100.342 37.573C100.938 38.4715 101.699 38.9886 102.625 39.1243C102.716 39.3361 103.08 39.7744 103.078 39.8428C102.879 39.7763 102.467 39.7152 102.254 39.657C102.118 39.6196 101.989 39.5844 101.882 39.5518C100.977 39.3184 100.16 38.8516 99.4291 38.1514C99.1388 37.8608 98.8731 37.543 98.6318 37.1978C99.1194 37.3452 100.144 37.6266 100.342 37.573ZM99.1943 32.0966C99.1943 34.0188 99.4221 35.5454 99.8779 36.6763C99.7347 36.668 98.5322 36.2302 97.9489 36.0124C97.873 35.8511 97.801 35.6854 97.733 35.5153C97.3329 34.4718 97.1328 33.3322 97.1328 32.0966C97.1328 31.0256 97.2807 30.0302 97.5764 29.1103C97.8895 28.1904 98.3158 27.3873 98.855 26.7008C99.4117 26.0005 100.055 25.4582 100.786 25.0738C101.517 24.6893 102.3 24.4971 103.135 24.4971C103.97 24.4971 104.744 24.6893 105.457 25.0738C106.188 25.4582 106.831 26.0005 107.388 26.7008C107.945 27.3873 108.371 28.1904 108.667 29.1103C108.98 30.0302 109.136 31.0256 109.136 32.0966C109.136 33.3597 108.919 34.5267 108.484 35.5977C108.066 36.6549 107.484 37.5336 106.736 38.2338C106.145 38.7998 105.486 39.2043 104.759 39.4474C104.618 39.3138 104.331 39.0283 104.31 38.9548C105 38.6918 105.574 38.1769 106.031 37.41C106.727 36.243 107.075 34.4718 107.075 32.0966C107.075 29.7213 106.727 27.957 106.031 26.8037C105.335 25.6367 104.37 25.0532 103.135 25.0532C101.917 25.0532 100.951 25.6367 100.238 26.8037C99.5422 27.957 99.1943 29.7213 99.1943 32.0966Z" fill="black"/>
<path d="M84.5915 32.9204C85.0245 32.4535 86.3889 31.4977 88.1044 31.6954C90.2488 31.9425 95.7633 35.4998 97.4747 36.4543C97.7139 36.5877 98.031 36.7222 98.4005 36.8466C98.9098 37.018 99.5185 37.17 100.159 37.273C100.656 37.3527 101.172 37.403 101.676 37.41C101.738 37.4109 101.8 37.4112 101.861 37.4111C101.774 37.308 101.684 37.2043 101.592 37.0996C101.026 37.1015 100.485 37.031 99.9828 36.9209C99.2535 36.7611 98.6069 36.5178 98.0868 36.2923C97.8568 36.1926 97.6515 36.0964 97.4747 36.0124C96.1455 35.3808 90.9659 31.9249 88.6344 31.5405C86.7692 31.233 84.9621 32.2796 84.5915 32.9204Z" fill="black"/>
<path d="M102.536 37.3876C102.455 37.2847 102.369 37.1747 102.279 37.0606C102.047 37.0865 101.818 37.0988 101.592 37.0996C101.684 37.2043 101.774 37.308 101.861 37.4111C102.095 37.4107 102.32 37.403 102.536 37.3876Z" fill="black"/>
<path d="M103.949 39.0668C103.692 39.1293 103.42 39.1605 103.135 39.1605C103.097 39.1605 103.059 39.16 103.022 39.1588C103.084 39.3229 103.134 39.346 103.27 39.5803C103.406 39.8146 103.838 40.3769 104.014 40.7597C104.358 41.5065 104.799 42.0586 105.338 42.4157C105.877 42.7729 106.448 42.9933 107.049 43.0768C107.671 43.1716 108.239 43.1831 108.753 43.1116C109.352 43.0282 109.836 42.8982 110.202 42.7217C110.589 42.5563 110.902 42.3734 111.14 42.173C111.256 42.0593 111.303 41.9551 111.282 41.8604C111.258 41.7523 111.183 41.693 111.057 41.6826C110.931 41.6723 110.807 41.7105 110.685 41.7971C110.211 42.1279 109.76 42.2789 109.203 42.4006C108.606 42.5312 108.173 42.6458 107.323 42.4006C106.473 42.1555 106.106 41.834 105.623 41.0927C105.217 40.4712 104.569 39.7362 103.949 39.0668Z" fill="black"/>
<path fill-rule="evenodd" clip-rule="evenodd" d="M106.752 31.8804C107.147 32.9702 107.109 33.9372 106.151 35.444C106.05 35.6028 105.925 35.7546 105.795 35.8906C105.565 36.1318 105.32 36.3232 105.17 36.4158C104.644 36.7401 104.475 36.8216 104.143 36.9634C103.519 37.2304 102.951 37.3582 102.536 37.3876C102.455 37.2847 102.369 37.1747 102.279 37.0606C102.561 37.0293 102.846 36.9782 103.135 36.9035C103.645 36.7712 104.257 36.4328 104.644 36.1649C104.918 35.9751 105.197 35.6271 105.218 35.5977C105.914 34.6467 106.333 33.6328 106.124 32.6989C106.055 32.3924 105.781 31.9858 105.346 31.9338C104.858 31.8757 104.085 32.1251 103.437 32.8998C102.848 31.9364 101.882 31.4737 100.905 31.7671C100.675 31.8359 100.348 32.2842 100.238 32.7646C100.11 33.3272 100.222 34.3724 100.905 35.3893C101.054 35.6115 101.33 35.9327 101.622 36.2732C101.811 36.4932 102.007 36.7212 102.18 36.9359C102.141 36.9479 101.693 36.9612 101.475 36.9663C101.426 36.9114 101.375 36.8544 101.322 36.7957C101.061 36.5031 100.765 36.1721 100.543 35.8906C100.502 35.8388 100.462 35.7881 100.422 35.738C99.7305 34.8687 99.2071 34.2106 99.4291 32.3693C99.5285 31.5457 100.177 31.0336 100.967 30.9198C101.927 30.7814 103.062 31.2224 103.54 32.3025C103.819 31.6814 104.645 31.0989 105.482 31.1078C105.946 31.1127 106.576 31.3933 106.752 31.8804Z" fill="black"/>
<path fill-rule="evenodd" clip-rule="evenodd" d="M103.949 39.0668C103.692 39.1293 103.42 39.1605 103.135 39.1605C103.097 39.1605 103.059 39.16 103.022 39.1588C102.901 38.8411 102.779 38.6665 102.55 38.341C102.483 38.2442 102.406 38.134 102.316 38.0028C102.219 37.8592 102.11 37.7164 101.994 37.573C102.193 37.565 102.602 37.5447 102.647 37.5277C102.719 37.6199 102.786 37.7041 102.844 37.7776C102.919 37.8722 102.98 37.9491 103.022 38.0028C103.368 38.4439 103.693 38.7924 103.882 38.9955C103.907 39.0217 103.929 39.0455 103.949 39.0668Z" fill="black"/>
<circle cx="90.6827" cy="24.2582" r="1" stroke="black" stroke-width="0.505019"/>
<circle cx="90.6827" cy="24.2582" r="1" stroke="black" stroke-width="0.505019"/>
<path d="M94.4526 20.7614C94.4526 20.0122 93.8454 19.4048 93.0963 19.4048C92.3472 19.4048 91.7398 20.0122 91.7398 20.7614C91.7398 21.5105 92.3472 22.1177 93.0963 22.1177V22.6325L93 22.6303C92.0431 22.5818 91.2759 21.8145 91.2274 20.8576L91.2249 20.7614C91.2249 19.7278 92.0628 18.8899 93.0963 18.8899L93.1926 18.8925C94.1813 18.9426 94.9675 19.7602 94.9675 20.7614L94.9652 20.8576C94.9151 21.8464 94.0975 22.6325 93.0963 22.6325V22.1177C93.8454 22.1176 94.4526 21.5105 94.4526 20.7614Z" fill="black"/>
<path d="M94.4526 20.7614C94.4526 20.0122 93.8454 19.4048 93.0963 19.4048C92.3472 19.4048 91.7398 20.0122 91.7398 20.7614C91.7398 21.5105 92.3472 22.1177 93.0963 22.1177V22.6325L93 22.6303C92.0431 22.5818 91.2759 21.8145 91.2274 20.8576L91.2249 20.7614C91.2249 19.7278 92.0628 18.8899 93.0963 18.8899L93.1926 18.8925C94.1813 18.9426 94.9675 19.7602 94.9675 20.7614L94.9652 20.8576C94.9151 21.8464 94.0975 22.6325 93.0963 22.6325V22.1177C93.8454 22.1176 94.4526 21.5105 94.4526 20.7614Z" fill="black"/>
<path d="M34.5175 66.1785V64.9001L39.3186 59.6444C39.8821 59.0288 40.3461 58.4938 40.7107 58.0393C41.0753 57.58 41.3452 57.1491 41.5204 56.7466C41.7003 56.3395 41.7902 55.9133 41.7902 55.4682C41.7902 54.9569 41.6671 54.5142 41.4209 54.1401C41.1794 53.7661 40.848 53.4772 40.4266 53.2736C40.0052 53.07 39.5317 52.9682 39.0061 52.9682C38.4474 52.9682 37.9597 53.0842 37.5431 53.3163C37.1311 53.5435 36.8115 53.8631 36.5843 54.2751C36.3617 54.687 36.2505 55.1699 36.2505 55.7239H34.5743C34.5743 54.8716 34.7708 54.1235 35.1638 53.4796C35.5568 52.8357 36.0918 52.3338 36.7689 51.9739C37.4507 51.6141 38.2154 51.4341 39.063 51.4341C39.9152 51.4341 40.6704 51.6141 41.3286 51.9739C41.9867 52.3338 42.5028 52.8191 42.8769 53.4299C43.2509 54.0407 43.438 54.7201 43.438 55.4682C43.438 56.0033 43.3409 56.5265 43.1468 57.0378C42.9574 57.5445 42.6259 58.1103 42.1525 58.7353C41.6837 59.3555 41.0327 60.1131 40.1993 61.008L36.9323 64.5023V64.616H43.6936V66.1785H34.5175ZM39.1056 72.5705C37.5952 72.5705 36.1558 72.3409 34.7874 71.8816C33.4238 71.4223 32.1714 70.7736 31.0303 69.9356C29.8939 69.1022 28.9067 68.115 28.0686 66.9739C27.2353 65.8376 26.589 64.5876 26.1297 63.2239C25.6704 61.8555 25.4408 60.4162 25.4408 58.9057C25.4408 57.3953 25.6704 55.9583 26.1297 54.5947C26.589 53.2263 27.2353 51.9739 28.0686 50.8376C28.9067 49.6965 29.8939 48.7092 31.0303 47.8759C32.1714 47.0378 33.4238 46.3892 34.7874 45.9299C36.1558 45.4706 37.5952 45.241 39.1056 45.241C40.616 45.241 42.053 45.4706 43.4167 45.9299C44.785 46.3892 46.0374 47.0378 47.1738 47.8759C48.3149 48.7092 49.3021 49.6965 50.1354 50.8376C50.9735 51.9739 51.6221 53.2263 52.0814 54.5947C52.5407 55.9583 52.7704 57.3953 52.7704 58.9057C52.7704 60.4162 52.5407 61.8555 52.0814 63.2239C51.6221 64.5876 50.9735 65.8376 50.1354 66.9739C49.3021 68.115 48.3149 69.1022 47.1738 69.9356C46.0374 70.7736 44.785 71.4223 43.4167 71.8816C42.053 72.3409 40.616 72.5705 39.1056 72.5705ZM39.1056 70.9228C40.4361 70.9228 41.7003 70.7192 42.8982 70.312C44.1008 69.9095 45.2017 69.339 46.2007 68.6003C47.2045 67.8664 48.0734 67 48.8073 66.0009C49.5459 64.9971 50.1165 63.8963 50.5189 62.6984C50.9214 61.4957 51.1226 60.2315 51.1226 58.9057C51.1226 57.5752 50.9214 56.311 50.5189 55.1131C50.1165 53.9105 49.5459 52.8096 48.8073 51.8106C48.0734 50.8068 47.2045 49.9379 46.2007 49.204C45.2017 48.4654 44.1008 47.8948 42.8982 47.4924C41.7003 47.0899 40.4361 46.8887 39.1056 46.8887C37.7751 46.8887 36.5085 47.0899 35.3059 47.4924C34.1079 47.8948 33.0071 48.4654 32.0033 49.204C31.0043 49.9379 30.1354 50.8068 29.3968 51.8106C28.6629 52.8096 28.0947 53.9105 27.6922 55.1131C27.2898 56.311 27.0885 57.5752 27.0885 58.9057C27.0885 60.2315 27.2898 61.4957 27.6922 62.6984C28.0947 63.8963 28.6629 64.9971 29.3968 66.0009C30.1354 67 31.0043 67.8664 32.0033 68.6003C33.0071 69.339 34.1079 69.9095 35.3059 70.312C36.5085 70.7192 37.7751 70.9228 39.1056 70.9228ZM59.3865 50.7985C59.3598 51.0251 59.3332 51.2851 59.3065 51.5785C59.2798 51.8585 59.2665 52.1385 59.2665 52.4185C59.2665 52.5918 59.2665 52.9385 59.2665 53.4585C59.2665 53.9651 59.2665 54.5785 59.2665 55.2985C59.2665 56.0051 59.2665 56.7585 59.2665 57.5585C59.2665 58.3451 59.2665 59.1051 59.2665 59.8385C59.2665 60.5718 59.2665 61.2185 59.2665 61.7785C59.2665 62.3251 59.2665 62.7251 59.2665 62.9785C59.2665 63.4851 59.3798 63.8385 59.6065 64.0385C59.8332 64.2251 60.1865 64.3651 60.6665 64.4585C60.9865 64.5118 61.3865 64.5518 61.8665 64.5785C62.3465 64.6051 62.8332 64.6185 63.3265 64.6185C63.8465 64.6185 64.4132 64.6051 65.0265 64.5785C65.6532 64.5518 66.2798 64.5118 66.9065 64.4585C67.5332 64.4051 68.1265 64.3385 68.6865 64.2585C69.2598 64.1785 69.7532 64.0851 70.1665 63.9785V65.7985C69.5932 65.8918 68.8998 65.9718 68.0865 66.0385C67.2865 66.0918 66.4598 66.1385 65.6065 66.1785C64.7532 66.2051 63.9665 66.2185 63.2465 66.2185C62.6465 66.2185 62.0665 66.2051 61.5065 66.1785C60.9465 66.1385 60.4532 66.0851 60.0265 66.0185C59.2665 65.8851 58.6798 65.6251 58.2665 65.2385C57.8532 64.8385 57.6465 64.2318 57.6465 63.4185C57.6465 63.0985 57.6465 62.6385 57.6465 62.0385C57.6465 61.4251 57.6465 60.7318 57.6465 59.9585C57.6465 59.1851 57.6465 58.3985 57.6465 57.5985C57.6465 56.7851 57.6465 56.0185 57.6465 55.2985C57.6465 54.5785 57.6465 53.9651 57.6465 53.4585C57.6465 52.9385 57.6465 52.5918 57.6465 52.4185C57.6465 52.2318 57.6398 52.0451 57.6265 51.8585C57.6132 51.6585 57.5998 51.4651 57.5865 51.2785C57.5732 51.0918 57.5532 50.9318 57.5265 50.7985H59.3865ZM58.5465 57.0985C59.1465 56.9651 59.8132 56.7985 60.5465 56.5985C61.2932 56.3985 62.0598 56.1785 62.8465 55.9385C63.6332 55.6985 64.3932 55.4518 65.1265 55.1985C65.8732 54.9318 66.5332 54.6718 67.1065 54.4185C67.4132 54.2851 67.7065 54.1451 67.9865 53.9985C68.2798 53.8518 68.5732 53.6851 68.8665 53.4985L69.5665 55.1185C69.2865 55.2251 68.9732 55.3518 68.6265 55.4985C68.2932 55.6451 67.9732 55.7785 67.6665 55.8985C67.0532 56.1518 66.3465 56.4185 65.5465 56.6985C64.7598 56.9651 63.9465 57.2318 63.1065 57.4985C62.2665 57.7518 61.4532 57.9918 60.6665 58.2185C59.8798 58.4318 59.1732 58.6118 58.5465 58.7585V57.0985ZM77.5465 51.5185C77.9065 51.7585 78.3198 52.0585 78.7865 52.4185C79.2532 52.7651 79.7265 53.1385 80.2065 53.5385C80.6998 53.9251 81.1598 54.3051 81.5865 54.6785C82.0132 55.0518 82.3665 55.3785 82.6465 55.6585L81.3865 56.9185C81.1332 56.6651 80.8065 56.3518 80.4065 55.9785C80.0065 55.6051 79.5665 55.2185 79.0865 54.8185C78.6065 54.4051 78.1332 54.0185 77.6665 53.6585C77.1998 53.2851 76.7798 52.9785 76.4065 52.7385L77.5465 51.5185ZM75.8265 64.9185C76.9998 64.7451 78.0665 64.5051 79.0265 64.1985C79.9998 63.8918 80.8865 63.5451 81.6865 63.1585C82.4865 62.7718 83.1998 62.3851 83.8265 61.9985C84.8532 61.3585 85.7998 60.6251 86.6665 59.7985C87.5332 58.9585 88.2932 58.0918 88.9465 57.1985C89.5998 56.3051 90.1198 55.4518 90.5065 54.6385L91.4665 56.3385C91.0132 57.1651 90.4532 58.0051 89.7865 58.8585C89.1198 59.7118 88.3665 60.5318 87.5265 61.3185C86.6865 62.1051 85.7598 62.8185 84.7465 63.4585C84.0798 63.8718 83.3465 64.2785 82.5465 64.6785C81.7598 65.0785 80.8932 65.4451 79.9465 65.7785C79.0132 66.0985 77.9932 66.3585 76.8865 66.5585L75.8265 64.9185ZM99.7465 64.4185C99.7465 64.2318 99.7465 63.8585 99.7465 63.2985C99.7465 62.7251 99.7465 62.0518 99.7465 61.2785C99.7465 60.4918 99.7465 59.6718 99.7465 58.8185C99.7465 57.9518 99.7465 57.1118 99.7465 56.2985C99.7465 55.4851 99.7465 54.7651 99.7465 54.1385C99.7465 53.5118 99.7465 53.0585 99.7465 52.7785C99.7465 52.4985 99.7332 52.1585 99.7065 51.7585C99.6798 51.3585 99.6398 51.0051 99.5865 50.6985H101.547C101.52 50.9918 101.487 51.3385 101.447 51.7385C101.42 52.1385 101.407 52.4851 101.407 52.7785C101.407 53.2985 101.407 53.9251 101.407 54.6585C101.407 55.3785 101.407 56.1518 101.407 56.9785C101.407 57.7918 101.407 58.6051 101.407 59.4185C101.42 60.2185 101.427 60.9718 101.427 61.6785C101.427 62.3718 101.427 62.9651 101.427 63.4585C101.427 63.9385 101.427 64.2585 101.427 64.4185C101.427 64.6318 101.427 64.8785 101.427 65.1585C101.44 65.4385 101.46 65.7251 101.487 66.0185C101.513 66.2985 101.533 66.5518 101.547 66.7785H99.6065C99.6598 66.4585 99.6932 66.0785 99.7065 65.6385C99.7332 65.1985 99.7465 64.7918 99.7465 64.4185ZM101.067 55.9385C101.72 56.1385 102.44 56.3785 103.227 56.6585C104.027 56.9251 104.84 57.2118 105.667 57.5185C106.493 57.8251 107.273 58.1385 108.007 58.4585C108.753 58.7651 109.4 59.0585 109.947 59.3385L109.267 61.0385C108.693 60.7185 108.047 60.4051 107.327 60.0985C106.607 59.7785 105.867 59.4651 105.107 59.1585C104.36 58.8518 103.633 58.5785 102.927 58.3385C102.233 58.0851 101.613 57.8785 101.067 57.7185V55.9385ZM119.626 51.633V66.1785H117.864V53.4796H117.779L114.228 55.8376V54.0478L117.864 51.633H119.626Z" fill="black"/>
<path d="M12.4503 78.39H24.9103V79.83H12.4503V78.39ZM21.9303 78.93H23.4303V92.79C23.4303 93.31 23.3569 93.7033 23.2103 93.97C23.0636 94.2367 22.8036 94.4367 22.4303 94.57C22.0703 94.6767 21.5569 94.7433 20.8903 94.77C20.2236 94.81 19.3969 94.83 18.4103 94.83C18.3836 94.6033 18.3169 94.3433 18.2103 94.05C18.1036 93.7567 17.9903 93.4967 17.8703 93.27C18.4036 93.2833 18.9103 93.2967 19.3903 93.31C19.8703 93.3233 20.2836 93.3233 20.6303 93.31C20.9903 93.31 21.2436 93.3033 21.3903 93.29C21.6036 93.29 21.7436 93.2567 21.8103 93.19C21.8903 93.11 21.9303 92.97 21.9303 92.77V78.93ZM13.0303 82.65H14.4503V90.97H13.0303V82.65ZM13.6903 82.65H19.3103V89.57H13.6903V88.25H17.9103V83.99H13.6903V82.65ZM10.9903 76.47L12.3903 76.89C11.9903 78.01 11.5169 79.1167 10.9703 80.21C10.4369 81.29 9.85027 82.31 9.21027 83.27C8.5836 84.23 7.93027 85.09 7.25027 85.85C7.19694 85.73 7.11694 85.5767 7.01027 85.39C6.91694 85.2033 6.81027 85.0167 6.69027 84.83C6.5836 84.63 6.4836 84.4767 6.39027 84.37C7.01694 83.7167 7.61027 82.97 8.17027 82.13C8.7436 81.2767 9.27027 80.37 9.75027 79.41C10.2303 78.45 10.6436 77.47 10.9903 76.47ZM9.11027 81.69L10.5703 80.21L10.5903 80.23V94.83H9.11027V81.69ZM34.1303 77.71C34.1036 77.8967 34.0703 78.0967 34.0303 78.31C33.9903 78.51 33.9503 78.71 33.9103 78.91C33.8569 79.1367 33.7969 79.4567 33.7303 79.87C33.6636 80.2833 33.5836 80.7233 33.4903 81.19C33.4103 81.6433 33.3236 82.0833 33.2303 82.51C33.0836 83.07 32.9103 83.71 32.7103 84.43C32.5236 85.1367 32.2969 85.8967 32.0303 86.71C31.7769 87.51 31.4903 88.33 31.1703 89.17C30.8503 89.9967 30.4969 90.8167 30.1103 91.63C29.7236 92.4433 29.3036 93.2167 28.8503 93.95L27.2303 93.29C27.6836 92.69 28.1103 92.01 28.5103 91.25C28.9103 90.49 29.2769 89.7033 29.6103 88.89C29.9436 88.0633 30.2436 87.25 30.5103 86.45C30.7769 85.65 31.0036 84.91 31.1903 84.23C31.3903 83.5367 31.5436 82.9433 31.6503 82.45C31.8369 81.6633 31.9903 80.8367 32.1103 79.97C32.2303 79.1033 32.2903 78.29 32.2903 77.53L34.1303 77.71ZM41.0103 80.03C41.3303 80.43 41.6636 80.9367 42.0103 81.55C42.3703 82.1633 42.7169 82.81 43.0503 83.49C43.3969 84.17 43.7103 84.83 43.9903 85.47C44.2836 86.11 44.5103 86.6633 44.6703 87.13L43.1303 87.87C42.9836 87.35 42.7769 86.7633 42.5103 86.11C42.2569 85.4567 41.9636 84.7967 41.6303 84.13C41.3103 83.45 40.9703 82.81 40.6103 82.21C40.2636 81.5967 39.9103 81.09 39.5503 80.69L41.0103 80.03ZM26.9303 82.11C27.2503 82.1233 27.5503 82.13 27.8303 82.13C28.1103 82.13 28.4103 82.1233 28.7303 82.11C29.0236 82.0967 29.4036 82.0767 29.8703 82.05C30.3503 82.01 30.8636 81.97 31.4103 81.93C31.9569 81.8767 32.5036 81.83 33.0503 81.79C33.5969 81.7367 34.0969 81.6967 34.5503 81.67C35.0036 81.63 35.3636 81.61 35.6303 81.61C36.2303 81.61 36.7703 81.71 37.2503 81.91C37.7436 82.0967 38.1369 82.4367 38.4303 82.93C38.7369 83.41 38.8903 84.1033 38.8903 85.01C38.8903 85.7967 38.8503 86.65 38.7703 87.57C38.6903 88.4767 38.5636 89.3433 38.3903 90.17C38.2303 90.9833 38.0103 91.67 37.7303 92.23C37.4236 92.8967 37.0236 93.3367 36.5303 93.55C36.0369 93.7767 35.4636 93.89 34.8103 93.89C34.4236 93.89 34.0103 93.8567 33.5703 93.79C33.1436 93.7367 32.7703 93.6767 32.4503 93.61L32.1903 91.93C32.4703 92.0233 32.7636 92.1033 33.0703 92.17C33.3769 92.2233 33.6703 92.27 33.9503 92.31C34.2303 92.3367 34.4569 92.35 34.6303 92.35C35.0036 92.35 35.3369 92.29 35.6303 92.17C35.9236 92.0367 36.1769 91.75 36.3903 91.31C36.6036 90.8567 36.7769 90.29 36.9103 89.61C37.0569 88.93 37.1636 88.2033 37.2303 87.43C37.2969 86.6567 37.3303 85.91 37.3303 85.19C37.3303 84.5767 37.2436 84.1167 37.0703 83.81C36.8969 83.5033 36.6503 83.2967 36.3303 83.19C36.0103 83.0833 35.6369 83.03 35.2103 83.03C34.8769 83.03 34.4236 83.0567 33.8503 83.11C33.2769 83.15 32.6636 83.2033 32.0103 83.27C31.3569 83.3233 30.7503 83.3833 30.1903 83.45C29.6436 83.5167 29.2169 83.5633 28.9103 83.59C28.6703 83.6167 28.3703 83.6567 28.0103 83.71C27.6636 83.75 27.3636 83.79 27.1103 83.83L26.9303 82.11ZM41.2503 77.13C41.4236 77.3567 41.6036 77.6367 41.7903 77.97C41.9903 78.29 42.1903 78.6233 42.3903 78.97C42.5903 79.3033 42.7569 79.6033 42.8903 79.87L41.7903 80.35C41.6703 80.0833 41.5169 79.7833 41.3303 79.45C41.1436 79.1167 40.9503 78.7833 40.7503 78.45C40.5503 78.1167 40.3569 77.8233 40.1703 77.57L41.2503 77.13ZM43.4503 76.31C43.6236 76.5633 43.8169 76.8567 44.0303 77.19C44.2436 77.5233 44.4503 77.8567 44.6503 78.19C44.8503 78.51 45.0103 78.7967 45.1303 79.05L44.0503 79.53C43.8369 79.09 43.5769 78.6167 43.2703 78.11C42.9636 77.59 42.6703 77.1433 42.3903 76.77L43.4503 76.31ZM60.8503 81.85C60.6369 81.9833 60.4036 82.1167 60.1503 82.25C59.8969 82.3833 59.6236 82.5233 59.3303 82.67C58.8769 82.91 58.3436 83.1833 57.7303 83.49C57.1169 83.7967 56.4636 84.1367 55.7703 84.51C55.0903 84.8833 54.4303 85.29 53.7903 85.73C52.8569 86.33 52.1236 86.9633 51.5903 87.63C51.0703 88.2967 50.8103 89.01 50.8103 89.77C50.8103 90.5967 51.2036 91.2567 51.9903 91.75C52.7769 92.23 53.9636 92.47 55.5503 92.47C56.2836 92.47 57.0436 92.4433 57.8303 92.39C58.6169 92.3233 59.3703 92.2367 60.0903 92.13C60.8236 92.0233 61.4436 91.91 61.9503 91.79L61.9303 93.57C61.4369 93.6633 60.8569 93.7433 60.1903 93.81C59.5236 93.89 58.8036 93.95 58.0303 93.99C57.2569 94.0433 56.4503 94.07 55.6103 94.07C54.6769 94.07 53.8169 93.99 53.0303 93.83C52.2436 93.6833 51.5569 93.45 50.9703 93.13C50.3969 92.81 49.9503 92.39 49.6303 91.87C49.3103 91.3367 49.1503 90.6967 49.1503 89.95C49.1503 89.2167 49.2969 88.5433 49.5903 87.93C49.8969 87.3033 50.3369 86.71 50.9103 86.15C51.4969 85.59 52.1769 85.05 52.9503 84.53C53.6303 84.0633 54.3236 83.6367 55.0303 83.25C55.7369 82.8633 56.4036 82.51 57.0303 82.19C57.6703 81.8567 58.2036 81.57 58.6303 81.33C58.9103 81.17 59.1636 81.0167 59.3903 80.87C59.6169 80.7233 59.8369 80.5633 60.0503 80.39L60.8503 81.85ZM51.2703 77.95C51.5769 78.8033 51.9103 79.6433 52.2703 80.47C52.6303 81.2833 52.9903 82.0433 53.3503 82.75C53.7103 83.4567 54.0436 84.0767 54.3503 84.61L52.9903 85.43C52.6569 84.8833 52.3036 84.2367 51.9303 83.49C51.5569 82.7433 51.1769 81.95 50.7903 81.11C50.4169 80.27 50.0503 79.4367 49.6903 78.61L51.2703 77.95ZM61.1903 77.75C61.3636 77.99 61.5503 78.2767 61.7503 78.61C61.9503 78.93 62.1436 79.2567 62.3303 79.59C62.5303 79.9233 62.6969 80.23 62.8303 80.51L61.7503 80.99C61.5503 80.5767 61.2969 80.1033 60.9903 79.57C60.6836 79.0367 60.3903 78.5833 60.1103 78.21L61.1903 77.75ZM63.3903 76.95C63.5769 77.19 63.7703 77.4767 63.9703 77.81C64.1836 78.1433 64.3903 78.4767 64.5903 78.81C64.7903 79.13 64.9503 79.4167 65.0703 79.67L64.0103 80.15C63.7836 79.7233 63.5169 79.25 63.2103 78.73C62.9169 78.21 62.6236 77.7633 62.3303 77.39L63.3903 76.95ZM80.0503 86.59C80.0503 86.03 79.9036 85.5367 79.6103 85.11C79.3303 84.67 78.9303 84.33 78.4103 84.09C77.9036 83.8367 77.3103 83.71 76.6303 83.71C75.8569 83.71 75.1303 83.77 74.4503 83.89C73.7703 84.01 73.1503 84.15 72.5903 84.31C72.0436 84.47 71.5703 84.6033 71.1703 84.71C70.8636 84.8033 70.5636 84.9033 70.2703 85.01C69.9903 85.1167 69.7303 85.2233 69.4903 85.33L68.9703 83.47C69.2503 83.4433 69.5503 83.4033 69.8703 83.35C70.2036 83.2967 70.5169 83.2367 70.8103 83.17C71.2903 83.0633 71.8436 82.9367 72.4703 82.79C73.1103 82.6433 73.7969 82.51 74.5303 82.39C75.2769 82.27 76.0303 82.21 76.7903 82.21C77.7369 82.21 78.5836 82.3833 79.3303 82.73C80.0769 83.0767 80.6636 83.5833 81.0903 84.25C81.5303 84.9033 81.7503 85.7033 81.7503 86.65C81.7503 87.7433 81.5236 88.7167 81.0703 89.57C80.6169 90.41 79.9769 91.1433 79.1503 91.77C78.3369 92.3833 77.3769 92.8967 76.2703 93.31C75.1636 93.7233 73.9636 94.0233 72.6703 94.21L71.7703 92.69C72.9703 92.5433 74.0769 92.31 75.0903 91.99C76.1036 91.6567 76.9769 91.2433 77.7103 90.75C78.4569 90.2567 79.0303 89.6633 79.4303 88.97C79.8436 88.2767 80.0503 87.4833 80.0503 86.59ZM71.6503 77.59C72.1969 77.71 72.8503 77.8233 73.6103 77.93C74.3836 78.0367 75.1769 78.1367 75.9903 78.23C76.8169 78.31 77.5903 78.3767 78.3103 78.43C79.0436 78.4833 79.6569 78.51 80.1503 78.51L79.9103 80.05C79.3503 80.01 78.6969 79.9633 77.9503 79.91C77.2169 79.8433 76.4503 79.77 75.6503 79.69C74.8636 79.5967 74.0969 79.5033 73.3503 79.41C72.6169 79.3033 71.9636 79.2033 71.3903 79.11L71.6503 77.59ZM87.5903 80.63C87.9636 80.6833 88.3569 80.7233 88.7703 80.75C89.1836 80.7633 89.6036 80.77 90.0303 80.77C90.7636 80.77 91.5169 80.7367 92.2903 80.67C93.0769 80.6033 93.8703 80.4967 94.6703 80.35C95.4703 80.19 96.2569 79.9833 97.0303 79.73L97.0703 81.23C96.4169 81.4033 95.6969 81.5633 94.9103 81.71C94.1369 81.8567 93.3303 81.9767 92.4903 82.07C91.6636 82.15 90.8436 82.19 90.0303 82.19C89.6703 82.19 89.2836 82.19 88.8703 82.19C88.4703 82.1767 88.0769 82.1567 87.6903 82.13L87.5903 80.63ZM94.6703 77.37C94.5903 77.69 94.4903 78.0967 94.3703 78.59C94.2503 79.0833 94.1169 79.6033 93.9703 80.15C93.8369 80.6833 93.6903 81.19 93.5303 81.67C93.2103 82.63 92.8036 83.6433 92.3103 84.71C91.8169 85.7633 91.2903 86.79 90.7303 87.79C90.1703 88.79 89.6169 89.6633 89.0703 90.41L87.5303 89.61C87.9703 89.09 88.4103 88.4967 88.8503 87.83C89.3036 87.1633 89.7236 86.4633 90.1103 85.73C90.5103 84.9967 90.8703 84.2767 91.1903 83.57C91.5103 82.8633 91.7769 82.2167 91.9903 81.63C92.2036 80.99 92.4036 80.27 92.5903 79.47C92.7769 78.6567 92.8836 77.9033 92.9103 77.21L94.6703 77.37ZM99.3903 83.55C99.3769 83.9633 99.3636 84.3367 99.3503 84.67C99.3503 84.99 99.3569 85.3367 99.3703 85.71C99.3836 86.03 99.3969 86.4433 99.4103 86.95C99.4369 87.4433 99.4636 87.97 99.4903 88.53C99.5169 89.0767 99.5369 89.6033 99.5503 90.11C99.5769 90.6167 99.5903 91.0367 99.5903 91.37C99.5903 91.9033 99.4703 92.39 99.2303 92.83C98.9903 93.27 98.6103 93.6167 98.0903 93.87C97.5836 94.1367 96.9169 94.27 96.0903 94.27C95.3569 94.27 94.6903 94.1633 94.0903 93.95C93.4903 93.75 93.0036 93.4367 92.6303 93.01C92.2703 92.5833 92.0903 92.0433 92.0903 91.39C92.0903 90.7633 92.2636 90.23 92.6103 89.79C92.9703 89.3367 93.4503 88.99 94.0503 88.75C94.6636 88.51 95.3436 88.39 96.0903 88.39C97.2103 88.39 98.2369 88.55 99.1703 88.87C100.117 89.1767 100.964 89.57 101.71 90.05C102.47 90.53 103.124 91.0033 103.67 91.47L102.81 92.83C102.424 92.4833 101.99 92.1233 101.51 91.75C101.044 91.3767 100.524 91.0367 99.9503 90.73C99.3769 90.41 98.7636 90.15 98.1103 89.95C97.4569 89.75 96.7636 89.65 96.0303 89.65C95.2969 89.65 94.7036 89.8033 94.2503 90.11C93.7969 90.4167 93.5703 90.7967 93.5703 91.25C93.5703 91.7167 93.7636 92.0967 94.1503 92.39C94.5369 92.6833 95.1169 92.83 95.8903 92.83C96.4503 92.83 96.8903 92.7433 97.2103 92.57C97.5303 92.3833 97.7569 92.1433 97.8903 91.85C98.0369 91.5433 98.1103 91.21 98.1103 90.85C98.1103 90.4767 98.0969 89.99 98.0703 89.39C98.0569 88.79 98.0303 88.15 97.9903 87.47C97.9636 86.7767 97.9303 86.09 97.8903 85.41C97.8636 84.7167 97.8436 84.0967 97.8303 83.55H99.3903ZM103.39 84.09C103.03 83.77 102.577 83.4367 102.03 83.09C101.484 82.7433 100.917 82.4167 100.33 82.11C99.7569 81.79 99.2503 81.53 98.8103 81.33L99.6303 80.11C99.9903 80.27 100.39 80.4633 100.83 80.69C101.27 80.9167 101.71 81.1567 102.15 81.41C102.59 81.6633 102.997 81.91 103.37 82.15C103.757 82.3767 104.064 82.5833 104.29 82.77L103.39 84.09ZM108.85 85.27C109.157 85.2033 109.464 85.13 109.77 85.05C110.09 84.9567 110.41 84.8633 110.73 84.77C111.077 84.6633 111.53 84.5167 112.09 84.33C112.65 84.1433 113.257 83.9633 113.91 83.79C114.564 83.6167 115.224 83.4633 115.89 83.33C116.57 83.1967 117.204 83.13 117.79 83.13C118.737 83.13 119.577 83.31 120.31 83.67C121.044 84.03 121.617 84.5433 122.03 85.21C122.457 85.8633 122.67 86.65 122.67 87.57C122.67 88.53 122.45 89.3767 122.01 90.11C121.57 90.83 120.944 91.4433 120.13 91.95C119.33 92.4567 118.37 92.8567 117.25 93.15C116.144 93.4433 114.917 93.63 113.57 93.71L112.93 92.17C114.01 92.13 115.037 92.0233 116.01 91.85C116.984 91.6633 117.85 91.39 118.61 91.03C119.37 90.67 119.964 90.2033 120.39 89.63C120.83 89.0433 121.05 88.3433 121.05 87.53C121.05 86.9567 120.91 86.45 120.63 86.01C120.35 85.57 119.957 85.2233 119.45 84.97C118.957 84.7033 118.364 84.57 117.67 84.57C117.177 84.57 116.624 84.6367 116.01 84.77C115.397 84.89 114.764 85.05 114.11 85.25C113.457 85.45 112.83 85.6633 112.23 85.89C111.63 86.1033 111.097 86.3033 110.63 86.49C110.164 86.6633 109.797 86.8033 109.53 86.91L108.85 85.27ZM126.354 79.97C126.741 79.9567 127.088 79.9433 127.394 79.93C127.701 79.9033 127.948 79.8833 128.134 79.87C128.454 79.83 128.914 79.7833 129.514 79.73C130.128 79.6633 130.828 79.5967 131.614 79.53C132.401 79.45 133.248 79.37 134.154 79.29C135.061 79.21 135.974 79.13 136.894 79.05C137.628 78.9833 138.321 78.93 138.974 78.89C139.628 78.8367 140.234 78.7967 140.794 78.77C141.354 78.73 141.854 78.7033 142.294 78.69V80.29C141.921 80.2767 141.494 80.2767 141.014 80.29C140.534 80.3033 140.061 80.3367 139.594 80.39C139.128 80.43 138.721 80.5033 138.374 80.61C137.668 80.8367 137.028 81.1833 136.454 81.65C135.894 82.1033 135.414 82.63 135.014 83.23C134.614 83.8167 134.308 84.4367 134.094 85.09C133.894 85.73 133.794 86.3433 133.794 86.93C133.794 87.7167 133.928 88.4033 134.194 88.99C134.461 89.5633 134.821 90.05 135.274 90.45C135.741 90.85 136.268 91.1767 136.854 91.43C137.454 91.6833 138.081 91.87 138.734 91.99C139.388 92.11 140.041 92.1833 140.694 92.21L140.114 93.87C139.381 93.8433 138.634 93.7367 137.874 93.55C137.128 93.3767 136.414 93.1233 135.734 92.79C135.054 92.4433 134.448 92.01 133.914 91.49C133.381 90.97 132.961 90.3633 132.654 89.67C132.348 88.9767 132.194 88.1833 132.194 87.29C132.194 86.25 132.374 85.29 132.734 84.41C133.108 83.5167 133.581 82.7367 134.154 82.07C134.728 81.4033 135.321 80.89 135.934 80.53C135.508 80.5833 134.981 80.6433 134.354 80.71C133.728 80.7767 133.048 80.85 132.314 80.93C131.594 80.9967 130.874 81.0767 130.154 81.17C129.434 81.2633 128.754 81.3567 128.114 81.45C127.488 81.53 126.961 81.6167 126.534 81.71L126.354 79.97ZM149.114 79.29C149.088 79.45 149.061 79.65 149.034 79.89C149.021 80.13 149.001 80.37 148.974 80.61C148.961 80.85 148.954 81.0567 148.954 81.23C148.941 81.6433 148.934 82.1167 148.934 82.65C148.948 83.17 148.961 83.7167 148.974 84.29C149.001 84.85 149.041 85.41 149.094 85.97C149.201 87.0767 149.381 88.05 149.634 88.89C149.888 89.7167 150.194 90.3633 150.554 90.83C150.928 91.2967 151.348 91.53 151.814 91.53C152.068 91.53 152.314 91.4167 152.554 91.19C152.794 90.95 153.021 90.6367 153.234 90.25C153.461 89.85 153.661 89.41 153.834 88.93C154.021 88.4367 154.174 87.9433 154.294 87.45L155.554 88.87C155.154 90.0033 154.748 90.9033 154.334 91.57C153.934 92.2233 153.521 92.6967 153.094 92.99C152.681 93.2833 152.248 93.43 151.794 93.43C151.168 93.43 150.561 93.2033 149.974 92.75C149.388 92.2833 148.881 91.5367 148.454 90.51C148.028 89.47 147.721 88.09 147.534 86.37C147.468 85.7833 147.414 85.15 147.374 84.47C147.348 83.79 147.328 83.1433 147.314 82.53C147.314 81.9167 147.314 81.4167 147.314 81.03C147.314 80.8033 147.308 80.51 147.294 80.15C147.281 79.79 147.241 79.49 147.174 79.25L149.114 79.29ZM159.534 79.85C159.894 80.3033 160.234 80.8367 160.554 81.45C160.888 82.05 161.188 82.6967 161.454 83.39C161.734 84.07 161.981 84.7767 162.194 85.51C162.421 86.2433 162.601 86.9767 162.734 87.71C162.881 88.43 162.988 89.1233 163.054 89.79L161.454 90.45C161.374 89.5433 161.234 88.6233 161.034 87.69C160.834 86.7433 160.588 85.83 160.294 84.95C160.001 84.0567 159.661 83.2167 159.274 82.43C158.888 81.6433 158.454 80.9633 157.974 80.39L159.534 79.85ZM169.414 78.51C169.641 78.5367 169.881 78.5567 170.134 78.57C170.401 78.5833 170.634 78.59 170.834 78.59C171.034 78.59 171.361 78.5833 171.814 78.57C172.281 78.5567 172.801 78.5433 173.374 78.53C173.961 78.5033 174.541 78.4833 175.114 78.47C175.701 78.4433 176.221 78.4167 176.674 78.39C177.141 78.3633 177.481 78.3433 177.694 78.33C177.988 78.3033 178.214 78.2767 178.374 78.25C178.534 78.2233 178.668 78.1967 178.774 78.17L179.694 79.33C179.521 79.45 179.334 79.5767 179.134 79.71C178.948 79.8433 178.761 79.99 178.574 80.15C178.321 80.3367 177.981 80.61 177.554 80.97C177.128 81.3167 176.654 81.71 176.134 82.15C175.628 82.5767 175.128 82.9967 174.634 83.41C174.141 83.8233 173.694 84.1967 173.294 84.53C173.761 84.37 174.228 84.2633 174.694 84.21C175.174 84.1433 175.634 84.11 176.074 84.11C177.181 84.11 178.161 84.3167 179.014 84.73C179.881 85.13 180.554 85.6833 181.034 86.39C181.528 87.0967 181.774 87.9033 181.774 88.81C181.774 89.8767 181.494 90.81 180.934 91.61C180.374 92.41 179.581 93.0233 178.554 93.45C177.528 93.89 176.308 94.11 174.894 94.11C173.988 94.11 173.208 93.99 172.554 93.75C171.901 93.51 171.394 93.1767 171.034 92.75C170.688 92.3233 170.514 91.83 170.514 91.27C170.514 90.8167 170.641 90.39 170.894 89.99C171.148 89.59 171.508 89.27 171.974 89.03C172.441 88.79 172.981 88.67 173.594 88.67C174.488 88.67 175.228 88.8567 175.814 89.23C176.401 89.59 176.854 90.07 177.174 90.67C177.494 91.2567 177.674 91.89 177.714 92.57L176.274 92.81C176.221 91.9567 175.954 91.2567 175.474 90.71C175.008 90.15 174.374 89.87 173.574 89.87C173.121 89.87 172.741 89.9967 172.434 90.25C172.128 90.5033 171.974 90.8033 171.974 91.15C171.974 91.63 172.221 92.01 172.714 92.29C173.208 92.57 173.848 92.71 174.634 92.71C175.768 92.71 176.748 92.5567 177.574 92.25C178.414 91.9433 179.054 91.4967 179.494 90.91C179.948 90.3233 180.174 89.6167 180.174 88.79C180.174 88.1367 179.981 87.55 179.594 87.03C179.208 86.51 178.674 86.1033 177.994 85.81C177.328 85.5033 176.561 85.35 175.694 85.35C174.854 85.35 174.101 85.4433 173.434 85.63C172.768 85.8033 172.141 86.0567 171.554 86.39C170.981 86.7233 170.408 87.1433 169.834 87.65C169.274 88.1433 168.674 88.71 168.034 89.35L166.894 88.17C167.308 87.8367 167.761 87.4633 168.254 87.05C168.761 86.6233 169.268 86.2033 169.774 85.79C170.281 85.3633 170.748 84.97 171.174 84.61C171.614 84.2367 171.981 83.93 172.274 83.69C172.554 83.4633 172.901 83.1767 173.314 82.83C173.741 82.47 174.181 82.0967 174.634 81.71C175.088 81.3233 175.514 80.9567 175.914 80.61C176.328 80.2633 176.661 79.9833 176.914 79.77C176.701 79.77 176.388 79.7833 175.974 79.81C175.561 79.8233 175.101 79.8433 174.594 79.87C174.088 79.8833 173.581 79.9033 173.074 79.93C172.581 79.9567 172.128 79.9833 171.714 80.01C171.314 80.0233 171.008 80.0367 170.794 80.05C170.581 80.0633 170.361 80.0767 170.134 80.09C169.908 80.1033 169.688 80.13 169.474 80.17L169.414 78.51ZM193.554 88.41C193.448 87.8633 193.468 87.37 193.614 86.93C193.774 86.49 194.008 86.0967 194.314 85.75C194.634 85.39 194.981 85.0633 195.354 84.77C195.741 84.4633 196.108 84.1633 196.454 83.87C196.801 83.5767 197.088 83.2767 197.314 82.97C197.541 82.65 197.654 82.3033 197.654 81.93C197.654 81.4633 197.541 81.05 197.314 80.69C197.088 80.33 196.754 80.05 196.314 79.85C195.874 79.6367 195.308 79.53 194.614 79.53C193.934 79.53 193.274 79.6833 192.634 79.99C192.008 80.2833 191.408 80.7367 190.834 81.35L189.754 80.35C190.421 79.6433 191.161 79.0833 191.974 78.67C192.788 78.2433 193.734 78.03 194.814 78.03C195.761 78.03 196.574 78.1833 197.254 78.49C197.948 78.7967 198.481 79.23 198.854 79.79C199.241 80.3367 199.434 80.9967 199.434 81.77C199.434 82.2767 199.321 82.7233 199.094 83.11C198.868 83.4967 198.574 83.85 198.214 84.17C197.868 84.49 197.501 84.8033 197.114 85.11C196.728 85.4033 196.368 85.71 196.034 86.03C195.714 86.35 195.468 86.7033 195.294 87.09C195.134 87.4767 195.101 87.9167 195.194 88.41H193.554ZM194.414 93.35C194.054 93.35 193.748 93.23 193.494 92.99C193.241 92.75 193.114 92.43 193.114 92.03C193.114 91.63 193.241 91.31 193.494 91.07C193.748 90.8167 194.054 90.69 194.414 90.69C194.761 90.69 195.061 90.8167 195.314 91.07C195.568 91.31 195.694 91.63 195.694 92.03C195.694 92.43 195.568 92.75 195.314 92.99C195.061 93.23 194.761 93.35 194.414 93.35Z" fill="black"/>
</svg>
