<svg width="211" height="149" viewBox="0 0 211 149" fill="none" xmlns="http://www.w3.org/2000/svg">
<rect width="210" height="148.5" transform="matrix(-1 0 0 -1 210.65 148.731)" fill="white"/>
<path d="M149.293 39.7619C149.032 39.7619 148.902 39.6864 148.902 39.5354C148.902 39.3843 149.015 39.302 149.241 39.2882L150.415 39.1441C150.763 39.1029 150.998 39.0342 151.12 38.9381C151.242 38.8283 151.303 38.6292 151.303 38.3409V25.9841C151.303 25.7918 151.25 25.6546 151.146 25.5722C151.042 25.4898 150.824 25.4486 150.494 25.4486C149.85 25.4486 149.215 25.6683 148.589 26.1076C147.962 26.547 147.554 27.2541 147.362 28.2289L147.232 28.9085C147.197 29.087 147.075 29.1762 146.866 29.1762C146.606 29.1762 146.492 29.0595 146.527 28.8261L146.762 25.0985C146.797 24.7827 146.953 24.6248 147.232 24.6248C147.354 24.6248 147.467 24.6523 147.571 24.7072C147.675 24.7484 147.849 24.7964 148.093 24.8514C148.354 24.9063 148.763 24.9337 149.319 24.9337H155.138C155.695 24.9337 156.095 24.9063 156.339 24.8514C156.6 24.7964 156.782 24.7484 156.887 24.7072C157.009 24.6523 157.122 24.6248 157.226 24.6248C157.504 24.6248 157.661 24.7827 157.696 25.0985L157.931 28.8261C157.965 29.0595 157.852 29.1762 157.591 29.1762C157.383 29.1762 157.261 29.087 157.226 28.9085L157.096 28.2289C156.922 27.2541 156.521 26.547 155.895 26.1076C155.269 25.6683 154.625 25.4486 153.964 25.4486C153.634 25.4486 153.416 25.4898 153.312 25.5722C153.207 25.6546 153.155 25.7918 153.155 25.9841V38.3409C153.155 38.6292 153.216 38.8283 153.338 38.9381C153.477 39.0342 153.712 39.1029 154.043 39.1441L155.217 39.2882C155.443 39.302 155.556 39.3843 155.556 39.5354C155.556 39.6864 155.426 39.7619 155.165 39.7619H149.293Z" fill="black"/>
<path d="M140.593 39.9473C140.245 39.9473 139.854 39.9198 139.419 39.8649C139.001 39.81 138.601 39.7413 138.218 39.6589C137.853 39.5765 137.566 39.4873 137.357 39.3912C137.235 39.3363 137.14 39.2814 137.07 39.2264C137.018 39.1578 136.992 39.0479 136.992 38.8969L136.861 35.6636C136.861 35.389 136.975 35.2517 137.201 35.2517C137.392 35.2517 137.523 35.3752 137.592 35.6224L137.827 36.405C138.418 38.3683 139.523 39.35 141.141 39.35C142.011 39.35 142.698 39.1235 143.202 38.6704C143.724 38.2036 143.985 37.5514 143.985 36.7139C143.985 35.9038 143.716 35.1487 143.176 34.4485C142.654 33.7483 141.811 33.0549 140.645 32.3684C139.358 31.6407 138.418 30.9405 137.827 30.2678C137.235 29.5813 136.94 28.8536 136.94 28.0847C136.94 27.0687 137.383 26.2587 138.271 25.6545C139.175 25.0367 140.323 24.7278 141.715 24.7278C142.237 24.7278 142.741 24.7758 143.229 24.8719C143.716 24.9681 144.116 25.1054 144.429 25.2838C144.533 25.3388 144.612 25.4005 144.664 25.4692C144.733 25.5378 144.768 25.6271 144.768 25.7369L144.846 28.8467C144.846 29.0801 144.733 29.1968 144.507 29.1968C144.351 29.1968 144.238 29.1007 144.168 28.9085L143.985 28.3936C143.603 27.3364 143.202 26.5676 142.785 26.087C142.385 25.5928 141.802 25.3456 141.037 25.3456C140.289 25.3456 139.688 25.5378 139.236 25.9223C138.801 26.3067 138.584 26.849 138.584 27.5493C138.584 28.1396 138.827 28.7026 139.314 29.238C139.801 29.7735 140.654 30.4256 141.872 31.1945C143.176 32.032 144.124 32.8421 144.716 33.6247C145.325 34.3936 145.629 35.2173 145.629 36.096C145.629 36.8649 145.412 37.5377 144.977 38.1143C144.542 38.691 143.942 39.1441 143.176 39.4736C142.428 39.7894 141.567 39.9473 140.593 39.9473Z" fill="black"/>
<path d="M124.855 39.7619C124.594 39.7619 124.463 39.6864 124.463 39.5353C124.463 39.4118 124.576 39.3294 124.802 39.2882L125.403 39.2058C125.768 39.1509 126.003 39.0754 126.107 38.9793C126.229 38.8832 126.29 38.691 126.29 38.4026V26.293C126.29 26.0046 126.229 25.8124 126.107 25.7163C126.003 25.6202 125.768 25.5447 125.403 25.4898L124.802 25.4074C124.576 25.3662 124.463 25.2838 124.463 25.1603C124.463 25.0092 124.594 24.9337 124.855 24.9337H133.622C134.023 24.9337 134.24 25.0916 134.275 25.4074L134.484 28.8261C134.518 29.0595 134.405 29.1762 134.144 29.1762C133.936 29.1762 133.814 29.087 133.779 28.9085L133.622 28.1465C133.431 27.2129 133.04 26.5332 132.448 26.1076C131.857 25.6683 131.039 25.4486 129.995 25.4486C129.299 25.4486 128.812 25.531 128.534 25.6957C128.273 25.8467 128.143 26.1213 128.143 26.5195V31.4828C128.143 31.675 128.264 31.7711 128.508 31.7711H129.813C130.578 31.7711 131.048 31.4485 131.222 30.8032L131.483 29.7735C131.552 29.5675 131.7 29.4783 131.926 29.5057C132.118 29.5332 132.213 29.6499 132.213 29.8558V34.4896C132.213 34.6956 132.118 34.8123 131.926 34.8398C131.7 34.8672 131.552 34.778 131.483 34.572L131.222 33.5629C131.1 33.0823 130.926 32.7666 130.7 32.6155C130.491 32.4645 130.187 32.389 129.787 32.389H128.508C128.264 32.389 128.143 32.4851 128.143 32.6773V37.8466C128.143 38.3409 128.299 38.6978 128.612 38.9175C128.943 39.1372 129.534 39.247 130.387 39.247C131.257 39.247 131.996 39.0754 132.605 38.7322C133.231 38.3752 133.666 37.7161 133.91 36.7551L134.223 35.54C134.275 35.3615 134.405 35.2722 134.614 35.2722C134.858 35.2722 134.962 35.3889 134.927 35.6224L134.666 39.2882C134.631 39.604 134.414 39.7619 134.014 39.7619H124.855Z" fill="black"/>
<path d="M117.153 39.9472C116.214 39.9472 115.379 39.7756 114.648 39.4324C113.935 39.0754 113.378 38.588 112.978 37.9701C112.578 37.3386 112.378 36.6178 112.378 35.8077V26.293C112.378 26.0046 112.317 25.8124 112.195 25.7163C112.091 25.6202 111.856 25.5447 111.491 25.4898L110.891 25.4074C110.664 25.3662 110.551 25.2838 110.551 25.1603C110.551 25.0092 110.682 24.9337 110.943 24.9337H115.718C115.979 24.9337 116.109 25.0161 116.109 25.1809C116.109 25.3044 116.014 25.3799 115.822 25.4074L115.118 25.4898C114.77 25.531 114.535 25.6065 114.413 25.7163C114.292 25.8262 114.231 26.0252 114.231 26.3136V35.8283C114.231 36.8718 114.526 37.6818 115.118 38.2585C115.709 38.8351 116.536 39.1234 117.597 39.1234C118.675 39.1234 119.51 38.8351 120.102 38.2585C120.693 37.6818 120.989 36.8718 120.989 35.8283V26.7255C120.989 25.984 120.693 25.5722 120.102 25.4898L119.397 25.4074C119.206 25.3799 119.11 25.3044 119.11 25.1809C119.11 25.0161 119.241 24.9337 119.502 24.9337H123.259C123.52 24.9337 123.651 25.0092 123.651 25.1603C123.651 25.2838 123.538 25.3662 123.312 25.4074L122.711 25.4898C122.12 25.5722 121.824 25.9772 121.824 26.7049V35.8077C121.824 37.0571 121.398 38.0594 120.546 38.8145C119.693 39.5697 118.562 39.9472 117.153 39.9472Z" fill="black"/>
<path d="M93.1332 9.776C94.0275 8.76484 95.0997 8.46496 96.0487 8.67461C96.888 8.86008 97.6001 9.43996 97.9631 10.2061C98.7823 9.47524 99.5764 9.27087 100.308 9.45571C100.981 9.62568 101.532 10.1105 101.953 10.6506C103.146 9.42406 104.383 9.1506 105.453 9.4263C106.473 9.6892 107.287 10.4385 107.723 11.1934C108.966 10.9708 109.767 11.201 110.189 11.7661C110.562 12.2665 110.554 12.9269 110.434 13.457C110.962 13.8569 111.307 14.2494 111.492 14.6366C111.702 15.0774 111.696 15.498 111.533 15.8672C111.376 16.2234 111.084 16.5055 110.767 16.7174C110.539 16.869 110.287 16.9914 110.037 17.0847C110.211 17.7112 110.219 18.2488 110.081 18.6992C109.919 19.2268 109.567 19.5972 109.129 19.8325C108.362 20.2452 107.323 20.2517 106.453 20.0301C106.227 20.5703 105.946 20.99 105.604 21.2901C105.203 21.6432 104.737 21.8165 104.23 21.8402C103.298 21.8838 102.248 21.4191 101.177 20.7169C98.7282 22.5996 95.8567 23.0841 93.8183 23.0841C91.952 23.0841 90.3854 23.0936 88.6703 23.0984C86.9344 23.1033 85.0488 23.1035 82.553 23.0841L82.5581 22.4611C85.0511 22.4805 86.9342 22.4804 88.6686 22.4755C89.6686 22.4726 90.6201 22.4683 91.6105 22.4652C91.9896 22.8475 92.5152 23.0844 93.0962 23.0844C93.6918 23.0843 94.2286 22.8351 94.6097 22.4357C96.5198 22.3156 98.922 21.7349 100.967 20.0902L101.146 19.9456L101.337 20.0751C102.456 20.8353 103.43 21.254 104.201 21.218C104.575 21.2005 104.904 21.0765 105.193 20.8223C105.487 20.5638 105.755 20.1561 105.972 19.5477L106.074 19.2621L106.362 19.3563C107.185 19.6253 108.183 19.634 108.834 19.2837C109.149 19.1145 109.378 18.8653 109.486 18.5162C109.595 18.1603 109.589 17.6636 109.355 16.9864L109.247 16.6744L109.565 16.5849C109.857 16.5027 110.163 16.3709 110.421 16.1993C110.681 16.0259 110.87 15.8259 110.963 15.6155C111.05 15.4181 111.064 15.1872 110.929 14.9046C110.789 14.6094 110.481 14.2488 109.9 13.8371L109.718 13.7079L109.781 13.4939C109.93 12.9952 109.935 12.4674 109.69 12.1389C109.466 11.839 108.921 11.5695 107.623 11.848L107.384 11.8993L107.277 11.6793C106.945 10.9928 106.209 10.2643 105.297 10.0294C104.418 9.80281 103.308 10.0197 102.16 11.3457L101.894 11.654L101.666 11.3156C101.255 10.7022 100.735 10.2061 100.156 10.0596C99.6095 9.92167 98.9107 10.0722 98.0644 10.9792L97.6762 11.3953L97.535 10.8439C97.3375 10.0733 96.6953 9.45558 95.9144 9.283C95.1535 9.11486 94.2155 9.36275 93.4085 10.4213L93.1805 10.7208L92.9291 10.4407C92.5753 10.0466 92.0074 9.76668 91.4765 9.83005C90.9807 9.88926 90.4072 10.2645 90.0508 11.4164L89.9902 11.6127L89.7861 11.6341C88.99 11.7181 88.5831 12.0492 88.4496 12.3996C88.3154 12.7521 88.4053 13.2603 88.9011 13.8117L89.0771 14.0073L88.9137 14.2135C88.6217 14.5822 88.3181 15.1322 88.2819 15.6072C88.2646 15.8347 88.3097 16.0249 88.4257 16.1771C88.5431 16.3311 88.7632 16.4859 89.1714 16.5816L89.0291 17.188C88.5268 17.0702 88.1607 16.8568 87.9305 16.555C87.6991 16.2515 87.635 15.8979 87.6607 15.56C87.703 15.004 87.9905 14.4391 88.2739 14.0312C87.81 13.4278 87.6451 12.7622 87.8676 12.1779C88.0972 11.5752 88.6945 11.1752 89.5191 11.0415C89.9325 9.86803 90.6273 9.30416 91.4028 9.2116C92.0497 9.13441 92.6789 9.39723 93.1332 9.776Z" fill="black"/>
<path d="M69.3748 39.5353C69.3748 39.6864 69.5053 39.7619 69.7663 39.7619H75.6376C75.8985 39.7619 76.029 39.6864 76.029 39.5353C76.029 39.3843 75.9159 39.3019 75.6897 39.2882L74.5155 39.144C74.185 39.1029 73.9501 39.0342 73.8109 38.9381C73.6892 38.8283 73.6283 38.6292 73.6283 38.3409V33.3158C73.6283 33.0961 73.6544 32.9039 73.7066 32.7391C73.7587 32.5606 73.8457 32.3753 73.9675 32.183L77.3859 26.7666C77.6816 26.3136 77.9165 25.9909 78.0904 25.7987C79.2598 24.5067 80.9527 23.1589 82.553 23.0841L82.5581 22.4611C78.9664 22.1181 77.4155 25.2753 76.5248 26.746L73.4456 31.7094C73.376 31.8055 73.289 31.8535 73.1847 31.8535C73.0803 31.8535 72.9933 31.8055 72.9237 31.7094L69.7141 26.3136C69.5401 26.0252 69.514 25.8124 69.6358 25.6751C69.7576 25.5378 69.9663 25.4623 70.2621 25.4486L70.7579 25.4074C71.0536 25.3937 71.2015 25.3113 71.2015 25.1603C71.2015 25.0092 71.0797 24.9337 70.8361 24.9337H66.374C66.113 24.9337 65.9825 25.0024 65.9825 25.1397C65.9825 25.277 66.1043 25.3662 66.3479 25.4074L66.5827 25.4486C66.8785 25.5035 67.1046 25.5927 67.2612 25.7163C67.4177 25.8399 67.5569 26.0184 67.6787 26.2518L71.5146 32.5949C71.6886 32.8833 71.7755 33.1785 71.7755 33.4805V38.3409C71.7755 38.6292 71.7147 38.8283 71.5929 38.9381C71.4711 39.0342 71.2363 39.1029 70.8883 39.144L69.7141 39.2882C69.4879 39.3019 69.3748 39.3843 69.3748 39.5353Z" fill="black"/>
<path d="M64.1408 39.9472C63.8625 39.9472 63.6277 39.7825 63.4363 39.453L56.3647 27.3433C56.3125 27.2472 56.2429 27.206 56.1559 27.2197C56.0863 27.2335 56.0515 27.2952 56.0515 27.4051V37.9907C56.0515 38.3752 56.1298 38.6704 56.2864 38.8763C56.4603 39.0685 56.7648 39.1921 57.1997 39.247L57.5389 39.2882C57.7651 39.3019 57.8781 39.3843 57.8781 39.5353C57.8781 39.6864 57.7477 39.7619 57.4867 39.7619H53.7552C53.4942 39.7619 53.3638 39.6864 53.3638 39.5353C53.3638 39.3843 53.4768 39.3019 53.703 39.2882L54.0422 39.247C54.4945 39.1921 54.8077 39.0685 54.9816 38.8763C55.1556 38.6704 55.2426 38.3752 55.2426 37.9907V26.293C55.2426 26.0046 55.1817 25.8124 55.0599 25.7163C54.9555 25.6202 54.7033 25.5447 54.3032 25.4898L53.703 25.4074C53.4768 25.3662 53.3638 25.2838 53.3638 25.1603C53.3638 25.0092 53.4942 24.9337 53.7552 24.9337H56.5473C56.9822 24.9337 57.2867 25.0847 57.4606 25.3868L63.619 36.0754C63.6711 36.1578 63.732 36.1921 63.8016 36.1784C63.8886 36.1647 63.9321 36.1166 63.9321 36.0342V26.7049C63.9321 26.2655 63.8364 25.9635 63.645 25.7987C63.4537 25.6202 63.2101 25.5104 62.9144 25.4692L62.4447 25.4074C62.2185 25.3662 62.1055 25.2838 62.1055 25.1603C62.1055 25.0092 62.2359 24.9337 62.4969 24.9337H66.2284C66.4894 24.9337 66.6198 25.0092 66.6198 25.1603C66.6198 25.3113 66.5068 25.3937 66.2806 25.4074L65.9414 25.4486C65.4891 25.5035 65.1759 25.6202 65.002 25.7987C64.828 25.9635 64.741 26.2655 64.741 26.7049V39.2882C64.741 39.5353 64.6801 39.707 64.5584 39.8031C64.454 39.8992 64.3148 39.9472 64.1408 39.9472Z" fill="black"/>
<path fill-rule="evenodd" clip-rule="evenodd" d="M82.0656 38.9999C83.0398 39.6315 84.2315 39.9473 85.6406 39.9473C86.3538 39.9473 86.9801 39.8923 87.5194 39.7825C88.0587 39.6864 88.5371 39.556 88.9546 39.3912C89.2155 39.2814 89.3982 39.1852 89.5026 39.1029C89.607 39.0068 89.6591 38.8832 89.6591 38.7322V33.151C89.6591 32.8627 89.6939 32.6567 89.7635 32.5332C89.435 32.5332 88.891 32.4222 88.3732 32.3166C88.0898 32.2588 87.8144 32.2026 87.5864 32.1671C86.8397 32.0507 86.5276 32.1101 86.9192 32.3272C87.2845 32.3547 87.5194 32.4233 87.6238 32.5332C87.7455 32.643 87.8064 32.8421 87.8064 33.1304V37.6406C87.8064 38.3134 87.6238 38.7734 87.2584 39.0205C86.8931 39.2676 86.3538 39.3912 85.6406 39.3912C84.3184 39.3912 83.2312 38.7871 82.3787 37.5789C81.5437 36.3569 81.1262 34.5858 81.1262 32.2654C81.1262 30.0138 81.535 28.2975 82.3526 27.1168C83.1877 25.9223 84.2402 25.325 85.5101 25.325C86.3625 25.325 87.0323 25.5378 87.5194 25.9635C88.0065 26.3891 88.4414 27.1717 88.8241 28.3113L89.0329 28.9291C89.0851 29.1076 89.2068 29.1968 89.3982 29.1968C89.607 29.1968 89.7113 29.0801 89.7113 28.8467L89.633 25.7163C89.633 25.5241 89.52 25.3799 89.2938 25.2838C88.8763 25.1191 88.3892 24.9886 87.8325 24.8925C87.2758 24.7827 86.6583 24.7278 85.9798 24.7278C84.6403 24.7278 83.4486 25.0436 82.4048 25.6751C81.3784 26.293 80.5695 27.1717 79.978 28.3113C79.3866 29.4371 79.0908 30.7552 79.0908 32.2654C79.0908 33.8306 79.3431 35.1899 79.8476 36.3432C80.3521 37.4828 81.0914 38.3683 82.0656 38.9999Z" fill="black"/>
<path fill-rule="evenodd" clip-rule="evenodd" d="M100.342 37.8037C100.938 38.7021 101.699 39.2192 102.625 39.355C102.716 39.5667 103.08 40.0051 103.078 40.0735C102.879 40.0069 102.467 39.9458 102.254 39.8876C102.118 39.8502 101.989 39.815 101.882 39.7825C100.977 39.5491 100.16 39.0823 99.4291 38.3821C99.1388 38.0915 98.8731 37.7736 98.6318 37.4285C99.1194 37.5759 100.144 37.8573 100.342 37.8037ZM99.1943 32.3272C99.1943 34.2494 99.4221 35.776 99.8779 36.907C99.7347 36.8986 98.5322 36.4609 97.9489 36.243C97.873 36.0817 97.801 35.916 97.733 35.7459C97.3329 34.7025 97.1328 33.5629 97.1328 32.3272C97.1328 31.2563 97.2807 30.2609 97.5764 29.341C97.8895 28.4211 98.3158 27.6179 98.855 26.9314C99.4117 26.2312 100.055 25.6889 100.786 25.3044C101.517 24.92 102.3 24.7278 103.135 24.7278C103.97 24.7278 104.744 24.92 105.457 25.3044C106.188 25.6889 106.831 26.2312 107.388 26.9314C107.945 27.6179 108.371 28.4211 108.667 29.341C108.98 30.2609 109.136 31.2563 109.136 32.3272C109.136 33.5904 108.919 34.7574 108.484 35.8283C108.066 36.8855 107.484 37.7642 106.736 38.4644C106.145 39.0305 105.486 39.435 104.759 39.678C104.618 39.5445 104.331 39.2589 104.31 39.1854C105 38.9225 105.574 38.4076 106.031 37.6406C106.727 36.4736 107.075 34.7025 107.075 32.3272C107.075 29.952 106.727 28.1877 106.031 27.0344C105.335 25.8674 104.37 25.2838 103.135 25.2838C101.917 25.2838 100.951 25.8674 100.238 27.0344C99.5422 28.1877 99.1943 29.952 99.1943 32.3272Z" fill="black"/>
<path d="M84.5915 33.151C85.0245 32.6842 86.3889 31.7283 88.1044 31.926C90.2488 32.1732 95.7633 35.7305 97.4747 36.685C97.7139 36.8183 98.031 36.9529 98.4005 37.0772C98.9098 37.2486 99.5185 37.4007 100.159 37.5036C100.656 37.5834 101.172 37.6337 101.676 37.6406C101.738 37.6415 101.8 37.6419 101.861 37.6418C101.774 37.5386 101.684 37.4349 101.592 37.3302C101.026 37.3322 100.485 37.2617 99.9828 37.1516C99.2535 36.9917 98.6069 36.7484 98.0868 36.523C97.8568 36.4233 97.6515 36.327 97.4747 36.243C96.1455 35.6115 90.9659 32.1556 88.6344 31.7712C86.7692 31.4636 84.9621 32.5103 84.5915 33.151Z" fill="black"/>
<path d="M102.536 37.6183C102.455 37.5153 102.369 37.4053 102.279 37.2913C102.047 37.3171 101.818 37.3294 101.592 37.3302C101.684 37.4349 101.774 37.5386 101.861 37.6418C102.095 37.6413 102.32 37.6336 102.536 37.6183Z" fill="black"/>
<path d="M103.949 39.2975C103.692 39.36 103.42 39.3912 103.135 39.3912C103.097 39.3912 103.059 39.3906 103.022 39.3895C103.084 39.5536 103.134 39.5766 103.27 39.8109C103.406 40.0452 103.838 40.6076 104.014 40.9903C104.358 41.7372 104.799 42.2892 105.338 42.6464C105.877 43.0035 106.448 43.2239 107.049 43.3075C107.671 43.4022 108.239 43.4138 108.753 43.3423C109.352 43.2588 109.836 43.1288 110.202 42.9523C110.589 42.7869 110.902 42.604 111.14 42.4036C111.256 42.2899 111.303 42.1857 111.282 42.0911C111.258 41.9829 111.183 41.9236 111.057 41.9133C110.931 41.9029 110.807 41.9411 110.685 42.0278C110.211 42.3586 109.76 42.5096 109.203 42.6313C108.606 42.7618 108.173 42.8764 107.323 42.6313C106.473 42.3861 106.106 42.0647 105.623 41.3234C105.217 40.7018 104.569 39.9669 103.949 39.2975Z" fill="black"/>
<path fill-rule="evenodd" clip-rule="evenodd" d="M106.752 32.111C107.147 33.2009 107.109 34.1679 106.151 35.6746C106.05 35.8334 105.925 35.9852 105.795 36.1212C105.565 36.3624 105.32 36.5539 105.17 36.6464C104.644 36.9708 104.475 37.0522 104.143 37.194C103.519 37.461 102.951 37.5888 102.536 37.6183C102.455 37.5153 102.369 37.4053 102.279 37.2913C102.561 37.26 102.846 37.2088 103.135 37.1341C103.645 37.0018 104.257 36.6634 104.644 36.3955C104.918 36.2058 105.197 35.8578 105.218 35.8283C105.914 34.8773 106.333 33.8635 106.124 32.9295C106.055 32.623 105.781 32.2164 105.346 32.1645C104.858 32.1064 104.085 32.3558 103.437 33.1304C102.848 32.1671 101.882 31.7044 100.905 31.9977C100.675 32.0666 100.348 32.5148 100.238 32.9952C100.11 33.5578 100.222 34.6031 100.905 35.62C101.054 35.8422 101.33 36.1633 101.622 36.5039C101.811 36.7238 102.007 36.9519 102.18 37.1666C102.141 37.1786 101.693 37.1918 101.475 37.1969C101.426 37.1421 101.375 37.085 101.322 37.0264C101.061 36.7338 100.765 36.4027 100.543 36.1212C100.502 36.0695 100.462 36.0187 100.422 35.9687C99.7305 35.0994 99.2071 34.4413 99.4291 32.5999C99.5285 31.7763 100.177 31.2642 100.967 31.1505C101.927 31.0121 103.062 31.4531 103.54 32.5332C103.819 31.912 104.645 31.3295 105.482 31.3384C105.946 31.3433 106.576 31.6239 106.752 32.111Z" fill="black"/>
<path fill-rule="evenodd" clip-rule="evenodd" d="M103.949 39.2975C103.692 39.36 103.42 39.3912 103.135 39.3912C103.097 39.3912 103.059 39.3906 103.022 39.3895C102.901 39.0718 102.779 38.8972 102.55 38.5716C102.483 38.4748 102.406 38.3646 102.316 38.2334C102.219 38.0898 102.11 37.947 101.994 37.8037C102.193 37.7957 102.602 37.7754 102.647 37.7584C102.719 37.8505 102.786 37.9347 102.844 38.0083C102.919 38.1028 102.98 38.1798 103.022 38.2334C103.368 38.6745 103.693 39.023 103.882 39.2261C103.907 39.2524 103.929 39.2762 103.949 39.2975Z" fill="black"/>
<circle cx="90.6826" cy="24.4888" r="1" stroke="black" stroke-width="0.505019"/>
<circle cx="90.6826" cy="24.4888" r="1" stroke="black" stroke-width="0.505019"/>
<path d="M94.4526 20.992C94.4526 20.2429 93.8454 19.6355 93.0963 19.6355C92.3471 19.6355 91.7397 20.2429 91.7397 20.992C91.7398 21.7412 92.3471 22.3483 93.0963 22.3483V22.8632L93 22.8609C92.0431 22.8125 91.2759 22.0452 91.2274 21.0883L91.2249 20.992C91.2249 19.9585 92.0628 19.1206 93.0963 19.1206L93.1926 19.1231C94.1813 19.1733 94.9674 19.9908 94.9674 20.992L94.9652 21.0883C94.915 22.077 94.0974 22.8632 93.0963 22.8632V22.3483C93.8454 22.3483 94.4525 21.7411 94.4526 20.992Z" fill="black"/>
<path d="M94.4526 20.992C94.4526 20.2429 93.8454 19.6355 93.0963 19.6355C92.3471 19.6355 91.7397 20.2429 91.7397 20.992C91.7398 21.7412 92.3471 22.3483 93.0963 22.3483V22.8632L93 22.8609C92.0431 22.8125 91.2759 22.0452 91.2274 21.0883L91.2249 20.992C91.2249 19.9585 92.0628 19.1206 93.0963 19.1206L93.1926 19.1231C94.1813 19.1733 94.9674 19.9908 94.9674 20.992L94.9652 21.0883C94.915 22.077 94.0974 22.8632 93.0963 22.8632V22.3483C93.8454 22.3483 94.4525 21.7411 94.4526 20.992Z" fill="black"/>
<path d="M51.1612 46.2684C51.3345 46.4951 51.5212 46.7751 51.7212 47.1084C51.9212 47.4284 52.1145 47.7551 52.3012 48.0884C52.4879 48.4218 52.6545 48.7284 52.8012 49.0084L51.7212 49.4884C51.5212 49.0884 51.2679 48.6218 50.9612 48.0884C50.6545 47.5551 50.3679 47.1018 50.1012 46.7284L51.1612 46.2684ZM53.3612 45.4684C53.5345 45.7084 53.7212 45.9951 53.9212 46.3284C54.1345 46.6618 54.3412 46.9951 54.5412 47.3284C54.7412 47.6484 54.9079 47.9351 55.0412 48.1884L53.9612 48.6684C53.7479 48.2284 53.4879 47.7551 53.1812 47.2484C52.8745 46.7284 52.5812 46.2818 52.3012 45.9084L53.3612 45.4684ZM43.5212 53.6884C44.1745 54.0618 44.8479 54.4751 45.5412 54.9284C46.2479 55.3818 46.9545 55.8551 47.6612 56.3484C48.3679 56.8418 49.0345 57.3218 49.6612 57.7884C50.3012 58.2551 50.8679 58.6884 51.3612 59.0884L50.1812 60.4684C49.7279 60.0551 49.1879 59.6018 48.5612 59.1084C47.9345 58.6018 47.2612 58.0951 46.5412 57.5884C45.8345 57.0684 45.1279 56.5751 44.4212 56.1084C43.7145 55.6284 43.0545 55.1951 42.4412 54.8084L43.5212 53.6884ZM52.6812 50.0484C52.5879 50.1818 52.5012 50.3551 52.4212 50.5684C52.3412 50.7684 52.2745 50.9484 52.2212 51.1084C52.0212 51.7884 51.7479 52.5218 51.4012 53.3084C51.0679 54.0951 50.6612 54.8884 50.1812 55.6884C49.7145 56.4884 49.1879 57.2484 48.6012 57.9684C47.6945 59.0884 46.5679 60.1551 45.2212 61.1684C43.8879 62.1818 42.2745 63.0418 40.3812 63.7484L38.9412 62.4884C40.1945 62.1151 41.3279 61.6418 42.3412 61.0684C43.3545 60.4951 44.2679 59.8684 45.0812 59.1884C45.8945 58.5084 46.6012 57.8151 47.2012 57.1084C47.7212 56.4818 48.1945 55.8084 48.6212 55.0884C49.0612 54.3551 49.4412 53.6218 49.7612 52.8884C50.0812 52.1551 50.3145 51.4818 50.4612 50.8684H43.0412L43.7012 49.4284H50.0412C50.3079 49.4284 50.5545 49.4151 50.7812 49.3884C51.0079 49.3484 51.2012 49.3018 51.3612 49.2484L52.6812 50.0484ZM45.9412 47.1484C45.7679 47.4151 45.6012 47.7018 45.4412 48.0084C45.2812 48.3018 45.1479 48.5418 45.0412 48.7284C44.6412 49.4484 44.1279 50.2484 43.5012 51.1284C42.8745 52.0084 42.1345 52.8818 41.2812 53.7484C40.4279 54.6151 39.4679 55.4151 38.4012 56.1484L37.0612 55.1284C38.2079 54.4084 39.2012 53.6284 40.0412 52.7884C40.8945 51.9351 41.6012 51.1018 42.1612 50.2884C42.7345 49.4751 43.1745 48.7618 43.4812 48.1484C43.5879 47.9751 43.7079 47.7351 43.8412 47.4284C43.9745 47.1218 44.0679 46.8351 44.1212 46.5684L45.9412 47.1484ZM57.5812 55.1684C59.3145 54.7018 60.9279 54.1351 62.4212 53.4684C63.9145 52.8018 65.2145 52.1218 66.3212 51.4284C67.0145 50.9884 67.6879 50.5151 68.3412 50.0084C69.0079 49.4884 69.6345 48.9484 70.2212 48.3884C70.8079 47.8284 71.3279 47.2751 71.7812 46.7284L73.1212 47.9684C72.5612 48.5684 71.9545 49.1551 71.3012 49.7284C70.6479 50.3018 69.9545 50.8551 69.2212 51.3884C68.5012 51.9084 67.7479 52.4151 66.9612 52.9084C66.2279 53.3484 65.4012 53.8018 64.4812 54.2684C63.5612 54.7351 62.5812 55.1751 61.5412 55.5884C60.5012 56.0018 59.4479 56.3818 58.3812 56.7284L57.5812 55.1684ZM66.0012 52.2684L67.7212 51.7484V60.8684C67.7212 61.1218 67.7212 61.3884 67.7212 61.6684C67.7345 61.9484 67.7479 62.2084 67.7612 62.4484C67.7879 62.6884 67.8145 62.8751 67.8412 63.0084H65.8812C65.8945 62.8751 65.9079 62.6884 65.9212 62.4484C65.9479 62.2084 65.9679 61.9484 65.9812 61.6684C65.9945 61.3884 66.0012 61.1218 66.0012 60.8684V52.2684ZM82.0157 46.5084C82.0424 46.7218 82.0824 46.9551 82.1357 47.2084C82.2024 47.4618 82.2757 47.7418 82.3557 48.0484C82.5024 48.5818 82.6824 49.2351 82.8957 50.0084C83.1091 50.7818 83.3357 51.6218 83.5757 52.5284C83.8291 53.4218 84.0824 54.3218 84.3357 55.2284C84.6024 56.1351 84.8424 56.9951 85.0557 57.8084C85.2824 58.6218 85.4824 59.3351 85.6557 59.9484C85.8291 60.5484 85.9557 60.9884 86.0357 61.2684C86.0757 61.4018 86.1224 61.5618 86.1757 61.7484C86.2424 61.9351 86.3091 62.1284 86.3757 62.3284C86.4424 62.5151 86.5024 62.6818 86.5557 62.8284L84.6957 63.2684C84.6557 63.0418 84.6024 62.7751 84.5357 62.4684C84.4824 62.1751 84.4157 61.8951 84.3357 61.6284C84.2691 61.3884 84.1624 61.0018 84.0157 60.4684C83.8691 59.9351 83.6957 59.3018 83.4957 58.5684C83.3091 57.8351 83.1024 57.0551 82.8757 56.2284C82.6491 55.4018 82.4224 54.5818 82.1957 53.7684C81.9824 52.9418 81.7757 52.1684 81.5757 51.4484C81.3757 50.7151 81.2024 50.0884 81.0557 49.5684C80.9091 49.0351 80.8024 48.6618 80.7357 48.4484C80.6291 48.0751 80.5291 47.7751 80.4357 47.5484C80.3424 47.3084 80.2557 47.1084 80.1757 46.9484L82.0157 46.5084ZM93.5757 49.7684C93.3357 50.2751 93.0157 50.8418 92.6157 51.4684C92.2291 52.0818 91.7957 52.7084 91.3157 53.3484C90.8357 53.9884 90.3491 54.6018 89.8557 55.1884C89.3757 55.7618 88.9291 56.2484 88.5157 56.6484L86.8957 55.8684C87.3091 55.5484 87.7291 55.1684 88.1557 54.7284C88.5824 54.2884 88.9891 53.8284 89.3757 53.3484C89.7757 52.8684 90.1291 52.4084 90.4357 51.9684C90.7557 51.5284 91.0091 51.1484 91.1957 50.8284C91.0357 50.8551 90.6891 50.9218 90.1557 51.0284C89.6357 51.1218 88.9824 51.2484 88.1957 51.4084C87.4224 51.5684 86.5824 51.7418 85.6757 51.9284C84.7691 52.1018 83.8557 52.2818 82.9357 52.4684C82.0291 52.6418 81.1691 52.8151 80.3557 52.9884C79.5424 53.1484 78.8357 53.2951 78.2357 53.4284C77.6491 53.5484 77.2291 53.6351 76.9757 53.6884L76.5357 51.9884C76.8824 51.9618 77.2091 51.9284 77.5157 51.8884C77.8357 51.8484 78.1757 51.8018 78.5357 51.7484C78.6957 51.7218 79.0291 51.6618 79.5357 51.5684C80.0557 51.4751 80.6757 51.3618 81.3957 51.2284C82.1291 51.0818 82.9091 50.9284 83.7357 50.7684C84.5757 50.6084 85.4157 50.4484 86.2557 50.2884C87.0957 50.1284 87.8824 49.9818 88.6157 49.8484C89.3624 49.7018 89.9957 49.5751 90.5157 49.4684C91.0357 49.3618 91.3824 49.2884 91.5557 49.2484C91.7157 49.2218 91.8757 49.1884 92.0357 49.1484C92.1957 49.0951 92.3357 49.0351 92.4557 48.9684L93.5757 49.7684ZM97.4716 55.3714V53.8373H106.222V55.3714H97.4716ZM97.4716 59.5759V58.0418H106.222V59.5759H97.4716ZM116.859 47.9684H126.879V49.3084H116.859V47.9684ZM116.019 51.8484H127.719V53.2084H116.019V51.8484ZM116.119 55.4684H127.519V56.8084H116.119V55.4684ZM121.059 45.5684H122.539V52.6884H121.059V45.5684ZM123.699 52.9884H125.179V62.2084C125.179 62.6351 125.119 62.9618 124.999 63.1884C124.879 63.4284 124.666 63.6018 124.359 63.7084C124.039 63.8284 123.619 63.9018 123.099 63.9284C122.579 63.9551 121.913 63.9684 121.099 63.9684C121.073 63.7684 121.006 63.5284 120.899 63.2484C120.806 62.9818 120.706 62.7484 120.599 62.5484C121.213 62.5618 121.773 62.5684 122.279 62.5684C122.786 62.5818 123.119 62.5818 123.279 62.5684C123.439 62.5684 123.546 62.5418 123.599 62.4884C123.666 62.4351 123.699 62.3351 123.699 62.1884V52.9884ZM117.339 58.2084L118.539 57.5084C118.873 57.8418 119.213 58.2151 119.559 58.6284C119.906 59.0418 120.219 59.4484 120.499 59.8484C120.793 60.2484 121.013 60.6151 121.159 60.9484L119.879 61.7284C119.733 61.3951 119.519 61.0284 119.239 60.6284C118.973 60.2151 118.673 59.8018 118.339 59.3884C118.006 58.9618 117.673 58.5684 117.339 58.2084ZM110.679 46.8884H115.679V60.0484H110.679V58.6884H114.259V48.2684H110.679V46.8884ZM110.739 52.7084H114.919V54.0684H110.739V52.7084ZM109.959 46.8884H111.359V61.6884H109.959V46.8884ZM140.839 47.8084H142.279V58.9684H140.839V47.8084ZM145.259 45.9884H146.719V62.0684C146.719 62.5484 146.653 62.9151 146.519 63.1684C146.386 63.4218 146.173 63.6084 145.879 63.7284C145.586 63.8484 145.173 63.9284 144.639 63.9684C144.106 64.0084 143.419 64.0218 142.579 64.0084C142.539 63.8084 142.473 63.5618 142.379 63.2684C142.286 62.9884 142.186 62.7351 142.079 62.5084C142.693 62.5351 143.253 62.5484 143.759 62.5484C144.266 62.5484 144.606 62.5418 144.779 62.5284C144.966 62.5284 145.093 62.4951 145.159 62.4284C145.226 62.3618 145.259 62.2418 145.259 62.0684V45.9884ZM129.479 48.1884H139.879V49.5484H129.479V48.1884ZM133.979 45.7084H135.439V49.0084H133.979V45.7084ZM129.439 52.8684L130.299 51.8684C130.766 52.1618 131.253 52.4951 131.759 52.8684C132.279 53.2418 132.759 53.6151 133.199 53.9884C133.653 54.3618 134.019 54.7018 134.299 55.0084L133.379 56.1284C133.126 55.8084 132.773 55.4551 132.319 55.0684C131.879 54.6818 131.406 54.2951 130.899 53.9084C130.393 53.5218 129.906 53.1751 129.439 52.8684ZM134.899 59.9084L135.999 58.9684C136.466 59.3418 136.953 59.7618 137.459 60.2284C137.979 60.6818 138.473 61.1284 138.939 61.5684C139.406 61.9951 139.779 62.3818 140.059 62.7284L138.899 63.7884C138.619 63.4418 138.253 63.0418 137.799 62.5884C137.359 62.1351 136.879 61.6751 136.359 61.2084C135.853 60.7284 135.366 60.2951 134.899 59.9084ZM133.659 48.9484L135.079 49.5884C134.586 50.2818 134.046 50.9951 133.459 51.7284C132.873 52.4618 132.319 53.0884 131.799 53.6084L130.679 53.0284C131.026 52.6684 131.379 52.2551 131.739 51.7884C132.099 51.3084 132.446 50.8218 132.779 50.3284C133.126 49.8218 133.419 49.3618 133.659 48.9484ZM136.879 51.0884L138.199 51.6084C137.599 52.6218 136.886 53.6018 136.059 54.5484C135.233 55.4951 134.333 56.3684 133.359 57.1684C132.399 57.9551 131.413 58.6351 130.399 59.2084C130.293 59.0351 130.139 58.8484 129.939 58.6484C129.753 58.4484 129.566 58.2751 129.379 58.1284C130.366 57.6084 131.333 56.9818 132.279 56.2484C133.226 55.5018 134.099 54.6884 134.899 53.8084C135.699 52.9151 136.359 52.0084 136.879 51.0884ZM138.359 54.8684L139.679 55.4484C138.973 56.6351 138.119 57.7684 137.119 58.8484C136.119 59.9151 135.019 60.8884 133.819 61.7684C132.633 62.6351 131.386 63.3751 130.079 63.9884C129.973 63.8151 129.819 63.6084 129.619 63.3684C129.433 63.1418 129.246 62.9551 129.059 62.8084C130.326 62.2484 131.546 61.5618 132.719 60.7484C133.893 59.9218 134.966 59.0084 135.939 58.0084C136.913 57.0084 137.719 55.9618 138.359 54.8684ZM150.439 47.2484H166.479V48.5684H150.439V47.2484ZM151.339 50.2084H165.699V51.4484H151.339V50.2084ZM149.699 53.2684H167.179V54.5684H149.699V53.2684ZM157.639 45.5884H159.159V54.2884H157.639V45.5884ZM157.579 53.7084L158.859 54.3284C158.339 54.8884 157.733 55.4418 157.039 55.9884C156.346 56.5218 155.599 57.0218 154.799 57.4884C154.013 57.9551 153.206 58.3818 152.379 58.7684C151.553 59.1418 150.753 59.4551 149.979 59.7084C149.913 59.5884 149.819 59.4551 149.699 59.3084C149.579 59.1484 149.459 58.9951 149.339 58.8484C149.219 58.7018 149.106 58.5751 148.999 58.4684C149.773 58.2551 150.566 57.9818 151.379 57.6484C152.193 57.3018 152.979 56.9218 153.739 56.5084C154.513 56.0818 155.226 55.6351 155.879 55.1684C156.546 54.6884 157.113 54.2018 157.579 53.7084ZM159.759 53.9084C160.159 55.3218 160.713 56.6084 161.419 57.7684C162.139 58.9284 163.026 59.9218 164.079 60.7484C165.146 61.5618 166.386 62.1818 167.799 62.6084C167.693 62.7018 167.573 62.8284 167.439 62.9884C167.319 63.1484 167.199 63.3084 167.079 63.4684C166.973 63.6284 166.879 63.7818 166.799 63.9284C165.333 63.4218 164.053 62.7151 162.959 61.8084C161.879 60.8884 160.959 59.7884 160.199 58.5084C159.453 57.2284 158.853 55.7884 158.399 54.1884L159.759 53.9084ZM165.459 55.2484L166.639 56.1684C166.173 56.5418 165.659 56.9218 165.099 57.3084C164.553 57.6951 163.999 58.0684 163.439 58.4284C162.893 58.7751 162.379 59.0818 161.899 59.3484L160.959 58.5084C161.439 58.2284 161.953 57.9018 162.499 57.5284C163.046 57.1551 163.579 56.7684 164.099 56.3684C164.619 55.9684 165.073 55.5951 165.459 55.2484ZM151.239 62.5884C151.999 62.4284 152.886 62.2284 153.899 61.9884C154.913 61.7351 155.986 61.4684 157.119 61.1884C158.266 60.9084 159.406 60.6284 160.539 60.3484L160.699 61.6884C159.646 61.9684 158.579 62.2418 157.499 62.5084C156.419 62.7884 155.386 63.0484 154.399 63.2884C153.413 63.5418 152.519 63.7751 151.719 63.9884L151.239 62.5884ZM154.059 57.4284L155.139 56.3484L155.539 56.4684V62.5084H154.059V57.4284ZM65.5738 77.4793V88.3884H64.2528V78.8643H64.1888L61.5255 80.6327V79.2904L64.2528 77.4793H65.5738ZM64.6469 93.1825C63.5141 93.1825 62.4346 93.0102 61.4083 92.6658C60.3856 92.3213 59.4463 91.8348 58.5905 91.2063C57.7382 90.5813 56.9978 89.8408 56.3692 88.985C55.7442 88.1327 55.2595 87.1952 54.9151 86.1725C54.5706 85.1462 54.3984 84.0667 54.3984 82.9339C54.3984 81.8011 54.5706 80.7233 54.9151 79.7006C55.2595 78.6743 55.7442 77.735 56.3692 76.8827C56.9978 76.0269 57.7382 75.2865 58.5905 74.6615C59.4463 74.033 60.3856 73.5465 61.4083 73.202C62.4346 72.8575 63.5141 72.6853 64.6469 72.6853C65.7798 72.6853 66.8575 72.8575 67.8802 73.202C68.9065 73.5465 69.8458 74.033 70.6981 74.6615C71.5539 75.2865 72.2943 76.0269 72.9193 76.8827C73.5479 77.735 74.0344 78.6743 74.3788 79.7006C74.7233 80.7233 74.8955 81.8011 74.8955 82.9339C74.8955 84.0667 74.7233 85.1462 74.3788 86.1725C74.0344 87.1952 73.5479 88.1327 72.9193 88.985C72.2943 89.8408 71.5539 90.5813 70.6981 91.2063C69.8458 91.8348 68.9065 92.3213 67.8802 92.6658C66.8575 93.0102 65.7798 93.1825 64.6469 93.1825ZM64.6469 91.9467C65.6448 91.9467 66.593 91.794 67.4914 91.4886C68.3934 91.1867 69.219 90.7588 69.9683 90.2048C70.7212 89.6544 71.3728 89.0045 71.9232 88.2553C72.4772 87.5024 72.9051 86.6768 73.207 85.7783C73.5088 84.8764 73.6597 83.9282 73.6597 82.9339C73.6597 81.936 73.5088 80.9879 73.207 80.0894C72.9051 79.1874 72.4772 78.3618 71.9232 77.6125C71.3728 76.8597 70.7212 76.208 69.9683 75.6576C69.219 75.1036 68.3934 74.6757 67.4914 74.3739C66.593 74.072 65.6448 73.9211 64.6469 73.9211C63.6491 73.9211 62.6991 74.072 61.7972 74.3739C60.8987 74.6757 60.0731 75.1036 59.3202 75.6576C58.5709 76.208 57.9193 76.8597 57.3653 77.6125C56.8149 78.3618 56.3888 79.1874 56.0869 80.0894C55.7851 80.9879 55.6342 81.936 55.6342 82.9339C55.6342 83.9282 55.7851 84.8764 56.0869 85.7783C56.3888 86.6768 56.8149 87.5024 57.3653 88.2553C57.9193 89.0045 58.5709 89.6544 59.3202 90.2048C60.0731 90.7588 60.8987 91.1867 61.7972 91.4886C62.6991 91.794 63.6491 91.9467 64.6469 91.9467ZM83.5326 78.1434C83.4326 78.9234 83.3026 79.7384 83.1426 80.5884C82.9926 81.4384 82.7976 82.2634 82.5576 83.0634C82.2576 84.0934 81.9226 84.9534 81.5526 85.6434C81.1926 86.3334 80.8026 86.8534 80.3826 87.2034C79.9626 87.5534 79.5226 87.7284 79.0626 87.7284C78.6226 87.7284 78.1976 87.5684 77.7876 87.2484C77.3776 86.9284 77.0426 86.4684 76.7826 85.8684C76.5226 85.2584 76.3926 84.5434 76.3926 83.7234C76.3926 82.9034 76.5576 82.1284 76.8876 81.3984C77.2276 80.6684 77.6926 80.0234 78.2826 79.4634C78.8826 78.8934 79.5826 78.4434 80.3826 78.1134C81.1826 77.7834 82.0376 77.6184 82.9476 77.6184C83.8276 77.6184 84.6176 77.7634 85.3176 78.0534C86.0276 78.3434 86.6326 78.7434 87.1326 79.2534C87.6326 79.7534 88.0176 80.3384 88.2876 81.0084C88.5576 81.6684 88.6926 82.3784 88.6926 83.1384C88.6926 84.1884 88.4676 85.1134 88.0176 85.9134C87.5776 86.7134 86.9376 87.3634 86.0976 87.8634C85.2676 88.3634 84.2576 88.6934 83.0676 88.8534L82.3626 87.7434C82.6026 87.7134 82.8326 87.6834 83.0526 87.6534C83.2726 87.6234 83.4726 87.5884 83.6526 87.5484C84.1326 87.4384 84.5976 87.2684 85.0476 87.0384C85.5076 86.7984 85.9176 86.4984 86.2776 86.1384C86.6376 85.7684 86.9226 85.3334 87.1326 84.8334C87.3526 84.3234 87.4626 83.7434 87.4626 83.0934C87.4626 82.4834 87.3626 81.9184 87.1626 81.3984C86.9626 80.8684 86.6676 80.4034 86.2776 80.0034C85.8876 79.6034 85.4126 79.2884 84.8526 79.0584C84.2926 78.8284 83.6526 78.7134 82.9326 78.7134C82.1126 78.7134 81.3676 78.8634 80.6976 79.1634C80.0376 79.4634 79.4726 79.8584 79.0026 80.3484C78.5426 80.8284 78.1876 81.3584 77.9376 81.9384C77.6876 82.5084 77.5626 83.0684 77.5626 83.6184C77.5626 84.2484 77.6426 84.7684 77.8026 85.1784C77.9726 85.5784 78.1726 85.8734 78.4026 86.0634C78.6426 86.2534 78.8776 86.3484 79.1076 86.3484C79.3476 86.3484 79.5926 86.2334 79.8426 86.0034C80.0926 85.7634 80.3476 85.3834 80.6076 84.8634C80.8676 84.3334 81.1226 83.6484 81.3726 82.8084C81.5926 82.0884 81.7776 81.3234 81.9276 80.5134C82.0876 79.7034 82.2026 78.9084 82.2726 78.1284L83.5326 78.1434ZM91.4526 76.3284H94.8276V77.2284H91.4526V76.3284ZM91.3026 80.3934H94.9476V81.2934H91.3026V80.3934ZM91.3026 82.3884H94.9476V83.2884H91.3026V82.3884ZM90.6726 78.3084H95.6526V79.2684H90.6726V78.3084ZM91.7226 84.3984H95.0226V88.6284H91.7226V87.7284H94.0626V85.2984H91.7226V84.3984ZM91.2126 84.3984H92.1426V89.3634H91.2126V84.3984ZM95.5326 76.5084L96.2976 76.0284C96.5776 76.2984 96.8526 76.6084 97.1226 76.9584C97.4026 77.2984 97.6076 77.5984 97.7376 77.8584L96.9276 78.4134C96.8076 78.1334 96.6126 77.8184 96.3426 77.4684C96.0826 77.1084 95.8126 76.7884 95.5326 76.5084ZM95.4126 79.8384L96.1476 79.3134C96.4576 79.5734 96.7676 79.8734 97.0776 80.2134C97.3876 80.5534 97.6126 80.8534 97.7526 81.1134L96.9876 81.7134C96.8376 81.4434 96.6126 81.1334 96.3126 80.7834C96.0126 80.4334 95.7126 80.1184 95.4126 79.8384ZM97.6326 82.8834V87.3684H96.6426V83.8584H95.3376V82.8834H97.6326ZM97.6326 86.8434C97.8726 87.2834 98.2226 87.6384 98.6826 87.9084C99.1426 88.1684 99.6726 88.3134 100.273 88.3434C100.533 88.3534 100.848 88.3584 101.218 88.3584C101.598 88.3584 101.993 88.3584 102.403 88.3584C102.823 88.3484 103.228 88.3334 103.618 88.3134C104.008 88.2934 104.353 88.2784 104.653 88.2684C104.613 88.3384 104.568 88.4334 104.518 88.5534C104.468 88.6834 104.428 88.8134 104.398 88.9434C104.368 89.0734 104.343 89.1934 104.323 89.3034C104.053 89.3134 103.738 89.3234 103.378 89.3334C103.028 89.3434 102.658 89.3484 102.268 89.3484C101.888 89.3484 101.518 89.3484 101.158 89.3484C100.808 89.3484 100.498 89.3434 100.228 89.3334C99.5376 89.2934 98.9426 89.1384 98.4426 88.8684C97.9426 88.5984 97.5226 88.2184 97.1826 87.7284C96.9326 88.0184 96.6726 88.3034 96.4026 88.5834C96.1426 88.8634 95.8626 89.1634 95.5626 89.4834L95.0226 88.4784C95.2926 88.2484 95.5776 87.9934 95.8776 87.7134C96.1876 87.4234 96.4776 87.1334 96.7476 86.8434H97.6326ZM98.0376 80.8884H104.353V81.8934H98.0376V80.8884ZM100.678 75.8334H101.668V87.7134H100.678V75.8334ZM98.1426 77.0034L99.0126 76.7484C99.1726 77.0884 99.3226 77.4534 99.4626 77.8434C99.6126 78.2334 99.7376 78.6134 99.8376 78.9834C99.9476 79.3434 100.028 79.6634 100.078 79.9434L99.1476 80.2434C99.1076 79.9634 99.0376 79.6384 98.9376 79.2684C98.8376 78.8884 98.7176 78.5034 98.5776 78.1134C98.4376 77.7134 98.2926 77.3434 98.1426 77.0034ZM103.153 76.6584L104.158 76.9734C104.058 77.3334 103.948 77.7134 103.828 78.1134C103.708 78.5134 103.583 78.8984 103.453 79.2684C103.333 79.6384 103.218 79.9684 103.108 80.2584L102.253 79.9734C102.363 79.6834 102.473 79.3434 102.583 78.9534C102.703 78.5634 102.813 78.1684 102.913 77.7684C103.013 77.3584 103.093 76.9884 103.153 76.6584ZM100.528 81.3084L101.263 81.6084C101.073 82.2184 100.833 82.8434 100.543 83.4834C100.253 84.1234 99.9276 84.7234 99.5676 85.2834C99.2176 85.8434 98.8526 86.3084 98.4726 86.6784C98.4226 86.5184 98.3426 86.3384 98.2326 86.1384C98.1326 85.9384 98.0376 85.7684 97.9476 85.6284C98.2876 85.3084 98.6226 84.9134 98.9526 84.4434C99.2826 83.9734 99.5876 83.4634 99.8676 82.9134C100.148 82.3634 100.368 81.8284 100.528 81.3084ZM101.833 81.3684C102.043 81.8884 102.298 82.4234 102.598 82.9734C102.908 83.5234 103.233 84.0384 103.573 84.5184C103.923 84.9884 104.258 85.3784 104.578 85.6884C104.448 85.7784 104.303 85.9034 104.143 86.0634C103.993 86.2134 103.868 86.3534 103.768 86.4834C103.468 86.1234 103.153 85.6734 102.823 85.1334C102.493 84.5934 102.183 84.0184 101.893 83.4084C101.603 82.7984 101.353 82.2084 101.143 81.6384L101.833 81.3684ZM111.973 76.5234C111.913 76.8234 111.833 77.1784 111.733 77.5884C111.643 77.9884 111.493 78.4434 111.283 78.9534C111.103 79.4034 110.878 79.8684 110.608 80.3484C110.348 80.8284 110.068 81.2634 109.768 81.6534C109.958 81.5334 110.173 81.4334 110.413 81.3534C110.653 81.2634 110.898 81.1984 111.148 81.1584C111.408 81.1184 111.643 81.0984 111.853 81.0984C112.433 81.0984 112.923 81.2634 113.323 81.5934C113.723 81.9134 113.923 82.3834 113.923 83.0034C113.923 83.1934 113.923 83.4384 113.923 83.7384C113.923 84.0284 113.923 84.3384 113.923 84.6684C113.933 84.9884 113.943 85.3034 113.953 85.6134C113.963 85.9234 113.968 86.1934 113.968 86.4234H112.813C112.823 86.2234 112.833 85.9884 112.843 85.7184C112.853 85.4484 112.858 85.1634 112.858 84.8634C112.868 84.5634 112.868 84.2784 112.858 84.0084C112.858 83.7384 112.858 83.5084 112.858 83.3184C112.858 82.8784 112.723 82.5584 112.453 82.3584C112.193 82.1484 111.863 82.0434 111.463 82.0434C110.993 82.0434 110.528 82.1484 110.068 82.3584C109.618 82.5584 109.223 82.8184 108.883 83.1384C108.663 83.3484 108.443 83.5884 108.223 83.8584C108.013 84.1184 107.778 84.3984 107.518 84.6984L106.498 83.9484C107.218 83.2484 107.818 82.5934 108.298 81.9834C108.778 81.3734 109.168 80.8084 109.468 80.2884C109.768 79.7584 110.003 79.2834 110.173 78.8634C110.333 78.4434 110.463 78.0234 110.563 77.6034C110.663 77.1734 110.723 76.7784 110.743 76.4184L111.973 76.5234ZM106.843 78.1434C107.243 78.1934 107.678 78.2334 108.148 78.2634C108.618 78.2934 109.028 78.3084 109.378 78.3084C110.048 78.3084 110.768 78.2934 111.538 78.2634C112.308 78.2234 113.083 78.1684 113.863 78.0984C114.653 78.0284 115.403 77.9284 116.113 77.7984L116.098 78.9084C115.578 78.9984 115.023 79.0734 114.433 79.1334C113.843 79.1834 113.243 79.2284 112.633 79.2684C112.023 79.2984 111.433 79.3234 110.863 79.3434C110.303 79.3534 109.783 79.3584 109.303 79.3584C109.093 79.3584 108.848 79.3584 108.568 79.3584C108.298 79.3484 108.013 79.3384 107.713 79.3284C107.413 79.3084 107.123 79.2884 106.843 79.2684V78.1434ZM118.303 81.7734C118.173 81.8034 118.028 81.8484 117.868 81.9084C117.718 81.9584 117.563 82.0134 117.403 82.0734C117.253 82.1334 117.108 82.1934 116.968 82.2534C116.448 82.4534 115.843 82.6984 115.153 82.9884C114.463 83.2784 113.758 83.6134 113.038 83.9934C112.538 84.2434 112.098 84.5084 111.718 84.7884C111.338 85.0584 111.038 85.3434 110.818 85.6434C110.598 85.9334 110.488 86.2534 110.488 86.6034C110.488 86.8934 110.553 87.1284 110.683 87.3084C110.823 87.4884 111.018 87.6284 111.268 87.7284C111.518 87.8184 111.803 87.8784 112.123 87.9084C112.453 87.9384 112.813 87.9534 113.203 87.9534C113.783 87.9534 114.443 87.9234 115.183 87.8634C115.933 87.7934 116.638 87.7034 117.298 87.5934L117.268 88.7934C116.888 88.8434 116.458 88.8884 115.978 88.9284C115.508 88.9684 115.028 88.9984 114.538 89.0184C114.058 89.0484 113.598 89.0634 113.158 89.0634C112.448 89.0634 111.798 88.9984 111.208 88.8684C110.628 88.7384 110.163 88.5084 109.813 88.1784C109.463 87.8484 109.288 87.3784 109.288 86.7684C109.288 86.3184 109.393 85.9084 109.603 85.5384C109.813 85.1584 110.093 84.8134 110.443 84.5034C110.803 84.1934 111.198 83.9084 111.628 83.6484C112.058 83.3784 112.498 83.1334 112.948 82.9134C113.428 82.6534 113.878 82.4284 114.298 82.2384C114.728 82.0484 115.133 81.8734 115.513 81.7134C115.893 81.5534 116.248 81.3934 116.578 81.2334C116.798 81.1334 117.008 81.0384 117.208 80.9484C117.408 80.8584 117.608 80.7584 117.808 80.6484L118.303 81.7734ZM122.158 79.5984H126.493V80.4684H122.158V79.5984ZM122.158 82.1484H126.493V83.0034H122.158V82.1484ZM122.158 84.7434H126.493V85.6434H122.158V84.7434ZM128.548 82.8834H134.248V83.8734H128.548V82.8834ZM122.938 77.1234H125.413V78.0234H122.938V77.1234ZM127.573 76.5534H133.438V77.4984H127.573V76.5534ZM127.393 85.6884H134.518V86.6934H127.393V85.6884ZM130.573 81.3534H131.638V89.5284H130.573V81.3534ZM124.003 80.0184H124.828V85.1184H124.003V80.0184ZM133.093 76.5534H134.113C134.113 76.5534 134.108 76.6034 134.098 76.7034C134.098 76.8034 134.093 76.8934 134.083 76.9734C134.053 77.8034 134.013 78.4784 133.963 78.9984C133.913 79.5184 133.853 79.9184 133.783 80.1984C133.713 80.4784 133.623 80.6784 133.513 80.7984C133.423 80.9184 133.313 81.0084 133.183 81.0684C133.053 81.1184 132.893 81.1534 132.703 81.1734C132.553 81.1934 132.333 81.2034 132.043 81.2034C131.753 81.1934 131.453 81.1784 131.143 81.1584C131.133 81.0184 131.103 80.8584 131.053 80.6784C131.013 80.4984 130.953 80.3484 130.873 80.2284C131.173 80.2484 131.448 80.2634 131.698 80.2734C131.948 80.2834 132.123 80.2884 132.223 80.2884C132.333 80.2884 132.423 80.2834 132.493 80.2734C132.563 80.2534 132.623 80.2134 132.673 80.1534C132.733 80.0734 132.788 79.9134 132.838 79.6734C132.888 79.4334 132.933 79.0734 132.973 78.5934C133.013 78.1134 133.053 77.4834 133.093 76.7034V76.5534ZM128.608 81.4884L129.583 81.6684C129.423 82.3684 129.218 83.0434 128.968 83.6934C128.718 84.3334 128.433 84.8784 128.113 85.3284C128.053 85.2784 127.968 85.2284 127.858 85.1784C127.748 85.1184 127.638 85.0634 127.528 85.0134C127.418 84.9534 127.318 84.9034 127.228 84.8634C127.558 84.4334 127.838 83.9234 128.068 83.3334C128.298 82.7334 128.478 82.1184 128.608 81.4884ZM122.908 75.7734L123.943 75.9984C123.753 76.6784 123.528 77.3384 123.268 77.9784C123.008 78.6184 122.718 79.2184 122.398 79.7784C122.088 80.3284 121.753 80.8134 121.393 81.2334C121.343 81.1734 121.263 81.1034 121.153 81.0234C121.053 80.9334 120.948 80.8484 120.838 80.7684C120.728 80.6784 120.633 80.6084 120.553 80.5584C121.083 79.9884 121.548 79.2834 121.948 78.4434C122.358 77.5934 122.678 76.7034 122.908 75.7734ZM121.708 79.5984H122.653V83.5884C122.653 84.0384 122.633 84.5284 122.593 85.0584C122.563 85.5884 122.503 86.1234 122.413 86.6634C122.333 87.2034 122.208 87.7284 122.038 88.2384C121.878 88.7384 121.668 89.1984 121.408 89.6184C121.348 89.5584 121.268 89.4934 121.168 89.4234C121.068 89.3634 120.963 89.3034 120.853 89.2434C120.753 89.1834 120.663 89.1384 120.583 89.1084C120.923 88.5684 121.173 87.9834 121.333 87.3534C121.493 86.7134 121.593 86.0684 121.633 85.4184C121.683 84.7584 121.708 84.1484 121.708 83.5884V79.5984ZM126.178 79.5984H127.138V88.3584C127.138 88.6284 127.098 88.8434 127.018 89.0034C126.948 89.1734 126.818 89.3034 126.628 89.3934C126.438 89.4734 126.183 89.5234 125.863 89.5434C125.543 89.5634 125.118 89.5734 124.588 89.5734C124.568 89.4434 124.523 89.2834 124.453 89.0934C124.383 88.9034 124.313 88.7434 124.243 88.6134C124.633 88.6234 124.978 88.6284 125.278 88.6284C125.588 88.6284 125.793 88.6234 125.893 88.6134C125.993 88.6134 126.063 88.5934 126.103 88.5534C126.153 88.5134 126.178 88.4434 126.178 88.3434V79.5984ZM129.718 76.8534H130.753C130.663 77.5434 130.518 78.1884 130.318 78.7884C130.118 79.3884 129.813 79.9284 129.403 80.4084C129.003 80.8784 128.448 81.2684 127.738 81.5784C127.678 81.4584 127.588 81.3234 127.468 81.1734C127.348 81.0234 127.228 80.9034 127.108 80.8134C127.728 80.5534 128.213 80.2234 128.563 79.8234C128.913 79.4134 129.173 78.9584 129.343 78.4584C129.523 77.9484 129.648 77.4134 129.718 76.8534ZM125.143 77.1234H125.368L125.533 77.0784L126.193 77.4984C126.033 77.9684 125.828 78.4584 125.578 78.9684C125.328 79.4684 125.088 79.8934 124.858 80.2434C124.768 80.1734 124.648 80.0984 124.498 80.0184C124.358 79.9284 124.233 79.8584 124.123 79.8084C124.253 79.5884 124.383 79.3334 124.513 79.0434C124.643 78.7434 124.763 78.4434 124.873 78.1434C124.983 77.8334 125.073 77.5584 125.143 77.3184V77.1234ZM146.488 76.6884C146.468 76.8184 146.453 76.9584 146.443 77.1084C146.443 77.2484 146.443 77.4034 146.443 77.5734C146.433 77.6834 146.428 77.8634 146.428 78.1134C146.438 78.3634 146.443 78.6484 146.443 78.9684C146.453 79.2784 146.458 79.5984 146.458 79.9284C146.468 80.2584 146.473 80.5634 146.473 80.8434C146.473 81.1134 146.473 81.3334 146.473 81.5034C146.473 82.3634 146.453 83.1634 146.413 83.9034C146.383 84.6434 146.273 85.3334 146.083 85.9734C145.893 86.6134 145.578 87.2084 145.138 87.7584C144.708 88.2984 144.093 88.8034 143.293 89.2734L142.198 88.4184C142.438 88.3184 142.693 88.1834 142.963 88.0134C143.243 87.8434 143.473 87.6684 143.653 87.4884C144.053 87.1384 144.368 86.7634 144.598 86.3634C144.828 85.9634 144.993 85.5234 145.093 85.0434C145.203 84.5634 145.273 84.0334 145.303 83.4534C145.333 82.8734 145.348 82.2234 145.348 81.5034C145.348 81.2634 145.343 80.9584 145.333 80.5884C145.323 80.2084 145.313 79.8184 145.303 79.4184C145.293 79.0084 145.283 78.6384 145.273 78.3084C145.263 77.9784 145.248 77.7384 145.228 77.5884C145.218 77.4184 145.198 77.2584 145.168 77.1084C145.138 76.9484 145.113 76.8084 145.093 76.6884H146.488ZM141.013 79.7934C141.233 79.8234 141.478 79.8534 141.748 79.8834C142.018 79.9134 142.298 79.9334 142.588 79.9434C142.888 79.9534 143.168 79.9584 143.428 79.9584C144.048 79.9584 144.683 79.9434 145.333 79.9134C145.993 79.8834 146.628 79.8334 147.238 79.7634C147.858 79.6934 148.413 79.6034 148.903 79.4934V80.7234C148.423 80.7934 147.878 80.8584 147.268 80.9184C146.668 80.9784 146.038 81.0234 145.378 81.0534C144.728 81.0734 144.083 81.0834 143.443 81.0834C143.203 81.0834 142.933 81.0784 142.633 81.0684C142.343 81.0584 142.053 81.0484 141.763 81.0384C141.483 81.0284 141.233 81.0134 141.013 80.9934V79.7934ZM138.898 76.9134C138.858 77.0534 138.813 77.2184 138.763 77.4084C138.723 77.5884 138.683 77.7484 138.643 77.8884C138.523 78.4284 138.408 79.0284 138.298 79.6884C138.188 80.3484 138.103 81.0334 138.043 81.7434C137.983 82.4534 137.963 83.1534 137.983 83.8434C138.003 84.5334 138.083 85.1884 138.223 85.8084C138.333 85.4884 138.458 85.1184 138.598 84.6984C138.748 84.2784 138.893 83.8834 139.033 83.5134L139.678 83.9034C139.558 84.2434 139.433 84.6284 139.303 85.0584C139.173 85.4784 139.053 85.8834 138.943 86.2734C138.833 86.6534 138.753 86.9684 138.703 87.2184C138.673 87.3284 138.648 87.4484 138.628 87.5784C138.618 87.7084 138.618 87.8134 138.628 87.8934C138.638 87.9734 138.643 88.0584 138.643 88.1484C138.653 88.2384 138.663 88.3234 138.673 88.4034L137.653 88.5234C137.553 88.2234 137.438 87.8184 137.308 87.3084C137.188 86.7984 137.083 86.2384 136.993 85.6284C136.903 85.0084 136.858 84.3884 136.858 83.7684C136.858 82.9484 136.893 82.1634 136.963 81.4134C137.043 80.6634 137.128 79.9734 137.218 79.3434C137.308 78.7134 137.378 78.1934 137.428 77.7834C137.458 77.6034 137.478 77.4234 137.488 77.2434C137.498 77.0634 137.503 76.9084 137.503 76.7784L138.898 76.9134ZM63.9753 101.788H65.1003V106.903H63.9753V101.788ZM60.7053 107.413V110.098H68.5503V107.413H60.7053ZM59.6403 106.348H69.6753V111.148H59.6403V106.348ZM64.5003 103.378H70.8003V104.443H64.5003V103.378ZM62.2503 112.468L63.3153 112.378C63.3953 112.688 63.4603 113.028 63.5103 113.398C63.5703 113.758 63.6153 114.103 63.6453 114.433C63.6853 114.773 63.7053 115.063 63.7053 115.303L62.5653 115.453C62.5653 115.203 62.5503 114.908 62.5203 114.568C62.5003 114.228 62.4653 113.873 62.4153 113.503C62.3653 113.133 62.3103 112.788 62.2503 112.468ZM65.3553 112.483L66.3753 112.258C66.5353 112.558 66.6853 112.888 66.8253 113.248C66.9753 113.598 67.1103 113.938 67.2303 114.268C67.3603 114.598 67.4503 114.888 67.5003 115.138L66.4053 115.423C66.3553 115.173 66.2753 114.878 66.1653 114.538C66.0553 114.198 65.9303 113.848 65.7903 113.488C65.6503 113.128 65.5053 112.793 65.3553 112.483ZM68.4153 112.363L69.4203 111.973C69.6803 112.293 69.9353 112.633 70.1853 112.993C70.4453 113.353 70.6853 113.713 70.9053 114.073C71.1253 114.423 71.2953 114.738 71.4153 115.018L70.3503 115.468C70.2403 115.188 70.0803 114.868 69.8703 114.508C69.6603 114.148 69.4253 113.783 69.1653 113.413C68.9153 113.033 68.6653 112.683 68.4153 112.363ZM59.8053 112.063L60.8703 112.348C60.6303 112.928 60.3253 113.513 59.9553 114.103C59.5953 114.693 59.2103 115.183 58.8003 115.573L57.7803 115.078C58.1803 114.738 58.5603 114.293 58.9203 113.743C59.2803 113.183 59.5753 112.623 59.8053 112.063ZM79.0503 102.523C78.9903 102.823 78.9103 103.178 78.8103 103.588C78.7203 103.988 78.5703 104.443 78.3603 104.953C78.1803 105.403 77.9553 105.868 77.6853 106.348C77.4253 106.828 77.1453 107.263 76.8453 107.653C77.0353 107.533 77.2503 107.433 77.4903 107.353C77.7303 107.263 77.9753 107.198 78.2253 107.158C78.4853 107.118 78.7203 107.098 78.9303 107.098C79.5103 107.098 80.0003 107.263 80.4003 107.593C80.8003 107.913 81.0003 108.383 81.0003 109.003C81.0003 109.193 81.0003 109.438 81.0003 109.738C81.0003 110.028 81.0003 110.338 81.0003 110.668C81.0103 110.988 81.0203 111.303 81.0303 111.613C81.0403 111.923 81.0453 112.193 81.0453 112.423H79.8903C79.9003 112.223 79.9103 111.988 79.9203 111.718C79.9303 111.448 79.9353 111.163 79.9353 110.863C79.9453 110.563 79.9453 110.278 79.9353 110.008C79.9353 109.738 79.9353 109.508 79.9353 109.318C79.9353 108.878 79.8003 108.558 79.5303 108.358C79.2703 108.148 78.9403 108.043 78.5403 108.043C78.0703 108.043 77.6053 108.148 77.1453 108.358C76.6953 108.558 76.3003 108.818 75.9603 109.138C75.7403 109.348 75.5203 109.588 75.3003 109.858C75.0903 110.118 74.8553 110.398 74.5953 110.698L73.5753 109.948C74.2953 109.248 74.8953 108.593 75.3753 107.983C75.8553 107.373 76.2453 106.808 76.5453 106.288C76.8453 105.758 77.0803 105.283 77.2503 104.863C77.4103 104.443 77.5403 104.023 77.6403 103.603C77.7403 103.173 77.8003 102.778 77.8203 102.418L79.0503 102.523ZM73.9203 104.143C74.3203 104.193 74.7553 104.233 75.2253 104.263C75.6953 104.293 76.1053 104.308 76.4553 104.308C77.1253 104.308 77.8453 104.293 78.6153 104.263C79.3853 104.223 80.1603 104.168 80.9403 104.098C81.7303 104.028 82.4803 103.928 83.1903 103.798L83.1753 104.908C82.6553 104.998 82.1003 105.073 81.5103 105.133C80.9203 105.183 80.3203 105.228 79.7103 105.268C79.1003 105.298 78.5103 105.323 77.9403 105.343C77.3803 105.353 76.8603 105.358 76.3803 105.358C76.1703 105.358 75.9253 105.358 75.6453 105.358C75.3753 105.348 75.0903 105.338 74.7903 105.328C74.4903 105.308 74.2003 105.288 73.9203 105.268V104.143ZM85.3803 107.773C85.2503 107.803 85.1053 107.848 84.9453 107.908C84.7953 107.958 84.6403 108.013 84.4803 108.073C84.3303 108.133 84.1853 108.193 84.0453 108.253C83.5253 108.453 82.9203 108.698 82.2303 108.988C81.5403 109.278 80.8353 109.613 80.1153 109.993C79.6153 110.243 79.1753 110.508 78.7953 110.788C78.4153 111.058 78.1153 111.343 77.8953 111.643C77.6753 111.933 77.5653 112.253 77.5653 112.603C77.5653 112.893 77.6303 113.128 77.7603 113.308C77.9003 113.488 78.0953 113.628 78.3453 113.728C78.5953 113.818 78.8803 113.878 79.2003 113.908C79.5303 113.938 79.8903 113.953 80.2803 113.953C80.8603 113.953 81.5203 113.923 82.2603 113.863C83.0103 113.793 83.7153 113.703 84.3753 113.593L84.3453 114.793C83.9653 114.843 83.5353 114.888 83.0553 114.928C82.5853 114.968 82.1053 114.998 81.6153 115.018C81.1353 115.048 80.6753 115.063 80.2353 115.063C79.5253 115.063 78.8753 114.998 78.2853 114.868C77.7053 114.738 77.2403 114.508 76.8903 114.178C76.5403 113.848 76.3653 113.378 76.3653 112.768C76.3653 112.318 76.4703 111.908 76.6803 111.538C76.8903 111.158 77.1703 110.813 77.5203 110.503C77.8803 110.193 78.2753 109.908 78.7053 109.648C79.1353 109.378 79.5753 109.133 80.0253 108.913C80.5053 108.653 80.9553 108.428 81.3753 108.238C81.8053 108.048 82.2103 107.873 82.5903 107.713C82.9703 107.553 83.3253 107.393 83.6553 107.233C83.8753 107.133 84.0853 107.038 84.2853 106.948C84.4853 106.858 84.6853 106.758 84.8853 106.648L85.3803 107.773ZM91.3503 101.923H92.5053V110.308H91.3503V101.923ZM96.7953 101.923H97.9503V110.308H96.7953V101.923ZM87.8703 109.618H101.49V110.713H87.8703V109.618ZM88.4853 104.968H100.95V106.048H88.4853V104.968ZM95.9553 112.138L96.9453 111.553C97.4053 111.883 97.9003 112.253 98.4303 112.663C98.9703 113.063 99.4803 113.463 99.9603 113.863C100.45 114.253 100.855 114.598 101.175 114.898L100.11 115.588C99.8103 115.288 99.4253 114.933 98.9553 114.523C98.4853 114.123 97.9853 113.713 97.4553 113.293C96.9353 112.873 96.4353 112.488 95.9553 112.138ZM92.0853 111.583L93.2553 112.033C92.8953 112.463 92.4753 112.898 91.9953 113.338C91.5253 113.778 91.0303 114.193 90.5103 114.583C89.9903 114.973 89.4753 115.313 88.9653 115.603C88.8953 115.513 88.8053 115.418 88.6953 115.318C88.5853 115.228 88.4753 115.133 88.3653 115.033C88.2653 114.943 88.1703 114.868 88.0803 114.808C88.5703 114.538 89.0703 114.223 89.5803 113.863C90.0903 113.503 90.5653 113.128 91.0053 112.738C91.4453 112.338 91.8053 111.953 92.0853 111.583ZM103.095 103.738H116.235V104.788H103.095V103.738ZM106.77 109.093H113.805V110.053H106.77V109.093ZM105.975 106.528H113.625V107.548H107.085V115.573H105.975V106.528ZM113.37 106.528H114.48V114.178C114.48 114.508 114.435 114.763 114.345 114.943C114.255 115.133 114.085 115.278 113.835 115.378C113.585 115.458 113.245 115.503 112.815 115.513C112.395 115.533 111.865 115.543 111.225 115.543C111.195 115.393 111.145 115.213 111.075 115.003C111.005 114.793 110.93 114.613 110.85 114.463C111.18 114.473 111.49 114.478 111.78 114.478C112.08 114.488 112.34 114.488 112.56 114.478C112.78 114.478 112.94 114.478 113.04 114.478C113.17 114.478 113.255 114.453 113.295 114.403C113.345 114.363 113.37 114.283 113.37 114.163V106.528ZM108.015 101.788L109.155 102.058C108.815 103.148 108.385 104.228 107.865 105.298C107.345 106.368 106.72 107.368 105.99 108.298C105.26 109.218 104.42 110.018 103.47 110.698C103.42 110.608 103.35 110.513 103.26 110.413C103.17 110.303 103.08 110.198 102.99 110.098C102.9 109.988 102.82 109.898 102.75 109.828C103.42 109.368 104.03 108.833 104.58 108.223C105.14 107.613 105.64 106.958 106.08 106.258C106.52 105.548 106.9 104.818 107.22 104.068C107.54 103.308 107.805 102.548 108.015 101.788ZM106.77 111.628H113.805V112.603H106.77V111.628ZM126.555 102.508C126.555 102.558 126.545 102.648 126.525 102.778C126.515 102.908 126.505 103.038 126.495 103.168C126.495 103.288 126.49 103.383 126.48 103.453C126.47 103.643 126.465 103.903 126.465 104.233C126.465 104.563 126.465 104.923 126.465 105.313C126.465 105.703 126.465 106.098 126.465 106.498C126.475 106.898 126.48 107.273 126.48 107.623C126.49 107.973 126.495 108.268 126.495 108.508L125.34 107.938C125.34 107.798 125.34 107.588 125.34 107.308C125.34 107.018 125.34 106.688 125.34 106.318C125.34 105.938 125.335 105.563 125.325 105.193C125.325 104.823 125.32 104.483 125.31 104.173C125.3 103.863 125.29 103.623 125.28 103.453C125.27 103.253 125.255 103.063 125.235 102.883C125.215 102.693 125.2 102.568 125.19 102.508H126.555ZM118.59 104.593C119 104.593 119.465 104.588 119.985 104.578C120.505 104.558 121.055 104.538 121.635 104.518C122.225 104.498 122.82 104.483 123.42 104.473C124.02 104.463 124.595 104.453 125.145 104.443C125.705 104.433 126.22 104.428 126.69 104.428C127.14 104.428 127.59 104.428 128.04 104.428C128.49 104.428 128.91 104.428 129.3 104.428C129.7 104.428 130.05 104.433 130.35 104.443C130.66 104.443 130.905 104.443 131.085 104.443L131.07 105.553C130.65 105.533 130.085 105.518 129.375 105.508C128.675 105.488 127.775 105.478 126.675 105.478C126.025 105.478 125.345 105.488 124.635 105.508C123.935 105.518 123.23 105.533 122.52 105.553C121.81 105.573 121.12 105.603 120.45 105.643C119.79 105.673 119.18 105.708 118.62 105.748L118.59 104.593ZM126.465 108.958C126.465 109.618 126.365 110.173 126.165 110.623C125.975 111.073 125.705 111.408 125.355 111.628C125.015 111.848 124.615 111.958 124.155 111.958C123.845 111.958 123.54 111.908 123.24 111.808C122.95 111.698 122.685 111.538 122.445 111.328C122.215 111.108 122.03 110.843 121.89 110.533C121.76 110.213 121.695 109.853 121.695 109.453C121.695 108.953 121.815 108.508 122.055 108.118C122.295 107.728 122.615 107.418 123.015 107.188C123.425 106.958 123.865 106.843 124.335 106.843C124.925 106.843 125.41 106.978 125.79 107.248C126.18 107.508 126.475 107.868 126.675 108.328C126.875 108.778 126.975 109.293 126.975 109.873C126.975 110.373 126.9 110.883 126.75 111.403C126.61 111.923 126.37 112.423 126.03 112.903C125.7 113.383 125.245 113.823 124.665 114.223C124.095 114.613 123.37 114.938 122.49 115.198L121.485 114.208C122.165 114.048 122.775 113.843 123.315 113.593C123.855 113.343 124.31 113.038 124.68 112.678C125.05 112.318 125.33 111.898 125.52 111.418C125.72 110.938 125.82 110.388 125.82 109.768C125.82 109.088 125.675 108.598 125.385 108.298C125.095 107.998 124.745 107.848 124.335 107.848C124.075 107.848 123.83 107.913 123.6 108.043C123.37 108.163 123.18 108.343 123.03 108.583C122.89 108.823 122.82 109.108 122.82 109.438C122.82 109.908 122.97 110.273 123.27 110.533C123.58 110.793 123.94 110.923 124.35 110.923C124.66 110.923 124.925 110.838 125.145 110.668C125.365 110.488 125.52 110.223 125.61 109.873C125.71 109.513 125.72 109.068 125.64 108.538L126.465 108.958ZM135.72 103.333C135.89 103.353 136.07 103.368 136.26 103.378C136.46 103.388 136.635 103.393 136.785 103.393C136.935 103.393 137.18 103.388 137.52 103.378C137.87 103.368 138.26 103.358 138.69 103.348C139.13 103.328 139.565 103.313 139.995 103.303C140.435 103.283 140.825 103.263 141.165 103.243C141.515 103.223 141.77 103.208 141.93 103.198C142.15 103.178 142.32 103.158 142.44 103.138C142.56 103.118 142.66 103.098 142.74 103.078L143.43 103.948C143.3 104.038 143.16 104.133 143.01 104.233C142.87 104.333 142.73 104.443 142.59 104.563C142.4 104.703 142.145 104.908 141.825 105.178C141.505 105.438 141.15 105.733 140.76 106.063C140.38 106.383 140.005 106.698 139.635 107.008C139.265 107.318 138.93 107.598 138.63 107.848C138.98 107.728 139.33 107.648 139.68 107.608C140.04 107.558 140.385 107.533 140.715 107.533C141.545 107.533 142.28 107.688 142.92 107.998C143.57 108.298 144.075 108.713 144.435 109.243C144.805 109.773 144.99 110.378 144.99 111.058C144.99 111.858 144.78 112.558 144.36 113.158C143.94 113.758 143.345 114.218 142.575 114.538C141.805 114.868 140.89 115.033 139.83 115.033C139.15 115.033 138.565 114.943 138.075 114.763C137.585 114.583 137.205 114.333 136.935 114.013C136.675 113.693 136.545 113.323 136.545 112.903C136.545 112.563 136.64 112.243 136.83 111.943C137.02 111.643 137.29 111.403 137.64 111.223C137.99 111.043 138.395 110.953 138.855 110.953C139.525 110.953 140.08 111.093 140.52 111.373C140.96 111.643 141.3 112.003 141.54 112.453C141.78 112.893 141.915 113.368 141.945 113.878L140.865 114.058C140.825 113.418 140.625 112.893 140.265 112.483C139.915 112.063 139.44 111.853 138.84 111.853C138.5 111.853 138.215 111.948 137.985 112.138C137.755 112.328 137.64 112.553 137.64 112.813C137.64 113.173 137.825 113.458 138.195 113.668C138.565 113.878 139.045 113.983 139.635 113.983C140.485 113.983 141.22 113.868 141.84 113.638C142.47 113.408 142.95 113.073 143.28 112.633C143.62 112.193 143.79 111.663 143.79 111.043C143.79 110.553 143.645 110.113 143.355 109.723C143.065 109.333 142.665 109.028 142.155 108.808C141.655 108.578 141.08 108.463 140.43 108.463C139.8 108.463 139.235 108.533 138.735 108.673C138.235 108.803 137.765 108.993 137.325 109.243C136.895 109.493 136.465 109.808 136.035 110.188C135.615 110.558 135.165 110.983 134.685 111.463L133.83 110.578C134.14 110.328 134.48 110.048 134.85 109.738C135.23 109.418 135.61 109.103 135.99 108.793C136.37 108.473 136.72 108.178 137.04 107.908C137.37 107.628 137.645 107.398 137.865 107.218C138.075 107.048 138.335 106.833 138.645 106.573C138.965 106.303 139.295 106.023 139.635 105.733C139.975 105.443 140.295 105.168 140.595 104.908C140.905 104.648 141.155 104.438 141.345 104.278C141.185 104.278 140.95 104.288 140.64 104.308C140.33 104.318 139.985 104.333 139.605 104.353C139.225 104.363 138.845 104.378 138.465 104.398C138.095 104.418 137.755 104.438 137.445 104.458C137.145 104.468 136.915 104.478 136.755 104.488C136.595 104.498 136.43 104.508 136.26 104.518C136.09 104.528 135.925 104.548 135.765 104.578L135.72 103.333ZM60.5253 122.893L61.7103 123.253C61.0803 125.083 60.2703 126.663 59.2803 127.993C58.3003 129.323 57.1203 130.443 55.7403 131.353C54.3703 132.263 52.7753 133.013 50.9553 133.603C50.9153 133.503 50.8503 133.388 50.7603 133.258C50.6803 133.128 50.5903 132.993 50.4903 132.853C50.4003 132.713 50.3153 132.603 50.2353 132.523C52.0153 132.003 53.5703 131.323 54.9003 130.483C56.2303 129.633 57.3603 128.588 58.2903 127.348C59.2203 126.098 59.9653 124.613 60.5253 122.893ZM53.7003 122.983C54.2503 124.583 54.9903 126.023 55.9203 127.303C56.8603 128.573 58.0103 129.648 59.3703 130.528C60.7303 131.408 62.3153 132.063 64.1253 132.493C64.0353 132.573 63.9353 132.678 63.8253 132.808C63.7253 132.948 63.6253 133.088 63.5253 133.228C63.4353 133.368 63.3603 133.488 63.3003 133.588C61.4503 133.108 59.8353 132.398 58.4553 131.458C57.0853 130.508 55.9203 129.353 54.9603 127.993C54.0003 126.623 53.2103 125.063 52.5903 123.313L53.7003 122.983ZM50.4003 122.338H63.9603V123.433H50.4003V122.338ZM56.5503 119.788H57.7053V122.998H56.5503V119.788ZM68.1453 124.123H75.3453V125.158H68.1453V124.123ZM65.7153 127.888H78.6303V128.968H65.7153V127.888ZM71.5653 126.763H72.7653V132.193C72.7653 132.523 72.7103 132.778 72.6003 132.958C72.5003 133.138 72.3153 133.278 72.0453 133.378C71.7853 133.468 71.4453 133.518 71.0253 133.528C70.6153 133.548 70.0953 133.558 69.4653 133.558C69.4353 133.448 69.3903 133.323 69.3303 133.183C69.2803 133.053 69.2203 132.923 69.1503 132.793C69.0903 132.663 69.0303 132.543 68.9703 132.433C69.3103 132.443 69.6353 132.448 69.9453 132.448C70.2553 132.458 70.5203 132.463 70.7403 132.463C70.9703 132.463 71.1303 132.463 71.2203 132.463C71.3603 132.453 71.4503 132.428 71.4903 132.388C71.5403 132.338 71.5653 132.263 71.5653 132.163V126.763ZM75.0153 124.123H75.3003L75.5553 124.063L76.2903 124.633C75.9703 124.993 75.5953 125.358 75.1653 125.728C74.7453 126.088 74.3003 126.433 73.8303 126.763C73.3703 127.083 72.9103 127.358 72.4503 127.588C72.3803 127.488 72.2803 127.378 72.1503 127.258C72.0203 127.128 71.9103 127.023 71.8203 126.943C72.2203 126.733 72.6203 126.478 73.0203 126.178C73.4203 125.878 73.7953 125.568 74.1453 125.248C74.4953 124.928 74.7853 124.628 75.0153 124.348V124.123ZM71.5353 119.758H72.7203V122.188H71.5353V119.758ZM65.8503 121.408H78.4503V124.948H77.2953V122.488H66.9603V124.948H65.8503V121.408ZM85.6353 123.523C86.0653 123.563 86.4853 123.593 86.8953 123.613C87.3053 123.633 87.7353 123.643 88.1853 123.643C89.0853 123.643 89.9803 123.608 90.8703 123.538C91.7603 123.468 92.5853 123.358 93.3453 123.208V124.363C92.5453 124.493 91.7003 124.588 90.8103 124.648C89.9303 124.708 89.0453 124.743 88.1553 124.753C87.7253 124.753 87.3053 124.743 86.8953 124.723C86.4953 124.703 86.0753 124.678 85.6353 124.648V123.523ZM90.8853 120.838C90.8653 120.988 90.8453 121.138 90.8253 121.288C90.8153 121.438 90.8053 121.588 90.7953 121.738C90.7853 121.918 90.7753 122.148 90.7653 122.428C90.7553 122.708 90.7503 123.008 90.7503 123.328C90.7503 123.638 90.7503 123.943 90.7503 124.243C90.7503 124.813 90.7603 125.383 90.7803 125.953C90.8003 126.523 90.8253 127.078 90.8553 127.618C90.8853 128.158 90.9103 128.668 90.9303 129.148C90.9603 129.618 90.9753 130.048 90.9753 130.438C90.9753 130.738 90.9303 131.033 90.8403 131.323C90.7603 131.613 90.6203 131.873 90.4203 132.103C90.2303 132.333 89.9653 132.513 89.6253 132.643C89.2953 132.783 88.8803 132.853 88.3803 132.853C87.3703 132.853 86.5953 132.663 86.0553 132.283C85.5253 131.903 85.2603 131.378 85.2603 130.708C85.2603 130.288 85.3803 129.908 85.6203 129.568C85.8703 129.218 86.2203 128.943 86.6703 128.743C87.1303 128.543 87.6903 128.443 88.3503 128.443C88.9903 128.443 89.5753 128.518 90.1053 128.668C90.6453 128.808 91.1403 128.998 91.5903 129.238C92.0503 129.468 92.4703 129.728 92.8503 130.018C93.2303 130.298 93.5803 130.578 93.9003 130.858L93.2403 131.863C92.7203 131.363 92.1953 130.928 91.6653 130.558C91.1453 130.188 90.6053 129.898 90.0453 129.688C89.4853 129.478 88.8903 129.373 88.2603 129.373C87.6903 129.373 87.2253 129.488 86.8653 129.718C86.5153 129.938 86.3403 130.228 86.3403 130.588C86.3403 130.968 86.5103 131.263 86.8503 131.473C87.1903 131.673 87.6303 131.773 88.1703 131.773C88.6003 131.773 88.9303 131.703 89.1603 131.563C89.4003 131.423 89.5653 131.233 89.6553 130.993C89.7553 130.753 89.8053 130.468 89.8053 130.138C89.8053 129.868 89.7953 129.503 89.7753 129.043C89.7553 128.583 89.7303 128.083 89.7003 127.543C89.6703 126.993 89.6453 126.433 89.6253 125.863C89.6053 125.293 89.5953 124.758 89.5953 124.258C89.5953 123.748 89.5953 123.268 89.5953 122.818C89.5953 122.368 89.5953 122.013 89.5953 121.753C89.5953 121.623 89.5903 121.473 89.5803 121.303C89.5703 121.123 89.5553 120.968 89.5353 120.838H90.8853ZM83.4753 120.928C83.4453 121.008 83.4103 121.113 83.3703 121.243C83.3403 121.363 83.3103 121.488 83.2803 121.618C83.2603 121.748 83.2403 121.858 83.2203 121.948C83.1603 122.228 83.0953 122.563 83.0253 122.953C82.9653 123.333 82.9003 123.748 82.8303 124.198C82.7603 124.638 82.6953 125.088 82.6353 125.548C82.5853 125.998 82.5453 126.433 82.5153 126.853C82.4853 127.273 82.4703 127.653 82.4703 127.993C82.4703 128.353 82.4803 128.698 82.5003 129.028C82.5303 129.358 82.5703 129.708 82.6203 130.078C82.7003 129.848 82.7903 129.603 82.8903 129.343C82.9903 129.083 83.0903 128.823 83.1903 128.563C83.3003 128.303 83.3953 128.073 83.4753 127.873L84.0903 128.353C83.9703 128.693 83.8353 129.078 83.6853 129.508C83.5453 129.928 83.4103 130.333 83.2803 130.723C83.1603 131.103 83.0753 131.418 83.0253 131.668C83.0053 131.768 82.9853 131.883 82.9653 132.013C82.9553 132.143 82.9553 132.253 82.9653 132.343C82.9653 132.413 82.9653 132.498 82.9653 132.598C82.9753 132.698 82.9853 132.788 82.9953 132.868L81.9453 132.943C81.7953 132.403 81.6603 131.733 81.5403 130.933C81.4303 130.123 81.3753 129.213 81.3753 128.203C81.3753 127.643 81.4003 127.063 81.4503 126.463C81.5103 125.853 81.5753 125.258 81.6453 124.678C81.7253 124.098 81.8003 123.568 81.8703 123.088C81.9503 122.598 82.0153 122.198 82.0653 121.888C82.0853 121.718 82.1053 121.538 82.1253 121.348C82.1453 121.158 82.1553 120.983 82.1553 120.823L83.4753 120.928ZM100.635 125.548H108.87V128.203H107.82V126.463H101.655V128.203H100.635V125.548ZM105.435 127.468H106.5V131.983C106.5 132.163 106.52 132.278 106.56 132.328C106.6 132.378 106.7 132.403 106.86 132.403C106.91 132.403 107 132.403 107.13 132.403C107.27 132.403 107.41 132.403 107.55 132.403C107.69 132.403 107.79 132.403 107.85 132.403C107.96 132.403 108.04 132.358 108.09 132.268C108.15 132.178 108.19 131.993 108.21 131.713C108.24 131.423 108.26 130.993 108.27 130.423C108.35 130.483 108.445 130.543 108.555 130.603C108.665 130.653 108.78 130.703 108.9 130.753C109.02 130.793 109.13 130.828 109.23 130.858C109.2 131.528 109.14 132.048 109.05 132.418C108.97 132.798 108.845 133.058 108.675 133.198C108.505 133.338 108.27 133.408 107.97 133.408C107.92 133.408 107.835 133.408 107.715 133.408C107.595 133.408 107.465 133.408 107.325 133.408C107.195 133.408 107.07 133.408 106.95 133.408C106.84 133.408 106.76 133.408 106.71 133.408C106.37 133.408 106.105 133.363 105.915 133.273C105.735 133.193 105.61 133.048 105.54 132.838C105.47 132.638 105.435 132.353 105.435 131.983V127.468ZM102.855 127.453H103.92C103.88 128.263 103.81 128.993 103.71 129.643C103.61 130.283 103.445 130.853 103.215 131.353C102.985 131.843 102.66 132.273 102.24 132.643C101.83 133.023 101.29 133.343 100.62 133.603C100.58 133.513 100.52 133.413 100.44 133.303C100.37 133.193 100.29 133.083 100.2 132.973C100.12 132.873 100.04 132.788 99.9603 132.718C100.57 132.498 101.06 132.233 101.43 131.923C101.8 131.613 102.08 131.248 102.27 130.828C102.47 130.398 102.61 129.908 102.69 129.358C102.77 128.798 102.825 128.163 102.855 127.453ZM100.695 121.138H108.81V122.083H100.695V121.138ZM101.19 123.493H108.36V124.438H101.19V123.493ZM104.115 119.773H105.225V123.988H104.115V119.773ZM95.8653 124.333H99.9153V125.218H95.8653V124.333ZM95.9553 120.313H99.8703V121.213H95.9553V120.313ZM95.8653 126.328H99.9153V127.228H95.8653V126.328ZM95.2203 122.278H100.335V123.223H95.2203V122.278ZM96.3903 128.353H99.9303V132.718H96.3903V131.788H98.9703V129.283H96.3903V128.353ZM95.8503 128.353H96.8103V133.423H95.8503V128.353ZM118.245 120.478C118.225 120.608 118.205 120.753 118.185 120.913C118.175 121.073 118.165 121.263 118.155 121.483C118.155 121.633 118.15 121.858 118.14 122.158C118.14 122.458 118.14 122.798 118.14 123.178C118.14 123.548 118.14 123.923 118.14 124.303C118.14 124.683 118.14 125.033 118.14 125.353C118.14 125.853 118.15 126.378 118.17 126.928C118.19 127.478 118.215 128.013 118.245 128.533C118.275 129.053 118.3 129.528 118.32 129.958C118.34 130.388 118.35 130.728 118.35 130.978C118.35 131.328 118.265 131.663 118.095 131.983C117.935 132.303 117.66 132.563 117.27 132.763C116.89 132.973 116.37 133.078 115.71 133.078C114.63 133.078 113.805 132.888 113.235 132.508C112.665 132.138 112.38 131.593 112.38 130.873C112.38 130.413 112.515 130.013 112.785 129.673C113.065 129.333 113.465 129.068 113.985 128.878C114.505 128.678 115.125 128.578 115.845 128.578C116.635 128.578 117.375 128.673 118.065 128.863C118.765 129.043 119.405 129.273 119.985 129.553C120.565 129.833 121.08 130.128 121.53 130.438C121.98 130.738 122.35 131.008 122.64 131.248L121.95 132.313C121.61 131.993 121.215 131.673 120.765 131.353C120.325 131.033 119.84 130.738 119.31 130.468C118.79 130.198 118.225 129.983 117.615 129.823C117.015 129.653 116.375 129.568 115.695 129.568C114.975 129.568 114.425 129.688 114.045 129.928C113.675 130.168 113.49 130.463 113.49 130.813C113.49 131.033 113.56 131.238 113.7 131.428C113.84 131.608 114.065 131.753 114.375 131.863C114.685 131.973 115.085 132.028 115.575 132.028C115.865 132.028 116.13 131.993 116.37 131.923C116.61 131.843 116.8 131.708 116.94 131.518C117.09 131.328 117.165 131.063 117.165 130.723C117.165 130.433 117.155 130.058 117.135 129.598C117.125 129.128 117.11 128.633 117.09 128.113C117.07 127.583 117.05 127.073 117.03 126.583C117.02 126.093 117.015 125.683 117.015 125.353C117.015 125.013 117.015 124.668 117.015 124.318C117.015 123.958 117.015 123.603 117.015 123.253C117.015 122.903 117.015 122.568 117.015 122.248C117.025 121.928 117.03 121.638 117.03 121.378C117.03 121.258 117.025 121.103 117.015 120.913C117.005 120.723 116.99 120.578 116.97 120.478H118.245ZM112.5 122.113C112.75 122.153 113.04 122.193 113.37 122.233C113.7 122.273 114.045 122.313 114.405 122.353C114.775 122.383 115.125 122.408 115.455 122.428C115.795 122.438 116.09 122.443 116.34 122.443C117.29 122.443 118.26 122.408 119.25 122.338C120.25 122.268 121.235 122.153 122.205 121.993L122.19 123.088C121.64 123.148 121.04 123.208 120.39 123.268C119.74 123.328 119.07 123.378 118.38 123.418C117.7 123.458 117.025 123.478 116.355 123.478C116.005 123.478 115.59 123.463 115.11 123.433C114.63 123.403 114.155 123.368 113.685 123.328C113.225 123.288 112.835 123.253 112.515 123.223L112.5 122.113ZM112.425 125.293C112.695 125.333 112.995 125.373 113.325 125.413C113.655 125.453 113.995 125.483 114.345 125.503C114.695 125.523 115.03 125.543 115.35 125.563C115.67 125.573 115.955 125.578 116.205 125.578C116.935 125.578 117.64 125.563 118.32 125.533C119.01 125.493 119.685 125.443 120.345 125.383C121.015 125.313 121.675 125.228 122.325 125.128L122.31 126.253C121.81 126.323 121.31 126.383 120.81 126.433C120.32 126.473 119.825 126.508 119.325 126.538C118.835 126.568 118.33 126.593 117.81 126.613C117.3 126.623 116.76 126.628 116.19 126.628C115.85 126.628 115.455 126.618 115.005 126.598C114.565 126.578 114.115 126.553 113.655 126.523C113.205 126.493 112.8 126.458 112.44 126.418L112.425 125.293ZM126.105 122.923C126.385 122.963 126.68 122.993 126.99 123.013C127.3 123.023 127.615 123.028 127.935 123.028C128.485 123.028 129.05 123.003 129.63 122.953C130.22 122.903 130.815 122.823 131.415 122.713C132.015 122.593 132.605 122.438 133.185 122.248L133.215 123.373C132.725 123.503 132.185 123.623 131.595 123.733C131.015 123.843 130.41 123.933 129.78 124.003C129.16 124.063 128.545 124.093 127.935 124.093C127.665 124.093 127.375 124.093 127.065 124.093C126.765 124.083 126.47 124.068 126.18 124.048L126.105 122.923ZM131.415 120.478C131.355 120.718 131.28 121.023 131.19 121.393C131.1 121.763 131 122.153 130.89 122.563C130.79 122.963 130.68 123.343 130.56 123.703C130.32 124.423 130.015 125.183 129.645 125.983C129.275 126.773 128.88 127.543 128.46 128.293C128.04 129.043 127.625 129.698 127.215 130.258L126.06 129.658C126.39 129.268 126.72 128.823 127.05 128.323C127.39 127.823 127.705 127.298 127.995 126.748C128.295 126.198 128.565 125.658 128.805 125.128C129.045 124.598 129.245 124.113 129.405 123.673C129.565 123.193 129.715 122.653 129.855 122.053C129.995 121.443 130.075 120.878 130.095 120.358L131.415 120.478ZM134.955 125.113C134.945 125.423 134.935 125.703 134.925 125.953C134.925 126.193 134.93 126.453 134.94 126.733C134.95 126.973 134.96 127.283 134.97 127.663C134.99 128.033 135.01 128.428 135.03 128.848C135.05 129.258 135.065 129.653 135.075 130.033C135.095 130.413 135.105 130.728 135.105 130.978C135.105 131.378 135.015 131.743 134.835 132.073C134.655 132.403 134.37 132.663 133.98 132.853C133.6 133.053 133.1 133.153 132.48 133.153C131.93 133.153 131.43 133.073 130.98 132.913C130.53 132.763 130.165 132.528 129.885 132.208C129.615 131.888 129.48 131.483 129.48 130.993C129.48 130.523 129.61 130.123 129.87 129.793C130.14 129.453 130.5 129.193 130.95 129.013C131.41 128.833 131.92 128.743 132.48 128.743C133.32 128.743 134.09 128.863 134.79 129.103C135.5 129.333 136.135 129.628 136.695 129.988C137.265 130.348 137.755 130.703 138.165 131.053L137.52 132.073C137.23 131.813 136.905 131.543 136.545 131.263C136.195 130.983 135.805 130.728 135.375 130.498C134.945 130.258 134.485 130.063 133.995 129.913C133.505 129.763 132.985 129.688 132.435 129.688C131.885 129.688 131.44 129.803 131.1 130.033C130.76 130.263 130.59 130.548 130.59 130.888C130.59 131.238 130.735 131.523 131.025 131.743C131.315 131.963 131.75 132.073 132.33 132.073C132.75 132.073 133.08 132.008 133.32 131.878C133.56 131.738 133.73 131.558 133.83 131.338C133.94 131.108 133.995 130.858 133.995 130.588C133.995 130.308 133.985 129.943 133.965 129.493C133.955 129.043 133.935 128.563 133.905 128.053C133.885 127.533 133.86 127.018 133.83 126.508C133.81 125.988 133.795 125.523 133.785 125.113H134.955ZM137.955 125.518C137.685 125.278 137.345 125.028 136.935 124.768C136.525 124.508 136.1 124.263 135.66 124.033C135.23 123.793 134.85 123.598 134.52 123.448L135.135 122.533C135.405 122.653 135.705 122.798 136.035 122.968C136.365 123.138 136.695 123.318 137.025 123.508C137.355 123.698 137.66 123.883 137.94 124.063C138.23 124.233 138.46 124.388 138.63 124.528L137.955 125.518ZM142.995 121.918C142.975 122.038 142.955 122.188 142.935 122.368C142.925 122.548 142.91 122.728 142.89 122.908C142.88 123.088 142.875 123.243 142.875 123.373C142.865 123.683 142.86 124.038 142.86 124.438C142.87 124.828 142.88 125.238 142.89 125.668C142.91 126.088 142.94 126.508 142.98 126.928C143.06 127.758 143.195 128.488 143.385 129.118C143.575 129.738 143.805 130.223 144.075 130.573C144.355 130.923 144.67 131.098 145.02 131.098C145.21 131.098 145.395 131.013 145.575 130.843C145.755 130.663 145.925 130.428 146.085 130.138C146.255 129.838 146.405 129.508 146.535 129.148C146.675 128.778 146.79 128.408 146.88 128.038L147.825 129.103C147.525 129.953 147.22 130.628 146.91 131.128C146.61 131.618 146.3 131.973 145.98 132.193C145.67 132.413 145.345 132.523 145.005 132.523C144.535 132.523 144.08 132.353 143.64 132.013C143.2 131.663 142.82 131.103 142.5 130.333C142.18 129.553 141.95 128.518 141.81 127.228C141.76 126.788 141.72 126.313 141.69 125.803C141.67 125.293 141.655 124.808 141.645 124.348C141.645 123.888 141.645 123.513 141.645 123.223C141.645 123.053 141.64 122.833 141.63 122.563C141.62 122.293 141.59 122.068 141.54 121.888L142.995 121.918ZM150.81 122.338C151.08 122.678 151.335 123.078 151.575 123.538C151.825 123.988 152.05 124.473 152.25 124.993C152.46 125.503 152.645 126.033 152.805 126.583C152.975 127.133 153.11 127.683 153.21 128.233C153.32 128.773 153.4 129.293 153.45 129.793L152.25 130.288C152.19 129.608 152.085 128.918 151.935 128.218C151.785 127.508 151.6 126.823 151.38 126.163C151.16 125.493 150.905 124.863 150.615 124.273C150.325 123.683 150 123.173 149.64 122.743L150.81 122.338Z" fill="black"/>
</svg>
