<svg width="211" height="149" viewBox="0 0 211 149" fill="none" xmlns="http://www.w3.org/2000/svg">
<rect width="210" height="148.5" transform="matrix(-1 0 0 -1 210.65 148.5)" fill="white"/>
<path d="M149.293 39.5312C149.032 39.5312 148.902 39.4557 148.902 39.3047C148.902 39.1537 149.015 39.0713 149.241 39.0576L150.415 38.9134C150.763 38.8722 150.998 38.8036 151.12 38.7075C151.242 38.5976 151.303 38.3985 151.303 38.1102V25.7534C151.303 25.5612 151.25 25.4239 151.146 25.3415C151.042 25.2591 150.824 25.2179 150.494 25.2179C149.85 25.2179 149.215 25.4376 148.589 25.877C147.962 26.3163 147.554 27.0234 147.362 27.9982L147.232 28.6778C147.197 28.8563 147.075 28.9456 146.866 28.9456C146.606 28.9456 146.492 28.8289 146.527 28.5955L146.762 24.8678C146.797 24.552 146.953 24.3941 147.232 24.3941C147.354 24.3941 147.467 24.4216 147.571 24.4765C147.675 24.5177 147.849 24.5658 148.093 24.6207C148.354 24.6756 148.763 24.7031 149.319 24.7031H155.138C155.695 24.7031 156.095 24.6756 156.339 24.6207C156.6 24.5658 156.782 24.5177 156.887 24.4765C157.009 24.4216 157.122 24.3941 157.226 24.3941C157.504 24.3941 157.661 24.552 157.696 24.8678L157.931 28.5955C157.965 28.8289 157.852 28.9456 157.591 28.9456C157.383 28.9456 157.261 28.8563 157.226 28.6778L157.096 27.9982C156.922 27.0234 156.521 26.3163 155.895 25.877C155.269 25.4376 154.625 25.2179 153.964 25.2179C153.634 25.2179 153.416 25.2591 153.312 25.3415C153.207 25.4239 153.155 25.5612 153.155 25.7534V38.1102C153.155 38.3985 153.216 38.5976 153.338 38.7075C153.477 38.8036 153.712 38.8722 154.043 38.9134L155.217 39.0576C155.443 39.0713 155.556 39.1537 155.556 39.3047C155.556 39.4557 155.426 39.5312 155.165 39.5312H149.293Z" fill="black"/>
<path d="M140.593 39.7166C140.245 39.7166 139.854 39.6891 139.419 39.6342C139.001 39.5793 138.601 39.5107 138.218 39.4283C137.853 39.3459 137.566 39.2566 137.357 39.1605C137.235 39.1056 137.14 39.0507 137.07 38.9958C137.018 38.9271 136.992 38.8173 136.992 38.6663L136.861 35.4329C136.861 35.1583 136.975 35.021 137.201 35.021C137.392 35.021 137.523 35.1446 137.592 35.3917L137.827 36.1743C138.418 38.1377 139.523 39.1194 141.141 39.1194C142.011 39.1194 142.698 38.8928 143.202 38.4397C143.724 37.9729 143.985 37.3208 143.985 36.4832C143.985 35.6732 143.716 34.918 143.176 34.2178C142.654 33.5176 141.811 32.8242 140.645 32.1378C139.358 31.4101 138.418 30.7099 137.827 30.0371C137.235 29.3506 136.94 28.6229 136.94 27.8541C136.94 26.8381 137.383 26.028 138.271 25.4239C139.175 24.8061 140.323 24.4971 141.715 24.4971C142.237 24.4971 142.741 24.5452 143.229 24.6413C143.716 24.7374 144.116 24.8747 144.429 25.0532C144.533 25.1081 144.612 25.1699 144.664 25.2385C144.733 25.3072 144.768 25.3964 144.768 25.5063L144.846 28.6161C144.846 28.8495 144.733 28.9662 144.507 28.9662C144.351 28.9662 144.238 28.8701 144.168 28.6779L143.985 28.163C143.603 27.1058 143.202 26.3369 142.785 25.8564C142.385 25.3621 141.802 25.115 141.037 25.115C140.289 25.115 139.688 25.3072 139.236 25.6916C138.801 26.0761 138.584 26.6184 138.584 27.3186C138.584 27.909 138.827 28.4719 139.314 29.0074C139.801 29.5428 140.654 30.195 141.872 30.9639C143.176 31.8014 144.124 32.6114 144.716 33.394C145.325 34.1629 145.629 34.9867 145.629 35.8654C145.629 36.6343 145.412 37.307 144.977 37.8837C144.542 38.4603 143.942 38.9134 143.176 39.2429C142.428 39.5587 141.567 39.7166 140.593 39.7166Z" fill="black"/>
<path d="M124.855 39.5312C124.594 39.5312 124.463 39.4557 124.463 39.3047C124.463 39.1811 124.576 39.0987 124.802 39.0576L125.403 38.9752C125.768 38.9203 126.003 38.8447 126.107 38.7486C126.229 38.6525 126.29 38.4603 126.29 38.172V26.0623C126.29 25.774 126.229 25.5818 126.107 25.4857C126.003 25.3896 125.768 25.314 125.403 25.2591L124.802 25.1767C124.576 25.1356 124.463 25.0532 124.463 24.9296C124.463 24.7786 124.594 24.7031 124.855 24.7031H133.622C134.023 24.7031 134.24 24.861 134.275 25.1767L134.484 28.5955C134.518 28.8289 134.405 28.9456 134.144 28.9456C133.936 28.9456 133.814 28.8563 133.779 28.6778L133.622 27.9158C133.431 26.9822 133.04 26.3026 132.448 25.877C131.857 25.4376 131.039 25.2179 129.995 25.2179C129.299 25.2179 128.812 25.3003 128.534 25.4651C128.273 25.6161 128.143 25.8907 128.143 26.2889V31.2522C128.143 31.4444 128.264 31.5405 128.508 31.5405H129.813C130.578 31.5405 131.048 31.2178 131.222 30.5725L131.483 29.5428C131.552 29.3369 131.7 29.2476 131.926 29.2751C132.118 29.3025 132.213 29.4192 132.213 29.6252V34.259C132.213 34.4649 132.118 34.5816 131.926 34.6091C131.7 34.6366 131.552 34.5473 131.483 34.3414L131.222 33.3322C131.1 32.8517 130.926 32.5359 130.7 32.3849C130.491 32.2339 130.187 32.1583 129.787 32.1583H128.508C128.264 32.1583 128.143 32.2544 128.143 32.4467V37.6159C128.143 38.1102 128.299 38.4672 128.612 38.6869C128.943 38.9065 129.534 39.0164 130.387 39.0164C131.257 39.0164 131.996 38.8447 132.605 38.5015C133.231 38.1445 133.666 37.4855 133.91 36.5244L134.223 35.3093C134.275 35.1308 134.405 35.0416 134.614 35.0416C134.858 35.0416 134.962 35.1583 134.927 35.3917L134.666 39.0576C134.631 39.3733 134.414 39.5312 134.014 39.5312H124.855Z" fill="black"/>
<path d="M117.153 39.7166C116.214 39.7166 115.379 39.545 114.648 39.2017C113.935 38.8447 113.378 38.3573 112.978 37.7395C112.578 37.1079 112.378 36.3871 112.378 35.5771V26.0623C112.378 25.774 112.317 25.5818 112.195 25.4857C112.091 25.3896 111.856 25.314 111.491 25.2591L110.891 25.1767C110.664 25.1356 110.551 25.0532 110.551 24.9296C110.551 24.7786 110.682 24.7031 110.943 24.7031H115.718C115.979 24.7031 116.109 24.7854 116.109 24.9502C116.109 25.0738 116.014 25.1493 115.822 25.1767L115.118 25.2591C114.77 25.3003 114.535 25.3758 114.413 25.4857C114.292 25.5955 114.231 25.7946 114.231 26.0829V35.5976C114.231 36.6411 114.526 37.4512 115.118 38.0278C115.709 38.6045 116.536 38.8928 117.597 38.8928C118.675 38.8928 119.51 38.6045 120.102 38.0278C120.693 37.4512 120.989 36.6411 120.989 35.5976V26.4948C120.989 25.7534 120.693 25.3415 120.102 25.2591L119.397 25.1767C119.206 25.1493 119.11 25.0738 119.11 24.9502C119.11 24.7854 119.241 24.7031 119.502 24.7031H123.259C123.52 24.7031 123.651 24.7786 123.651 24.9296C123.651 25.0532 123.538 25.1356 123.312 25.1767L122.711 25.2591C122.12 25.3415 121.824 25.7465 121.824 26.4742V35.5771C121.824 36.8265 121.398 37.8287 120.546 38.5839C119.693 39.339 118.562 39.7166 117.153 39.7166Z" fill="black"/>
<path d="M93.1332 9.54534C94.0275 8.53419 95.0997 8.23431 96.0487 8.44396C96.888 8.62942 97.6001 9.20931 97.9631 9.97549C98.7823 9.24459 99.5764 9.04022 100.308 9.22506C100.981 9.39502 101.532 9.87982 101.953 10.42C103.146 9.19341 104.383 8.91995 105.453 9.19565C106.473 9.45855 107.287 10.2079 107.723 10.9627C108.966 10.7401 109.767 10.9704 110.189 11.5354C110.562 12.0359 110.554 12.6963 110.434 13.2263C110.962 13.6262 111.307 14.0188 111.492 14.4059C111.702 14.8467 111.696 15.2673 111.533 15.6365C111.376 15.9927 111.084 16.2749 110.767 16.4867C110.539 16.6384 110.287 16.7608 110.037 16.854C110.211 17.4805 110.219 18.0182 110.081 18.4685C109.919 18.9962 109.567 19.3666 109.129 19.6018C108.362 20.0145 107.323 20.021 106.453 19.7994C106.227 20.3396 105.946 20.7593 105.604 21.0595C105.203 21.4126 104.737 21.5859 104.23 21.6095C103.298 21.6531 102.248 21.1885 101.177 20.4863C98.7282 22.3689 95.8567 22.8534 93.8183 22.8534C91.952 22.8534 90.3854 22.8629 88.6703 22.8678C86.9344 22.8727 85.0488 22.8729 82.553 22.8534L82.5581 22.2305C85.0511 22.2499 86.9342 22.2497 88.6686 22.2448C89.6686 22.242 90.6201 22.2377 91.6105 22.2345C91.9896 22.6169 92.5152 22.8537 93.0962 22.8537C93.6918 22.8537 94.2286 22.6044 94.6097 22.2051C96.5198 22.0849 98.922 21.5043 100.967 19.8595L101.146 19.715L101.337 19.8444C102.456 20.6046 103.43 21.0234 104.201 20.9873C104.575 20.9699 104.904 20.8458 105.193 20.5916C105.487 20.3331 105.755 19.9255 105.972 19.317L106.074 19.0314L106.362 19.1257C107.185 19.3947 108.183 19.4033 108.834 19.053C109.149 18.8838 109.378 18.6346 109.486 18.2855C109.595 17.9296 109.589 17.433 109.355 16.7557L109.247 16.4438L109.565 16.3543C109.857 16.272 110.163 16.1403 110.421 15.9686C110.681 15.7953 110.87 15.5952 110.963 15.3849C111.05 15.1874 111.064 14.9566 110.929 14.6739C110.789 14.3787 110.481 14.0182 109.9 13.6065L109.718 13.4772L109.781 13.2633C109.93 12.7645 109.935 12.2368 109.69 11.9083C109.466 11.6084 108.921 11.3389 107.623 11.6174L107.384 11.6687L107.277 11.4487C106.945 10.7622 106.209 10.0336 105.297 9.79876C104.418 9.57215 103.308 9.78909 102.16 11.1151L101.894 11.4233L101.666 11.0849C101.255 10.4715 100.735 9.97541 100.156 9.82892C99.6095 9.69102 98.9107 9.84155 98.0644 10.7485L97.6762 11.1646L97.535 10.6133C97.3375 9.8426 96.6953 9.22493 95.9144 9.05235C95.1535 8.88421 94.2155 9.1321 93.4085 10.1907L93.1805 10.4901L92.9291 10.21C92.5753 9.81597 92.0074 9.53603 91.4765 9.59939C90.9807 9.6586 90.4072 10.0339 90.0508 11.1857L89.9902 11.3821L89.7861 11.4034C88.99 11.4874 88.5831 11.8186 88.4496 12.169C88.3154 12.5215 88.4053 13.0297 88.9011 13.5811L89.0771 13.7767L88.9137 13.9828C88.6217 14.3515 88.3181 14.9016 88.2819 15.3766C88.2646 15.6041 88.3097 15.7942 88.4257 15.9465C88.5431 16.1004 88.7632 16.2552 89.1714 16.351L89.0291 16.9574C88.5268 16.8395 88.1607 16.6262 87.9305 16.3243C87.6991 16.0209 87.635 15.6673 87.6607 15.3293C87.703 14.7734 87.9905 14.2084 88.2739 13.8005C87.81 13.1971 87.6451 12.5316 87.8676 11.9472C88.0972 11.3445 88.6945 10.9445 89.5191 10.8109C89.9325 9.63738 90.6273 9.07351 91.4028 8.98095C92.0497 8.90376 92.6789 9.16658 93.1332 9.54534Z" fill="black"/>
<path d="M69.3748 39.3047C69.3748 39.4557 69.5053 39.5312 69.7663 39.5312H75.6376C75.8985 39.5312 76.029 39.4557 76.029 39.3047C76.029 39.1537 75.9159 39.0713 75.6897 39.0576L74.5155 38.9134C74.185 38.8722 73.9501 38.8036 73.8109 38.7074C73.6892 38.5976 73.6283 38.3985 73.6283 38.1102V33.0851C73.6283 32.8654 73.6544 32.6732 73.7066 32.5084C73.7587 32.33 73.8457 32.1446 73.9675 31.9524L77.3859 26.536C77.6816 26.0829 77.9165 25.7603 78.0904 25.568C79.2598 24.276 80.9527 22.9282 82.553 22.8534L82.5581 22.2305C78.9664 21.8874 77.4155 25.0447 76.5248 26.5154L73.4456 31.4787C73.376 31.5748 73.289 31.6229 73.1847 31.6229C73.0803 31.6229 72.9933 31.5748 72.9237 31.4787L69.7141 26.0829C69.5401 25.7946 69.514 25.5818 69.6358 25.4445C69.7576 25.3072 69.9663 25.2317 70.2621 25.2179L70.7579 25.1767C71.0536 25.163 71.2015 25.0806 71.2015 24.9296C71.2015 24.7786 71.0797 24.7031 70.8361 24.7031H66.374C66.113 24.7031 65.9825 24.7717 65.9825 24.909C65.9825 25.0463 66.1043 25.1355 66.3479 25.1767L66.5827 25.2179C66.8785 25.2729 67.1046 25.3621 67.2612 25.4857C67.4177 25.6092 67.5569 25.7877 67.6787 26.0211L71.5146 32.3643C71.6886 32.6526 71.7755 32.9478 71.7755 33.2499V38.1102C71.7755 38.3985 71.7147 38.5976 71.5929 38.7074C71.4711 38.8036 71.2363 38.8722 70.8883 38.9134L69.7141 39.0576C69.4879 39.0713 69.3748 39.1537 69.3748 39.3047Z" fill="black"/>
<path d="M64.1408 39.7166C63.8625 39.7166 63.6277 39.5518 63.4363 39.2223L56.3647 27.1126C56.3125 27.0165 56.2429 26.9753 56.1559 26.9891C56.0863 27.0028 56.0515 27.0646 56.0515 27.1744V37.7601C56.0515 38.1445 56.1298 38.4397 56.2864 38.6457C56.4603 38.8379 56.7648 38.9614 57.1997 39.0164L57.5389 39.0576C57.7651 39.0713 57.8781 39.1537 57.8781 39.3047C57.8781 39.4557 57.7477 39.5312 57.4867 39.5312H53.7552C53.4942 39.5312 53.3638 39.4557 53.3638 39.3047C53.3638 39.1537 53.4768 39.0713 53.703 39.0576L54.0422 39.0164C54.4945 38.9614 54.8077 38.8379 54.9816 38.6457C55.1556 38.4397 55.2426 38.1445 55.2426 37.7601V26.0623C55.2426 25.774 55.1817 25.5818 55.0599 25.4857C54.9555 25.3896 54.7033 25.314 54.3032 25.2591L53.703 25.1767C53.4768 25.1356 53.3638 25.0532 53.3638 24.9296C53.3638 24.7786 53.4942 24.7031 53.7552 24.7031H56.5473C56.9822 24.7031 57.2867 24.8541 57.4606 25.1561L63.619 35.8448C63.6711 35.9272 63.732 35.9615 63.8016 35.9478C63.8886 35.934 63.9321 35.886 63.9321 35.8036V26.4742C63.9321 26.0349 63.8364 25.7328 63.645 25.568C63.4537 25.3896 63.2101 25.2797 62.9144 25.2385L62.4447 25.1767C62.2185 25.1356 62.1055 25.0532 62.1055 24.9296C62.1055 24.7786 62.2359 24.7031 62.4969 24.7031H66.2284C66.4894 24.7031 66.6198 24.7786 66.6198 24.9296C66.6198 25.0806 66.5068 25.163 66.2806 25.1767L65.9414 25.2179C65.4891 25.2728 65.1759 25.3896 65.002 25.568C64.828 25.7328 64.741 26.0349 64.741 26.4742V39.0576C64.741 39.3047 64.6801 39.4763 64.5584 39.5724C64.454 39.6685 64.3148 39.7166 64.1408 39.7166Z" fill="black"/>
<path fill-rule="evenodd" clip-rule="evenodd" d="M82.0656 38.7692C83.0398 39.4008 84.2315 39.7166 85.6406 39.7166C86.3538 39.7166 86.9801 39.6617 87.5194 39.5518C88.0587 39.4557 88.5371 39.3253 88.9546 39.1605C89.2155 39.0507 89.3982 38.9546 89.5026 38.8722C89.607 38.7761 89.6591 38.6525 89.6591 38.5015V32.9204C89.6591 32.632 89.6939 32.4261 89.7635 32.3025C89.435 32.3025 88.891 32.1915 88.3732 32.0859C88.0898 32.0281 87.8144 31.9719 87.5864 31.9364C86.8397 31.8201 86.5276 31.8795 86.9192 32.0966C87.2845 32.124 87.5194 32.1927 87.6238 32.3025C87.7455 32.4124 87.8064 32.6114 87.8064 32.8998V37.41C87.8064 38.0828 87.6238 38.5427 87.2584 38.7898C86.8931 39.037 86.3538 39.1605 85.6406 39.1605C84.3184 39.1605 83.2312 38.5564 82.3787 37.3482C81.5437 36.1263 81.1262 34.3551 81.1262 32.0348C81.1262 29.7831 81.535 28.0669 82.3526 26.8861C83.1877 25.6916 84.2402 25.0944 85.5101 25.0944C86.3625 25.0944 87.0323 25.3072 87.5194 25.7328C88.0065 26.1584 88.4414 26.941 88.8241 28.0806L89.0329 28.6984C89.0851 28.8769 89.2068 28.9662 89.3982 28.9662C89.607 28.9662 89.7113 28.8495 89.7113 28.6161L89.633 25.4857C89.633 25.2935 89.52 25.1493 89.2938 25.0532C88.8763 24.8884 88.3892 24.758 87.8325 24.6619C87.2758 24.552 86.6583 24.4971 85.9798 24.4971C84.6403 24.4971 83.4486 24.8129 82.4048 25.4445C81.3784 26.0623 80.5695 26.941 79.978 28.0806C79.3866 29.2064 79.0908 30.5245 79.0908 32.0348C79.0908 33.6 79.3431 34.9592 79.8476 36.1125C80.3521 37.2521 81.0914 38.1377 82.0656 38.7692Z" fill="black"/>
<path fill-rule="evenodd" clip-rule="evenodd" d="M100.342 37.573C100.938 38.4715 101.699 38.9886 102.625 39.1243C102.716 39.3361 103.08 39.7744 103.078 39.8428C102.879 39.7763 102.467 39.7152 102.254 39.657C102.118 39.6196 101.989 39.5844 101.882 39.5518C100.977 39.3184 100.16 38.8516 99.4291 38.1514C99.1388 37.8608 98.8731 37.543 98.6318 37.1978C99.1194 37.3452 100.144 37.6266 100.342 37.573ZM99.1943 32.0966C99.1943 34.0188 99.4221 35.5454 99.8779 36.6763C99.7347 36.668 98.5322 36.2302 97.9489 36.0124C97.873 35.8511 97.801 35.6854 97.733 35.5153C97.3329 34.4718 97.1328 33.3322 97.1328 32.0966C97.1328 31.0256 97.2807 30.0302 97.5764 29.1103C97.8895 28.1904 98.3158 27.3873 98.855 26.7008C99.4117 26.0005 100.055 25.4582 100.786 25.0738C101.517 24.6893 102.3 24.4971 103.135 24.4971C103.97 24.4971 104.744 24.6893 105.457 25.0738C106.188 25.4582 106.831 26.0005 107.388 26.7008C107.945 27.3873 108.371 28.1904 108.667 29.1103C108.98 30.0302 109.136 31.0256 109.136 32.0966C109.136 33.3597 108.919 34.5267 108.484 35.5977C108.066 36.6549 107.484 37.5336 106.736 38.2338C106.145 38.7998 105.486 39.2043 104.759 39.4474C104.618 39.3138 104.331 39.0283 104.31 38.9548C105 38.6918 105.574 38.1769 106.031 37.41C106.727 36.243 107.075 34.4718 107.075 32.0966C107.075 29.7213 106.727 27.957 106.031 26.8037C105.335 25.6367 104.37 25.0532 103.135 25.0532C101.917 25.0532 100.951 25.6367 100.238 26.8037C99.5422 27.957 99.1943 29.7213 99.1943 32.0966Z" fill="black"/>
<path d="M84.5915 32.9204C85.0245 32.4535 86.3889 31.4977 88.1044 31.6954C90.2488 31.9425 95.7633 35.4998 97.4747 36.4543C97.7139 36.5877 98.031 36.7222 98.4005 36.8466C98.9098 37.018 99.5185 37.17 100.159 37.273C100.656 37.3527 101.172 37.403 101.676 37.41C101.738 37.4109 101.8 37.4112 101.861 37.4111C101.774 37.308 101.684 37.2043 101.592 37.0996C101.026 37.1015 100.485 37.031 99.9828 36.9209C99.2535 36.7611 98.6069 36.5178 98.0868 36.2923C97.8568 36.1926 97.6515 36.0964 97.4747 36.0124C96.1455 35.3808 90.9659 31.9249 88.6344 31.5405C86.7692 31.233 84.9621 32.2796 84.5915 32.9204Z" fill="black"/>
<path d="M102.536 37.3876C102.455 37.2847 102.369 37.1747 102.279 37.0606C102.047 37.0865 101.818 37.0988 101.592 37.0996C101.684 37.2043 101.774 37.308 101.861 37.4111C102.095 37.4107 102.32 37.403 102.536 37.3876Z" fill="black"/>
<path d="M103.949 39.0668C103.692 39.1293 103.42 39.1605 103.135 39.1605C103.097 39.1605 103.059 39.16 103.022 39.1588C103.084 39.3229 103.134 39.346 103.27 39.5803C103.406 39.8146 103.838 40.3769 104.014 40.7597C104.358 41.5065 104.799 42.0586 105.338 42.4157C105.877 42.7729 106.448 42.9933 107.049 43.0768C107.671 43.1716 108.239 43.1831 108.753 43.1116C109.352 43.0282 109.836 42.8982 110.202 42.7217C110.589 42.5563 110.902 42.3734 111.14 42.173C111.256 42.0593 111.303 41.9551 111.282 41.8604C111.258 41.7523 111.183 41.693 111.057 41.6826C110.931 41.6723 110.807 41.7105 110.685 41.7971C110.211 42.1279 109.76 42.2789 109.203 42.4006C108.606 42.5312 108.173 42.6458 107.323 42.4006C106.473 42.1555 106.106 41.834 105.623 41.0927C105.217 40.4712 104.569 39.7362 103.949 39.0668Z" fill="black"/>
<path fill-rule="evenodd" clip-rule="evenodd" d="M106.752 31.8804C107.147 32.9702 107.109 33.9372 106.151 35.444C106.05 35.6028 105.925 35.7546 105.795 35.8906C105.565 36.1318 105.32 36.3232 105.17 36.4158C104.644 36.7401 104.475 36.8216 104.143 36.9634C103.519 37.2304 102.951 37.3582 102.536 37.3876C102.455 37.2847 102.369 37.1747 102.279 37.0606C102.561 37.0293 102.846 36.9782 103.135 36.9035C103.645 36.7712 104.257 36.4328 104.644 36.1649C104.918 35.9751 105.197 35.6271 105.218 35.5977C105.914 34.6467 106.333 33.6328 106.124 32.6989C106.055 32.3924 105.781 31.9858 105.346 31.9338C104.858 31.8757 104.085 32.1251 103.437 32.8998C102.848 31.9364 101.882 31.4737 100.905 31.7671C100.675 31.8359 100.348 32.2842 100.238 32.7646C100.11 33.3272 100.222 34.3724 100.905 35.3893C101.054 35.6115 101.33 35.9327 101.622 36.2732C101.811 36.4932 102.007 36.7212 102.18 36.9359C102.141 36.9479 101.693 36.9612 101.475 36.9663C101.426 36.9114 101.375 36.8544 101.322 36.7957C101.061 36.5031 100.765 36.1721 100.543 35.8906C100.502 35.8388 100.462 35.7881 100.422 35.738C99.7305 34.8687 99.2071 34.2106 99.4291 32.3693C99.5285 31.5457 100.177 31.0336 100.967 30.9198C101.927 30.7814 103.062 31.2224 103.54 32.3025C103.819 31.6814 104.645 31.0989 105.482 31.1078C105.946 31.1127 106.576 31.3933 106.752 31.8804Z" fill="black"/>
<path fill-rule="evenodd" clip-rule="evenodd" d="M103.949 39.0668C103.692 39.1293 103.42 39.1605 103.135 39.1605C103.097 39.1605 103.059 39.16 103.022 39.1588C102.901 38.8411 102.779 38.6665 102.55 38.341C102.483 38.2442 102.406 38.134 102.316 38.0028C102.219 37.8592 102.11 37.7164 101.994 37.573C102.193 37.565 102.602 37.5447 102.647 37.5277C102.719 37.6199 102.786 37.7041 102.844 37.7776C102.919 37.8722 102.98 37.9491 103.022 38.0028C103.368 38.4439 103.693 38.7924 103.882 38.9955C103.907 39.0217 103.929 39.0455 103.949 39.0668Z" fill="black"/>
<circle cx="90.6826" cy="24.2582" r="1" stroke="black" stroke-width="0.505019"/>
<circle cx="90.6826" cy="24.2582" r="1" stroke="black" stroke-width="0.505019"/>
<path d="M94.4526 20.7614C94.4526 20.0122 93.8454 19.4048 93.0963 19.4048C92.3471 19.4048 91.7397 20.0122 91.7397 20.7614C91.7398 21.5105 92.3471 22.1177 93.0963 22.1177V22.6325L93 22.6303C92.0431 22.5818 91.2759 21.8145 91.2274 20.8576L91.2249 20.7614C91.2249 19.7278 92.0628 18.8899 93.0963 18.8899L93.1926 18.8925C94.1813 18.9426 94.9674 19.7602 94.9674 20.7614L94.9652 20.8576C94.915 21.8464 94.0974 22.6325 93.0963 22.6325V22.1177C93.8454 22.1176 94.4525 21.5105 94.4526 20.7614Z" fill="black"/>
<path d="M94.4526 20.7614C94.4526 20.0122 93.8454 19.4048 93.0963 19.4048C92.3471 19.4048 91.7397 20.0122 91.7397 20.7614C91.7398 21.5105 92.3471 22.1177 93.0963 22.1177V22.6325L93 22.6303C92.0431 22.5818 91.2759 21.8145 91.2274 20.8576L91.2249 20.7614C91.2249 19.7278 92.0628 18.8899 93.0963 18.8899L93.1926 18.8925C94.1813 18.9426 94.9674 19.7602 94.9674 20.7614L94.9652 20.8576C94.915 21.8464 94.0974 22.6325 93.0963 22.6325V22.1177C93.8454 22.1176 94.4525 21.5105 94.4526 20.7614Z" fill="black"/>
<path d="M52.9183 81.383C53.0656 81.5756 53.2413 81.8363 53.4453 82.165C53.6493 82.4936 53.8476 82.828 54.0403 83.168C54.2443 83.508 54.4143 83.814 54.5503 84.086L53.5473 84.545C53.3999 84.239 53.2356 83.9273 53.0543 83.61C52.8843 83.2813 52.7029 82.964 52.5103 82.658C52.3289 82.3406 52.1419 82.0516 51.9493 81.791L52.9183 81.383ZM55.1113 80.516C55.2699 80.7086 55.4513 80.9636 55.6553 81.281C55.8706 81.5983 56.0803 81.927 56.2843 82.267C56.4883 82.607 56.6583 82.9073 56.7943 83.168L55.8083 83.644C55.6609 83.3493 55.4966 83.0433 55.3153 82.726C55.1339 82.4086 54.9413 82.097 54.7373 81.791C54.5446 81.485 54.3519 81.2073 54.1593 80.958L55.1113 80.516ZM48.2093 79.989C48.1753 80.2723 48.1413 80.5556 48.1073 80.839C48.0846 81.1223 48.0676 81.4113 48.0563 81.706C48.0449 82.182 48.0223 82.7713 47.9883 83.474C47.9656 84.1766 47.9429 84.9246 47.9203 85.718C47.9089 86.5 47.8919 87.282 47.8693 88.064C47.8579 88.846 47.8523 89.5486 47.8523 90.172C47.8523 90.7953 47.9713 91.294 48.2093 91.668C48.4473 92.0306 48.7759 92.297 49.1953 92.467C49.6146 92.6256 50.0963 92.705 50.6403 92.705C51.4109 92.705 52.1079 92.6086 52.7313 92.416C53.3546 92.212 53.9099 91.9456 54.3973 91.617C54.8846 91.277 55.3153 90.8973 55.6893 90.478C56.0746 90.0586 56.4203 89.628 56.7263 89.186L57.6953 90.342C57.4006 90.7386 57.0379 91.158 56.6073 91.6C56.1879 92.042 55.6893 92.45 55.1113 92.824C54.5333 93.198 53.8703 93.504 53.1223 93.742C52.3743 93.98 51.5356 94.099 50.6063 94.099C49.7903 94.099 49.0706 93.9743 48.4473 93.725C47.8239 93.4756 47.3366 93.0733 46.9853 92.518C46.6339 91.9626 46.4583 91.226 46.4583 90.308C46.4583 89.798 46.4639 89.237 46.4753 88.625C46.4866 88.0016 46.5036 87.3613 46.5263 86.704C46.5489 86.0466 46.5659 85.4063 46.5773 84.783C46.5999 84.1483 46.6169 83.5646 46.6283 83.032C46.6396 82.4993 46.6453 82.0573 46.6453 81.706C46.6453 81.3773 46.6339 81.0713 46.6113 80.788C46.5886 80.4933 46.5489 80.2213 46.4923 79.972L48.2093 79.989ZM63.0792 91.4226L62.9827 92.0746C62.9142 92.5334 62.8096 93.0244 62.6687 93.5476C62.5319 94.0708 62.389 94.5639 62.2401 95.0267C62.0912 95.4895 61.9685 95.8578 61.8719 96.1314H60.7852C60.8375 95.8739 60.906 95.5338 60.9905 95.1112C61.075 94.6886 61.1595 94.2157 61.244 93.6925C61.3326 93.1733 61.405 92.6421 61.4613 92.0988L61.5338 91.4226H63.0792ZM68.4099 81.179C69.0219 81.2583 69.7076 81.315 70.4669 81.349C71.2376 81.383 72.0479 81.4 72.8979 81.4C73.4419 81.4 73.9859 81.3886 74.5299 81.366C75.0853 81.3433 75.6123 81.315 76.1109 81.281C76.6209 81.2356 77.0799 81.196 77.4879 81.162V82.556C77.1026 82.5786 76.6549 82.607 76.1449 82.641C75.6349 82.675 75.0966 82.7033 74.5299 82.726C73.9746 82.7486 73.4306 82.76 72.8979 82.76C72.0479 82.76 71.2546 82.743 70.5179 82.709C69.7813 82.6636 69.0786 82.6183 68.4099 82.573V81.179ZM69.0899 88.03C68.9766 88.37 68.8859 88.6986 68.8179 89.016C68.7613 89.3333 68.7329 89.6506 68.7329 89.968C68.7329 90.614 69.0673 91.141 69.7359 91.549C70.4046 91.957 71.4189 92.161 72.7789 92.161C73.5609 92.161 74.3146 92.1326 75.0399 92.076C75.7653 92.0193 76.4283 91.94 77.0289 91.838C77.6409 91.736 78.1623 91.617 78.5929 91.481L78.6099 92.943C78.2019 93.0563 77.6976 93.1583 77.0969 93.249C76.5076 93.3396 75.8503 93.4076 75.1249 93.453C74.3996 93.5096 73.6289 93.538 72.8129 93.538C71.6683 93.538 70.6879 93.4133 69.8719 93.164C69.0559 92.9146 68.4326 92.5463 68.0019 92.059C67.5713 91.5716 67.3559 90.971 67.3559 90.257C67.3559 89.815 67.3956 89.3956 67.4749 88.999C67.5543 88.6023 67.6336 88.234 67.7129 87.894L69.0899 88.03ZM84.8439 91.4226L84.7473 92.0746C84.6789 92.5334 84.5742 93.0244 84.4334 93.5476C84.2965 94.0708 84.1537 94.5639 84.0048 95.0267C83.8558 95.4895 83.7331 95.8578 83.6365 96.1314H82.5499C82.6022 95.8739 82.6706 95.5338 82.7551 95.1112C82.8396 94.6886 82.9241 94.2157 83.0087 93.6925C83.0972 93.1733 83.1697 92.6421 83.226 92.0988L83.2984 91.4226H84.8439ZM98.1476 80.567C97.9662 80.703 97.7622 80.873 97.5356 81.077C97.3089 81.2696 97.1219 81.4226 96.9746 81.536C96.6799 81.7966 96.3229 82.1026 95.9036 82.454C95.4842 82.794 95.0422 83.1566 94.5776 83.542C94.1129 83.916 93.6652 84.2786 93.2346 84.63C92.8039 84.97 92.4299 85.276 92.1126 85.548C91.7726 85.8426 91.5459 86.0863 91.4326 86.279C91.3192 86.4603 91.3192 86.6473 91.4326 86.84C91.5572 87.0326 91.8009 87.2876 92.1636 87.605C92.4809 87.8543 92.8436 88.149 93.2516 88.489C93.6596 88.8176 94.0902 89.1746 94.5436 89.56C95.0082 89.9453 95.4786 90.342 95.9546 90.75C96.4306 91.158 96.8896 91.5603 97.3316 91.957C97.7736 92.3536 98.1702 92.7333 98.5216 93.096L97.3146 94.218C96.9632 93.81 96.5722 93.3963 96.1416 92.977C95.8469 92.671 95.4786 92.314 95.0366 91.906C94.5946 91.498 94.1186 91.073 93.6086 90.631C93.1099 90.189 92.6112 89.764 92.1126 89.356C91.6252 88.9366 91.1832 88.5626 90.7866 88.234C90.2426 87.7806 89.8969 87.384 89.7496 87.044C89.6022 86.6926 89.6306 86.347 89.8346 86.007C90.0386 85.667 90.3956 85.2873 90.9056 84.868C91.2229 84.596 91.6026 84.2786 92.0446 83.916C92.4979 83.5533 92.9682 83.1736 93.4556 82.777C93.9429 82.369 94.4019 81.978 94.8326 81.604C95.2746 81.2186 95.6372 80.8786 95.9206 80.584C96.0906 80.414 96.2662 80.2213 96.4476 80.006C96.6402 79.7906 96.7876 79.6036 96.8896 79.445L98.1476 80.567ZM106.609 91.4226L106.512 92.0746C106.444 92.5334 106.339 93.0244 106.198 93.5476C106.061 94.0708 105.918 94.5639 105.769 95.0267C105.62 95.4895 105.498 95.8578 105.401 96.1314H104.315C104.367 95.8739 104.435 95.5338 104.52 95.1112C104.604 94.6886 104.689 94.2157 104.773 93.6925C104.862 93.1733 104.934 92.6421 104.991 92.0988L105.063 91.4226H106.609ZM120.422 80.55C120.513 81.06 120.632 81.6153 120.779 82.216C120.938 82.8166 121.148 83.4343 121.408 84.069C121.68 84.7036 122.026 85.3383 122.445 85.973C122.876 86.5963 123.403 87.1856 124.026 87.741L123.142 88.948C122.519 88.2793 121.964 87.5483 121.476 86.755C120.989 85.9503 120.553 85.0663 120.167 84.103C119.782 83.1396 119.419 82.08 119.079 80.924L120.422 80.55ZM109.797 81.451C110.058 81.4736 110.358 81.4736 110.698 81.451C111.084 81.4396 111.531 81.4056 112.041 81.349C112.551 81.2923 113.067 81.2243 113.588 81.145C114.11 81.0656 114.591 80.9806 115.033 80.89C115.487 80.7993 115.838 80.703 116.087 80.601L116.478 81.808C116.365 81.8306 116.218 81.8703 116.036 81.927C115.855 81.9836 115.702 82.046 115.577 82.114C115.362 82.2726 115.096 82.5106 114.778 82.828C114.472 83.1453 114.149 83.5363 113.809 84.001C113.481 84.4543 113.169 84.9643 112.874 85.531C112.591 86.0976 112.359 86.704 112.177 87.35C111.996 87.996 111.905 88.6703 111.905 89.373C111.905 89.9736 111.99 90.478 112.16 90.886C112.342 91.294 112.591 91.6226 112.908 91.872C113.226 92.1213 113.583 92.3026 113.979 92.416C114.376 92.5293 114.79 92.586 115.22 92.586C116.58 92.586 117.634 92.1326 118.382 91.226C119.142 90.308 119.601 89.0216 119.759 87.367C119.918 85.7123 119.782 83.7743 119.351 81.553L120.609 83.865C120.779 84.8283 120.87 85.7973 120.881 86.772C120.904 87.7353 120.813 88.6476 120.609 89.509C120.417 90.3703 120.099 91.1353 119.657 91.804C119.215 92.4726 118.626 92.9996 117.889 93.385C117.153 93.7703 116.252 93.963 115.186 93.963C114.518 93.963 113.9 93.8666 113.333 93.674C112.778 93.4926 112.291 93.2263 111.871 92.875C111.452 92.5123 111.129 92.0646 110.902 91.532C110.676 90.988 110.562 90.3646 110.562 89.662C110.562 88.8686 110.659 88.1206 110.851 87.418C111.044 86.7153 111.293 86.0636 111.599 85.463C111.905 84.851 112.245 84.2843 112.619 83.763C112.993 83.2416 113.367 82.7713 113.741 82.352C113.447 82.3973 113.112 82.4483 112.738 82.505C112.376 82.5503 112.024 82.5956 111.684 82.641C111.344 82.675 111.067 82.709 110.851 82.743C110.693 82.7543 110.534 82.7713 110.375 82.794C110.228 82.8166 110.069 82.845 109.899 82.879L109.797 81.451ZM128.373 91.4226L128.277 92.0746C128.208 92.5334 128.104 93.0244 127.963 93.5476C127.826 94.0708 127.683 94.5639 127.534 95.0267C127.385 95.4895 127.262 95.8578 127.166 96.1314H126.079C126.131 95.8739 126.2 95.5338 126.284 95.1112C126.369 94.6886 126.453 94.2157 126.538 93.6925C126.627 93.1733 126.699 92.6421 126.755 92.0988L126.828 91.4226H128.373ZM138.906 79.768C138.895 79.8813 138.878 80.04 138.855 80.244C138.844 80.448 138.827 80.6576 138.804 80.873C138.793 81.0883 138.787 81.281 138.787 81.451C138.787 81.8363 138.787 82.3066 138.787 82.862C138.787 83.4173 138.787 83.984 138.787 84.562C138.787 85.0266 138.798 85.5706 138.821 86.194C138.855 86.806 138.883 87.435 138.906 88.081C138.94 88.727 138.968 89.339 138.991 89.917C139.025 90.4836 139.042 90.9483 139.042 91.311C139.042 91.6623 138.985 91.9966 138.872 92.314C138.759 92.62 138.577 92.892 138.328 93.13C138.09 93.368 137.773 93.555 137.376 93.691C136.979 93.827 136.498 93.895 135.931 93.895C135.149 93.895 134.452 93.8043 133.84 93.623C133.228 93.4416 132.741 93.1583 132.378 92.773C132.027 92.3763 131.851 91.855 131.851 91.209C131.851 90.699 132.004 90.2343 132.31 89.815C132.616 89.3956 133.086 89.0613 133.721 88.812C134.356 88.5513 135.16 88.421 136.135 88.421C136.974 88.421 137.784 88.5173 138.566 88.71C139.359 88.9026 140.102 89.1576 140.793 89.475C141.496 89.7923 142.136 90.1493 142.714 90.546C143.303 90.9313 143.813 91.3166 144.244 91.702L143.428 92.994C143.009 92.5633 142.521 92.1496 141.966 91.753C141.422 91.345 140.827 90.9823 140.181 90.665C139.535 90.3363 138.855 90.0813 138.141 89.9C137.438 89.7073 136.713 89.611 135.965 89.611C135.081 89.611 134.401 89.7526 133.925 90.036C133.449 90.3193 133.211 90.6933 133.211 91.158C133.211 91.6226 133.438 91.9853 133.891 92.246C134.344 92.4953 134.979 92.62 135.795 92.62C136.418 92.62 136.883 92.4783 137.189 92.195C137.495 91.9003 137.648 91.4583 137.648 90.869C137.648 90.5516 137.637 90.1323 137.614 89.611C137.591 89.0783 137.569 88.506 137.546 87.894C137.523 87.282 137.501 86.687 137.478 86.109C137.455 85.5196 137.444 85.004 137.444 84.562C137.444 84.2333 137.444 83.8763 137.444 83.491C137.444 83.1056 137.444 82.7316 137.444 82.369C137.444 81.995 137.438 81.689 137.427 81.451C137.427 81.247 137.421 81.0373 137.41 80.822C137.399 80.5953 137.382 80.3913 137.359 80.21C137.348 80.0173 137.325 79.87 137.291 79.768H138.906ZM138.039 83.185C138.322 83.185 138.696 83.1793 139.161 83.168C139.626 83.1566 140.13 83.1396 140.674 83.117C141.218 83.0943 141.762 83.066 142.306 83.032C142.85 82.9866 143.354 82.9356 143.819 82.879L143.87 84.154C143.405 84.1993 142.895 84.239 142.34 84.273C141.796 84.307 141.252 84.341 140.708 84.375C140.164 84.3976 139.654 84.4146 139.178 84.426C138.713 84.4373 138.334 84.443 138.039 84.443V83.185ZM150.138 91.4226L150.041 92.0746C149.973 92.5334 149.868 93.0244 149.727 93.5476C149.59 94.0708 149.448 94.5639 149.299 95.0267C149.15 95.4895 149.027 95.8578 148.93 96.1314H147.844C147.896 95.8739 147.965 95.5338 148.049 95.1112C148.134 94.6886 148.218 94.2157 148.303 93.6925C148.391 93.1733 148.464 92.6421 148.52 92.0988L148.592 91.4226H150.138ZM163.714 87.452C163.714 86.976 163.589 86.5566 163.34 86.194C163.102 85.82 162.762 85.531 162.32 85.327C161.889 85.1116 161.385 85.004 160.807 85.004C160.149 85.004 159.532 85.055 158.954 85.157C158.376 85.259 157.849 85.378 157.373 85.514C156.908 85.65 156.506 85.7633 156.166 85.854C155.905 85.9333 155.65 86.0183 155.401 86.109C155.163 86.1996 154.942 86.2903 154.738 86.381L154.296 84.8C154.534 84.7773 154.789 84.7433 155.061 84.698C155.344 84.6526 155.61 84.6016 155.86 84.545C156.268 84.4543 156.738 84.3466 157.271 84.222C157.815 84.0973 158.398 83.984 159.022 83.882C159.656 83.78 160.297 83.729 160.943 83.729C161.747 83.729 162.467 83.8763 163.102 84.171C163.736 84.4656 164.235 84.8963 164.598 85.463C164.972 86.0183 165.159 86.6983 165.159 87.503C165.159 88.4323 164.966 89.2596 164.581 89.985C164.195 90.699 163.651 91.3223 162.949 91.855C162.257 92.3763 161.441 92.8126 160.501 93.164C159.56 93.5153 158.54 93.7703 157.441 93.929L156.676 92.637C157.696 92.5123 158.636 92.314 159.498 92.042C160.359 91.7586 161.101 91.4073 161.725 90.988C162.359 90.5686 162.847 90.0643 163.187 89.475C163.538 88.8856 163.714 88.2113 163.714 87.452ZM156.574 79.802C157.038 79.904 157.594 80.0003 158.24 80.091C158.897 80.1816 159.571 80.2666 160.263 80.346C160.965 80.414 161.623 80.4706 162.235 80.516C162.858 80.5613 163.379 80.584 163.799 80.584L163.595 81.893C163.119 81.859 162.563 81.8193 161.929 81.774C161.305 81.7173 160.654 81.655 159.974 81.587C159.305 81.5076 158.653 81.4283 158.019 81.349C157.395 81.2583 156.84 81.1733 156.353 81.094L156.574 79.802Z" fill="black"/>
<path d="M40.3413 51.633V66.1785H38.58V53.4796H38.4948L34.9436 55.8376V54.0478L38.58 51.633H40.3413ZM39.1055 72.5705C37.5951 72.5705 36.1557 72.3409 34.7874 71.8816C33.4237 71.4223 32.1714 70.7736 31.0303 69.9356C29.8939 69.1022 28.9067 68.115 28.0686 66.9739C27.2353 65.8376 26.589 64.5876 26.1297 63.2239C25.6704 61.8555 25.4408 60.4162 25.4408 58.9057C25.4408 57.3953 25.6704 55.9583 26.1297 54.5947C26.589 53.2263 27.2353 51.9739 28.0686 50.8376C28.9067 49.6965 29.8939 48.7092 31.0303 47.8759C32.1714 47.0378 33.4237 46.3892 34.7874 45.9299C36.1557 45.4706 37.5951 45.241 39.1055 45.241C40.616 45.241 42.053 45.4706 43.4166 45.9299C44.785 46.3892 46.0374 47.0378 47.1737 47.8759C48.3148 48.7092 49.302 49.6965 50.1354 50.8376C50.9734 51.9739 51.6221 53.2263 52.0814 54.5947C52.5407 55.9583 52.7703 57.3953 52.7703 58.9057C52.7703 60.4162 52.5407 61.8555 52.0814 63.2239C51.6221 64.5876 50.9734 65.8376 50.1354 66.9739C49.302 68.115 48.3148 69.1022 47.1737 69.9356C46.0374 70.7736 44.785 71.4223 43.4166 71.8816C42.053 72.3409 40.616 72.5705 39.1055 72.5705ZM39.1055 70.9228C40.436 70.9228 41.7002 70.7192 42.8982 70.312C44.1008 69.9095 45.2017 69.339 46.2007 68.6003C47.2045 67.8664 48.0733 67 48.8073 66.0009C49.5459 64.9971 50.1164 63.8963 50.5189 62.6984C50.9214 61.4957 51.1226 60.2315 51.1226 58.9057C51.1226 57.5752 50.9214 56.311 50.5189 55.1131C50.1164 53.9105 49.5459 52.8096 48.8073 51.8106C48.0733 50.8068 47.2045 49.9379 46.2007 49.204C45.2017 48.4654 44.1008 47.8948 42.8982 47.4924C41.7002 47.0899 40.436 46.8887 39.1055 46.8887C37.7751 46.8887 36.5085 47.0899 35.3058 47.4924C34.1079 47.8948 33.0071 48.4654 32.0033 49.204C31.0042 49.9379 30.1354 50.8068 29.3967 51.8106C28.6628 52.8096 28.0947 53.9105 27.6922 55.1131C27.2897 56.311 27.0885 57.5752 27.0885 58.9057C27.0885 60.2315 27.2897 61.4957 27.6922 62.6984C28.0947 63.8963 28.6628 64.9971 29.3967 66.0009C30.1354 67 31.0042 67.8664 32.0033 68.6003C33.0071 69.339 34.1079 69.9095 35.3058 70.312C36.5085 70.7192 37.7751 70.9228 39.1055 70.9228ZM59.3865 50.7985C59.3598 51.0251 59.3331 51.2851 59.3065 51.5785C59.2798 51.8585 59.2665 52.1385 59.2665 52.4185C59.2665 52.5918 59.2665 52.9385 59.2665 53.4585C59.2665 53.9651 59.2665 54.5785 59.2665 55.2985C59.2665 56.0051 59.2665 56.7585 59.2665 57.5585C59.2665 58.3451 59.2665 59.1051 59.2665 59.8385C59.2665 60.5718 59.2665 61.2185 59.2665 61.7785C59.2665 62.3251 59.2665 62.7251 59.2665 62.9785C59.2665 63.4851 59.3798 63.8385 59.6065 64.0385C59.8331 64.2251 60.1865 64.3651 60.6665 64.4585C60.9865 64.5118 61.3865 64.5518 61.8665 64.5785C62.3465 64.6051 62.8331 64.6185 63.3265 64.6185C63.8465 64.6185 64.4131 64.6051 65.0265 64.5785C65.6531 64.5518 66.2798 64.5118 66.9065 64.4585C67.5331 64.4051 68.1265 64.3385 68.6865 64.2585C69.2598 64.1785 69.7531 64.0851 70.1665 63.9785V65.7985C69.5931 65.8918 68.8998 65.9718 68.0865 66.0385C67.2865 66.0918 66.4598 66.1385 65.6065 66.1785C64.7531 66.2051 63.9665 66.2185 63.2465 66.2185C62.6465 66.2185 62.0665 66.2051 61.5065 66.1785C60.9465 66.1385 60.4531 66.0851 60.0265 66.0185C59.2665 65.8851 58.6798 65.6251 58.2665 65.2385C57.8531 64.8385 57.6465 64.2318 57.6465 63.4185C57.6465 63.0985 57.6465 62.6385 57.6465 62.0385C57.6465 61.4251 57.6465 60.7318 57.6465 59.9585C57.6465 59.1851 57.6465 58.3985 57.6465 57.5985C57.6465 56.7851 57.6465 56.0185 57.6465 55.2985C57.6465 54.5785 57.6465 53.9651 57.6465 53.4585C57.6465 52.9385 57.6465 52.5918 57.6465 52.4185C57.6465 52.2318 57.6398 52.0451 57.6265 51.8585C57.6131 51.6585 57.5998 51.4651 57.5865 51.2785C57.5731 51.0918 57.5531 50.9318 57.5265 50.7985H59.3865ZM58.5465 57.0985C59.1465 56.9651 59.8131 56.7985 60.5465 56.5985C61.2931 56.3985 62.0598 56.1785 62.8465 55.9385C63.6331 55.6985 64.3931 55.4518 65.1265 55.1985C65.8731 54.9318 66.5331 54.6718 67.1065 54.4185C67.4131 54.2851 67.7065 54.1451 67.9865 53.9985C68.2798 53.8518 68.5731 53.6851 68.8665 53.4985L69.5665 55.1185C69.2865 55.2251 68.9731 55.3518 68.6265 55.4985C68.2931 55.6451 67.9731 55.7785 67.6665 55.8985C67.0531 56.1518 66.3465 56.4185 65.5465 56.6985C64.7598 56.9651 63.9465 57.2318 63.1065 57.4985C62.2665 57.7518 61.4531 57.9918 60.6665 58.2185C59.8798 58.4318 59.1731 58.6118 58.5465 58.7585V57.0985ZM77.5465 51.5185C77.9065 51.7585 78.3198 52.0585 78.7865 52.4185C79.2531 52.7651 79.7265 53.1385 80.2065 53.5385C80.6998 53.9251 81.1598 54.3051 81.5865 54.6785C82.0131 55.0518 82.3665 55.3785 82.6465 55.6585L81.3865 56.9185C81.1331 56.6651 80.8065 56.3518 80.4065 55.9785C80.0065 55.6051 79.5665 55.2185 79.0865 54.8185C78.6065 54.4051 78.1331 54.0185 77.6665 53.6585C77.1998 53.2851 76.7798 52.9785 76.4065 52.7385L77.5465 51.5185ZM75.8265 64.9185C76.9998 64.7451 78.0665 64.5051 79.0265 64.1985C79.9998 63.8918 80.8865 63.5451 81.6865 63.1585C82.4865 62.7718 83.1998 62.3851 83.8265 61.9985C84.8531 61.3585 85.7998 60.6251 86.6665 59.7985C87.5331 58.9585 88.2931 58.0918 88.9465 57.1985C89.5998 56.3051 90.1198 55.4518 90.5065 54.6385L91.4665 56.3385C91.0131 57.1651 90.4531 58.0051 89.7865 58.8585C89.1198 59.7118 88.3665 60.5318 87.5265 61.3185C86.6865 62.1051 85.7598 62.8185 84.7465 63.4585C84.0798 63.8718 83.3465 64.2785 82.5465 64.6785C81.7598 65.0785 80.8931 65.4451 79.9465 65.7785C79.0131 66.0985 77.9931 66.3585 76.8865 66.5585L75.8265 64.9185ZM99.7465 64.4185C99.7465 64.2318 99.7465 63.8585 99.7465 63.2985C99.7465 62.7251 99.7465 62.0518 99.7465 61.2785C99.7465 60.4918 99.7465 59.6718 99.7465 58.8185C99.7465 57.9518 99.7465 57.1118 99.7465 56.2985C99.7465 55.4851 99.7465 54.7651 99.7465 54.1385C99.7465 53.5118 99.7465 53.0585 99.7465 52.7785C99.7465 52.4985 99.7331 52.1585 99.7065 51.7585C99.6798 51.3585 99.6398 51.0051 99.5865 50.6985H101.546C101.52 50.9918 101.486 51.3385 101.446 51.7385C101.42 52.1385 101.406 52.4851 101.406 52.7785C101.406 53.2985 101.406 53.9251 101.406 54.6585C101.406 55.3785 101.406 56.1518 101.406 56.9785C101.406 57.7918 101.406 58.6051 101.406 59.4185C101.42 60.2185 101.426 60.9718 101.426 61.6785C101.426 62.3718 101.426 62.9651 101.426 63.4585C101.426 63.9385 101.426 64.2585 101.426 64.4185C101.426 64.6318 101.426 64.8785 101.426 65.1585C101.44 65.4385 101.46 65.7251 101.486 66.0185C101.513 66.2985 101.533 66.5518 101.546 66.7785H99.6065C99.6598 66.4585 99.6931 66.0785 99.7065 65.6385C99.7331 65.1985 99.7465 64.7918 99.7465 64.4185ZM101.066 55.9385C101.72 56.1385 102.44 56.3785 103.226 56.6585C104.026 56.9251 104.84 57.2118 105.666 57.5185C106.493 57.8251 107.273 58.1385 108.006 58.4585C108.753 58.7651 109.4 59.0585 109.946 59.3385L109.266 61.0385C108.693 60.7185 108.046 60.4051 107.326 60.0985C106.606 59.7785 105.866 59.4651 105.106 59.1585C104.36 58.8518 103.633 58.5785 102.926 58.3385C102.233 58.0851 101.613 57.8785 101.066 57.7185V55.9385ZM114.512 66.1785V64.9001L119.313 59.6444C119.877 59.0288 120.341 58.4938 120.705 58.0393C121.07 57.58 121.34 57.1491 121.515 56.7466C121.695 56.3395 121.785 55.9133 121.785 55.4682C121.785 54.9569 121.662 54.5142 121.416 54.1401C121.174 53.7661 120.843 53.4772 120.421 53.2736C120 53.07 119.526 52.9682 119.001 52.9682C118.442 52.9682 117.954 53.0842 117.538 53.3163C117.126 53.5435 116.806 53.8631 116.579 54.2751C116.356 54.687 116.245 55.1699 116.245 55.7239H114.569C114.569 54.8716 114.765 54.1235 115.158 53.4796C115.551 52.8357 116.086 52.3338 116.764 51.9739C117.445 51.6141 118.21 51.4341 119.058 51.4341C119.91 51.4341 120.665 51.6141 121.323 51.9739C121.981 52.3338 122.497 52.8191 122.872 53.4299C123.246 54.0407 123.433 54.7201 123.433 55.4682C123.433 56.0033 123.336 56.5265 123.141 57.0378C122.952 57.5445 122.621 58.1103 122.147 58.7353C121.678 59.3555 121.027 60.1131 120.194 61.008L116.927 64.5023V64.616H123.688V66.1785H114.512Z" fill="black"/>
</svg>
